<svg id="Layer_3" data-name="Layer 3" xmlns="http://www.w3.org/2000/svg" viewBox="0 0 24 24"><title>Artboard 153</title><path d="M19.828,3.671a4,4,0,1,1-5.656,0,4,4,0,0,1,5.656,0" fill="none" stroke="#323232" stroke-linecap="round" stroke-linejoin="round" stroke-width="1.5"/><path d="M18.361,5.649l-1.7,1.7L15.639,6.33" fill="none" stroke="#323232" stroke-linecap="round" stroke-linejoin="round" stroke-width="1.5"/><path d="M19.828,14.671a4,4,0,1,1-5.656,0,4,4,0,0,1,5.656,0" fill="none" stroke="#323232" stroke-linecap="round" stroke-linejoin="round" stroke-width="1.5"/><path d="M11,9.357H4.143A1.143,1.143,0,0,1,3,8.214V4.786A1.143,1.143,0,0,1,4.143,3.643H11" fill="none" stroke="#323232" stroke-linecap="round" stroke-linejoin="round" stroke-width="1.5"/><path d="M11,20.357H4.143A1.143,1.143,0,0,1,3,19.214V15.786a1.143,1.143,0,0,1,1.143-1.143H11" fill="none" stroke="#323232" stroke-linecap="round" stroke-linejoin="round" stroke-width="1.5"/><path d="M17.851,16.649l-1.7,1.7" fill="none" stroke="#323232" stroke-linecap="round" stroke-linejoin="round" stroke-width="1.5"/><path d="M0,0H24V24H0Z" fill="none"/></svg>