<?xml version="1.0" encoding="utf-8"?>
<!-- Generator: Adobe Illustrator 23.1.0, SVG Export Plug-In . SVG Version: 6.00 Build 0)  -->
<svg version="1.1" id="icons" xmlns="http://www.w3.org/2000/svg" xmlns:xlink="http://www.w3.org/1999/xlink" x="0px" y="0px"
	 width="24px" height="24px" viewBox="0 0 24 24" enable-background="new 0 0 24 24" xml:space="preserve">
<g>
	<rect y="0" fill="none" width="24" height="24"/>
	<g>
		<path fill="none" d="M14.85,19.871l1.629-1.629"/>
		<path fill="none" d="M16.479,21.5l-1.629-1.629"/>
		<path fill="none" stroke="#323232" stroke-width="1.5" stroke-linecap="round" stroke-linejoin="round" d="M14.85,19.871h1.629
			c2.248,0,4.071-1.823,4.071-4.071"/>
		<path fill="none" stroke="#323232" stroke-width="1.5" stroke-linecap="round" stroke-linejoin="round" d="M16.071,21.093
			l-1.221-1.221l1.221-1.221"/>
		<path fill="none" d="M9.15,4.129L7.521,5.757"/>
		<path fill="none" d="M7.521,2.5L9.15,4.129"/>
		<path fill="none" stroke="#323232" stroke-width="1.5" stroke-linecap="round" stroke-linejoin="round" d="M9.15,4.129H7.521
			C5.273,4.129,3.45,5.952,3.45,8.2"/>
		<path fill="none" stroke="#323232" stroke-width="1.5" stroke-linecap="round" stroke-linejoin="round" d="M7.929,2.907
			L9.15,4.129L7.929,5.35"/>
		<path fill="none" stroke="#323232" stroke-width="1.5" stroke-linecap="round" stroke-linejoin="round" d="M17.24,12.019
			c2.618,0,4.76-2.142,4.76-4.759S19.858,2.5,17.24,2.5s-4.759,2.142-4.759,4.76c0,1.068,0.361,2.053,0.96,2.849
			C14.312,11.265,15.691,12.019,17.24,12.019z"/>
		<path fill="none" stroke="#323232" stroke-width="1.5" stroke-linecap="round" stroke-linejoin="round" d="M17.24,5.118V4.404"/>
		<path fill="none" stroke="#323232" stroke-width="1.5" stroke-linecap="round" stroke-linejoin="round" d="M17.24,9.401v0.714"/>
		<path fill="none" stroke="#323232" stroke-width="1.5" stroke-linecap="round" stroke-linejoin="round" d="M16.001,8.891
			c0.185,0.303,0.501,0.512,0.882,0.512h0.357h0.425c0.554,0,1.002-0.449,1.002-1.002c0-0.46-0.313-0.861-0.759-0.973l-1.338-0.336
			c-0.445-0.112-0.759-0.513-0.759-0.973c0-0.554,0.449-1.002,1.002-1.002h0.425h0.357c0.381,0,0.696,0.208,0.881,0.51"/>
		<path fill="none" stroke="#323232" stroke-width="1.5" stroke-linecap="round" stroke-linejoin="round" d="M10.109,20.099
			c-1.855,1.855-4.863,1.855-6.718,0c-1.855-1.855-1.855-4.863,0-6.718c1.855-1.855,4.863-1.855,6.718,0
			C11.964,15.237,11.964,18.244,10.109,20.099"/>
		<path fill="none" stroke="#323232" stroke-width="1.5" stroke-linecap="round" stroke-linejoin="round" d="M4.144,16.74h2.85"/>
		<path fill="none" stroke="#323232" stroke-width="1.5" stroke-linecap="round" stroke-linejoin="round" d="M7.926,18.906
			c-0.866,0.375-1.903,0.221-2.611-0.487c-0.928-0.928-0.928-2.431,0-3.359c0.708-0.708,1.746-0.862,2.611-0.487"/>
	</g>
</g>
</svg>
