<?xml version="1.0" encoding="utf-8"?>
<!-- Generator: Adobe Illustrator 23.1.0, SVG Export Plug-In . SVG Version: 6.00 Build 0)  -->
<svg version="1.1" id="icons" xmlns="http://www.w3.org/2000/svg" xmlns:xlink="http://www.w3.org/1999/xlink" x="0px" y="0px"
	 width="24px" height="24px" viewBox="0 0 24 24" enable-background="new 0 0 24 24" xml:space="preserve">
<g>
	<g>
		<g>
			<path fill="none" stroke="#323232" stroke-width="1.5" stroke-linecap="round" stroke-linejoin="round" d="M8,4L6.5,5.5"/>
			<path fill="none" stroke="#323232" stroke-width="1.5" stroke-linecap="round" stroke-linejoin="round" d="M6.5,2.5L8,4"/>
		</g>
		<g>
			<path fill="none" stroke="#323232" stroke-width="1.5" stroke-linecap="round" stroke-linejoin="round" d="M6,4
				C4.343,4,3,5.343,3,7"/>
			
				<line fill="none" stroke="#323232" stroke-width="1.5" stroke-linecap="round" stroke-linejoin="round" x1="6" y1="4" x2="8" y2="4"/>
		</g>
		<g>
			<path fill="none" stroke="#323232" stroke-width="1.5" stroke-linecap="round" stroke-linejoin="round" d="M16,20l1.5-1.5"/>
			<path fill="none" stroke="#323232" stroke-width="1.5" stroke-linecap="round" stroke-linejoin="round" d="M17.5,21.5L16,20"/>
		</g>
		<g>
			<path fill="none" stroke="#323232" stroke-width="1.5" stroke-linecap="round" stroke-linejoin="round" d="M18,20
				c1.657,0,3-1.343,3-3"/>
			
				<line fill="none" stroke="#323232" stroke-width="1.5" stroke-linecap="round" stroke-linejoin="round" x1="18" y1="20" x2="16" y2="20"/>
		</g>
		<path fill="none" stroke="#323232" stroke-width="1.5" stroke-linecap="round" stroke-linejoin="round" d="M9.5,20
			c3.025,0,5.5-2.475,5.5-5.5S12.525,9,9.5,9S4,11.475,4,14.5c0,1.234,0.417,2.373,1.11,3.292C6.115,19.129,7.709,20,9.5,20z"/>
		<g>
			<path fill="none" stroke="#323232" stroke-width="1.5" stroke-linecap="round" stroke-linejoin="round" d="M18.389,5.611
				c2.139,2.139,2.139,5.639,0,7.778c-0.171,0.171-0.358,0.314-0.547,0.453"/>
			<path fill="none" stroke="#323232" stroke-width="1.5" stroke-linecap="round" stroke-linejoin="round" d="M18.389,5.611
				c-2.139-2.139-5.639-2.139-7.778,0c-0.17,0.17-0.316,0.355-0.458,0.542"/>
		</g>
	</g>
	<rect y="0" fill="none" width="24" height="24"/>
</g>
</svg>
