<?xml version="1.0" encoding="utf-8"?>
<!-- Generator: Adobe Illustrator 23.1.0, SVG Export Plug-In . SVG Version: 6.00 Build 0)  -->
<svg version="1.1" id="icons" xmlns="http://www.w3.org/2000/svg" xmlns:xlink="http://www.w3.org/1999/xlink" x="0px" y="0px"
	 width="24px" height="24px" viewBox="0 0 24 24" enable-background="new 0 0 24 24" xml:space="preserve">
<g>
	<path fill="none" d="M0,0h24v24H0V0z"/>
	<path fill="none" d="M0,0h24v24H0V0z"/>
	<g>
		<path fill="none" stroke="#323232" stroke-width="1.5" stroke-linecap="round" stroke-linejoin="round" d="M20.736,5.537v2h-2h2"
			/>
		<path fill="none" stroke="#323232" stroke-width="1.5" stroke-linecap="round" stroke-linejoin="round" d="M7.587,10.729
			c0-0.811,0.658-1.469,1.469-1.469s1.469,0.658,1.469,1.469c0,1.836-2.937,1.836-2.937,4.01h2.937"/>
		<path fill="none" stroke="#323232" stroke-width="1.5" stroke-linecap="round" stroke-linejoin="round" d="M15.894,12.03
			l-2.512-0.027c-0.142-0.002-0.257-0.117-0.257-0.26V9.261"/>
		<path fill="none" stroke="#323232" stroke-width="1.5" stroke-linecap="round" stroke-linejoin="round" d="M15.89,9.32v5.42"/>
		<path fill="none" stroke="#323232" stroke-width="1.5" stroke-linecap="round" stroke-linejoin="round" d="M20.3,7.538
			c-1.603-2.902-4.718-4.871-8.3-4.871c-5.155,0-9.333,4.179-9.333,9.333S6.845,21.333,12,21.333s9.333-4.179,9.333-9.333"/>
	</g>
</g>
</svg>
