<?xml version="1.0" encoding="utf-8"?>
<!-- Generator: Adobe Illustrator 24.0.2, SVG Export Plug-In . SVG Version: 6.00 Build 0)  -->
<svg version="1.1" id="Layer_21" xmlns="http://www.w3.org/2000/svg" xmlns:xlink="http://www.w3.org/1999/xlink" x="0px" y="0px"
	 width="24px" height="24px" viewBox="0 0 24 24" enable-background="new 0 0 24 24" xml:space="preserve">
<g>
	<g>
		<circle fill="none" stroke="#323232" stroke-width="1.5" stroke-linecap="round" stroke-linejoin="round" cx="12" cy="12" r="7"/>
		
			<line fill="none" stroke="#323232" stroke-width="1.5" stroke-linecap="round" stroke-linejoin="round" x1="14" y1="12" x2="10" y2="12"/>
		
			<line fill="none" stroke="#323232" stroke-width="1.5" stroke-linecap="round" stroke-linejoin="round" x1="12" y1="10" x2="12" y2="14"/>
		<path fill="none" stroke="#323232" stroke-width="1.5" stroke-linecap="round" stroke-linejoin="round" d="M12,21.951
			c0.028,0,0.05,0.022,0.05,0.05s-0.022,0.05-0.05,0.05s-0.05-0.022-0.05-0.05S11.972,21.951,12,21.951"/>
		<path fill="none" stroke="#323232" stroke-width="1.5" stroke-linecap="round" stroke-linejoin="round" d="M12,1.951
			c0.028,0,0.05,0.022,0.05,0.05s-0.022,0.05-0.05,0.05s-0.05-0.022-0.05-0.05S11.972,1.951,12,1.951"/>
		<path fill="none" stroke="#323232" stroke-width="1.5" stroke-linecap="round" stroke-linejoin="round" d="M15.075,21.464
			c0.027-0.009,0.054,0.005,0.063,0.032c0.009,0.027-0.005,0.054-0.032,0.063c-0.027,0.009-0.054-0.005-0.063-0.032
			C15.034,21.5,15.048,21.472,15.075,21.464"/>
		<path fill="none" stroke="#323232" stroke-width="1.5" stroke-linecap="round" stroke-linejoin="round" d="M8.894,2.443
			c0.027-0.009,0.054,0.005,0.063,0.032c0.009,0.027-0.005,0.054-0.032,0.063S8.871,2.532,8.862,2.506
			C8.854,2.479,8.868,2.451,8.894,2.443"/>
		<path fill="none" stroke="#323232" stroke-width="1.5" stroke-linecap="round" stroke-linejoin="round" d="M17.848,20.05
			c0.023-0.016,0.053-0.012,0.07,0.011c0.016,0.023,0.012,0.053-0.011,0.07c-0.023,0.016-0.053,0.012-0.07-0.011
			C17.821,20.098,17.826,20.067,17.848,20.05"/>
		<path fill="none" stroke="#323232" stroke-width="1.5" stroke-linecap="round" stroke-linejoin="round" d="M6.093,3.87
			c0.023-0.016,0.053-0.012,0.07,0.011c0.016,0.023,0.012,0.053-0.011,0.07C6.129,3.967,6.098,3.963,6.082,3.94
			C6.065,3.917,6.07,3.887,6.093,3.87"/>
		<path fill="none" stroke="#323232" stroke-width="1.5" stroke-linecap="round" stroke-linejoin="round" d="M20.05,17.849
			c0.016-0.023,0.047-0.028,0.07-0.011c0.023,0.016,0.028,0.047,0.011,0.07c-0.016,0.023-0.047,0.028-0.07,0.011
			C20.038,17.903,20.033,17.872,20.05,17.849"/>
		<path fill="none" stroke="#323232" stroke-width="1.5" stroke-linecap="round" stroke-linejoin="round" d="M3.869,6.093
			c0.016-0.023,0.047-0.028,0.07-0.011S3.967,6.13,3.95,6.152C3.934,6.175,3.903,6.18,3.88,6.163S3.853,6.116,3.869,6.093"/>
		<path fill="none" stroke="#323232" stroke-width="1.5" stroke-linecap="round" stroke-linejoin="round" d="M21.463,15.075
			c0.009-0.027,0.036-0.041,0.063-0.032c0.027,0.009,0.041,0.036,0.032,0.063c-0.009,0.027-0.036,0.041-0.063,0.032
			C21.468,15.13,21.454,15.102,21.463,15.075"/>
		<path fill="none" stroke="#323232" stroke-width="1.5" stroke-linecap="round" stroke-linejoin="round" d="M2.442,8.895
			c0.009-0.027,0.036-0.041,0.063-0.032s0.041,0.036,0.032,0.063S2.501,8.967,2.474,8.958S2.433,8.922,2.442,8.895"/>
		<path fill="none" stroke="#323232" stroke-width="1.5" stroke-linecap="round" stroke-linejoin="round" d="M21.95,12.001
			c0-0.028,0.022-0.05,0.05-0.05s0.05,0.022,0.05,0.05s-0.022,0.05-0.05,0.05S21.95,12.029,21.95,12.001"/>
		<path fill="none" stroke="#323232" stroke-width="1.5" stroke-linecap="round" stroke-linejoin="round" d="M1.95,12.001
			c0-0.028,0.022-0.05,0.05-0.05s0.05,0.022,0.05,0.05s-0.022,0.05-0.05,0.05S1.95,12.029,1.95,12.001"/>
		<path fill="none" stroke="#323232" stroke-width="1.5" stroke-linecap="round" stroke-linejoin="round" d="M21.463,8.926
			c-0.009-0.027,0.005-0.054,0.032-0.063c0.027-0.009,0.054,0.005,0.063,0.032c0.009,0.027-0.005,0.054-0.032,0.063
			C21.499,8.967,21.472,8.953,21.463,8.926"/>
		<path fill="none" stroke="#323232" stroke-width="1.5" stroke-linecap="round" stroke-linejoin="round" d="M2.442,15.106
			c-0.009-0.027,0.005-0.054,0.032-0.063c0.027-0.009,0.054,0.005,0.063,0.032s-0.005,0.054-0.032,0.063S2.451,15.133,2.442,15.106"
			/>
		<path fill="none" stroke="#323232" stroke-width="1.5" stroke-linecap="round" stroke-linejoin="round" d="M20.05,6.152
			c-0.016-0.023-0.012-0.053,0.011-0.07c0.023-0.016,0.053-0.012,0.07,0.011s0.012,0.053-0.011,0.07
			C20.097,6.18,20.066,6.175,20.05,6.152"/>
		<path fill="none" stroke="#323232" stroke-width="1.5" stroke-linecap="round" stroke-linejoin="round" d="M3.869,17.908
			c-0.016-0.023-0.012-0.053,0.011-0.07c0.023-0.016,0.053-0.012,0.07,0.011c0.016,0.023,0.012,0.053-0.011,0.07
			S3.886,17.931,3.869,17.908"/>
		<path fill="none" stroke="#323232" stroke-width="1.5" stroke-linecap="round" stroke-linejoin="round" d="M17.848,3.951
			c-0.023-0.016-0.028-0.047-0.011-0.07c0.016-0.023,0.047-0.028,0.07-0.011c0.023,0.016,0.028,0.047,0.011,0.07
			C17.902,3.963,17.871,3.967,17.848,3.951"/>
		<path fill="none" stroke="#323232" stroke-width="1.5" stroke-linecap="round" stroke-linejoin="round" d="M6.093,20.131
			c-0.023-0.016-0.028-0.047-0.011-0.07c0.016-0.023,0.047-0.028,0.07-0.011c0.023,0.016,0.028,0.047,0.011,0.07
			C6.146,20.143,6.115,20.148,6.093,20.131"/>
		<path fill="none" stroke="#323232" stroke-width="1.5" stroke-linecap="round" stroke-linejoin="round" d="M15.075,2.538
			c-0.027-0.009-0.041-0.036-0.032-0.063c0.009-0.027,0.036-0.041,0.063-0.032s0.041,0.036,0.032,0.063
			C15.129,2.532,15.101,2.546,15.075,2.538"/>
		<path fill="none" stroke="#323232" stroke-width="1.5" stroke-linecap="round" stroke-linejoin="round" d="M8.894,21.559
			c-0.027-0.009-0.041-0.036-0.032-0.063c0.009-0.027,0.036-0.041,0.063-0.032c0.027,0.009,0.041,0.036,0.032,0.063
			C8.949,21.553,8.921,21.567,8.894,21.559"/>
	</g>
	<path fill="none" d="M0,0h24v24H0V0z"/>
</g>
</svg>
