<svg id="Layer_3" data-name="Layer 3" xmlns="http://www.w3.org/2000/svg" viewBox="0 0 24 24"><rect width="24" height="24" fill="none"/><path d="M5.16,6.16A8.95492,8.95492,0,0,1,6.722,4.722" fill="none" stroke="#323232" stroke-linecap="round" stroke-linejoin="round" stroke-width="1.5"/><path d="M17,19.482A8.994,8.994,0,0,1,9.38,20.61" fill="none" stroke="#323232" stroke-linecap="round" stroke-linejoin="round" stroke-width="1.5"/><path d="M3.523,9A8.95617,8.95617,0,0,0,3,12" fill="none" stroke="#323232" stroke-linecap="round" stroke-linejoin="round" stroke-width="1.5"/><path d="M9.38,3.39A8.982,8.982,0,0,1,19.463,17" fill="none" stroke="#323232" stroke-linecap="round" stroke-linejoin="round" stroke-width="1.5"/><path d="M6.722,19.279A9.02406,9.02406,0,0,1,3.525,15" fill="none" stroke="#323232" stroke-linecap="round" stroke-linejoin="round" stroke-width="1.5"/><path d="M11.50386,16.28792l-3-1.71429A1,1,0,0,1,8,13.70539V10.29461a1,1,0,0,1,.50386-.86824l3-1.71429a1,1,0,0,1,.99228,0l3,1.71429A1,1,0,0,1,16,10.29461v3.41078a1,1,0,0,1-.50386.86824l-3,1.71429A1,1,0,0,1,11.50386,16.28792Z" fill="none" stroke="#323232" stroke-linecap="round" stroke-linejoin="round" stroke-width="1.5"/><line x1="8.15799" y1="9.80459" x2="12" y2="12" fill="none" stroke="#323232" stroke-linecap="round" stroke-linejoin="round" stroke-width="1.5"/><line x1="15.86434" y1="9.79183" x2="12" y2="12" fill="none" stroke="#323232" stroke-linecap="round" stroke-linejoin="round" stroke-width="1.5"/><line x1="12" y1="12" x2="12" y2="16.41817" fill="none" stroke="#323232" stroke-linecap="round" stroke-linejoin="round" stroke-width="1.5"/></svg>