<svg id="Layer_3" data-name="Layer 3" xmlns="http://www.w3.org/2000/svg" viewBox="0 0 24 24"><rect width="24" height="24" fill="none"/><rect width="24" height="24" fill="none"/><path d="M21,12a9,9,0,1,1-9-9" fill="none" stroke="#323232" stroke-linecap="round" stroke-linejoin="round" stroke-width="1.5"/><path d="M18.33936,2.39172a.752.752,0,0,1,1.32,0l.583,1.065a.74705.74705,0,0,0,.3.3l1.065.582a.752.752,0,0,1,0,1.321l-1.065.583a.74705.74705,0,0,0-.3.3l-.583,1.064a.752.752,0,0,1-1.32,0l-.583-1.065a.74693.74693,0,0,0-.3-.3l-1.065-.582a.752.752,0,0,1,0-1.321l1.065-.582a.74693.74693,0,0,0,.3-.3Z" fill="none" stroke="#323232" stroke-miterlimit="10" stroke-width="1.5"/><path d="M11.50386,16.28792l-3-1.71429A1,1,0,0,1,8,13.70539V10.29461a1,1,0,0,1,.50386-.86824l3-1.71429a1,1,0,0,1,.99228,0l3,1.71429A1,1,0,0,1,16,10.29461v3.41078a1,1,0,0,1-.50386.86824l-3,1.71429A1,1,0,0,1,11.50386,16.28792Z" fill="none" stroke="#323232" stroke-linecap="round" stroke-linejoin="round" stroke-width="1.5"/><line x1="8.13659" y1="9.79236" x2="12" y2="12" fill="none" stroke="#323232" stroke-linecap="round" stroke-linejoin="round" stroke-width="1.5"/><line x1="15.86376" y1="9.79216" x2="12" y2="12" fill="none" stroke="#323232" stroke-linecap="round" stroke-linejoin="round" stroke-width="1.5"/><line x1="12" y1="12" x2="12" y2="16.41905" fill="none" stroke="#323232" stroke-linecap="round" stroke-linejoin="round" stroke-width="1.5"/></svg>