<svg id="Layer_3" data-name="Layer 3" xmlns="http://www.w3.org/2000/svg" viewBox="0 0 24 24"><path d="M0,0H24V24H0Z" fill="none"/><path d="M3.32489,10.4886V7.74733a.96391.96391,0,0,1,.49578-.8426L6.21659,5.57367" fill="none" stroke="#323232" stroke-linecap="round" stroke-linejoin="round" stroke-width="1.5"/><path d="M14.8917,20.03219l-2.42426,1.34655a.96388.96388,0,0,1-.93626-.0001L9.1083,20.03219" fill="none" stroke="#323232" stroke-linecap="round" stroke-linejoin="round" stroke-width="1.5"/><path d="M20.67511,13.5114v2.74a.96391.96391,0,0,1-.49546.84242l-2.39624,1.33246" fill="none" stroke="#323232" stroke-linecap="round" stroke-linejoin="round" stroke-width="1.5"/><path d="M9.1083,3.96781l2.42426-1.34655a.96388.96388,0,0,1,.93626.0001L14.8917,3.96781" fill="none" stroke="#323232" stroke-linecap="round" stroke-linejoin="round" stroke-width="1.5"/><path d="M12,2.5008V5.25269" fill="none" stroke="#323232" stroke-linecap="round" stroke-linejoin="round" stroke-width="1.5"/><path d="M12,18.74731V21.5" fill="none" stroke="#323232" stroke-linecap="round" stroke-linejoin="round" stroke-width="1.5"/><path d="M3.45918,7.26,5.85031,8.57815" fill="none" stroke="#323232" stroke-linecap="round" stroke-linejoin="round" stroke-width="1.5"/><path d="M18.14969,15.42185,20.5413,16.7403" fill="none" stroke="#323232" stroke-linecap="round" stroke-linejoin="round" stroke-width="1.5"/><path d="M20.67511,10.4886v-2.74a.96389.96389,0,0,0-.49546-.84242L17.78341,5.57367" fill="none" stroke="#323232" stroke-linecap="round" stroke-linejoin="round" stroke-width="1.5"/><path d="M3.32489,13.5114v2.74a.96391.96391,0,0,0,.49546.84242l2.39624,1.33246" fill="none" stroke="#323232" stroke-linecap="round" stroke-linejoin="round" stroke-width="1.5"/><path d="M20.54008,7.26037,18.14969,8.57815" fill="none" stroke="#323232" stroke-linecap="round" stroke-linejoin="round" stroke-width="1.5"/><path d="M11.551,15.88075l-2.71513-1.5515a.905.905,0,0,1-.456-.7858v-3.0869a.905.905,0,0,1,.456-.7858L11.551,8.11925a.905.905,0,0,1,.89806,0l2.71513,1.5515a.905.905,0,0,1,.456.7858v3.0869a.905.905,0,0,1-.456.7858L12.449,15.88075A.905.905,0,0,1,11.551,15.88075Z" fill="none" stroke="#323232" stroke-linecap="round" stroke-linejoin="round" stroke-width="1.5"/><line x1="8.50404" y1="10.00233" x2="12" y2="12" fill="none" stroke="#323232" stroke-linecap="round" stroke-linejoin="round" stroke-width="1.5"/><line x1="15.49596" y1="10.00233" x2="12" y2="12" fill="none" stroke="#323232" stroke-linecap="round" stroke-linejoin="round" stroke-width="1.5"/><line x1="12" y1="12" x2="12" y2="15.99862" fill="none" stroke="#323232" stroke-linecap="round" stroke-linejoin="round" stroke-width="1.5"/><path d="M5.85031,15.42185,3.4585,16.74041" fill="none" stroke="#323232" stroke-linecap="round" stroke-linejoin="round" stroke-width="1.5"/></svg>