<svg id="Layer_3" data-name="Layer 3" xmlns="http://www.w3.org/2000/svg" viewBox="0 0 24 24"><title>Artboard 181</title><path d="M12.212,13.889h-.424a1.5,1.5,0,0,0-1.061.439l-.232.233A1.5,1.5,0,0,1,9.434,15H8.5A1.5,1.5,0,0,1,7,13.5v-3A1.5,1.5,0,0,1,8.5,9h7A1.5,1.5,0,0,1,17,10.5v3A1.5,1.5,0,0,1,15.5,15h-.934a1.5,1.5,0,0,1-1.061-.439l-.232-.233A1.5,1.5,0,0,0,12.212,13.889Z" fill="none" stroke="#323232" stroke-linecap="round" stroke-linejoin="round" stroke-width="1.5"/><line x1="11" y1="11.25" x2="13" y2="11.25" fill="none" stroke="#323232" stroke-linecap="round" stroke-linejoin="round" stroke-width="1.5"/><circle cx="12" cy="12" r="9" fill="none" stroke="#323232" stroke-linecap="round" stroke-linejoin="round" stroke-width="1.5"/><rect width="24" height="24" fill="none"/></svg>