<svg id="Layer_3" data-name="Layer 3" xmlns="http://www.w3.org/2000/svg" viewBox="0 0 24 24"><path d="M0,0H24V24H0Z" fill="none"/><path d="M12.29752,19h-.595a2,2,0,0,0-1.25067.43929L9.05238,20.56071A2,2,0,0,1,7.80171,21H6a3,3,0,0,1-3-3V15a2,2,0,0,1,2-2H19a2,2,0,0,1,2,2v3a3,3,0,0,1-3,3H16.19829a2,2,0,0,1-1.25067-.43929l-1.39943-1.12142A2,2,0,0,0,12.29752,19Z" fill="none" stroke="#323232" stroke-linecap="round" stroke-linejoin="round" stroke-width="1.5"/><path d="M21,15V12.47456a3.99992,3.99992,0,0,0-.11382-.94742L19.7953,7.0525A4,4,0,0,0,15.93473,4" fill="none" stroke="#323232" stroke-linecap="round" stroke-linejoin="round" stroke-width="1.5"/><path d="M3,15V12.47456a3.99992,3.99992,0,0,1,.11382-.94742L4.2047,7.0525A4,4,0,0,1,8.06527,4" fill="none" stroke="#323232" stroke-linecap="round" stroke-linejoin="round" stroke-width="1.5"/><line x1="6" y1="16" x2="6" y2="17" fill="none" stroke="#323232" stroke-linecap="round" stroke-linejoin="round" stroke-width="1.5"/></svg>