<svg id="Layer_3" data-name="Layer 3" xmlns="http://www.w3.org/2000/svg" viewBox="0 0 24 24"><title>Artboard 191</title><path d="M12.091,18.222h-.182a3,3,0,0,0-2.121.879l-.313.313A2,2,0,0,1,8.06,20H7a3,3,0,0,1-3-3V14a3,3,0,0,1,3-3H17a3,3,0,0,1,3,3v3a3,3,0,0,1-3,3H15.94a2,2,0,0,1-1.415-.586l-.313-.313A3,3,0,0,0,12.091,18.222Z" fill="none" stroke="#323232" stroke-linecap="round" stroke-linejoin="round" stroke-width="1.5"/><path d="M8.686,4.373a4.685,4.685,0,0,1,6.628,0" fill="none" stroke="#323232" stroke-linecap="round" stroke-linejoin="round" stroke-width="1.5"/><path d="M10.343,7a2.344,2.344,0,0,1,3.314,0" fill="none" stroke="#323232" stroke-linecap="round" stroke-linejoin="round" stroke-width="1.5"/><line x1="9.802" y1="13.5" x2="14.198" y2="13.5" fill="none" stroke="#323232" stroke-linecap="round" stroke-linejoin="round" stroke-width="1.5"/><rect width="24" height="24" fill="none"/></svg>