<svg id="Layer_3" data-name="Layer 3" xmlns="http://www.w3.org/2000/svg" viewBox="0 0 24 24"><path d="M21,13v1.428A2.57112,2.57112,0,0,1,18.429,17H5.571A2.5709,2.5709,0,0,1,3,14.429V5.571A2.5709,2.5709,0,0,1,5.571,3H11" fill="none" stroke="#323232" stroke-linecap="round" stroke-linejoin="round" stroke-width="1.5"/><path d="M17.50386,10.7076l-3-1.71429A1,1,0,0,1,14,8.12507V4.71429a1,1,0,0,1,.50386-.86825l3-1.71428a1,1,0,0,1,.99228,0l3,1.71428A1,1,0,0,1,22,4.71429V8.12507a1,1,0,0,1-.50386.86824l-3,1.71429A1,1,0,0,1,17.50386,10.7076Z" fill="none" stroke="#323232" stroke-linecap="round" stroke-linejoin="round" stroke-width="1.5"/><line x1="14.13735" y1="4.21247" x2="18" y2="6.41968" fill="none" stroke="#323232" stroke-linecap="round" stroke-linejoin="round" stroke-width="1.5"/><line x1="21.86395" y1="4.21173" x2="18" y2="6.41968" fill="none" stroke="#323232" stroke-linecap="round" stroke-linejoin="round" stroke-width="1.5"/><line x1="18" y1="6.41968" x2="18" y2="10.83792" fill="none" stroke="#323232" stroke-linecap="round" stroke-linejoin="round" stroke-width="1.5"/><line x1="14" y1="17" x2="14.5" y2="21" fill="none" stroke="#323232" stroke-linecap="round" stroke-linejoin="round" stroke-width="1.5"/><line x1="10" y1="17" x2="9.5" y2="21" fill="none" stroke="#323232" stroke-linecap="round" stroke-linejoin="round" stroke-width="1.5"/><line x1="8.143" y1="21" x2="15.857" y2="21" fill="none" stroke="#323232" stroke-linecap="round" stroke-linejoin="round" stroke-width="1.5"/><path d="M0,0H24V24H0Z" fill="none"/></svg>