<svg id="Layer_3" data-name="Layer 3" xmlns="http://www.w3.org/2000/svg" viewBox="0 0 24 24"><path d="M7.8,10.46A1.3,1.3,0,0,1,9.047,9.5a1.319,1.319,0,0,1,1.319,1.319h0A1.181,1.181,0,0,1,9.185,12a1.181,1.181,0,0,1,1.181,1.181A1.319,1.319,0,0,1,9.047,14.5h0A1.3,1.3,0,0,1,7.8,13.54" fill="none" stroke="#323232" stroke-linecap="round" stroke-linejoin="round" stroke-width="1.5"/><path d="M14.275,14.5H12.866v-5h1.409A1.925,1.925,0,0,1,16.2,11.425h0v1.151A1.926,1.926,0,0,1,14.275,14.5Z" fill="none" stroke="#323232" stroke-linecap="round" stroke-linejoin="round" stroke-width="1.5"/><path d="M21,8.18182v7.63636a2,2,0,0,1-1.17239,1.82073l-7,3.18182a2,2,0,0,1-1.65522,0l-7-3.18182A2,2,0,0,1,3,15.81818V8.18182A2,2,0,0,1,4.17239,6.36109l7-3.18182a2,2,0,0,1,1.65522,0l7,3.18182A2,2,0,0,1,21,8.18182Z" fill="none" stroke="#323232" stroke-linecap="round" stroke-linejoin="round" stroke-width="1.5"/><path d="M0,0H24V24H0Z" fill="none"/></svg>