<svg id="Layer_3" data-name="Layer 3" xmlns="http://www.w3.org/2000/svg" viewBox="0 0 24 24"><title>Artboard 192</title><rect x="3" y="3" width="18" height="18" rx="5" stroke-width="1.5" stroke="#323232" stroke-linecap="round" stroke-linejoin="round" fill="none"/><line x1="20.9" y1="7" x2="3.1" y2="7" fill="none" stroke="#323232" stroke-linecap="round" stroke-linejoin="round" stroke-width="1.5"/><path d="M13.356,16.214V12.787a.757.757,0,0,0-.382-.658L10.305,10.6a.762.762,0,0,0-.754,0L6.882,12.129a.756.756,0,0,0-.382.658v3.426a.755.755,0,0,0,.382.658L9.551,18.4a.762.762,0,0,0,.754,0l2.669-1.529A.755.755,0,0,0,13.356,16.214Z" fill="none" stroke="#323232" stroke-linecap="round" stroke-linejoin="round" stroke-width="1.5"/><path d="M9.928,14.31V18.5" fill="none" stroke="#323232" stroke-linecap="round" stroke-linejoin="round" stroke-width="1.5"/><path d="M6.592,12.46l3.355,1.849,3.279-1.981" fill="none" stroke="#323232" stroke-linecap="round" stroke-linejoin="round" stroke-width="1.5"/><line x1="21" y1="16" x2="13.356" y2="16" fill="none" stroke="#323232" stroke-linecap="round" stroke-linejoin="round" stroke-width="1.5"/><line x1="6.5" y1="16" x2="3" y2="16" fill="none" stroke="#323232" stroke-linecap="round" stroke-linejoin="round" stroke-width="1.5"/><path d="M17.5,7V9.464a.5.5,0,0,1-.241.428L16,10.653l-1.259-.761a.5.5,0,0,1-.241-.428V7" fill="none" stroke="#323232" stroke-linecap="round" stroke-linejoin="round" stroke-width="1.5"/><rect width="24" height="24" transform="translate(24 24) rotate(180)" fill="none"/></svg>