<svg id="Layer_3" data-name="Layer 3" xmlns="http://www.w3.org/2000/svg" viewBox="0 0 24 24"><title>Artboard 182</title><path d="M0,0H24V24H0Z" fill="none"/><path d="M3,10.432V8.177A2,2,0,0,1,4.029,6.428L6,5.333" fill="none" stroke="#323232" stroke-linecap="round" stroke-linejoin="round" stroke-width="1.5"/><path d="M21,13.568v2.255a2,2,0,0,1-1.029,1.748L18,18.667" fill="none" stroke="#323232" stroke-linecap="round" stroke-linejoin="round" stroke-width="1.5"/><path d="M9.376,10.546,12,12l2.624-1.454" fill="none" stroke="#323232" stroke-linecap="round" stroke-linejoin="round" stroke-width="1.5"/><path d="M12,12v3" fill="none" stroke="#323232" stroke-linecap="round" stroke-linejoin="round" stroke-width="1.5"/><path d="M21,10.432V8.177a2,2,0,0,0-1.029-1.748L18,5.333" fill="none" stroke="#323232" stroke-linecap="round" stroke-linejoin="round" stroke-width="1.5"/><path d="M3,13.568v2.255a2,2,0,0,0,1.029,1.748L6,18.667" fill="none" stroke="#323232" stroke-linecap="round" stroke-linejoin="round" stroke-width="1.5"/><path d="M15,20.333,12.971,21.46a2,2,0,0,1-1.943,0L9,20.333" fill="none" stroke="#323232" stroke-linecap="round" stroke-linejoin="round" stroke-width="1.5"/><path d="M9,3.667,11.029,2.54a2,2,0,0,1,1.943,0L15,3.667" fill="none" stroke="#323232" stroke-linecap="round" stroke-linejoin="round" stroke-width="1.5"/></svg>