<svg id="Layer_3" data-name="Layer 3" xmlns="http://www.w3.org/2000/svg" viewBox="0 0 24 24"><title>Artboard 199</title><path d="M13.747,7.876,12.5,7.137a.973.973,0,0,0-.994,0l-1.25.739a1.039,1.039,0,0,0-.5.9v1.464a1.039,1.039,0,0,0,.5.9L12,12.165l1.747-1.033a1.039,1.039,0,0,0,.5-.9V8.772A1.039,1.039,0,0,0,13.747,7.876Z" fill="none" stroke="#323232" stroke-linecap="round" stroke-linejoin="round" stroke-width="1.5"/><path d="M16,11.868l-1.25-.739a.973.973,0,0,0-.994,0l-1.25.739a1.039,1.039,0,0,0-.5.9v1.464a1.039,1.039,0,0,0,.5.9l1.25.739a.973.973,0,0,0,.994,0L16,15.124a1.039,1.039,0,0,0,.5-.9V12.764A1.039,1.039,0,0,0,16,11.868Z" fill="none" stroke="#323232" stroke-linecap="round" stroke-linejoin="round" stroke-width="1.5"/><path d="M11.5,11.868l-1.25-.739a.973.973,0,0,0-.994,0L8,11.868a1.039,1.039,0,0,0-.5.9v1.464a1.039,1.039,0,0,0,.5.9l1.25.739a.973.973,0,0,0,.994,0l1.25-.739a1.039,1.039,0,0,0,.5-.9V12.764A1.039,1.039,0,0,0,11.5,11.868Z" fill="none" stroke="#323232" stroke-linecap="round" stroke-linejoin="round" stroke-width="1.5"/><path d="M3,10.432V8.177A2,2,0,0,1,4.029,6.428L6,5.333" fill="none" stroke="#323232" stroke-linecap="round" stroke-linejoin="round" stroke-width="1.5"/><path d="M21,13.568v2.255a2,2,0,0,1-1.029,1.748L18,18.667" fill="none" stroke="#323232" stroke-linecap="round" stroke-linejoin="round" stroke-width="1.5"/><path d="M21,10.432V8.177a2,2,0,0,0-1.029-1.748L18,5.333" fill="none" stroke="#323232" stroke-linecap="round" stroke-linejoin="round" stroke-width="1.5"/><path d="M3,13.568v2.255a2,2,0,0,0,1.029,1.748L6,18.667" fill="none" stroke="#323232" stroke-linecap="round" stroke-linejoin="round" stroke-width="1.5"/><path d="M15,20.333,12.971,21.46a2,2,0,0,1-1.943,0L9,20.333" fill="none" stroke="#323232" stroke-linecap="round" stroke-linejoin="round" stroke-width="1.5"/><path d="M9,3.667,11.029,2.54a2,2,0,0,1,1.943,0L15,3.667" fill="none" stroke="#323232" stroke-linecap="round" stroke-linejoin="round" stroke-width="1.5"/><path d="M24,0V24H0V0Z" fill="none"/></svg>