<svg id="Layer_3" data-name="Layer 3" xmlns="http://www.w3.org/2000/svg" viewBox="0 0 24 24"><path d="M0,0H24V24H0Z" fill="none"/><path d="M11.5862,16.81191l-4-1.81818A1,1,0,0,1,7,14.08336V9.91664a1,1,0,0,1,.5862-.91037L12,7l4.4138,2.00627A1,1,0,0,1,17,9.91664v4.16672a1,1,0,0,1-.5862.91037l-4,1.81818A1,1,0,0,1,11.5862,16.81191Z" fill="none" stroke="#323232" stroke-linecap="round" stroke-linejoin="round" stroke-width="1.5"/><line x1="3.05255" y1="16.52155" x2="7.17773" y2="14.64644" fill="none" stroke="#323232" stroke-linecap="round" stroke-linejoin="round" stroke-width="1.5"/><line x1="16.82319" y1="14.64687" x2="20.94745" y2="16.52155" fill="none" stroke="#323232" stroke-linecap="round" stroke-linejoin="round" stroke-width="1.5"/><line x1="12" y1="3" x2="12" y2="7" fill="none" stroke="#323232" stroke-linecap="round" stroke-linejoin="round" stroke-width="1.5"/><rect x="3" y="3" width="18" height="18" rx="5" stroke-width="1.5" stroke="#323232" stroke-linecap="round" stroke-linejoin="round" fill="none"/><line x1="7.17773" y1="9.35359" x2="12" y2="11.54548" fill="none" stroke="#323232" stroke-linecap="round" stroke-linejoin="round" stroke-width="1.5"/><line x1="16.82227" y1="9.35359" x2="12" y2="11.54548" fill="none" stroke="#323232" stroke-linecap="round" stroke-linejoin="round" stroke-width="1.5"/><line x1="12" y1="11.54548" x2="12" y2="16.9015" fill="none" stroke="#323232" stroke-linecap="round" stroke-linejoin="round" stroke-width="1.5"/></svg>