<svg id="Layer_3" data-name="Layer 3" xmlns="http://www.w3.org/2000/svg" viewBox="0 0 24 24"><title>3d-square</title><path d="M7.8,10.46A1.3,1.3,0,0,1,9.047,9.5a1.319,1.319,0,0,1,1.319,1.319A1.181,1.181,0,0,1,9.185,12a1.181,1.181,0,0,1,1.181,1.181A1.319,1.319,0,0,1,9.047,14.5,1.3,1.3,0,0,1,7.8,13.54" fill="none" stroke="#323232" stroke-linecap="round" stroke-linejoin="round" stroke-width="1.5"/><path d="M14.275,14.5H12.866v-5h1.409A1.925,1.925,0,0,1,16.2,11.425v1.151A1.926,1.926,0,0,1,14.275,14.5Z" fill="none" stroke="#323232" stroke-linecap="round" stroke-linejoin="round" stroke-width="1.5"/><rect x="3" y="3" width="18" height="18" rx="5" stroke-width="1.5" stroke="#323232" stroke-linecap="round" stroke-linejoin="round" fill="none"/><path d="M0,0H24V24H0Z" fill="none"/></svg>