<svg id="Layer_3" data-name="Layer 3" xmlns="http://www.w3.org/2000/svg" viewBox="0 0 24 24"><path d="M24,0V24H0V0Z" fill="none"/><path d="M21,12c0-1.942-4.029-3.516-9-3.516H11" fill="none" stroke="#323232" stroke-linecap="round" stroke-linejoin="round" stroke-width="1.5"/><polyline points="11.655 14.166 13.005 15.516 11.655 16.866" fill="none" stroke="#323232" stroke-linecap="round" stroke-linejoin="round" stroke-width="1.5"/><circle cx="12" cy="12" r="9" fill="none" stroke="#323232" stroke-linecap="round" stroke-linejoin="round" stroke-width="1.5"/><path d="M15.27271,15.27271C18.62329,14.76093,21,13.49036,21,12c0-1.942-4.029-3.516-9-3.516H11" fill="none" stroke="#323232" stroke-linecap="round" stroke-linejoin="round" stroke-width="1.5"/><path d="M8.72729,8.72729C5.37671,9.23907,3,10.50964,3,12c0,1.942,4.029,3.516,9,3.516h1.005" fill="none" stroke="#323232" stroke-linecap="round" stroke-linejoin="round" stroke-width="1.5"/><path d="M12,21c1.942,0,3.516-4.029,3.516-9V10.995" fill="none" stroke="#323232" stroke-linecap="round" stroke-linejoin="round" stroke-width="1.5"/><path d="M12,3c-1.942,0-3.516,4.029-3.516,9v1" fill="none" stroke="#323232" stroke-linecap="round" stroke-linejoin="round" stroke-width="1.5"/><path d="M12,3c1.49036,0,2.76093,2.37671,3.27271,5.72729" fill="none" stroke="#323232" stroke-linecap="round" stroke-linejoin="round" stroke-width="1.5"/><path d="M12,21c-1.49036,0-2.76093-2.37671-3.27271-5.72729" fill="none" stroke="#323232" stroke-linecap="round" stroke-linejoin="round" stroke-width="1.5"/></svg>