<svg id="Layer_3" data-name="Layer 3" xmlns="http://www.w3.org/2000/svg" viewBox="0 0 24 24"><title>Artboard 183</title><path d="M14.053,21A9.238,9.238,0,0,0,21,14.053" fill="none" stroke="#323232" stroke-linecap="round" stroke-linejoin="round" stroke-width="1.5"/><path d="M3,9.947A9.238,9.238,0,0,1,9.947,3" fill="none" stroke="#323232" stroke-linecap="round" stroke-linejoin="round" stroke-width="1.5"/><path d="M9.947,21A9.238,9.238,0,0,1,3,14.053" fill="none" stroke="#323232" stroke-linecap="round" stroke-linejoin="round" stroke-width="1.5"/><path d="M9.947,3A9.238,9.238,0,0,0,3,9.947" fill="none" stroke="#323232" stroke-linecap="round" stroke-linejoin="round" stroke-width="1.5"/><path d="M21,14.053A9.238,9.238,0,0,1,14.053,21" fill="none" stroke="#323232" stroke-linecap="round" stroke-linejoin="round" stroke-width="1.5"/><path d="M14.053,3A9.238,9.238,0,0,1,21,9.947" fill="none" stroke="#323232" stroke-linecap="round" stroke-linejoin="round" stroke-width="1.5"/><path d="M12.05,12a.05.05,0,1,1-.05-.052.051.051,0,0,1,.05.052" fill="none" stroke="#323232" stroke-linecap="round" stroke-linejoin="round" stroke-width="1.5"/><ellipse cx="12" cy="12" rx="3.048" ry="6.378" transform="translate(-4.971 12) rotate(-45)" stroke-width="1.5" stroke="#323232" stroke-linecap="round" stroke-linejoin="round" fill="none"/><ellipse cx="12" cy="12" rx="6.378" ry="3.048" transform="translate(-4.971 12) rotate(-45)" stroke-width="1.5" stroke="#323232" stroke-linecap="round" stroke-linejoin="round" fill="none"/><rect width="24" height="24" fill="none"/></svg>