<svg id="Layer_3" data-name="Layer 3" xmlns="http://www.w3.org/2000/svg" viewBox="0 0 24 24"><title>Artboard 197</title><path d="M0,0H24V24H0Z" fill="none"/><path d="M3,10.432V8.177A2,2,0,0,1,4.029,6.428L6,5.333" fill="none" stroke="#323232" stroke-linecap="round" stroke-linejoin="round" stroke-width="1.5"/><path d="M15,20.333,12.971,21.46a2,2,0,0,1-1.943,0L9,20.333" fill="none" stroke="#323232" stroke-linecap="round" stroke-linejoin="round" stroke-width="1.5"/><path d="M21,13.568v2.255a2,2,0,0,1-1.029,1.748L18,18.667" fill="none" stroke="#323232" stroke-linecap="round" stroke-linejoin="round" stroke-width="1.5"/><path d="M12,2.29V5" fill="none" stroke="#323232" stroke-linecap="round" stroke-linejoin="round" stroke-width="1.5"/><path d="M12,19v2.71" fill="none" stroke="#323232" stroke-linecap="round" stroke-linejoin="round" stroke-width="1.5"/><path d="M3.28,7.16,5.62,8.45" fill="none" stroke="#323232" stroke-linecap="round" stroke-linejoin="round" stroke-width="1.5"/><path d="M7.8,10.46A1.3,1.3,0,0,1,9.047,9.5a1.319,1.319,0,0,1,1.319,1.319A1.181,1.181,0,0,1,9.185,12a1.181,1.181,0,0,1,1.181,1.181A1.319,1.319,0,0,1,9.047,14.5,1.3,1.3,0,0,1,7.8,13.54" fill="none" stroke="#323232" stroke-linecap="round" stroke-linejoin="round" stroke-width="1.5"/><path d="M14.275,14.5H12.866v-5h1.409A1.925,1.925,0,0,1,16.2,11.425v1.151A1.926,1.926,0,0,1,14.275,14.5Z" fill="none" stroke="#323232" stroke-linecap="round" stroke-linejoin="round" stroke-width="1.5"/><path d="M18.38,15.55l2.34,1.29" fill="none" stroke="#323232" stroke-linecap="round" stroke-linejoin="round" stroke-width="1.5"/><path d="M21,10.432V8.177a2,2,0,0,0-1.029-1.748L18,5.333" fill="none" stroke="#323232" stroke-linecap="round" stroke-linejoin="round" stroke-width="1.5"/><path d="M9,3.667,11.029,2.54a2,2,0,0,1,1.943,0L15,3.667" fill="none" stroke="#323232" stroke-linecap="round" stroke-linejoin="round" stroke-width="1.5"/><path d="M3,13.568v2.255a2,2,0,0,0,1.029,1.748L6,18.667" fill="none" stroke="#323232" stroke-linecap="round" stroke-linejoin="round" stroke-width="1.5"/><path d="M20.72,7.16,18.38,8.45" fill="none" stroke="#323232" stroke-linecap="round" stroke-linejoin="round" stroke-width="1.5"/><path d="M5.62,15.55,3.28,16.84" fill="none" stroke="#323232" stroke-linecap="round" stroke-linejoin="round" stroke-width="1.5"/></svg>