<svg id="Layer_3" data-name="Layer 3" xmlns="http://www.w3.org/2000/svg" viewBox="0 0 24 24"><title>Artboard 190</title><path d="M24,0V24H0V0Z" fill="none"/><circle cx="12" cy="12" r="9" fill="none" stroke="#323232" stroke-linecap="round" stroke-linejoin="round" stroke-width="1.5"/><path d="M15.331,12c0,4.73-1.491,8.565-3.331,8.565-1.414,0-2.618-2.268-3.1-5.463" fill="none" stroke="#323232" stroke-linecap="round" stroke-linejoin="round" stroke-width="1.5"/><path d="M8.669,12c0-4.73,1.491-8.565,3.331-8.565,1.414,0,2.618,2.268,3.1,5.463" fill="none" stroke="#323232" stroke-linecap="round" stroke-linejoin="round" stroke-width="1.5"/><path d="M12,8.669c4.73,0,8.565,1.491,8.565,3.331,0,1.414-2.268,2.618-5.463,3.1" fill="none" stroke="#323232" stroke-linecap="round" stroke-linejoin="round" stroke-width="1.5"/><path d="M12,15.331c-4.73,0-8.565-1.491-8.565-3.331,0-1.414,2.268-2.618,5.463-3.1" fill="none" stroke="#323232" stroke-linecap="round" stroke-linejoin="round" stroke-width="1.5"/></svg>