<svg id="Layer_3" data-name="Layer 3" xmlns="http://www.w3.org/2000/svg" viewBox="0 0 24 24"><path d="M0,0H24V24H0Z" fill="none"/><path d="M17.552,19.561A8.017,8.017,0,0,1,5,13.866" fill="none" stroke="#323232" stroke-linecap="round" stroke-linejoin="round" stroke-width="1.5"/><path d="M16.542,12.974v1.338a2.229,2.229,0,0,0,4.458,0V12.974A8.024,8.024,0,0,0,13.866,5" fill="none" stroke="#323232" stroke-linecap="round" stroke-linejoin="round" stroke-width="1.5"/><path d="M9.534,13.866a3.56,3.56,0,1,0,4.333-4.333" fill="none" stroke="#323232" stroke-linecap="round" stroke-linejoin="round" stroke-width="1.5"/><path d="M0,0H24V24H0Z" fill="none"/><path d="M17.552,19.55968A8.017,8.017,0,0,1,5,13.86468" fill="none" stroke="#323232" stroke-linecap="round" stroke-linejoin="round" stroke-width="1.5"/><path d="M16.542,12.97268v1.338a2.229,2.229,0,0,0,4.458,0v-1.338a8.024,8.024,0,0,0-7.134-7.974" fill="none" stroke="#323232" stroke-linecap="round" stroke-linejoin="round" stroke-width="1.5"/><path d="M9.534,13.86468a3.56,3.56,0,1,0,4.333-4.333" fill="none" stroke="#323232" stroke-linecap="round" stroke-linejoin="round" stroke-width="1.5"/><circle cx="6.75" cy="6.75" r="4.75" fill="none" stroke="#323232" stroke-linecap="round" stroke-linejoin="round" stroke-width="1.5"/><line x1="8.43215" y1="7.06785" x2="6.43215" y2="7.06785" fill="none" stroke="#323232" stroke-linecap="round" stroke-linejoin="round" stroke-width="1.5"/><line x1="6.43215" y1="7.06785" x2="6.43215" y2="4.65828" fill="none" stroke="#323232" stroke-linecap="round" stroke-linejoin="round" stroke-width="1.5"/></svg>