<svg id="Layer_3" data-name="Layer 3" xmlns="http://www.w3.org/2000/svg" viewBox="0 0 24 24"><title>Artboard 346</title><path d="M14.9,21H11a8,8,0,0,1-8-8V11a8,8,0,0,1,8-8h2a8,8,0,0,1,8,8v2.5a3,3,0,0,1-3,3h-.1a3,3,0,0,1-3-3V11.775" fill="none" stroke="#323232" stroke-linecap="round" stroke-linejoin="round" stroke-width="1.5"/><path d="M9.275,8.456l.3-.3A2.249,2.249,0,0,1,11.163,7.5H12.65A2.25,2.25,0,0,1,14.9,9.75v4.5a2.25,2.25,0,0,1-2.25,2.25H10.962A2.363,2.363,0,0,1,8.6,14.138h0a2.363,2.363,0,0,1,2.362-2.362H14.9" fill="none" stroke="#323232" stroke-linecap="round" stroke-linejoin="round" stroke-width="1.5"/><rect width="24" height="24" fill="none"/></svg>