<svg id="Layer_3" data-name="Layer 3" xmlns="http://www.w3.org/2000/svg" viewBox="0 0 24 24"><title>Artboard 301</title><rect width="24" height="24" fill="none"/><path d="M15.333,18H10a4,4,0,0,1-4-4V10a4,4,0,0,1,4-4h4a4,4,0,0,1,4,4v3.333a2,2,0,0,1-2,2h0A1.832,1.832,0,0,1,14.167,13.5V11.667" fill="none" stroke="#323232" stroke-linecap="round" stroke-linejoin="round" stroke-width="1.5"/><path d="M10,9.375l.22-.22A1.667,1.667,0,0,1,11.4,8.667h1.1a1.667,1.667,0,0,1,1.667,1.666v3.334A1.667,1.667,0,0,1,12.5,15.333H11.25a1.749,1.749,0,0,1-1.75-1.75h0a1.75,1.75,0,0,1,1.75-1.75h2.917" fill="none" stroke="#323232" stroke-linecap="round" stroke-linejoin="round" stroke-width="1.5"/><path d="M18,3h1a2,2,0,0,1,2,2V6" fill="none" stroke="#323232" stroke-linecap="round" stroke-linejoin="round" stroke-width="1.5"/><path d="M6,21H5a2,2,0,0,1-2-2V18" fill="none" stroke="#323232" stroke-linecap="round" stroke-linejoin="round" stroke-width="1.5"/><path d="M3,6V5A2,2,0,0,1,5,3H6" fill="none" stroke="#323232" stroke-linecap="round" stroke-linejoin="round" stroke-width="1.5"/><path d="M21,18v1a2,2,0,0,1-2,2H18" fill="none" stroke="#323232" stroke-linecap="round" stroke-linejoin="round" stroke-width="1.5"/></svg>