<svg id="Layer_3" data-name="Layer 3" xmlns="http://www.w3.org/2000/svg" viewBox="0 0 24 24"><title>Artboard 261</title><path d="M15.25,11.75H10.875A2.625,2.625,0,0,0,8.25,14.375h0A2.625,2.625,0,0,0,10.875,17H12.75a2.5,2.5,0,0,0,2.5-2.5v-5A2.5,2.5,0,0,0,12.75,7H11.1a2.5,2.5,0,0,0-1.768.732L9,8.063" fill="none" stroke="#323232" stroke-linecap="round" stroke-linejoin="round" stroke-width="1.5"/><path d="M17,21H9a6,6,0,0,1-6-6V9A6,6,0,0,1,9,3h6a6,6,0,0,1,6,6v5a3,3,0,0,1-3,3h0a2.75,2.75,0,0,1-2.75-2.75V11.5" fill="none" stroke="#323232" stroke-linecap="round" stroke-linejoin="round" stroke-width="1.5"/><rect width="24" height="24" fill="none"/></svg>