<svg id="Layer_3" data-name="Layer 3" xmlns="http://www.w3.org/2000/svg" viewBox="0 0 24 24"><title>@-email-mail-warning</title><path d="M0,0H24V24H0Z" fill="none"/><path d="M17.551,19.561A8.017,8.017,0,0,1,5,13.866" fill="none" stroke="#323232" stroke-linecap="round" stroke-linejoin="round" stroke-width="1.5"/><path d="M16.541,12.974v1.338a2.229,2.229,0,0,0,4.458,0V12.974A8.024,8.024,0,0,0,13.865,5" fill="none" stroke="#323232" stroke-linecap="round" stroke-linejoin="round" stroke-width="1.5"/><path d="M9.533,13.866a3.56,3.56,0,1,0,4.333-4.333" fill="none" stroke="#323232" stroke-linecap="round" stroke-linejoin="round" stroke-width="1.5"/><path d="M6.751,6.574V4.831" fill="none" stroke="#323232" stroke-linecap="round" stroke-linejoin="round" stroke-width="1.5"/><path d="M6.75,8.5a.087.087,0,1,0,0,.173.087.087,0,0,0,0-.173" fill="none" stroke="#323232" stroke-linecap="round" stroke-linejoin="round" stroke-width="1.5"/><path d="M6.75,11.5A4.75,4.75,0,1,1,11.5,6.75,4.75,4.75,0,0,1,6.75,11.5" fill="none" stroke="#323232" stroke-linecap="round" stroke-linejoin="round" stroke-width="1.5"/></svg>