<svg id="Layer_3" data-name="Layer 3" xmlns="http://www.w3.org/2000/svg" viewBox="0 0 24 24"><title>Artboard 321</title><rect width="24" height="24" fill="none"/><path d="M14.889,11.778H11a2.332,2.332,0,0,0-2.333,2.333h0A2.332,2.332,0,0,0,11,16.444h1.667a2.222,2.222,0,0,0,2.222-2.222V9.778a2.222,2.222,0,0,0-2.222-2.222H11.2a2.225,2.225,0,0,0-1.571.65L9.333,8.5" fill="none" stroke="#323232" stroke-linecap="round" stroke-linejoin="round" stroke-width="1.5"/><path d="M16.444,20H9.333A5.333,5.333,0,0,1,4,14.667V9.333A5.333,5.333,0,0,1,9.333,4h5.334A5.333,5.333,0,0,1,20,9.333v4.445a2.666,2.666,0,0,1-2.667,2.666h0A2.444,2.444,0,0,1,14.889,14V11.556" fill="none" stroke="#323232" stroke-linecap="round" stroke-linejoin="round" stroke-width="1.5"/></svg>