<?xml version="1.0" encoding="utf-8"?>
<!-- Generator: Adobe Illustrator 24.0.2, SVG Export Plug-In . SVG Version: 6.00 Build 0)  -->
<svg version="1.1" id="Layer_1" xmlns="http://www.w3.org/2000/svg" xmlns:xlink="http://www.w3.org/1999/xlink" x="0px" y="0px"
	 width="24px" height="24px" viewBox="0 0 24 24" enable-background="new 0 0 24 24" xml:space="preserve">
<g>
	<path fill="none" d="M0,0h24v24H0V0z"/>
	<g>
		<path fill="none" stroke="#323232" stroke-width="1.5" stroke-linecap="round" stroke-linejoin="round" d="M17.552,19.561
			c-0.463,0.322-0.964,0.604-1.506,0.828C15.041,20.806,14,21,12.975,21c-4.131,0-7.53-3.121-7.974-7.134"/>
		<path fill="none" stroke="#323232" stroke-width="1.5" stroke-linecap="round" stroke-linejoin="round" d="M16.542,12.974v1.338
			c0,1.232,0.998,2.229,2.229,2.229c1.232,0,2.229-0.998,2.229-2.229v-1.338c0-4.131-3.121-7.53-7.134-7.974"/>
		<path fill="none" stroke="#323232" stroke-width="1.5" stroke-linecap="round" stroke-linejoin="round" d="M6.75,11.5
			C4.127,11.5,2,9.373,2,6.75S4.127,2,6.75,2s4.75,2.127,4.75,4.75S9.373,11.5,6.75,11.5"/>
		<path fill="none" stroke="#323232" stroke-width="1.5" stroke-linecap="round" stroke-linejoin="round" d="M9.534,13.866
			c0.398,1.536,1.781,2.675,3.441,2.675c1.97,0,3.567-1.597,3.567-3.567c0-1.66-1.14-3.043-2.675-3.441"/>
		
			<line fill="none" stroke="#323232" stroke-width="1.5" stroke-linecap="round" stroke-linejoin="round" x1="3.5" y1="10" x2="10" y2="3.5"/>
	</g>
</g>
</svg>
