<?xml version="1.0" encoding="utf-8"?>
<!-- Generator: Adobe Illustrator 24.0.2, SVG Export Plug-In . SVG Version: 6.00 Build 0)  -->
<svg version="1.1" id="Layer_1" xmlns="http://www.w3.org/2000/svg" xmlns:xlink="http://www.w3.org/1999/xlink" x="0px" y="0px"
	 width="24px" height="24px" viewBox="0 0 24 24" enable-background="new 0 0 24 24" xml:space="preserve">
<g>
	<g>
		<path fill="none" d="M24,0v24H0V0"/>
	</g>
	<g>
		<g>
			<g>
				<path fill="none" stroke="#323232" stroke-width="1.5" stroke-linecap="round" stroke-linejoin="round" d="M9.75,19h4.5
					c0.138,0,0.25,0.112,0.25,0.25V21c0,0.552-0.448,1-1,1h-3c-0.552,0-1-0.448-1-1v-1.75C9.5,19.112,9.612,19,9.75,19z"/>
			</g>
		</g>
		
			<ellipse fill="none" stroke="#323232" stroke-width="1.5" stroke-linecap="round" stroke-linejoin="round" cx="12" cy="9" rx="3.201" ry="7"/>
		
			<line fill="none" stroke="#323232" stroke-width="1.5" stroke-linecap="round" stroke-linejoin="round" x1="16.357" y1="16" x2="7.643" y2="16"/>
		<path fill="none" stroke="#323232" stroke-width="1.5" stroke-linecap="round" stroke-linejoin="round" d="M10.643,19
			l-4.497-4.497c-1.212-1.212-1.96-2.809-2.115-4.516l0,0C3.641,5.698,7.018,2,11.325,2h1.351c4.307,0,7.684,3.698,7.294,7.987l0,0
			c-0.155,1.706-0.904,3.304-2.115,4.516L13.357,19"/>
	</g>
</g>
</svg>
