<svg id="Layer_3" data-name="Layer 3" xmlns="http://www.w3.org/2000/svg" viewBox="0 0 24 24"><title>airbnb-circle</title><path d="M12,14.748l.34.533A2.634,2.634,0,0,0,14.562,16.5a2.422,2.422,0,0,0,2.128-3.6L13.661,7.475a1.9,1.9,0,0,0-3.322,0L7.31,12.9a2.422,2.422,0,0,0,2.128,3.6,2.635,2.635,0,0,0,2.222-1.218l.34-.534" fill="none" stroke="#323232" stroke-linecap="round" stroke-linejoin="round" stroke-width="1.5"/><path d="M12,14.748l1.135-1.781a1.346,1.346,0,1,0-2.27,0L12,14.748" fill="none" stroke="#323232" stroke-linecap="round" stroke-linejoin="round" stroke-width="1.5"/><circle cx="12" cy="12" r="9" fill="none" stroke="#323232" stroke-linecap="round" stroke-linejoin="round" stroke-width="1.5"/><path d="M0,24V0H24V24Z" fill="none"/></svg>