<?xml version="1.0" encoding="utf-8"?>
<!-- Generator: Adobe Illustrator 24.0.2, SVG Export Plug-In . SVG Version: 6.00 Build 0)  -->
<svg version="1.1" id="Layer_3" xmlns="http://www.w3.org/2000/svg" xmlns:xlink="http://www.w3.org/1999/xlink" x="0px" y="0px"
	 width="24px" height="24px" viewBox="0 0 24 24" enable-background="new 0 0 24 24" xml:space="preserve">
<g>
	<path fill="none" d="M0,0h24v24H0V0z"/>
	<g>
		<path fill="none" stroke="#323232" stroke-width="1.5" stroke-linecap="round" stroke-linejoin="round" d="M5.121,6.203
			C3.799,7.769,3,9.79,3,12c0,2.207,0.797,4.226,2.116,5.792"/>
		<path fill="none" stroke="#323232" stroke-width="1.5" stroke-linecap="round" stroke-linejoin="round" d="M7.141,8.49
			C6.426,9.478,6,10.688,6,12c0,1.309,0.424,2.517,1.136,3.503"/>
		<g>
			<g>
				<path fill="none" stroke="#323232" stroke-width="1.5" stroke-linecap="round" stroke-linejoin="round" d="M7.55,19.615
					l3.826-4.333c0.332-0.376,0.918-0.376,1.25,0l3.826,4.333C16.926,20.153,16.543,21,15.826,21H8.174
					C7.457,21,7.074,20.153,7.55,19.615z"/>
			</g>
		</g>
		<g>
			<g>
				<path fill="none" stroke="#323232" stroke-width="1.5" stroke-linecap="round" stroke-linejoin="round" d="M16.45,4.385
					l-3.826,4.333c-0.332,0.376-0.918,0.376-1.25,0L7.548,4.385C7.074,3.847,7.457,3,8.174,3h7.652
					C16.543,3,16.926,3.847,16.45,4.385z"/>
			</g>
		</g>
		<path fill="none" stroke="#323232" stroke-width="1.5" stroke-linecap="round" stroke-linejoin="round" d="M18.884,6.208
			C20.203,7.774,21,9.793,21,12c0,2.21-0.799,4.231-2.121,5.797"/>
		<path fill="none" stroke="#323232" stroke-width="1.5" stroke-linecap="round" stroke-linejoin="round" d="M16.864,8.497
			C17.576,9.483,18,10.691,18,12c0,1.312-0.426,2.522-1.141,3.51"/>
	</g>
</g>
</svg>
