<?xml version="1.0" encoding="utf-8"?>
<!-- Generator: Adobe Illustrator 24.0.2, SVG Export Plug-In . SVG Version: 6.00 Build 0)  -->
<svg version="1.1" id="Layer_3" xmlns="http://www.w3.org/2000/svg" xmlns:xlink="http://www.w3.org/1999/xlink" x="0px" y="0px"
	 width="24px" height="24px" viewBox="0 0 24 24" enable-background="new 0 0 24 24" xml:space="preserve">
<g>
	<g>
		<g>
			<g>
				<path fill="none" stroke="#323232" stroke-width="1.5" stroke-linecap="round" stroke-linejoin="round" d="M7.545,19.615
					l3.826-4.333c0.332-0.376,0.918-0.376,1.25,0l3.826,4.333C16.921,20.153,16.538,21,15.821,21H8.169
					C7.452,21,7.069,20.153,7.545,19.615z"/>
			</g>
		</g>
		<path fill="none" stroke="#323232" stroke-width="1.5" stroke-linecap="round" stroke-linejoin="round" d="M18.879,17.797
			C20.201,16.231,21,14.21,21,12c0-4.971-4.029-9-9-9s-9,4.029-9,9c0,2.207,0.797,4.226,2.116,5.792"/>
		<path fill="none" stroke="#323232" stroke-width="1.5" stroke-linecap="round" stroke-linejoin="round" d="M16.859,15.51
			C17.574,14.522,18,13.312,18,12c0-3.314-2.686-6-6-6s-6,2.686-6,6c0,1.309,0.424,2.517,1.136,3.503"/>
		<path fill="none" stroke="#323232" stroke-width="1.5" stroke-linecap="round" stroke-linejoin="round" d="M14.771,13.145
			C14.917,12.792,15,12.406,15,12c0-1.657-1.343-3-3-3s-3,1.343-3,3c0,0.403,0.082,0.785,0.226,1.136"/>
	</g>
	<path fill="none" d="M0,0h24v24H0V0z"/>
</g>
</svg>
