<?xml version="1.0" encoding="utf-8"?>
<!-- Generator: Adobe Illustrator 24.0.2, SVG Export Plug-In . SVG Version: 6.00 Build 0)  -->
<svg version="1.1" id="Layer_1" xmlns="http://www.w3.org/2000/svg" xmlns:xlink="http://www.w3.org/1999/xlink" x="0px" y="0px"
	 width="24px" height="24px" viewBox="0 0 24 24" enable-background="new 0 0 24 24" xml:space="preserve">
<g>
	<g>
		<path fill="none" stroke="#323232" stroke-width="1.5" stroke-linecap="round" stroke-linejoin="round" d="M10,12V8
			c0-2.209-1.791-4-4-4H5.581C5.196,4,4.814,4.062,4.449,4.184l0,0C2.986,4.671,2,6.04,2,7.581v0.838
			c0,1.541,0.986,2.91,2.449,3.397l0,0C4.814,11.938,5.196,12,5.581,12H6.5C6.776,12,7,12.224,7,12.5V19c0,0.552,0.448,1,1,1h1
			c0.552,0,1-0.448,1-1V12z"/>
		
			<line fill="none" stroke="#323232" stroke-width="1.5" stroke-linecap="round" stroke-linejoin="round" x1="5" y1="7.25" x2="5" y2="8.75"/>
		<path fill="none" stroke="#323232" stroke-width="1.5" stroke-linecap="round" stroke-linejoin="round" d="M14,12V8
			c0-2.209,1.791-4,4-4h0.419c0.385,0,0.767,0.062,1.132,0.184l0,0C21.014,4.671,22,6.04,22,7.581v0.838
			c0,1.541-0.986,2.91-2.449,3.397l0,0C19.186,11.938,18.804,12,18.419,12H17.5c-0.276,0-0.5,0.224-0.5,0.5V19c0,0.552-0.448,1-1,1
			h-1c-0.552,0-1-0.448-1-1V12z"/>
		
			<line fill="none" stroke="#323232" stroke-width="1.5" stroke-linecap="round" stroke-linejoin="round" x1="19" y1="7.25" x2="19" y2="8.75"/>
	</g>
	<rect x="0" fill="none" width="24" height="24"/>
</g>
</svg>
