<svg id="Layer_3" data-name="Layer 3" xmlns="http://www.w3.org/2000/svg" viewBox="0 0 24 24"><title>airplay-audio-arrow</title><path d="M13.208,15.4l3.438,2.578A1.677,1.677,0,0,1,15.64,21H8.36a1.677,1.677,0,0,1-1.006-3.019L10.793,15.4A2.013,2.013,0,0,1,13.208,15.4Z" fill="none" stroke="#323232" stroke-linecap="round" stroke-linejoin="round" stroke-width="1.5"/><path d="M7,15H6a3,3,0,0,1-3-3V6A3,3,0,0,1,6,3H18a3,3,0,0,1,3,3v6a3,3,0,0,1-3,3H17" fill="none" stroke="#323232" stroke-linecap="round" stroke-linejoin="round" stroke-width="1.5"/><rect width="24" height="24" fill="none"/></svg>