<svg id="Layer_3" data-name="Layer 3" xmlns="http://www.w3.org/2000/svg" viewBox="0 0 24 24"><title>Artboard 211</title><path d="M7.755,19.314l3.488-3.971a1.007,1.007,0,0,1,1.514,0l3.488,3.971A1.015,1.015,0,0,1,15.489,21H8.511A1.015,1.015,0,0,1,7.755,19.314Z" fill="none" stroke="#323232" stroke-linecap="round" stroke-linejoin="round" stroke-width="1.5"/><path d="M17,16h2a2,2,0,0,0,2-2V6a2,2,0,0,0-2-2H5A2,2,0,0,0,3,6v8a2,2,0,0,0,2,2H7" fill="none" stroke="#323232" stroke-linecap="round" stroke-linejoin="round" stroke-width="1.5"/><path d="M0,0H24V24H0Z" fill="none"/></svg>