<svg id="Layer_3" data-name="Layer 3" xmlns="http://www.w3.org/2000/svg" viewBox="0 0 24 24"><title>airport-extreme</title><path d="M18.915,7V19a2,2,0,0,1-2,2H7.085a2,2,0,0,1-2-2V7" fill="none" stroke="#323232" stroke-linecap="round" stroke-linejoin="round" stroke-width="1.5"/><path d="M17.872,8H6.128A1.042,1.042,0,0,1,5.3,6.332l2.04-2.709A2.086,2.086,0,0,1,9,2.793h6a2.086,2.086,0,0,1,1.664.83L18.7,6.332A1.042,1.042,0,0,1,17.872,8Z" fill="none" stroke="#323232" stroke-linecap="round" stroke-linejoin="round" stroke-width="1.5"/><path d="M15.5,17.5a.05.05,0,1,0,.05.05.05.05,0,0,0-.05-.05" fill="none" stroke="#323232" stroke-linecap="round" stroke-linejoin="round" stroke-width="1.5"/><rect width="24" height="24" fill="none"/></svg>