<svg id="Layer_3" data-name="Layer 3" xmlns="http://www.w3.org/2000/svg" viewBox="0 0 24 24"><title>airplay-signal-airdrop-circle</title><path d="M0,0H24V24H0Z" fill="none"/><path d="M9.032,17.077l2.55-2.889a.556.556,0,0,1,.785-.048c.017.015.033.031.049.048l2.55,2.889a.555.555,0,0,1-.417.923h-5.1a.555.555,0,0,1-.416-.923Z" fill="none" stroke="#323232" stroke-linecap="round" stroke-linejoin="round" stroke-width="1.5"/><path d="M9.444,12.661a2.724,2.724,0,1,1,5.112,0" fill="none" stroke="#323232" stroke-linecap="round" stroke-linejoin="round" stroke-width="1.5"/><path d="M6.984,15.285a6,6,0,1,1,10.032,0" fill="none" stroke="#323232" stroke-linecap="round" stroke-linejoin="round" stroke-width="1.5"/><path d="M12,21a9,9,0,1,1,9-9,9,9,0,0,1-9,9" fill="none" stroke="#323232" stroke-linecap="round" stroke-linejoin="round" stroke-width="1.5"/></svg>