<svg id="Layer_3" data-name="Layer 3" xmlns="http://www.w3.org/2000/svg" viewBox="0 0 24 24"><title>airtable</title><path d="M3.469,6.383l7.794-3.091a2.007,2.007,0,0,1,1.474,0l7.794,3.091a.2.2,0,0,1,0,.372L12.737,9.846a2.007,2.007,0,0,1-1.474,0L3.469,6.755A.2.2,0,0,1,3.469,6.383Z" fill="none" stroke="#323232" stroke-linecap="round" stroke-linejoin="round" stroke-width="1.5"/><path d="M3,9.937v7.609a.25.25,0,0,0,.34.233l7-2.717a.249.249,0,0,0,.16-.233V12.713a.249.249,0,0,0-.158-.232l-7-2.776A.25.25,0,0,0,3,9.937Z" fill="none" stroke="#323232" stroke-linecap="round" stroke-linejoin="round" stroke-width="1.5"/><path d="M13.5,20.546v-7.8a.249.249,0,0,1,.16-.233l7-2.717a.25.25,0,0,1,.34.233v7.8a.249.249,0,0,1-.16.233l-7,2.717A.25.25,0,0,1,13.5,20.546Z" fill="none" stroke="#323232" stroke-linecap="round" stroke-linejoin="round" stroke-width="1.5"/><path d="M0,24V0H24V24Z" fill="none"/></svg>