<svg id="Layer_3" data-name="Layer 3" xmlns="http://www.w3.org/2000/svg" viewBox="0 0 24 24"><line x1="17.68955" y1="18.37377" x2="20" y2="20.68422" fill="none" stroke="#323232" stroke-linecap="round" stroke-linejoin="round" stroke-width="1.5"/><line x1="6.31025" y1="18.37396" x2="4" y2="20.68422" fill="none" stroke="#323232" stroke-linecap="round" stroke-linejoin="round" stroke-width="1.5"/><circle cx="12" cy="12.75" r="8" fill="none" stroke="#323232" stroke-miterlimit="10" stroke-width="1.5"/><path d="M11.73347,8.95806v4.39261l3.45289,2.10516" fill="none" stroke="#323232" stroke-linecap="round" stroke-linejoin="round" stroke-width="1.5"/><path d="M6.5,3.25A3.51593,3.51593,0,0,1,9.6,5.12,7.88641,7.88641,0,0,0,6.34,7.09,8.11544,8.11544,0,0,0,4.61,9.68,3.458,3.458,0,0,1,3,6.75,3.50384,3.50384,0,0,1,6.5,3.25Z" fill="none" stroke="#323232" stroke-miterlimit="10" stroke-width="1.5"/><path d="M17.5,3.25A3.50384,3.50384,0,0,1,21,6.75a3.458,3.458,0,0,1-1.61,2.93,8.11544,8.11544,0,0,0-1.73-2.59A7.88641,7.88641,0,0,0,14.4,5.12,3.51593,3.51593,0,0,1,17.5,3.25Z" fill="none" stroke="#323232" stroke-miterlimit="10" stroke-width="1.5"/><path d="M0,0H24V24H0Z" fill="none"/></svg>