<?xml version="1.0" encoding="utf-8"?>
<!-- Generator: Adobe Illustrator 23.1.0, SVG Export Plug-In . SVG Version: 6.00 Build 0)  -->
<svg version="1.1" id="icons" xmlns="http://www.w3.org/2000/svg" xmlns:xlink="http://www.w3.org/1999/xlink" x="0px" y="0px"
	 width="24px" height="24px" viewBox="0 0 24 24" enable-background="new 0 0 24 24" xml:space="preserve">
<g>
	<path fill="none" d="M0,0h24v24H0V0z"/>
	<g>
		<path fill="none" stroke="#323232" stroke-width="1.5" stroke-linecap="round" stroke-linejoin="round" d="M20,20.83l-2.26-2.26"
			/>
		<path fill="none" stroke="#323232" stroke-width="1.5" stroke-linecap="round" stroke-linejoin="round" d="M6.26,18.57L4,20.83"/>
		
			<path fill="none" stroke="#323232" stroke-width="1.5" stroke-linecap="round" stroke-linejoin="round" stroke-miterlimit="4.0001" d="
			M8.939,5.611C13.021,3.92,17.7,5.858,19.391,9.94c1.691,4.082-0.248,8.761-4.329,10.451c-4.082,1.691-8.761-0.248-10.451-4.329
			C2.92,11.981,4.858,7.301,8.939,5.611"/>
		<path fill="none" stroke="#323232" stroke-width="1.5" stroke-linecap="round" stroke-linejoin="round" d="M11.75,9.432v4.135
			L15,15.549"/>
		
			<path fill="none" stroke="#323232" stroke-width="1.5" stroke-linecap="round" stroke-linejoin="round" stroke-miterlimit="4.0001" d="
			M7.514,3.1C6.317,2.76,4.98,3.045,4.038,3.987C3.227,4.799,2.905,5.905,3.045,6.962"/>
		
			<path fill="none" stroke="#323232" stroke-width="1.5" stroke-linecap="round" stroke-linejoin="round" stroke-miterlimit="4.0001" d="
			M16.499,3.1c1.197-0.34,2.533-0.055,3.475,0.887c0.812,0.812,1.134,1.918,0.994,2.975"/>
	</g>
</g>
</svg>
