<?xml version="1.0" encoding="utf-8"?>
<!-- Generator: Adobe Illustrator 23.1.0, SVG Export Plug-In . SVG Version: 6.00 Build 0)  -->
<svg version="1.1" id="icons" xmlns="http://www.w3.org/2000/svg" xmlns:xlink="http://www.w3.org/1999/xlink" x="0px" y="0px"
	 width="24px" height="24px" viewBox="0 0 24 24" enable-background="new 0 0 24 24" xml:space="preserve">
<g>
	<g>
		
			<line fill="none" stroke="#323232" stroke-width="1.5" stroke-linecap="round" stroke-linejoin="round" stroke-miterlimit="4.0001" x1="21" y1="21.995" x2="3" y2="4"/>
		
			<path fill="none" stroke="#323232" stroke-width="1.5" stroke-linecap="round" stroke-linejoin="round" stroke-miterlimit="4.0001" d="
			M6.343,7.342c-2.217,2.22-3.008,5.637-1.733,8.715c1.691,4.082,6.37,6.02,10.451,4.329c1.002-0.415,1.873-1.012,2.595-1.734"/>
		
			<path fill="none" stroke="#323232" stroke-width="1.5" stroke-linecap="round" stroke-linejoin="round" stroke-miterlimit="4.0001" d="
			M19.285,16.281c0.875-1.942,0.985-4.223,0.105-6.346c-1.691-4.082-6.37-6.02-10.451-4.329C8.862,5.638,8.79,5.678,8.714,5.713"/>
		<path fill="none" stroke="#323232" stroke-width="1.5" stroke-linecap="round" stroke-linejoin="round" d="M10,2h4"/>
		<path fill="none" stroke="#323232" stroke-width="1.5" stroke-linecap="round" stroke-linejoin="round" d="M20,5l-2.34,2.34"/>
		<path fill="none" stroke="#323232" stroke-width="1.5" stroke-linecap="round" stroke-linejoin="round" d="M19,4l2,2"/>
	</g>
	<rect fill="none" width="24" height="24"/>
</g>
</svg>
