<?xml version="1.0" encoding="utf-8"?>
<!-- Generator: Adobe Illustrator 23.1.0, SVG Export Plug-In . SVG Version: 6.00 Build 0)  -->
<svg version="1.1" id="icons" xmlns="http://www.w3.org/2000/svg" xmlns:xlink="http://www.w3.org/1999/xlink" x="0px" y="0px"
	 width="24px" height="24px" viewBox="0 0 24 24" enable-background="new 0 0 24 24" xml:space="preserve">
<g>
	<path fill="none" d="M0,0h24v24H0V0z"/>
	<g>
		<path fill="none" stroke="#323232" stroke-width="1.5" stroke-linecap="round" stroke-linejoin="round" d="M12.001,4.998
			L12.001,4.998c4.419,0,8.001,3.582,8.001,8.002l0,0c0,4.419-3.582,8.001-8.001,8.001l0,0c-4.419,0-8.002-3.582-8.002-8.001l0,0
			C3.999,8.581,7.581,4.998,12.001,4.998z"/>
		<path fill="none" stroke="#323232" stroke-width="1.5" stroke-linecap="round" stroke-linejoin="round" d="M12.001,13.445V8.999"
			/>
		<path fill="none" stroke="#323232" stroke-width="1.5" stroke-linecap="round" stroke-linejoin="round" d="M3.45,5.81l3-2.52"/>
		<path fill="none" stroke="#323232" stroke-width="1.5" stroke-linecap="round" stroke-linejoin="round" d="M20.56,5.82l-3-2.52"/>
		<path fill="none" stroke="#323232" stroke-width="1.5" stroke-linecap="round" stroke-linejoin="round" d="M12,16.628
			c-0.083,0-0.15,0.067-0.149,0.15c0,0.083,0.067,0.15,0.15,0.15c0.083,0,0.15-0.067,0.15-0.15S12.083,16.628,12,16.628"/>
	</g>
</g>
</svg>
