<svg id="Layer_3" data-name="Layer 3" xmlns="http://www.w3.org/2000/svg" viewBox="0 0 24 24"><title>alarm-clock-time-cross</title><path d="M0,0H24V24H0Z" fill="none"/><path d="M12.718,6.985v4.651l3.656,2.229" fill="none" stroke="#323232" stroke-linecap="round" stroke-linejoin="round" stroke-width="1.5"/><path d="M4.059,10A9,9,0,1,1,13,20" fill="none" stroke="#323232" stroke-linecap="round" stroke-linejoin="round" stroke-width="1.5"/><path d="M6.833,16.167,5.167,17.833" fill="none" stroke="#323232" stroke-linecap="round" stroke-linejoin="round" stroke-width="1.5"/><path d="M5.167,16.167l1.666,1.666" fill="none" stroke="#323232" stroke-linecap="round" stroke-linejoin="round" stroke-width="1.5"/><path d="M8,21H4a2,2,0,0,1-2-2V15a2,2,0,0,1,2-2H8a2,2,0,0,1,2,2v4A2,2,0,0,1,8,21Z" fill="none" stroke="#323232" stroke-linecap="round" stroke-linejoin="round" stroke-width="1.5"/></svg>