<?xml version="1.0" encoding="UTF-8"?><svg version="1.1" viewBox="0 0 24 24" xmlns="http://www.w3.org/2000/svg" xmlns:xlink="http://www.w3.org/1999/xlink"><!--Generated by IJSVG (https://github.com/iconjar/IJSVG)--><g stroke-linecap="round" stroke-width="1.5" stroke="#323232" fill="none" stroke-linejoin="round"><path d="M12,3v2"></path><path d="M3.613,8.753c-0.39,1.009 -0.613,2.101 -0.613,3.247c0,4.971 4.029,9 9,9c4.971,0 9,-4.029 9,-9c0,-4.971 -4.029,-9 -9,-9"></path><path d="M10.59,10.59l-4.95,-4.95"></path><path d="M13.4142,10.5858c0.781049,0.781049 0.781049,2.04738 0,2.82843c-0.781049,0.781049 -2.04738,0.781049 -2.82843,0c-0.781049,-0.781049 -0.781049,-2.04738 0,-2.82843c0.781049,-0.781049 2.04738,-0.781049 2.82843,0"></path></g><path fill="none" d="M0,0h24v24h-24v-24Z"></path></svg>