<svg id="Layer_3" data-name="Layer 3" xmlns="http://www.w3.org/2000/svg" viewBox="0 0 24 24"><title>alarm-clock-warning</title><path d="M0,0H24V24H0Z" fill="none"/><path d="M19.99883,20.82793l-2.25967-2.25967" fill="none" stroke="#323232" stroke-linecap="round" stroke-linejoin="round" stroke-width="1.5"/><path d="M6.26084,18.56826,4.00117,20.82793" fill="none" stroke="#323232" stroke-linecap="round" stroke-linejoin="round" stroke-width="1.5"/><path d="M8.93852,5.61116A7.99788,7.99788,0,1,1,4.61116,16.06063,7.99785,7.99785,0,0,1,8.93852,5.61116" fill="none" stroke="#323232" stroke-linecap="round" stroke-linejoin="round" stroke-width="1.5"/><path d="M7.50072,3.13808a3.51236,3.51236,0,0,0-4.469,3.862" fill="none" stroke="#323232" stroke-linecap="round" stroke-linejoin="round" stroke-width="1.5"/><path d="M16.499,3.13808a3.5132,3.5132,0,0,1,4.469,3.862" fill="none" stroke="#323232" stroke-linecap="round" stroke-linejoin="round" stroke-width="1.5"/><path d="M11.99988,12.74523V10.17178" fill="none" stroke="#323232" stroke-linecap="round" stroke-linejoin="round" stroke-width="1.5"/><path d="M12.12738,15.70028a.1275.1275,0,1,1-.1275-.1275" fill="none" stroke="#323232" stroke-linecap="round" stroke-linejoin="round" stroke-width="1.5"/><path d="M11.99988,15.57278a.1275.1275,0,0,1,.1275.1275" fill="none" stroke="#323232" stroke-linecap="round" stroke-linejoin="round" stroke-width="1.5"/></svg>