<?xml version="1.0" encoding="utf-8"?>
<!-- Generator: Adobe Illustrator 24.0.2, SVG Export Plug-In . SVG Version: 6.00 Build 0)  -->
<svg version="1.1" id="Layer_1" xmlns="http://www.w3.org/2000/svg" xmlns:xlink="http://www.w3.org/1999/xlink" x="0px" y="0px"
	 width="24px" height="24px" viewBox="0 0 24 24" enable-background="new 0 0 24 24" xml:space="preserve">
<g>
	<g transform="matrix(4.49816e-11,1,-1,4.49816e-11,24,-2.16095e-09)">
		<path id="a_19_" fill="none" d="M24,0v24H0L0,0L24,0z"/>
	</g>
	<g>
		<path fill="none" stroke="#323232" stroke-width="1.5" stroke-linecap="round" stroke-linejoin="round" d="M16,10.894
			c-2.399,1-5.601,1-8,0"/>
		<g>
			<path fill="none" stroke="#323232" stroke-width="1.5" stroke-linecap="round" stroke-linejoin="round" d="M16.95,2.879
				c2.734,1.172,2.734,3.071,0,4.243s-7.166,1.172-9.899,0c-2.734-1.172-2.734-3.071,0-4.243S14.216,1.707,16.95,2.879"/>
		</g>
		<path fill="none" stroke="#323232" stroke-width="1.5" stroke-linecap="round" stroke-linejoin="round" d="M19,5.001V18
			c0,0.768-0.683,1.536-2.05,2.121c-2.734,1.172-7.166,1.172-9.899,0C5.684,19.536,5,18.768,5,18V5"/>
	</g>
</g>
</svg>
