<svg id="Layer_3" data-name="Layer 3" xmlns="http://www.w3.org/2000/svg" viewBox="0 0 24 24"><path d="M14.991,14.5h0l-2.99484-7h0L8.991,14.5h0" fill="none" stroke="#323232" stroke-linecap="round" stroke-linejoin="round" stroke-width="1.5"/><path d="M12.99159,20.66228l5.35391-2.96534a2.04662,2.04662,0,0,0,1.0415-1.55579l1.00073-8.67541a2.04657,2.04657,0,0,0-1.34567-2.16219L12.68742,3.03744a2.04665,2.04665,0,0,0-1.37484,0L4.95794,5.30355A2.04657,2.04657,0,0,0,3.61227,7.46574L4.613,16.14115a2.04659,2.04659,0,0,0,1.0415,1.55579l5.35391,2.96534A2.04659,2.04659,0,0,0,12.99159,20.66228Z" fill="none" stroke="#323232" stroke-linecap="round" stroke-linejoin="round" stroke-width="1.5"/><line x1="9.66342" y1="12.93372" x2="14.32089" y2="12.93372" fill="none" stroke="#323232" stroke-linecap="round" stroke-linejoin="round" stroke-width="1.5"/><rect width="24" height="24" fill="none"/></svg>