<svg id="Layer_3" data-name="Layer 3" xmlns="http://www.w3.org/2000/svg" viewBox="0 0 24 24"><title>animal-print-certificate</title><rect x="3" y="4" width="18" height="16" rx="4" stroke-width="1.5" stroke="#323232" stroke-linecap="round" stroke-linejoin="round" fill="none"/><path d="M12,11.625h0a3,3,0,0,1,3,3v0a1,1,0,0,1-1,1H10a1,1,0,0,1-1-1v0A3,3,0,0,1,12,11.625Z" fill="none" stroke="#323232" stroke-linecap="round" stroke-linejoin="round" stroke-width="1.5"/><path d="M9,9.375a.25.25,0,1,0,.251.25A.249.249,0,0,0,9,9.375" fill="none" stroke="#323232" stroke-linecap="round" stroke-linejoin="round" stroke-width="1.5"/><path d="M15,9.375a.25.25,0,1,0,.251.25A.249.249,0,0,0,15,9.375" fill="none" stroke="#323232" stroke-linecap="round" stroke-linejoin="round" stroke-width="1.5"/><path d="M12,8.375a.25.25,0,1,0,.251.25A.249.249,0,0,0,12,8.375" fill="none" stroke="#323232" stroke-linecap="round" stroke-linejoin="round" stroke-width="1.5"/><rect width="24" height="24" fill="none"/></svg>