<svg id="Layer_3" data-name="Layer 3" xmlns="http://www.w3.org/2000/svg" viewBox="0 0 24 24"><title>animal-print-pin</title><rect width="24" height="24" fill="none"/><path d="M12,10.25h0a3,3,0,0,1,3,3v0a1,1,0,0,1-1,1H10a1,1,0,0,1-1-1v0A3,3,0,0,1,12,10.25Z" fill="none" stroke="#323232" stroke-linecap="round" stroke-linejoin="round" stroke-width="1.5"/><path d="M17.494,5.276h0a7.77,7.77,0,0,1,0,10.988h0l-4.2,4.2a1.831,1.831,0,0,1-2.589,0l-4.2-4.2a7.768,7.768,0,0,1,0-10.988h0A7.768,7.768,0,0,1,17.494,5.276Z" fill="none" stroke="#323232" stroke-linecap="round" stroke-linejoin="round" stroke-width="1.5"/><path d="M9,8a.25.25,0,1,0,.251.25A.249.249,0,0,0,9,8" fill="none" stroke="#323232" stroke-linecap="round" stroke-linejoin="round" stroke-width="1.5"/><path d="M15,8a.25.25,0,1,0,.251.25A.249.249,0,0,0,15,8" fill="none" stroke="#323232" stroke-linecap="round" stroke-linejoin="round" stroke-width="1.5"/><path d="M12,7a.25.25,0,1,0,.251.25A.249.249,0,0,0,12,7" fill="none" stroke="#323232" stroke-linecap="round" stroke-linejoin="round" stroke-width="1.5"/></svg>