<svg id="Layer_3" data-name="Layer 3" xmlns="http://www.w3.org/2000/svg" viewBox="0 0 24 24"><title>animal-print-shop</title><path d="M13,19.91h8" fill="none" stroke="#323232" stroke-linecap="round" stroke-linejoin="round" stroke-width="1.5"/><path d="M19.78,9.78V19.91" fill="none" stroke="#323232" stroke-linecap="round" stroke-linejoin="round" stroke-width="1.5"/><path d="M13,13h3v3H13" fill="none" stroke="#323232" stroke-linecap="round" stroke-linejoin="round" stroke-width="1.5"/><path d="M4.3,9.778A2.2,2.2,0,0,1,2.232,6.636L3.948,3.259A2.358,2.358,0,0,1,6.062,2H17.938a2.361,2.361,0,0,1,2.115,1.259l1.716,3.377A2.2,2.2,0,0,1,19.7,9.778a2.39,2.39,0,0,1-2.566-2.163V7.567a2.409,2.409,0,0,1-2.566,2.211A2.409,2.409,0,0,1,12,7.567,2.409,2.409,0,0,1,9.434,9.778,2.409,2.409,0,0,1,6.868,7.567v.048A2.392,2.392,0,0,1,4.3,9.778Z" fill="none" stroke="#323232" stroke-linecap="round" stroke-linejoin="round" stroke-width="1.5"/><path d="M6.25,16h0a3,3,0,0,1,3,3v0a1,1,0,0,1-1,1h-4a1,1,0,0,1-1-1v0a3,3,0,0,1,3-3Z" fill="none" stroke="#323232" stroke-linecap="round" stroke-linejoin="round" stroke-width="1.5"/><path d="M3.249,13.75A.25.25,0,1,0,3.5,14a.249.249,0,0,0-.251-.25" fill="none" stroke="#323232" stroke-linecap="round" stroke-linejoin="round" stroke-width="1.5"/><path d="M9.249,13.75A.25.25,0,1,0,9.5,14a.249.249,0,0,0-.251-.25" fill="none" stroke="#323232" stroke-linecap="round" stroke-linejoin="round" stroke-width="1.5"/><path d="M6.249,12.75A.25.25,0,1,0,6.5,13a.249.249,0,0,0-.251-.25" fill="none" stroke="#323232" stroke-linecap="round" stroke-linejoin="round" stroke-width="1.5"/><path d="M0,0H24V24H0Z" fill="none"/></svg>