<svg id="Layer_3" data-name="Layer 3" xmlns="http://www.w3.org/2000/svg" viewBox="0 0 24 24"><title>animal-print-certificate_1</title><path d="M3.5,13.464l1.2,1.564.258,1.946a2.412,2.412,0,0,0,2.072,2.074l1.952.26L10.535,20.5a2.412,2.412,0,0,0,2.93,0l1.564-1.194h0l1.948-.258a2.412,2.412,0,0,0,2.074-2.072l.26-1.952s.6-.79,1.2-1.562a2.412,2.412,0,0,0,0-2.928l-1.2-1.564-.258-1.946a2.412,2.412,0,0,0-2.072-2.074l-1.952-.26L13.465,3.5a2.412,2.412,0,0,0-2.93,0L8.971,4.692h0L7.025,4.95A2.412,2.412,0,0,0,4.951,7.022l-.26,1.952s-.6.79-1.2,1.562A2.412,2.412,0,0,0,3.5,13.464Z" fill="none" stroke="#323232" stroke-linecap="round" stroke-linejoin="round" stroke-width="1.5"/><path d="M12,11.625h0a3,3,0,0,1,3,3v0a1,1,0,0,1-1,1H10a1,1,0,0,1-1-1v0a3,3,0,0,1,3-3Z" fill="none" stroke="#323232" stroke-linecap="round" stroke-linejoin="round" stroke-width="1.5"/><path d="M9,9.375a.25.25,0,1,0,.251.25A.249.249,0,0,0,9,9.375" fill="none" stroke="#323232" stroke-linecap="round" stroke-linejoin="round" stroke-width="1.5"/><path d="M15,9.375a.25.25,0,1,0,.251.25A.249.249,0,0,0,15,9.375" fill="none" stroke="#323232" stroke-linecap="round" stroke-linejoin="round" stroke-width="1.5"/><path d="M12,8.375a.25.25,0,1,0,.251.25A.249.249,0,0,0,12,8.375" fill="none" stroke="#323232" stroke-linecap="round" stroke-linejoin="round" stroke-width="1.5"/><path d="M0,0H24V24H0Z" fill="none"/></svg>