<svg id="Layer_3" data-name="Layer 3" xmlns="http://www.w3.org/2000/svg" viewBox="0 0 24 24"><title>animal-print-medal</title><path d="M16.6,9.9A6.5,6.5,0,1,1,7.4,9.9a6.5,6.5,0,0,1,9.192,0" fill="none" stroke="#323232" stroke-linecap="round" stroke-linejoin="round" stroke-width="1.5"/><path d="M12.556,8.027,15.141,3.5a1,1,0,0,1,.868-.5H20a1,1,0,0,1,.868,1.5l-3.323,5.816" fill="none" stroke="#323232" stroke-linecap="round" stroke-linejoin="round" stroke-width="1.5"/><path d="M11.444,8.027,8.859,3.5A1,1,0,0,0,7.991,3H4a1,1,0,0,0-.868,1.5l3.323,5.816" fill="none" stroke="#323232" stroke-linecap="round" stroke-linejoin="round" stroke-width="1.5"/><path d="M12,13.643h0a2.8,2.8,0,0,1,2.8,2.8v0a.932.932,0,0,1-.932.932H10.135A.932.932,0,0,1,9.2,16.44v0A2.8,2.8,0,0,1,12,13.643Z" fill="none" stroke="#323232" stroke-linecap="round" stroke-linejoin="round" stroke-width="1.5"/><path d="M9.2,11.545a.233.233,0,1,0,.234.233.232.232,0,0,0-.234-.233" fill="none" stroke="#323232" stroke-linecap="round" stroke-linejoin="round" stroke-width="1.5"/><path d="M14.8,11.545a.233.233,0,1,0,.234.233.231.231,0,0,0-.234-.233" fill="none" stroke="#323232" stroke-linecap="round" stroke-linejoin="round" stroke-width="1.5"/><path d="M12,10.613a.233.233,0,1,0,.234.233A.231.231,0,0,0,12,10.613" fill="none" stroke="#323232" stroke-linecap="round" stroke-linejoin="round" stroke-width="1.5"/><rect width="24" height="24" fill="none"/></svg>