<svg id="Layer_3" data-name="Layer 3" xmlns="http://www.w3.org/2000/svg" viewBox="0 0 24 24"><title>animal-print-search-loap</title><path d="M11.467,11.125h0a3,3,0,0,1,3,3v0a1,1,0,0,1-1,1h-4a1,1,0,0,1-1-1v0A3,3,0,0,1,11.467,11.125Z" fill="none" stroke="#323232" stroke-linecap="round" stroke-linejoin="round" stroke-width="1.5"/><path d="M16.747,6.187a7.467,7.467,0,1,1-10.56,0,7.467,7.467,0,0,1,10.56,0" fill="none" stroke="#323232" stroke-linecap="round" stroke-linejoin="round" stroke-width="1.5"/><line x1="20" y1="20" x2="16.747" y2="16.747" fill="none" stroke="#323232" stroke-linecap="round" stroke-linejoin="round" stroke-width="1.5"/><path d="M8.466,8.875a.25.25,0,1,0,.251.25.249.249,0,0,0-.251-.25" fill="none" stroke="#323232" stroke-linecap="round" stroke-linejoin="round" stroke-width="1.5"/><path d="M14.466,8.875a.25.25,0,1,0,.251.25.249.249,0,0,0-.251-.25" fill="none" stroke="#323232" stroke-linecap="round" stroke-linejoin="round" stroke-width="1.5"/><path d="M11.466,7.875a.25.25,0,1,0,.251.25.249.249,0,0,0-.251-.25" fill="none" stroke="#323232" stroke-linecap="round" stroke-linejoin="round" stroke-width="1.5"/><path d="M0,0H24V24H0Z" fill="none"/></svg>