<svg id="Layer_3" data-name="Layer 3" xmlns="http://www.w3.org/2000/svg" viewBox="0 0 24 24"><title>animal-print-document</title><path d="M12,10.25h0a3,3,0,0,1,3,3v0a1,1,0,0,1-1,1H10a1,1,0,0,1-1-1v0a3,3,0,0,1,3-3Z" fill="none" stroke="#323232" stroke-linecap="round" stroke-linejoin="round" stroke-width="1.5"/><path d="M17.778,21H6.222A2.222,2.222,0,0,1,4,18.778V5.222A2.222,2.222,0,0,1,6.222,3H17.778A2.222,2.222,0,0,1,20,5.222V18.778A2.222,2.222,0,0,1,17.778,21Z" fill="none" stroke="#323232" stroke-linecap="round" stroke-linejoin="round" stroke-width="1.5"/><path d="M15,17.5H9" fill="none" stroke="#323232" stroke-linecap="round" stroke-linejoin="round" stroke-width="1.5"/><path d="M9,8a.25.25,0,1,0,.251.25A.249.249,0,0,0,9,8" fill="none" stroke="#323232" stroke-linecap="round" stroke-linejoin="round" stroke-width="1.5"/><path d="M15,8a.25.25,0,1,0,.251.25A.249.249,0,0,0,15,8" fill="none" stroke="#323232" stroke-linecap="round" stroke-linejoin="round" stroke-width="1.5"/><path d="M12,7a.25.25,0,1,0,.251.25A.249.249,0,0,0,12,7" fill="none" stroke="#323232" stroke-linecap="round" stroke-linejoin="round" stroke-width="1.5"/><rect width="24" height="24" fill="none"/></svg>