<svg id="Layer_3" data-name="Layer 3" xmlns="http://www.w3.org/2000/svg" viewBox="0 0 24 24"><title>anorak</title><rect width="24" height="24" fill="none"/><path d="M17.9875,12l.00013,7.54307A1.97441,1.97441,0,0,1,16.534,21.4694a19.7434,19.7434,0,0,1-9.09291,0,1.97442,1.97442,0,0,1-1.45368-1.92633L5.9875,12" fill="none" stroke="#323232" stroke-linecap="round" stroke-linejoin="round" stroke-width="1.5"/><path d="M17,5.08333l1.97872.60455A2,2,0,0,1,20.309,7.02261l1.52033,5.03631a3.99987,3.99987,0,0,1,.09961,1.90664l-.80667,4.2221A1,1,0,0,1,20.14,19H18.00029" fill="none" stroke="#323232" stroke-linecap="round" stroke-linejoin="round" stroke-width="1.5"/><line x1="10" y1="6.08333" x2="10" y2="10" fill="none" stroke="#323232" stroke-linecap="round" stroke-linejoin="round" stroke-width="1.5"/><line x1="14" y1="6.08333" x2="14" y2="10" fill="none" stroke="#323232" stroke-linecap="round" stroke-linejoin="round" stroke-width="1.5"/><path d="M8.51493,2.429h0A2,2,0,0,0,7,4.36932v.714l3.73509,1.245a4,4,0,0,0,2.52982,0L17,5.08333v-.714A2,2,0,0,0,15.48507,2.429h0A14.36933,14.36933,0,0,0,8.51493,2.429Z" fill="none" stroke="#323232" stroke-linecap="round" stroke-linejoin="round" stroke-width="1.5"/><path d="M7,5.08333l-1.97872.60455A2,2,0,0,0,3.691,7.02261L2.17068,12.05892a3.99987,3.99987,0,0,0-.09961,1.90664l.80667,4.2221A1,1,0,0,0,3.86,19H5.99971" fill="none" stroke="#323232" stroke-linecap="round" stroke-linejoin="round" stroke-width="1.5"/><rect width="24" height="24" transform="translate(24 24) rotate(-180)" fill="none"/></svg>