<svg id="Layer_3" data-name="Layer 3" xmlns="http://www.w3.org/2000/svg" viewBox="0 0 24 24"><path d="M19.04526,17.25745l-6.01079,3.46569a2.071,2.071,0,0,1-2.06894,0L4.95474,17.25745A2.071,2.071,0,0,1,3.91819,15.4633V8.53674A2.071,2.071,0,0,1,4.95474,6.74258L10.96553,3.2769a2.071,2.071,0,0,1,2.06894,0l6.01079,3.46568a2.071,2.071,0,0,1,1.03655,1.79416V15.4633A2.071,2.071,0,0,1,19.04526,17.25745Z" fill="none" stroke="#323232" stroke-linecap="round" stroke-linejoin="round" stroke-width="1.5"/><path d="M15.64772,14.72208,12.5356,16.51646a1.07232,1.07232,0,0,1-1.0712,0L8.35228,14.72208a1.07227,1.07227,0,0,1-.53668-.92893V10.20689A1.07227,1.07227,0,0,1,8.35228,9.278L11.4644,7.48358a1.07227,1.07227,0,0,1,1.0712,0L15.64772,9.278a1.07227,1.07227,0,0,1,.53668.92893v3.58626A1.07227,1.07227,0,0,1,15.64772,14.72208Z" fill="none" stroke="#323232" stroke-linecap="round" stroke-linejoin="round" stroke-width="1.5"/><line x1="19.80385" y1="7.50051" x2="12" y2="12.00002" fill="none" stroke="#323232" stroke-linecap="round" stroke-linejoin="round" stroke-width="1.5"/><line x1="4.19615" y1="7.50051" x2="12" y2="12.00002" fill="none" stroke="#323232" stroke-linecap="round" stroke-linejoin="round" stroke-width="1.5"/><line x1="12" y1="12.00002" x2="12" y2="20.99997" fill="none" stroke="#323232" stroke-linecap="round" stroke-linejoin="round" stroke-width="1.5"/><line x1="12" y1="3" x2="12" y2="7.34023" fill="none" stroke="#323232" stroke-linecap="round" stroke-linejoin="round" stroke-width="1.5"/><line x1="16.0437" y1="14.33154" x2="19.80385" y2="16.49952" fill="none" stroke="#323232" stroke-linecap="round" stroke-linejoin="round" stroke-width="1.5"/><line x1="4.19615" y1="16.49952" x2="7.9563" y2="14.33154" fill="none" stroke="#323232" stroke-linecap="round" stroke-linejoin="round" stroke-width="1.5"/><rect width="24" height="24" fill="none"/></svg>