<?xml version="1.0" encoding="utf-8"?>
<!-- Generator: Adobe Illustrator 23.1.0, SVG Export Plug-In . SVG Version: 6.00 Build 0)  -->
<svg version="1.1" id="icons" xmlns="http://www.w3.org/2000/svg" xmlns:xlink="http://www.w3.org/1999/xlink" x="0px" y="0px"
	 width="24px" height="24px" viewBox="0 0 24 24" enable-background="new 0 0 24 24" xml:space="preserve">
<g>
	<rect y="0" fill="none" width="24" height="24"/>
	<g>
		<g>
			<g>
				
					<line fill="none" stroke="#323232" stroke-width="1.5" stroke-linecap="round" stroke-linejoin="round" x1="17.211" y1="9.5" x2="17.211" y2="14.5"/>
			</g>
		</g>
		<g>
			
				<line fill="none" stroke="#323232" stroke-width="1.5" stroke-linecap="round" stroke-linejoin="round" x1="10.579" y1="9.5" x2="10.579" y2="14.5"/>
		</g>
		<path fill="none" stroke="#323232" stroke-width="1.5" stroke-linecap="round" stroke-linejoin="round" d="M10.579,9.5h2.227
			c0.863,0,1.562,0.7,1.562,1.562v0c0,0.863-0.7,1.562-1.562,1.562h-2.227"/>
		<g>
			<path fill="none" stroke="#323232" stroke-width="1.5" stroke-linecap="round" stroke-linejoin="round" d="M7.737,14.5l-2.368-5
				L3,14.5"/>
		</g>
		<path fill="none" stroke="#323232" stroke-width="1.5" stroke-linecap="round" stroke-linejoin="round" d="M19.112,6.5
			c-0.23-0.299-0.474-0.59-0.748-0.864c-3.515-3.515-9.213-3.515-12.728,0C5.362,5.91,5.119,6.201,4.888,6.5"/>
		<path fill="none" stroke="#323232" stroke-width="1.5" stroke-linecap="round" stroke-linejoin="round" d="M4.888,17.5
			c0.23,0.299,0.474,0.59,0.748,0.864c3.515,3.515,9.213,3.515,12.728,0c0.274-0.274,0.517-0.565,0.748-0.864"/>
		<path fill="none" stroke="#323232" stroke-width="1.5" stroke-linecap="round" stroke-linejoin="round" d="M17.211,9.5h2.227
			C20.3,9.5,21,10.2,21,11.062v0c0,0.863-0.7,1.562-1.562,1.562h-2.227"/>
		<path fill="none" stroke="#323232" stroke-width="1.5" stroke-linecap="round" stroke-linejoin="round" d="M3.474,13.5h3.789"/>
	</g>
</g>
</svg>
