<?xml version="1.0" encoding="utf-8"?>
<!-- Generator: Adobe Illustrator 24.0.2, SVG Export Plug-In . SVG Version: 6.00 Build 0)  -->
<svg version="1.1" id="Layer_1" xmlns="http://www.w3.org/2000/svg" xmlns:xlink="http://www.w3.org/1999/xlink" x="0px" y="0px"
	 width="24px" height="24px" viewBox="0 0 24 24" enable-background="new 0 0 24 24" xml:space="preserve">
<g>
	<g>
		<g>
			<path fill="none" stroke="#323232" stroke-width="1.5" stroke-linecap="round" stroke-linejoin="round" d="M18,18.5L18,18.5
				c-1.657,0-3-1.343-3-3v-7c0-1.657,1.343-3,3-3h0c1.657,0,3,1.343,3,3v7C21,17.157,19.657,18.5,18,18.5z"/>
		</g>
		<path fill="none" stroke="#323232" stroke-width="1.5" stroke-linecap="round" stroke-linejoin="round" d="M13.756,4.497
			C12.896,4.18,11.97,4,11,4c-4.418,0-8,3.582-8,8c0,4.418,3.582,8,8,8c0.97,0,1.896-0.18,2.756-0.497"/>
		<g>
			<g>
				<path id="Shape_3077_2_" fill="none" stroke="#323232" stroke-width="1.5" stroke-linecap="round" stroke-linejoin="round" d="
					M18.25,10.352c0-0.138-0.112-0.25-0.25-0.25c-0.138,0.001-0.25,0.112-0.25,0.25s0.112,0.25,0.25,0.25
					C18.138,10.602,18.25,10.491,18.25,10.352"/>
			</g>
		</g>
	</g>
	<rect fill="none" width="24" height="24"/>
</g>
</svg>
