<svg id="Layer_3" data-name="Layer 3" xmlns="http://www.w3.org/2000/svg" viewBox="0 0 24 24"><title>apple</title><path d="M8.8,7a23.381,23.381,0,0,1,3.2.512A23.381,23.381,0,0,1,15.2,7V7c3.2,0,4.8,2.51,4.8,6A8,8,0,0,1,4,13C4,9.509,5.6,7,8.8,7" fill="none" stroke="#323232" stroke-linecap="round" stroke-linejoin="round" stroke-width="1.5"/><path d="M14.091,7H12.249V5.158A3.157,3.157,0,0,1,15.406,2h1.843V3.842A3.159,3.159,0,0,1,14.091,7Z" fill="none" stroke="#323232" stroke-linecap="round" stroke-linejoin="round" stroke-width="1.5"/><path d="M12.249,7V6.5A2.5,2.5,0,0,0,9.749,4h-.5" fill="none" stroke="#323232" stroke-linecap="round" stroke-linejoin="round" stroke-width="1.5"/><rect width="24" height="24" fill="none"/></svg>