<svg id="Layer_3" data-name="Layer 3" xmlns="http://www.w3.org/2000/svg" viewBox="0 0 24 24"><title>apple-circle</title><path d="M11.92,9.126c-.436,0-1.116-.509-1.823-.509a2.7,2.7,0,0,0-2.284,1.417c-.974,1.692-.251,4.192.7,5.567.467.669,1.017,1.422,1.746,1.4.7-.03.962-.454,1.811-.454s1.083.454,1.824.436,1.232-.681,1.692-1.356a6.017,6.017,0,0,0,.765-1.573,2.439,2.439,0,0,1-1.483-2.236,2.481,2.481,0,0,1,1.2-2.1,2.589,2.589,0,0,0-2.02-1.094C13.122,8.552,12.351,9.126,11.92,9.126Z" fill="none" stroke="#323232" stroke-linecap="round" stroke-linejoin="round" stroke-width="1.5"/><circle cx="12" cy="12" r="9" fill="none" stroke="#323232" stroke-linecap="round" stroke-linejoin="round" stroke-width="1.5"/><line x1="12.51" y1="6.75" x2="13.139" y2="6" fill="none" stroke="#323232" stroke-linecap="round" stroke-linejoin="round" stroke-width="1.5"/><path d="M0,24V0H24V24Z" fill="none"/></svg>