<?xml version="1.0" encoding="utf-8"?>
<!-- Generator: Adobe Illustrator 24.0.2, SVG Export Plug-In . SVG Version: 6.00 Build 0)  -->
<svg version="1.1" id="Layer_3" xmlns="http://www.w3.org/2000/svg" xmlns:xlink="http://www.w3.org/1999/xlink" x="0px" y="0px"
	 width="24px" height="24px" viewBox="0 0 24 24" enable-background="new 0 0 24 24" xml:space="preserve">
<g>
	<g>
		<path fill="none" stroke="#323232" stroke-width="1.5" stroke-linecap="round" stroke-linejoin="round" d="M19,13H5
			c-1.657,0-3-1.343-3-3V6c0-1.657,1.343-3,3-3h14c1.657,0,3,1.343,3,3v4C22,11.657,20.657,13,19,13z"/>
		<path fill="none" stroke="#323232" stroke-width="1.5" stroke-linecap="round" stroke-linejoin="round" d="M17,18.116
			c-2.843-2.219-6.907-2.219-9.75,0"/>
		<path fill="none" stroke="#323232" stroke-width="1.5" stroke-linecap="round" stroke-linejoin="round" d="M9.281,20.955
			c1.658-1.293,4.028-1.293,5.687,0"/>
		<path fill="none" stroke="#323232" stroke-width="1.5" stroke-linecap="round" stroke-linejoin="round" d="M18,6h-2"/>
		<path fill="none" stroke="#323232" stroke-width="1.5" stroke-linecap="round" stroke-linejoin="round" d="M18,13v-1
			c0-1.105-0.895-2-2-2H8c-1.105,0-2,0.895-2,2v1"/>
	</g>
	<rect id="_Transparent_Rectangle__51_" fill="none" width="24" height="24"/>
</g>
</svg>
