<svg id="Layer_3" data-name="Layer 3" xmlns="http://www.w3.org/2000/svg" viewBox="0 0 24 24"><title>apple-healthy-diet-fruit</title><path d="M13.98,20.3a7.74,7.74,0,0,1-3.23.7,7.836,7.836,0,0,1-7.83-7.83c0-3.42,1.57-5.88,4.7-5.88V7.3a23.134,23.134,0,0,1,3.13.5,23.134,23.134,0,0,1,3.13-.5V7.29c3.13,0,4.69,2.44,4.7,5.84" fill="none" stroke="#323232" stroke-linecap="round" stroke-linejoin="round" stroke-width="1.5"/><circle cx="17.5" cy="17.5" r="4.5" fill="none" stroke="#323232" stroke-linecap="round" stroke-linejoin="round" stroke-width="1.5"/><path d="M19.017,16.743l-1.895,1.9L15.983,17.5" fill="none" stroke="#323232" stroke-linecap="round" stroke-linejoin="round" stroke-width="1.5"/><path d="M12.842,7H11V5.158A3.157,3.157,0,0,1,14.158,2H16V3.842A3.159,3.159,0,0,1,12.842,7Z" fill="none" stroke="#323232" stroke-linecap="round" stroke-linejoin="round" stroke-width="1.5"/><path d="M11,7V6.5A2.5,2.5,0,0,0,8.5,4H8" fill="none" stroke="#323232" stroke-linecap="round" stroke-linejoin="round" stroke-width="1.5"/><rect width="24" height="24" fill="none"/></svg>