<svg id="Layer_3" data-name="Layer 3" xmlns="http://www.w3.org/2000/svg" viewBox="0 0 24 24"><title>arrow-uturn-up-cross</title><path d="M0,24H24V0H0Z" fill="none"/><polyline points="12.5 10.5 10 8 7.5 10.5" fill="none" stroke="#323232" stroke-linecap="round" stroke-linejoin="round" stroke-width="1.5"/><path d="M10,8v5a3,3,0,0,0,3,3h0a3,3,0,0,0,3-3" fill="none" stroke="#323232" stroke-linecap="round" stroke-linejoin="round" stroke-width="1.5"/><path d="M18,10a4,4,0,1,0-4-4,4,4,0,0,0,4,4" fill="none" stroke="#323232" stroke-linecap="round" stroke-linejoin="round" stroke-width="1.5"/><line x1="19.06066" y1="7.06066" x2="16.93934" y2="4.93934" fill="none" stroke="#323232" stroke-linecap="round" stroke-linejoin="round" stroke-width="1.5"/><line x1="19.06066" y1="4.93934" x2="16.93934" y2="7.06066" fill="none" stroke="#323232" stroke-linecap="round" stroke-linejoin="round" stroke-width="1.5"/><path d="M20.52,9.11a9.01194,9.01194,0,1,1-5.63-5.63" fill="none" stroke="#323232" stroke-linecap="round" stroke-linejoin="round" stroke-width="1.5"/></svg>