<?xml version="1.0" encoding="utf-8"?>
<!-- Generator: Adobe Illustrator 24.0.2, SVG Export Plug-In . SVG Version: 6.00 Build 0)  -->
<svg version="1.1" id="Layer_1" xmlns="http://www.w3.org/2000/svg" xmlns:xlink="http://www.w3.org/1999/xlink" x="0px" y="0px"
	 width="24px" height="24px" viewBox="0 0 24 24" enable-background="new 0 0 24 24" xml:space="preserve">
<g>
	<g>
		
			<path fill="none" stroke="#323232" stroke-width="1.5" stroke-linecap="round" stroke-linejoin="round" stroke-miterlimit="10" d="
			M5.959,19.072C4.467,17.764,3.4,15.985,3,13.961"/>
		
			<path fill="none" stroke="#323232" stroke-width="1.5" stroke-linecap="round" stroke-linejoin="round" stroke-miterlimit="10" d="
			M3,10.392C3.399,8.368,4.466,6.59,5.959,5.281"/>
		
			<path fill="none" stroke="#323232" stroke-width="1.5" stroke-linecap="round" stroke-linejoin="round" stroke-miterlimit="10" d="
			M18.041,5.281C19.533,6.589,20.6,8.368,21,10.392"/>
		
			<path fill="none" stroke="#323232" stroke-width="1.5" stroke-linecap="round" stroke-linejoin="round" stroke-miterlimit="10" d="
			M14.953,3.495C14.025,3.178,13.034,3,12,3S9.975,3.178,9.047,3.495"/>
		
			<path fill="none" stroke="#323232" stroke-width="1.5" stroke-linecap="round" stroke-linejoin="round" stroke-miterlimit="10" d="
			M21,13.961c-0.399,2.024-1.466,3.802-2.959,5.111"/>
		
			<line fill="none" stroke="#323232" stroke-width="1.5" stroke-linecap="round" stroke-linejoin="round" x1="12" y1="12" x2="12" y2="7"/>
		<polyline fill="none" stroke="#323232" stroke-width="1.5" stroke-linecap="round" stroke-linejoin="round" points="14.5,9.5 
			12,7 9.5,9.5 		"/>
		<g>
			
				<path fill="none" stroke="#323232" stroke-width="1.5" stroke-linecap="round" stroke-linejoin="round" stroke-miterlimit="10" d="
				M9.919,21h4.162c0.706,0,1.148-0.765,0.794-1.376l-2.081-3.604c-0.353-0.612-1.236-0.612-1.59,0l-2.081,3.604
				C8.772,20.235,9.213,21,9.919,21z"/>
		</g>
	</g>
	<path fill="none" d="M0,0h24v24H0V0z"/>
</g>
</svg>
