<?xml version="1.0" encoding="utf-8"?>
<!-- Generator: Adobe Illustrator 23.1.0, SVG Export Plug-In . SVG Version: 6.00 Build 0)  -->
<svg version="1.1" id="icons" xmlns="http://www.w3.org/2000/svg" xmlns:xlink="http://www.w3.org/1999/xlink" x="0px" y="0px"
	 width="24px" height="24px" viewBox="0 0 24 24" enable-background="new 0 0 24 24" xml:space="preserve">
<path fill="none" d="M0,0h24v24H0V0z"/>
<g>
	<g>
		<path fill="none" stroke="#323232" stroke-width="1.5" stroke-linecap="round" stroke-linejoin="round" d="M3,12.253
			c0,2.485,4.029,4.5,9,4.5"/>
		<path fill="none" stroke="#323232" stroke-width="1.5" stroke-linecap="round" stroke-linejoin="round" d="M21,12.253
			c0,1.56-1.589,2.934-4,3.741C19.411,15.187,21,13.813,21,12.253"/>
		<path fill="none" stroke="#323232" stroke-width="1.5" stroke-linecap="round" stroke-linejoin="round" d="M13,16.753h-1
			c-4.971,0-9-2.015-9-4.5"/>
		<path fill="none" stroke="#323232" stroke-width="1.5" stroke-linecap="round" stroke-linejoin="round" d="M10.754,18.998
			L13,16.753l-2.246-2.246"/>
	</g>
	<path fill="none" stroke="#323232" stroke-width="1.5" stroke-linecap="round" stroke-linejoin="round" d="M21,12.253
		c0-1.958-2.507-3.618-6-4.236"/>
	<path fill="none" stroke="#323232" stroke-width="1.5" stroke-linecap="round" stroke-linejoin="round" d="M9,8.016
		c-3.493,0.618-6,2.278-6,4.236"/>
	<path fill="none" stroke="#323232" stroke-width="1.5" stroke-linecap="round" stroke-linejoin="round" d="M11.845,4.995
		c0,0.09,0.06,0.15,0.15,0.15c0.09,0,0.15-0.06,0.15-0.15s-0.06-0.15-0.15-0.15C11.905,4.845,11.845,4.905,11.845,4.995"/>
	<path fill="none" stroke="#323232" stroke-width="1.5" stroke-linecap="round" stroke-linejoin="round" d="M11.845,7.995
		c0,0.09,0.06,0.15,0.15,0.15c0.09,0,0.15-0.06,0.15-0.15c0-0.09-0.06-0.15-0.15-0.15C11.905,7.845,11.845,7.905,11.845,7.995"/>
	<path fill="none" stroke="#323232" stroke-width="1.5" stroke-linecap="round" stroke-linejoin="round" d="M11.84,10.995
		c0,0.09,0.06,0.15,0.15,0.15c0.09,0,0.15-0.06,0.15-0.15c0-0.09-0.06-0.15-0.15-0.15C11.9,10.845,11.84,10.905,11.84,10.995"/>
</g>
</svg>
