<svg id="Layer_3" data-name="Layer 3" xmlns="http://www.w3.org/2000/svg" viewBox="0 0 24 24"><path d="M13.433,3.067A9,9,0,1,1,3.068,13.432" fill="none" stroke="#323232" stroke-linecap="round" stroke-linejoin="round" stroke-width="1.5"/><path d="M3.063,10.434A8.91618,8.91618,0,0,1,3.5,8.8" fill="none" stroke="#323232" stroke-linecap="round" stroke-linejoin="round" stroke-width="1.5"/><path d="M6.2,5A8.93681,8.93681,0,0,0,5,6.2" fill="none" stroke="#323232" stroke-linecap="round" stroke-linejoin="round" stroke-width="1.5"/><path d="M10.434,3.067A8.90015,8.90015,0,0,0,8.8,3.505" fill="none" stroke="#323232" stroke-linecap="round" stroke-linejoin="round" stroke-width="1.5"/><path d="M9.38162,15.17141l2.239-.91362a.99955.99955,0,0,1,.75516,0l2.24273.91476a1.00022,1.00022,0,0,0,1.25537-1.40542l-2.9963-5.49572a.99975.99975,0,0,0-1.75573,0L8.12611,13.766A1.00023,1.00023,0,0,0,9.38162,15.17141Z" fill="none" stroke="#323232" stroke-linecap="round" stroke-linejoin="round" stroke-width="1.5"/><path d="M0,0H24V24H0Z" fill="none"/></svg>