<svg id="Layer_3" data-name="Layer 3" xmlns="http://www.w3.org/2000/svg" viewBox="0 0 24 24"><title>astronomy-moon-star</title><rect width="24" height="24" fill="none"/><rect width="24" height="24" fill="none"/><path d="M21,12a9,9,0,1,1-9-9" fill="none" stroke="#323232" stroke-linecap="round" stroke-linejoin="round" stroke-width="1.5"/><path d="M18.34014,2.39182a.75169.75169,0,0,1,1.31972,0l.58288,1.06528a.753.753,0,0,0,.29993.30008l1.06478.58215a.75234.75234,0,0,1,0,1.32134l-1.06478.58315a.744.744,0,0,0-.29993.30008l-.58288,1.06428a.75169.75169,0,0,1-1.31972,0L17.75726,6.5429a.744.744,0,0,0-.29993-.30008l-1.06478-.58215a.75234.75234,0,0,1,0-1.32134l1.06478-.58215a.753.753,0,0,0,.29993-.30008Z" fill="none" stroke="#323232" stroke-linecap="round" stroke-linejoin="round" stroke-width="1.5"/><path d="M10.586,7.02873a.63463.63463,0,0,1,.76878.85338,3.60773,3.60773,0,0,0,4.76311,4.763.63464.63464,0,0,1,.8534.76876A5.10217,5.10217,0,1,1,10.586,7.02873Z" fill="none" stroke="#323232" stroke-linecap="round" stroke-linejoin="round" stroke-width="1.5"/></svg>