<svg id="Layer_3" data-name="Layer 3" xmlns="http://www.w3.org/2000/svg" viewBox="0 0 24 24"><title>astronomy-earth-rotation</title><path d="M6.722,19.278A8.955,8.955,0,0,1,5.16,17.84" fill="none" stroke="#323232" stroke-linecap="round" stroke-linejoin="round" stroke-width="1.5"/><path d="M3.523,9A9.011,9.011,0,0,1,6.349,5" fill="none" stroke="#323232" stroke-linecap="round" stroke-linejoin="round" stroke-width="1.5"/><path d="M3,12a8.956,8.956,0,0,0,.523,3" fill="none" stroke="#323232" stroke-linecap="round" stroke-linejoin="round" stroke-width="1.5"/><path d="M19.559,4.407a1.688,1.688,0,1,1-2.387,0,1.688,1.688,0,0,1,2.387,0" fill="none" stroke="#323232" stroke-linecap="round" stroke-linejoin="round" stroke-width="1.5"/><path d="M12,21a8.965,8.965,0,0,0,8.852-10.588" fill="none" stroke="#323232" stroke-linecap="round" stroke-linejoin="round" stroke-width="1.5"/><path d="M17.053,4.553A9,9,0,0,0,9.38,3.39" fill="none" stroke="#323232" stroke-linecap="round" stroke-linejoin="round" stroke-width="1.5"/><path d="M7,12H9.318a1.572,1.572,0,0,0,1.571-1.571h0a1.57,1.57,0,0,0-.46-1.111L9.065,7.954" fill="none" stroke="#323232" stroke-linecap="round" stroke-linejoin="round" stroke-width="1.5"/><path d="M15.5,15.576l-.988-1.48a.959.959,0,0,0-.8-.429h0a.962.962,0,0,1-.862-.533l-.074-.147a.968.968,0,0,1,0-.862l.63-1.258a.962.962,0,0,1,.861-.533h2.449" fill="none" stroke="#323232" stroke-linecap="round" stroke-linejoin="round" stroke-width="1.5"/><path d="M12,7a5,5,0,1,0,5,5A4.992,4.992,0,0,0,12,7Z" fill="none" stroke="#323232" stroke-linecap="round" stroke-linejoin="round" stroke-width="1.5"/><path d="M0,0H24V24H0Z" fill="none"/></svg>