<svg id="Layer_3" data-name="Layer 3" xmlns="http://www.w3.org/2000/svg" viewBox="0 0 24 24"><title>astronomy-moon</title><path d="M7.66177,8.03731a.825.825,0,0,1,.99942,1.1094,4.69,4.69,0,0,0,6.19205,6.19188.825.825,0,0,1,1.10941.99939A6.63282,6.63282,0,1,1,7.66177,8.03731Z" fill="none" stroke="#323232" stroke-linecap="round" stroke-linejoin="round" stroke-width="1.5"/><path d="M17.95035,7.82884a.6239.6239,0,0,1,1.0993,0l.48477.88718a.62388.62388,0,0,0,.24956.24956l.88718.48477a.6239.6239,0,0,1,0,1.0993l-.88718.48477a.62388.62388,0,0,0-.24956.24956l-.48477.88718a.6239.6239,0,0,1-1.0993,0l-.48477-.88718a.62388.62388,0,0,0-.24956-.24956l-.88718-.48477a.6239.6239,0,0,1,0-1.0993l.88718-.48477a.62388.62388,0,0,0,.24956-.24956Z" fill="none" stroke="#323232" stroke-linecap="round" stroke-linejoin="round" stroke-width="1.5"/><path d="M12.56028,3.26307a.49911.49911,0,0,1,.87944,0l.38782.70975a.49909.49909,0,0,0,.19964.19964l.70975.38782a.49911.49911,0,0,1,0,.87944l-.70975.38782a.49909.49909,0,0,0-.19964.19964l-.38782.70975a.49911.49911,0,0,1-.87944,0l-.38782-.70975a.49909.49909,0,0,0-.19964-.19964l-.70975-.38782a.49911.49911,0,0,1,0-.87944l.70975-.38782a.49909.49909,0,0,0,.19964-.19964Z" fill="none" stroke="#323232" stroke-linecap="round" stroke-linejoin="round" stroke-width="1.5"/><rect width="24" height="24" fill="none"/></svg>