<svg id="Layer_3" data-name="Layer 3" xmlns="http://www.w3.org/2000/svg" viewBox="0 0 24 24"><title>atm-recipe-checkmark</title><path d="M0,0H24V24H0Z" fill="none"/><path d="M15.333,19l-1.666,1L12,19l-1.667,1L8.667,19,7,20V7H17V20Z" fill="none" stroke="#323232" stroke-linecap="round" stroke-linejoin="round" stroke-width="1.5"/><path d="M10,16h4" fill="none" stroke="#323232" stroke-linecap="round" stroke-linejoin="round" stroke-width="1.5"/><path d="M17,11h2a2.157,2.157,0,0,0,2-2.286V5.286A2.157,2.157,0,0,0,19,3H5A2.157,2.157,0,0,0,3,5.286V8.715A2.156,2.156,0,0,0,5,11H7" fill="none" stroke="#323232" stroke-linecap="round" stroke-linejoin="round" stroke-width="1.5"/><polyline id="Stroke-10" points="13.75 11.013 11.731 13.031 10.75 12.053" fill="none" stroke="#323232" stroke-linecap="round" stroke-linejoin="round" stroke-width="1.5"/></svg>