<svg id="Layer_3" data-name="Layer 3" xmlns="http://www.w3.org/2000/svg" viewBox="0 0 24 24"><path d="M18.04746,7.166c.33293-1.6945.14675-2.98052-.6402-3.49157a1.56537,1.56537,0,0,0-.93076-.23146c-1.91132.07256-4.99529,2.70423-7.515,6.58425-2.98632,4.59854-4.04758,9.20718-2.36875,10.29743.79692.51752,2.0668.15066,3.50142-.87166" fill="none" stroke="#323232" stroke-linecap="round" stroke-linejoin="round" stroke-width="1.5"/><path d="M12.192,8.38234c5.47561.287,9.826,2.13768,9.72124,4.1367-.04526.86439-.91684,1.617-2.33422,2.16685" fill="none" stroke="#323232" stroke-linecap="round" stroke-linejoin="round" stroke-width="1.5"/><path d="M10.15113,8.3537c.17583-.00417.35012-.01016.529-.01076.49376-.00168.99854.01251,1.51186.0394" fill="none" stroke="#323232" stroke-linecap="round" stroke-linejoin="round" stroke-width="1.5"/><path d="M6.86544,8.66583c-2.80632.49638-4.71134,1.527-4.77872,2.81412-.04525.86265.74074,1.6992,2.088,2.3934" fill="none" stroke="#323232" stroke-linecap="round" stroke-linejoin="round" stroke-width="1.5"/><path d="M18.04746,7.166c.33293-1.6945.14675-2.98052-.6402-3.49157a1.56537,1.56537,0,0,0-.93076-.23146c-1.91132.07256-4.99529,2.70423-7.515,6.58425-2.98632,4.59854-4.04758,9.20718-2.36875,10.29743.79692.51752,2.0668.15066,3.50142-.87166" fill="none" stroke="#323232" stroke-linecap="round" stroke-linejoin="round" stroke-width="1.5"/><path d="M10.64572,4.18656A4.04311,4.04311,0,0,0,8.03566,3.00465a1.40928,1.40928,0,0,0-.54171.14774C5.71035,4.06117,6.28014,8.7613,8.76943,13.6468s5.953,8.10862,7.73662,7.19983c1.71525-.874,1.2523-5.25365-.99971-9.933" fill="none" stroke="#323232" stroke-linecap="round" stroke-linejoin="round" stroke-width="1.5"/><path d="M10.64572,4.18656A4.04311,4.04311,0,0,0,8.03566,3.00465a1.40928,1.40928,0,0,0-.54171.14774C5.71035,4.06117,6.28014,8.7613,8.76943,13.6468s5.953,8.10862,7.73662,7.19983c1.71525-.874,1.2523-5.25365-.99971-9.933" fill="none" stroke="#323232" stroke-linecap="round" stroke-linejoin="round" stroke-width="1.5"/><path d="M12.31433,12.14021a.25.25,0,1,1-.25031-.25031.25.25,0,0,1,.25031.25031" fill="none" stroke="#323232" stroke-linecap="round" stroke-linejoin="round" stroke-width="1.5"/><path d="M0,24V0H24V24Z" fill="none"/></svg>