<svg id="Layer_3" data-name="Layer 3" xmlns="http://www.w3.org/2000/svg" viewBox="0 0 24 24"><title>Artboard 92</title><line x1="7.333" y1="16.667" x2="12" y2="12" fill="none" stroke="#323232" stroke-linecap="round" stroke-linejoin="round" stroke-width="1.5"/><line x1="16.667" y1="7.333" x2="12" y2="12" fill="none" stroke="#323232" stroke-linecap="round" stroke-linejoin="round" stroke-width="1.5"/><path d="M10.908,13.092a3.73,3.73,0,0,0-5.274,0L4.092,14.634a3.73,3.73,0,0,0,0,5.274h0a3.73,3.73,0,0,0,5.274,0l1.542-1.542a3.72,3.72,0,0,0,1.028-3.3" fill="none" stroke="#323232" stroke-linecap="round" stroke-linejoin="round" stroke-width="1.5"/><path d="M15.064,11.936a3.72,3.72,0,0,0,3.3-1.028l1.542-1.542a3.729,3.729,0,0,0-5.274-5.274L13.092,5.634a3.73,3.73,0,0,0,0,5.274h0" fill="none" stroke="#323232" stroke-linecap="round" stroke-linejoin="round" stroke-width="1.5"/><rect width="24" height="24" fill="none"/></svg>