<?xml version="1.0" encoding="utf-8"?>
<!-- Generator: Adobe Illustrator 24.0.2, SVG Export Plug-In . SVG Version: 6.00 Build 0)  -->
<svg version="1.1" id="Layer_1" xmlns="http://www.w3.org/2000/svg" xmlns:xlink="http://www.w3.org/1999/xlink" x="0px" y="0px"
	 width="24px" height="24px" viewBox="0 0 24 24" enable-background="new 0 0 24 24" xml:space="preserve">
<g>
	<g>
		<path fill="none" stroke="#323232" stroke-width="1.5" stroke-linecap="round" stroke-linejoin="round" d="M15.869,9.13
			c1.174-1.174,3.076-1.174,4.25,0l0,0c1.174,1.174,1.174,3.076,0,4.25l-4.997,4.997c-1.174,1.174-3.076,1.174-4.25,0l0,0
			c-1.174-1.174-1.174-3.076,0-4.25l0.747-0.747"/>
		<path fill="none" stroke="#323232" stroke-width="1.5" stroke-linecap="round" stroke-linejoin="round" d="M9.131,20.119
			c-1.174,1.174-3.076,1.174-4.25,0l0,0c-1.174-1.174-1.174-3.076,0-4.25l4.997-4.997c1.174-1.174,3.076-1.174,4.25,0l0,0
			c1.174,1.174,1.174,3.076,0,4.25l-0.778,0.777"/>
	</g>
	<rect fill="none" width="24" height="24"/>
	<path fill="none" d="M0,0h24v24H0V0z"/>
	
		<line fill="none" stroke="#323232" stroke-width="1.5" stroke-linecap="round" stroke-linejoin="round" x1="5" y1="4" x2="7.999" y2="6.999"/>
	
		<line fill="none" stroke="#323232" stroke-width="1.5" stroke-linecap="round" stroke-linejoin="round" x1="5" y1="6.999" x2="7.999" y2="4"/>
</g>
</svg>
