<svg id="Layer_3" data-name="Layer 3" xmlns="http://www.w3.org/2000/svg" viewBox="0 0 24 24"><title>Artboard 360</title><path d="M19.337,9.072l.741-.741a3.146,3.146,0,0,0-.122-4.566,3.268,3.268,0,0,0-4.453.242l-.615.616" fill="none" stroke="#323232" stroke-linecap="round" stroke-linejoin="round" stroke-width="1.5"/><path d="M12.663,6.848l-.741.741a3.146,3.146,0,0,0,.122,4.566,3.267,3.267,0,0,0,4.453-.243l.615-.615" fill="none" stroke="#323232" stroke-linecap="round" stroke-linejoin="round" stroke-width="1.5"/><path d="M21,12v5a4,4,0,0,1-4,4H7a4,4,0,0,1-4-4V7A4,4,0,0,1,7,3h5" fill="none" stroke="#323232" stroke-linecap="round" stroke-linejoin="round" stroke-width="1.5"/><line x1="17.853" y1="6.106" x2="14.147" y2="9.813" fill="none" stroke="#323232" stroke-linecap="round" stroke-linejoin="round" stroke-width="1.5"/><path d="M0,0H24V24H0Z" fill="none"/></svg>