<?xml version="1.0" encoding="utf-8"?>
<!-- Generator: Adobe Illustrator 24.0.2, SVG Export Plug-In . SVG Version: 6.00 Build 0)  -->
<svg version="1.1" id="Layer_3" xmlns="http://www.w3.org/2000/svg" xmlns:xlink="http://www.w3.org/1999/xlink" x="0px" y="0px"
	 width="24px" height="24px" viewBox="0 0 24 24" enable-background="new 0 0 24 24" xml:space="preserve">
<g>
	<g>
		<path fill="none" stroke="#323232" stroke-width="1.5" stroke-linecap="round" stroke-linejoin="round" d="M15.964,6.036
			c1.381-1.381,3.619-1.381,5,0l0,0c1.381,1.381,1.381,3.619,0,5l-5.879,5.879c-1.381,1.381-3.619,1.381-5,0l0,0
			c-1.381-1.381-1.381-3.619,0-5l0.879-0.879"/>
		<path fill="none" stroke="#323232" stroke-width="1.5" stroke-linecap="round" stroke-linejoin="round" d="M8.036,18.964
			c-1.381,1.381-3.619,1.381-5,0l0,0c-1.381-1.381-1.381-3.619,0-5l5.879-5.879c1.381-1.381,3.619-1.381,5,0l0,0
			c1.381,1.381,1.381,3.619,0,5L13,14"/>
	</g>
	<rect fill="none" width="24" height="24"/>
</g>
</svg>
