<?xml version="1.0" encoding="utf-8"?>
<!-- Generator: Adobe Illustrator 24.0.2, SVG Export Plug-In . SVG Version: 6.00 Build 0)  -->
<svg version="1.1" id="Layer_3" xmlns="http://www.w3.org/2000/svg" xmlns:xlink="http://www.w3.org/1999/xlink" x="0px" y="0px"
	 width="24px" height="24px" viewBox="0 0 24 24" enable-background="new 0 0 24 24" xml:space="preserve">
<g>
	<rect fill="none" width="24" height="24"/>
	<g>
		
			<line fill="none" stroke="#323232" stroke-width="1.5" stroke-linecap="round" stroke-linejoin="round" x1="3" y1="3" x2="10" y2="3"/>
		
			<line fill="none" stroke="#323232" stroke-width="1.5" stroke-linecap="round" stroke-linejoin="round" x1="3" y1="6" x2="10" y2="6"/>
		
			<line fill="none" stroke="#323232" stroke-width="1.5" stroke-linecap="round" stroke-linejoin="round" x1="3" y1="9" x2="6" y2="9"/>
		<g>
			<path fill="none" stroke="#323232" stroke-width="1.5" stroke-linecap="round" stroke-linejoin="round" d="M15.869,9.131
				c1.174-1.174,3.076-1.174,4.25,0l0,0c1.174,1.174,1.174,3.076,0,4.25l-4.997,4.997c-1.174,1.174-3.076,1.174-4.25,0l0,0
				c-1.174-1.174-1.174-3.076,0-4.25l0.747-0.747"/>
			<path fill="none" stroke="#323232" stroke-width="1.5" stroke-linecap="round" stroke-linejoin="round" d="M9.131,20.12
				c-1.174,1.174-3.076,1.174-4.25,0l0,0c-1.174-1.174-1.174-3.076,0-4.25l4.997-4.997c1.174-1.174,3.076-1.174,4.25,0l0,0
				c1.174,1.174,1.174,3.076,0,4.25L13.35,15.9"/>
		</g>
	</g>
</g>
<path fill="none" d="M0,0h24v24H0V0z"/>
</svg>
