<svg id="Layer_3" data-name="Layer 3" xmlns="http://www.w3.org/2000/svg" viewBox="0 0 24 24"><title>attachment-Link</title><path d="M11,14h0a4,4,0,0,0,4-4h0a4,4,0,0,0-4-4H7a4,4,0,0,0-4,4H3a4,4,0,0,0,4,4H7" fill="none" stroke="#323232" stroke-linecap="round" stroke-linejoin="round" stroke-width="1.5"/><path d="M13,10h0a4,4,0,0,0-4,4H9a4,4,0,0,0,4,4h4a4,4,0,0,0,4-4h0a4,4,0,0,0-4-4h0" fill="none" stroke="#323232" stroke-linecap="round" stroke-linejoin="round" stroke-width="1.5"/><path d="M0,0H24V24H0Z" fill="none"/></svg>