<svg id="Layer_3" data-name="Layer 3" xmlns="http://www.w3.org/2000/svg" viewBox="0 0 24 24"><title>Artboard 338</title><path d="M10,13l.953.953a4,4,0,0,0,5.657,0l3.031-3.031a4.641,4.641,0,0,0,0-6.563h0a4.641,4.641,0,0,0-6.563,0l-.887.888" fill="none" stroke="#323232" stroke-linecap="round" stroke-linejoin="round" stroke-width="1.5"/><path d="M14,10l-.953-.953a4,4,0,0,0-5.657,0L4.359,12.078a4.641,4.641,0,0,0,0,6.563h0a4.641,4.641,0,0,0,6.563,0l.887-.888" fill="none" stroke="#323232" stroke-linecap="round" stroke-linejoin="round" stroke-width="1.5"/><rect width="24" height="24" fill="none"/></svg>