<?xml version="1.0" encoding="utf-8"?>
<!-- Generator: Adobe Illustrator 24.0.2, SVG Export Plug-In . SVG Version: 6.00 Build 0)  -->
<svg version="1.1" id="icons" xmlns="http://www.w3.org/2000/svg" xmlns:xlink="http://www.w3.org/1999/xlink" x="0px" y="0px"
	 width="24px" height="24px" viewBox="0 0 24 24" style="enable-background:new 0 0 24 24;" xml:space="preserve">
<style type="text/css">
	.st0{fill:none;stroke:#323232;stroke-width:1.5;stroke-linecap:round;stroke-linejoin:round;stroke-miterlimit:10;}
	.st1{fill:none;}
</style>
<g>
	<g>
		<circle class="st0" cx="12" cy="12" r="9"/>
		<path class="st0" d="M11,13L11,13c1,1,2.6,1,3.5,0l1.6-1.6c0.8-0.8,0.8-2,0-2.8l-0.7-0.7c-0.8-0.8-2-0.8-2.8,0l0,0"/>
		<path class="st0" d="M13,11L13,11c-1-1-2.6-1-3.5,0l-1.6,1.6c-0.8,0.8-0.8,2,0,2.8l0.7,0.7c0.8,0.8,2,0.8,2.8,0l0,0"/>
	</g>
	<rect class="st1" width="24" height="24"/>
</g>
</svg>
