<?xml version="1.0" encoding="utf-8"?>
<!-- Generator: Adobe Illustrator 24.0.2, SVG Export Plug-In . SVG Version: 6.00 Build 0)  -->
<svg version="1.1" id="Layer_3" xmlns="http://www.w3.org/2000/svg" xmlns:xlink="http://www.w3.org/1999/xlink" x="0px" y="0px"
	 width="24px" height="24px" viewBox="0 0 24 24" enable-background="new 0 0 24 24" xml:space="preserve">
<g>
	<path fill="none" d="M24,24H0V0h24V24z"/>
	<g>
		
			<path fill="none" stroke="#323232" stroke-width="1.5" stroke-linecap="round" stroke-linejoin="round" stroke-miterlimit="10" d="
			M11.021,12.981L11.021,12.981c0.976,0.976,2.558,0.976,3.533,0l1.602-1.602c0.771-0.771,0.771-2.02,0-2.79l-0.742-0.742
			c-0.771-0.771-2.02-0.771-2.79,0l0,0"/>
		<path fill="none" stroke="#323232" stroke-width="1.5" stroke-linecap="round" stroke-linejoin="round" d="M3,19V6
			c0-1.657,1.343-3,3-3h12c1.657,0,3,1.343,3,3v12c0,1.657-1.343,3-3,3H5C3.895,21,3,20.105,3,19z"/>
		
			<path fill="none" stroke="#323232" stroke-width="1.5" stroke-linecap="round" stroke-linejoin="round" stroke-miterlimit="10" d="
			M12.979,11.019L12.979,11.019c-0.976-0.976-2.558-0.976-3.533,0l-1.602,1.602c-0.771,0.771-0.771,2.02,0,2.79l0.742,0.742
			c0.771,0.771,2.02,0.771,2.79,0l0,0"/>
	</g>
</g>
</svg>
