<?xml version="1.0" encoding="utf-8"?>
<!-- Generator: Adobe Illustrator 24.0.2, SVG Export Plug-In . SVG Version: 6.00 Build 0)  -->
<svg version="1.1" id="Layer_1" xmlns="http://www.w3.org/2000/svg" xmlns:xlink="http://www.w3.org/1999/xlink" x="0px" y="0px"
	 width="24px" height="24px" viewBox="0 0 24 24" style="enable-background:new 0 0 24 24;" xml:space="preserve">
<style type="text/css">
	.st0{fill:none;}
	.st1{fill:none;stroke:#323232;stroke-width:1.4894;stroke-linecap:round;stroke-linejoin:round;}
	.st2{fill:none;stroke:#323232;stroke-width:1.5;stroke-linecap:round;stroke-linejoin:round;stroke-miterlimit:10;}
</style>
<g>
	<rect x="0.3" y="0" class="st0" width="24" height="24"/>
	<g>
		<path class="st1" d="M18.1,5.6c4.4,4.4,3.3,12.2-3.4,14.8c-1.9,0.7-4,0.7-5.9,0C2.2,17.8,1,10,5.4,5.6C8.9,2.1,14.6,2.1,18.1,5.6"
			/>
	</g>
	<path class="st0" d="M-0.3,0h24v24h-24V0z"/>
	<g>
		<circle class="st2" cx="11.7" cy="7.2" r="1.5"/>
		<path class="st2" d="M11,18.2h1.6c0.6,0,1-0.4,1-1v-2l1-1.2c0.1-0.2,0.2-0.4,0.2-0.6v-1.7c0-0.6-0.4-1-1-1H9.8c-0.6,0-1,0.4-1,1
			v1.7c0,0.2,0.1,0.4,0.2,0.6l1,1.2v2C10,17.8,10.4,18.2,11,18.2z"/>
	</g>
</g>
</svg>
