<svg id="Layer_3" data-name="Layer 3" xmlns="http://www.w3.org/2000/svg" viewBox="0 0 24 24"><title>Artboard 189</title><path d="M3,6.5V17.858C3,19.24,5.063,20.431,8.052,21V9.642C5.063,9.072,3,7.881,3,6.5,3,4.567,7.029,3,12,3s9,1.567,9,3.5c0,1.387-2.079,2.582-5.087,3.148l.023,11.344h.053C18.956,20.42,21,19.234,21,17.858V6.5" fill="none" stroke="#323232" stroke-linecap="round" stroke-linejoin="round" stroke-width="1.5"/><path d="M15.936,14.715A21.239,21.239,0,0,0,12,14.358a21.186,21.186,0,0,0-3.948.359" fill="none" stroke="#323232" stroke-linecap="round" stroke-linejoin="round" stroke-width="1.5"/><rect width="24" height="24" fill="none"/></svg>