<svg id="Layer_3" data-name="Layer 3" xmlns="http://www.w3.org/2000/svg" viewBox="0 0 24 24"><title>Artboard 195</title><rect width="24" height="24" transform="translate(24 24) rotate(180)" fill="none"/><path d="M7,9.5V20c-2.411-.538-4-1.454-4-2.494,0-1.657,4.029-3,9-3s9,1.343,9,3c0,1.04-1.589,1.956-4,2.494V9.494C19.411,8.956,21,8.04,21,7c0-1.657-4.029-3-9-3S3,5.343,3,7C3,8.04,4.589,8.956,7,9.494" fill="none" stroke="#323232" stroke-linecap="round" stroke-linejoin="round" stroke-width="1.5"/><path d="M9.551,9.476a1.171,1.171,0,0,1,.122-.52h0a2.647,2.647,0,0,1,4.654,0h0a1.169,1.169,0,0,1,0,1.04h0a2.647,2.647,0,0,1-4.654,0h0A1.168,1.168,0,0,1,9.551,9.476Z" fill="none" stroke="#323232" stroke-linecap="round" stroke-linejoin="round" stroke-width="1.5"/><line x1="21" y1="7" x2="21" y2="17.506" fill="none" stroke="#323232" stroke-linecap="round" stroke-linejoin="round" stroke-width="1.5"/><line x1="3" y1="7" x2="3" y2="17.506" fill="none" stroke="#323232" stroke-linecap="round" stroke-linejoin="round" stroke-width="1.5"/><path d="M12,9.426a.05.05,0,1,0,.05.05.05.05,0,0,0-.05-.05" fill="none" stroke="#323232" stroke-linecap="round" stroke-linejoin="round" stroke-width="1.5"/></svg>