<svg id="Layer_3" data-name="Layer 3" xmlns="http://www.w3.org/2000/svg" viewBox="0 0 24 24"><title>Artboard 200</title><path id="a" d="M0,0H24V24H0Z" fill="none"/><path id="a-2" data-name="a" d="M0,0H24V24H0Z" fill="none"/><path d="M11.086,18h1.828a1.08,1.08,0,0,0,1.143-1.143V13.714L15.2,12.343a1.63,1.63,0,0,0,.229-.686V9.143A1.08,1.08,0,0,0,14.286,8H9.714A1.08,1.08,0,0,0,8.571,9.143v2.514a1.63,1.63,0,0,0,.229.686l1.143,1.371v3.143A1.08,1.08,0,0,0,11.086,18Z" fill="none" stroke="#323232" stroke-linecap="round" stroke-linejoin="round" stroke-width="1.5"/><circle cx="12" cy="3.714" r="1.714" fill="none" stroke="#323232" stroke-linecap="round" stroke-linejoin="round" stroke-width="1.5"/><line x1="21" y1="7.4" x2="21" y2="17.6" fill="none" stroke="#323232" stroke-linecap="round" stroke-linejoin="round" stroke-width="1.5"/><line x1="3" y1="17.6" x2="3" y2="7.4" fill="none" stroke="#323232" stroke-linecap="round" stroke-linejoin="round" stroke-width="1.5"/><path d="M21,7.4c0-1.661-3.154-3.041-7.321-3.339" fill="none" stroke="#323232" stroke-linecap="round" stroke-linejoin="round" stroke-width="1.5"/><path d="M10.321,4.061C6.154,4.359,3,5.739,3,7.4" fill="none" stroke="#323232" stroke-linecap="round" stroke-linejoin="round" stroke-width="1.5"/><path d="M9.943,14.293C5.965,14.645,3,15.99,3,17.6,3,19.478,7.029,21,12,21s9-1.522,9-3.4c0-1.61-2.965-2.955-6.943-3.307" fill="none" stroke="#323232" stroke-linecap="round" stroke-linejoin="round" stroke-width="1.5"/></svg>