<svg id="Layer_3" data-name="Layer 3" xmlns="http://www.w3.org/2000/svg" viewBox="0 0 24 24"><title>baby-boy</title><path d="M15.889,11.994a1.512,1.512,0,0,1-1.167.591,1.529,1.529,0,0,1-1.166-.591" fill="none" stroke="#323232" stroke-linecap="round" stroke-linejoin="round" stroke-width="1.5"/><path d="M10.444,11.994a1.512,1.512,0,0,1-1.166.591,1.53,1.53,0,0,1-1.167-.591" fill="none" stroke="#323232" stroke-linecap="round" stroke-linejoin="round" stroke-width="1.5"/><path d="M12,21.474a8.329,8.329,0,0,0,8.031-6.137,2.21,2.21,0,0,0,0-4.393,8.323,8.323,0,0,0-16.062,0,2.21,2.21,0,0,0,0,4.393A8.329,8.329,0,0,0,12,21.474Z" fill="none" stroke="#323232" stroke-linecap="round" stroke-linejoin="round" stroke-width="1.5"/><path d="M14.222,16.147a3.38,3.38,0,0,1-4.444,0" fill="none" stroke="#323232" stroke-linecap="round" stroke-linejoin="round" stroke-width="1.5"/><path d="M9.719,2.526A2.281,2.281,0,0,1,12,4.807" fill="none" stroke="#323232" stroke-linecap="round" stroke-linejoin="round" stroke-width="1.5"/><path d="M12,4.807a2.281,2.281,0,0,1,2.281-2.281" fill="none" stroke="#323232" stroke-linecap="round" stroke-linejoin="round" stroke-width="1.5"/><rect width="24" height="24" fill="none"/></svg>