<svg id="Layer_3" data-name="Layer 3" xmlns="http://www.w3.org/2000/svg" viewBox="0 0 24 24"><title>baby-girl</title><rect width="24" height="24" fill="none"/><path d="M15.889,11.99a1.512,1.512,0,0,1-1.167.591,1.529,1.529,0,0,1-1.166-.591" fill="none" stroke="#323232" stroke-linecap="round" stroke-linejoin="round" stroke-width="1.5"/><path d="M10.444,11.99a1.512,1.512,0,0,1-1.166.591,1.53,1.53,0,0,1-1.167-.591" fill="none" stroke="#323232" stroke-linecap="round" stroke-linejoin="round" stroke-width="1.5"/><path d="M14.222,16.144a3.38,3.38,0,0,1-4.444,0" fill="none" stroke="#323232" stroke-linecap="round" stroke-linejoin="round" stroke-width="1.5"/><path d="M13.828,4.748l1.623-1.512a2.094,2.094,0,0,1,3.18.383l.154.233A3.54,3.54,0,0,1,19.368,5.8h0a3.538,3.538,0,0,1-.583,1.947l-.155.233a2.092,2.092,0,0,1-3.179.384L13.828,6.851" fill="none" stroke="#323232" stroke-linecap="round" stroke-linejoin="round" stroke-width="1.5"/><path d="M10.172,6.85,8.549,8.362a2.094,2.094,0,0,1-3.18-.383l-.154-.233A3.538,3.538,0,0,1,4.632,5.8h0a3.54,3.54,0,0,1,.583-1.947l.155-.233a2.093,2.093,0,0,1,3.179-.384l1.623,1.512" fill="none" stroke="#323232" stroke-linecap="round" stroke-linejoin="round" stroke-width="1.5"/><ellipse cx="12" cy="5.799" rx="2.105" ry="2.126" fill="none" stroke="#323232" stroke-linecap="round" stroke-linejoin="round" stroke-width="1.5"/><path d="M12,21.47a8.329,8.329,0,0,0,8.031-6.137,2.21,2.21,0,0,0,0-4.393,8.312,8.312,0,0,0-1.451-2.9" fill="none" stroke="#323232" stroke-linecap="round" stroke-linejoin="round" stroke-width="1.5"/><path d="M12,21.47a8.329,8.329,0,0,1-8.031-6.137,2.21,2.21,0,0,1,0-4.393A8.312,8.312,0,0,1,5.42,8.04" fill="none" stroke="#323232" stroke-linecap="round" stroke-linejoin="round" stroke-width="1.5"/></svg>