<svg id="Layer_3" data-name="Layer 3" xmlns="http://www.w3.org/2000/svg" viewBox="0 0 24 24"><title>baby-child</title><path d="M15.889,10.853a1.509,1.509,0,0,1-1.167.591,1.525,1.525,0,0,1-1.166-.591" fill="none" stroke="#323232" stroke-linecap="round" stroke-linejoin="round" stroke-width="1.5"/><path d="M10.444,10.853a1.509,1.509,0,0,1-1.166.591,1.527,1.527,0,0,1-1.167-.591" fill="none" stroke="#323232" stroke-linecap="round" stroke-linejoin="round" stroke-width="1.5"/><path d="M12,20.333A8.33,8.33,0,0,0,20.031,14.2a2.21,2.21,0,0,0,0-4.394,8.324,8.324,0,0,0-16.062,0,2.21,2.21,0,0,0,0,4.394A8.33,8.33,0,0,0,12,20.333Z" fill="none" stroke="#323232" stroke-linecap="round" stroke-linejoin="round" stroke-width="1.5"/><path d="M14.222,15.007a3.38,3.38,0,0,1-4.444,0" fill="none" stroke="#323232" stroke-linecap="round" stroke-linejoin="round" stroke-width="1.5"/><path d="M10.889,7.191A1.9,1.9,0,0,0,12,7.556a1.945,1.945,0,0,0,0-3.889" fill="none" stroke="#323232" stroke-linecap="round" stroke-linejoin="round" stroke-width="1.5"/><rect width="24" height="24" fill="none"/></svg>