<svg id="Layer_3" data-name="Layer 3" xmlns="http://www.w3.org/2000/svg" viewBox="0 0 24 24"><title>backward-rearward-target</title><line x1="12" y1="5" x2="5" y2="5" fill="none" stroke="#323232" stroke-linecap="round" stroke-linejoin="round" stroke-width="1.5"/><path d="M12,5a8,8,0,1,1-8,8" fill="none" stroke="#323232" stroke-linecap="round" stroke-linejoin="round" stroke-width="1.5"/><polyline points="8 8 5 5 8 2" fill="none" stroke="#323232" stroke-linecap="round" stroke-linejoin="round" stroke-width="1.5"/><path d="M12,12.927a.073.073,0,1,0,.073.073A.073.073,0,0,0,12,12.927" fill="none" stroke="#323232" stroke-linecap="round" stroke-linejoin="round" stroke-width="1.5"/><path d="M15.556,12.927a.073.073,0,1,0,.073.073.073.073,0,0,0-.073-.073" fill="none" stroke="#323232" stroke-linecap="round" stroke-linejoin="round" stroke-width="1.5"/><path d="M8.445,12.927A.073.073,0,1,0,8.518,13a.073.073,0,0,0-.073-.073" fill="none" stroke="#323232" stroke-linecap="round" stroke-linejoin="round" stroke-width="1.5"/><path d="M11.928,9.445a.073.073,0,0,0,.145,0,.073.073,0,1,0-.145,0" fill="none" stroke="#323232" stroke-linecap="round" stroke-linejoin="round" stroke-width="1.5"/><path d="M11.928,16.556A.073.073,0,1,0,12,16.483a.072.072,0,0,0-.073.073" fill="none" stroke="#323232" stroke-linecap="round" stroke-linejoin="round" stroke-width="1.5"/><rect width="24" height="24" fill="none"/></svg>