<?xml version="1.0" encoding="utf-8"?>
<!-- Generator: Adobe Illustrator 24.0.2, SVG Export Plug-In . SVG Version: 6.00 Build 0)  -->
<svg version="1.1" id="Layer_3" xmlns="http://www.w3.org/2000/svg" xmlns:xlink="http://www.w3.org/1999/xlink" x="0px" y="0px"
	 width="24px" height="24px" viewBox="0 0 24 24" enable-background="new 0 0 24 24" xml:space="preserve">
<g>
	<g>
		<path fill="none" stroke="#323232" stroke-width="1.5" stroke-linecap="round" stroke-linejoin="round" d="M10,12.994l-2.5-2.5
			l2.5-2.5"/>
		<path fill="none" stroke="#323232" stroke-width="1.5" stroke-linecap="round" stroke-linejoin="round" d="M17,20.994H7
			c-2.209,0-4-1.791-4-4v-10c0-2.209,1.791-4,4-4h10c2.209,0,4,1.791,4,4v10C21,19.203,19.209,20.994,17,20.994z"/>
		<path fill="none" stroke="#323232" stroke-width="1.5" stroke-linecap="round" stroke-linejoin="round" d="M7.5,10.494h5.25
			c1.519,0,2.75,1.231,2.75,2.75v0c0,1.519-1.231,2.75-2.75,2.75H11.5"/>
	</g>
	<path fill="none" d="M0-0.006h24v24H0V-0.006z"/>
</g>
</svg>
