<svg id="Layer_3" data-name="Layer 3" xmlns="http://www.w3.org/2000/svg" viewBox="0 0 24 24"><title>bag-shopping-cross-delete</title><path d="M6,11V8.625a2,2,0,0,1,2-2H19a2,2,0,0,1,2,2V19a2,2,0,0,1-2,2H13" fill="none" stroke="#323232" stroke-linecap="round" stroke-linejoin="round" stroke-width="1.5"/><path d="M10,6.625v-.75a3.5,3.5,0,0,1,3.5-3.5h0a3.5,3.5,0,0,1,3.5,3.5v.75" fill="none" stroke="#323232" stroke-linecap="round" stroke-linejoin="round" stroke-width="1.5"/><circle cx="7" cy="17.5" r="4" fill="none" stroke="#323232" stroke-linecap="round" stroke-linejoin="round" stroke-width="1.5"/><line x1="8.061" y1="16.439" x2="5.939" y2="18.561" fill="none" stroke="#323232" stroke-linecap="round" stroke-linejoin="round" stroke-width="1.5"/><line x1="5.939" y1="16.439" x2="8.061" y2="18.561" fill="none" stroke="#323232" stroke-linecap="round" stroke-linejoin="round" stroke-width="1.5"/><path d="M0,0H24V24H0Z" fill="none"/></svg>