<svg id="Layer_3" data-name="Layer 3" xmlns="http://www.w3.org/2000/svg" viewBox="0 0 24 24"><title>bag-shopping-remove</title><path d="M6,11V8.625a2,2,0,0,1,2-2H19a2,2,0,0,1,2,2V19a2,2,0,0,1-2,2H13" fill="none" stroke="#323232" stroke-linecap="round" stroke-linejoin="round" stroke-width="1.5"/><circle cx="7" cy="17.625" r="4" fill="none" stroke="#323232" stroke-linecap="round" stroke-linejoin="round" stroke-width="1.5"/><path d="M13.5,2.375h0a3.5,3.5,0,0,1,3.5,3.5v.75a0,0,0,0,1,0,0H10a0,0,0,0,1,0,0v-.75A3.5,3.5,0,0,1,13.5,2.375Z" fill="none" stroke="#323232" stroke-linecap="round" stroke-linejoin="round" stroke-width="1.5"/><line x1="4.812" y1="19.813" x2="9.812" y2="14.813" fill="none" stroke="#323232" stroke-linecap="round" stroke-linejoin="round" stroke-width="1.5"/><rect width="24" height="24" fill="none"/></svg>