<svg id="Layer_3" data-name="Layer 3" xmlns="http://www.w3.org/2000/svg" viewBox="0 0 24 24"><title>bags-shopping</title><path d="M0,0H24V24H0Z" fill="none"/><path d="M6,21H5a2,2,0,0,1-2-2V8.625a2,2,0,0,1,2-2H16a2,2,0,0,1,2,2V9" fill="none" stroke="#323232" stroke-linecap="round" stroke-linejoin="round" stroke-width="1.5"/><path d="M10.714,12h9A1.285,1.285,0,0,1,21,13.286v6.429A1.285,1.285,0,0,1,19.714,21h-9a1.286,1.286,0,0,1-1.286-1.286V13.285A1.286,1.286,0,0,1,10.714,12Z" fill="none" stroke="#323232" stroke-linecap="round" stroke-linejoin="round" stroke-width="1.5"/><path d="M12.964,15a2.25,2.25,0,1,0,4.5,0" fill="none" stroke="#323232" stroke-linecap="round" stroke-linejoin="round" stroke-width="1.5"/><path d="M14,6.625v-.75a3.5,3.5,0,0,0-3.5-3.5h0A3.5,3.5,0,0,0,7,5.875v.75" fill="none" stroke="#323232" stroke-linecap="round" stroke-linejoin="round" stroke-width="1.5"/></svg>