<svg id="Layer_3" data-name="Layer 3" xmlns="http://www.w3.org/2000/svg" viewBox="0 0 24 24"><title>bandage-eraser-edit</title><path d="M19.451,4.549h0a5.29,5.29,0,0,0-7.48,0L4.549,11.971a5.29,5.29,0,0,0,0,7.48h0a5.29,5.29,0,0,0,7.48,0l7.422-7.422A5.29,5.29,0,0,0,19.451,4.549Z" fill="none" stroke="#323232" stroke-linecap="round" stroke-linejoin="round" stroke-width="1.5"/><line x1="4.549" y1="11.971" x2="12.029" y2="19.451" fill="none" stroke="#323232" stroke-linecap="round" stroke-linejoin="round" stroke-width="1.5"/><line x1="19.451" y1="12.029" x2="11.971" y2="4.549" fill="none" stroke="#323232" stroke-linecap="round" stroke-linejoin="round" stroke-width="1.5"/><path d="M14.459,11.959A.041.041,0,1,0,14.5,12a.041.041,0,0,0-.041-.041" fill="none" stroke="#323232" stroke-linecap="round" stroke-linejoin="round" stroke-width="1.5"/><path d="M12,11.959a.041.041,0,1,0,.041.041A.041.041,0,0,0,12,11.959" fill="none" stroke="#323232" stroke-linecap="round" stroke-linejoin="round" stroke-width="1.5"/><path d="M9.541,11.959A.041.041,0,1,0,9.582,12a.041.041,0,0,0-.041-.041" fill="none" stroke="#323232" stroke-linecap="round" stroke-linejoin="round" stroke-width="1.5"/><path d="M11.959,9.541A.041.041,0,1,0,12,9.5a.041.041,0,0,0-.041.041" fill="none" stroke="#323232" stroke-linecap="round" stroke-linejoin="round" stroke-width="1.5"/><path d="M11.959,14.459A.041.041,0,1,0,12,14.418a.041.041,0,0,0-.041.041" fill="none" stroke="#323232" stroke-linecap="round" stroke-linejoin="round" stroke-width="1.5"/><path d="M0,0H24V24H0Z" fill="none"/></svg>