<svg id="Layer_3" data-name="Layer 3" xmlns="http://www.w3.org/2000/svg" viewBox="0 0 24 24"><title>bank-protection-shield</title><path d="M0,0H24V24H0Z" fill="none"/><path d="M15.643,9v8" fill="none" stroke="#323232" stroke-linecap="round" stroke-linejoin="round" stroke-width="1.5"/><path d="M20,17V9" fill="none" stroke="#323232" stroke-linecap="round" stroke-linejoin="round" stroke-width="1.5"/><path d="M12,20H22V19l-1-2H13" fill="none" stroke="#323232" stroke-linecap="round" stroke-linejoin="round" stroke-width="1.5"/><path d="M3,16.61709V14.723a.88885.88885,0,0,1,.62219-.84885l2.66655-.83286a.88266.88266,0,0,1,.53331,0l2.66655.83286a.88882.88882,0,0,1,.62219.84885v1.89414a4.44424,4.44424,0,0,1-2.88342,4.16159l-.51553.19288a.44449.44449,0,0,1-.31288,0l-.51553-.19288A4.44426,4.44426,0,0,1,3,16.61709Z" fill="none" stroke="#323232" stroke-linecap="round" stroke-linejoin="round" stroke-width="1.5"/><polygon points="4 9 22 9 22 5.928 13 2 4 5.928 4 9" fill="none" stroke="#323232" stroke-linecap="round" stroke-linejoin="round" stroke-width="1.5"/></svg>