<?xml version="1.0" encoding="utf-8"?>
<!-- Generator: Adobe Illustrator 24.0.2, SVG Export Plug-In . SVG Version: 6.00 Build 0)  -->
<svg version="1.1" id="Layer_1" xmlns="http://www.w3.org/2000/svg" xmlns:xlink="http://www.w3.org/1999/xlink" x="0px" y="0px"
	 width="24px" height="24px" viewBox="0 0 24 24" enable-background="new 0 0 24 24" xml:space="preserve">
<g>
	<path fill="none" d="M0,0h24v24H0V0z"/>
	<g>
		<path fill="none" stroke="#323232" stroke-width="1.5" stroke-linecap="round" stroke-linejoin="round" d="M15.643,8.934V17"/>
		<path fill="none" stroke="#323232" stroke-width="1.5" stroke-linecap="round" stroke-linejoin="round" d="M20,17V8.934"/>
		<path fill="none" stroke="#323232" stroke-width="1.5" stroke-linecap="round" stroke-linejoin="round" d="M14,20h8v-1l-1-2h-7"/>
		<g>
			<polygon fill="none" stroke="#323232" stroke-width="1.5" stroke-linecap="round" stroke-linejoin="round" points="4,8.934 
				22,8.934 22,5.928 13,2 4,5.928 			"/>
		</g>
		<g>
			<g>
				<g>
					<path fill="none" stroke="#323232" stroke-width="1.5" stroke-linecap="round" stroke-linejoin="round" d="M3.914,20.414
						l-1.328-1.328C2.211,18.711,2,18.202,2,17.672v-2.343c0-0.53,0.211-1.039,0.586-1.414l1.328-1.328
						C4.289,12.211,4.798,12,5.328,12h2.343c0.53,0,1.039,0.211,1.414,0.586l1.329,1.329C10.789,14.29,11,14.798,11,15.329v2.342
						c0,0.53-0.211,1.039-0.586,1.414l-1.329,1.329C8.711,20.789,8.202,21,7.671,21H5.328C4.798,21,4.289,20.789,3.914,20.414z"/>
				</g>
			</g>
		</g>
		<path fill="none" stroke="#323232" stroke-width="1.5" stroke-linecap="round" stroke-linejoin="round" d="M6.501,16.323v-1.754"
			/>
		<path fill="none" stroke="#323232" stroke-width="1.5" stroke-linecap="round" stroke-linejoin="round" d="M6.5,18.257
			c-0.048,0-0.087,0.039-0.086,0.087c0,0.048,0.039,0.087,0.087,0.087s0.086-0.039,0.086-0.087S6.548,18.257,6.5,18.257"/>
	</g>
</g>
</svg>
