<?xml version="1.0" encoding="utf-8"?>
<!-- Generator: Adobe Illustrator 24.0.2, SVG Export Plug-In . SVG Version: 6.00 Build 0)  -->
<svg version="1.1" id="Layer_3" xmlns="http://www.w3.org/2000/svg" xmlns:xlink="http://www.w3.org/1999/xlink" x="0px" y="0px"
	 width="24px" height="24px" viewBox="0 0 24 24" enable-background="new 0 0 24 24" xml:space="preserve">
<g>
	<path fill="none" d="M0,0h24v24H0V0z"/>
	<g>
		<path fill="none" stroke="#323232" stroke-width="1.5" stroke-linecap="round" stroke-linejoin="round" d="M7.901,15.8
			l-1.75,1.751l-1.05-1.05"/>
		<path fill="none" stroke="#323232" stroke-width="1.5" stroke-linecap="round" stroke-linejoin="round" d="M2.248,17.232
			l0.598,0.782l0.129,0.973c0.072,0.54,0.496,0.965,1.036,1.037l0.976,0.13l0.781,0.597c0.432,0.33,1.032,0.331,1.465,0l0.782-0.597
			H8.013l0.974-0.129c0.54-0.072,0.965-0.496,1.037-1.036l0.13-0.976c0,0,0.302-0.395,0.598-0.781c0.33-0.432,0.33-1.032,0-1.464
			l-0.598-0.782l-0.129-0.973c-0.072-0.54-0.496-0.965-1.036-1.037l-0.976-0.13l-0.781-0.597c-0.432-0.33-1.032-0.331-1.465,0
			l-0.782,0.597h0.001l-0.974,0.129c-0.54,0.072-0.965,0.496-1.037,1.036l-0.13,0.976c0,0-0.302,0.395-0.598,0.781
			C1.917,16.2,1.917,16.8,2.248,17.232z"/>
		<path fill="none" stroke="#323232" stroke-width="1.5" stroke-linecap="round" stroke-linejoin="round" d="M15.643,8.934V17"/>
		<path fill="none" stroke="#323232" stroke-width="1.5" stroke-linecap="round" stroke-linejoin="round" d="M20,17V8.934"/>
		<path fill="none" stroke="#323232" stroke-width="1.5" stroke-linecap="round" stroke-linejoin="round" d="M14,20h8v-1l-1-2h-7"/>
		<g>
			<polygon fill="none" stroke="#323232" stroke-width="1.5" stroke-linecap="round" stroke-linejoin="round" points="4,8.934 
				22,8.934 22,5.928 13,2 4,5.928 			"/>
		</g>
	</g>
</g>
</svg>
