<svg id="Layer_3" data-name="Layer 3" xmlns="http://www.w3.org/2000/svg" viewBox="0 0 24 24"><title>bank-customer</title><path d="M0,0H24V24H0Z" fill="none"/><path d="M15.643,9v8" fill="none" stroke="#323232" stroke-linecap="round" stroke-linejoin="round" stroke-width="1.5"/><path d="M20,17V9" fill="none" stroke="#323232" stroke-linecap="round" stroke-linejoin="round" stroke-width="1.5"/><path d="M14,20h8V19l-1-2H12" fill="none" stroke="#323232" stroke-linecap="round" stroke-linejoin="round" stroke-width="1.5"/><path d="M9.632,21H3.474A.474.474,0,0,1,3,20.526v-.384a1.989,1.989,0,0,1,1.984-1.984H8.121a1.989,1.989,0,0,1,1.984,1.984v.384A.474.474,0,0,1,9.632,21Z" fill="none" stroke="#323232" stroke-linecap="round" stroke-linejoin="round" stroke-width="1.5"/><path d="M6.553,15.789a1.895,1.895,0,1,1,.007,0Z" fill="none" stroke="#323232" stroke-linecap="round" stroke-linejoin="round" stroke-width="1.5"/><polygon points="4 9 22 9 22 5.928 13 2 4 5.928 4 9" fill="none" stroke="#323232" stroke-linecap="round" stroke-linejoin="round" stroke-width="1.5"/></svg>