<?xml version="1.0" encoding="utf-8"?>
<!-- Generator: Adobe Illustrator 24.0.2, SVG Export Plug-In . SVG Version: 6.00 Build 0)  -->
<svg version="1.1" id="Layer_1" xmlns="http://www.w3.org/2000/svg" xmlns:xlink="http://www.w3.org/1999/xlink" x="0px" y="0px"
	 width="24px" height="24px" viewBox="0 0 24 24" style="enable-background:new 0 0 24 24;" xml:space="preserve">
<style type="text/css">
	.st0{fill:none;}
	.st1{fill:none;stroke:#323232;stroke-width:1.5;stroke-linecap:round;stroke-linejoin:round;}
	.st2{fill:none;stroke:#323232;stroke-width:1.5242;stroke-linecap:round;stroke-linejoin:round;}
</style>
<g>
	<path class="st0" d="M0,0h24v24H0V0z"/>
	<path class="st1" d="M14.6,9v8"/>
	<path class="st1" d="M19,17V9"/>
	<path class="st2" d="M4.6,12h2.5c0.9,0,1.6,0.7,1.6,1.6v5.7C8.7,20.3,8,21,7.1,21H4.6C3.7,21,3,20.3,3,19.4v-5.7
		C3,12.7,3.7,12,4.6,12z"/>
	<path class="st2" d="M5.9,18.7C5.9,18.7,5.9,18.8,5.9,18.7C5.9,18.8,5.8,18.8,5.9,18.7C5.8,18.8,5.8,18.7,5.9,18.7
		C5.8,18.7,5.9,18.7,5.9,18.7"/>
	<path class="st1" d="M12,20h9v-1l-1-2h-8"/>
	<polyline class="st1" points="21,5.9 12.2,2 3,6 3,9 21,9 21,5.9 	"/>
</g>
</svg>
