<svg id="Layer_3" data-name="Layer 3" xmlns="http://www.w3.org/2000/svg" viewBox="0 0 24 24"><title>bank-more-setting-dots</title><path d="M0,0H24V24H0Z" fill="none"/><path d="M15.643,9v8" fill="none" stroke="#323232" stroke-linecap="round" stroke-linejoin="round" stroke-width="1.5"/><path d="M20,17V9" fill="none" stroke="#323232" stroke-linecap="round" stroke-linejoin="round" stroke-width="1.5"/><path d="M14,20h8V19l-1-2H14" fill="none" stroke="#323232" stroke-linecap="round" stroke-linejoin="round" stroke-width="1.5"/><polygon points="4 9 22 9 22 5.928 13 2 4 5.928 4 9" fill="none" stroke="#323232" stroke-linecap="round" stroke-linejoin="round" stroke-width="1.5"/><path d="M6.5,12A4.5,4.5,0,1,1,2,16.5,4.5,4.5,0,0,1,6.5,12" fill="none" stroke="#323232" stroke-linecap="round" stroke-linejoin="round" stroke-width="1.5"/><path d="M7.722,16.45a.05.05,0,1,0,.05.05.05.05,0,0,0-.05-.05" fill="none" stroke="#323232" stroke-linecap="round" stroke-linejoin="round" stroke-width="1.5"/><path d="M5.277,16.45a.049.049,0,0,0-.049.049h0a.05.05,0,1,0,.05-.05" fill="none" stroke="#323232" stroke-linecap="round" stroke-linejoin="round" stroke-width="1.5"/></svg>