<?xml version="1.0" encoding="utf-8"?>
<!-- Generator: Adobe Illustrator 24.0.2, SVG Export Plug-In . SVG Version: 6.00 Build 0)  -->
<svg version="1.1" id="Layer_1" xmlns="http://www.w3.org/2000/svg" xmlns:xlink="http://www.w3.org/1999/xlink" x="0px" y="0px"
	 width="24px" height="24px" viewBox="0 0 24 24" enable-background="new 0 0 24 24" xml:space="preserve">
<g>
	<g>
		<path fill="none" stroke="#323232" stroke-width="1.5" stroke-linecap="round" stroke-linejoin="round" d="M13,6H3V4.4L8,2l5,2.4
			V6z"/>
		<path fill="none" stroke="#323232" stroke-width="1.5" stroke-linecap="round" stroke-linejoin="round" d="M3,12h7"/>
		<path fill="none" stroke="#323232" stroke-width="1.5" stroke-linecap="round" stroke-linejoin="round" d="M13,6H3V4.4L8,2l5,2.4
			V6z"/>
		<path fill="none" stroke="#323232" stroke-width="1.5" stroke-linecap="round" stroke-linejoin="round" d="M3,12h7"/>
		<path fill="none" stroke="#323232" stroke-width="1.5" stroke-linecap="round" stroke-linejoin="round" d="M4,12V6"/>
		<path fill="none" stroke="#323232" stroke-width="1.5" stroke-linecap="round" stroke-linejoin="round" d="M7,12V6"/>
		<path fill="none" stroke="#323232" stroke-width="1.5" stroke-linecap="round" stroke-linejoin="round" d="M10,12V6"/>
		<path fill="none" stroke="#323232" stroke-width="1.5" stroke-linecap="round" stroke-linejoin="round" d="M18.902,16.801
			l-1.75,1.751l-1.05-1.05"/>
		<path fill="none" stroke="#323232" stroke-width="1.5" stroke-linecap="round" stroke-linejoin="round" d="M13.249,18.233
			l0.598,0.782l0.129,0.973c0.072,0.54,0.496,0.965,1.036,1.037l0.976,0.13l0.781,0.597c0.432,0.33,1.032,0.331,1.465,0l0.782-0.597
			h-0.002l0.974-0.129c0.54-0.072,0.965-0.496,1.037-1.036l0.13-0.976c0,0,0.302-0.395,0.598-0.781c0.33-0.432,0.33-1.032,0-1.464
			l-0.598-0.782l-0.129-0.973c-0.072-0.54-0.496-0.965-1.036-1.037l-0.976-0.13l-0.781-0.597c-0.432-0.33-1.032-0.331-1.465,0
			l-0.782,0.597h0.001l-0.974,0.129c-0.54,0.072-0.965,0.496-1.037,1.036l-0.13,0.976c0,0-0.302,0.395-0.598,0.781
			C12.918,17.201,12.918,17.801,13.249,18.233z"/>
		<path fill="none" stroke="#323232" stroke-width="1.5" stroke-linecap="round" stroke-linejoin="round" d="M9,21H4.714
			C3.768,21,3,20.232,3,19.286V16"/>
		<path fill="none" stroke="#323232" stroke-width="1.5" stroke-linecap="round" stroke-linejoin="round" d="M16,4h3.286
			C20.232,4,21,4.768,21,5.714V9"/>
	</g>
	<path fill="none" d="M0,0h24v24H0V0z"/>
</g>
</svg>
