<svg id="Layer_3" data-name="Layer 3" xmlns="http://www.w3.org/2000/svg" viewBox="0 0 24 24"><title>bank-thumbs-up-like</title><path d="M3.941,19.984H2.559A.559.559,0,0,1,2,19.425V15.043a.559.559,0,0,1,.559-.559H3.941a.569.569,0,0,1,.559.6v4.382A.552.552,0,0,1,3.941,19.984Z" fill="none" stroke="#323232" stroke-linecap="round" stroke-linejoin="round" stroke-width="1.5"/><path d="M4.5,18.8l1.082.9a1.251,1.251,0,0,0,.8.288H9.963a1.008,1.008,0,0,0,.968-.73l.732-2.562a1.374,1.374,0,0,0-.177-1.139,1.354,1.354,0,0,0-1.128-.606H8.848" fill="none" stroke="#323232" stroke-linecap="round" stroke-linejoin="round" stroke-width="1.5"/><path d="M8.848,14.947V13.352a1.35,1.35,0,0,0-2.5-.7L4.5,15.669" fill="none" stroke="#323232" stroke-linecap="round" stroke-linejoin="round" stroke-width="1.5"/><path d="M15.643,8.934V17" fill="none" stroke="#323232" stroke-linecap="round" stroke-linejoin="round" stroke-width="1.5"/><path d="M20,17V8.934" fill="none" stroke="#323232" stroke-linecap="round" stroke-linejoin="round" stroke-width="1.5"/><path d="M14,20h8V19l-1-2H15" fill="none" stroke="#323232" stroke-linecap="round" stroke-linejoin="round" stroke-width="1.5"/><polygon points="4 8.934 22 8.934 22 5.928 13 2 4 5.928 4 8.934" fill="none" stroke="#323232" stroke-linecap="round" stroke-linejoin="round" stroke-width="1.5"/><path d="M0,0H24V24H0Z" fill="none"/></svg>