<svg id="Layer_3" data-name="Layer 3" xmlns="http://www.w3.org/2000/svg" viewBox="0 0 24 24"><title>bank-building</title><path d="M12,7.221a.124.124,0,0,0-.124.125.125.125,0,1,0,.25,0A.127.127,0,0,0,12,7.221" fill="none" stroke="#323232" stroke-linecap="round" stroke-linejoin="round" stroke-width="1.5"/><path d="M20.972,10.333H3.028A.527.527,0,0,1,2.5,9.806V7.83a1,1,0,0,1,.684-.948l8.482-2.828a1.06,1.06,0,0,1,.668,0l8.482,2.828a1,1,0,0,1,.684.948V9.806A.527.527,0,0,1,20.972,10.333Z" fill="none" stroke="#323232" stroke-linecap="round" stroke-linejoin="round" stroke-width="1.5"/><path d="M4,18V10.333" fill="none" stroke="#323232" stroke-linecap="round" stroke-linejoin="round" stroke-width="1.5"/><path d="M20,10.333V18" fill="none" stroke="#323232" stroke-linecap="round" stroke-linejoin="round" stroke-width="1.5"/><path d="M8,10.333V18" fill="none" stroke="#323232" stroke-linecap="round" stroke-linejoin="round" stroke-width="1.5"/><path d="M12,10.333V18" fill="none" stroke="#323232" stroke-linecap="round" stroke-linejoin="round" stroke-width="1.5"/><path d="M16,10.333V18" fill="none" stroke="#323232" stroke-linecap="round" stroke-linejoin="round" stroke-width="1.5"/><path d="M20.382,18H3.618a1,1,0,0,0-.894.553l-.618,1.236A.993.993,0,0,0,2,20.236V21H22v-.764a.993.993,0,0,0-.106-.447l-.618-1.236A1,1,0,0,0,20.382,18Z" fill="none" stroke="#323232" stroke-linecap="round" stroke-linejoin="round" stroke-width="1.5"/><rect width="24" height="24" fill="none"/><line x1="23" y1="21" x2="1" y2="21" fill="none" stroke="#323232" stroke-linecap="round" stroke-linejoin="round" stroke-width="1.5"/></svg>