<svg id="Layer_3" data-name="Layer 3" xmlns="http://www.w3.org/2000/svg" viewBox="0 0 24 24"><title>bank-certificate-checkmark</title><path d="M8.357,17V8.934" fill="none" stroke="#323232" stroke-linecap="round" stroke-linejoin="round" stroke-width="1.5"/><path d="M4,8.934V17" fill="none" stroke="#323232" stroke-linecap="round" stroke-linejoin="round" stroke-width="1.5"/><path d="M9,17H3L2,19v1h8" fill="none" stroke="#323232" stroke-linecap="round" stroke-linejoin="round" stroke-width="1.5"/><path d="M13.083,19.768l-.144-1.086h0l-.665-.87a1.337,1.337,0,0,1,0-1.623l.665-.869v0l.145-1.086a1.337,1.337,0,0,1,1.148-1.148l1.085-.144h0l.87-.665a1.337,1.337,0,0,1,1.623,0l.87.665h0l1.086.145a1.338,1.338,0,0,1,1.148,1.148l.144,1.085v0l.665.869a1.337,1.337,0,0,1,0,1.623l-.665.87h0l-.145,1.086a1.338,1.338,0,0,1-1.148,1.149l-1.085.143h0l-.87.666a1.34,1.34,0,0,1-1.623,0l-.87-.666h0l-1.086-.145A1.335,1.335,0,0,1,13.083,19.768Z" fill="none" stroke="#323232" stroke-linecap="round" stroke-linejoin="round" stroke-width="1.5"/><path d="M18.556,16.223l-1.945,1.945L15.444,17" fill="none" stroke="#323232" stroke-linecap="round" stroke-linejoin="round" stroke-width="1.5"/><polygon points="20 5.928 11 2 2 5.928 2 8.934 20 8.934 20 5.928" fill="none" stroke="#323232" stroke-linecap="round" stroke-linejoin="round" stroke-width="1.5"/><path d="M0,0H24V24H0Z" fill="none"/></svg>