<svg id="Layer_3" data-name="Layer 3" xmlns="http://www.w3.org/2000/svg" viewBox="0 0 24 24"><rect width="24" height="24" fill="none"/><line x1="16.75003" y1="19.5" x2="9" y2="19.5" fill="none" stroke="#323232" stroke-linecap="round" stroke-linejoin="round" stroke-width="1.5"/><line x1="8.78612" y1="15.64164" x2="7.97377" y2="18.07868" fill="none" stroke="#323232" stroke-linecap="round" stroke-linejoin="round" stroke-width="1.5"/><circle cx="7.5" cy="19.5" r="1.5" fill="none" stroke="#323232" stroke-linecap="round" stroke-linejoin="round" stroke-width="1.5"/><line x1="15.24511" y1="15.63028" x2="17.33337" y2="21" fill="none" stroke="#323232" stroke-linecap="round" stroke-linejoin="round" stroke-width="1.5"/><path d="M5,8H19a1,1,0,0,1,1,1V9a6,6,0,0,1-6,6H10A6,6,0,0,1,4,9V9A1,1,0,0,1,5,8Z" fill="none" stroke="#323232" stroke-linecap="round" stroke-linejoin="round" stroke-width="1.5"/><path d="M8.25,5a1.25,1.25,0,0,1,0-1.5,1.25,1.25,0,0,0,0-1.5" fill="none" stroke="#323232" stroke-linecap="round" stroke-linejoin="round" stroke-width="1.5"/><path d="M15.75,5a1.25,1.25,0,0,1,0-1.5,1.25,1.25,0,0,0,0-1.5" fill="none" stroke="#323232" stroke-linecap="round" stroke-linejoin="round" stroke-width="1.5"/><path d="M12,5a1.25,1.25,0,0,1,0-1.5A1.25,1.25,0,0,0,12,2" fill="none" stroke="#323232" stroke-linecap="round" stroke-linejoin="round" stroke-width="1.5"/></svg>