<?xml version="1.0" encoding="utf-8"?>
<!-- Generator: Adobe Illustrator 24.0.2, SVG Export Plug-In . SVG Version: 6.00 Build 0)  -->
<svg version="1.1" id="Layer_1" xmlns="http://www.w3.org/2000/svg" xmlns:xlink="http://www.w3.org/1999/xlink" x="0px" y="0px"
	 width="24px" height="24px" viewBox="0 0 24 24" enable-background="new 0 0 24 24" xml:space="preserve">
<g>
	<g>
		<path fill="none" d="M24,24H0V0h24V24z"/>
	</g>
	<g>
		<path fill="none" stroke="#323232" stroke-width="1.5" stroke-linecap="round" stroke-linejoin="round" d="M11.863,8.523
			l-2.955,2.955L7.137,9.704"/>
		<g>
			<path fill="none" stroke="#323232" stroke-width="1.5" stroke-linecap="round" stroke-linejoin="round" d="M20,10V7
				c0-2.209-1.791-4-4-4H7C4.791,3,3,4.791,3,7v6c0,2.209,1.791,4,4,4h4"/>
		</g>
		<path fill="none" stroke="#323232" stroke-width="1.5" stroke-linecap="round" stroke-linejoin="round" d="M14.56,14.509H21
			l-0.704,3.522h-5.031L14.258,13H13"/>
		<path fill="none" stroke="#323232" stroke-width="1.5" stroke-linecap="round" stroke-linejoin="round" d="M19.828,20.413
			c0.02,0.02,0.02,0.051,0,0.071c-0.02,0.02-0.051,0.02-0.071,0s-0.02-0.051,0-0.071C19.776,20.393,19.809,20.393,19.828,20.413"/>
		<path fill="none" stroke="#323232" stroke-width="1.5" stroke-linecap="round" stroke-linejoin="round" d="M15.803,20.413
			c0.02,0.02,0.02,0.051,0,0.071c-0.02,0.02-0.051,0.02-0.071,0c-0.02-0.02-0.02-0.051,0-0.071
			C15.751,20.393,15.783,20.393,15.803,20.413"/>
	</g>
</g>
</svg>
