<svg id="Layer_3" data-name="Layer 3" xmlns="http://www.w3.org/2000/svg" viewBox="0 0 24 24"><title>basket-refund</title><path d="M24,24H0V0H24Z" fill="none"/><path d="M16,21.5l-2-2,2-2" fill="none" stroke="#323232" stroke-linecap="round" stroke-linejoin="round" stroke-width="1.5"/><path d="M20,19.5H14" fill="none" stroke="#323232" stroke-linecap="round" stroke-linejoin="round" stroke-width="1.5"/><path d="M20.058,15.5A9,9,0,1,0,10,20.274" fill="none" stroke="#323232" stroke-linecap="round" stroke-linejoin="round" stroke-width="1.5"/><path d="M13.994,14.5H10.005a1,1,0,0,1-.965-.737l-.5-1.851A1,1,0,0,1,9.5,10.65h5a1,1,0,0,1,.965,1.263l-.505,1.851A1,1,0,0,1,13.994,14.5Z" fill="none" stroke="#323232" stroke-linecap="round" stroke-linejoin="round" stroke-width="1.5"/><path d="M9.136,10.725l2.051-2.813a1,1,0,0,1,1.615,0l2.058,2.814" fill="none" stroke="#323232" stroke-linecap="round" stroke-linejoin="round" stroke-width="1.5"/></svg>