<?xml version="1.0" encoding="utf-8"?>
<!-- Generator: Adobe Illustrator 24.0.2, SVG Export Plug-In . SVG Version: 6.00 Build 0)  -->
<svg version="1.1" id="Layer_3" xmlns="http://www.w3.org/2000/svg" xmlns:xlink="http://www.w3.org/1999/xlink" x="0px" y="0px"
	 width="24px" height="24px" viewBox="0 0 24 24" enable-background="new 0 0 24 24" xml:space="preserve">
<g>
	<path fill="none" d="M0,0h24v24H0V0z"/>
	<path fill="none" stroke="#323232" stroke-width="1.5" stroke-linecap="round" stroke-linejoin="round" d="M19,9
		c-2.209,0-4-1.791-4-4s1.791-4,4-4c2.21,0,4,1.791,4,4S21.21,9,19,9"/>
	<path fill="none" stroke="#323232" stroke-width="1.5" stroke-linecap="round" stroke-linejoin="round" d="M20.778,4.111
		l-2.222,2.222L17.222,5"/>
	<path fill="none" stroke="#323232" stroke-width="1.5" stroke-linecap="round" stroke-linejoin="round" d="M15.126,4H7
		C4.791,4,3,5.791,3,8v9c0,2.209,1.791,4,4,4h9c2.209,0,4-1.791,4-4V8.874"/>
	<g>
		<path fill="none" stroke="#323232" stroke-width="1.5" stroke-linecap="round" stroke-linejoin="round" d="M8.575,11h6.4l-0.7,3.5
			h-5l-1-5h-1.25"/>
		<path fill="none" stroke="#323232" stroke-width="1.5" stroke-linecap="round" stroke-linejoin="round" d="M13.81,16.965
			c0.02,0.02,0.02,0.051,0,0.071c-0.02,0.02-0.051,0.02-0.071,0c-0.02-0.02-0.02-0.051,0-0.071
			C13.759,16.945,13.791,16.945,13.81,16.965"/>
		<path fill="none" stroke="#323232" stroke-width="1.5" stroke-linecap="round" stroke-linejoin="round" d="M9.81,16.965
			c0.02,0.02,0.02,0.051,0,0.071c-0.02,0.02-0.051,0.02-0.071,0c-0.02-0.02-0.02-0.051,0-0.071
			C9.759,16.945,9.791,16.945,9.81,16.965"/>
	</g>
</g>
</svg>
