<svg id="Layer_3" data-name="Layer 3" xmlns="http://www.w3.org/2000/svg" viewBox="0 0 24 24"><title>basket-favorite-star-circle</title><path d="M21,12a9,9,0,1,1-9-9" fill="none" stroke="#323232" stroke-linecap="round" stroke-linejoin="round" stroke-width="1.5"/><path d="M21,12a9,9,0,1,1-9-9" fill="none" stroke="#323232" stroke-linecap="round" stroke-linejoin="round" stroke-width="1.5"/><path d="M14,15.5h-3.99a1,1,0,0,1-.965-.737l-.5-1.851A1,1,0,0,1,9.5,11.649h5a1,1,0,0,1,.965,1.263l-.5,1.851A1,1,0,0,1,14,15.5Z" fill="none" stroke="#323232" stroke-linecap="round" stroke-linejoin="round" stroke-width="1.5"/><path d="M9.137,11.724l2.051-2.813a1,1,0,0,1,1.615,0l2.057,2.813" fill="none" stroke="#323232" stroke-linecap="round" stroke-linejoin="round" stroke-width="1.5"/><path d="M18.34,2.392a.751.751,0,0,1,1.02-.3.759.759,0,0,1,.3.3l.583,1.065a.741.741,0,0,0,.3.3l1.064.583a.752.752,0,0,1,0,1.321l-1.064.583a.747.747,0,0,0-.3.3L19.66,7.608a.752.752,0,0,1-1.32,0l-.583-1.065a.747.747,0,0,0-.3-.3l-1.064-.582a.751.751,0,0,1-.3-1.02.74.74,0,0,1,.3-.3l1.064-.583a.741.741,0,0,0,.3-.3Z" fill="none" stroke="#323232" stroke-linecap="round" stroke-linejoin="round" stroke-width="1.5"/><path d="M0,0H24V24H0Z" fill="none"/></svg>