<svg id="Layer_3" data-name="Layer 3" xmlns="http://www.w3.org/2000/svg" viewBox="0 0 24 24"><path d="M17,21a4,4,0,1,1,4-4,4.00018,4.00018,0,0,1-4,4" fill="none" stroke="#323232" stroke-linecap="round" stroke-linejoin="round" stroke-width="1.5"/><path d="M18.08622,16.95556A.04445.04445,0,1,0,18.13067,17h0a.04444.04444,0,0,0-.04445-.04444" fill="none" stroke="#323232" stroke-linecap="round" stroke-linejoin="round" stroke-width="1.5"/><path d="M15.91289,16.95556a.04355.04355,0,0,0-.04356.04355h0a.04445.04445,0,1,0,.04445-.04444h0" fill="none" stroke="#323232" stroke-linecap="round" stroke-linejoin="round" stroke-width="1.5"/><path d="M16.99982,9h-.001L12.28333,3.58856a1.70236,1.70236,0,0,0-2.5757.001C8.12036,5.41969,6.34312,7.48418,5.00079,9h0" fill="none" stroke="#323232" stroke-linecap="round" stroke-linejoin="round" stroke-width="1.5"/><path d="M18.40184,13.25281l.53321-1.95582A1.81871,1.81871,0,0,0,17.18111,9H4.81921a1.81823,1.81823,0,0,0-1.75394,2.297L4.8008,17.66026A1.81826,1.81826,0,0,0,6.55474,19H13.536" fill="none" stroke="#323232" stroke-linecap="round" stroke-linejoin="round" stroke-width="1.5"/><path d="M0,0H24V24H0Z" fill="none"/></svg>