<?xml version="1.0" encoding="utf-8"?>
<!-- Generator: Adobe Illustrator 24.0.2, SVG Export Plug-In . SVG Version: 6.00 Build 0)  -->
<svg version="1.1" id="Layer_3" xmlns="http://www.w3.org/2000/svg" xmlns:xlink="http://www.w3.org/1999/xlink" x="0px" y="0px"
	 width="24px" height="24px" viewBox="0 0 24 24" enable-background="new 0 0 24 24" xml:space="preserve">
<g>
	<g>
		<path fill="none" stroke="#323232" stroke-width="1.5" stroke-linecap="round" stroke-linejoin="round" d="M19.6,6.467L17.9,4.2
			C17.333,3.445,16.444,3,15.5,3h-7C7.556,3,6.667,3.445,6.1,4.2L4.4,6.467C4.14,6.813,4,7.234,4,7.667V18c0,1.657,1.343,3,3,3h10
			c1.657,0,3-1.343,3-3V7.667C20,7.234,19.86,6.813,19.6,6.467z"/>
		<path fill="none" stroke="#323232" stroke-width="1.5" stroke-linecap="round" stroke-linejoin="round" d="M15,10
			c0,1.657-1.343,3-3,3s-3-1.343-3-3"/>
		
			<line fill="none" stroke="#323232" stroke-width="1.5" stroke-linecap="round" stroke-linejoin="round" x1="19.884" y1="7" x2="4.116" y2="7"/>
	</g>
	<path fill="none" d="M0,0h24v24H0V0z"/>
</g>
</svg>
