<svg id="Layer_3" data-name="Layer 3" xmlns="http://www.w3.org/2000/svg" viewBox="0 0 24 24"><path d="M0,0H24V24H0Z" fill="none"/><path d="M18.364,5.636a9,9,0,1,1-12.7279,0,9,9,0,0,1,12.7279,0" fill="none" stroke="#323232" stroke-linecap="round" stroke-linejoin="round" stroke-width="1.5"/><path d="M8.571,10.5h6.858a.99983.99983,0,0,1,.977,1.212l-.758,3.5a1.00028,1.00028,0,0,1-.977.788H9.329a.99862.99862,0,0,1-.977-.788l-.758-3.5A1.00032,1.00032,0,0,1,8.571,10.5Z" fill="none" stroke="#323232" stroke-linecap="round" stroke-linejoin="round" stroke-width="1.5"/><path d="M10,8l-.94,2.5" fill="none" stroke="#323232" stroke-linecap="round" stroke-linejoin="round" stroke-width="1.5"/><path d="M14,8l.94,2.5" fill="none" stroke="#323232" stroke-linecap="round" stroke-linejoin="round" stroke-width="1.5"/></svg>