<?xml version="1.0" encoding="utf-8"?>
<!-- Generator: Adobe Illustrator 24.0.2, SVG Export Plug-In . SVG Version: 6.00 Build 0)  -->
<svg version="1.1" id="Layer_1" xmlns="http://www.w3.org/2000/svg" xmlns:xlink="http://www.w3.org/1999/xlink" x="0px" y="0px"
	 width="24px" height="24px" viewBox="0 0 24 24" enable-background="new 0 0 24 24" xml:space="preserve">
<g>
	<path fill="none" d="M0,0h24v24H0V0z"/>
	<g>
		<path fill="none" stroke="#323232" stroke-width="1.5" stroke-linecap="round" stroke-linejoin="round" d="M9.055,9.589h6.781
			l-0.742,3.709H9.797L8.738,8H7.413"/>
		<g>
			<path fill="none" stroke="#323232" stroke-width="1.5" stroke-linecap="round" stroke-linejoin="round" d="M17,21H7
				c-2.209,0-4-1.791-4-4V7c0-2.209,1.791-4,4-4h10c2.209,0,4,1.791,4,4v10C21,19.209,19.209,21,17,21z"/>
		</g>
		<path fill="none" stroke="#323232" stroke-width="1.5" stroke-linecap="round" stroke-linejoin="round" d="M14.603,15.91
			c0.021,0.021,0.021,0.054,0,0.075c-0.021,0.021-0.054,0.021-0.075,0c-0.021-0.021-0.021-0.054,0-0.075
			C14.549,15.889,14.582,15.889,14.603,15.91"/>
		<path fill="none" stroke="#323232" stroke-width="1.5" stroke-linecap="round" stroke-linejoin="round" d="M10.364,15.91
			c0.021,0.021,0.021,0.054,0,0.075c-0.021,0.021-0.054,0.021-0.075,0c-0.021-0.021-0.021-0.054,0-0.075
			C10.31,15.889,10.344,15.889,10.364,15.91"/>
	</g>
</g>
</svg>
