<?xml version="1.0" encoding="utf-8"?>
<!-- Generator: Adobe Illustrator 24.0.2, SVG Export Plug-In . SVG Version: 6.00 Build 0)  -->
<svg version="1.1" id="Layer_3" xmlns="http://www.w3.org/2000/svg" xmlns:xlink="http://www.w3.org/1999/xlink" x="0px" y="0px"
	 width="24px" height="24px" viewBox="0 0 24 24" enable-background="new 0 0 24 24" xml:space="preserve">
<g>
	<g>
		<path fill="none" stroke="#323232" stroke-width="1.5" stroke-linecap="round" stroke-linejoin="round" d="M18.5,21h-12
			c-1.105,0-2-0.895-2-2V8.5C4.5,7.672,5.172,7,6,7h13c0.828,0,1.5,0.672,1.5,1.5V19C20.5,20.105,19.605,21,18.5,21z"/>
		<path fill="none" stroke="#323232" stroke-width="1.5" stroke-linecap="round" stroke-linejoin="round" d="M16.499,10.3
			c-0.138,0-0.25,0.112-0.249,0.25c0,0.138,0.112,0.25,0.25,0.25s0.25-0.112,0.25-0.25S16.638,10.3,16.499,10.3"/>
		<path fill="none" stroke="#323232" stroke-width="1.5" stroke-linecap="round" stroke-linejoin="round" d="M8.499,10.3
			c-0.138,0-0.25,0.112-0.249,0.25c0,0.138,0.112,0.25,0.25,0.25s0.25-0.112,0.25-0.25S8.638,10.3,8.499,10.3"/>
		<path fill="none" stroke="#323232" stroke-width="1.5" stroke-linecap="round" stroke-linejoin="round" d="M8.5,7V6.75v0
			C8.5,4.679,10.179,3,12.25,3h0.5c2.071,0,3.75,1.679,3.75,3.75v0V7"/>
	</g>
	<path fill="none" d="M0.5,0h24v24h-24V0z"/>
</g>
</svg>
