<svg id="Layer_3" data-name="Layer 3" xmlns="http://www.w3.org/2000/svg" viewBox="0 0 24 24"><title>basket-star-favorite</title><path d="M20,8a3,3,0,0,1,3-3,3,3,0,0,1-3-3,3,3,0,0,1-3,3,3,3,0,0,1,3,3" fill="none" stroke="#323232" stroke-linecap="round" stroke-linejoin="round" stroke-width="1.5"/><path d="M21,12v4a5,5,0,0,1-5,5H8a5,5,0,0,1-5-5V8A5,5,0,0,1,8,3h6" fill="none" stroke="#323232" stroke-linecap="round" stroke-linejoin="round" stroke-width="1.5"/><path d="M14.436,16H9.564a.8.8,0,0,1-.771-.589l-.764-2.8A.8.8,0,0,1,8.8,11.6h6.4a.8.8,0,0,1,.771,1.01l-.763,2.8A.8.8,0,0,1,14.436,16Z" fill="none" stroke="#323232" stroke-linecap="round" stroke-linejoin="round" stroke-width="1.5"/><path d="M8.718,11.62l2.263-3.1a1.256,1.256,0,0,1,2.029,0l2.271,3.106" fill="none" stroke="#323232" stroke-linecap="round" stroke-linejoin="round" stroke-width="1.5"/><rect width="24" height="24" fill="none"/></svg>