<?xml version="1.0" encoding="utf-8"?>
<!-- Generator: Adobe Illustrator 24.0.2, SVG Export Plug-In . SVG Version: 6.00 Build 0)  -->
<svg version="1.1" id="Layer_1" xmlns="http://www.w3.org/2000/svg" xmlns:xlink="http://www.w3.org/1999/xlink" x="0px" y="0px"
	 width="24px" height="24px" viewBox="0 0 24 24" enable-background="new 0 0 24 24" xml:space="preserve">
<g>
	<g>
		<path fill="none" stroke="#323232" stroke-width="1.5" stroke-linecap="round" stroke-linejoin="round" d="M20.248,17.341
			l0.514-0.516c0.462,1.097,0.25,2.411-0.641,3.303c-0.715,0.717-1.697,0.987-2.622,0.828"/>
		<path fill="none" stroke="#323232" stroke-width="1.5" stroke-linecap="round" stroke-linejoin="round" d="M15.752,18.658
			l-0.514,0.516c-0.462-1.097-0.25-2.411,0.641-3.303c0.758-0.761,1.819-1.017,2.791-0.793"/>
		<path fill="none" stroke="#323232" stroke-width="1.5" stroke-linecap="round" stroke-linejoin="round" d="M11,20H5
			c-1.105,0-2-0.895-2-2V7.5C3,6.672,3.672,6,4.5,6h13C18.328,6,19,6.672,19,7.5V11"/>
		<path fill="none" stroke="#323232" stroke-width="1.5" stroke-linecap="round" stroke-linejoin="round" d="M7,6V5.75l0,0
			C7,3.679,8.679,2,10.75,2h0.5C13.321,2,15,3.679,15,5.75l0,0V6"/>
	</g>
	<g>
		<path fill="none" d="M0,0h24v24H0V0z"/>
	</g>
</g>
</svg>
