<?xml version="1.0" encoding="utf-8"?>
<!-- Generator: Adobe Illustrator 24.0.2, SVG Export Plug-In . SVG Version: 6.00 Build 0)  -->
<svg version="1.1" id="Layer_1" xmlns="http://www.w3.org/2000/svg" xmlns:xlink="http://www.w3.org/1999/xlink" x="0px" y="0px"
	 width="24px" height="24px" viewBox="0 0 24 24" enable-background="new 0 0 24 24" xml:space="preserve">
<g>
	<g>
		<path fill="none" stroke="#323232" stroke-width="1.5" stroke-linecap="round" stroke-linejoin="round" d="M10,20H5
			c-1.105,0-2-0.895-2-2V7.5C3,6.672,3.672,6,4.5,6h13C18.328,6,19,6.672,19,7.5V10"/>
		<path fill="none" stroke="#323232" stroke-width="1.5" stroke-linecap="round" stroke-linejoin="round" d="M7,6V5.75l0,0
			C7,3.679,8.679,2,10.75,2h0.5C13.321,2,15,3.679,15,5.75l0,0V6"/>
		<g>
			<path fill="none" stroke="#323232" stroke-width="1.5" stroke-linecap="round" stroke-linejoin="round" d="M19.688,13.34
				c1.993,1.993,1.716,5.397-0.832,6.997c-1.406,0.884-3.266,0.884-4.673,0c-2.547-1.601-2.825-5.004-0.832-6.997
				C15.101,11.591,17.938,11.591,19.688,13.34"/>
			<path fill="none" stroke="#323232" stroke-width="1.5" stroke-linecap="round" stroke-linejoin="round" d="M15.677,15.667
				l0.842-0.843v3.37"/>
			<path fill="none" stroke="#323232" stroke-width="1.5" stroke-linecap="round" stroke-linejoin="round" d="M15.68,18.196h1.679"
				/>
		</g>
	</g>
	<g>
		<path fill="none" d="M0,0h24v24H0V0z"/>
	</g>
</g>
</svg>
