<svg id="Layer_3" data-name="Layer 3" xmlns="http://www.w3.org/2000/svg" viewBox="0 0 24 24"><title>basket-refresh</title><path d="M0,0H24V24H0Z" fill="none"/><path d="M12,21H5a2,2,0,0,1-2-2V8.5A1.5,1.5,0,0,1,4.5,7h13A1.5,1.5,0,0,1,19,8.5V12" fill="none" stroke="#323232" stroke-linecap="round" stroke-linejoin="round" stroke-width="1.5"/><path d="M7,6.75H7A3.75,3.75,0,0,1,10.75,3h.5A3.75,3.75,0,0,1,15,6.75h0" fill="none" stroke="#323232" stroke-linecap="round" stroke-linejoin="round" stroke-width="1.5"/><line x1="15" y1="6.75" x2="15" y2="7" fill="none" stroke="#323232" stroke-linecap="round" stroke-linejoin="round" stroke-width="1.5"/><path d="M19.583,16.269H21V14.854" fill="none" stroke="#323232" stroke-linecap="round" stroke-linejoin="round" stroke-width="1.5"/><path d="M16.42,19.33H15.006v1.415" fill="none" stroke="#323232" stroke-linecap="round" stroke-linejoin="round" stroke-width="1.5"/><path d="M21,18.866a3.086,3.086,0,0,1-.735,1.2,3.2,3.2,0,0,1-5.073-.733" fill="none" stroke="#323232" stroke-linecap="round" stroke-linejoin="round" stroke-width="1.5"/><path d="M20.812,16.268a3.2,3.2,0,0,0-5.073-.733,3.1,3.1,0,0,0-.738,1.2" fill="none" stroke="#323232" stroke-linecap="round" stroke-linejoin="round" stroke-width="1.5"/></svg>