<svg id="Layer_3" data-name="Layer 3" xmlns="http://www.w3.org/2000/svg" viewBox="0 0 24 24"><title>basket-message-chat</title><path d="M0,0H24V24H0Z" fill="none"/><path d="M14.123,13.5H9.862a.7.7,0,0,1-.675-.516l-.668-2.45a.7.7,0,0,1,.674-.884h5.6a.7.7,0,0,1,.675.884l-.668,2.45A.7.7,0,0,1,14.123,13.5Z" fill="none" stroke="#323232" stroke-linecap="round" stroke-linejoin="round" stroke-width="1.5"/><path d="M20.993,6.162v7.647a3.176,3.176,0,0,1-3.175,3.177H12.994l-5,4v-4H6.169A3.176,3.176,0,0,1,2.993,13.81h0V6.162A3.176,3.176,0,0,1,6.169,2.986H17.817a3.176,3.176,0,0,1,3.176,3.176Z" fill="none" stroke="#323232" stroke-linecap="round" stroke-linejoin="round" stroke-width="1.5"/><path d="M9.122,9.667,11.1,6.952a1.1,1.1,0,0,1,1.775,0l1.987,2.717" fill="none" stroke="#323232" stroke-linecap="round" stroke-linejoin="round" stroke-width="1.5"/></svg>