<?xml version="1.0" encoding="utf-8"?>
<!-- Generator: Adobe Illustrator 24.0.2, SVG Export Plug-In . SVG Version: 6.00 Build 0)  -->
<svg version="1.1" id="Layer_1" xmlns="http://www.w3.org/2000/svg" xmlns:xlink="http://www.w3.org/1999/xlink" x="0px" y="0px"
	 width="24px" height="24px" viewBox="0 0 24 24" enable-background="new 0 0 24 24" xml:space="preserve">
<g>
	<path fill="none" d="M0,0h24v24H0V0z"/>
	<g>
		<path fill="none" stroke="#323232" stroke-width="1.5" stroke-linecap="round" stroke-linejoin="round" d="M20,15.126V7
			c0-2.209-1.791-4-4-4H7C4.791,3,3,4.791,3,7v9c0,2.209,1.791,4,4,4h8.126"/>
		
			<path fill="none" stroke="#323232" stroke-width="1.5" stroke-linecap="round" stroke-linejoin="round" stroke-miterlimit="10" d="
			M13.631,15H9.369c-0.316,0-0.592-0.211-0.675-0.516l-0.668-2.45C7.904,11.589,8.239,11.15,8.7,11.15H14.3
			c0.462,0,0.797,0.439,0.675,0.884l-0.668,2.45C14.224,14.789,13.947,15,13.631,15z"/>
		
			<path fill="none" stroke="#323232" stroke-width="1.5" stroke-linecap="round" stroke-linejoin="round" stroke-miterlimit="10" d="
			M8.629,11.167l1.979-2.715c0.439-0.602,1.336-0.603,1.776-0.002l1.987,2.717"/>
		<path fill="none" stroke="#323232" stroke-width="1.5" stroke-linecap="round" stroke-linejoin="round" d="M19,23
			c-2.209,0-4-1.791-4-4s1.791-4,4-4c2.21,0,4,1.791,4,4S21.21,23,19,23"/>
		<path fill="none" stroke="#323232" stroke-width="1.5" stroke-linecap="round" stroke-linejoin="round" d="M20.333,18.333
			L18.667,20l-1-1"/>
	</g>
</g>
</svg>
