<?xml version="1.0" encoding="utf-8"?>
<!-- Generator: Adobe Illustrator 24.0.2, SVG Export Plug-In . SVG Version: 6.00 Build 0)  -->
<svg version="1.1" id="Layer_1" xmlns="http://www.w3.org/2000/svg" xmlns:xlink="http://www.w3.org/1999/xlink" x="0px" y="0px"
	 width="24px" height="24px" viewBox="0 0 24 24" style="enable-background:new 0 0 24 24;" xml:space="preserve">
<style type="text/css">
	.st0{fill:none;}
	.st1{fill:none;stroke:#323232;stroke-width:1.5;stroke-linecap:round;stroke-linejoin:round;}
</style>
<g>
	<path class="st0" d="M0,0h24v24H0V0z"/>
	<path class="st1" d="M17,19.5h2"/>
	<path class="st1" d="M20,22h-4c-1.1,0-2-0.9-2-2v-8c0-1.1,0.9-2,2-2h4c1.1,0,2,0.9,2,2v8C22,21.1,21.1,22,20,22z"/>
	<path class="st1" d="M15,3h3c1.1,0,2,0.9,2,2v1"/>
	<path class="st1" d="M10,19.1H5.7c-0.9,0-1.7-0.8-1.7-1.7V15"/>
	<path class="st1" d="M10.9,3H9.7l-1,5h-5L3,4.5h6.4"/>
	<path class="st1" d="M4.2,10.5C4.2,10.4,4.2,10.4,4.2,10.5C4.3,10.5,4.3,10.5,4.2,10.5C4.2,10.6,4.2,10.6,4.2,10.5
		C4.1,10.5,4.1,10.5,4.2,10.5"/>
	<path class="st1" d="M8.2,10.5C8.2,10.4,8.2,10.4,8.2,10.5C8.3,10.5,8.3,10.5,8.2,10.5C8.2,10.6,8.2,10.6,8.2,10.5
		C8.1,10.5,8.1,10.5,8.2,10.5"/>
</g>
</svg>
