<?xml version="1.0" encoding="utf-8"?>
<!-- Generator: Adobe Illustrator 24.0.2, SVG Export Plug-In . SVG Version: 6.00 Build 0)  -->
<svg version="1.1" id="Layer_1" xmlns="http://www.w3.org/2000/svg" xmlns:xlink="http://www.w3.org/1999/xlink" x="0px" y="0px"
	 width="24px" height="24px" viewBox="0 0 24 24" enable-background="new 0 0 24 24" xml:space="preserve">
<g>
	<path fill="none" d="M0,0h24v24H0V0z"/>
	<g>
		<path fill="none" stroke="#323232" stroke-width="1.5" stroke-linecap="round" stroke-linejoin="round" d="M12,20H5
			c-1.105,0-2-0.895-2-2V7.5C3,6.672,3.672,6,4.5,6h13C18.328,6,19,6.672,19,7.5V11"/>
		<path fill="none" stroke="#323232" stroke-width="1.5" stroke-linecap="round" stroke-linejoin="round" d="M7,6V5.75l0,0
			C7,3.679,8.679,2,10.75,2h0.5C13.321,2,15,3.679,15,5.75l0,0V6"/>
		<path fill="none" stroke="#323232" stroke-width="1.5" stroke-linecap="round" stroke-linejoin="round" d="M14.56,14.509H21
			l-0.704,3.522h-5.031L14.258,13H13"/>
		<path fill="none" stroke="#323232" stroke-width="1.5" stroke-linecap="round" stroke-linejoin="round" d="M19.828,20.413
			c0.02,0.02,0.02,0.051,0,0.071c-0.02,0.02-0.051,0.02-0.071,0s-0.02-0.051,0-0.071C19.776,20.393,19.809,20.393,19.828,20.413"/>
		<path fill="none" stroke="#323232" stroke-width="1.5" stroke-linecap="round" stroke-linejoin="round" d="M15.803,20.413
			c0.02,0.02,0.02,0.051,0,0.071c-0.02,0.02-0.051,0.02-0.071,0c-0.02-0.02-0.02-0.051,0-0.071
			C15.751,20.393,15.783,20.393,15.803,20.413"/>
	</g>
</g>
</svg>
