<svg id="Layer_3" data-name="Layer 3" xmlns="http://www.w3.org/2000/svg" viewBox="0 0 24 24"><path d="M0,0H24V24H0Z" fill="none"/><path d="M13,20.938A8.15936,8.15936,0,0,1,12,21a9,9,0,1,1,9-9,8.15936,8.15936,0,0,1-.062,1" fill="none" stroke="#323232" stroke-linecap="round" stroke-linejoin="round" stroke-width="1.5"/><path d="M21,18l-2.5,2.5L17,19" fill="none" stroke="#323232" stroke-linecap="round" stroke-linejoin="round" stroke-width="1.5"/><path d="M9.05,10.25h6.4l-.7,3.5h-5l-1-5H7.5" fill="none" stroke="#323232" stroke-linecap="round" stroke-linejoin="round" stroke-width="1.5"/><path d="M14.28535,16.21459a.05.05,0,1,1-.07071,0,.05.05,0,0,1,.07071,0" fill="none" stroke="#323232" stroke-linecap="round" stroke-linejoin="round" stroke-width="1.5"/><path d="M10.28535,16.21459a.05.05,0,1,1-.07071,0,.05.05,0,0,1,.07071,0" fill="none" stroke="#323232" stroke-linecap="round" stroke-linejoin="round" stroke-width="1.5"/></svg>