<svg id="Layer_3" data-name="Layer 3" xmlns="http://www.w3.org/2000/svg" viewBox="0 0 24 24"><title>basket-edit-circle</title><path d="M12.989,14H9a1,1,0,0,1-.965-.737l-.5-1.851a1,1,0,0,1,.965-1.263h5a1,1,0,0,1,.964,1.263l-.5,1.851A1,1,0,0,1,12.989,14Z" fill="none" stroke="#323232" stroke-linecap="round" stroke-linejoin="round" stroke-width="1.5"/><path d="M8.131,10.224l2.051-2.813a1,1,0,0,1,1.615,0l2.057,2.813" fill="none" stroke="#323232" stroke-linecap="round" stroke-linejoin="round" stroke-width="1.5"/><path d="M24,24H0V0H24Z" fill="none"/><path d="M24,0V24H0" fill="none"/><path d="M11,20a9,9,0,1,1,8.941-10" fill="none" stroke="#323232" stroke-linecap="round" stroke-linejoin="round" stroke-width="1.5"/><path d="M15.293,17.839l3.542-3.545a1,1,0,0,1,1.418,0l1.453,1.453a1,1,0,0,1,0,1.417L18.16,20.707a1,1,0,0,1-.707.293H15V18.546A1,1,0,0,1,15.293,17.839Z" fill="none" stroke="#323232" stroke-linecap="round" stroke-linejoin="round" stroke-width="1.5"/></svg>