<svg id="Layer_3" data-name="Layer 3" xmlns="http://www.w3.org/2000/svg" viewBox="0 0 24 24"><title>basket-refund</title><line x1="12" y1="5" x2="5" y2="5" fill="none" stroke="#323232" stroke-linecap="round" stroke-linejoin="round" stroke-width="1.5"/><path d="M12,5a8,8,0,1,1-8,8" fill="none" stroke="#323232" stroke-linecap="round" stroke-linejoin="round" stroke-width="1.5"/><line x1="8" y1="2" x2="5" y2="5" fill="none" stroke="#323232" stroke-linecap="round" stroke-linejoin="round" stroke-width="1.5"/><line x1="8" y1="8" x2="5" y2="5" fill="none" stroke="#323232" stroke-linecap="round" stroke-linejoin="round" stroke-width="1.5"/><rect width="24" height="24" fill="none"/><path d="M14.13,16.513H9.869A.7.7,0,0,1,9.194,16l-.668-2.45a.7.7,0,0,1,.674-.884h5.6a.7.7,0,0,1,.7.7.716.716,0,0,1-.025.184L14.807,16A.7.7,0,0,1,14.13,16.513Z" fill="none" stroke="#323232" stroke-linecap="round" stroke-linejoin="round" stroke-width="1.5"/><path d="M9.129,12.68l1.979-2.715a1.1,1.1,0,0,1,1.537-.238,1.119,1.119,0,0,1,.238.238l1.987,2.717" fill="none" stroke="#323232" stroke-linecap="round" stroke-linejoin="round" stroke-width="1.5"/></svg>