<?xml version="1.0" encoding="utf-8"?>
<!-- Generator: Adobe Illustrator 24.0.2, SVG Export Plug-In . SVG Version: 6.00 Build 0)  -->
<svg version="1.1" id="Layer_3" xmlns="http://www.w3.org/2000/svg" xmlns:xlink="http://www.w3.org/1999/xlink" x="0px" y="0px"
	 width="24px" height="24px" viewBox="0 0 24 24" enable-background="new 0 0 24 24" xml:space="preserve">
<g>
	<g>
		<path fill="none" stroke="#323232" stroke-width="1.5" stroke-linecap="round" stroke-linejoin="round" d="M15.006,16.542
			c-0.126,0-0.229,0.102-0.227,0.229c0,0.126,0.102,0.229,0.229,0.229s0.229-0.102,0.229-0.229
			C15.235,16.644,15.132,16.542,15.006,16.542"/>
		<path fill="none" stroke="#323232" stroke-width="1.5" stroke-linecap="round" stroke-linejoin="round" d="M9.748,16.542
			c-0.126,0-0.229,0.102-0.227,0.229C9.52,16.897,9.623,17,9.749,17s0.229-0.102,0.229-0.229
			C9.978,16.644,9.875,16.542,9.748,16.542"/>
		<path fill="none" stroke="#323232" stroke-width="1.5" stroke-linecap="round" stroke-linejoin="round" d="M17,21H7
			c-2.209,0-4-1.791-4-4V7c0-2.209,1.791-4,4-4h10c2.209,0,4,1.791,4,4v10C21,19.209,19.209,21,17,21z"/>
		<path fill="none" stroke="#323232" stroke-width="1.5" stroke-linecap="round" stroke-linejoin="round" d="M7.984,8.875h7.891
			c0.407,0,0.705,0.382,0.606,0.777l-0.842,3.37c-0.128,0.512-0.563,0.888-1.088,0.941l-4.26,0.426
			c-0.635,0.063-1.216-0.361-1.347-0.985L7.578,7H6.5"/>
	</g>
	<path fill="none" d="M0,0h24v24H0V0z"/>
</g>
</svg>
