<svg id="Layer_3" data-name="Layer 3" xmlns="http://www.w3.org/2000/svg" viewBox="0 0 24 24"><title>basket-refresh</title><path d="M0,0H24V24H0Z" fill="none"/><path d="M0,24V0H24V24Z" fill="none"/><path d="M16.3,3.576h2.9" fill="none" stroke="#323232" stroke-linecap="round" stroke-linejoin="round" stroke-width="1.5"/><path d="M12,3a9,9,0,1,0,4.3,1.1" fill="none" stroke="#323232" stroke-linecap="round" stroke-linejoin="round" stroke-width="1.5"/><path d="M16.3,3.576h0v2.9" fill="none" stroke="#323232" stroke-linecap="round" stroke-linejoin="round" stroke-width="1.5"/><path d="M14.13,15.5H9.869a.7.7,0,0,1-.675-.516l-.668-2.45a.7.7,0,0,1,.491-.859.668.668,0,0,1,.183-.025h5.6a.7.7,0,0,1,.7.7.71.71,0,0,1-.025.184l-.668,2.45A.7.7,0,0,1,14.13,15.5Z" fill="none" stroke="#323232" stroke-linecap="round" stroke-linejoin="round" stroke-width="1.5"/><path d="M9.129,11.666l1.979-2.715a1.1,1.1,0,0,1,1.537-.238,1.119,1.119,0,0,1,.238.238l1.987,2.717" fill="none" stroke="#323232" stroke-linecap="round" stroke-linejoin="round" stroke-width="1.5"/></svg>