<svg id="Layer_3" data-name="Layer 3" xmlns="http://www.w3.org/2000/svg" viewBox="0 0 24 24"><title>basket-globe</title><path d="M11,20a9,9,0,1,1,9-9" fill="none" stroke="#323232" stroke-linecap="round" stroke-linejoin="round" stroke-width="1.5"/><path d="M15,11a15.476,15.476,0,0,0-2.167-7.94,2.114,2.114,0,0,0-3.665,0,15.629,15.629,0,0,0,0,15.881A2.122,2.122,0,0,0,11,20" fill="none" stroke="#323232" stroke-linecap="round" stroke-linejoin="round" stroke-width="1.5"/><path d="M19.559,21H15.441a.737.737,0,0,1-.711-.536l-.7-2.545A.73.73,0,0,1,14.738,17h5.525a.73.73,0,0,1,.711.919l-.7,2.545A.737.737,0,0,1,19.559,21Z" fill="none" stroke="#323232" stroke-linecap="round" stroke-linejoin="round" stroke-width="1.5"/><path d="M14.59,16.948l2.352-2.7a.736.736,0,0,1,1.109,0l2.359,2.7" fill="none" stroke="#323232" stroke-linecap="round" stroke-linejoin="round" stroke-width="1.5"/><line x1="2.513" y1="8" x2="19" y2="8" fill="none" stroke="#323232" stroke-linecap="round" stroke-linejoin="round" stroke-width="1.5"/><line x1="2.514" y1="14" x2="11" y2="14" fill="none" stroke="#323232" stroke-linecap="round" stroke-linejoin="round" stroke-width="1.5"/><rect id="_Transparent_Rectangle_" data-name=" Transparent Rectangle " width="24" height="24" fill="none"/></svg>