<svg id="Layer_3" data-name="Layer 3" xmlns="http://www.w3.org/2000/svg" viewBox="0 0 24 24"><title>basket-arrow-circle</title><path d="M8,18l2,2L8,22" fill="none" stroke="#323232" stroke-linecap="round" stroke-linejoin="round" stroke-width="1.5"/><path d="M10,20H4" fill="none" stroke="#323232" stroke-linecap="round" stroke-linejoin="round" stroke-width="1.5"/><path d="M14,20.771A9,9,0,1,0,3.942,16" fill="none" stroke="#323232" stroke-linecap="round" stroke-linejoin="round" stroke-width="1.5"/><path d="M0,0H24V24H0Z" fill="none"/><path d="M14.13,15.5H9.869a.7.7,0,0,1-.675-.516l-.668-2.45a.7.7,0,0,1,.491-.859A.668.668,0,0,1,9.2,11.65h5.6a.7.7,0,0,1,.7.7.716.716,0,0,1-.025.184l-.668,2.45A.7.7,0,0,1,14.13,15.5Z" fill="none" stroke="#323232" stroke-linecap="round" stroke-linejoin="round" stroke-width="1.5"/><path d="M9.129,11.667l1.979-2.715a1.1,1.1,0,0,1,1.537-.238,1.119,1.119,0,0,1,.238.238l1.987,2.717" fill="none" stroke="#323232" stroke-linecap="round" stroke-linejoin="round" stroke-width="1.5"/></svg>