<svg id="Layer_3" data-name="Layer 3" xmlns="http://www.w3.org/2000/svg" viewBox="0 0 24 24"><title>basket-message-chat_1</title><path d="M0,0H24V24H0Z" fill="none"/><path d="M14.13,15.5H9.869a.7.7,0,0,1-.675-.516l-.668-2.45A.7.7,0,0,1,9.2,11.65h5.6a.7.7,0,0,1,.675.884l-.668,2.45A.7.7,0,0,1,14.13,15.5Z" fill="none" stroke="#323232" stroke-linecap="round" stroke-linejoin="round" stroke-width="1.5"/><path d="M9.129,11.667l1.979-2.715a1.1,1.1,0,0,1,1.775,0l1.987,2.717" fill="none" stroke="#323232" stroke-linecap="round" stroke-linejoin="round" stroke-width="1.5"/><path d="M4.151,16.4A9.011,9.011,0,1,1,7.6,19.849L3,21Z" fill="none" stroke="#323232" stroke-linecap="round" stroke-linejoin="round" stroke-width="1.5"/></svg>