<?xml version="1.0" encoding="utf-8"?>
<!-- Generator: Adobe Illustrator 24.0.2, SVG Export Plug-In . SVG Version: 6.00 Build 0)  -->
<svg version="1.1" id="Layer_1" xmlns="http://www.w3.org/2000/svg" xmlns:xlink="http://www.w3.org/1999/xlink" x="0px" y="0px"
	 width="24px" height="24px" viewBox="0 0 24 24" enable-background="new 0 0 24 24" xml:space="preserve">
<g>
	<g>
		<path fill="none" stroke="#323232" stroke-width="1.5" stroke-linecap="round" stroke-linejoin="round" d="M17,21
			c-2.209,0-4-1.791-4-4s1.791-4,4-4c2.21,0,4,1.791,4,4S19.21,21,17,21"/>
		<g>
			<path fill="none" stroke="#323232" stroke-width="1.5" stroke-linecap="round" stroke-linejoin="round" d="M18.445,13.269
				l0.491-1.801c0.308-1.131-0.543-2.246-1.715-2.246H4.779c-1.172,0-2.024,1.115-1.715,2.246l1.697,6.222
				C4.972,18.463,5.674,19,6.476,19h7.06"/>
		</g>
		<path fill="none" stroke="#323232" stroke-width="1.5" stroke-linecap="round" stroke-linejoin="round" d="M17.222,9.222h-0.001
			l-4.89-5.612c-0.709-0.814-1.964-0.814-2.671,0.001C8.014,5.509,6.171,7.65,4.779,9.222H4.778h0.001"/>
		<path fill="none" stroke="#323232" stroke-width="1.5" stroke-linecap="round" stroke-linejoin="round" d="M17.909,16.091
			l-1.818,1.818"/>
		<path fill="none" stroke="#323232" stroke-width="1.5" stroke-linecap="round" stroke-linejoin="round" d="M16.091,16.091
			l1.818,1.818"/>
	</g>
	<path fill="none" d="M0,0h24v24H0V0z"/>
</g>
</svg>
