<svg id="Layer_3" data-name="Layer 3" xmlns="http://www.w3.org/2000/svg" viewBox="0 0 24 24"><title>beet-radish</title><rect width="24" height="24" fill="none"/><path d="M19,13.6c0,4.827-7,6.024-7,8.4,0-2.376-7-3.573-7-8.4H5C5,10.507,8.134,8,12,8h0c3.866,0,7,2.507,7,5.6Z" fill="none" stroke="#323232" stroke-linecap="round" stroke-linejoin="round" stroke-width="1.5"/><path d="M14.177,8.272l2.047-2.048a1.748,1.748,0,0,0,0-2.474h0a1.748,1.748,0,0,0-2.474,0A1.75,1.75,0,0,0,12,2h0a1.75,1.75,0,0,0-1.75,1.75,1.748,1.748,0,0,0-2.474,0h0a1.748,1.748,0,0,0,0,2.474L9.829,8.278" fill="none" stroke="#323232" stroke-linecap="round" stroke-linejoin="round" stroke-width="1.5"/></svg>