<svg id="Layer_3" data-name="Layer 3" xmlns="http://www.w3.org/2000/svg" viewBox="0 0 24 24"><title>behance-square</title><rect width="24" height="24" fill="none"/><path d="M14.435,8.243h2.743" fill="none" stroke="#323232" stroke-linecap="round" stroke-linejoin="round" stroke-width="1.5"/><line x1="13.431" y1="13.123" x2="13.432" y2="13.123" fill="none" stroke="#323232" stroke-linecap="round" stroke-linejoin="round" stroke-width="1.5"/><path d="M17.954,12.993H13.432v-.268a2.375,2.375,0,0,1,2.375-2.375h0a2.375,2.375,0,0,1,2.375,2.375v.04A.229.229,0,0,1,17.954,12.993Z" fill="none" stroke="#323232" stroke-linecap="round" stroke-linejoin="round" stroke-width="1.5"/><path d="M13.431,12.993v.131a2.471,2.471,0,0,0,4.212,1.754" fill="none" stroke="#323232" stroke-linecap="round" stroke-linejoin="round" stroke-width="1.5"/><path d="M6.124,11.5v-3a.25.25,0,0,1,.25-.25H8.5" fill="none" stroke="#323232" stroke-linecap="round" stroke-linejoin="round" stroke-width="1.5"/><path d="M9.127,11.5a2.048,2.048,0,0,1,2.048,2.046h0a2.047,2.047,0,0,1-2.047,2.047H6.264c-.077,0-.14-.112-.14-.25V11.5Z" fill="none" stroke="#323232" stroke-linecap="round" stroke-linejoin="round" stroke-width="1.5"/><path d="M17,21H7a4,4,0,0,1-4-4V7A4,4,0,0,1,7,3H17a4,4,0,0,1,4,4V17A4,4,0,0,1,17,21Z" fill="none" stroke="#323232" stroke-linecap="round" stroke-linejoin="round" stroke-width="1.5"/><path d="M8.5,8.251a1.626,1.626,0,0,1,1.625,1.625h0A1.626,1.626,0,0,1,8.5,11.5" fill="none" stroke="#323232" stroke-linecap="round" stroke-linejoin="round" stroke-width="1.5"/></svg>