<?xml version="1.0" encoding="utf-8"?>
<!-- Generator: Adobe Illustrator 23.1.0, SVG Export Plug-In . SVG Version: 6.00 Build 0)  -->
<svg version="1.1" id="icons" xmlns="http://www.w3.org/2000/svg" xmlns:xlink="http://www.w3.org/1999/xlink" x="0px" y="0px"
	 width="24px" height="24px" viewBox="0 0 24 24" enable-background="new 0 0 24 24" xml:space="preserve">
<g>
	<rect fill="none" width="24" height="24"/>
	<g>
		<path fill="none" stroke="#323232" stroke-width="1.5" stroke-linecap="round" stroke-linejoin="round" d="M14.63,8.243h2.743"/>
		
			<line fill="none" stroke="#323232" stroke-width="1.5" stroke-linecap="round" stroke-linejoin="round" x1="13.626" y1="13.123" x2="13.627" y2="13.123"/>
		<path fill="none" stroke="#323232" stroke-width="1.5" stroke-linecap="round" stroke-linejoin="round" d="M18.149,12.993h-4.522
			v-0.268c0-1.312,1.063-2.375,2.375-2.375h0c1.312,0,2.375,1.063,2.375,2.375v0.04C18.376,12.891,18.275,12.993,18.149,12.993z"/>
		<path fill="none" stroke="#323232" stroke-width="1.5" stroke-linecap="round" stroke-linejoin="round" d="M13.626,12.993l0,0.131
			c0,1.365,1.107,2.471,2.472,2.471c0.629,0,1.258-0.24,1.74-0.717"/>
		
			<circle fill="none" stroke="#323232" stroke-width="1.5" stroke-linecap="round" stroke-linejoin="round" stroke-miterlimit="10" cx="12" cy="12" r="10"/>
		<path fill="none" stroke="#323232" stroke-width="1.5" stroke-linecap="round" stroke-linejoin="round" d="M6.124,11.501v-3
			c0-0.138,0.112-0.25,0.25-0.25h2.321c0.897,0,1.625,0.728,1.625,1.625v0c0,0.897-0.728,1.625-1.625,1.625"/>
		<path fill="none" stroke="#323232" stroke-width="1.5" stroke-linecap="round" stroke-linejoin="round" d="M9.322,11.501H6.124
			v3.843c0,0.138,0.112,0.25,0.25,0.25h2.949c1.13,0,2.047-0.916,2.047-2.047v0C11.369,12.417,10.453,11.501,9.322,11.501z"/>
	</g>
</g>
</svg>
