<svg id="Layer_3" data-name="Layer 3" xmlns="http://www.w3.org/2000/svg" viewBox="0 0 24 24"><path d="M9.66563,18.1875v.48A2.33249,2.33249,0,0,0,11.99812,21H12a2.33343,2.33343,0,0,0,2.33437-2.3325v-.48" fill="none" stroke="#323232" stroke-linecap="round" stroke-linejoin="round" stroke-width="1.5"/><path d="M17.57531,18.1875A1.92469,1.92469,0,0,0,19.5,16.26281h0a2.04093,2.04093,0,0,0-.59625-1.44L17.625,13.545V9.75A5.625,5.625,0,0,0,12,4.125h0A5.625,5.625,0,0,0,6.375,9.75v3.795L5.09625,14.82281a2.04093,2.04093,0,0,0-.59625,1.44h0A1.92469,1.92469,0,0,0,6.42469,18.1875H17.57531Z" fill="none" stroke="#323232" stroke-linecap="round" stroke-linejoin="round" stroke-width="1.5"/><line x1="22.0213" y1="3" x2="20.0213" y2="4.33331" fill="none" stroke="#323232" stroke-linecap="round" stroke-linejoin="round" stroke-width="1.5"/><line x1="23" y1="9" x2="21.0213" y2="9" fill="none" stroke="#323232" stroke-linecap="round" stroke-linejoin="round" stroke-width="1.5"/><line x1="1.9787" y1="3" x2="3.9787" y2="4.33331" fill="none" stroke="#323232" stroke-linecap="round" stroke-linejoin="round" stroke-width="1.5"/><line x1="1" y1="9" x2="2.9787" y2="9" fill="none" stroke="#323232" stroke-linecap="round" stroke-linejoin="round" stroke-width="1.5"/><rect width="24" height="24" fill="none"/></svg>