<svg id="Layer_3" data-name="Layer 3" xmlns="http://www.w3.org/2000/svg" viewBox="0 0 24 24"><title>bell-notifications-circle</title><path d="M10.444,15.709v.57A1.555,1.555,0,0,0,12,17.834h0a1.556,1.556,0,0,0,1.556-1.556v-.569" fill="none" stroke="#323232" stroke-linecap="round" stroke-linejoin="round" stroke-width="1.5"/><path d="M15.717,15.709A1.282,1.282,0,0,0,17,14.426h0a1.357,1.357,0,0,0-.4-.96l-.852-.852v-2.53A3.75,3.75,0,0,0,12,6.334h0a3.75,3.75,0,0,0-3.75,3.75v2.53l-.852.852a1.357,1.357,0,0,0-.4.96H7a1.282,1.282,0,0,0,1.283,1.283Z" fill="none" stroke="#323232" stroke-linecap="round" stroke-linejoin="round" stroke-width="1.5"/><circle cx="12" cy="12" r="9" fill="none" stroke="#323232" stroke-linecap="round" stroke-linejoin="round" stroke-width="1.5"/><path d="M0,0H24V24H0Z" fill="none"/></svg>