<svg id="Layer_3" data-name="Layer 3" xmlns="http://www.w3.org/2000/svg" viewBox="0 0 24 24"><title>bell-notification-hexagon</title><path d="M15.721,15.709h0A1.282,1.282,0,0,0,17,14.426h0a1.357,1.357,0,0,0-.4-.96l-.852-.852v-2.53A3.75,3.75,0,0,0,12,6.334h0a3.75,3.75,0,0,0-3.748,3.752v2.53l-.852.852a1.357,1.357,0,0,0-.4.96H7a1.282,1.282,0,0,0,1.283,1.281h7.434" fill="none" stroke="#323232" stroke-linecap="round" stroke-linejoin="round" stroke-width="1.5"/><path d="M11,17.834h2" fill="none" stroke="#323232" stroke-linecap="round" stroke-linejoin="round" stroke-width="1.5"/><path d="M7.121,20.121,3.878,16.878A3,3,0,0,1,3,14.757V9.243a3,3,0,0,1,.879-2.121L7.122,3.879A3,3,0,0,1,9.243,3h5.514a3,3,0,0,1,2.121.879l3.244,3.244A3,3,0,0,1,21,9.244v5.513a3,3,0,0,1-.878,2.121l-3.243,3.244A3,3,0,0,1,14.757,21H9.243A3,3,0,0,1,7.121,20.121Z" fill="none" stroke="#323232" stroke-linecap="round" stroke-linejoin="round" stroke-width="1.5"/><path d="M0,0H24V24H0Z" fill="none"/></svg>