<svg id="Layer_3" data-name="Layer 3" xmlns="http://www.w3.org/2000/svg" viewBox="0 0 24 24"><title>bell-warning</title><path d="M9.708,18.344v.365A2.29158,2.29158,0,0,0,12,21h0a2.29179,2.29179,0,0,0,2.292-2.292v-.365" fill="none" stroke="#323232" stroke-linecap="round" stroke-linejoin="round" stroke-width="1.5"/><path d="M13.833,5.751V4.833A1.83279,1.83279,0,0,0,12,3h0a1.83279,1.83279,0,0,0-1.833,1.833v.918" fill="none" stroke="#323232" stroke-linecap="round" stroke-linejoin="round" stroke-width="1.5"/><path d="M6.563,10.188h0a4.53087,4.53087,0,0,1,4.531-4.531h1.813a4.53087,4.53087,0,0,1,4.531,4.531h0v2.797a2.00064,2.00064,0,0,0,.586,1.414l.641.641a2.00064,2.00064,0,0,1,.586,1.414h0a1.88977,1.88977,0,0,1-1.89,1.89H6.64a1.88977,1.88977,0,0,1-1.89-1.89h0a2.00064,2.00064,0,0,1,.586-1.414l.641-.641a2.00064,2.00064,0,0,0,.586-1.414Z" fill="none" stroke="#323232" stroke-linecap="round" stroke-linejoin="round" stroke-width="1.5"/><path d="M11.99988,11.74523V9.17178" fill="none" stroke="#323232" stroke-linecap="round" stroke-linejoin="round" stroke-width="1.5"/><path d="M12.12488,14.70278a.125.125,0,1,1-.125-.125" fill="none" stroke="#323232" stroke-linecap="round" stroke-linejoin="round" stroke-width="1.5"/><path d="M11.99988,14.57778a.125.125,0,0,1,.125.125" fill="none" stroke="#323232" stroke-linecap="round" stroke-linejoin="round" stroke-width="1.5"/><path d="M0,0H24V24H0Z" fill="none"/></svg>