<?xml version="1.0" encoding="utf-8"?>
<!-- Generator: Adobe Illustrator 24.0.2, SVG Export Plug-In . SVG Version: 6.00 Build 0)  -->
<svg version="1.1" id="Layer_3" xmlns="http://www.w3.org/2000/svg" xmlns:xlink="http://www.w3.org/1999/xlink" x="0px" y="0px"
	 width="24px" height="24px" viewBox="0 0 24 24" enable-background="new 0 0 24 24" xml:space="preserve">
<g>
	<path fill="none" d="M0,0h24v24H0V0z"/>
	<g>
		<path fill="none" stroke="#323232" stroke-width="1.5" stroke-linecap="round" stroke-linejoin="round" d="M7.66,15.3
			c-0.276,0-0.5-0.224-0.5-0.5v-1.443c0-0.162,0.078-0.313,0.21-0.407L8.7,12V9.408l0,0c0-1.606,1.302-2.908,2.908-2.908h0.785
			c1.606,0,2.908,1.302,2.908,2.908l0,0V12l1.331,0.95c0.131,0.094,0.209,0.245,0.209,0.406V14.8c0,0.276-0.224,0.5-0.5,0.5H7.66z"
			/>
		<path fill="none" stroke="#323232" stroke-width="1.5" stroke-linecap="round" stroke-linejoin="round" d="M10.9,17.5h2.2H10.9z"
			/>
		
			<path fill="none" stroke="#323232" stroke-width="1.5" stroke-linecap="round" stroke-linejoin="round" stroke-miterlimit="10" d="
			M18,21H6c-1.657,0-3-1.343-3-3V6c0-1.657,1.343-3,3-3h12c1.657,0,3,1.343,3,3v12C21,19.657,19.657,21,18,21z"/>
	</g>
</g>
</svg>
