<svg id="Layer_3" data-name="Layer 3" xmlns="http://www.w3.org/2000/svg" viewBox="0 0 24 24"><title>bell-notification-circle</title><path d="M15.719,15.709h0A1.282,1.282,0,0,0,17,14.426h0a1.357,1.357,0,0,0-.4-.96l-.852-.852v-2.53A3.75,3.75,0,0,0,12,6.334h0a3.75,3.75,0,0,0-3.748,3.75v2.53l-.852.852a1.357,1.357,0,0,0-.4.96H7v0a1.282,1.282,0,0,0,1.283,1.281h7.434" fill="none" stroke="#323232" stroke-linecap="round" stroke-linejoin="round" stroke-width="1.5"/><path d="M11,17.834h2" fill="none" stroke="#323232" stroke-linecap="round" stroke-linejoin="round" stroke-width="1.5"/><path d="M12,21a9,9,0,1,1,9-9,9,9,0,0,1-9,9" fill="none" stroke="#323232" stroke-linecap="round" stroke-linejoin="round" stroke-width="1.5"/><path d="M0,0H24V24H0Z" fill="none"/></svg>