<?xml version="1.0" encoding="utf-8"?>
<!-- Generator: Adobe Illustrator 24.0.2, SVG Export Plug-In . SVG Version: 6.00 Build 0)  -->
<svg version="1.1" id="Layer_3" xmlns="http://www.w3.org/2000/svg" xmlns:xlink="http://www.w3.org/1999/xlink" x="0px" y="0px"
	 width="24px" height="24px" viewBox="0 0 24 24" enable-background="new 0 0 24 24" xml:space="preserve">
<g>
	<g>
		<path fill="none" d="M0,0h24v24H0V0z"/>
	</g>
	<g>
		<path fill="none" stroke="#323232" stroke-width="1.5" stroke-linecap="round" stroke-linejoin="round" d="M17.436,6
			c1.381,0,2.5,1.119,2.5,2.5s-1.119,2.5-2.5,2.5s-2.5-1.119-2.5-2.5C14.936,7.119,16.056,6,17.436,6"/>
		<path fill="none" stroke="#323232" stroke-width="1.5" stroke-linecap="round" stroke-linejoin="round" d="M15.736,6.676
			c-0.778-0.628-1.754-1.019-2.831-1.019l0.002,0h-1.813c-2.502,0-4.531,2.028-4.531,4.531l0,0l0,2.797
			c0,0.53-0.211,1.039-0.586,1.414L5.336,15.04c-0.375,0.375-0.586,0.884-0.586,1.414l0,0c0,1.044,0.846,1.89,1.89,1.89h10.721
			c1.044,0,1.89-0.846,1.89-1.89l0,0c0-0.53-0.211-1.039-0.586-1.414l-0.641-0.641c-0.375-0.375-0.586-0.884-0.586-1.414v-1.986"/>
		<path fill="none" stroke="#323232" stroke-width="1.5" stroke-linecap="round" stroke-linejoin="round" d="M9.708,18.344v0.365
			C9.708,19.974,10.734,21,12,21l0,0c1.266,0,2.292-1.026,2.292-2.292v-0.365"/>
		<path fill="none" stroke="#323232" stroke-width="1.5" stroke-linecap="round" stroke-linejoin="round" d="M13.833,5.751V4.833
			C13.833,3.821,13.013,3,12,3l0,0c-1.013,0-1.833,0.821-1.833,1.833v0.918"/>
	</g>
</g>
</svg>
