<svg id="Layer_3" data-name="Layer 3" xmlns="http://www.w3.org/2000/svg" viewBox="0 0 24 24"><title>bell-notification</title><path d="M17.5,17.359a1.9,1.9,0,0,0,1.9-1.894v0h0a2.005,2.005,0,0,0-.591-1.419l-1.259-1.26V9.043A5.544,5.544,0,0,0,12,3.5h0A5.544,5.544,0,0,0,6.459,9.043v3.74L5.2,14.043a2.006,2.006,0,0,0-.592,1.419h0v0a1.9,1.9,0,0,0,1.9,1.894Z" fill="none" stroke="#323232" stroke-linecap="round" stroke-linejoin="round" stroke-width="1.5"/><path d="M17.5,17.359h0" fill="none" stroke="#323232" stroke-linecap="round" stroke-linejoin="round" stroke-width="1.5"/><path d="M10.521,20.5h2.957" fill="none" stroke="#323232" stroke-linecap="round" stroke-linejoin="round" stroke-width="1.5"/><path d="M0,0H24V24H0Z" fill="none"/></svg>