<svg id="Layer_3" data-name="Layer 3" xmlns="http://www.w3.org/2000/svg" viewBox="0 0 24 24"><title>belt</title><rect width="24" height="24" fill="none"/><path d="M5.079,11.5c1.384-1.194,3.962-2,6.921-2s5.537.806,6.921,2" fill="none" stroke="#323232" stroke-linecap="round" stroke-linejoin="round" stroke-width="1.5"/><path d="M12,5.5c-4.41827,0-8,1.79077-8,4,0,1.689,2.09668,3.13037,5.05713,3.717" fill="none" stroke="#323232" stroke-linecap="round" stroke-linejoin="round" stroke-width="1.5"/><path d="M14.94287,13.217C17.90332,12.63037,20,11.189,20,9.5c0-2.20923-3.58173-4-8-4" fill="none" stroke="#323232" stroke-linecap="round" stroke-linejoin="round" stroke-width="1.5"/><path d="M20,9.5v4c0,1.6781-2.06946,3.11267-5,3.70642" fill="none" stroke="#323232" stroke-linecap="round" stroke-linejoin="round" stroke-width="1.5"/><path d="M9,17.20642C6.06946,16.61267,4,15.1781,4,13.5v-4" fill="none" stroke="#323232" stroke-linecap="round" stroke-linejoin="round" stroke-width="1.5"/><rect x="9" y="12.5" width="6" height="6" rx="1" stroke-width="1.5" stroke="#323232" stroke-linecap="round" stroke-linejoin="round" fill="none"/><line x1="15" y1="15.5" x2="13" y2="15.5" fill="none" stroke="#323232" stroke-linecap="round" stroke-linejoin="round" stroke-width="1.5"/></svg>