<svg id="Layer_3" data-name="Layer 3" xmlns="http://www.w3.org/2000/svg" viewBox="0 0 24 24"><title>benzene-ring</title><path d="M13.036,3.278l6,3.464a2.072,2.072,0,0,1,1.036,1.794v6.928a2.072,2.072,0,0,1-1.036,1.794l-6,3.464a2.068,2.068,0,0,1-2.072,0l-6-3.464a2.072,2.072,0,0,1-1.036-1.794V8.536A2.072,2.072,0,0,1,4.964,6.742l6-3.464A2.068,2.068,0,0,1,13.036,3.278Z" fill="none" stroke="#323232" stroke-linecap="round" stroke-linejoin="round" stroke-width="1.5"/><line x1="7.642" y1="8.743" x2="11.358" y2="6.597" fill="none" stroke="#323232" stroke-linecap="round" stroke-linejoin="round" stroke-width="1.5"/><line x1="11.358" y1="17.403" x2="7.642" y2="15.257" fill="none" stroke="#323232" stroke-linecap="round" stroke-linejoin="round" stroke-width="1.5"/><line x1="17" y1="9.854" x2="17" y2="14.146" fill="none" stroke="#323232" stroke-linecap="round" stroke-linejoin="round" stroke-width="1.5"/><rect width="24" height="24" fill="none"/></svg>