<svg id="Layer_3" data-name="Layer 3" xmlns="http://www.w3.org/2000/svg" viewBox="0 0 24 24"><path d="M9.75,6.85714V8.14285A.85746.85746,0,0,1,8.89285,9H7.60714A.85745.85745,0,0,1,6.75,8.14285V6.85714A.85746.85746,0,0,1,7.60714,6H8.89285A.85746.85746,0,0,1,9.75,6.85714Z" fill="none" stroke="#323232" stroke-linecap="round" stroke-linejoin="round" stroke-width="1.5"/><path d="M9.75,16.5h0A1.5,1.5,0,0,1,8.25,18h0a1.5,1.5,0,0,1-1.5-1.5h0A1.5,1.5,0,0,1,8.25,15h0A1.5,1.5,0,0,1,9.75,16.5Z" fill="none" stroke="#323232" stroke-linecap="round" stroke-linejoin="round" stroke-width="1.5"/><path d="M17.75,12.85715v1.28572A.85746.85746,0,0,1,16.89285,15H15.60714a.85745.85745,0,0,1-.85714-.85714V12.85715A.85745.85745,0,0,1,15.60714,12h1.28571A.85691.85691,0,0,1,17.75,12.85715Z" fill="none" stroke="#323232" stroke-linecap="round" stroke-linejoin="round" stroke-width="1.5"/><path d="M8.25,9h0a4.5,4.5,0,0,0,4.5,4.5h2" fill="none" stroke="#323232" stroke-linecap="round" stroke-linejoin="round" stroke-width="1.5"/><line x1="8.25" y1="8.99999" x2="8.25" y2="15.00001" fill="none" stroke="#323232" stroke-linecap="round" stroke-linejoin="round" stroke-width="1.5"/><rect x="3" y="3" width="18" height="18" rx="4" transform="translate(24) rotate(90)" stroke-width="1.5" stroke="#323232" stroke-linecap="round" stroke-linejoin="round" fill="none"/><path d="M0,0H24V24H0Z" fill="none"/></svg>