<svg id="Layer_3" data-name="Layer 3" xmlns="http://www.w3.org/2000/svg" viewBox="0 0 24 24"><title>bezier-curve-cricle</title><path d="M8,11H8A1.5,1.5,0,0,1,6.5,9.5h0A1.5,1.5,0,0,1,8,8H8A1.5,1.5,0,0,1,9.5,9.5h0A1.5,1.5,0,0,1,8,11Z" fill="none" stroke="#323232" stroke-linecap="round" stroke-linejoin="round" stroke-width="1.5"/><path d="M16.5,11h-1a1,1,0,0,1-1-1V9a1,1,0,0,1,1-1h1a1,1,0,0,1,1,1v1A1,1,0,0,1,16.5,11Z" fill="none" stroke="#323232" stroke-linecap="round" stroke-linejoin="round" stroke-width="1.5"/><path d="M10.99971,17.5h-.99942A1.00114,1.00114,0,0,1,9,16.49971v-.99942A1.00114,1.00114,0,0,1,10.00029,14.5h.99942A1.00114,1.00114,0,0,1,12,15.50029v.99942A1.00114,1.00114,0,0,1,10.99971,17.5Z" fill="none" stroke="#323232" stroke-linecap="round" stroke-linejoin="round" stroke-width="1.5"/><line x1="9.5" y1="9.5" x2="14.5" y2="9.5" fill="none" stroke="#323232" stroke-linecap="round" stroke-linejoin="round" stroke-width="1.5"/><path d="M10.5,14.5v-1a4,4,0,0,1,4-4h0" fill="none" stroke="#323232" stroke-linecap="round" stroke-linejoin="round" stroke-width="1.5"/><rect width="24" height="24" fill="none"/><circle cx="12" cy="12" r="9" fill="none" stroke="#323232" stroke-linecap="round" stroke-linejoin="round" stroke-width="1.5"/></svg>