<svg id="Layer_3" data-name="Layer 3" xmlns="http://www.w3.org/2000/svg" viewBox="0 0 24 24"><path d="M8.71,10.29l1.58-1.58" fill="none" stroke="#323232" stroke-linecap="round" stroke-linejoin="round" stroke-width="1.5"/><path d="M12,9H11a1.00036,1.00036,0,0,1-1-1V7a1.00036,1.00036,0,0,1,1-1h1a1.00036,1.00036,0,0,1,1,1V8A1.00036,1.00036,0,0,1,12,9Z" fill="none" stroke="#323232" stroke-linecap="round" stroke-linejoin="round" stroke-width="1.5"/><path d="M8,13H7a1.00036,1.00036,0,0,1-1-1V11a1.00036,1.00036,0,0,1,1-1H8a1.00036,1.00036,0,0,1,1,1v1A1.00036,1.00036,0,0,1,8,13Z" fill="none" stroke="#323232" stroke-linecap="round" stroke-linejoin="round" stroke-width="1.5"/><path d="M15,11.5h-.808A2.69168,2.69168,0,0,0,11.5,14.192V15" fill="none" stroke="#323232" stroke-linecap="round" stroke-linejoin="round" stroke-width="1.5"/><path d="M12,18H11a1.00036,1.00036,0,0,1-1-1V16a1.00036,1.00036,0,0,1,1-1h1a1.00036,1.00036,0,0,1,1,1v1A1.00036,1.00036,0,0,1,12,18Z" fill="none" stroke="#323232" stroke-linecap="round" stroke-linejoin="round" stroke-width="1.5"/><path d="M17,13H16a1.00036,1.00036,0,0,1-1-1V11a1.00036,1.00036,0,0,1,1-1h1a1.00036,1.00036,0,0,1,1,1v1A1.00036,1.00036,0,0,1,17,13Z" fill="none" stroke="#323232" stroke-linecap="round" stroke-linejoin="round" stroke-width="1.5"/><circle cx="12" cy="12" r="9.5" fill="none" stroke="#323232" stroke-linecap="round" stroke-linejoin="round" stroke-width="1.5"/><path d="M0,0H24V24H0Z" fill="none"/></svg>