<svg id="Layer_3" data-name="Layer 3" xmlns="http://www.w3.org/2000/svg" viewBox="0 0 24 24"><title>bezier-curve-edt</title><rect x="3" y="3" width="18" height="18" rx="5" stroke-width="1.5" stroke="#323232" stroke-linecap="round" stroke-linejoin="round" fill="none"/><path d="M14.5,9,9,9" fill="none" stroke="#323232" stroke-linecap="round" stroke-linejoin="round" stroke-width="1.5"/><path d="M7.5,10.5h0A1.5,1.5,0,0,1,6,9H6A1.5,1.5,0,0,1,7.5,7.5h0A1.5,1.5,0,0,1,9,9H9A1.5,1.5,0,0,1,7.5,10.5Z" fill="none" stroke="#323232" stroke-linecap="round" stroke-linejoin="round" stroke-width="1.5"/><path d="M16.833,10.75H15.667A1.168,1.168,0,0,1,14.5,9.583V8.417A1.168,1.168,0,0,1,15.667,7.25h1.166A1.168,1.168,0,0,1,18,8.417V9.583A1.168,1.168,0,0,1,16.833,10.75Z" fill="none" stroke="#323232" stroke-linecap="round" stroke-linejoin="round" stroke-width="1.5"/><path d="M10.583,18H9.417A1.168,1.168,0,0,1,8.25,16.833V15.667A1.168,1.168,0,0,1,9.417,14.5h1.166a1.168,1.168,0,0,1,1.167,1.167v1.166A1.168,1.168,0,0,1,10.583,18Z" fill="none" stroke="#323232" stroke-linecap="round" stroke-linejoin="round" stroke-width="1.5"/><path d="M14.5,9.667H14a4,4,0,0,0-4,4V14.5" fill="none" stroke="#323232" stroke-linecap="round" stroke-linejoin="round" stroke-width="1.5"/><rect width="24" height="24" fill="none"/></svg>