<svg id="Layer_3" data-name="Layer 3" xmlns="http://www.w3.org/2000/svg" viewBox="0 0 24 24"><title>bin-box-arrow-up</title><path d="M0,0H24V24H0Z" fill="none"/><path d="M20.525,8H3.475A.974.974,0,0,1,2.5,7.027V4.975A.974.974,0,0,1,3.473,4H20.526a.974.974,0,0,1,.974.974V7.026A.974.974,0,0,1,20.526,8Z" fill="none" stroke="#323232" stroke-linecap="round" stroke-linejoin="round" stroke-width="1.5"/><path d="M17.16,20H6.84a2,2,0,0,1-1.993-1.834L4,8H20l-.847,10.166A2,2,0,0,1,17.16,20Z" fill="none" stroke="#323232" stroke-linecap="round" stroke-linejoin="round" stroke-width="1.5"/><line x1="12" y1="12" x2="12" y2="16.34913" fill="none" stroke="#323232" stroke-linecap="round" stroke-linejoin="round" stroke-width="1.5"/><polyline points="14 14 12 12 10 14" fill="none" stroke="#323232" stroke-linecap="round" stroke-linejoin="round" stroke-width="1.5"/></svg>