<svg id="Layer_3" data-name="Layer 3" xmlns="http://www.w3.org/2000/svg" viewBox="0 0 24 24"><title>bin-box-checkmark</title><path d="M0,0H24V24H0Z" fill="none"/><path d="M20.525,8H3.475A.974.974,0,0,1,2.5,7.025V4.975A.974.974,0,0,1,3.475,4H20.526a.974.974,0,0,1,.974.975V7.026A.974.974,0,0,1,20.525,8Z" fill="none" stroke="#323232" stroke-linecap="round" stroke-linejoin="round" stroke-width="1.5"/><path d="M17.16,20H6.84a2,2,0,0,1-1.993-1.834L4,8H20l-.847,10.166A2,2,0,0,1,17.16,20Z" fill="none" stroke="#323232" stroke-linecap="round" stroke-linejoin="round" stroke-width="1.5"/><path d="M13.556,12.556,11.612,14.5l-1.168-1.167" fill="none" stroke="#323232" stroke-linecap="round" stroke-linejoin="round" stroke-width="1.5"/></svg>