<svg id="Layer_3" data-name="Layer 3" xmlns="http://www.w3.org/2000/svg" viewBox="0 0 24 24"><title>binoculars-search-square</title><path d="M10.594,14.666V8.508A1.507,1.507,0,0,0,9.087,7h0a1.509,1.509,0,0,0-1.46,1.129L6.07,14.139" fill="none" stroke="#323232" stroke-linecap="round" stroke-linejoin="round" stroke-width="1.5"/><path d="M9.922,13.078a2.3,2.3,0,1,1-3.249,0,2.3,2.3,0,0,1,3.249,0" fill="none" stroke="#323232" stroke-width="1.5"/><path d="M17.93,14.139l-1.557-6.01A1.509,1.509,0,0,0,14.913,7h0a1.507,1.507,0,0,0-1.507,1.508v6.158" fill="none" stroke="#323232" stroke-linecap="round" stroke-linejoin="round" stroke-width="1.5"/><path d="M14.078,13.078a2.3,2.3,0,1,1,0,3.249,2.3,2.3,0,0,1,0-3.249" fill="none" stroke="#323232" stroke-width="1.5"/><line x1="10.595" y1="9.5" x2="13.405" y2="9.5" fill="none" stroke="#323232" stroke-linecap="round" stroke-linejoin="round" stroke-width="1.5"/><line x1="10.595" y1="13.5" x2="13.405" y2="13.5" fill="none" stroke="#323232" stroke-linecap="round" stroke-linejoin="round" stroke-width="1.5"/><rect x="3" y="3" width="18" height="18" rx="4" stroke-width="1.5" stroke="#323232" stroke-linecap="round" stroke-linejoin="round" fill="none"/><path d="M0,0H24V24H0Z" fill="none"/></svg>