<svg id="Layer_3" data-name="Layer 3" xmlns="http://www.w3.org/2000/svg" viewBox="0 0 24 24"><title>binoculars-search-circle</title><path d="M9.922,12.078a2.3,2.3,0,1,1-3.249,0,2.3,2.3,0,0,1,3.249,0" fill="none" stroke="#323232" stroke-width="1.5"/><path d="M14.078,12.078a2.3,2.3,0,1,1,0,3.249,2.3,2.3,0,0,1,0-3.249" fill="none" stroke="#323232" stroke-width="1.5"/><line x1="10.594" y1="9.2" x2="13.406" y2="9.2" fill="none" stroke="#323232" stroke-linecap="round" stroke-linejoin="round" stroke-width="1.5"/><line x1="10.595" y1="13.4" x2="13.405" y2="13.4" fill="none" stroke="#323232" stroke-linecap="round" stroke-linejoin="round" stroke-width="1.5"/><path d="M10.594,13.666V9.112A1.712,1.712,0,0,0,8.882,7.4h0A1.711,1.711,0,0,0,7.225,8.683L6.07,13.139" fill="none" stroke="#323232" stroke-width="1.5"/><path d="M17.93,13.139,16.775,8.683A1.711,1.711,0,0,0,15.118,7.4h0a1.712,1.712,0,0,0-1.712,1.712v4.554" fill="none" stroke="#323232" stroke-width="1.5"/><circle cx="12" cy="12" r="9" fill="none" stroke="#323232" stroke-linecap="round" stroke-linejoin="round" stroke-width="1.5"/><path d="M0,0H24V24H0Z" fill="none"/></svg>