<svg id="Layer_3" data-name="Layer 3" xmlns="http://www.w3.org/2000/svg" viewBox="0 0 24 24"><rect width="24" height="24" fill="none"/><line x1="16.94058" y1="5" x2="5.05923" y2="5" fill="none" stroke="#323232" stroke-linecap="round" stroke-linejoin="round" stroke-width="1.5"/><line x1="11" y1="16" x2="11" y2="9" fill="none" stroke="#323232" stroke-linecap="round" stroke-linejoin="round" stroke-width="1.5"/><line x1="10" y1="13" x2="12" y2="13" fill="none" stroke="#323232" stroke-linecap="round" stroke-linejoin="round" stroke-width="1.5"/><line x1="10" y1="10" x2="12" y2="10" fill="none" stroke="#323232" stroke-linecap="round" stroke-linejoin="round" stroke-width="1.5"/><path d="M16.23384,14h1.49327a2,2,0,0,0,1.99179-1.81893l.27272-3A2,2,0,0,0,17.99984,7H16.8702" fill="none" stroke="#323232" stroke-linecap="round" stroke-linejoin="round" stroke-width="1.5"/><path d="M16.052,16l.93976-10.33739a2,2,0,0,0-.28846-1.22926l-.326-.52972A4,4,0,0,0,12.97067,2l-3.94141,0A4,4,0,0,0,5.62268,3.90363l-.326.52972a2,2,0,0,0-.28847,1.22928L5.948,16h.104" fill="none" stroke="#323232" stroke-linecap="round" stroke-linejoin="round" stroke-width="1.5"/><path d="M17.96635,19.5835l-.34552-1.90036A2.04983,2.04983,0,0,0,15.60407,16H6.39593a2.04983,2.04983,0,0,0-2.01676,1.68314L4.03365,19.5835A2.04982,2.04982,0,0,0,6.05041,22h9.89918A2.04982,2.04982,0,0,0,17.96635,19.5835Z" fill="none" stroke="#323232" stroke-linecap="round" stroke-linejoin="round" stroke-width="1.5"/><path d="M11.05,18.92715a.05.05,0,1,1-.05006-.05006.05.05,0,0,1,.05006.05006" fill="none" stroke="#323232" stroke-linecap="round" stroke-linejoin="round" stroke-width="1.5"/></svg>