<svg id="Layer_3" data-name="Layer 3" xmlns="http://www.w3.org/2000/svg" viewBox="0 0 24 24"><title>blogger-circle</title><path d="M12.327,11.79H8V9.9A1.9,1.9,0,0,1,9.9,8h2.431a1.894,1.894,0,0,1,1.895,1.894h0A1.9,1.9,0,0,1,12.327,11.79Z" fill="none" stroke="#323232" stroke-linecap="round" stroke-linejoin="round" stroke-width="1.5"/><path d="M8,11.79h6.106A1.894,1.894,0,0,1,16,13.684v.421A1.894,1.894,0,0,1,14.106,16H9.9A1.9,1.9,0,0,1,8,14.1Z" fill="none" stroke="#323232" stroke-linecap="round" stroke-linejoin="round" stroke-width="1.5"/><circle cx="12" cy="12" r="9" fill="none" stroke="#323232" stroke-linecap="round" stroke-linejoin="round" stroke-width="1.5"/><path d="M0,24V0H24V24Z" fill="none"/><path d="M0,24V0H24V24Z" fill="none"/></svg>