<?xml version="1.0" encoding="utf-8"?>
<!-- Generator: Adobe Illustrator 24.0.2, SVG Export Plug-In . SVG Version: 6.00 Build 0)  -->
<svg version="1.1" id="Layer_1" xmlns="http://www.w3.org/2000/svg" xmlns:xlink="http://www.w3.org/1999/xlink" x="0px" y="0px"
	 width="24px" height="24px" viewBox="0 0 24 24" enable-background="new 0 0 24 24" xml:space="preserve">
<g>
	<path fill="none" d="M0,0h24v24H0V0z"/>
	<g>
		<path fill="none" stroke="#323232" stroke-width="1.5" stroke-linecap="round" stroke-linejoin="round" d="M3,18.625L3,18.625
			c1.1-0.5,2.5-0.5,3.6,0l0,0c1.1,0.5,2.5,0.5,3.6,0l0,0c1.1-0.5,2.5-0.5,3.6,0l0,0c1.1,0.5,2.5,0.5,3.6,0l0,0
			c1.1-0.5,2.5-0.5,3.6,0l0,0"/>
		<path fill="none" stroke="#323232" stroke-width="1.5" stroke-linecap="round" stroke-linejoin="round" d="M6.6,21.625L6.6,21.625
			c1.1,0.5,2.5,0.5,3.6,0l0,0c1.1-0.5,2.5-0.5,3.6,0l0,0c1.1,0.5,2.5,0.5,3.6,0l0,0"/>
		<path fill="none" stroke="#323232" stroke-width="1.5" stroke-linecap="round" stroke-linejoin="round" d="M14,12V3.741
			c0-0.86,1.116-1.198,1.593-0.482l4.926,7.39C20.905,11.226,20.491,12,19.796,12H14z"/>
		<path fill="none" stroke="#323232" stroke-width="1.5" stroke-linecap="round" stroke-linejoin="round" d="M11,15V2.954
			c0-0.942-1.222-1.312-1.745-0.528L3.86,10.519C3.438,11.152,3.891,12,4.652,12H11"/>
		<polyline fill="none" stroke="#323232" stroke-width="1.5" stroke-linecap="round" stroke-linejoin="round" points="19.9,18.3 
			21,15 3.75,15 5.394,18.289 		"/>
	</g>
</g>
</svg>
