<?xml version="1.0" encoding="utf-8"?>
<!-- Generator: Adobe Illustrator 24.0.2, SVG Export Plug-In . SVG Version: 6.00 Build 0)  -->
<svg version="1.1" id="Layer_1" xmlns="http://www.w3.org/2000/svg" xmlns:xlink="http://www.w3.org/1999/xlink" x="0px" y="0px"
	 width="24px" height="24px" viewBox="0 0 24 24" enable-background="new 0 0 24 24" xml:space="preserve">
<g>
	<g>
		
			<path fill="none" stroke="#323232" stroke-width="1.5" stroke-linecap="round" stroke-linejoin="round" stroke-miterlimit="10" d="
			M9.237,6.866V4.461c0-0.487,0.395-0.882,0.882-0.882h3.762c0.487,0,0.882,0.395,0.882,0.882v2.405"/>
		
			<path fill="none" stroke="#323232" stroke-width="1.5" stroke-linecap="round" stroke-linejoin="round" stroke-miterlimit="10" d="
			M6.474,11.382v-2.75c0-0.975,0.79-1.765,1.765-1.765h7.523c0.975,0,1.765,0.79,1.765,1.765v2.75"/>
		
			<line fill="none" stroke="#323232" stroke-width="1.5" stroke-linecap="round" stroke-linejoin="round" stroke-miterlimit="10" x1="12" y1="2" x2="12" y2="3.579"/>
		
			<polyline fill="none" stroke="#323232" stroke-width="1.5" stroke-linecap="round" stroke-linejoin="round" stroke-miterlimit="10" points="
			16.685,17.631 18,15 20,12 12,10 4,12 6,15 6.879,17.49 		"/>
		<path fill="none" stroke="#323232" stroke-width="1.5" stroke-linecap="round" stroke-linejoin="round" d="M3,17.4L3,17.4
			c1.1-0.5,2.5-0.5,3.6,0l0,0c1.1,0.5,2.5,0.5,3.6,0l0,0c1.1-0.5,2.5-0.5,3.6,0l0,0c1.1,0.5,2.5,0.5,3.6,0l0,0
			c1.1-0.5,2.5-0.5,3.6,0l0,0"/>
		<path fill="none" stroke="#323232" stroke-width="1.5" stroke-linecap="round" stroke-linejoin="round" d="M6.6,20.625L6.6,20.625
			c1.1,0.5,2.5,0.5,3.6,0l0,0c1.1-0.5,2.5-0.5,3.6,0l0,0c1.1,0.5,2.5,0.5,3.6,0l0,0"/>
	</g>
	<path fill="none" d="M0,0h24v24H0V0z"/>
</g>
</svg>
