<svg id="Layer_3" data-name="Layer 3" xmlns="http://www.w3.org/2000/svg" viewBox="0 0 24 24"><path d="M0,0H24V24H0Z" fill="none"/><line x1="6.5" y1="9" x2="6.5" y2="6" fill="none" stroke="#323232" stroke-linecap="round" stroke-linejoin="round" stroke-width="1.5"/><line x1="11.5" y1="9" x2="11.5" y2="6" fill="none" stroke="#323232" stroke-linecap="round" stroke-linejoin="round" stroke-width="1.5"/><path d="M5,4.5v1a.5.5,0,0,0,.5.5h7a.5.5,0,0,0,.5-.5V3H6.5A1.5,1.5,0,0,0,5,4.5Z" fill="none" stroke="#323232" stroke-linecap="round" stroke-linejoin="round" stroke-width="1.5"/><path d="M14,13V10.5A1.5,1.5,0,0,0,12.5,9h-7A1.5,1.5,0,0,0,4,10.5v9A1.5,1.5,0,0,0,5.5,21H9" fill="none" stroke="#323232" stroke-linecap="round" stroke-linejoin="round" stroke-width="1.5"/><line x1="15" y1="3" x2="13" y2="3" fill="none" stroke="#323232" stroke-linecap="round" stroke-linejoin="round" stroke-width="1.5"/><path d="M17.5,18a2,2,0,1,0,0-4c0,.82839-.89544,1.5-2,1.5h-.75a1.25,1.25,0,0,0,0,2.5H13.5A1.5,1.5,0,0,0,12,19.5h0A1.5,1.5,0,0,0,13.5,21h6A1.5,1.5,0,0,0,21,19.5h0A1.5,1.5,0,0,0,19.5,18Z" fill="none" stroke="#323232" stroke-linecap="round" stroke-linejoin="round" stroke-width="1.5"/></svg>