<svg id="Layer_3" data-name="Layer 3" xmlns="http://www.w3.org/2000/svg" viewBox="0 0 24 24"><path d="M11.5,9h-4V7a1,1,0,0,1,1-1h2a1,1,0,0,1,1,1Z" fill="none" stroke="#323232" stroke-linecap="round" stroke-linejoin="round" stroke-width="1.5"/><path d="M15,12.714A3.714,3.714,0,0,0,11.286,9H7.714A3.714,3.714,0,0,0,4,12.714V19a2,2,0,0,0,2,2H9" fill="none" stroke="#323232" stroke-linecap="round" stroke-linejoin="round" stroke-width="1.5"/><path d="M17.5,18a2,2,0,1,0,0-4c0,.82839-.89544,1.5-2,1.5h-.75a1.25,1.25,0,0,0,0,2.5H13.5A1.5,1.5,0,0,0,12,19.5h0A1.5,1.5,0,0,0,13.5,21h6A1.5,1.5,0,0,0,21,19.5h0A1.5,1.5,0,0,0,19.5,18Z" fill="none" stroke="#323232" stroke-linecap="round" stroke-linejoin="round" stroke-width="1.5"/><path d="M13.5,4l-.414-.414A2,2,0,0,0,11.672,3H6.5" fill="none" stroke="#323232" stroke-linecap="round" stroke-linejoin="round" stroke-width="1.5"/><line x1="9.5" y1="6" x2="9.5" y2="3" fill="none" stroke="#323232" stroke-linecap="round" stroke-linejoin="round" stroke-width="1.5"/><path d="M0,0H24V24H0Z" fill="none"/></svg>