<svg id="Layer_3" data-name="Layer 3" xmlns="http://www.w3.org/2000/svg" viewBox="0 0 24 24"><title>body-care-cream</title><rect x="5" y="7" width="14" height="4" rx="1.5" stroke-width="1.5" stroke="#323232" stroke-linecap="round" stroke-linejoin="round" fill="none"/><path d="M9.25,7c1.125,0,2.25-1.125,2.25-4.5C16,2.5,16,7,16,7" fill="none" stroke="#323232" stroke-linecap="round" stroke-linejoin="round" stroke-width="1.5"/><path d="M6.5,11h11a3,3,0,0,1,3,3v3a4,4,0,0,1-4,4h-9a4,4,0,0,1-4-4V14a3,3,0,0,1,3-3Z" fill="none" stroke="#323232" stroke-linecap="round" stroke-linejoin="round" stroke-width="1.5"/><rect x="7.5" y="14.5" width="9" height="3" rx="0.833" stroke-width="1.5" stroke="#323232" stroke-linecap="round" stroke-linejoin="round" fill="none"/><path d="M0,0H24V24H0Z" fill="none"/></svg>