<?xml version="1.0" encoding="utf-8"?>
<!-- Generator: Adobe Illustrator 24.0.2, SVG Export Plug-In . SVG Version: 6.00 Build 0)  -->
<svg version="1.1" id="Layer_1" xmlns="http://www.w3.org/2000/svg" xmlns:xlink="http://www.w3.org/1999/xlink" x="0px" y="0px"
	 width="24px" height="24px" viewBox="0 0 24 24" enable-background="new 0 0 24 24" xml:space="preserve">
<g>
	<path fill="none" stroke="#323232" stroke-width="1.5" stroke-linecap="round" stroke-linejoin="round" d="M16.904,10.678h1.793
		c1.272,0,2.303-1.031,2.303-2.303v0c0-1.272-1.031-2.303-2.303-2.303l-0.768,0l0-0.768C17.929,4.031,16.897,3,15.625,3h0
		c-1.272,0-2.303,1.031-2.303,2.303v1.793c0,0.265-0.105,0.52-0.293,0.707l-5.226,5.226c-0.188,0.188-0.442,0.293-0.707,0.293H5.303
		C4.031,13.322,3,14.353,3,15.625v0c0,1.272,1.031,2.303,2.303,2.303l0.768,0l0,0.768C6.071,19.969,7.103,21,8.375,21h0
		c1.272,0,2.303-1.031,2.303-2.303v-1.793c0-0.265,0.105-0.52,0.293-0.707l5.226-5.226C16.385,10.783,16.639,10.678,16.904,10.678z"
		/>
	<path fill="none" d="M0,0h24v24H0V0z"/>
</g>
</svg>
