<?xml version="1.0" encoding="utf-8"?>
<!-- Generator: Adobe Illustrator 24.0.2, SVG Export Plug-In . SVG Version: 6.00 Build 0)  -->
<svg version="1.1" id="Layer_1" xmlns="http://www.w3.org/2000/svg" xmlns:xlink="http://www.w3.org/1999/xlink" x="0px" y="0px"
	 width="24px" height="24px" viewBox="0 0 24 24" enable-background="new 0 0 24 24" xml:space="preserve">
<g>
	<g>
		<path fill="none" stroke="#323232" stroke-width="1.5" stroke-linecap="round" stroke-linejoin="round" d="M17.729,6.271
			c0.075,0.075,0.075,0.196,0,0.271c-0.075,0.075-0.196,0.075-0.271,0c-0.075-0.075-0.075-0.196,0-0.271
			C17.533,6.197,17.654,6.197,17.729,6.271"/>
		<path fill="none" stroke="#323232" stroke-width="1.5" stroke-linecap="round" stroke-linejoin="round" d="M16.141,3h2.834
			C20.093,3,21,3.907,21,5.025v2.834c0,0.537-0.213,1.052-0.593,1.432l-6.116,6.116c-0.791,0.791-2.073,0.791-2.864,0l-2.834-2.834
			c-0.791-0.791-0.791-2.073,0-2.864l6.116-6.116C15.089,3.213,15.604,3,16.141,3z"/>
		<g>
			<g>
				<path fill="none" stroke="#323232" stroke-width="1.5" stroke-linecap="round" stroke-linejoin="round" d="M20,14v4.167
					C20,19.732,18.732,21,17.167,21H5.833C4.268,21,3,19.732,3,18.167V6.833C3,5.268,4.268,4,5.833,4H10"/>
			</g>
		</g>
	</g>
	<path fill="none" d="M0,0h24v24H0V0z"/>
</g>
</svg>
