<svg id="Layer_3" data-name="Layer 3" xmlns="http://www.w3.org/2000/svg" viewBox="0 0 24 24"><title>book-square</title><path d="M12,9.168A8.8,8.8,0,0,0,7.946,8,.886.886,0,0,0,7,8.892V15a.9.9,0,0,0,.852.885A8.207,8.207,0,0,1,12,17.07a8.207,8.207,0,0,1,4.148-1.185A.9.9,0,0,0,17,15V8.892A.886.886,0,0,0,16.054,8,8.8,8.8,0,0,0,12,9.168Z" fill="none" stroke="#323232" stroke-linecap="round" stroke-linejoin="round" stroke-width="1.5"/><rect x="3" y="3" width="18" height="18" rx="5" stroke-width="1.5" stroke="#323232" stroke-linecap="round" stroke-linejoin="round" fill="none"/><path d="M12,9.167v7.9" fill="none" stroke="#323232" stroke-linecap="round" stroke-linejoin="round" stroke-width="1.5"/><path d="M0,0H24V24H0Z" fill="none"/></svg>