<?xml version="1.0" encoding="utf-8"?>
<!-- Generator: Adobe Illustrator 24.0.2, SVG Export Plug-In . SVG Version: 6.00 Build 0)  -->
<svg version="1.1" id="Layer_3" xmlns="http://www.w3.org/2000/svg" xmlns:xlink="http://www.w3.org/1999/xlink" x="0px" y="0px"
	 width="24px" height="24px" viewBox="0 0 24 24" enable-background="new 0 0 24 24" xml:space="preserve">
<g>
	<path fill="none" d="M0,0h24v24H0V0z"/>
	<g>
		<path fill="none" stroke="#323232" stroke-width="1.5" stroke-linecap="round" stroke-linejoin="round" d="M12,8.051
			c-1.258-1.258-3.217-1.387-4.619-0.388C7.089,7.872,6.923,8.217,6.923,8.576v7.308c0,0.437,0.465,0.69,0.851,0.485
			C9.132,15.645,10.856,15.855,12,17V8.051c1.258-1.258,3.217-1.387,4.619-0.388c0.292,0.208,0.458,0.553,0.458,0.912v7.308
			c0,0.437-0.465,0.69-0.851,0.485C14.868,15.645,13.144,15.855,12,17"/>
		<path fill="none" stroke="#323232" stroke-width="1.5" stroke-linecap="round" stroke-linejoin="round" d="M17,21H7
			c-2.209,0-4-1.791-4-4V7c0-2.209,1.791-4,4-4h10c2.209,0,4,1.791,4,4v10C21,19.209,19.209,21,17,21z"/>
	</g>
</g>
</svg>
