<?xml version="1.0" encoding="UTF-8"?><svg version="1.1" viewBox="0 0 24 24" xmlns="http://www.w3.org/2000/svg" xmlns:xlink="http://www.w3.org/1999/xlink"><!--Generated by IJSVG (https://github.com/iconjar/IJSVG)--><g fill="none"><path d="M0,24v-24h24v24h-24Z"></path><path stroke="#323232" stroke-linecap="round" stroke-linejoin="round" stroke-width="1.5" d="M4,9v10.996c0,0.759 0.807,1.244 1.474,0.881c1.629,-0.889 4.026,-2.196 4.026,-2.196c0,0 2.397,1.308 4.026,2.196c0.667,0.363 1.474,-0.122 1.474,-0.881v-10.996c0,-1.105 -0.895,-2 -2,-2h-7c-1.104,0 -2,0.895 -2,2Z"></path><path stroke="#323232" stroke-linecap="round" stroke-linejoin="round" stroke-width="1.5" d="M9,7v-2c0,-1.105 0.895,-2 2,-2h7c1.105,0 2,0.895 2,2v11.043c0,0.759 -0.812,1.241 -1.479,0.878l-3.521,-1.921"></path></g></svg>