<?xml version="1.0" encoding="utf-8"?>
<!-- Generator: Adobe Illustrator 24.0.2, SVG Export Plug-In . SVG Version: 6.00 Build 0)  -->
<svg version="1.1" id="Layer_1" xmlns="http://www.w3.org/2000/svg" xmlns:xlink="http://www.w3.org/1999/xlink" x="0px" y="0px"
	 width="24px" height="24px" viewBox="0 0 24 24" enable-background="new 0 0 24 24" xml:space="preserve">
<g>
	<path fill="none" d="M0,0h24v24H0V0z"/>
	<g>
		<path fill="none" stroke="#323232" stroke-width="1.5" stroke-linecap="round" stroke-linejoin="round" d="M12,8.889
			c-0.991-0.991-2.535-1.093-3.639-0.306C8.131,8.748,8,9.02,8,9.303v5.758c0,0.344,0.366,0.544,0.67,0.382
			c1.07-0.57,2.428-0.405,3.33,0.497V8.889c0.991-0.991,2.535-1.093,3.639-0.306C15.869,8.747,16,9.019,16,9.302v5.758
			c0,0.344-0.366,0.544-0.67,0.382c-1.07-0.57-2.428-0.404-3.33,0.498"/>
		
			<circle fill="none" stroke="#323232" stroke-width="1.5" stroke-linecap="round" stroke-linejoin="round" stroke-miterlimit="10" cx="12" cy="12" r="9"/>
	</g>
</g>
</svg>
