<svg id="Layer_3" data-name="Layer 3" xmlns="http://www.w3.org/2000/svg" viewBox="0 0 24 24"><title>bookmarks-label-tag-delete-cross-square</title><rect x="3" y="3" width="18" height="18" rx="5" transform="translate(24 24) rotate(180)" stroke-width="1.5" stroke="#323232" stroke-linecap="round" stroke-linejoin="round" fill="none"/><line x1="19.528" y1="4.472" x2="4.465" y2="19.536" fill="none" stroke="#323232" stroke-linecap="round" stroke-linejoin="round" stroke-width="1.5"/><path d="M9.614,9.541a.05.05,0,0,1,0,.071.05.05,0,0,1-.07,0,.05.05,0,0,1,0-.071.05.05,0,0,1,.07,0" fill="none" stroke="#323232" stroke-linecap="round" stroke-linejoin="round" stroke-width="1.5"/><path d="M16.072,11.228l1.07,1.07a1.222,1.222,0,0,1,0,1.729L14.03,17.142a1.223,1.223,0,0,1-1.73,0l-1.071-1.071" fill="none" stroke="#323232" stroke-linecap="round" stroke-linejoin="round" stroke-width="1.5"/><path d="M12.773,7.927,11.7,6.855a1.212,1.212,0,0,0-.866-.355l-1.741.016a1.207,1.207,0,0,0-.846.354L6.855,8.264A1.211,1.211,0,0,0,6.5,9.12v1.718a1.208,1.208,0,0,0,.355.856L7.93,12.77" fill="none" stroke="#323232" stroke-linecap="round" stroke-linejoin="round" stroke-width="1.5"/><path d="M0,0H24V24H0Z" fill="none"/></svg>