<?xml version="1.0" encoding="utf-8"?>
<!-- Generator: Adobe Illustrator 24.0.2, SVG Export Plug-In . SVG Version: 6.00 Build 0)  -->
<svg version="1.1" id="Layer_1" xmlns="http://www.w3.org/2000/svg" xmlns:xlink="http://www.w3.org/1999/xlink" x="0px" y="0px"
	 width="24px" height="24px" viewBox="0 0 24 24" enable-background="new 0 0 24 24" xml:space="preserve">
<g>
	<g>
		<path fill="none" stroke="#323232" stroke-width="1.5" stroke-linecap="round" stroke-linejoin="round" d="M15.807,7.193
			c0.145,0.145,0.145,0.38,0,0.525s-0.38,0.145-0.525,0c-0.145-0.145-0.145-0.38,0-0.525C15.428,7.048,15.662,7.048,15.807,7.193"/>
		<path fill="none" stroke="#323232" stroke-width="1.5" stroke-linecap="round" stroke-linejoin="round" d="M18.074,12.284
			l1.309-1.309C19.778,10.579,20,10.045,20,9.487V5.102C20,3.941,19.059,3,17.896,3h-4.385c-0.557,0-1.092,0.222-1.485,0.616
			l-8.41,8.41c-0.821,0.821-0.821,2.152,0,2.973l4.385,4.385c0.821,0.821,2.152,0.821,2.973,0l1.31-1.31"/>
		<path fill="none" stroke="#323232" stroke-width="1.5" stroke-linecap="round" stroke-linejoin="round" d="M18.25,15.625
			l-2.188,2.188L14.75,16.5"/>
		<path fill="none" stroke="#323232" stroke-width="1.5" stroke-linecap="round" stroke-linejoin="round" d="M16.5,21
			c-2.485,0-4.5-2.015-4.5-4.5c0-2.434,2.07-4.502,4.503-4.5C18.987,12.002,21,14.016,21,16.5C21,18.985,18.986,21,16.5,21"/>
	</g>
	<path fill="none" d="M0,0h24v24H0V0z"/>
</g>
</svg>
