<?xml version="1.0" encoding="utf-8"?>
<!-- Generator: Adobe Illustrator 24.0.2, SVG Export Plug-In . SVG Version: 6.00 Build 0)  -->
<svg version="1.1" id="Layer_1" xmlns="http://www.w3.org/2000/svg" xmlns:xlink="http://www.w3.org/1999/xlink" x="0px" y="0px"
	 width="24px" height="24px" viewBox="0 0 24 24" style="enable-background:new 0 0 24 24;" xml:space="preserve">
<style type="text/css">
	.st0{fill:none;}
	.st1{fill:none;stroke:#323232;stroke-width:1.5;stroke-linecap:round;stroke-linejoin:round;}
</style>
<g>
	<path class="st0" d="M0,0h24v24H0V0z"/>
	<g>
		<path class="st1" d="M16,16v5l-6-3l-6,3V5c0-1.1,0.9-2,2-2h8c1.1,0,2,0.9,2,2v2"/>
		<path class="st1" d="M16,16c-2.5,0-4.5-2-4.5-4.5C11.5,9.1,13.6,7,16,7c2.5,0,4.5,2,4.5,4.5C20.5,14,18.5,16,16,16"/>
		<path class="st1" d="M17.5,11.5h-3"/>
	</g>
</g>
</svg>
