<svg id="Layer_3" data-name="Layer 3" xmlns="http://www.w3.org/2000/svg" viewBox="0 0 24 24"><title>bookmark-favorite-remove-delete</title><path d="M0,0H24V24H0Z" fill="none"/><path d="M15.006,4.765a8.523,8.523,0,1,0,4.229,4.229" fill="none" stroke="#323232" stroke-linecap="round" stroke-linejoin="round" stroke-width="1.5"/><path d="M8.778,15.417V10.556A1.167,1.167,0,0,1,9.944,9.389h3.112a1.167,1.167,0,0,1,1.166,1.167v4.861a.194.194,0,0,1-.307.158l-2.3-1.645a.2.2,0,0,0-.227,0l-2.3,1.645A.2.2,0,0,1,8.778,15.417Z" fill="none" stroke="#323232" stroke-linecap="round" stroke-linejoin="round" stroke-width="1.5"/><path d="M19,9a4,4,0,1,1,4-4,4,4,0,0,1-4,4" fill="none" stroke="#323232" stroke-linecap="round" stroke-linejoin="round" stroke-width="1.5"/><path d="M20,4,18,6" fill="none" stroke="#323232" stroke-linecap="round" stroke-linejoin="round" stroke-width="1.5"/><path d="M18,4l2,2" fill="none" stroke="#323232" stroke-linecap="round" stroke-linejoin="round" stroke-width="1.5"/></svg>