<svg id="Layer_3" data-name="Layer 3" xmlns="http://www.w3.org/2000/svg" viewBox="0 0 24 24"><title>book-fairy-tale</title><path d="M0,0H24V24H0Z" fill="none"/><path d="M15.17,14.573a.219.219,0,0,1,.295.261,3.605,3.605,0,0,1-.94,1.648,3.518,3.518,0,1,1-4.974-4.974,3.6,3.6,0,0,1,1.647-.941.218.218,0,0,1,.261.295,2.762,2.762,0,0,0,3.711,3.711Z" fill="none" stroke="#323232" stroke-linecap="round" stroke-linejoin="round" stroke-width="1.5"/><rect x="4" y="7" width="16" height="14" rx="3" stroke-width="1.5" stroke="#323232" stroke-linecap="round" stroke-linejoin="round" fill="none"/><path d="M4,10V8.091A3,3,0,0,1,5.94,5.284L14.293,2.13A2,2,0,0,1,17,4V7" fill="none" stroke="#323232" stroke-linecap="round" stroke-linejoin="round" stroke-width="1.5"/></svg>