<?xml version="1.0" encoding="utf-8"?>
<!-- Generator: Adobe Illustrator 24.0.2, SVG Export Plug-In . SVG Version: 6.00 Build 0)  -->
<svg version="1.1" id="Layer_3" xmlns="http://www.w3.org/2000/svg" xmlns:xlink="http://www.w3.org/1999/xlink" x="0px" y="0px"
	 width="24px" height="24px" viewBox="0 0 24 24" enable-background="new 0 0 24 24" xml:space="preserve">
<g>
	<g>
		<path fill="none" d="M0,24V0h24v24H0z"/>
	</g>
	<g>
		
			<line fill="none" stroke="#323232" stroke-width="1.5" stroke-linecap="round" stroke-linejoin="round" x1="7.5" y1="13" x2="11.5" y2="13"/>
		<path fill="none" stroke="#323232" stroke-width="1.5" stroke-linecap="round" stroke-linejoin="round" d="M4,9v10.996
			c0,0.759,0.807,1.244,1.474,0.881C7.103,19.988,9.5,18.681,9.5,18.681s2.397,1.308,4.026,2.196C14.193,21.24,15,20.755,15,19.996
			V9c0-1.105-0.895-2-2-2H6C4.896,7,4,7.895,4,9z"/>
		<g>
			<path fill="none" stroke="#323232" stroke-width="1.5" stroke-linecap="round" stroke-linejoin="round" d="M15,15l3.521,1.921
				C19.187,17.285,20,16.802,20,16.043V5c0-1.105-0.895-2-2-2h-6.5c-1.105,0-2,0.895-2,2v2"/>
		</g>
		
			<line fill="none" stroke="#323232" stroke-width="1.5" stroke-linecap="round" stroke-linejoin="round" x1="9.5" y1="15" x2="9.5" y2="11"/>
	</g>
</g>
</svg>
