<svg id="Layer_3" data-name="Layer 3" xmlns="http://www.w3.org/2000/svg" viewBox="0 0 24 24"><title>book-open</title><path d="M12,21h0a3.61621,3.61621,0,0,0-3.24-1.9998H4.4994A1.49939,1.49939,0,0,1,3,17.5008H3V5.4998A1.49939,1.49939,0,0,1,4.4994,4.0004h3.501A3.9996,3.9996,0,0,1,12,8h0Z" fill="none" stroke="#323232" stroke-linecap="round" stroke-linejoin="round" stroke-width="1.5"/><path d="M12,21h0a3.61621,3.61621,0,0,1,3.24-1.9998h4.2642A1.49941,1.49941,0,0,0,21,17.5008V5.4998a1.49939,1.49939,0,0,0-1.4994-1.4994h-3.501A3.9996,3.9996,0,0,0,12,8h0Z" fill="none" stroke="#323232" stroke-linecap="round" stroke-linejoin="round" stroke-width="1.5"/><rect width="24" height="24" fill="none"/></svg>