<?xml version="1.0" encoding="utf-8"?>
<!-- Generator: Adobe Illustrator 24.0.2, SVG Export Plug-In . SVG Version: 6.00 Build 0)  -->
<svg version="1.1" id="Layer_1" xmlns="http://www.w3.org/2000/svg" xmlns:xlink="http://www.w3.org/1999/xlink" x="0px" y="0px"
	 width="24px" height="24px" viewBox="0 0 24 24" enable-background="new 0 0 24 24" xml:space="preserve">
<g>
	<g>
		<path fill="none" stroke="#323232" stroke-width="1.5" stroke-linecap="round" stroke-linejoin="round" d="M12,16.864
			c-2.028-2.029-5.085-2.402-7.492-1.119C3.825,16.109,3,15.66,3,14.886V5.794c0-0.636,0.294-1.248,0.812-1.617
			C6.297,2.405,9.77,2.634,12,4.864c2.23-2.23,5.703-2.459,8.188-0.687C20.706,4.546,21,5.158,21,5.794v9.092
			c0,0.774-0.825,1.224-1.508,0.859C17.085,14.462,14.028,14.835,12,16.864z"/>
		<path fill="none" stroke="#323232" stroke-width="1.5" stroke-linecap="round" stroke-linejoin="round" d="M4.508,19.881
			C6.915,18.598,9.972,18.971,12,21c2.028-2.029,5.085-2.402,7.492-1.119"/>
		
			<line fill="none" stroke="#323232" stroke-width="1.5" stroke-linecap="round" stroke-linejoin="round" x1="12" y1="16.864" x2="12" y2="4.864"/>
	</g>
	<path fill="none" d="M0,0h24v24H0V0z"/>
</g>
</svg>
