<svg id="Layer_3" data-name="Layer 3" xmlns="http://www.w3.org/2000/svg" viewBox="0 0 24 24"><title>bookmarks-label-tag-delete-cross</title><path d="M0,0H24V24H0Z" fill="none"/><path d="M8.313,7.759a.389.389,0,1,1-.55,0,.389.389,0,0,1,.55,0" fill="none" stroke="#323232" stroke-linecap="round" stroke-linejoin="round" stroke-width="1.5"/><path d="M17.464,9.536l2.951,2.952a2,2,0,0,1,0,2.829l-5.094,5.1a2,2,0,0,1-2.83,0L9.539,17.461" fill="none" stroke="#323232" stroke-linecap="round" stroke-linejoin="round" stroke-width="1.5"/><line x1="19.5" y1="4.5" x2="4.5" y2="19.5" fill="none" stroke="#323232" stroke-linecap="round" stroke-linejoin="round" stroke-width="1.5"/><path d="M14.465,6.535,11.511,3.58A1.983,1.983,0,0,0,10.093,3l-2.849.025a1.979,1.979,0,0,0-1.384.58L3.58,5.886A1.982,1.982,0,0,0,3,7.287V10.1a1.982,1.982,0,0,0,.58,1.4l2.96,2.96" fill="none" stroke="#323232" stroke-linecap="round" stroke-linejoin="round" stroke-width="1.5"/></svg>