<svg id="Layer_3" data-name="Layer 3" xmlns="http://www.w3.org/2000/svg" viewBox="0 0 24 24"><title>bookmarks-favorite-minus</title><path d="M0,24V0H24V24Z" fill="none"/><line x1="8" y1="13" x2="11" y2="13" fill="none" stroke="#323232" stroke-linecap="round" stroke-linejoin="round" stroke-width="1.5"/><path d="M4,9V19.996a.99779.99779,0,0,0,1.474.881C7.103,19.988,9.5,18.681,9.5,18.681s2.397,1.308,4.026,2.196A.99779.99779,0,0,0,15,19.996V9a1.99945,1.99945,0,0,0-2-2H6A2.00009,2.00009,0,0,0,4,9Z" fill="none" stroke="#323232" stroke-linecap="round" stroke-linejoin="round" stroke-width="1.5"/><path d="M15,15l3.521,1.921A1.00008,1.00008,0,0,0,20,16.043V5a1.99945,1.99945,0,0,0-2-2H11.5a1.99945,1.99945,0,0,0-2,2V7" fill="none" stroke="#323232" stroke-linecap="round" stroke-linejoin="round" stroke-width="1.5"/></svg>