<svg id="Layer_3" data-name="Layer 3" xmlns="http://www.w3.org/2000/svg" viewBox="0 0 24 24"><path d="M0,0H24V24H0Z" fill="none"/><path d="M18.074,12.28414l1.309-1.309A2.106,2.106,0,0,0,20,9.4871V5.102A2.10233,2.10233,0,0,0,17.89737,3H13.5109a2.09889,2.09889,0,0,0-1.485.616L3.61576,12.02613a2.10221,2.10221,0,0,0-.00007,2.973l.00007.00007,4.38506,4.38506a2.10221,2.10221,0,0,0,2.973.00007l.00007-.00007,1.31-1.31" fill="none" stroke="#323232" stroke-linecap="round" stroke-linejoin="round" stroke-width="1.5"/><path d="M16.5,12A4.5,4.5,0,1,1,12,16.5,4.5,4.5,0,0,1,16.5,12" fill="none" stroke="#323232" stroke-linecap="round" stroke-linejoin="round" stroke-width="1.5"/><path d="M15.7945,7.4555a.25.25,0,1,1-.25-.25" fill="none" stroke="#323232" stroke-linecap="round" stroke-linejoin="round" stroke-width="1.5"/><path d="M15.5445,7.2055a.25.25,0,0,1,.25.25" fill="none" stroke="#323232" stroke-linecap="round" stroke-linejoin="round" stroke-width="1.5"/><line x1="18.09361" y1="16.80112" x2="16.19888" y2="16.80112" fill="none" stroke="#323232" stroke-linecap="round" stroke-linejoin="round" stroke-width="1.5"/><line x1="16.19888" y1="16.80112" x2="16.19888" y2="14.90639" fill="none" stroke="#323232" stroke-linecap="round" stroke-linejoin="round" stroke-width="1.5"/></svg>