<?xml version="1.0" encoding="utf-8"?>
<!-- Generator: Adobe Illustrator 24.0.2, SVG Export Plug-In . SVG Version: 6.00 Build 0)  -->
<svg version="1.1" id="Layer_1" xmlns="http://www.w3.org/2000/svg" xmlns:xlink="http://www.w3.org/1999/xlink" x="0px" y="0px"
	 width="24px" height="24px" viewBox="0 0 24 24" style="enable-background:new 0 0 24 24;" xml:space="preserve">
<style type="text/css">
	.st0{fill:none;stroke:#323232;stroke-width:1.5;stroke-linecap:round;stroke-linejoin:round;}
	.st1{fill:none;}
</style>
<g>
	<g>
		<path class="st0" d="M22,16.5L22,16.5c0,2.5-2,4.5-4.5,4.5l0,0C15,21,13,19,13,16.5l0,0c0-2.5,2-4.5,4.5-4.5l0,0
			C20,12,22,14,22,16.5z"/>
		<path class="st0" d="M17.5,14.7v3.6"/>
		<path class="st0" d="M15.7,16.5l1.8,1.8l1.8-1.8"/>
		<path class="st0" d="M20,12.8V4c0-0.6-0.4-1-1-1H6C4.9,3,4,3.9,4,5v12"/>
		<path class="st0" d="M8,3v12"/>
		<path class="st0" d="M13.3,15H6c-1.1,0-2,0.9-2,2l0,0c0,1.1,0.9,2,2,2h7.8"/>
	</g>
	<rect class="st1" width="24" height="24"/>
</g>
</svg>
