<svg id="Layer_3" data-name="Layer 3" xmlns="http://www.w3.org/2000/svg" viewBox="0 0 24 24"><title>bookmarks-more-settings</title><path d="M0,0H24V24H0Z" fill="none"/><path d="M15.02519,4.756A8.50254,8.50254,0,1,0,19.244,8.97481" fill="none" stroke="#323232" stroke-linecap="round" stroke-linejoin="round" stroke-width="1.5"/><path d="M8.81214,15.38239V10.53306a1.16421,1.16421,0,0,1,1.16321-1.1642h3.10452a1.1642,1.1642,0,0,1,1.1632,1.1642v4.84933a.19353.19353,0,0,1-.30626.15762l-2.29448-1.641a.1995.1995,0,0,0-.22645,0L9.1214,15.54a.19952.19952,0,0,1-.30926-.15762Z" fill="none" stroke="#323232" stroke-linecap="round" stroke-linejoin="round" stroke-width="1.5"/><path d="M19.0096,1a3.9904,3.9904,0,1,1-3.99039,3.9904A3.9904,3.9904,0,0,1,19.0096,1" fill="none" stroke="#323232" stroke-linecap="round" stroke-linejoin="round" stroke-width="1.5"/><path d="M20.143,4.9904a.05.05,0,1,1-.05-.05" fill="none" stroke="#323232" stroke-linecap="round" stroke-linejoin="round" stroke-width="1.5"/><path d="M20.093,4.9404a.05.05,0,0,1,.05.05" fill="none" stroke="#323232" stroke-linecap="round" stroke-linejoin="round" stroke-width="1.5"/><path d="M17.976,4.9904a.05.05,0,1,1-.05-.05" fill="none" stroke="#323232" stroke-linecap="round" stroke-linejoin="round" stroke-width="1.5"/><path d="M17.926,4.9404a.05.05,0,0,1,.05.05" fill="none" stroke="#323232" stroke-linecap="round" stroke-linejoin="round" stroke-width="1.5"/></svg>