<svg id="Layer_3" data-name="Layer 3" xmlns="http://www.w3.org/2000/svg" viewBox="0 0 24 24"><title>bookmark-favorite-label-more-setting</title><path d="M18.074,12.284l1.309-1.309A2.106,2.106,0,0,0,20,9.487V5.102A2.1023,2.1023,0,0,0,17.896,3H13.511a2.09882,2.09882,0,0,0-1.485.616l-8.41,8.41a2.10218,2.10218,0,0,0,0,2.973l4.385,4.385a2.10218,2.10218,0,0,0,2.973,0l1.31-1.31" fill="none" stroke="#323232" stroke-linecap="round" stroke-linejoin="round" stroke-width="1.5"/><path d="M16.5,12A4.5,4.5,0,1,1,12,16.5,4.5,4.5,0,0,1,16.5,12" fill="none" stroke="#323232" stroke-linecap="round" stroke-linejoin="round" stroke-width="1.5"/><path d="M17.772,16.5a.05.05,0,1,1-.05-.05" fill="none" stroke="#323232" stroke-linecap="round" stroke-linejoin="round" stroke-width="1.5"/><path d="M17.722,16.45a.05.05,0,0,1,.05.05" fill="none" stroke="#323232" stroke-linecap="round" stroke-linejoin="round" stroke-width="1.5"/><path d="M15.328,16.5a.05.05,0,1,1-.05-.05" fill="none" stroke="#323232" stroke-linecap="round" stroke-linejoin="round" stroke-width="1.5"/><path d="M15.278,16.45a.05.05,0,0,1,.05.05" fill="none" stroke="#323232" stroke-linecap="round" stroke-linejoin="round" stroke-width="1.5"/><path d="M15.7945,7.4555a.25.25,0,1,1-.25-.25" fill="none" stroke="#323232" stroke-linecap="round" stroke-linejoin="round" stroke-width="1.5"/><path d="M15.5445,7.2055a.25.25,0,0,1,.25.25" fill="none" stroke="#323232" stroke-linecap="round" stroke-linejoin="round" stroke-width="1.5"/><path d="M0,0H24V24H0Z" fill="none"/></svg>