<svg id="Layer_3" data-name="Layer 3" xmlns="http://www.w3.org/2000/svg" viewBox="0 0 24 24"><path d="M11.95531,7.91963h2.78737A1.33662,1.33662,0,0,1,16.07987,9.256v2.78767a1.33742,1.33742,0,0,1-.392.94528l-3.539,3.53937a1.33709,1.33709,0,0,1-1.89034,0L7.47116,13.74063a1.33746,1.33746,0,0,1,0-1.89055l3.539-3.53839A1.33711,1.33711,0,0,1,11.95531,7.91963Z" fill="none" stroke="#323232" stroke-linecap="round" stroke-linejoin="round" stroke-width="1.5"/><path d="M13.53533,10.46467a.05.05,0,1,1-.07066,0,.04988.04988,0,0,1,.07066,0" fill="none" stroke="#323232" stroke-linecap="round" stroke-linejoin="round" stroke-width="1.5"/><path d="M20.582,9.353A8.84326,8.84326,0,0,1,21,12a9,9,0,1,1-9-9,8.84326,8.84326,0,0,1,2.647.418" fill="none" stroke="#323232" stroke-linecap="round" stroke-linejoin="round" stroke-width="1.5"/><path d="M19.012,6.262,17.737,4.987" fill="none" stroke="#323232" stroke-linecap="round" stroke-linejoin="round" stroke-width="1.5"/><line x1="21" y1="4.27393" x2="19.01202" y2="6.26196" fill="none" stroke="#323232" stroke-linecap="round" stroke-linejoin="round" stroke-width="1.5"/><path d="M0,0H24V24H0Z" fill="none"/></svg>