<svg id="Layer_3" data-name="Layer 3" xmlns="http://www.w3.org/2000/svg" viewBox="0 0 24 24"><title>book-open-square</title><path d="M11.99794,16.94444h0a2.01,2.01,0,0,0-1.79781-1.11111H7.83128A.83333.83333,0,0,1,6.99794,15V9a.83333.83333,0,0,1,.83334-.83333H9.77572a2.37063,2.37063,0,0,1,2.22222,2.38889Z" fill="none" stroke="#323232" stroke-linecap="round" stroke-linejoin="round" stroke-width="1.5"/><path d="M11.99794,16.94444h0a2.01,2.01,0,0,1,1.79782-1.11111h2.36885A.83332.83332,0,0,0,16.99794,15V9a.83332.83332,0,0,0-.83333-.83333H14.22017a2.37064,2.37064,0,0,0-2.22223,2.38889Z" fill="none" stroke="#323232" stroke-linecap="round" stroke-linejoin="round" stroke-width="1.5"/><rect x="2.99794" y="3" width="18" height="18" rx="4" stroke-width="1.5" stroke="#323232" stroke-linecap="round" stroke-linejoin="round" fill="none"/><path d="M-.00206,0h24V24h-24Z" fill="none"/></svg>