<svg id="Layer_3" data-name="Layer 3" xmlns="http://www.w3.org/2000/svg" viewBox="0 0 24 24"><title>bottle</title><path d="M9.141,7.092H11.36A4.438,4.438,0,0,1,15.8,11.53v5.547a3.328,3.328,0,0,1-3.328,3.328H8.032A3.328,3.328,0,0,1,4.7,17.077V11.53A4.438,4.438,0,0,1,9.141,7.092Z" transform="translate(12.725 -3.221) rotate(45)" fill="none" stroke="#323232" stroke-linecap="round" stroke-linejoin="round" stroke-width="1.5"/><line x1="15.886" y1="14.677" x2="14.604" y2="13.396" fill="none" stroke="#323232" stroke-linecap="round" stroke-linejoin="round" stroke-width="1.5"/><line x1="14.173" y1="17.672" x2="12.251" y2="15.749" fill="none" stroke="#323232" stroke-linecap="round" stroke-linejoin="round" stroke-width="1.5"/><line x1="11.82" y1="20.025" x2="9.897" y2="18.103" fill="none" stroke="#323232" stroke-linecap="round" stroke-linejoin="round" stroke-width="1.5"/><path d="M20.449,3.551h0a1.879,1.879,0,0,0-2.858.236L17.3,4.2a.555.555,0,0,1-.844.069h0a2.119,2.119,0,0,0-3,0L12.6,5.12a1.11,1.11,0,0,0,0,1.569L17.311,11.4a1.11,1.11,0,0,0,1.569,0l.856-.856a2.119,2.119,0,0,0,0-3h0a.555.555,0,0,1,.069-.844l.408-.291A1.879,1.879,0,0,0,20.449,3.551Z" fill="none" stroke="#323232" stroke-linecap="round" stroke-linejoin="round" stroke-width="1.5"/><rect width="24" height="24" fill="none"/></svg>