<?xml version="1.0" encoding="utf-8"?>
<!-- Generator: Adobe Illustrator 24.0.2, SVG Export Plug-In . SVG Version: 6.00 Build 0)  -->
<svg version="1.1" id="Layer_3" xmlns="http://www.w3.org/2000/svg" xmlns:xlink="http://www.w3.org/1999/xlink" x="0px" y="0px"
	 width="24px" height="24px" viewBox="0 0 24 24" enable-background="new 0 0 24 24" xml:space="preserve">
<g>
	<path fill="none" d="M0,0h24v24H0V0z"/>
	<g>
		<path fill="none" stroke="#323232" stroke-width="1.5" stroke-linecap="round" stroke-linejoin="round" d="M21,7H3
			C2.448,7,2,6.552,2,6V4c0-0.552,0.448-1,1-1h18c0.552,0,1,0.448,1,1v2C22,6.552,21.552,7,21,7z"/>
		<path fill="none" stroke="#323232" stroke-width="1.5" stroke-linecap="round" stroke-linejoin="round" d="M20.667,7v12
			c0,1.105-0.895,2-2,2H5.333c-1.105,0-2-0.895-2-2V7"/>
		<path fill="none" stroke="#323232" stroke-width="1.5" stroke-linecap="round" stroke-linejoin="round" d="M15,14H9
			c-0.552,0-1-0.448-1-1v-1c0-0.552,0.448-1,1-1h6c0.552,0,1,0.448,1,1v1C16,13.552,15.552,14,15,14z"/>
	</g>
</g>
</svg>
