<?xml version="1.0" encoding="utf-8"?>
<!-- Generator: Adobe Illustrator 24.0.2, SVG Export Plug-In . SVG Version: 6.00 Build 0)  -->
<svg version="1.1" id="Layer_1" xmlns="http://www.w3.org/2000/svg" xmlns:xlink="http://www.w3.org/1999/xlink" x="0px" y="0px"
	 width="24px" height="24px" viewBox="0 0 24 24" enable-background="new 0 0 24 24" xml:space="preserve">
<g>
	<g>
		<path fill="none" stroke="#323232" stroke-width="1.5" stroke-linecap="round" stroke-linejoin="round" d="M18.571,20L18.571,20
			c1.262,0,2.286-1.023,2.286-2.286v-4.571L22,12l-1.143-1.143V6.286C20.857,5.023,19.834,4,18.571,4l0,0"/>
		<path fill="none" stroke="#323232" stroke-width="1.5" stroke-linecap="round" stroke-linejoin="round" d="M14.5,12h-5"/>
		<path fill="none" stroke="#323232" stroke-width="1.5" stroke-linecap="round" stroke-linejoin="round" d="M12,14.5v-5"/>
		<path fill="none" stroke="#323232" stroke-width="1.5" stroke-linecap="round" stroke-linejoin="round" d="M5.429,4L5.429,4
			C4.166,4,3.143,5.023,3.143,6.286v4.571L2,12l1.143,1.143v4.571C3.143,18.977,4.166,20,5.429,20l0,0"/>
	</g>
	<rect fill="none" width="24" height="24"/>
</g>
</svg>
