<svg id="Layer_3" data-name="Layer 3" xmlns="http://www.w3.org/2000/svg" viewBox="0 0 24 24"><title>brain</title><path d="M12.629,3.657a1,1,0,0,1-1.258,0A3,3,0,0,0,6.583,5.3a1.013,1.013,0,0,1-.777.774,3.5,3.5,0,0,0-2.219,5.367,1,1,0,0,1,0,1.128,3.5,3.5,0,0,0,2.219,5.367,1.013,1.013,0,0,1,.777.774,3,3,0,0,0,4.788,1.638,1,1,0,0,1,1.258,0A3,3,0,0,0,17.417,18.7a1.013,1.013,0,0,1,.777-.774,3.5,3.5,0,0,0,2.218-5.368,1,1,0,0,1,0-1.126,3.5,3.5,0,0,0-2.218-5.368,1.013,1.013,0,0,1-.777-.774,3,3,0,0,0-4.788-1.638Z" fill="none" stroke="#323232" stroke-linecap="round" stroke-linejoin="round" stroke-width="1.5"/><line x1="12" y1="3.878" x2="12" y2="20.121" fill="none" stroke="#323232" stroke-linecap="round" stroke-linejoin="round" stroke-width="1.5"/><path d="M15,16a2,2,0,0,1,2-2" fill="none" stroke="#323232" stroke-linecap="round" stroke-linejoin="round" stroke-width="1.5"/><path d="M9,8a2,2,0,0,1-2,2" fill="none" stroke="#323232" stroke-linecap="round" stroke-linejoin="round" stroke-width="1.5"/><path d="M9,16a2,2,0,0,0-2-2" fill="none" stroke="#323232" stroke-linecap="round" stroke-linejoin="round" stroke-width="1.5"/><path d="M15,8a2,2,0,0,0,2,2" fill="none" stroke="#323232" stroke-linecap="round" stroke-linejoin="round" stroke-width="1.5"/><rect x="-0.002" width="24.002" height="24" fill="none"/></svg>