<svg id="Layer_3" data-name="Layer 3" xmlns="http://www.w3.org/2000/svg" viewBox="0 0 24 24"><title>bread</title><line x1="13.77778" y1="8.44444" x2="10.22222" y2="12" fill="none" stroke="#323232" stroke-linecap="round" stroke-linejoin="round" stroke-width="1.5"/><line x1="13.77778" y1="12.88889" x2="10.22222" y2="16.44444" fill="none" stroke="#323232" stroke-linecap="round" stroke-linejoin="round" stroke-width="1.5"/><path d="M5.72651,11.05872a.90035.90035,0,0,0-.34388-.8132A2.89035,2.89035,0,0,1,4,8c0-2.20915,3.58171-4,8-4s8,1.79085,8,4a2.89035,2.89035,0,0,1-1.38263,2.24552.90035.90035,0,0,0-.34388.8132l.56451,6.02589A2.66667,2.66667,0,0,1,16.183,20H7.81705a2.66667,2.66667,0,0,1-2.655-2.91539Z" fill="none" stroke="#323232" stroke-linecap="round" stroke-linejoin="round" stroke-width="1.5"/><rect width="24" height="24" fill="none"/></svg>