<svg id="Layer_3" data-name="Layer 3" xmlns="http://www.w3.org/2000/svg" viewBox="0 0 24 24"><title>bread-circle</title><circle cx="12" cy="12" r="9" fill="none" stroke="#323232" stroke-linecap="round" stroke-linejoin="round" stroke-width="1.5"/><path d="M8.47116,11.47053a.50642.50642,0,0,0-.19343-.45742A1.62584,1.62584,0,0,1,7.5,9.75C7.5,8.50735,9.51471,7.5,12,7.5s4.5,1.00735,4.5,2.25a1.62584,1.62584,0,0,1-.77773,1.26311.50642.50642,0,0,0-.19343.45742l.31753,3.38956A1.5,1.5,0,0,1,14.35291,16.5H9.64709a1.5,1.5,0,0,1-1.49346-1.63991Z" fill="none" stroke="#323232" stroke-linecap="round" stroke-linejoin="round" stroke-width="1.5"/><rect width="24" height="24" fill="none"/></svg>