<svg id="Layer_3" data-name="Layer 3" xmlns="http://www.w3.org/2000/svg" viewBox="0 0 24 24"><title>broken-link-unlink-attachment_2</title><line x1="8.683" y1="8.683" x2="8.019" y2="8.019" fill="none" stroke="#323232" stroke-linecap="round" stroke-linejoin="round" stroke-width="1.5"/><line x1="10.806" y1="7.481" x2="10.806" y2="6.5" fill="none" stroke="#323232" stroke-linecap="round" stroke-linejoin="round" stroke-width="1.5"/><line x1="6.5" y1="10.806" x2="7.481" y2="10.806" fill="none" stroke="#323232" stroke-linecap="round" stroke-linejoin="round" stroke-width="1.5"/><line x1="15.317" y1="15.317" x2="15.981" y2="15.981" fill="none" stroke="#323232" stroke-linecap="round" stroke-linejoin="round" stroke-width="1.5"/><line x1="13.194" y1="16.519" x2="13.194" y2="17.5" fill="none" stroke="#323232" stroke-linecap="round" stroke-linejoin="round" stroke-width="1.5"/><line x1="16.519" y1="13.194" x2="17.5" y2="13.194" fill="none" stroke="#323232" stroke-linecap="round" stroke-linejoin="round" stroke-width="1.5"/><path d="M14.9,11.715l1.137-1.137a1.769,1.769,0,0,0,0-2.5h0a1.77,1.77,0,0,0-2.5,0L12.4,9.213" fill="none" stroke="#323232" stroke-linecap="round" stroke-linejoin="round" stroke-width="1.5"/><path d="M9.213,12.4,8.076,13.536a1.77,1.77,0,0,0,0,2.5h0a1.769,1.769,0,0,0,2.5,0L11.715,14.9" fill="none" stroke="#323232" stroke-linecap="round" stroke-linejoin="round" stroke-width="1.5"/><circle cx="12" cy="12" r="9" fill="none" stroke="#323232" stroke-linecap="round" stroke-linejoin="round" stroke-width="1.5"/><path d="M0,0H24V24H0Z" fill="none"/></svg>