<?xml version="1.0" encoding="utf-8"?>
<!-- Generator: Adobe Illustrator 24.0.2, SVG Export Plug-In . SVG Version: 6.00 Build 0)  -->
<svg version="1.1" id="Layer_3" xmlns="http://www.w3.org/2000/svg" xmlns:xlink="http://www.w3.org/1999/xlink" x="0px" y="0px"
	 width="24px" height="24px" viewBox="0 0 24 24" enable-background="new 0 0 24 24" xml:space="preserve">
<g>
	<g>
		
			<line fill="none" stroke="#323232" stroke-width="1.5" stroke-linecap="round" stroke-linejoin="round" x1="9.5" y1="7.5" x2="9.5" y2="9.5"/>
		
			<line fill="none" stroke="#323232" stroke-width="1.5" stroke-linecap="round" stroke-linejoin="round" x1="7.5" y1="9.5" x2="9.5" y2="9.5"/>
		<path fill="none" stroke="#323232" stroke-width="1.5" stroke-linecap="round" stroke-linejoin="round" d="M12,21L12,21
			c-4.971,0-9-4.029-9-9v0c0-4.971,4.029-9,9-9h0c4.971,0,9,4.029,9,9v0C21,16.971,16.971,21,12,21z"/>
		<polyline fill="none" stroke="#323232" stroke-width="1.5" stroke-linecap="round" stroke-linejoin="round" points="16.5,14.5 
			14.5,14.5 14.5,16.5 		"/>
		<path fill="none" stroke="#323232" stroke-width="1.5" stroke-linecap="round" stroke-linejoin="round" d="M15,11.621l1-1
			c0.828-0.828,0.828-2.172,0-3l0,0c-0.828-0.828-2.172-0.828-3,0l-1,1"/>
		<path fill="none" stroke="#323232" stroke-width="1.5" stroke-linecap="round" stroke-linejoin="round" d="M8.621,12.379l-1,1
			c-0.828,0.828-0.828,2.172,0,3l0,0c0.828,0.828,2.172,0.828,3,0l1-1"/>
	</g>
	<path fill="none" d="M0,0h24v24H0V0z"/>
</g>
</svg>
