<svg id="Layer_3" data-name="Layer 3" xmlns="http://www.w3.org/2000/svg" viewBox="0 0 24 24"><title>broom</title><line x1="8.5" y1="22" x2="8.5" y2="20" fill="none" stroke="#323232" stroke-linecap="round" stroke-linejoin="round" stroke-width="1.5"/><line x1="15.5" y1="22" x2="15.5" y2="20" fill="none" stroke="#323232" stroke-linecap="round" stroke-linejoin="round" stroke-width="1.5"/><path d="M16.765,22H7.235a2,2,0,0,1-1.988-2.221l.358-3.221A4,4,0,0,1,9.58,13h4.84A4,4,0,0,1,18.4,16.558l.358,3.221A2,2,0,0,1,16.765,22Z" fill="none" stroke="#323232" stroke-linecap="round" stroke-linejoin="round" stroke-width="1.5"/><path d="M12,2h0a1.5,1.5,0,0,1,1.5,1.5v6a.5.5,0,0,1-.5.5H11a.5.5,0,0,1-.5-.5v-6A1.5,1.5,0,0,1,12,2Z" fill="none" stroke="#323232" stroke-linecap="round" stroke-linejoin="round" stroke-width="1.5"/><path d="M14.25,13H9.75a1,1,0,0,1-.923-1.385l.417-1A1,1,0,0,1,10.167,10h3.666a1,1,0,0,1,.923.615l.417,1A1,1,0,0,1,14.25,13Z" fill="none" stroke="#323232" stroke-linecap="round" stroke-linejoin="round" stroke-width="1.5"/><line x1="12" y1="22" x2="12" y2="20" fill="none" stroke="#323232" stroke-linecap="round" stroke-linejoin="round" stroke-width="1.5"/><rect width="24" height="24" fill="none"/></svg>