<svg id="Layer_3" data-name="Layer 3" xmlns="http://www.w3.org/2000/svg" viewBox="0 0 24 24"><title>Artboard 344</title><path d="M19.5,21H4.5a2,2,0,0,1-2-2V5a2,2,0,0,1,2-2h15a2,2,0,0,1,2,2V19A2,2,0,0,1,19.5,21Z" fill="none" stroke="#323232" stroke-linecap="round" stroke-linejoin="round" stroke-width="1.5"/><path d="M2.5,8h19" fill="none" stroke="#323232" stroke-linecap="round" stroke-linejoin="round" stroke-width="1.5"/><rect x="6.006" y="12.5" width="12" height="4" rx="2" transform="translate(-0.032 0.026) rotate(-0.126)" stroke-width="1.5" stroke="#323232" stroke-linecap="round" stroke-linejoin="round" fill="none"/><line x1="11.001" y1="12.502" x2="9.01" y2="16.507" fill="none" stroke="#323232" stroke-linecap="round" stroke-linejoin="round" stroke-width="1.5"/><line x1="15.001" y1="12.493" x2="13.01" y2="16.498" fill="none" stroke="#323232" stroke-linecap="round" stroke-linejoin="round" stroke-width="1.5"/><path id="Shape_3077" data-name="Shape 3077" d="M10.638,5.5a.05.05,0,0,0-.05-.05.05.05,0,0,0-.05.05.05.05,0,0,0,.1,0" fill="none" stroke="#323232" stroke-linecap="round" stroke-linejoin="round" stroke-width="1.5"/><path id="Shape_3077-2" data-name="Shape 3077" d="M8.1,5.5a.05.05,0,0,0-.05-.05A.05.05,0,0,0,8,5.5a.05.05,0,0,0,.1,0" fill="none" stroke="#323232" stroke-linecap="round" stroke-linejoin="round" stroke-width="1.5"/><path id="Shape_3077-3" data-name="Shape 3077" d="M5.555,5.5a.05.05,0,0,0-.05-.05.05.05,0,0,0-.05.05.05.05,0,0,0,.1,0" fill="none" stroke="#323232" stroke-linecap="round" stroke-linejoin="round" stroke-width="1.5"/><path d="M0,0H24V24H0Z" fill="none"/></svg>