<svg id="Layer_3" data-name="Layer 3" xmlns="http://www.w3.org/2000/svg" viewBox="0 0 24 24"><title>Artboard 265</title><path d="M7,21H4.5a2,2,0,0,1-2-2V5a2,2,0,0,1,2-2h15a2,2,0,0,1,2,2v8" fill="none" stroke="#323232" stroke-linecap="round" stroke-linejoin="round" stroke-width="1.5"/><path d="M2.5,8h19" fill="none" stroke="#323232" stroke-linecap="round" stroke-linejoin="round" stroke-width="1.5"/><path d="M17,21h1a3,3,0,0,0,0-6H17" fill="none" stroke="#323232" stroke-linecap="round" stroke-linejoin="round" stroke-width="1.5"/><path d="M14,15H13a3,3,0,0,0,0,6h1" fill="none" stroke="#323232" stroke-linecap="round" stroke-linejoin="round" stroke-width="1.5"/><line x1="13" y1="18" x2="18" y2="18" fill="none" stroke="#323232" stroke-linecap="round" stroke-linejoin="round" stroke-width="1.5"/><path id="Shape_3077" data-name="Shape 3077" d="M10.638,5.5a.05.05,0,0,0-.05-.05.05.05,0,0,0-.05.05.05.05,0,0,0,.1,0" fill="none" stroke="#323232" stroke-linecap="round" stroke-linejoin="round" stroke-width="1.5"/><path id="Shape_3077-2" data-name="Shape 3077" d="M8.1,5.5a.05.05,0,0,0-.05-.05A.05.05,0,0,0,8,5.5a.05.05,0,0,0,.1,0" fill="none" stroke="#323232" stroke-linecap="round" stroke-linejoin="round" stroke-width="1.5"/><path id="Shape_3077-3" data-name="Shape 3077" d="M5.555,5.5a.05.05,0,0,0-.05-.05.05.05,0,0,0-.05.05.05.05,0,0,0,.1,0" fill="none" stroke="#323232" stroke-linecap="round" stroke-linejoin="round" stroke-width="1.5"/><path d="M0,0H24V24H0Z" fill="none"/></svg>