<?xml version="1.0" encoding="utf-8"?>
<!-- Generator: Adobe Illustrator 24.0.2, SVG Export Plug-In . SVG Version: 6.00 Build 0)  -->
<svg version="1.1" id="Layer_1" xmlns="http://www.w3.org/2000/svg" xmlns:xlink="http://www.w3.org/1999/xlink" x="0px" y="0px"
	 width="24px" height="24px" viewBox="0 0 24 24" enable-background="new 0 0 24 24" xml:space="preserve">
<g>
	<path fill="none" d="M0,0h24v24H0V0z"/>
	<g>
		<path fill="none" stroke="#323232" stroke-width="1.5" stroke-linecap="round" stroke-linejoin="round" d="M18.954,21H5.046
			c-1.105,0-2-0.895-2-2v-8c0-1.105,0.895-2,2-2h13.908c1.105,0,2,0.895,2,2v8C20.954,20.105,20.058,21,18.954,21z"/>
		<path fill="none" stroke="#323232" stroke-width="1.5" stroke-linecap="round" stroke-linejoin="round" d="M4.782,9V8
			c0-1.105,0.895-2,2-2h10.435c1.105,0,2,0.895,2,2v1"/>
		<path fill="none" stroke="#323232" stroke-width="1.5" stroke-linecap="round" stroke-linejoin="round" d="M6.516,6V5
			c0-1.105,0.895-2,2-2h6.969c1.105,0,2,0.895,2,2v1"/>
		<path fill="none" stroke="#323232" stroke-width="1.5" stroke-linecap="round" stroke-linejoin="round" d="M12,13.035
			c0.223-0.252,0.609-0.535,1.198-0.535c1.029,0,1.719,0.931,1.719,1.798c0,1.812-2.34,3.202-2.917,3.202s-2.917-1.389-2.917-3.202
			c0-0.868,0.69-1.798,1.719-1.798C11.391,12.5,11.777,12.783,12,13.035z"/>
	</g>
</g>
</svg>
