<?xml version="1.0" encoding="utf-8"?>
<!-- Generator: Adobe Illustrator 24.0.2, SVG Export Plug-In . SVG Version: 6.00 Build 0)  -->
<svg version="1.1" id="Layer_3" xmlns="http://www.w3.org/2000/svg" xmlns:xlink="http://www.w3.org/1999/xlink" x="0px" y="0px"
	 width="24px" height="24px" viewBox="0 0 24 24" enable-background="new 0 0 24 24" xml:space="preserve">
<g>
	<g>
		<path fill="none" stroke="#323232" stroke-width="1.5" stroke-linecap="round" stroke-linejoin="round" d="M19.5,21h-15
			c-1.105,0-2-0.895-2-2V5c0-1.105,0.895-2,2-2h15c1.105,0,2,0.895,2,2v14C21.5,20.105,20.605,21,19.5,21z"/>
		<path fill="none" stroke="#323232" stroke-width="1.5" stroke-linecap="round" stroke-linejoin="round" d="M14.5,13l-3,3l-2-2"/>
		<path fill="none" stroke="#323232" stroke-width="1.5" stroke-linecap="round" stroke-linejoin="round" d="M2.5,8h19"/>
		<path fill="none" stroke="#323232" stroke-width="1.5" stroke-linecap="round" stroke-linejoin="round" d="M5.505,5.49
			C5.502,5.49,5.5,5.492,5.5,5.495C5.5,5.498,5.502,5.5,5.505,5.5c0.003,0,0.005-0.002,0.005-0.005
			C5.51,5.492,5.508,5.49,5.505,5.49"/>
		<path fill="none" stroke="#323232" stroke-width="1.5" stroke-linecap="round" stroke-linejoin="round" d="M8.048,5.49
			c-0.003,0-0.005,0.002-0.005,0.005c0,0.003,0.002,0.005,0.005,0.005s0.005-0.002,0.005-0.005C8.053,5.492,8.051,5.49,8.048,5.49"
			/>
		<path fill="none" stroke="#323232" stroke-width="1.5" stroke-linecap="round" stroke-linejoin="round" d="M10.588,5.49
			c-0.003,0-0.005,0.002-0.005,0.005c0,0.003,0.002,0.005,0.005,0.005s0.005-0.002,0.005-0.005C10.593,5.492,10.59,5.49,10.588,5.49
			"/>
	</g>
	<path fill="none" d="M0,0h24v24H0V0z"/>
</g>
</svg>
