<svg id="Layer_3" data-name="Layer 3" xmlns="http://www.w3.org/2000/svg" viewBox="0 0 24 24"><title>brush-square</title><path d="M11.028,7.61H15.5a.894.894,0,0,1,.894.894v5.362a.894.894,0,0,1-.894.894H11.028A1.787,1.787,0,0,1,9.24,12.972V9.4A1.787,1.787,0,0,1,11.028,7.61Z" transform="translate(-4.156 12.338) rotate(-45)" fill="none" stroke="#323232" stroke-linecap="round" stroke-linejoin="round" stroke-width="1.5"/><rect x="3" y="3" width="18" height="18" rx="5" stroke-width="1.5" stroke="#323232" stroke-linecap="round" stroke-linejoin="round" fill="none"/><path d="M9.234,12.66l-2.3,2.3a1.49,1.49,0,0,0,2.107,2.107l2.3-2.3" fill="none" stroke="#323232" stroke-linecap="round" stroke-linejoin="round" stroke-width="1.5"/><line x1="10.025" y1="8.92" x2="15.08" y2="13.975" fill="none" stroke="#323232" stroke-linecap="round" stroke-linejoin="round" stroke-width="1.5"/><path d="M0,0H24V24H0Z" fill="none"/></svg>