<svg id="Layer_3" data-name="Layer 3" xmlns="http://www.w3.org/2000/svg" viewBox="0 0 24 24"><title>brush-edit-create-sqaure</title><path d="M21,12v4a5,5,0,0,1-5,5H8a5,5,0,0,1-5-5V8A5,5,0,0,1,8,3h4" fill="none" stroke="#323232" stroke-linecap="round" stroke-linejoin="round" stroke-width="1.5"/><path d="M12.309,10.939l.144-.577A3.988,3.988,0,0,1,13.5,8.51l4.889-4.89A2.116,2.116,0,1,1,21.38,6.612L16.49,11.5a3.966,3.966,0,0,1-1.853,1.049l-.725.182" fill="none" stroke="#323232" stroke-linecap="round" stroke-linejoin="round" stroke-width="1.5"/><path d="M11.381,16a2.62,2.62,0,0,0,.136-5.236c-2.249-.114-2.769,2.6-4.017,3.313A4.771,4.771,0,0,0,11.381,16Z" fill="none" stroke="#323232" stroke-linecap="round" stroke-linejoin="round" stroke-width="1.5"/><rect width="24" height="24" fill="none"/></svg>