<?xml version="1.0" encoding="utf-8"?>
<!-- Generator: Adobe Illustrator 23.1.0, SVG Export Plug-In . SVG Version: 6.00 Build 0)  -->
<svg version="1.1" id="icons" xmlns="http://www.w3.org/2000/svg" xmlns:xlink="http://www.w3.org/1999/xlink" x="0px" y="0px"
	 width="24px" height="24px" viewBox="0 0 24 24" enable-background="new 0 0 24 24" xml:space="preserve">
<path fill="none" d="M0,0h24v24H0V0z"/>
<g>
	<g>
		<polyline fill="none" stroke="#323232" stroke-width="1.5" stroke-linecap="round" stroke-linejoin="round" points="18,7 17,9 
			15.667,9.917 		"/>
		
			<line fill="none" stroke="#323232" stroke-width="1.5" stroke-linecap="round" stroke-linejoin="round" x1="5" y1="12" x2="8.111" y2="12"/>
		
			<line fill="none" stroke="#323232" stroke-width="1.5" stroke-linecap="round" stroke-linejoin="round" x1="15.889" y1="12" x2="19" y2="12"/>
		<path fill="none" stroke="#323232" stroke-width="1.5" stroke-linecap="round" stroke-linejoin="round" d="M6,3H5
			C3.895,3,3,3.895,3,5v1"/>
		<path fill="none" stroke="#323232" stroke-width="1.5" stroke-linecap="round" stroke-linejoin="round" d="M18,21h1
			c1.105,0,2-0.895,2-2v-1"/>
		<path fill="none" stroke="#323232" stroke-width="1.5" stroke-linecap="round" stroke-linejoin="round" d="M3,18v1
			c0,1.105,0.895,2,2,2h1"/>
		<path fill="none" stroke="#323232" stroke-width="1.5" stroke-linecap="round" stroke-linejoin="round" d="M21,6V5
			c0-1.105-0.895-2-2-2h-1"/>
		<polyline fill="none" stroke="#323232" stroke-width="1.5" stroke-linecap="round" stroke-linejoin="round" points="6,7 7,9 
			8.333,9.917 		"/>
		<path fill="none" stroke="#323232" stroke-width="1.5" stroke-linecap="round" stroke-linejoin="round" d="M12.444,17h-0.889
			c-1.657,0-3-1.343-3-3v-3c0-1.105,0.895-2,2-2h2.889c1.105,0,2,0.895,2,2v3C15.444,15.657,14.101,17,12.444,17z"/>
		<polyline fill="none" stroke="#323232" stroke-width="1.5" stroke-linecap="round" stroke-linejoin="round" points="6,17 7,15 
			8.333,14.083 		"/>
		<polyline fill="none" stroke="#323232" stroke-width="1.5" stroke-linecap="round" stroke-linejoin="round" points="18,17 17,15 
			15.667,14.083 		"/>
		<path fill="none" stroke="#323232" stroke-width="1.5" stroke-linecap="round" stroke-linejoin="round" d="M14,9h-4V7
			c0-0.552,0.448-1,1-1h2c0.552,0,1,0.448,1,1V9z"/>
	</g>
	<g>
		<g>
			<path fill="none" d="M24,24H0L0,0l24,0V24z"/>
		</g>
	</g>
</g>
</svg>
