<svg id="Layer_3" data-name="Layer 3" xmlns="http://www.w3.org/2000/svg" viewBox="0 0 24 24"><path d="M4,4H14a1,1,0,0,1,1,1V20a0,0,0,0,1,0,0H4a1,1,0,0,1-1-1V5A1,1,0,0,1,4,4Z" fill="none" stroke="#323232" stroke-linecap="round" stroke-linejoin="round" stroke-width="1.5"/><path d="M15,8h5a1,1,0,0,1,1,1V19a1,1,0,0,1-1,1H15a0,0,0,0,1,0,0V8A0,0,0,0,1,15,8Z" fill="none" stroke="#323232" stroke-linecap="round" stroke-linejoin="round" stroke-width="1.5"/><path d="M7,7.875A.125.125,0,1,0,7.125,8,.125.125,0,0,0,7,7.875" fill="none" stroke="#323232" stroke-linecap="round" stroke-linejoin="round" stroke-width="1.5"/><path d="M11,7.875A.125.125,0,1,0,11.125,8,.125.125,0,0,0,11,7.875" fill="none" stroke="#323232" stroke-linecap="round" stroke-linejoin="round" stroke-width="1.5"/><path d="M7,11.875A.125.125,0,1,0,7.125,12,.125.125,0,0,0,7,11.875" fill="none" stroke="#323232" stroke-linecap="round" stroke-linejoin="round" stroke-width="1.5"/><path d="M11,11.875a.125.125,0,1,0,.125.125A.125.125,0,0,0,11,11.875" fill="none" stroke="#323232" stroke-linecap="round" stroke-linejoin="round" stroke-width="1.5"/><path d="M7,15.875A.125.125,0,1,0,7.125,16,.125.125,0,0,0,7,15.875" fill="none" stroke="#323232" stroke-linecap="round" stroke-linejoin="round" stroke-width="1.5"/><path d="M11,15.875a.125.125,0,1,0,.125.125A.125.125,0,0,0,11,15.875" fill="none" stroke="#323232" stroke-linecap="round" stroke-linejoin="round" stroke-width="1.5"/><path d="M18,11.875a.125.125,0,1,0,.125.125A.125.125,0,0,0,18,11.875" fill="none" stroke="#323232" stroke-linecap="round" stroke-linejoin="round" stroke-width="1.5"/><path d="M18,15.875a.125.125,0,1,0,.125.125A.125.125,0,0,0,18,15.875" fill="none" stroke="#323232" stroke-linecap="round" stroke-linejoin="round" stroke-width="1.5"/><path d="M0,0H24V24H0Z" fill="none"/></svg>