<?xml version="1.0" encoding="utf-8"?>
<!-- Generator: Adobe Illustrator 24.0.2, SVG Export Plug-In . SVG Version: 6.00 Build 0)  -->
<svg version="1.1" id="Layer_1" xmlns="http://www.w3.org/2000/svg" xmlns:xlink="http://www.w3.org/1999/xlink" x="0px" y="0px"
	 width="24px" height="24px" viewBox="0 0 24 24" enable-background="new 0 0 24 24" xml:space="preserve">
<g>
	<g>
		
			<path fill="none" stroke="#323232" stroke-width="1.5" stroke-linecap="round" stroke-linejoin="round" stroke-miterlimit="10" d="
			M17.5,19h-11c-1.105,0-2-0.895-2-2V6c0-1.657,1.343-3,3-3h9c1.657,0,3,1.343,3,3v11C19.5,18.105,18.605,19,17.5,19z"/>
		
			<line fill="none" stroke="#323232" stroke-width="1.5" stroke-linecap="round" stroke-linejoin="round" stroke-miterlimit="10" x1="7.5" y1="16" x2="8.5" y2="16"/>
		
			<line fill="none" stroke="#323232" stroke-width="1.5" stroke-linecap="round" stroke-linejoin="round" stroke-miterlimit="10" x1="15.5" y1="16" x2="16.5" y2="16"/>
		<path fill="none" stroke="#323232" stroke-width="1.5" stroke-linecap="round" stroke-linejoin="round" d="M8.236,19v1.5
			c0,0.552-0.448,1-1,1h-1c-0.552,0-1-0.448-1-1v-1.956"/>
		<path fill="none" stroke="#323232" stroke-width="1.5" stroke-linecap="round" stroke-linejoin="round" d="M18.764,18.544V20.5
			c0,0.552-0.448,1-1,1h-1c-0.552,0-1-0.448-1-1V19"/>
		
			<path fill="none" stroke="#323232" stroke-width="1.5" stroke-linecap="round" stroke-linejoin="round" stroke-miterlimit="10" d="
			M19.5,7H21c0.552,0,1,0.448,1,1v3"/>
		
			<path fill="none" stroke="#323232" stroke-width="1.5" stroke-linecap="round" stroke-linejoin="round" stroke-miterlimit="10" d="
			M4.5,7H3C2.448,7,2,7.448,2,8v3"/>
		
			<path fill="none" stroke="#323232" stroke-width="1.5" stroke-linecap="round" stroke-linejoin="round" stroke-miterlimit="10" d="
			M18.355,3.645c0,0-1.769,1.769-1.769,1.769C16.211,5.789,15.702,6,15.172,6H8.828c-0.53,0-1.039-0.211-1.414-0.586
			c0,0-1.771-1.771-1.771-1.771"/>
		
			<line fill="none" stroke="#323232" stroke-width="1.5" stroke-linecap="round" stroke-linejoin="round" stroke-miterlimit="10" x1="19.5" y1="13" x2="4.5" y2="13"/>
	</g>
	<path fill="none" d="M0,0h24v24H0V0z"/>
</g>
</svg>
