<?xml version="1.0" encoding="utf-8"?>
<!-- Generator: Adobe Illustrator 23.1.0, SVG Export Plug-In . SVG Version: 6.00 Build 0)  -->
<svg version="1.1" id="icons" xmlns="http://www.w3.org/2000/svg" xmlns:xlink="http://www.w3.org/1999/xlink" x="0px" y="0px"
	 width="24px" height="24px" viewBox="0 0 24 24" enable-background="new 0 0 24 24" xml:space="preserve">
<g>
	<g>
		<rect y="0" fill="none" width="24" height="24"/>
	</g>
	<g>
		<path fill="none" stroke="#323232" stroke-width="1.5" stroke-linecap="round" stroke-linejoin="round" d="M14.22,2.335
			c3.278,0.493,5.87,3.084,6.362,6.362c0.09,0.599-0.392,1.136-0.998,1.136h-5.501c-0.552,0-1-0.448-1-1V3.332
			C13.083,2.726,13.621,2.245,14.22,2.335z"/>
		<path fill="none" stroke="#323232" stroke-width="1.5" stroke-linecap="round" stroke-linejoin="round" d="M19.184,17.589
			c0.719-0.971,1.211-2.12,1.398-3.369c0.09-0.599-0.392-1.136-0.998-1.136l-4.087,0c-0.891,0-1.337,1.077-0.707,1.707l2.891,2.891
			C18.107,18.107,18.825,18.073,19.184,17.589z"/>
		<path fill="none" stroke="#323232" stroke-width="1.5" stroke-linecap="round" stroke-linejoin="round" d="M8.709,6.666
			c-4.133,0.614-7.178,4.563-6.311,9.022c0.577,2.967,2.975,5.354,5.944,5.919c2.251,0.428,4.369-0.139,5.992-1.338
			c0.486-0.359,0.523-1.079,0.096-1.506l-4.304-4.304c-0.188-0.188-0.293-0.442-0.293-0.707l0-6.09
			C9.833,7.061,9.304,6.578,8.709,6.666z"/>
	</g>
</g>
</svg>
