<?xml version="1.0" encoding="utf-8"?>
<!-- Generator: Adobe Illustrator 23.1.0, SVG Export Plug-In . SVG Version: 6.00 Build 0)  -->
<svg version="1.1" id="icons" xmlns="http://www.w3.org/2000/svg" xmlns:xlink="http://www.w3.org/1999/xlink" x="0px" y="0px"
	 width="24px" height="24px" viewBox="0 0 24 24" enable-background="new 0 0 24 24" xml:space="preserve">
<g>
	<g>
		<path fill="none" stroke="#323232" stroke-width="1.5" stroke-linecap="round" stroke-linejoin="round" d="M3,9l0-3
			c0-1.105,0.895-2,2-2h14c1.105,0,2,0.895,2,2v12c0,1.105-0.895,2-2,2h-6"/>
		<path fill="none" stroke="#323232" stroke-width="1.5" stroke-linecap="round" stroke-linejoin="round" d="M9,20l-0.251-0.63
			c-0.127-0.319-0.324-0.606-0.576-0.839l0,0c-0.427-0.396-0.988-0.615-1.569-0.615H4.396c-0.582,0-1.142,0.22-1.569,0.615l0,0
			c-0.252,0.233-0.449,0.52-0.576,0.839L2,20"/>
		<path fill="none" stroke="#323232" stroke-width="1.5" stroke-linecap="round" stroke-linejoin="round" d="M6.737,12.513
			c0.683,0.683,0.683,1.791,0,2.475c-0.683,0.683-1.791,0.683-2.475,0c-0.683-0.683-0.683-1.791,0-2.475
			C4.946,11.829,6.054,11.829,6.737,12.513"/>
		
			<line fill="none" stroke="#323232" stroke-width="1.5" stroke-linecap="round" stroke-linejoin="round" x1="11" y1="15" x2="11" y2="9"/>
		
			<line fill="none" stroke="#323232" stroke-width="1.5" stroke-linecap="round" stroke-linejoin="round" x1="14" y1="15" x2="14" y2="11.675"/>
		
			<line fill="none" stroke="#323232" stroke-width="1.5" stroke-linecap="round" stroke-linejoin="round" x1="17" y1="15" x2="17" y2="9.545"/>
	</g>
	<path fill="none" d="M0,0h24v24H0V0z"/>
</g>
</svg>
