<svg id="Layer_3" data-name="Layer 3" xmlns="http://www.w3.org/2000/svg" viewBox="0 0 24 24"><title>calendar-package-box-delivery</title><path d="M0,0H24V24H0Z" fill="none"/><path d="M12.691,19.154V15.848a1.171,1.171,0,0,1,.6-1.019l2.986-1.68a1.175,1.175,0,0,1,1.146,0l2.986,1.68A1.169,1.169,0,0,1,21,15.848v3.306a1.171,1.171,0,0,1-.595,1.018l-2.988,1.679a1.175,1.175,0,0,1-1.146,0l-2.986-1.68A1.168,1.168,0,0,1,12.691,19.154Z" fill="none" stroke="#323232" stroke-linecap="round" stroke-linejoin="round" stroke-width="1.5"/><path d="M16.846,17.5V22" fill="none" stroke="#323232" stroke-linecap="round" stroke-linejoin="round" stroke-width="1.5"/><path d="M12.851,15.257,16.846,17.5l4-2.243" fill="none" stroke="#323232" stroke-linecap="round" stroke-linejoin="round" stroke-width="1.5"/><path d="M15,3V5" fill="none" stroke="#323232" stroke-linecap="round" stroke-linejoin="round" stroke-width="1.5"/><path d="M7,3V5" fill="none" stroke="#323232" stroke-linecap="round" stroke-linejoin="round" stroke-width="1.5"/><path d="M3,9H19" fill="none" stroke="#323232" stroke-linecap="round" stroke-linejoin="round" stroke-width="1.5"/><path d="M19,10V7a3,3,0,0,0-3-3H6A3,3,0,0,0,3,7v9a3,3,0,0,0,3,3H9" fill="none" stroke="#323232" stroke-linecap="round" stroke-linejoin="round" stroke-width="1.5"/></svg>