<?xml version="1.0" encoding="UTF-8"?><svg version="1.1" viewBox="0 0 24 24" xmlns="http://www.w3.org/2000/svg" xmlns:xlink="http://www.w3.org/1999/xlink"><!--Generated by IJSVG (https://github.com/iconjar/IJSVG)--><g stroke-linecap="round" stroke-width="1.5" stroke="#323232" fill="none" stroke-linejoin="round"><path d="M21,8.996h-18"></path><path d="M8,2.876v2.25"></path><path d="M16,2.876v2.25"></path><path d="M18,21h-12c-1.657,0 -3,-1.343 -3,-3v-11c0,-1.657 1.343,-3 3,-3h12c1.657,0 3,1.343 3,3v11c0,1.657 -1.343,3 -3,3Z"></path><path d="M8.12,17.5h2.68"></path><path d="M9.46,17.5v-5l-1.46,1.32"></path><path d="M12.95,16.811c0.271,0.413 0.725,0.689 1.258,0.689c0.854,0 1.546,-0.692 1.546,-1.545c0,-0.383 -0.172,-0.726 -0.444,-0.955c-0.218,-0.184 -0.499,-0.295 -0.806,-0.295h-1.375l0.25,-2.205h2.161"></path></g><path fill="none" d="M0,0h24v24h-24v-24Z"></path></svg>