<svg id="Layer_3" data-name="Layer 3" xmlns="http://www.w3.org/2000/svg" viewBox="0 0 24 24"><title>calendar-schedule-refresh</title><rect width="24" height="24" fill="none"/><path d="M11,21H6a3,3,0,0,1-3-3V6A3,3,0,0,1,6,3H18a3,3,0,0,1,3,3v5" fill="none" stroke="#323232" stroke-linecap="round" stroke-linejoin="round" stroke-width="1.5"/><path d="M19.583,16.269H21V14.854" fill="none" stroke="#323232" stroke-linecap="round" stroke-linejoin="round" stroke-width="1.5"/><path d="M16.42,19.33H15.006v1.415" fill="none" stroke="#323232" stroke-linecap="round" stroke-linejoin="round" stroke-width="1.5"/><path d="M21,18.866a3.086,3.086,0,0,1-.735,1.2,3.2,3.2,0,0,1-4.525,0,3.162,3.162,0,0,1-.548-.732" fill="none" stroke="#323232" stroke-linecap="round" stroke-linejoin="round" stroke-width="1.5"/><path d="M20.812,16.268a3.2,3.2,0,0,0-5.073-.733,3.1,3.1,0,0,0-.738,1.2" fill="none" stroke="#323232" stroke-linecap="round" stroke-linejoin="round" stroke-width="1.5"/><line x1="21" y1="8" x2="3" y2="8" fill="none" stroke="#323232" stroke-linecap="round" stroke-linejoin="round" stroke-width="1.5"/><path d="M13.749,11.45a.049.049,0,1,0,.049.049.049.049,0,0,0-.049-.049" fill="none" stroke="#323232" stroke-linecap="round" stroke-linejoin="round" stroke-width="1.5"/><path d="M10.249,11.45a.048.048,0,0,0-.048.049.049.049,0,1,0,.048-.049" fill="none" stroke="#323232" stroke-linecap="round" stroke-linejoin="round" stroke-width="1.5"/><path d="M6.749,11.45A.048.048,0,0,0,6.7,11.5a.049.049,0,1,0,.048-.049" fill="none" stroke="#323232" stroke-linecap="round" stroke-linejoin="round" stroke-width="1.5"/><path d="M10.249,14.45a.048.048,0,0,0-.048.049.049.049,0,1,0,.048-.049" fill="none" stroke="#323232" stroke-linecap="round" stroke-linejoin="round" stroke-width="1.5"/><path d="M6.749,14.45A.048.048,0,0,0,6.7,14.5a.049.049,0,1,0,.048-.049" fill="none" stroke="#323232" stroke-linecap="round" stroke-linejoin="round" stroke-width="1.5"/><path d="M10.249,17.451a.048.048,0,0,0-.048.049.049.049,0,1,0,.048-.049" fill="none" stroke="#323232" stroke-linecap="round" stroke-linejoin="round" stroke-width="1.5"/><path d="M6.749,17.451A.048.048,0,0,0,6.7,17.5a.049.049,0,1,0,.048-.049" fill="none" stroke="#323232" stroke-linecap="round" stroke-linejoin="round" stroke-width="1.5"/></svg>