<svg id="Layer_3" data-name="Layer 3" xmlns="http://www.w3.org/2000/svg" viewBox="0 0 24 24"><title>calendar-schedule-discount</title><path d="M0,0H24V24H0Z" fill="none"/><path d="M15,2V4" fill="none" stroke="#323232" stroke-linecap="round" stroke-linejoin="round" stroke-width="1.5"/><path d="M7,2V4" fill="none" stroke="#323232" stroke-linecap="round" stroke-linejoin="round" stroke-width="1.5"/><path d="M3,8H19" fill="none" stroke="#323232" stroke-linecap="round" stroke-linejoin="round" stroke-width="1.5"/><path d="M19,10V6a3,3,0,0,0-3-3H6A3,3,0,0,0,3,6v9a3,3,0,0,0,3,3H9" fill="none" stroke="#323232" stroke-linecap="round" stroke-linejoin="round" stroke-width="1.5"/><path d="M15.707,18.25l2.5-2.5" fill="none" stroke="#323232" stroke-linecap="round" stroke-linejoin="round" stroke-width="1.5"/><path d="M18.586,18.559a.05.05,0,0,1-.071.071.05.05,0,0,1,0-.071.051.051,0,0,1,.071,0" fill="none" stroke="#323232" stroke-linecap="round" stroke-linejoin="round" stroke-width="1.5"/><path d="M21.958,17a5,5,0,1,1-5-5A4.992,4.992,0,0,1,21.958,17Z" fill="none" stroke="#323232" stroke-linecap="round" stroke-linejoin="round" stroke-width="1.5"/><path d="M15.33,15.441a.05.05,0,0,1,.071-.071.05.05,0,0,1,0,.071.051.051,0,0,1-.071,0" fill="none" stroke="#323232" stroke-linecap="round" stroke-linejoin="round" stroke-width="1.5"/></svg>