<svg id="Layer_3" data-name="Layer 3" xmlns="http://www.w3.org/2000/svg" viewBox="0 0 24 24"><title>calendar-schedule</title><path d="M0,0H24V24H0Z" fill="none"/><path d="M7,11.00833H17" fill="none" stroke="#323232" stroke-linecap="round" stroke-linejoin="round" stroke-width="1.5"/><path d="M13.94444,6.84167V8.50833" fill="none" stroke="#323232" stroke-linecap="round" stroke-linejoin="round" stroke-width="1.5"/><path d="M10.05556,6.84167V8.50833" fill="none" stroke="#323232" stroke-linecap="round" stroke-linejoin="round" stroke-width="1.5"/><path d="M15.33333,17.00833H8.66667A1.66666,1.66666,0,0,1,7,15.34167v-6A1.66667,1.66667,0,0,1,8.66667,7.675h6.66666A1.66667,1.66667,0,0,1,17,9.34167v6A1.66666,1.66666,0,0,1,15.33333,17.00833Z" fill="none" stroke="#323232" stroke-linecap="round" stroke-linejoin="round" stroke-width="1.5"/><path d="M16,21H8a5,5,0,0,1-5-5V8A5,5,0,0,1,8,3h8a5,5,0,0,1,5,5v8A5,5,0,0,1,16,21Z" fill="none" stroke="#323232" stroke-linecap="round" stroke-linejoin="round" stroke-width="1.5"/></svg>