<svg id="Layer_3" data-name="Layer 3" xmlns="http://www.w3.org/2000/svg" viewBox="0 0 24 24"><path d="M3.882,13.5H20.11794" fill="none" stroke="#323232" stroke-linecap="round" stroke-linejoin="round" stroke-width="1.5"/><path d="M20.14485,13.163l.826-4.825A2.00054,2.00054,0,0,0,18.99887,6H5.00112a2.00015,2.00015,0,0,0-1.972,2.337l.826,4.825a2.01313,2.01313,0,0,1,0,.675l-.826,4.825A2.00053,2.00053,0,0,0,5.00112,21H18.99987a2,2,0,0,0,1.971-2.337l-.826-4.825A2.0126,2.0126,0,0,1,20.14485,13.163Z" fill="none" stroke="#323232" stroke-linecap="round" stroke-linejoin="round" stroke-width="1.5"/><path d="M5.14216,6l-.113-.663A2,2,0,0,1,7.00013,3h9.99949a1.9989,1.9989,0,0,1,1.971,2.337l-.113.663" fill="none" stroke="#323232" stroke-linecap="round" stroke-linejoin="round" stroke-width="1.5"/><path d="M0,0H24V24H0Z" fill="none"/></svg>