<svg id="Layer_3" data-name="Layer 3" xmlns="http://www.w3.org/2000/svg" viewBox="0 0 24 24"><line x1="7.5" y1="3" x2="7.5" y2="6" fill="none" stroke="#323232" stroke-linecap="round" stroke-linejoin="round" stroke-width="1.5"/><line x1="16.5" y1="3" x2="16.5" y2="6" fill="none" stroke="#323232" stroke-linecap="round" stroke-linejoin="round" stroke-width="1.5"/><path d="M10,21H6a3,3,0,0,1-3-3V7.5a3,3,0,0,1,3-3H18a3,3,0,0,1,3,3V10" fill="none" stroke="#323232" stroke-linecap="round" stroke-linejoin="round" stroke-width="1.5"/><path d="M16.393,14.983v1.758l1.382.843" fill="none" stroke="#323232" stroke-linecap="round" stroke-linejoin="round" stroke-width="1.5"/><path d="M16.5,21A4.49972,4.49972,0,0,1,12,16.5,4.56879,4.56879,0,0,1,16.504,12a4.5,4.5,0,0,1-.004,9" fill="none" stroke="#323232" stroke-width="1.5"/><path d="M0,0H24V24H0Z" fill="none"/></svg>