<svg id="Layer_3" data-name="Layer 3" xmlns="http://www.w3.org/2000/svg" viewBox="0 0 24 24"><title>calendar-schedule-delivery-package</title><path d="M0,0H24V24H0Z" fill="none"/><path d="M15,3V5" fill="none" stroke="#323232" stroke-linecap="round" stroke-linejoin="round" stroke-width="1.5"/><path d="M7,3V5" fill="none" stroke="#323232" stroke-linecap="round" stroke-linejoin="round" stroke-width="1.5"/><path d="M3,9H19" fill="none" stroke="#323232" stroke-linecap="round" stroke-linejoin="round" stroke-width="1.5"/><path d="M19,10V7a3,3,0,0,0-3-3H6A3,3,0,0,0,3,7v9a3,3,0,0,0,3,3H9" fill="none" stroke="#323232" stroke-linecap="round" stroke-linejoin="round" stroke-width="1.5"/><path d="M13.286,13h6.428A1.286,1.286,0,0,1,21,14.286V20a1.286,1.286,0,0,1-1.286,1.286H13.286A1.286,1.286,0,0,1,12,20V14.286A1.286,1.286,0,0,1,13.286,13Z" fill="none" stroke="#323232" stroke-linecap="round" stroke-linejoin="round" stroke-width="1.5"/><line x1="17.5" y1="16" x2="15.5" y2="16" fill="none" stroke="#323232" stroke-linecap="round" stroke-linejoin="round" stroke-width="1.5"/></svg>