<svg id="Layer_3" data-name="Layer 3" xmlns="http://www.w3.org/2000/svg" viewBox="0 0 24 24"><title>calendar-schedule</title><path d="M14.673,21H6a3,3,0,0,1-3-3V6A3,3,0,0,1,6,3H18a3,3,0,0,1,3,3v8.672" fill="none" stroke="#323232" stroke-linecap="round" stroke-linejoin="round" stroke-width="1.5"/><path d="M17.5,13A4.5,4.5,0,1,1,13,17.5,4.5,4.5,0,0,1,17.5,13" fill="none" stroke="#323232" stroke-linecap="round" stroke-linejoin="round" stroke-width="1.5"/><line x1="21" y1="8" x2="3" y2="8" fill="none" stroke="#323232" stroke-linecap="round" stroke-linejoin="round" stroke-width="1.5"/><path d="M19,16.75l-1.874,1.875L16,17.5" fill="none" stroke="#323232" stroke-linecap="round" stroke-linejoin="round" stroke-width="1.5"/><path d="M13.749,11.45a.049.049,0,1,0,.049.049.049.049,0,0,0-.049-.049" fill="none" stroke="#323232" stroke-linecap="round" stroke-linejoin="round" stroke-width="1.5"/><path d="M10.249,11.45a.048.048,0,0,0-.048.049.049.049,0,1,0,.048-.049" fill="none" stroke="#323232" stroke-linecap="round" stroke-linejoin="round" stroke-width="1.5"/><path d="M6.749,11.45A.048.048,0,0,0,6.7,11.5a.049.049,0,1,0,.048-.049" fill="none" stroke="#323232" stroke-linecap="round" stroke-linejoin="round" stroke-width="1.5"/><path d="M10.249,14.45a.048.048,0,0,0-.048.049.049.049,0,1,0,.048-.049" fill="none" stroke="#323232" stroke-linecap="round" stroke-linejoin="round" stroke-width="1.5"/><path d="M6.749,14.45A.048.048,0,0,0,6.7,14.5a.049.049,0,1,0,.048-.049" fill="none" stroke="#323232" stroke-linecap="round" stroke-linejoin="round" stroke-width="1.5"/><path d="M10.249,17.451a.048.048,0,0,0-.048.049.049.049,0,1,0,.048-.049" fill="none" stroke="#323232" stroke-linecap="round" stroke-linejoin="round" stroke-width="1.5"/><path d="M6.749,17.451A.048.048,0,0,0,6.7,17.5a.049.049,0,1,0,.048-.049" fill="none" stroke="#323232" stroke-linecap="round" stroke-linejoin="round" stroke-width="1.5"/><rect width="24" height="24" fill="none"/></svg>