<svg id="Layer_3" data-name="Layer 3" xmlns="http://www.w3.org/2000/svg" viewBox="0 0 24 24"><title>calendar, schedule</title><rect x="3" y="3" width="18" height="18" rx="3" stroke-width="1.5" stroke="#323232" stroke-linecap="round" stroke-linejoin="round" fill="none"/><line x1="21" y1="8" x2="3" y2="8" fill="none" stroke="#323232" stroke-linecap="round" stroke-linejoin="round" stroke-width="1.5"/><path d="M13.749,11.45a.049.049,0,1,0,.049.049.049.049,0,0,0-.049-.049" fill="none" stroke="#323232" stroke-linecap="round" stroke-linejoin="round" stroke-width="1.5"/><path d="M10.249,14.45a.048.048,0,0,0-.048.049.049.049,0,1,0,.048-.049" fill="none" stroke="#323232" stroke-linecap="round" stroke-linejoin="round" stroke-width="1.5"/><path d="M6.749,14.45A.048.048,0,0,0,6.7,14.5a.049.049,0,1,0,.048-.049" fill="none" stroke="#323232" stroke-linecap="round" stroke-linejoin="round" stroke-width="1.5"/><path d="M10.249,17.451a.048.048,0,0,0-.048.049.049.049,0,1,0,.048-.049" fill="none" stroke="#323232" stroke-linecap="round" stroke-linejoin="round" stroke-width="1.5"/><path d="M6.749,17.451A.048.048,0,0,0,6.7,17.5a.049.049,0,1,0,.048-.049" fill="none" stroke="#323232" stroke-linecap="round" stroke-linejoin="round" stroke-width="1.5"/><path d="M17.249,11.451a.048.048,0,0,0-.048.049.049.049,0,1,0,.048-.049" fill="none" stroke="#323232" stroke-linecap="round" stroke-linejoin="round" stroke-width="1.5"/><path d="M13.75,11.451a.049.049,0,1,0,.049.049.049.049,0,0,0-.049-.049" fill="none" stroke="#323232" stroke-linecap="round" stroke-linejoin="round" stroke-width="1.5"/><path d="M13.749,14.45a.049.049,0,1,0,.049.049.049.049,0,0,0-.049-.049" fill="none" stroke="#323232" stroke-linecap="round" stroke-linejoin="round" stroke-width="1.5"/><path d="M17.249,14.451a.048.048,0,0,0-.048.049.049.049,0,1,0,.048-.049" fill="none" stroke="#323232" stroke-linecap="round" stroke-linejoin="round" stroke-width="1.5"/><path d="M13.75,14.452a.049.049,0,1,0,.049.049.049.049,0,0,0-.049-.049" fill="none" stroke="#323232" stroke-linecap="round" stroke-linejoin="round" stroke-width="1.5"/><rect width="24" height="24" fill="none"/></svg>