<svg id="Layer_3" data-name="Layer 3" xmlns="http://www.w3.org/2000/svg" viewBox="0 0 24 24"><title>calendar-schedule-stamp</title><path d="M0,0H24V24H0Z" fill="none"/><path d="M15,2V4" fill="none" stroke="#323232" stroke-linecap="round" stroke-linejoin="round" stroke-width="1.5"/><path d="M7,2V4" fill="none" stroke="#323232" stroke-linecap="round" stroke-linejoin="round" stroke-width="1.5"/><path d="M3,8H19" fill="none" stroke="#323232" stroke-linecap="round" stroke-linejoin="round" stroke-width="1.5"/><path d="M19,9V6a3,3,0,0,0-3-3H6A3,3,0,0,0,3,6v9a3,3,0,0,0,3,3H9" fill="none" stroke="#323232" stroke-linecap="round" stroke-linejoin="round" stroke-width="1.5"/><path d="M21,19.586v-.865a1,1,0,0,0-.684-.949L18,17V15l.7-.446a1.387,1.387,0,0,0,.587-1.542h0A1.386,1.386,0,0,0,17.949,12h-2.9a1.386,1.386,0,0,0-1.335,1.012h0a1.387,1.387,0,0,0,.587,1.542L15,15v2l-2.316.772a1,1,0,0,0-.684.949v.865a1,1,0,0,0,.293.707l.414.414a1,1,0,0,0,.707.293h6.172a1,1,0,0,0,.707-.293l.414-.414A1,1,0,0,0,21,19.586Z" fill="none" stroke="#323232" stroke-linecap="round" stroke-linejoin="round" stroke-width="1.5"/></svg>