<svg id="Layer_3" data-name="Layer 3" xmlns="http://www.w3.org/2000/svg" viewBox="0 0 24 24"><title>calendar-schedule-</title><path d="M0,0H24V24H0Z" fill="none"/><path d="M14.025,16.922v2.325a1.349,1.349,0,0,0,.746,1.207l.522.261a2.7,2.7,0,0,0,2.414,0l.522-.261a1.349,1.349,0,0,0,.746-1.207V16.922" fill="none" stroke="#323232" stroke-linecap="round" stroke-linejoin="round" stroke-width="1.5"/><path d="M12.413,16.116,15.5,17.658a2.247,2.247,0,0,0,2.006,0l3.084-1.542a.747.747,0,0,0,0-1.337L17.5,13.237a2.241,2.241,0,0,0-2.006,0l-3.084,1.542A.747.747,0,0,0,12.413,16.116Z" fill="none" stroke="#323232" stroke-linecap="round" stroke-linejoin="round" stroke-width="1.5"/><path d="M21,15.447v1.8" fill="none" stroke="#323232" stroke-linecap="round" stroke-linejoin="round" stroke-width="1.5"/><path d="M16.5,2V4.25" fill="none" stroke="#323232" stroke-linecap="round" stroke-linejoin="round" stroke-width="1.5"/><path d="M7.5,2V4.25" fill="none" stroke="#323232" stroke-linecap="round" stroke-linejoin="round" stroke-width="1.5"/><path d="M3,8.75H21" fill="none" stroke="#323232" stroke-linecap="round" stroke-linejoin="round" stroke-width="1.5"/><path d="M21,11V6.5a3.375,3.375,0,0,0-3.375-3.375H6.375A3.375,3.375,0,0,0,3,6.5V16.625A3.375,3.375,0,0,0,6.375,20H11" fill="none" stroke="#323232" stroke-linecap="round" stroke-linejoin="round" stroke-width="1.5"/></svg>