<svg id="Layer_3" data-name="Layer 3" xmlns="http://www.w3.org/2000/svg" viewBox="0 0 24 24"><title>calendar-schedule-store-shop</title><path d="M0,0H24V24H0Z" fill="none"/><path d="M15,3V5" fill="none" stroke="#323232" stroke-linecap="round" stroke-linejoin="round" stroke-width="1.5"/><path d="M7,3V5" fill="none" stroke="#323232" stroke-linecap="round" stroke-linejoin="round" stroke-width="1.5"/><path d="M3,9H19" fill="none" stroke="#323232" stroke-linecap="round" stroke-linejoin="round" stroke-width="1.5"/><path d="M19,10V7a3,3,0,0,0-3-3H6A3,3,0,0,0,3,7v9a3,3,0,0,0,3,3h4" fill="none" stroke="#323232" stroke-linecap="round" stroke-linejoin="round" stroke-width="1.5"/><path d="M13.482,16.7V21" fill="none" stroke="#323232" stroke-linecap="round" stroke-linejoin="round" stroke-width="1.5"/><path d="M20.518,21V16.7" fill="none" stroke="#323232" stroke-linecap="round" stroke-linejoin="round" stroke-width="1.5"/><path d="M15.442,15.667h.051a1.588,1.588,0,0,0,3.019,0h.05a1.474,1.474,0,0,0,1.512,1.1,1.315,1.315,0,0,0,1.235-1.878l-.586-1.156A1.332,1.332,0,0,0,19.531,13H14.465a1.334,1.334,0,0,0-1.19.73l-.584,1.155a1.315,1.315,0,0,0,.626,1.751,1.33,1.33,0,0,0,.614.125A1.474,1.474,0,0,0,15.442,15.667Z" fill="none" stroke="#323232" stroke-linecap="round" stroke-linejoin="round" stroke-width="1.5"/><line x1="16.998" y1="21" x2="16.998" y2="19.222" fill="none" stroke="#323232" stroke-linecap="round" stroke-linejoin="round" stroke-width="1.5"/><path d="M12.948,21h8.1" fill="none" stroke="#323232" stroke-linecap="round" stroke-linejoin="round" stroke-width="1.5"/></svg>