<svg id="Layer_3" data-name="Layer 3" xmlns="http://www.w3.org/2000/svg" viewBox="0 0 24 24"><line x1="7.5" y1="3" x2="7.5" y2="6" fill="none" stroke="#323232" stroke-linecap="round" stroke-linejoin="round" stroke-width="1.5"/><line x1="16.5" y1="3" x2="16.5" y2="6" fill="none" stroke="#323232" stroke-linecap="round" stroke-linejoin="round" stroke-width="1.5"/><path d="M11.32853,10.41685a.747.747,0,0,1,1.34,0l.546,1.107a.743.743,0,0,0,.562.408l1.223.182a.747.747,0,0,1,.413,1.274l-.884.862a.742.742,0,0,0-.214.661l.208,1.216a.746.746,0,0,1-1.083.787l-1.092-.574a.743.743,0,0,0-.7,0l-1.091.574a.746.746,0,0,1-1.083-.787l.208-1.216a.745.745,0,0,0-.214-.661l-.88-.862a.747.747,0,0,1,.412-1.274l1.222-.182a.743.743,0,0,0,.562-.408Z" fill="none" stroke="#323232" stroke-linecap="round" stroke-linejoin="round" stroke-width="1.5"/><rect x="3" y="4.5" width="18" height="16.5" rx="3" stroke-width="1.5" stroke="#323232" stroke-linecap="round" stroke-linejoin="round" fill="none"/><path d="M0,0H24V24H0Z" fill="none"/></svg>