<?xml version="1.0" encoding="utf-8"?>
<!-- Generator: Adobe Illustrator 23.1.0, SVG Export Plug-In . SVG Version: 6.00 Build 0)  -->
<svg version="1.1" id="icons" xmlns="http://www.w3.org/2000/svg" xmlns:xlink="http://www.w3.org/1999/xlink" x="0px" y="0px"
	 width="24px" height="24px" viewBox="0 0 24 24" enable-background="new 0 0 24 24" xml:space="preserve">
<g>
	<g>
		<path fill="none" stroke="#323232" stroke-width="1.5" stroke-linecap="round" stroke-linejoin="round" d="M14.292,16.663
			l-0.729-0.781l-0.729,0.781"/>
		<path fill="none" stroke="#323232" stroke-width="1.5" stroke-linecap="round" stroke-linejoin="round" d="M18.834,19.405
			C18.287,19.778,17.629,20,16.917,20c-1.89,0-3.422-1.532-3.422-3.422c0-0.229,0.024-0.453,0.067-0.67"/>
		<path fill="none" stroke="#323232" stroke-width="1.5" stroke-linecap="round" stroke-linejoin="round" d="M19.542,16.564
			l0.729,0.78L21,16.564"/>
		<path fill="none" stroke="#323232" stroke-width="1.5" stroke-linecap="round" stroke-linejoin="round" d="M14.999,13.822
			c0.547-0.373,1.205-0.594,1.917-0.594c1.89,0,3.422,1.532,3.422,3.422c0,0.229-0.024,0.452-0.068,0.67"/>
		<path fill="none" stroke="#323232" stroke-width="1.5" stroke-linecap="round" stroke-linejoin="round" d="M15,3v2"/>
		<path fill="none" stroke="#323232" stroke-width="1.5" stroke-linecap="round" stroke-linejoin="round" d="M7,3v2"/>
		<path fill="none" stroke="#323232" stroke-width="1.5" stroke-linecap="round" stroke-linejoin="round" d="M3,8h16"/>
		<path fill="none" stroke="#323232" stroke-width="1.5" stroke-linecap="round" stroke-linejoin="round" d="M19,10V6
			c0-1.105-0.895-2-2-2H5C3.895,4,3,4.895,3,6v11c0,1.105,0.895,2,2,2h5"/>
		<path fill="none" stroke="#323232" stroke-width="1.5" stroke-linecap="round" stroke-linejoin="round" d="M6.999,10.75
			c-0.138,0-0.25,0.112-0.249,0.25c0,0.138,0.112,0.25,0.25,0.25S7.25,11.138,7.25,11S7.138,10.75,6.999,10.75"/>
		<path fill="none" stroke="#323232" stroke-width="1.5" stroke-linecap="round" stroke-linejoin="round" d="M6.999,14.75
			c-0.138,0-0.25,0.112-0.249,0.25c0,0.138,0.112,0.25,0.25,0.25S7.25,15.138,7.25,15S7.138,14.75,6.999,14.75"/>
		<path fill="none" stroke="#323232" stroke-width="1.5" stroke-linecap="round" stroke-linejoin="round" d="M10.75,11.001
			c0,0.138,0.112,0.25,0.25,0.249c0.138,0,0.25-0.112,0.25-0.25s-0.112-0.25-0.25-0.25S10.75,10.862,10.75,11.001"/>
	</g>
	<rect y="0" fill="none" width="24" height="24"/>
</g>
</svg>
