<?xml version="1.0" encoding="utf-8"?>
<!-- Generator: Adobe Illustrator 24.0.2, SVG Export Plug-In . SVG Version: 6.00 Build 0)  -->
<svg version="1.1" id="Layer_1" xmlns="http://www.w3.org/2000/svg" xmlns:xlink="http://www.w3.org/1999/xlink" x="0px" y="0px"
	 width="24px" height="24px" viewBox="0 0 24 24" enable-background="new 0 0 24 24" xml:space="preserve">
<g>
	<g>
		<path fill="none" stroke="#323232" stroke-width="1.5" stroke-linecap="round" stroke-linejoin="round" d="M18.383,8h1.061
			C20.304,8,21,8.696,21,9.556v9.889C21,20.304,20.304,21,19.444,21H8.556C7.696,21,7,20.304,7,19.444V18"/>
		<path fill="none" stroke="#323232" stroke-width="1.5" stroke-linecap="round" stroke-linejoin="round" d="M4.001,18h11.312
			c0.669,0,1.293-0.334,1.664-0.891l0.734-1.102c0.438-0.657,0.672-1.429,0.672-2.219V6c0-1.105-0.895-2-2-2h-10
			c-1.105,0-2,0.895-2,2v7.056c0,0.621-0.145,1.233-0.422,1.789l-0.854,1.708C2.774,17.218,3.258,18,4.001,18z"/>
		<path fill="none" stroke="#323232" stroke-width="1.5" stroke-linecap="round" stroke-linejoin="round" d="M13.651,9.593
			l-2.813,2.813L9.15,10.719"/>
		<path fill="none" stroke="#323232" stroke-width="1.5" stroke-linecap="round" stroke-linejoin="round" d="M8.38,3v2"/>
		<path fill="none" stroke="#323232" stroke-width="1.5" stroke-linecap="round" stroke-linejoin="round" d="M14.38,3v2"/>
	</g>
	<path fill="none" d="M0,0h24v24H0V0z"/>
</g>
</svg>
