<?xml version="1.0" encoding="utf-8"?>
<!-- Generator: Adobe Illustrator 24.0.2, SVG Export Plug-In . SVG Version: 6.00 Build 0)  -->
<svg version="1.1" id="Layer_1" xmlns="http://www.w3.org/2000/svg" xmlns:xlink="http://www.w3.org/1999/xlink" x="0px" y="0px"
	 width="24px" height="24px" viewBox="0 0 24 24" enable-background="new 0 0 24 24" xml:space="preserve">
<g>
	<g>
		<path fill="none" stroke="#323232" stroke-width="1.5" stroke-linecap="round" stroke-linejoin="round" d="M13.32,16H16"/>
		<path fill="none" stroke="#323232" stroke-width="1.5" stroke-linecap="round" stroke-linejoin="round" d="M14.66,16v-5
			l-1.46,1.32"/>
		<g>
			<path fill="none" stroke="#323232" stroke-width="1.5" stroke-linecap="round" stroke-linejoin="round" d="M20.145,13.163
				l0.826-4.825C21.18,7.116,20.239,6,18.999,6H5.001C3.761,6,2.82,7.116,3.029,8.337l0.826,4.825c0.038,0.223,0.038,0.452,0,0.675
				l-0.826,4.825C2.82,19.884,3.761,21,5.001,21h13.999c1.239,0,2.18-1.116,1.971-2.337l-0.826-4.825
				C20.107,13.614,20.107,13.386,20.145,13.163z"/>
		</g>
		<path fill="none" stroke="#323232" stroke-width="1.5" stroke-linecap="round" stroke-linejoin="round" d="M19,6l0.113-0.663
			C19.323,4.116,18.382,3,17.142,3H6.858c-1.239,0-2.18,1.116-1.971,2.337L5,6"/>
		<path fill="none" stroke="#323232" stroke-width="1.5" stroke-linecap="round" stroke-linejoin="round" d="M8,11.96
			C8.159,11.41,8.645,11,9.246,11c0.728,0,1.319,0.59,1.319,1.319c0,0.652-0.529,1.181-1.181,1.181c0.652,0,1.181,0.529,1.181,1.181
			c0,0.728-0.59,1.319-1.319,1.319C8.645,16,8.159,15.59,8,15.04"/>
	</g>
	<path fill="none" d="M0,0h24v24H0V0z"/>
</g>
</svg>
