<?xml version="1.0" encoding="utf-8"?>
<!-- Generator: Adobe Illustrator 24.0.2, SVG Export Plug-In . SVG Version: 6.00 Build 0)  -->
<svg version="1.1" id="Layer_1" xmlns="http://www.w3.org/2000/svg" xmlns:xlink="http://www.w3.org/1999/xlink" x="0px" y="0px"
	 width="24px" height="24px" viewBox="0 0 24 24" enable-background="new 0 0 24 24" xml:space="preserve">
<g>
	<g>
		<path fill="none" stroke="#323232" stroke-width="1.5" stroke-linecap="round" stroke-linejoin="round" d="M12.429,15.571H8
			c-0.552,0-1-0.448-1-1V9.429c0-0.552,0.448-1,1-1h4.429c0.552,0,1,0.448,1,1v5.143C13.429,15.124,12.981,15.571,12.429,15.571z"/>
		<path fill="none" stroke="#323232" stroke-width="1.5" stroke-linecap="round" stroke-linejoin="round" d="M13.429,11.286
			l1.996-1.996c0.094-0.094,0.221-0.146,0.354-0.146H16.5c0.276,0,0.5,0.224,0.5,0.5v4.714c0,0.276-0.224,0.5-0.5,0.5h-0.721
			c-0.133,0-0.26-0.053-0.354-0.146l-1.996-1.996"/>
		<g>
			<path fill="none" stroke="#323232" stroke-width="1.5" stroke-linecap="round" stroke-linejoin="round" d="M17,21H7
				c-2.209,0-4-1.791-4-4V7c0-2.209,1.791-4,4-4h10c2.209,0,4,1.791,4,4v10C21,19.209,19.209,21,17,21z"/>
		</g>
	</g>
	<path fill="none" d="M0,0h24v24H0V0z"/>
</g>
</svg>
