<?xml version="1.0" encoding="utf-8"?>
<!-- Generator: Adobe Illustrator 24.0.2, SVG Export Plug-In . SVG Version: 6.00 Build 0)  -->
<svg version="1.1" id="Layer_3" xmlns="http://www.w3.org/2000/svg" xmlns:xlink="http://www.w3.org/1999/xlink" x="0px" y="0px"
	 width="24px" height="24px" viewBox="0 0 24 24" enable-background="new 0 0 24 24" xml:space="preserve">
<g>
	<g>
		<path fill="none" d="M0,0h24v24H0V0z"/>
	</g>
	<g>
		<path fill="none" stroke="#323232" stroke-width="1.5" stroke-linecap="round" stroke-linejoin="round" d="M12,21L12,21
			c-4.971,0-9-4.029-9-9v0c0-4.971,4.029-9,9-9h7c1.105,0,2,0.895,2,2v7C21,16.971,16.971,21,12,21z"/>
		<path fill="none" stroke="#323232" stroke-width="1.5" stroke-linecap="round" stroke-linejoin="round" d="M11.929,15.016H8.5
			c-0.552,0-1-0.448-1-1V9.984c0-0.552,0.448-1,1-1h3.429c0.552,0,1,0.448,1,1v4.031C12.929,14.568,12.481,15.016,11.929,15.016z"/>
		<path fill="none" stroke="#323232" stroke-width="1.5" stroke-linecap="round" stroke-linejoin="round" d="M12.929,11.286
			l1.954-1.954c0.12-0.12,0.283-0.188,0.453-0.188h0.522c0.354,0,0.641,0.287,0.641,0.641v4.432c0,0.354-0.287,0.641-0.641,0.641
			h-0.522c-0.17,0-0.333-0.068-0.453-0.188l-1.954-1.954"/>
	</g>
</g>
</svg>
