<?xml version="1.0" encoding="utf-8"?>
<!-- Generator: Adobe Illustrator 24.0.2, SVG Export Plug-In . SVG Version: 6.00 Build 0)  -->
<svg version="1.1" id="Layer_3" xmlns="http://www.w3.org/2000/svg" xmlns:xlink="http://www.w3.org/1999/xlink" x="0px" y="0px"
	 width="24px" height="24px" viewBox="0 0 24 24" enable-background="new 0 0 24 24" xml:space="preserve">
<g>
	<path fill="none" d="M0,0h24v24H0V0z"/>
	<g>
		<path fill="none" stroke="#323232" stroke-width="1.5" stroke-linecap="round" stroke-linejoin="round" d="M14.4,10H9.6
			C8.716,10,8,9.284,8,8.4V7.8C8,7.358,8.358,7,8.8,7h6.4C15.642,7,16,7.358,16,7.8v0.6C16,9.284,15.284,10,14.4,10z"/>
		<g>
			
				<path fill="none" stroke="#323232" stroke-width="1.5" stroke-linecap="round" stroke-linejoin="round" stroke-miterlimit="10" d="
				M20.381,15.273c1.258-3.227,0.589-7.031-2.017-9.637c-3.515-3.515-9.213-3.515-12.728,0c-2.606,2.606-3.275,6.411-2.017,9.637"/>
		</g>
		<path fill="none" stroke="#323232" stroke-width="1.5" stroke-linecap="round" stroke-linejoin="round" d="M9.274,10
			c-0.412,1.052-0.196,2.292,0.654,3.141c1.145,1.145,3,1.145,4.145,0c0.85-0.85,1.066-2.09,0.654-3.141"/>
		<path fill="none" stroke="#323232" stroke-width="1.5" stroke-linecap="round" stroke-linejoin="round" d="M18.367,18.364
			c-3.516,3.515-9.217,3.515-12.733,0"/>
		<path fill="none" stroke="#323232" stroke-width="1.5" stroke-linecap="round" stroke-linejoin="round" d="M15.93,15.93
			c-2.171,2.171-5.69,2.171-7.86,0"/>
	</g>
</g>
</svg>
