<svg id="Layer_3" data-name="Layer 3" xmlns="http://www.w3.org/2000/svg" viewBox="0 0 24 24"><path d="M0,0H24V24H0Z" fill="none"/><path d="M15.90243,14.89353,13.8375,13.62069V11.37931l2.06493-1.27284a.51944.51944,0,0,1,.792.44218v3.90269a.51944.51944,0,0,1-.792.44219Z" fill="none" stroke="#323232" stroke-linecap="round" stroke-linejoin="round" stroke-width="1.5"/><rect x="6.30556" y="9.12361" width="7.53194" height="6.75278" rx="1.55833" stroke-width="1.5" stroke="#323232" stroke-linecap="round" stroke-linejoin="round" fill="none"/><path d="M20,10v6.27778A4.72222,4.72222,0,0,1,15.27778,21H7.72222A4.72222,4.72222,0,0,1,3,16.27778V8.72222A4.72222,4.72222,0,0,1,7.72222,4H14" fill="none" stroke="#323232" stroke-linecap="round" stroke-linejoin="round" stroke-width="1.5"/><circle cx="19" cy="5" r="2" fill="none" stroke="#323232" stroke-linecap="round" stroke-linejoin="round" stroke-width="1.5"/></svg>