<svg id="Layer_3" data-name="Layer 3" xmlns="http://www.w3.org/2000/svg" viewBox="0 0 24 24"><title>candy</title><rect width="24" height="24" transform="translate(0 24) rotate(-90)" fill="none"/><rect width="24" height="24" transform="translate(0 24) rotate(-90)" fill="none"/><rect width="24" height="24" transform="translate(24) rotate(90)" fill="none"/><path d="M6.9,9.93H4.57A1.5684,1.5684,0,0,1,3.79,7a.85309.85309,0,0,0,.36-.96A1.574,1.574,0,0,1,6.04,4.15.85309.85309,0,0,0,7,3.79a1.5684,1.5684,0,0,1,2.93.78V6.9" fill="none" stroke="#323232" stroke-linecap="round" stroke-linejoin="round" stroke-width="1.5"/><path d="M17.1,14.07h2.33A1.5684,1.5684,0,0,1,20.21,17a.85309.85309,0,0,0-.36.96,1.574,1.574,0,0,1-1.89,1.89.85309.85309,0,0,0-.96.36,1.5684,1.5684,0,0,1-2.93-.78V17.1" fill="none" stroke="#323232" stroke-linecap="round" stroke-linejoin="round" stroke-width="1.5"/><circle cx="12" cy="12" r="5.5" fill="none" stroke="#323232" stroke-linecap="round" stroke-linejoin="round" stroke-width="1.5"/></svg>