<svg id="Layer_3" data-name="Layer 3" xmlns="http://www.w3.org/2000/svg" viewBox="0 0 24 24"><title>car-square</title><rect x="3.002" y="3" width="18" height="18" rx="5" stroke-width="1.5" stroke="#323232" stroke-linecap="round" stroke-linejoin="round" fill="none"/><path d="M18,12.8a2,2,0,0,0-2-2H8a2,2,0,0,0-2,2" fill="none" stroke="#323232" stroke-linecap="round" stroke-linejoin="round" stroke-width="1.5"/><path d="M6,12.8V16a1,1,0,0,0,1,1h.99a1,1,0,0,0,1-1v-.661h6.02V16a1,1,0,0,0,1,1H17a1,1,0,0,0,1-1V12.8" fill="none" stroke="#323232" stroke-linecap="round" stroke-linejoin="round" stroke-width="1.5"/><path d="M9.739,13.1h-1.5" fill="none" stroke="#323232" stroke-linecap="round" stroke-linejoin="round" stroke-width="1.5"/><path d="M15.76,13.1H14.265" fill="none" stroke="#323232" stroke-linecap="round" stroke-linejoin="round" stroke-width="1.5"/><path d="M16.507,10.737,18,9.99" fill="none" stroke="#323232" stroke-linecap="round" stroke-linejoin="round" stroke-width="1.5"/><path d="M7.5,10.737,6,9.99" fill="none" stroke="#323232" stroke-linecap="round" stroke-linejoin="round" stroke-width="1.5"/><path d="M9.57,7A1.5,1.5,0,0,0,8.114,8.155l-.633,2.71.633-2.71A1.5,1.5,0,0,1,9.57,7h4.864A1.5,1.5,0,0,1,15.89,8.155l.634,2.71" fill="none" stroke="#323232" stroke-linecap="round" stroke-linejoin="round" stroke-width="1.5"/><path d="M0,0H24V24H0Z" fill="none"/></svg>