<svg id="Layer_3" data-name="Layer 3" xmlns="http://www.w3.org/2000/svg" viewBox="0 0 24 24"><title>car-protection-security</title><path d="M0,0H24V24H0Z" fill="none"/><path d="M8.324,11.471H6.206" fill="none" stroke="#323232" stroke-linecap="round" stroke-linejoin="round" stroke-width="1.5"/><path d="M16.853,11.471H14.735" fill="none" stroke="#323232" stroke-linecap="round" stroke-linejoin="round" stroke-width="1.5"/><path d="M17.912,8.294l2.117-1.059" fill="none" stroke="#323232" stroke-linecap="round" stroke-linejoin="round" stroke-width="1.5"/><path d="M5.147,8.294,3.029,7.235" fill="none" stroke="#323232" stroke-linecap="round" stroke-linejoin="round" stroke-width="1.5"/><path d="M8.084,3A2.119,2.119,0,0,0,6.021,4.636l-.9,3.84.9-3.84A2.119,2.119,0,0,1,8.084,3h6.891a2.117,2.117,0,0,1,2.062,1.636l.9,3.84" fill="none" stroke="#323232" stroke-linecap="round" stroke-linejoin="round" stroke-width="1.5"/><path d="M20.029,11.21A2.833,2.833,0,0,0,17.2,8.377H5.863A2.833,2.833,0,0,0,3.029,11.21V16a1,1,0,0,0,1,1H6.265a1,1,0,0,0,1-1V14.647H13" fill="none" stroke="#323232" stroke-linecap="round" stroke-linejoin="round" stroke-width="1.5"/><path d="M16,17.727c0,1.271,1.781,2.215,2.6,2.582a.972.972,0,0,0,.8,0C20.219,19.942,22,19,22,17.727V15.688a1,1,0,0,0-.661-.94l-1.527-.55a2.4,2.4,0,0,0-1.626,0l-1.525.549a1,1,0,0,0-.661.941Z" fill="none" stroke="#323232" stroke-linecap="round" stroke-linejoin="round" stroke-width="1.5"/></svg>