<?xml version="1.0" encoding="utf-8"?>
<!-- Generator: Adobe Illustrator 24.0.2, SVG Export Plug-In . SVG Version: 6.00 Build 0)  -->
<svg version="1.1" id="Layer_1" xmlns="http://www.w3.org/2000/svg" xmlns:xlink="http://www.w3.org/1999/xlink" x="0px" y="0px"
	 width="24px" height="24px" viewBox="0 0 24 24" enable-background="new 0 0 24 24" xml:space="preserve">
<g>
	<path fill="none" stroke="#323232" stroke-width="1.5" stroke-linecap="round" stroke-linejoin="round" d="M7.5,13l4.5,9"/>
	<path fill="none" stroke="#323232" stroke-width="1.5" stroke-linecap="round" stroke-linejoin="round" d="M21.289,11.473
		L17.475,19.1c-0.237,0.475-0.807,0.687-1.289,0.466c-1.358-0.623-2.823-0.925-4.288-0.926c-1.465,0.001-2.93,0.303-4.288,0.926
		c-0.483,0.221-1.053,0.009-1.29-0.466l-3.813-7.627c-0.242-0.483-0.062-1.086,0.418-1.332C5.735,8.7,8.815,8.001,11.897,8
		c3.082,0.001,6.162,0.7,8.973,2.141C21.351,10.388,21.53,10.99,21.289,11.473z"/>
	<path fill="none" stroke="#323232" stroke-width="1.5" stroke-linecap="round" stroke-linejoin="round" d="M12,5
		c0-0.166-0.015-0.333-0.045-0.497"/>
	<path fill="none" stroke="#323232" stroke-width="1.5" stroke-linecap="round" stroke-linejoin="round" d="M12.045,4.503
		C12.015,4.667,12,4.834,12,5"/>
	<path fill="none" stroke="#323232" stroke-width="1.5" stroke-linecap="round" stroke-linejoin="round" d="M17.587,2.879
		c-0.124-0.114-0.256-0.217-0.394-0.308"/>
	<path fill="none" stroke="#323232" stroke-width="1.5" stroke-linecap="round" stroke-linejoin="round" d="M14.381,2.113
		c-0.182,0.047-0.356,0.115-0.526,0.197"/>
	<path fill="none" stroke="#323232" stroke-width="1.5" stroke-linecap="round" stroke-linejoin="round" d="M6.807,2.571
		c-0.138,0.091-0.27,0.194-0.394,0.308"/>
	<path fill="none" stroke="#323232" stroke-width="1.5" stroke-linecap="round" stroke-linejoin="round" d="M9.619,2.113
		C9.801,2.16,9.975,2.228,10.145,2.31"/>
</g>
<path fill="none" d="M0,0h24v24H0V0z"/>
<line fill="none" stroke="#323232" stroke-width="1.5" stroke-linecap="round" stroke-linejoin="round" x1="12" y1="13" x2="12" y2="12"/>
<line fill="none" stroke="#323232" stroke-width="1.5" stroke-linecap="round" stroke-linejoin="round" x1="12" y1="8" x2="12" y2="9"/>
</svg>
