<svg id="Layer_3" data-name="Layer 3" xmlns="http://www.w3.org/2000/svg" viewBox="0 0 24 24"><title>car-square_1</title><path d="M7.059,11.647l1.412.007v0l.87,1.256a2,2,0,0,0,1.644.862h2.03a2,2,0,0,0,1.644-.862l.87-1.256v0l1.412-.007" fill="none" stroke="#323232" stroke-linecap="round" stroke-linejoin="round" stroke-width="1.5"/><path d="M13.029,18H10.971a2.5,2.5,0,0,1-2.5-2.5V8a2,2,0,0,1,2-2h3.058a2,2,0,0,1,2,2v7.5A2.5,2.5,0,0,1,13.029,18Z" fill="none" stroke="#323232" stroke-linecap="round" stroke-linejoin="round" stroke-width="1.5"/><rect x="3" y="3" width="18" height="18" rx="5" stroke-width="1.5" stroke="#323232" stroke-linecap="round" stroke-linejoin="round" fill="none"/><path d="M15.529,8.824H8.471" fill="none" stroke="#323232" stroke-linecap="round" stroke-linejoin="round" stroke-width="1.5"/><path d="M0,0H24V24H0Z" fill="none"/></svg>