<svg id="Layer_3" data-name="Layer 3" xmlns="http://www.w3.org/2000/svg" viewBox="0 0 24 24"><title>car-checkmark_1</title><path d="M0,0H24V24H0Z" fill="none"/><path d="M16.76,15.471H14.642" fill="none" stroke="#323232" stroke-linecap="round" stroke-linejoin="round" stroke-width="1.5"/><path d="M20,19.583V15.21a2.833,2.833,0,0,0-2.833-2.833H5.833A2.833,2.833,0,0,0,3,15.21v4.373A1.416,1.416,0,0,0,4.417,21h1.4a1.416,1.416,0,0,0,1.416-1.417v-.936h8.53v.936A1.416,1.416,0,0,0,17.181,21h1.4A1.416,1.416,0,0,0,20,19.583Z" fill="none" stroke="#323232" stroke-linecap="round" stroke-linejoin="round" stroke-width="1.5"/><line x1="17.905" y1="12.476" x2="17.093" y2="9" fill="none" stroke="#323232" stroke-linecap="round" stroke-linejoin="round" stroke-width="1.5"/><path d="M14,7H8.055A2.119,2.119,0,0,0,5.992,8.636l-.9,3.84" fill="none" stroke="#323232" stroke-linecap="round" stroke-linejoin="round" stroke-width="1.5"/><rect x="14" y="2" width="7" height="7" rx="2" stroke-width="1.5" stroke="#323232" stroke-linecap="round" stroke-linejoin="round" fill="none"/><path d="M18.635,4.688,17.161,6.166l-.886-.889" fill="none" stroke="#323232" stroke-linecap="round" stroke-linejoin="round" stroke-width="1.5"/><path d="M8.294,15.471H6.176" fill="none" stroke="#323232" stroke-linecap="round" stroke-linejoin="round" stroke-width="1.5"/><path d="M16.824,15.471H14.706" fill="none" stroke="#323232" stroke-linecap="round" stroke-linejoin="round" stroke-width="1.5"/><path d="M17.882,12.294,20,11.235" fill="none" stroke="#323232" stroke-linecap="round" stroke-linejoin="round" stroke-width="1.5"/><path d="M5.118,12.294,3,11.235" fill="none" stroke="#323232" stroke-linecap="round" stroke-linejoin="round" stroke-width="1.5"/></svg>