<svg id="Layer_3" data-name="Layer 3" xmlns="http://www.w3.org/2000/svg" viewBox="0 0 24 24"><line x1="15.77052" y1="19" x2="8.38165" y2="19" fill="none" stroke="#323232" stroke-linecap="round" stroke-linejoin="round" stroke-width="1.5"/><circle cx="17.3481" cy="18.25" r="1.75" fill="none" stroke="#323232" stroke-linecap="round" stroke-linejoin="round" stroke-width="1.5"/><circle cx="6.63165" cy="18.25" r="1.75" fill="none" stroke="#323232" stroke-linecap="round" stroke-linejoin="round" stroke-width="1.5"/><path d="M18.9263,18.99989h1.23653A1.49713,1.49713,0,0,0,21.6413,17.728l.33518-2.18494a1.99635,1.99635,0,0,0-1.48534-2.25085,17.602,17.602,0,0,0-4.58152-.47007,14.14859,14.14859,0,0,0-2.9543-1.98862,7.8539,7.8539,0,0,0-7.042,0l-2.251,1.1286a6.61487,6.61487,0,0,1-.98451.39288A.9837.9837,0,0,0,2,13.29858L2,17.5A1.49793,1.49793,0,0,0,3.49586,19H5.05327" fill="none" stroke="#323232" stroke-linecap="round" stroke-linejoin="round" stroke-width="1.5"/><rect width="24" height="24" fill="none"/></svg>