<svg id="Layer_3" data-name="Layer 3" xmlns="http://www.w3.org/2000/svg" viewBox="0 0 24 24"><title>card-spade</title><line x1="12" y1="13.34864" x2="12" y2="15" fill="none" stroke="#323232" stroke-linecap="round" stroke-linejoin="round" stroke-width="1.5"/><rect width="24" height="24" fill="none"/><rect x="4.863" y="2.95338" width="14" height="18" rx="2" stroke-width="1.5" stroke="#323232" stroke-linecap="round" stroke-linejoin="round" fill="none"/><path d="M14.514,13.51552h0a1.65048,1.65048,0,0,0,0-2.33929L12.565,9.23329a.80078.80078,0,0,0-1.13,0L9.486,11.17622a1.65048,1.65048,0,0,0,0,2.33929h0a1.663,1.663,0,0,0,2.3466,0L12,13.34864l.1674.16688A1.663,1.663,0,0,0,14.514,13.51552Z" fill="none" stroke="#323232" stroke-linecap="round" stroke-linejoin="round" stroke-width="1.5"/><line x1="12" y1="13.34864" x2="12" y2="15" fill="none" stroke="#323232" stroke-linecap="round" stroke-linejoin="round" stroke-width="1.5"/></svg>