<svg id="Layer_3" data-name="Layer 3" xmlns="http://www.w3.org/2000/svg" viewBox="0 0 24 24"><title>cash-deposit-dollar</title><path d="M0,0H24V24H0Z" fill="none"/><path d="M12,3A6.5,6.5,0,1,1,5.5,9.5,6.5,6.5,0,0,1,12,3" fill="none" stroke="#323232" stroke-linecap="round" stroke-linejoin="round" stroke-width="1.5"/><path d="M7,16H17" fill="none" stroke="#323232" stroke-linecap="round" stroke-linejoin="round" stroke-width="1.5"/><path d="M12,7.02388v-.8254" fill="none" stroke="#323232" stroke-linecap="round" stroke-linejoin="round" stroke-width="1.5"/><path d="M12,11.97626v.8254" fill="none" stroke="#323232" stroke-linecap="round" stroke-linejoin="round" stroke-width="1.5"/><path d="M10.56876,11.38693a1.19188,1.19188,0,0,0,1.01854.58933h.90794a1.15556,1.15556,0,0,0,.28063-2.283l-1.54679-.38876a1.15555,1.15555,0,0,1,.27568-2.28057h.90794a1.1902,1.1902,0,0,1,1.01936.58933" fill="none" stroke="#323232" stroke-linecap="round" stroke-linejoin="round" stroke-width="1.5"/><path d="M18.00088,12H19a2,2,0,0,1,2,2v5a2,2,0,0,1-2,2H5a2,2,0,0,1-2-2V14a2,2,0,0,1,2-2h.99912" fill="none" stroke="#323232" stroke-linecap="round" stroke-linejoin="round" stroke-width="1.5"/><path d="M0,0H24V24H0Z" fill="none"/></svg>