<svg id="Layer_3" data-name="Layer 3" xmlns="http://www.w3.org/2000/svg" viewBox="0 0 24 24"><title>casino-chip</title><circle cx="12" cy="12" r="9" fill="none" stroke="#323232" stroke-linecap="round" stroke-linejoin="round" stroke-width="1.5"/><circle cx="12" cy="12" r="5.5" fill="none" stroke="#323232" stroke-linecap="round" stroke-linejoin="round" stroke-width="1.5"/><path d="M12.20062,14.01651h0a11.279,11.279,0,0,1,1.69967-1.81385l.01049-.009a.25485.25485,0,0,0,0-.38738l-.01049-.009a11.279,11.279,0,0,1-1.69967-1.81385h0a.25058.25058,0,0,0-.40124,0h0a11.279,11.279,0,0,1-1.69967,1.81385l-.01049.009a.25485.25485,0,0,0,0,.38738l.01049.009a11.279,11.279,0,0,1,1.69967,1.81385h0A.25058.25058,0,0,0,12.20062,14.01651Z" fill="none" stroke="#323232" stroke-linecap="round" stroke-linejoin="round" stroke-width="1.5"/><line x1="12" y1="6.5" x2="12" y2="2.99994" fill="none" stroke="#323232" stroke-linecap="round" stroke-linejoin="round" stroke-width="1.5"/><line x1="12" y1="17.5" x2="12" y2="21.00006" fill="none" stroke="#323232" stroke-linecap="round" stroke-linejoin="round" stroke-width="1.5"/><line x1="18.36401" y1="5.63599" x2="15.8891" y2="8.1109" fill="none" stroke="#323232" stroke-linecap="round" stroke-linejoin="round" stroke-width="1.5"/><line x1="8.1109" y1="15.8891" x2="5.63599" y2="18.36401" fill="none" stroke="#323232" stroke-linecap="round" stroke-linejoin="round" stroke-width="1.5"/><line x1="21.00006" y1="12" x2="17.5" y2="12" fill="none" stroke="#323232" stroke-linecap="round" stroke-linejoin="round" stroke-width="1.5"/><line x1="6.5" y1="12" x2="2.99994" y2="12" fill="none" stroke="#323232" stroke-linecap="round" stroke-linejoin="round" stroke-width="1.5"/><line x1="15.8891" y1="15.8891" x2="18.36401" y2="18.36401" fill="none" stroke="#323232" stroke-linecap="round" stroke-linejoin="round" stroke-width="1.5"/><line x1="5.63599" y1="5.63599" x2="8.1109" y2="8.1109" fill="none" stroke="#323232" stroke-linecap="round" stroke-linejoin="round" stroke-width="1.5"/><rect width="24" height="24" fill="none"/></svg>