<svg id="Layer_3" data-name="Layer 3" xmlns="http://www.w3.org/2000/svg" viewBox="0 0 24 24"><title>casino-chips</title><path d="M0,0H24V24H0Z" fill="none"/><path d="M3.001,9c0,1.105,2.238,2,5,2" fill="none" stroke="#323232" stroke-linecap="round" stroke-linejoin="round" stroke-width="1.5"/><path d="M8,15c-2.761,0-4.999-.895-4.999-2" fill="none" stroke="#323232" stroke-linecap="round" stroke-linejoin="round" stroke-width="1.5"/><path d="M12.999,5H13V8" fill="none" stroke="#323232" stroke-linecap="round" stroke-linejoin="round" stroke-width="1.5"/><path d="M8,19c-2.761,0-5-.895-5-2" fill="none" stroke="#323232" stroke-linecap="round" stroke-linejoin="round" stroke-width="1.5"/><ellipse cx="8" cy="5" rx="5" ry="2" fill="none" stroke="#323232" stroke-linecap="round" stroke-linejoin="round" stroke-width="1.5"/><line x1="3" y1="5" x2="3" y2="17" fill="none" stroke="#323232" stroke-linecap="round" stroke-linejoin="round" stroke-width="1.5"/><circle cx="15.75" cy="15.75" r="5.25" fill="none" stroke="#323232" stroke-linecap="round" stroke-linejoin="round" stroke-width="1.5"/><path d="M15.95062,17.76671h0a11.28127,11.28127,0,0,1,1.69967-1.81445l.01049-.009a.255.255,0,0,0,0-.38751l-.01049-.009a11.28127,11.28127,0,0,1-1.69967-1.81445h0a.25054.25054,0,0,0-.40124,0h0a11.28127,11.28127,0,0,1-1.69967,1.81445l-.01049.009a.255.255,0,0,0,0,.38751l.01049.009a11.28127,11.28127,0,0,1,1.69967,1.81445h0A.25054.25054,0,0,0,15.95062,17.76671Z" fill="none" stroke="#323232" stroke-linecap="round" stroke-linejoin="round" stroke-width="1.5"/></svg>