<svg id="Layer_3" data-name="Layer 3" xmlns="http://www.w3.org/2000/svg" viewBox="0 0 24 24"><title>cat-carrier</title><line x1="21" y1="14" x2="3" y2="14" fill="none" stroke="#323232" stroke-linecap="round" stroke-linejoin="round" stroke-width="1.5"/><path d="M9,7V6a2,2,0,0,1,2-2h2a2,2,0,0,1,2,2V7" fill="none" stroke="#323232" stroke-linecap="round" stroke-linejoin="round" stroke-width="1.5"/><line x1="8" y1="10" x2="8" y2="11" fill="none" stroke="#323232" stroke-linecap="round" stroke-linejoin="round" stroke-width="1.5"/><line x1="12" y1="10" x2="12" y2="11" fill="none" stroke="#323232" stroke-linecap="round" stroke-linejoin="round" stroke-width="1.5"/><line x1="16" y1="10" x2="16" y2="11" fill="none" stroke="#323232" stroke-linecap="round" stroke-linejoin="round" stroke-width="1.5"/><path d="M20.9,14.587l-1.348,4.045A2,2,0,0,1,17.652,20H6.348a2,2,0,0,1-1.9-1.368L3.1,14.587a1.994,1.994,0,0,1-.026-1.182L4.493,8.451A2,2,0,0,1,6.416,7H17.584a2,2,0,0,1,1.923,1.451l1.416,4.954A1.994,1.994,0,0,1,20.9,14.587Z" fill="none" stroke="#323232" stroke-linecap="round" stroke-linejoin="round" stroke-width="1.5"/><path d="M0,0H24V24H0Z" fill="none"/></svg>