<?xml version="1.0" encoding="utf-8"?>
<!-- Generator: Adobe Illustrator 24.0.2, SVG Export Plug-In . SVG Version: 6.00 Build 0)  -->
<svg version="1.1" id="Layer_3" xmlns="http://www.w3.org/2000/svg" xmlns:xlink="http://www.w3.org/1999/xlink" x="0px" y="0px"
	 width="24px" height="24px" viewBox="0 0 24 24" enable-background="new 0 0 24 24" xml:space="preserve">
<g>
	<path fill="none" d="M0,0h24v24H0V0z"/>
	<g>
		<g>
			<path fill="none" stroke="#323232" stroke-width="1.5" stroke-linecap="round" stroke-linejoin="round" d="M17,21H7
				c-2.209,0-4-1.791-4-4V7c0-2.209,1.791-4,4-4h10c2.209,0,4,1.791,4,4v10C21,19.209,19.209,21,17,21z"/>
		</g>
		<path fill="none" stroke="#323232" stroke-width="1.5" stroke-linecap="round" stroke-linejoin="round" d="M13.555,11.223
			l-1.945,1.945l-1.166-1.167"/>
		<path fill="none" stroke="#323232" stroke-width="1.5" stroke-linecap="round" stroke-linejoin="round" d="M7.276,12.814
			l0.664,0.869l0.144,1.081c0.08,0.6,0.551,1.072,1.151,1.152l1.084,0.145l0.868,0.663c0.48,0.367,1.147,0.367,1.627,0l0.869-0.664
			h-0.001l1.082-0.144c0.6-0.08,1.072-0.551,1.152-1.151l0.145-1.084c0,0.001,0.336-0.439,0.664-0.868
			c0.367-0.48,0.367-1.147,0-1.627l-0.664-0.869l-0.144-1.081c-0.08-0.6-0.551-1.072-1.151-1.152L13.681,7.94l-0.868-0.663
			c-0.48-0.367-1.147-0.367-1.627,0L10.317,7.94h0.001L9.236,8.083c-0.6,0.08-1.072,0.551-1.152,1.151l-0.145,1.084
			c0-0.001-0.336,0.439-0.664,0.868C6.909,11.667,6.909,12.333,7.276,12.814z"/>
	</g>
</g>
</svg>
