<?xml version="1.0" encoding="utf-8"?>
<!-- Generator: Adobe Illustrator 24.0.2, SVG Export Plug-In . SVG Version: 6.00 Build 0)  -->
<svg version="1.1" id="Layer_3" xmlns="http://www.w3.org/2000/svg" xmlns:xlink="http://www.w3.org/1999/xlink" x="0px" y="0px"
	 width="24px" height="24px" viewBox="0 0 24 24" enable-background="new 0 0 24 24" xml:space="preserve">
<g>
	<path fill="none" d="M0,0h24v24H0V0z"/>
	<g>
		<path fill="none" stroke="#323232" stroke-width="1.5" stroke-linecap="round" stroke-linejoin="round" d="M3.495,13.465
			l1.195,1.564l0.258,1.947c0.143,1.08,0.992,1.93,2.072,2.074l1.952,0.261l1.563,1.194c0.865,0.661,2.064,0.661,2.929,0
			l1.564-1.195h-0.002l1.948-0.258c1.08-0.143,1.93-0.992,2.074-2.072l0.26-1.952c0,0.001,0.604-0.79,1.195-1.563
			c0.661-0.865,0.66-2.064,0-2.929L19.31,8.971l-0.258-1.947c-0.143-1.08-0.992-1.93-2.072-2.074L15.027,4.69l-1.563-1.194
			c-0.865-0.661-2.064-0.661-2.929,0L8.971,4.69h0.002L7.025,4.949c-1.08,0.143-1.93,0.992-2.074,2.072L4.69,8.973
			c0-0.001-0.604,0.79-1.195,1.563C2.835,11.4,2.835,12.6,3.495,13.465z"/>
		<path fill="none" stroke="#323232" stroke-width="1.5" stroke-linecap="round" stroke-linejoin="round" d="M10.801,15.409
			l0.83-0.436c0.231-0.121,0.507-0.121,0.738,0l0.83,0.436c0.268,0.141,0.591,0.117,0.835-0.061l0.31-0.225
			c0.244-0.177,0.366-0.478,0.316-0.775l-0.159-0.924c-0.044-0.257,0.041-0.52,0.228-0.702l0.671-0.654
			c0.216-0.211,0.294-0.526,0.201-0.813l-0.118-0.364c-0.093-0.287-0.341-0.496-0.64-0.54l-0.928-0.135
			c-0.258-0.037-0.481-0.2-0.597-0.434l-0.415-0.841C12.769,8.671,12.493,8.5,12.191,8.5h-0.383c-0.302,0-0.578,0.171-0.711,0.442
			l-0.415,0.841c-0.116,0.234-0.339,0.397-0.597,0.434l-0.928,0.135c-0.299,0.044-0.547,0.253-0.64,0.54l-0.118,0.364
			c-0.093,0.287-0.016,0.602,0.201,0.813l0.671,0.654c0.187,0.182,0.272,0.445,0.228,0.702l-0.159,0.924
			c-0.051,0.298,0.072,0.598,0.316,0.775l0.31,0.225C10.21,15.525,10.534,15.549,10.801,15.409z"/>
	</g>
</g>
</svg>
