<?xml version="1.0" encoding="utf-8"?>
<!-- Generator: Adobe Illustrator 24.0.2, SVG Export Plug-In . SVG Version: 6.00 Build 0)  -->
<svg version="1.1" id="Layer_1" xmlns="http://www.w3.org/2000/svg" xmlns:xlink="http://www.w3.org/1999/xlink" x="0px" y="0px"
	 width="24px" height="24px" viewBox="0 0 24 24" enable-background="new 0 0 24 24" xml:space="preserve">
<g>
	<g>
		<path fill="none" stroke="#323232" stroke-width="1.5" stroke-linecap="round" stroke-linejoin="round" d="M9.482,19.741
			c0.295-0.039,0.593,0.041,0.828,0.222l1.083,0.831c0.358,0.275,0.856,0.275,1.213,0l1.124-0.863
			c0.21-0.161,0.475-0.232,0.737-0.197l1.406,0.185c0.447,0.059,0.878-0.19,1.051-0.607l0.541-1.308
			c0.101-0.245,0.295-0.439,0.54-0.54l1.308-0.541c0.417-0.172,0.666-0.604,0.607-1.051l-0.178-1.355
			c-0.039-0.295,0.041-0.593,0.222-0.828l0.831-1.083c0.275-0.358,0.275-0.856,0-1.213l-0.863-1.124
			c-0.161-0.21-0.232-0.475-0.197-0.737l0.185-1.406c0.059-0.447-0.19-0.878-0.607-1.051l-1.308-0.541
			c-0.245-0.101-0.439-0.295-0.54-0.54l-0.541-1.308c-0.172-0.417-0.604-0.666-1.051-0.607l-1.406,0.185
			C14.205,4.3,13.94,4.229,13.731,4.069l-1.124-0.863c-0.358-0.275-0.856-0.275-1.213,0L10.27,4.069
			C10.06,4.229,9.795,4.3,9.533,4.266L8.127,4.081C7.68,4.022,7.249,4.271,7.076,4.688L6.536,5.996
			C6.434,6.24,6.24,6.434,5.996,6.536L4.688,7.076C4.271,7.249,4.022,7.68,4.081,8.127l0.185,1.406
			C4.3,9.795,4.229,10.06,4.069,10.269l-0.863,1.124c-0.275,0.358-0.275,0.856,0,1.213l0.863,1.124
			c0.161,0.21,0.232,0.475,0.197,0.737l-0.185,1.406c-0.059,0.447,0.19,0.878,0.607,1.051l1.308,0.541
			c0.245,0.101,0.439,0.295,0.54,0.54l0.541,1.308c0.172,0.417,0.604,0.666,1.051,0.607L9.482,19.741"/>
		<path fill="none" stroke="#323232" stroke-width="1.5" stroke-linecap="round" stroke-linejoin="round" d="M14.799,10.601
			l-3.501,3.501l-2.099-2.1"/>
	</g>
	<path fill="none" d="M0,0h24v24H0V0z"/>
</g>
</svg>
