<svg id="Layer_3" data-name="Layer 3" xmlns="http://www.w3.org/2000/svg" viewBox="0 0 24 24"><title>chart-circle</title><path d="M18.364,5.636a9.0001,9.0001,0,0,1-.183,12.90588A9.09889,9.09889,0,0,1,5.819,18.5418,9,9,0,1,1,18.364,5.636" fill="none" stroke="#323232" stroke-linecap="round" stroke-linejoin="round" stroke-width="1.5"/><path d="M13.25,10h2.5a.5.5,0,0,1,.5.5v5a.5.5,0,0,1-.5.5h-2.5" fill="none" stroke="#323232" stroke-linecap="round" stroke-linejoin="round" stroke-width="1.5"/><path d="M10.25,16H7.75a.5.5,0,0,1-.5-.5v-3a.5.5,0,0,1,.5-.5h2.5" fill="none" stroke="#323232" stroke-linecap="round" stroke-linejoin="round" stroke-width="1.5"/><path d="M13.25,16h-3V7.5a.5.5,0,0,1,.5-.5h2a.5.5,0,0,1,.5.5Z" fill="none" stroke="#323232" stroke-linecap="round" stroke-linejoin="round" stroke-width="1.5"/><path d="M0,0H24V24H0Z" fill="none"/></svg>