<svg id="Layer_3" data-name="Layer 3" xmlns="http://www.w3.org/2000/svg" viewBox="0 0 24 24"><path d="M13.25,10.5h2.5a.5.5,0,0,1,.5.5v5a.5.5,0,0,1-.5.5h-2.5" fill="none" stroke="#323232" stroke-linecap="round" stroke-linejoin="round" stroke-width="1.5"/><path d="M10.25,16.5H7.75a.5.5,0,0,1-.5-.5V13a.5.5,0,0,1,.5-.5h2.5" fill="none" stroke="#323232" stroke-linecap="round" stroke-linejoin="round" stroke-width="1.5"/><path d="M13.25,16.5h-3V8a.5.5,0,0,1,.5-.5h2a.5.5,0,0,1,.5.5Z" fill="none" stroke="#323232" stroke-linecap="round" stroke-linejoin="round" stroke-width="1.5"/><path d="M20.582,9.353A8.84321,8.84321,0,0,1,21,12a9,9,0,1,1-9-9,8.84316,8.84316,0,0,1,2.647.418" fill="none" stroke="#323232" stroke-linecap="round" stroke-linejoin="round" stroke-width="1.5"/><path d="M19.012,6.262,17.737,4.987" fill="none" stroke="#323232" stroke-linecap="round" stroke-linejoin="round" stroke-width="1.5"/><line x1="21" y1="4.27393" x2="19.01202" y2="6.26196" fill="none" stroke="#323232" stroke-linecap="round" stroke-linejoin="round" stroke-width="1.5"/><path d="M0,0H24V24H0Z" fill="none"/></svg>