<svg id="Layer_3" data-name="Layer 3" xmlns="http://www.w3.org/2000/svg" viewBox="0 0 24 24"><title>chart-present-document</title><path d="M5,21H19a2,2,0,0,0,2-2V5a2,2,0,0,0-2-2H7.828a2,2,0,0,0-1.413.585L3.586,6.414A2,2,0,0,0,3,7.829V19A2,2,0,0,0,5,21Z" fill="none" stroke="#323232" stroke-linecap="round" stroke-linejoin="round" stroke-width="1.5"/><path d="M8,3V7A1,1,0,0,1,7,8H3" fill="none" stroke="#323232" stroke-linecap="round" stroke-linejoin="round" stroke-width="1.5"/><rect x="7.5" y="12.25" width="3" height="3.75" stroke-width="1.5" stroke="#323232" stroke-linecap="round" stroke-linejoin="round" fill="none"/><rect x="10.5" y="8" width="3" height="8" stroke-width="1.5" stroke="#323232" stroke-linecap="round" stroke-linejoin="round" fill="none"/><rect x="13.5" y="10.25" width="3" height="5.75" stroke-width="1.5" stroke="#323232" stroke-linecap="round" stroke-linejoin="round" fill="none"/><path d="M0,24V0H24V24Z" fill="none"/></svg>