<svg id="Layer_3" data-name="Layer 3" xmlns="http://www.w3.org/2000/svg" viewBox="0 0 24 24"><path d="M21,12a9,9,0,1,1-9-9" fill="none" stroke="#323232" stroke-linecap="round" stroke-linejoin="round" stroke-width="1.5"/><path d="M18.34,2.392a.752.752,0,0,1,1.32,0l.583,1.065a.74693.74693,0,0,0,.3.3l1.064.582a.753.753,0,0,1,0,1.322l-1.064.583a.74105.74105,0,0,0-.3.3L19.66,7.608a.752.752,0,0,1-1.32,0l-.583-1.065a.74105.74105,0,0,0-.3-.3l-1.064-.582a.753.753,0,0,1,0-1.322l1.064-.582a.74693.74693,0,0,0,.3-.3Z" fill="none" stroke="#323232" stroke-linecap="round" stroke-linejoin="round" stroke-width="1.5"/><path d="M13.25,10h2.5a.5.5,0,0,1,.5.5v5a.5.5,0,0,1-.5.5h-2.5" fill="none" stroke="#323232" stroke-linecap="round" stroke-linejoin="round" stroke-width="1.5"/><path d="M10.25,16H7.75a.5.5,0,0,1-.5-.5v-3a.5.5,0,0,1,.5-.5h2.5" fill="none" stroke="#323232" stroke-linecap="round" stroke-linejoin="round" stroke-width="1.5"/><path d="M13.25,16h-3V7.5a.5.5,0,0,1,.5-.5h2a.5.5,0,0,1,.5.5Z" fill="none" stroke="#323232" stroke-linecap="round" stroke-linejoin="round" stroke-width="1.5"/><path d="M0,0H24V24H0Z" fill="none"/></svg>