<svg id="Layer_3" data-name="Layer 3" xmlns="http://www.w3.org/2000/svg" viewBox="0 0 24 24"><title>chart-sqaure</title><path d="M13.25,10.5h2.5a.5.5,0,0,1,.5.5v5a.5.5,0,0,1-.5.5h-2.5" fill="none" stroke="#323232" stroke-linecap="round" stroke-linejoin="round" stroke-width="1.5"/><path d="M10.25,16.5H7.75a.5.5,0,0,1-.5-.5V13a.5.5,0,0,1,.5-.5h2.5" fill="none" stroke="#323232" stroke-linecap="round" stroke-linejoin="round" stroke-width="1.5"/><path d="M13.25,16.5h-3V8a.5.5,0,0,1,.5-.5h2a.5.5,0,0,1,.5.5Z" fill="none" stroke="#323232" stroke-linecap="round" stroke-linejoin="round" stroke-width="1.5"/><rect x="2.9" y="3.00138" width="18" height="18" rx="5" stroke-width="1.5" stroke="#323232" stroke-linecap="round" stroke-linejoin="round" fill="none"/><path d="M0,0H24V24H0Z" fill="none"/></svg>