<?xml version="1.0" encoding="utf-8"?>
<!-- Generator: Adobe Illustrator 24.0.1, SVG Export Plug-In . SVG Version: 6.00 Build 0)  -->
<svg version="1.1" id="Layer_1" xmlns="http://www.w3.org/2000/svg" xmlns:xlink="http://www.w3.org/1999/xlink" x="0px" y="0px"
	 width="24px" height="24px" viewBox="0 0 24 24" style="enable-background:new 0 0 24 24;" xml:space="preserve">
<style type="text/css">
	.st0{fill:none;stroke:#323232;stroke-width:1.5;stroke-linecap:round;stroke-linejoin:round;}
	.st1{fill:none;}
</style>
<g>
	<g>
		<path class="st0" d="M10.1,19.3c0,0-3.5,1.8-3.5,1.8c0-1.2,0-2.4,0-3.2C4.4,16.3,3,14,3,11.3c0-4.5,4-8.2,9-8.2s9,3.6,9,8.2v0
			c0,4.5-4,8.2-9,8.2C11.4,19.5,10.7,19.4,10.1,19.3"/>
		<path class="st0" d="M15.9,13.7c-2.2,2.2-5.7,2.2-7.9,0"/>
		<path class="st0" d="M10,8.7v1"/>
		<path class="st0" d="M14,8.7v1"/>
	</g>
	<path class="st1" d="M0,0h24v24H0V0z"/>
</g>
</svg>
