<?xml version="1.0" encoding="UTF-8"?><svg version="1.1" viewBox="0 0 24 24" xmlns="http://www.w3.org/2000/svg" xmlns:xlink="http://www.w3.org/1999/xlink"><!--Generated by IJSVG (https://github.com/iconjar/IJSVG)--><g fill="none"><path d="M0,0h24v24h-24v-24Z"></path><path stroke="#323232" stroke-linecap="round" stroke-linejoin="round" stroke-width="1.3929" d="M5,21h14"></path><path stroke="#323232" stroke-linecap="round" stroke-linejoin="round" stroke-width="1.3929" d="M8.455,14.973c-3.31,-0.299 -5.845,-3.281 -5.405,-6.755c0.383,-3.031 3.121,-5.218 6.177,-5.218h5.773c3.375,0 6.099,2.787 5.997,6.185c-0.098,3.284 -2.964,5.815 -6.249,5.815c0,0 -2.56,0 -2.56,0c-0.786,0.785 -1.909,1.909 -2.881,2.881c-0.315,0.315 -0.852,0.091 -0.852,-0.355c1.77636e-15,0 1.77636e-15,-2.553 1.77636e-15,-2.553Z"></path></g></svg>