<?xml version="1.0" encoding="utf-8"?>
<!-- Generator: Adobe Illustrator 24.0.2, SVG Export Plug-In . SVG Version: 6.00 Build 0)  -->
<svg version="1.1" id="Layer_3" xmlns="http://www.w3.org/2000/svg" xmlns:xlink="http://www.w3.org/1999/xlink" x="0px" y="0px"
	 width="24px" height="24px" viewBox="0 0 24 24" enable-background="new 0 0 24 24" xml:space="preserve">
<g>
	<path fill="none" d="M24,24H0V0h24V24z"/>
	<g>
		<g>
			<path fill="none" stroke="#323232" stroke-width="1.5" stroke-linecap="round" stroke-linejoin="round" d="M9.188,15l1.912,2.55
				c0.45,0.6,1.35,0.6,1.8,0L14.812,15H18c1.657,0,3-1.343,3-3V6c0-1.657-1.343-3-3-3H6C4.343,3,3,4.343,3,6v6c0,1.657,1.343,3,3,3
				C6,15,9.188,15,9.188,15z"/>
		</g>
		<path fill="none" stroke="#323232" stroke-width="1.5" stroke-linecap="round" stroke-linejoin="round" d="M7,21h10"/>
		<path fill="none" stroke="#323232" stroke-width="1.5" stroke-linecap="round" stroke-linejoin="round" d="M12.177,9.323
			c0.098,0.098,0.098,0.256,0,0.354c-0.098,0.098-0.256,0.098-0.354,0c-0.098-0.098-0.098-0.256,0-0.354
			C11.921,9.225,12.079,9.226,12.177,9.323"/>
		<path fill="none" stroke="#323232" stroke-width="1.5" stroke-linecap="round" stroke-linejoin="round" d="M16.177,9.323
			c0.098,0.098,0.098,0.256,0,0.354c-0.098,0.098-0.256,0.098-0.354,0c-0.098-0.098-0.098-0.256,0-0.354
			C15.921,9.225,16.079,9.226,16.177,9.323"/>
		<path fill="none" stroke="#323232" stroke-width="1.5" stroke-linecap="round" stroke-linejoin="round" d="M8.177,9.323
			c0.098,0.098,0.098,0.256,0,0.354c-0.098,0.098-0.256,0.098-0.354,0s-0.098-0.256,0-0.354C7.921,9.225,8.079,9.226,8.177,9.323"/>
	</g>
</g>
</svg>
