<svg id="Layer_3" data-name="Layer 3" xmlns="http://www.w3.org/2000/svg" viewBox="0 0 24 24"><path d="M0,0H24V24H0Z" fill="none"/><path d="M8.2445,9.735a.375.375,0,1,1-.53033.00033L7.7145,9.735a.375.375,0,0,1,.53,0" fill="none" stroke="#323232" stroke-linecap="round" stroke-linejoin="round" stroke-width="1.5"/><path d="M12.6605,9.735a.375.375,0,1,1-.53033.00033L12.1305,9.735a.375.375,0,0,1,.53,0" fill="none" stroke="#323232" stroke-linecap="round" stroke-linejoin="round" stroke-width="1.5"/><path d="M13,17h5a2.99981,2.99981,0,0,0,3-3V6a2.99981,2.99981,0,0,0-3-3H6A2.99981,2.99981,0,0,0,3,6v8a2.99981,2.99981,0,0,0,3,3H8v4l5-4" fill="none" stroke="#323232" stroke-linecap="round" stroke-linejoin="round" stroke-width="1.5"/><path d="M16.3955,12.5v-5" fill="none" stroke="#323232" stroke-linecap="round" stroke-linejoin="round" stroke-width="1.5"/></svg>