<svg id="Layer_3" data-name="Layer 3" xmlns="http://www.w3.org/2000/svg" viewBox="0 0 24 24"><title>chat-message-more-dots</title><path d="M0,0H24V24H0Z" fill="none"/><path d="M17,2a5,5,0,1,1-5,5,5,5,0,0,1,5-5" fill="none" stroke="#323232" stroke-linecap="round" stroke-linejoin="round" stroke-width="1.5"/><path d="M20,14v.375a2.833,2.833,0,0,1-2.833,2.833H12.445L7.723,20.986V17.208H5.833A2.833,2.833,0,0,1,3,14.375V6.819A2.833,2.833,0,0,1,5.833,3.986H10" fill="none" stroke="#323232" stroke-linecap="round" stroke-linejoin="round" stroke-width="1.5"/><path d="M18.358,6.944A.054.054,0,0,0,18.3,7a.056.056,0,1,0,.055-.056" fill="none" stroke="#323232" stroke-linecap="round" stroke-linejoin="round" stroke-width="1.5"/><path d="M15.642,6.944A.056.056,0,1,0,15.7,7a.056.056,0,0,0-.055-.056" fill="none" stroke="#323232" stroke-linecap="round" stroke-linejoin="round" stroke-width="1.5"/></svg>