<?xml version="1.0" encoding="utf-8"?>
<!-- Generator: Adobe Illustrator 24.0.2, SVG Export Plug-In . SVG Version: 6.00 Build 0)  -->
<svg version="1.1" id="Layer_3" xmlns="http://www.w3.org/2000/svg" xmlns:xlink="http://www.w3.org/1999/xlink" x="0px" y="0px"
	 width="24px" height="24px" viewBox="0 0 24 24" enable-background="new 0 0 24 24" xml:space="preserve">
<g>
	<g>
		<path fill="none" stroke="#323232" stroke-width="1.5" stroke-linecap="round" stroke-linejoin="round" d="M10,16.48
			c-0.569,0-1.124-0.056-1.661-0.159L5.2,17.867c0-1.07-0.002-2.089-0.001-2.845C3.262,13.704,2,11.614,2,9.24C2,5.223,5.598,2,10,2
			s8,3.223,8,7.24"/>
		<path fill="none" stroke="#323232" stroke-width="1.5" stroke-linecap="round" stroke-linejoin="round" d="M14.018,17.893
			c0,1.479,2.072,2.579,3.024,3.006c0.3,0.135,0.635,0.135,0.935,0C18.928,20.472,21,19.373,21,17.893v-3.14
			c0-0.491-0.308-0.929-0.77-1.095l-1.776-0.639c-0.612-0.22-1.281-0.22-1.893,0l-1.774,0.639c-0.462,0.166-0.77,0.604-0.77,1.095
			V17.893z"/>
		<path fill="none" stroke="#323232" stroke-width="1.5" stroke-linecap="round" stroke-linejoin="round" d="M10.177,9.21
			c0.098,0.098,0.098,0.256,0,0.354c-0.098,0.098-0.256,0.098-0.354,0c-0.098-0.098-0.098-0.256,0-0.354
			C9.921,9.113,10.079,9.113,10.177,9.21"/>
		<path fill="none" stroke="#323232" stroke-width="1.5" stroke-linecap="round" stroke-linejoin="round" d="M13.732,9.21
			c0.098,0.098,0.098,0.256,0,0.354c-0.098,0.098-0.256,0.098-0.354,0c-0.098-0.098-0.098-0.256,0-0.354
			C13.476,9.113,13.635,9.113,13.732,9.21"/>
		<path fill="none" stroke="#323232" stroke-width="1.5" stroke-linecap="round" stroke-linejoin="round" d="M6.621,9.21
			c0.098,0.098,0.098,0.256,0,0.354c-0.098,0.098-0.256,0.098-0.354,0s-0.098-0.256,0-0.354C6.365,9.113,6.524,9.113,6.621,9.21"/>
	</g>
	<path fill="none" d="M0,0h24v24H0V0z"/>
</g>
</svg>
