<?xml version="1.0" encoding="utf-8"?>
<!-- Generator: Adobe Illustrator 24.0.2, SVG Export Plug-In . SVG Version: 6.00 Build 0)  -->
<svg version="1.1" id="Layer_3" xmlns="http://www.w3.org/2000/svg" xmlns:xlink="http://www.w3.org/1999/xlink" x="0px" y="0px"
	 width="24px" height="24px" viewBox="0 0 24 24" enable-background="new 0 0 24 24" xml:space="preserve">
<g>
	<path fill="none" d="M0,0h24v24H0V0z"/>
	<g>
		<path fill="none" stroke="#323232" stroke-width="1.3929" stroke-linecap="round" stroke-linejoin="round" d="M5,21h14"/>
		<path fill="none" stroke="#323232" stroke-width="1.3929" stroke-linecap="round" stroke-linejoin="round" d="M8.455,14.973
			c-3.31-0.299-5.845-3.281-5.405-6.755C3.433,5.187,6.171,3,9.227,3H15c3.375,0,6.099,2.787,5.997,6.185
			C20.899,12.469,18.033,15,14.748,15h-2.56c-0.786,0.785-1.909,1.909-2.881,2.881c-0.315,0.315-0.852,0.091-0.852-0.355
			L8.455,14.973z"/>
		<path fill="none" stroke="#323232" stroke-width="1.5" stroke-linecap="round" stroke-linejoin="round" d="M12.177,9.073
			c0.098,0.098,0.098,0.256,0,0.354c-0.098,0.098-0.256,0.098-0.354,0c-0.098-0.098-0.098-0.256,0-0.354
			C11.921,8.975,12.079,8.976,12.177,9.073"/>
		<path fill="none" stroke="#323232" stroke-width="1.5" stroke-linecap="round" stroke-linejoin="round" d="M16.177,9.073
			c0.098,0.098,0.098,0.256,0,0.354c-0.098,0.098-0.256,0.098-0.354,0c-0.098-0.098-0.098-0.256,0-0.354
			C15.921,8.975,16.079,8.976,16.177,9.073"/>
		<path fill="none" stroke="#323232" stroke-width="1.5" stroke-linecap="round" stroke-linejoin="round" d="M8.177,9.073
			c0.098,0.098,0.098,0.256,0,0.354c-0.098,0.098-0.256,0.098-0.354,0s-0.098-0.256,0-0.354C7.921,8.975,8.079,8.976,8.177,9.073"/>
	</g>
</g>
</svg>
