<?xml version="1.0" encoding="utf-8"?>
<!-- Generator: Adobe Illustrator 24.0.2, SVG Export Plug-In . SVG Version: 6.00 Build 0)  -->
<svg version="1.1" id="Layer_3" xmlns="http://www.w3.org/2000/svg" xmlns:xlink="http://www.w3.org/1999/xlink" x="0px" y="0px"
	 width="24px" height="24px" viewBox="0 0 24 24" enable-background="new 0 0 24 24" xml:space="preserve">
<g>
	<g>
		<path fill="none" stroke="#323232" stroke-width="1.5" stroke-linecap="round" stroke-linejoin="round" d="M7,16.994H5
			c-1.105,0-2-0.895-2-2v-10c0-1.105,0.895-2,2-2h14c1.105,0,2,0.895,2,2v10c0,1.105-0.895,2-2,2h-6.125c0,0-4.21,3.745-4.21,3.745
			C8.02,21.313,7,20.855,7,19.992V16.994z"/>
		
			<line fill="none" stroke="#323232" stroke-width="1.5" stroke-linecap="round" stroke-linejoin="round" x1="7" y1="7.494" x2="17" y2="7.494"/>
		
			<line fill="none" stroke="#323232" stroke-width="1.5" stroke-linecap="round" stroke-linejoin="round" x1="7" y1="11.994" x2="14" y2="11.994"/>
	</g>
	<path fill="none" d="M0-0.006h24v24H0V-0.006z"/>
</g>
</svg>
