<?xml version="1.0" encoding="UTF-8"?><svg version="1.1" viewBox="0 0 24 24" xmlns="http://www.w3.org/2000/svg" xmlns:xlink="http://www.w3.org/1999/xlink"><!--Generated by IJSVG (https://github.com/iconjar/IJSVG)--><g fill="none"><path d="M24,24h-24v-24h24v24Z"></path><path stroke="#323232" stroke-linecap="round" stroke-linejoin="round" stroke-width="1.5" d="M7.751,16.495l0.419,-2.653c-0.93,-2.058 -0.208,-4.526 1.78,-5.708c2.135,-1.271 4.897,-0.569 6.167,1.566c1.27,2.135 0.569,4.896 -1.567,6.167c-1.28,0.762 -2.842,0.829 -4.177,0.215l-2.622,0.413Z"></path><path stroke="#323232" stroke-linecap="round" stroke-linejoin="round" stroke-width="1.5" d="M3,5.156v13.844c0,1.105 0.895,2 2,2h14c1.105,0 2,-0.895 2,-2v-13.844c0,-1.105 -0.895,-2 -2,-2h-14c-1.105,4.44089e-16 -2,0.895 -2,2Z"></path></g></svg>