<svg id="Layer_3" data-name="Layer 3" xmlns="http://www.w3.org/2000/svg" viewBox="0 0 24 24"><title>chat-messages-checkmark-password</title><path d="M0,0H24V24H0Z" fill="none"/><path d="M7.849,9.735a.375.375,0,1,1-.53,0h0a.375.375,0,0,1,.53,0" fill="none" stroke="#323232" stroke-linecap="round" stroke-linejoin="round" stroke-width="1.5"/><path d="M12.265,9.735a.375.375,0,1,1-.53,0h0a.375.375,0,0,1,.53,0" fill="none" stroke="#323232" stroke-linecap="round" stroke-linejoin="round" stroke-width="1.5"/><path d="M20.993,6.162v7.647a3.176,3.176,0,0,1-3.175,3.177H12.994l-5,4v-4H6.169A3.176,3.176,0,0,1,2.993,13.81h0V6.162A3.176,3.176,0,0,1,6.169,2.986H17.817a3.176,3.176,0,0,1,3.176,3.176Z" fill="none" stroke="#323232" stroke-linecap="round" stroke-linejoin="round" stroke-width="1.5"/><line x1="17" y1="13" x2="15" y2="13" fill="none" stroke="#323232" stroke-linecap="round" stroke-linejoin="round" stroke-width="1.5"/></svg>