<svg id="Layer_3" data-name="Layer 3" xmlns="http://www.w3.org/2000/svg" viewBox="0 0 24 24"><title>chat-messages-edit</title><path d="M13,17h5a2.99981,2.99981,0,0,0,3-3V6a2.99981,2.99981,0,0,0-3-3H6A2.99981,2.99981,0,0,0,3,6v8a2.99981,2.99981,0,0,0,3,3H8v4l5-4" fill="none" stroke="#323232" stroke-linecap="round" stroke-linejoin="round" stroke-width="1.5"/><path d="M11.38616,13.5H9V11.11384a.92029.92029,0,0,1,.27036-.65236l3.69088-3.69089a.9217.9217,0,0,1,1.30473,0L15.72941,8.234a.92167.92167,0,0,1,0,1.30472l-3.69089,3.69089A.92415.92415,0,0,1,11.38616,13.5Z" fill="none" stroke="#323232" stroke-linecap="round" stroke-linejoin="round" stroke-width="1.5"/><path d="M0,0H24V24H0Z" fill="none"/></svg>