<svg id="Layer_3" data-name="Layer 3" xmlns="http://www.w3.org/2000/svg" viewBox="0 0 24 24"><path d="M24,24H0V0H24Z" fill="none"/><path d="M24,24H0V0H24Z" fill="none"/><path d="M10.33331,7.58338,8.04286,9.87505l-1.37622-1.375" fill="none" stroke="#323232" stroke-linecap="round" stroke-linejoin="round" stroke-width="1.5"/><path d="M15.5,15.88867V17.722" fill="none" stroke="#323232" stroke-linecap="round" stroke-linejoin="round" stroke-width="1.5"/><path d="M15.5,13.31711a.06111.06111,0,1,0,.06111.06111h0A.06111.06111,0,0,0,15.5,13.31711h0" fill="none" stroke="#323232" stroke-linecap="round" stroke-linejoin="round" stroke-width="1.5"/><rect x="10" y="10" width="11" height="11" rx="4" stroke-width="1.5" stroke="#323232" stroke-linecap="round" stroke-linejoin="round" fill="none"/><path d="M7,14a4,4,0,0,1-4-4V7A4,4,0,0,1,7,3h3a4,4,0,0,1,4,4" fill="none" stroke="#323232" stroke-linecap="round" stroke-linejoin="round" stroke-width="1.5"/><path d="M10.33331,7.58338,8.04286,9.87505l-1.37622-1.375" fill="none" stroke="#323232" stroke-linecap="round" stroke-linejoin="round" stroke-width="1.5"/><path d="M15.5,15.88867V17.722" fill="none" stroke="#323232" stroke-linecap="round" stroke-linejoin="round" stroke-width="1.5"/><path d="M15.5,13.31711a.06111.06111,0,1,0,.06111.06111h0A.06111.06111,0,0,0,15.5,13.31711h0" fill="none" stroke="#323232" stroke-linecap="round" stroke-linejoin="round" stroke-width="1.5"/><rect x="10" y="10" width="11" height="11" rx="4" stroke-width="1.5" stroke="#323232" stroke-linecap="round" stroke-linejoin="round" fill="none"/><path d="M7,14a4,4,0,0,1-4-4V7A4,4,0,0,1,7,3h3a4,4,0,0,1,4,4" fill="none" stroke="#323232" stroke-linecap="round" stroke-linejoin="round" stroke-width="1.5"/></svg>