<?xml version="1.0" encoding="utf-8"?>
<!-- Generator: Adobe Illustrator 23.1.0, SVG Export Plug-In . SVG Version: 6.00 Build 0)  -->
<svg version="1.1" id="icons" xmlns="http://www.w3.org/2000/svg" xmlns:xlink="http://www.w3.org/1999/xlink" x="0px" y="0px"
	 width="24px" height="24px" viewBox="0 0 24 24" enable-background="new 0 0 24 24" xml:space="preserve">
<path fill="none" d="M24,24H0L0,0l24,0V24z"/>
<g>
	<path fill="none" stroke="#323232" stroke-width="1.5" stroke-linecap="round" stroke-linejoin="round" stroke-miterlimit="10" d="
		M16.062,3.004c0.672-0.672,1.762-0.673,2.434,0l0,0c0.672,0.672,0.672,1.762,0,2.434l-7.774,7.769
		c-0.188,0.187-0.442,0.293-0.707,0.293H8v-2.015c0-0.265,0.105-0.519,0.293-0.707L16.062,3.004z"/>
	
		<line fill="none" stroke="#323232" stroke-width="1.5" stroke-linecap="round" stroke-linejoin="round" stroke-miterlimit="10" x1="15" y1="13.5" x2="17" y2="13.5"/>
	
		<line fill="none" stroke="#323232" stroke-width="1.5" stroke-linecap="round" stroke-linejoin="round" stroke-miterlimit="10" x1="7" y1="17.5" x2="17" y2="17.5"/>
	<path fill="none" stroke="#323232" stroke-width="1.5" stroke-linecap="round" stroke-linejoin="round" stroke-miterlimit="10" d="
		M19,10.5L19,10.5c1.105,0,2,0.895,2,2v7c0,1.105-0.895,2-2,2H5c-1.105,0-2-0.895-2-2v-7c0-1.105,0.895-2,2-2h0"/>
	
		<line fill="none" stroke="#323232" stroke-width="1.5" stroke-linecap="round" stroke-linejoin="round" stroke-miterlimit="10" x1="14.068" y1="5" x2="16.5" y2="7.432"/>
	<path fill="none" stroke="#323232" stroke-width="1.5" stroke-linecap="round" stroke-linejoin="round" stroke-miterlimit="10" d="
		M10.066,5.566l1.641-1.641c0.474-0.474,1.243-0.474,1.718,0l0,0c0.474,0.474,0.474,1.243,0,1.718l-1.141,1.141"/>
</g>
</svg>
