<svg id="Layer_3" data-name="Layer 3" xmlns="http://www.w3.org/2000/svg" viewBox="0 0 24 24"><path d="M8,5H6A2,2,0,0,0,4,7V19a2,2,0,0,0,2,2H9" fill="none" stroke="#323232" stroke-linecap="round" stroke-linejoin="round" stroke-width="1.5"/><rect x="8" y="3" width="8" height="4" rx="1" stroke-width="1.5" stroke="#323232" stroke-linecap="round" stroke-linejoin="round" fill="none"/><path d="M19,12H14a2,2,0,0,0-2,2v5a2,2,0,0,0,2,2h5a2,2,0,0,0,2-2V14A2,2,0,0,0,19,12Z" fill="none" stroke="#323232" stroke-linecap="round" stroke-linejoin="round" stroke-width="1.5"/><path d="M15.177,14.823a.25.25,0,1,1-.354,0,.25.25,0,0,1,.354,0" fill="none" stroke="#323232" stroke-linecap="round" stroke-linejoin="round" stroke-width="1.5"/><path d="M21,16.05a4.441,4.441,0,0,0-.625-.05A4.375,4.375,0,0,0,16,20.375h0a4.30681,4.30681,0,0,0,.05.625" fill="none" stroke="#323232" stroke-linecap="round" stroke-linejoin="round" stroke-width="1.5"/><path d="M16,5h2a2,2,0,0,1,2,2V9" fill="none" stroke="#323232" stroke-linecap="round" stroke-linejoin="round" stroke-width="1.5"/><rect width="24" height="24" fill="none"/></svg>