<svg id="Layer_3" data-name="Layer 3" xmlns="http://www.w3.org/2000/svg" viewBox="0 0 24 24"><path d="M0,0H24V24H0Z" fill="none"/><path d="M15,8h2a1.50055,1.50055,0,0,0,1.5-1.5h0A1.50055,1.50055,0,0,0,17,5H15a1.50055,1.50055,0,0,0-1.5,1.5h0A1.50055,1.50055,0,0,0,15,8Z" fill="none" stroke="#323232" stroke-linecap="round" stroke-linejoin="round" stroke-width="1.5"/><path d="M17,11H7A4.50036,4.50036,0,0,1,2.5,6.5h0A4.50036,4.50036,0,0,1,7,2H17a4.50036,4.50036,0,0,1,4.5,4.5h0A4.50036,4.50036,0,0,1,17,11Z" fill="none" stroke="#323232" stroke-linecap="round" stroke-linejoin="round" stroke-width="1.5"/><path d="M7.611,17.111,5.389,19.333" fill="none" stroke="#323232" stroke-linecap="round" stroke-linejoin="round" stroke-width="1.5"/><path d="M5.389,17.111l2.222,2.222" fill="none" stroke="#323232" stroke-linecap="round" stroke-linejoin="round" stroke-width="1.5"/><path d="M8.5,22h-4a1.99945,1.99945,0,0,1-2-2V16a1.99945,1.99945,0,0,1,2-2h4a1.99945,1.99945,0,0,1,2,2v4A1.99945,1.99945,0,0,1,8.5,22Z" fill="none" stroke="#323232" stroke-linecap="round" stroke-linejoin="round" stroke-width="1.5"/><path d="M17.5,22a4.00018,4.00018,0,0,1-4-4,4.06119,4.06119,0,0,1,4.003-4,4,4,0,0,1-.003,8" fill="none" stroke="#323232" stroke-width="1.5"/><path d="M17.673,18.172a.244.244,0,1,0-.346.001.24233.24233,0,0,0,.346-.001" fill="none" stroke="#323232" stroke-linecap="round" stroke-linejoin="round" stroke-width="1.5"/></svg>