<?xml version="1.0" encoding="utf-8"?>
<!-- Generator: Adobe Illustrator 24.0.2, SVG Export Plug-In . SVG Version: 6.00 Build 0)  -->
<svg version="1.1" id="Layer_3" xmlns="http://www.w3.org/2000/svg" xmlns:xlink="http://www.w3.org/1999/xlink" x="0px" y="0px"
	 width="24px" height="24px" viewBox="0 0 24 24" enable-background="new 0 0 24 24" xml:space="preserve">
<g>
	<path fill="none" d="M0,0h24v24H0V0z"/>
	<g>
		<path fill="none" stroke="#323232" stroke-width="1.5" stroke-linecap="round" stroke-linejoin="round" d="M3.495,13.465
			l1.195,1.564l0.258,1.947c0.143,1.08,0.992,1.93,2.072,2.074l1.952,0.261l1.563,1.194c0.865,0.661,2.064,0.661,2.929,0
			l1.564-1.195h-0.002l1.948-0.258c1.08-0.143,1.93-0.992,2.074-2.072l0.26-1.952c0,0.001,0.604-0.79,1.195-1.563
			c0.661-0.865,0.66-2.064,0-2.929L19.31,8.971l-0.258-1.947c-0.143-1.08-0.992-1.93-2.072-2.074L15.027,4.69l-1.563-1.194
			c-0.865-0.661-2.064-0.661-2.929,0L8.971,4.69h0.002L7.025,4.949c-1.08,0.143-1.93,0.992-2.074,2.072L4.69,8.973
			c0-0.001-0.604,0.79-1.195,1.563C2.835,11.4,2.835,12.6,3.495,13.465z"/>
		<g>
			<path fill="none" stroke="#323232" stroke-width="1.5" stroke-linecap="round" stroke-linejoin="round" d="M14.803,10.602
				l-3.501,3.501l-2.103-2.101"/>
		</g>
	</g>
</g>
</svg>
