<?xml version="1.0" encoding="utf-8"?>
<!-- Generator: Adobe Illustrator 23.1.0, SVG Export Plug-In . SVG Version: 6.00 Build 0)  -->
<svg version="1.1" id="icons" xmlns="http://www.w3.org/2000/svg" xmlns:xlink="http://www.w3.org/1999/xlink" x="0px" y="0px"
	 width="24px" height="24px" viewBox="0 0 24 24" enable-background="new 0 0 24 24" xml:space="preserve">
<g>
	<g>
		
			<path fill="none" stroke="#323232" stroke-width="1.5" stroke-linecap="round" stroke-linejoin="round" stroke-miterlimit="10" d="
			M12,18L12,18c-1.657,0-3-1.343-3-3v-0.421c0-0.552,0.448-1,1-1h4c0.552,0,1,0.448,1,1V15C15,16.657,13.657,18,12,18z"/>
		
			<path fill="none" stroke="#323232" stroke-width="1.5" stroke-linecap="round" stroke-linejoin="round" stroke-miterlimit="10" d="
			M14.474,7V4.5c0-1.381-1.119-2.5-2.5-2.5h0c-1.381,0-2.5,1.119-2.5,2.5V7"/>
		
			<path fill="none" stroke="#323232" stroke-width="1.5" stroke-linecap="round" stroke-linejoin="round" stroke-miterlimit="10" d="
			M19,12v8c0,1.105-0.895,2-2,2H7c-1.105,0-2-0.895-2-2v-8"/>
		<g>
			
				<path fill="none" stroke="#323232" stroke-width="1.5" stroke-linecap="round" stroke-linejoin="round" stroke-miterlimit="10" d="
				M22,12h-2.541c-1.43,0-2.661-1.009-2.942-2.412l-0.357-1.784C16.067,7.336,15.657,7,15.18,7L12,7L8.82,7
				C8.343,7,7.933,7.336,7.839,7.804L7.482,9.588C7.202,10.991,5.971,12,4.541,12H2"/>
		</g>
	</g>
	<g>
		<rect fill="none" width="24" height="24"/>
	</g>
</g>
</svg>
