<?xml version="1.0" encoding="utf-8"?>
<!-- Generator: Adobe Illustrator 23.1.0, SVG Export Plug-In . SVG Version: 6.00 Build 0)  -->
<svg version="1.1" id="icons" xmlns="http://www.w3.org/2000/svg" xmlns:xlink="http://www.w3.org/1999/xlink" x="0px" y="0px"
	 width="24px" height="24px" viewBox="0 0 24 24" enable-background="new 0 0 24 24" xml:space="preserve">
<rect y="0" fill="none" width="24" height="24"/>
<g>
	<rect y="0" fill="none" width="24" height="24"/>
</g>
<g>
	<rect y="0" fill="none" width="24" height="24"/>
</g>
<g>
	<g>
		
			<path fill="none" stroke="#323232" stroke-width="1.5" stroke-linecap="round" stroke-linejoin="round" stroke-miterlimit="10" d="
			M12.5,22L12.5,22c-5.523,0-10-4.477-10-10v0c0-5.523,4.477-10,10-10h0c5.523,0,10,4.477,10,10v0C22.5,17.523,18.023,22,12.5,22z"
			/>
	</g>
	<g>
		<g>
			
				<path fill="none" stroke="#323232" stroke-width="1.5" stroke-linecap="round" stroke-linejoin="round" stroke-miterlimit="10" d="
				M10.601,7.42c0.355-0.692,1.068-1.17,1.899-1.17s1.544,0.478,1.899,1.17c0.488-0.294,1.094-0.415,1.745-0.214
				c0.717,0.222,1.29,0.834,1.448,1.568c0.266,1.238-0.539,2.347-1.663,2.575l0,3.472c0,1.894-1.535,3.429-3.429,3.429h0
				c-1.894,0-3.429-1.535-3.429-3.429l0-2.866c0-0.339-0.207-0.631-0.511-0.78c-0.843-0.412-1.375-1.361-1.152-2.401
				c0.158-0.733,0.731-1.346,1.448-1.568C9.507,7.005,10.112,7.126,10.601,7.42z"/>
		</g>
		
			<line fill="none" stroke="#323232" stroke-width="1.5" stroke-linecap="round" stroke-linejoin="round" stroke-miterlimit="10" x1="15.929" y1="13.107" x2="9.071" y2="13.107"/>
	</g>
</g>
</svg>
