<?xml version="1.0" encoding="utf-8"?>
<!-- Generator: Adobe Illustrator 23.1.0, SVG Export Plug-In . SVG Version: 6.00 Build 0)  -->
<svg version="1.1" id="icons" xmlns="http://www.w3.org/2000/svg" xmlns:xlink="http://www.w3.org/1999/xlink" x="0px" y="0px"
	 width="24px" height="24px" viewBox="0 0 24 24" enable-background="new 0 0 24 24" xml:space="preserve">
<g>
	<g>
		
			<path fill="none" stroke="#323232" stroke-width="1.5" stroke-linecap="round" stroke-linejoin="round" stroke-miterlimit="10" d="
			M5.996,12.782c-0.997-0.19-1.935-0.747-2.527-1.776C2.781,9.811,2.851,8.261,3.656,7.143c1.123-1.56,3.124-1.935,4.696-1.172
			C8.676,4.281,10.183,3,12,3c1.817,0,3.324,1.281,3.647,2.971c1.569-0.761,3.564-0.39,4.688,1.16
			c0.809,1.116,0.881,2.663,0.201,3.862c-0.591,1.042-1.532,1.595-2.532,1.784L17.997,19c-0.001,1.104-0.896,1.998-2,1.998L7.989,21
			c-1.106,0-2.002-0.897-2-2.002L5.996,12.782z"/>
		
			<line fill="none" stroke="#323232" stroke-width="1.5" stroke-linecap="round" stroke-linejoin="round" stroke-miterlimit="10" x1="18" y1="16.5" x2="6" y2="16.5"/>
	</g>
	<rect fill="none" width="24" height="24"/>
</g>
</svg>
