<svg id="Layer_3" data-name="Layer 3" xmlns="http://www.w3.org/2000/svg" viewBox="0 0 24 24"><title>cherry</title><path d="M13.912,13.142a14.785,14.785,0,0,1,2.025.324,14.841,14.841,0,0,1,2.025-.324v0c2.025,0,3.038,1.588,3.038,3.8a5.063,5.063,0,0,1-10.125,0c0-2.21,1.013-3.8,3.037-3.8" fill="none" stroke="#323232" stroke-linecap="round" stroke-linejoin="round" stroke-width="1.5"/><path d="M11.53,19.42a4.863,4.863,0,0,1-8.39-4.36c.51-2.06,1.82-3.31,3.71-2.84a14.079,14.079,0,0,1,1.81.77,14.3,14.3,0,0,1,1.96.16,2.887,2.887,0,0,1,1.33.71" fill="none" stroke="#323232" stroke-linecap="round" stroke-linejoin="round" stroke-width="1.5"/><path d="M10,4c2,6.676-1.34,7.318-1.34,8.986" fill="none" stroke="#323232" stroke-linecap="round" stroke-linejoin="round" stroke-width="1.5"/><path d="M10,4c1,2.5,5.937,4.172,5.937,9.466" fill="none" stroke="#323232" stroke-linecap="round" stroke-linejoin="round" stroke-width="1.5"/><path d="M14.474,7H13V5.526A2.525,2.525,0,0,1,15.526,3H17V4.474A2.527,2.527,0,0,1,14.474,7Z" fill="none" stroke="#323232" stroke-linecap="round" stroke-linejoin="round" stroke-width="1.5"/><rect width="24" height="24" fill="none"/></svg>