<svg id="Layer_3" data-name="Layer 3" xmlns="http://www.w3.org/2000/svg" viewBox="0 0 24 24"><rect width="24" height="24" fill="none"/><rect width="24" height="24" fill="none"/><path d="M21,12a9,9,0,1,1-9-9" fill="none" stroke="#323232" stroke-linecap="round" stroke-linejoin="round" stroke-width="1.5"/><path d="M18.34014,2.39182a.75169.75169,0,0,1,1.31972,0l.58288,1.06528a.753.753,0,0,0,.29993.30008l1.06478.58215a.75234.75234,0,0,1,0,1.32134l-1.06478.58315a.744.744,0,0,0-.29993.30008l-.58288,1.06428a.75169.75169,0,0,1-1.31972,0L17.75726,6.5429a.744.744,0,0,0-.29993-.30008l-1.06478-.58215a.75234.75234,0,0,1,0-1.32134l1.06478-.58215a.753.753,0,0,0,.29993-.30008Z" fill="none" stroke="#323232" stroke-linecap="round" stroke-linejoin="round" stroke-width="1.5"/><rect x="9.14245" y="9.14212" width="5.7151" height="5.7151" rx="1.33359" stroke-width="1.5" stroke="#323232" stroke-linecap="round" stroke-linejoin="round" fill="none"/><line x1="9.2321" y1="9.99983" x2="8" y2="9.99983" fill="none" stroke="#323232" stroke-linecap="round" stroke-linejoin="round" stroke-width="1.5"/><line x1="9.2321" y1="14.00017" x2="8" y2="14.00017" fill="none" stroke="#323232" stroke-linecap="round" stroke-linejoin="round" stroke-width="1.5"/><line x1="16" y1="9.99983" x2="14.7679" y2="9.99983" fill="none" stroke="#323232" stroke-linecap="round" stroke-linejoin="round" stroke-width="1.5"/><line x1="16" y1="14.00017" x2="14.76898" y2="14.00017" fill="none" stroke="#323232" stroke-linecap="round" stroke-linejoin="round" stroke-width="1.5"/><line x1="9.99983" y1="14.76787" x2="9.99983" y2="16" fill="none" stroke="#323232" stroke-linecap="round" stroke-linejoin="round" stroke-width="1.5"/><line x1="14.00017" y1="14.76787" x2="14.00017" y2="16" fill="none" stroke="#323232" stroke-linecap="round" stroke-linejoin="round" stroke-width="1.5"/><line x1="9.99983" y1="8" x2="9.99983" y2="9.23137" fill="none" stroke="#323232" stroke-linecap="round" stroke-linejoin="round" stroke-width="1.5"/><line x1="14.00017" y1="8" x2="14.00017" y2="9.23137" fill="none" stroke="#323232" stroke-linecap="round" stroke-linejoin="round" stroke-width="1.5"/></svg>