<svg id="Layer_3" data-name="Layer 3" xmlns="http://www.w3.org/2000/svg" viewBox="0 0 24 24"><title>cip-square</title><path d="M21,15v3a3,3,0,0,1-3,3H6a3,3,0,0,1-3-3V6A3,3,0,0,1,6,3h5" fill="none" stroke="#323232" stroke-linecap="round" stroke-linejoin="round" stroke-width="1.5"/><path d="M20,11.086l-4.757,4.757a4.242,4.242,0,0,1-6,0h0a4.242,4.242,0,0,1,0-6L15.086,4a2.828,2.828,0,0,1,4,0h0a2.829,2.829,0,0,1,0,4l-5.757,5.757a1.415,1.415,0,0,1-2,0h0a1.415,1.415,0,0,1,0-2l3.148-3.148" fill="none" stroke="#323232" stroke-linecap="round" stroke-linejoin="round" stroke-width="1.5"/><rect width="24" height="24" fill="none"/></svg>