<?xml version="1.0" encoding="UTF-8"?><svg version="1.1" viewBox="0 0 24 24" xmlns="http://www.w3.org/2000/svg" xmlns:xlink="http://www.w3.org/1999/xlink"><!--Generated by IJSVG (https://github.com/iconjar/IJSVG)--><g fill="none"><path d="M0,0h24v24h-24v-24Z"></path><path stroke="#323232" stroke-linecap="round" stroke-linejoin="round" stroke-width="1.5" d="M15.456,8.543c-0.154,-1.356 -0.746,-2.672 -1.786,-3.713c-2.441,-2.441 -6.398,-2.441 -8.839,0c-2.441,2.441 -2.441,6.398 0,8.839c2.441,2.441 6.398,2.441 8.839,0c0.721,-0.721 1.223,-1.575 1.518,-2.482"></path><path stroke="#323232" stroke-linecap="round" stroke-linejoin="round" stroke-width="1.5" d="M8.544,15.457c0.154,1.356 0.746,2.672 1.786,3.713c2.441,2.441 6.398,2.441 8.839,0c2.441,-2.441 2.441,-6.398 0,-8.839c-2.441,-2.441 -6.398,-2.441 -8.839,0c-0.721,0.721 -1.223,1.575 -1.518,2.482"></path></g></svg>