<svg id="Layer_3" data-name="Layer 3" xmlns="http://www.w3.org/2000/svg" viewBox="0 0 24 24"><path d="M15,12V8a1,1,0,0,0-1-1H10A1,1,0,0,0,9,8v2" fill="none" stroke="#323232" stroke-linecap="round" stroke-linejoin="round" stroke-width="1.5"/><path d="M14,17V13a1,1,0,0,1,1-1h2a1,1,0,0,1,1,1v3a1,1,0,0,1-1,1H7a1.00022,1.00022,0,0,1-1.00014-1V12.48337a1.23842,1.23842,0,0,1,.68458-1.10768l2.48662-1.24331a1.23909,1.23909,0,0,1,1.79319,1.10055L11.00014,17" fill="none" stroke="#323232" stroke-linecap="round" stroke-linejoin="round" stroke-width="1.5"/><line x1="12" y1="7" x2="12" y2="5.5" fill="none" stroke="#323232" stroke-linecap="round" stroke-linejoin="round" stroke-width="1.5"/><rect x="3" y="3" width="18" height="18" rx="5" fill="none" stroke="#323232" stroke-miterlimit="10" stroke-width="1.5"/><path d="M0,0H24V24H0Z" fill="none"/></svg>