<svg id="Layer_3" data-name="Layer 3" xmlns="http://www.w3.org/2000/svg" viewBox="0 0 24 24"><title>cleaning-sign</title><circle cx="12.114" cy="12.25" r="3.25" fill="none" stroke="#323232" stroke-linecap="round" stroke-linejoin="round" stroke-width="1.5"/><line x1="14.411" y1="9.953" x2="9.817" y2="14.547" fill="none" stroke="#323232" stroke-linecap="round" stroke-linejoin="round" stroke-width="1.5"/><path d="M6.6,21H4a1,1,0,0,1-.99-1.137l2.1-15.137A2,2,0,0,1,7.087,3h9.826a2,2,0,0,1,1.981,1.726l2.1,15.137A1,1,0,0,1,20,21H17.4a1,1,0,0,1-.971-.761L16,18.5H8l-.428,1.739A1,1,0,0,1,6.6,21Z" fill="none" stroke="#323232" stroke-linecap="round" stroke-linejoin="round" stroke-width="1.5"/><path d="M9.114,3h6a0,0,0,0,1,0,0V5a1,1,0,0,1-1,1h-4a1,1,0,0,1-1-1V3A0,0,0,0,1,9.114,3Z" fill="none" stroke="#323232" stroke-linecap="round" stroke-linejoin="round" stroke-width="1.5"/><rect width="24" height="24" fill="none"/></svg>