<svg id="Layer_3" data-name="Layer 3" xmlns="http://www.w3.org/2000/svg" viewBox="0 0 24 24"><title>cleaning-product-plate</title><path d="M10.29,6.3A7.5,7.5,0,1,1,14.5,20a7.12,7.12,0,0,1-2.58-.47" fill="none" stroke="#323232" stroke-linecap="round" stroke-linejoin="round" stroke-width="1.5"/><path d="M12,19V9A3,3,0,0,0,9,6H6A3,3,0,0,0,3,9V19a2,2,0,0,0,2,2h5A2,2,0,0,0,12,19Z" fill="none" stroke="#323232" stroke-linecap="round" stroke-linejoin="round" stroke-width="1.5"/><circle cx="7.5" cy="13.5" r="1.5" fill="none" stroke="#323232" stroke-linecap="round" stroke-linejoin="round" stroke-width="1.5"/><path d="M9.5,6h-4V4a1,1,0,0,1,1-1h2a1,1,0,0,1,1,1Z" fill="none" stroke="#323232" stroke-linecap="round" stroke-linejoin="round" stroke-width="1.5"/><path d="M0,0H24V24H0Z" fill="none"/></svg>