<svg id="Layer_3" data-name="Layer 3" xmlns="http://www.w3.org/2000/svg" viewBox="0 0 24 24"><title>cleaning-home-drop</title><path d="M19.714,9.612V4a1,1,0,0,0-1-1H16.857a1,1,0,0,0-1,1V6.306" fill="none" stroke="#323232" stroke-linecap="round" stroke-linejoin="round" stroke-width="1.5"/><path d="M3,10.714l7.7-6.6a2,2,0,0,1,2.6,0l7.7,6.6" fill="none" stroke="#323232" stroke-linecap="round" stroke-linejoin="round" stroke-width="1.5"/><path d="M17.8,15.773l.9,1.2a1.5,1.5,0,0,1-1.2,2.4h0a1.5,1.5,0,0,1-1.2-2.4l.9-1.2a.375.375,0,0,1,.526-.071A.4.4,0,0,1,17.8,15.773Z" fill="none" stroke="#323232" stroke-linecap="round" stroke-linejoin="round" stroke-width="1.5"/><path d="M17.5,22A4.5,4.5,0,1,1,22,17.5,4.5,4.5,0,0,1,17.5,22" fill="none" stroke="#323232" stroke-linecap="round" stroke-linejoin="round" stroke-width="1.5"/><path d="M4.286,9.612V19a2,2,0,0,0,2,2H11" fill="none" stroke="#323232" stroke-linecap="round" stroke-linejoin="round" stroke-width="1.5"/><path d="M0,0H24V24H0Z" fill="none"/></svg>