<svg id="Layer_3" data-name="Layer 3" xmlns="http://www.w3.org/2000/svg" viewBox="0 0 24 24"><title>cleaning-woman</title><path d="M3,21v-.384a3,3,0,0,1,2.412-2.942l2.846-.569a.905.905,0,0,1,.679.134h0a5.52,5.52,0,0,0,6.126,0h0a.905.905,0,0,1,.679-.134l2.846.569A3,3,0,0,1,21,20.616V21" fill="none" stroke="#323232" stroke-linecap="round" stroke-linejoin="round" stroke-width="1.5"/><path d="M14.639,14H17a1.5,1.5,0,0,0,1.5-1.5v-4A6.5,6.5,0,0,0,12,2h0A6.5,6.5,0,0,0,5.5,8.5v4A1.5,1.5,0,0,0,7,14H9.361" fill="none" stroke="#323232" stroke-linecap="round" stroke-linejoin="round" stroke-width="1.5"/><path d="M10,6.619h4a2,2,0,0,1,2,2V11a4,4,0,0,1-4,4h0a4,4,0,0,1-4-4V8.619a2,2,0,0,1,2-2Z" fill="none" stroke="#323232" stroke-linecap="round" stroke-linejoin="round" stroke-width="1.5"/><line x1="7" y1="21" x2="17" y2="21" fill="none" stroke="#323232" stroke-linecap="round" stroke-linejoin="round" stroke-width="1.5"/><line x1="16" y1="21" x2="16" y2="17.156" fill="none" stroke="#323232" stroke-linecap="round" stroke-linejoin="round" stroke-width="1.5"/><line x1="8" y1="21" x2="8" y2="17.156" fill="none" stroke="#323232" stroke-linecap="round" stroke-linejoin="round" stroke-width="1.5"/><line x1="14.101" y1="14.405" x2="14.844" y2="17.377" fill="none" stroke="#323232" stroke-linecap="round" stroke-linejoin="round" stroke-width="1.5"/><line x1="9.901" y1="14.405" x2="9.158" y2="17.377" fill="none" stroke="#323232" stroke-linecap="round" stroke-linejoin="round" stroke-width="1.5"/><rect width="24" height="24" fill="none"/></svg>