<svg id="Layer_3" data-name="Layer 3" xmlns="http://www.w3.org/2000/svg" viewBox="0 0 24 24"><title>cleaning-window-shine</title><rect x="3" y="3" width="18" height="18" rx="3" stroke-width="1.5" stroke="#323232" stroke-linecap="round" stroke-linejoin="round" fill="none"/><line x1="12" y1="3" x2="12" y2="21" fill="none" stroke="#323232" stroke-linecap="round" stroke-linejoin="round" stroke-width="1.5"/><path d="M7.5,6.5a1,1,0,0,1-1,1,1,1,0,0,1,1,1,1,1,0,0,1,1-1A1,1,0,0,1,7.5,6.5Z" fill="none" stroke="#323232" stroke-linecap="round" stroke-linejoin="round" stroke-width="1.5"/><path d="M16.5,15a1,1,0,0,1-1,1,1,1,0,0,1,1,1,1,1,0,0,1,1-1A1,1,0,0,1,16.5,15Z" fill="none" stroke="#323232" stroke-linecap="round" stroke-linejoin="round" stroke-width="1.5"/><rect width="24" height="24" fill="none"/></svg>