<?xml version="1.0" encoding="utf-8"?>
<!-- Generator: Adobe Illustrator 24.0.2, SVG Export Plug-In . SVG Version: 6.00 Build 0)  -->
<svg version="1.1" id="Layer_3" xmlns="http://www.w3.org/2000/svg" xmlns:xlink="http://www.w3.org/1999/xlink" x="0px" y="0px"
	 width="24px" height="24px" viewBox="0 0 24 24" enable-background="new 0 0 24 24" xml:space="preserve">
<g>
	<path fill="none" stroke="#323232" stroke-width="1.5" stroke-linecap="round" stroke-linejoin="round" d="M15,8l-3.206,3.206
		c-0.991,0.991-0.991,2.597,0,3.588l0,0c0.991,0.991,2.597,0.991,3.588,0l4.338-4.338c1.706-1.706,1.706-4.471,0-6.177l0,0
		c-1.706-1.706-4.471-1.706-6.177,0l-9.265,9.265c-1.706,1.706-1.706,4.471,0,6.177l0,0c1.706,1.706,4.471,1.706,6.177,0
		l1.632-1.632"/>
	<path fill="none" d="M0,24V0h24v24H0z"/>
</g>
</svg>
