<svg id="Layer_3" data-name="Layer 3" xmlns="http://www.w3.org/2000/svg" viewBox="0 0 24 24"><title>clip-circle</title><path d="M17.067,13.445,14.243,16.27a4.244,4.244,0,0,1-6,0h0a4.242,4.242,0,0,1,0-6L11.2,7.316a2.829,2.829,0,0,1,4,0h0a2.829,2.829,0,0,1,0,4l-2.867,2.867a1.415,1.415,0,0,1-2,0h0a1.415,1.415,0,0,1,0-2l1.738-1.738" fill="none" stroke="#323232" stroke-linecap="round" stroke-linejoin="round" stroke-width="1.5"/><circle cx="12" cy="12" r="9" fill="none" stroke="#323232" stroke-linecap="round" stroke-linejoin="round" stroke-width="1.5"/><rect width="24" height="24" fill="none"/></svg>