<svg id="Layer_3" data-name="Layer 3" xmlns="http://www.w3.org/2000/svg" viewBox="0 0 24 24"><title>clip-attachment-circle</title><path d="M14.121,9.87851,12.313,11.687a1.443,1.443,0,0,0,0,2.04042h0l.031.031a1.44239,1.44239,0,0,0,2.04005-.00006l1.75873-1.75907a2.928,2.928,0,0,0,0-4.14031h0a2.9281,2.9281,0,0,0-4.14137-.00007l-.00036.00037L7.85849,11.9995a2.92978,2.92978,0,0,0-.00056,4.14372h0a2.92846,2.92846,0,0,0,4.14183-.00018" fill="none" stroke="#323232" stroke-linecap="round" stroke-linejoin="round" stroke-width="1.5"/><circle cx="12" cy="12" r="9" fill="none" stroke="#323232" stroke-linecap="round" stroke-linejoin="round" stroke-width="1.5"/><path d="M0,0H24V24H0Z" fill="none"/></svg>