<svg id="Layer_3" data-name="Layer 3" xmlns="http://www.w3.org/2000/svg" viewBox="0 0 24 24"><title>clip-attachment-arrow-left-circle</title><path d="M24,24H0V0H24Z" fill="none"/><path d="M16,21.5l-2-2,2-2" fill="none" stroke="#323232" stroke-linecap="round" stroke-linejoin="round" stroke-width="1.5"/><path d="M20,19.5H14" fill="none" stroke="#323232" stroke-linecap="round" stroke-linejoin="round" stroke-width="1.5"/><path d="M20.05829,15.50356a8.998,8.998,0,1,0-10.0558,4.77" fill="none" stroke="#323232" stroke-linecap="round" stroke-linejoin="round" stroke-width="1.5"/><path d="M11.293,12.707l3.182-3.182a1.501,1.501,0,0,1,2.121,0h0a1.501,1.501,0,0,1,0,2.121l-3.889,3.889a2.99966,2.99966,0,0,1-4.243,0h0a2.99966,2.99966,0,0,1,0-4.243L12,7.757" fill="none" stroke="#323232" stroke-linecap="round" stroke-linejoin="round" stroke-width="1.5"/></svg>