<svg id="Layer_3" data-name="Layer 3" xmlns="http://www.w3.org/2000/svg" viewBox="0 0 24 24"><title>clock-time-refresh</title><path d="M24,24H0V0H24Z" fill="none"/><path d="M7.63,13.866l3.656-2.229V6.986" fill="none" stroke="#323232" stroke-linecap="round" stroke-linejoin="round" stroke-width="1.5"/><path d="M19.451,14.827H21V13.281" fill="none" stroke="#323232" stroke-linecap="round" stroke-linejoin="round" stroke-width="1.5"/><path d="M15.993,18.174H14.447v1.547" fill="none" stroke="#323232" stroke-linecap="round" stroke-linejoin="round" stroke-width="1.5"/><path d="M21,17.667a3.37,3.37,0,0,1-.8,1.312,3.5,3.5,0,0,1-5.546-.8" fill="none" stroke="#323232" stroke-linecap="round" stroke-linejoin="round" stroke-width="1.5"/><path d="M20.794,14.826a3.5,3.5,0,0,0-5.546-.8,3.386,3.386,0,0,0-.806,1.312" fill="none" stroke="#323232" stroke-linecap="round" stroke-linejoin="round" stroke-width="1.5"/><path d="M11,20a9,9,0,1,1,8.941-10" fill="none" stroke="#323232" stroke-linecap="round" stroke-linejoin="round" stroke-width="1.5"/><path d="M24,0V24H0" fill="none"/></svg>