<?xml version="1.0" encoding="utf-8"?>
<!-- Generator: Adobe Illustrator 23.1.0, SVG Export Plug-In . SVG Version: 6.00 Build 0)  -->
<svg version="1.1" id="icons" xmlns="http://www.w3.org/2000/svg" xmlns:xlink="http://www.w3.org/1999/xlink" x="0px" y="0px"
	 width="24px" height="24px" viewBox="0 0 24 24" enable-background="new 0 0 24 24" xml:space="preserve">
<g>
	<path fill="none" d="M0,0h24v24H0V0z"/>
	<g>
		<path fill="none" stroke="#323232" stroke-width="1.5" stroke-linecap="round" stroke-linejoin="round" d="M17.657,7.343
			c3.124,3.124,3.124,8.19,0,11.314s-8.19,3.124-11.314,0s-3.124-8.19,0-11.314S14.533,4.219,17.657,7.343"/>
		<g>
			
				<path id="Shape_3077_12_" fill="none" stroke="#323232" stroke-width="1.5" stroke-linecap="round" stroke-linejoin="round" stroke-miterlimit="10" d="
				M12.5,12.998c0-0.276-0.224-0.499-0.5-0.498c-0.276,0.001-0.5,0.225-0.5,0.501c0,0.276,0.223,0.499,0.499,0.499
				c0.276,0,0.5-0.224,0.501-0.501"/>
		</g>
		<path fill="none" stroke="#323232" stroke-width="1.5" stroke-linecap="round" stroke-linejoin="round" d="M12,9v4"/>
		<path fill="none" stroke="#323232" stroke-width="1.5" stroke-linecap="round" stroke-linejoin="round" d="M10,2h4"/>
		<path fill="none" stroke="#323232" stroke-width="1.5" stroke-linecap="round" stroke-linejoin="round" d="M21,6l-2-2l1,1
			l-2.343,2.343"/>
	</g>
</g>
</svg>
