<svg id="Layer_3" data-name="Layer 3" xmlns="http://www.w3.org/2000/svg" viewBox="0 0 24 24"><path d="M5.628,18.3551A8.99977,8.99977,0,1,0,12,3" fill="none" stroke="#323232" stroke-linecap="round" stroke-linejoin="round" stroke-width="1.5"/><path d="M3.78134,15.42508a.05.05,0,1,1-.05006-.05006.05.05,0,0,1,.05006.05006" fill="none" stroke="#323232" stroke-linecap="round" stroke-linejoin="round" stroke-width="1.5"/><path d="M3.10006,12.00006A.05.05,0,1,1,3.05,11.95a.05.05,0,0,1,.05006.05006" fill="none" stroke="#323232" stroke-linecap="round" stroke-linejoin="round" stroke-width="1.5"/><path d="M3.78134,8.575A.05.05,0,1,1,3.73128,8.525a.05.05,0,0,1,.05006.05007" fill="none" stroke="#323232" stroke-linecap="round" stroke-linejoin="round" stroke-width="1.5"/><path d="M5.72146,5.67146a.05.05,0,1,1-.05007-.05007.05.05,0,0,1,.05007.05007" fill="none" stroke="#323232" stroke-linecap="round" stroke-linejoin="round" stroke-width="1.5"/><path d="M8.62505,3.73134A.05.05,0,1,1,8.575,3.68128a.05.05,0,0,1,.05007.05006" fill="none" stroke="#323232" stroke-linecap="round" stroke-linejoin="round" stroke-width="1.5"/><line x1="16.04775" y1="12.60225" x2="11.39775" y2="12.60225" fill="none" stroke="#323232" stroke-linecap="round" stroke-linejoin="round" stroke-width="1.5"/><line x1="11.39775" y1="12.60225" x2="11.39775" y2="7" fill="none" stroke="#323232" stroke-linecap="round" stroke-linejoin="round" stroke-width="1.5"/><path d="M0,0H24V24H0Z" fill="none"/></svg>