<?xml version="1.0" encoding="utf-8"?>
<!-- Generator: Adobe Illustrator 24.0.2, SVG Export Plug-In . SVG Version: 6.00 Build 0)  -->
<svg version="1.1" id="Layer_3" xmlns="http://www.w3.org/2000/svg" xmlns:xlink="http://www.w3.org/1999/xlink" x="0px" y="0px"
	 width="24px" height="24px" viewBox="0 0 24 24" enable-background="new 0 0 24 24" xml:space="preserve">
<g>
	<rect id="_Transparent_Rectangle__36_" fill="none" width="24" height="24"/>
	<g>
		
			<polyline fill="none" stroke="#323232" stroke-width="1.5" stroke-linecap="round" stroke-linejoin="round" stroke-miterlimit="10" points="
			5.5,8.25 3,8.25 3,5.75 		"/>
		<path fill="none" stroke="#323232" stroke-width="1.5" stroke-linecap="round" stroke-linejoin="round" d="M20.824,12
			c0-4.971-4.029-9-9-9C8.193,3,5.073,5.154,3.65,8.25"/>
		<path fill="none" stroke="#323232" stroke-width="1.5" stroke-linecap="round" stroke-linejoin="round" d="M13.521,12l1.306,1.684
			c0.136,0.175,0.21,0.391,0.21,0.613v0.953c0,0.276-0.224,0.5-0.5,0.5H9.463c-0.276,0-0.5-0.224-0.5-0.5v-0.971
			c0-0.21,0.066-0.416,0.19-0.586L10.378,12l-1.225-1.692c-0.123-0.171-0.19-0.376-0.19-0.586V8.75c0-0.276,0.224-0.5,0.5-0.5h5.074
			c0.276,0,0.5,0.224,0.5,0.5v0.953c0,0.222-0.074,0.438-0.21,0.613L13.521,12z"/>
		
			<polyline fill="none" stroke="#323232" stroke-width="1.5" stroke-linecap="round" stroke-linejoin="round" stroke-miterlimit="10" points="
			18.5,15.75 21,15.75 21,18.25 		"/>
		<path fill="none" stroke="#323232" stroke-width="1.5" stroke-linecap="round" stroke-linejoin="round" d="M3.176,12
			c0,4.971,4.029,9,9,9c3.63,0,6.751-2.154,8.174-5.25"/>
	</g>
	<rect id="_Transparent_Rectangle__35_" fill="none" width="24" height="24"/>
</g>
</svg>
