<svg id="Layer_3" data-name="Layer 3" xmlns="http://www.w3.org/2000/svg" viewBox="0 0 24 24"><path d="M0,0H24V24H0Z" fill="none"/><path d="M20,20.83l-2.26-2.26" fill="none" stroke="#323232" stroke-linecap="round" stroke-linejoin="round" stroke-width="1.5"/><path d="M6.26,18.57,4,20.83" fill="none" stroke="#323232" stroke-linecap="round" stroke-linejoin="round" stroke-width="1.5"/><path d="M8.939,5.611A8,8,0,1,1,4.61208,16.0646L4.611,16.062A8,8,0,0,1,8.939,5.611" fill="none" stroke="#323232" stroke-linecap="round" stroke-linejoin="round" stroke-width="1.5"/><path d="M7.514,3.1A3.512,3.512,0,0,0,3.045,6.962" fill="none" stroke="#323232" stroke-linecap="round" stroke-linejoin="round" stroke-width="1.5"/><path d="M16.5,3.1a3.513,3.513,0,0,1,4.469,3.862" fill="none" stroke="#323232" stroke-linecap="round" stroke-linejoin="round" stroke-width="1.5"/><path d="M10.20008,10.81356a1.69569,1.69569,0,0,1,1.72214-1.311A1.66122,1.66122,0,0,1,13.67206,11.058C13.67206,12.22763,12,12.61345,12,13.39117" fill="none" stroke="#323232" stroke-linecap="round" stroke-linejoin="round" stroke-width="1.5"/><path d="M12,15.9a.05.05,0,1,0,.05.05A.05.05,0,0,0,12,15.9" fill="none" stroke="#323232" stroke-linecap="round" stroke-linejoin="round" stroke-width="1.5"/></svg>