<svg id="Layer_3" data-name="Layer 3" xmlns="http://www.w3.org/2000/svg" viewBox="0 0 24 24"><line x1="17.68955" y1="18.12377" x2="20" y2="20.43422" fill="none" stroke="#323232" stroke-linecap="round" stroke-linejoin="round" stroke-width="1.5"/><line x1="6.31025" y1="18.12396" x2="4" y2="20.43422" fill="none" stroke="#323232" stroke-linecap="round" stroke-linejoin="round" stroke-width="1.5"/><circle cx="12" cy="12.5" r="8" fill="none" stroke="#323232" stroke-miterlimit="10" stroke-width="1.5"/><path d="M4.61,9.43A3.458,3.458,0,0,1,3,6.5,3.5017,3.5017,0,0,1,9.6,4.87" fill="none" stroke="#323232" stroke-linecap="round" stroke-linejoin="round" stroke-width="1.5"/><path d="M14.4,4.87A3.5017,3.5017,0,0,1,21,6.5a3.458,3.458,0,0,1-1.61,2.93" fill="none" stroke="#323232" stroke-linecap="round" stroke-linejoin="round" stroke-width="1.5"/><path d="M12.00028,12.27206V10.00192" fill="none" stroke="#323232" stroke-linecap="round" stroke-linejoin="round" stroke-width="1.5"/><path d="M12.00028,14.77831a.11112.11112,0,0,0-.11112.1111v.0014a.11182.11182,0,1,0,.11111-.11389" fill="none" stroke="#323232" stroke-linecap="round" stroke-linejoin="round" stroke-width="1.5"/><path d="M0,0H24V24H0Z" fill="none"/></svg>