<svg id="Layer_3" data-name="Layer 3" xmlns="http://www.w3.org/2000/svg" viewBox="0 0 24 24"><title>clothes</title><rect width="24" height="24" fill="none"/><path d="M18,9.343V17a4,4,0,0,1-4,4H10a4,4,0,0,1-4-4V9.343l-1.454.5a1,1,0,0,1-1.219-.5L2.106,6.9A1,1,0,0,1,2.575,5.55L7.192,3.38A4,4,0,0,1,8.894,3h6.213a4,4,0,0,1,1.7.38l4.617,2.17A1,1,0,0,1,21.894,6.9L20.673,9.344a1,1,0,0,1-1.219.5Z" fill="none" stroke="#323232" stroke-linecap="round" stroke-linejoin="round" stroke-width="1.5"/><path d="M15.5,3A3.5,3.5,0,0,1,12,6.5h0A3.5,3.5,0,0,1,8.5,3" fill="none" stroke="#323232" stroke-linecap="round" stroke-linejoin="round" stroke-width="1.5"/></svg>