<?xml version="1.0" encoding="utf-8"?>
<!-- Generator: Adobe Illustrator 24.0.2, SVG Export Plug-In . SVG Version: 6.00 Build 0)  -->
<svg version="1.1" id="Layer_3" xmlns="http://www.w3.org/2000/svg" xmlns:xlink="http://www.w3.org/1999/xlink" x="0px" y="0px"
	 width="24px" height="24px" viewBox="0 0 24 24" enable-background="new 0 0 24 24" xml:space="preserve">
<g>
	<g>
		<path fill="none" stroke="#323232" stroke-width="1.5" stroke-linecap="round" stroke-linejoin="round" d="M15.971,8.776
			c-0.478,0-0.928,0.098-1.322,0.295c-0.295-1.943-1.983-3.436-4.009-3.436c-2.209,0-4.009,1.774-4.066,3.971
			c-1.322,0.169-2.349,1.295-2.349,2.69C4.224,13.789,5.433,15,6.925,15h9.045c1.716,0,3.109-1.394,3.109-3.112
			C19.079,10.17,17.686,8.776,15.971,8.776z"/>
		<path fill="none" stroke="#323232" stroke-width="1.5" stroke-linecap="round" stroke-linejoin="round" d="M17.51,18l-0.5,1"/>
		<path fill="none" stroke="#323232" stroke-width="1.5" stroke-linecap="round" stroke-linejoin="round" d="M8.51,21l-0.5,1"/>
		<path fill="none" stroke="#323232" stroke-width="1.5" stroke-linecap="round" stroke-linejoin="round" d="M5.505,17.995
			C5.502,17.995,5.5,17.997,5.5,18c0,0.003,0.002,0.005,0.005,0.005c0.003,0,0.005-0.002,0.005-0.005
			C5.51,17.997,5.508,17.995,5.505,17.995"/>
		<path fill="none" stroke="#323232" stroke-width="1.5" stroke-linecap="round" stroke-linejoin="round" d="M11.505,17.995
			c-0.003,0-0.005,0.002-0.005,0.005c0,0.003,0.002,0.005,0.005,0.005S11.51,18.003,11.51,18
			C11.51,17.997,11.508,17.995,11.505,17.995"/>
		<path fill="none" stroke="#323232" stroke-width="1.5" stroke-linecap="round" stroke-linejoin="round" d="M13.51,20.99
			c-0.003,0-0.005,0.002-0.005,0.005c0,0.003,0.002,0.005,0.005,0.005s0.005-0.002,0.005-0.005
			C13.515,20.992,13.513,20.99,13.51,20.99"/>
		<path fill="none" stroke="#323232" stroke-width="1.5" stroke-linecap="round" stroke-linejoin="round" d="M11.466,5.728
			C11.7,3.645,13.449,2.02,15.597,2.02c0,2.304,1.871,4.173,4.178,4.173c0,1.395-0.693,2.624-1.746,3.381"/>
	</g>
	<path fill="none" d="M24,0v24H0V0H24z"/>
</g>
</svg>
