<?xml version="1.0" encoding="utf-8"?>
<!-- Generator: Adobe Illustrator 24.0.2, SVG Export Plug-In . SVG Version: 6.00 Build 0)  -->
<svg version="1.1" id="Layer_3" xmlns="http://www.w3.org/2000/svg" xmlns:xlink="http://www.w3.org/1999/xlink" x="0px" y="0px"
	 width="24px" height="24px" viewBox="0 0 24 24" enable-background="new 0 0 24 24" xml:space="preserve">
<g>
	<path fill="none" d="M0,0h24v24H0V0z"/>
	<g>
		<g>
			<path fill="none" stroke="#323232" stroke-width="1.5" stroke-linecap="round" stroke-linejoin="round" d="M17.078,6.689
				c-0.562,0-1.092,0.116-1.555,0.347C15.176,4.753,13.191,3,10.809,3c-2.597,0-4.714,2.084-4.78,4.665
				c-1.555,0.198-2.762,1.522-2.762,3.159C3.266,12.577,4.689,14,6.442,14h10.636c2.018,0,3.656-1.638,3.656-3.656
				S19.096,6.689,17.078,6.689z"/>
		</g>
		
			<line fill="none" stroke="#323232" stroke-width="1.5" stroke-linecap="round" stroke-linejoin="round" x1="5" y1="17.5" x2="19" y2="17.5"/>
		
			<line fill="none" stroke="#323232" stroke-width="1.5" stroke-linecap="round" stroke-linejoin="round" x1="5" y1="21" x2="19" y2="21"/>
	</g>
</g>
</svg>
