<?xml version="1.0" encoding="utf-8"?>
<!-- Generator: Adobe Illustrator 24.0.2, SVG Export Plug-In . SVG Version: 6.00 Build 0)  -->
<svg version="1.1" id="Layer_1" xmlns="http://www.w3.org/2000/svg" xmlns:xlink="http://www.w3.org/1999/xlink" x="0px" y="0px"
	 width="24px" height="24px" viewBox="0 0 24 24" enable-background="new 0 0 24 24" xml:space="preserve">
<g>
	<path fill="none" d="M0,0h24v24H0V0z"/>
	<g>
		
			<line fill="none" stroke="#323232" stroke-width="1.5" stroke-linecap="round" stroke-linejoin="round" x1="17.75" y1="5" x2="20.25" y2="5"/>
		
			<line fill="none" stroke="#323232" stroke-width="1.5" stroke-linecap="round" stroke-linejoin="round" x1="19" y1="6.25" x2="19" y2="3.75"/>
		<path fill="none" stroke="#323232" stroke-width="1.5" stroke-linecap="round" stroke-linejoin="round" d="M19,9
			c-2.209,0-4-1.791-4-4s1.791-4,4-4s4,1.791,4,4S21.209,9,19,9"/>
		<g>
			<path fill="none" stroke="#323232" stroke-width="1.5" stroke-linecap="round" stroke-linejoin="round" d="M15.006,4.765
				C13.936,4.279,12.752,4,11.5,4C6.806,4,3,7.806,3,12.5S6.806,21,11.5,21s8.5-3.806,8.5-8.5c0-1.252-0.279-2.436-0.765-3.506"/>
		</g>
		<g>
			<path fill="none" stroke="#323232" stroke-width="1.5" stroke-linecap="round" stroke-linejoin="round" d="M8.788,10.863
				c-1.165,0.159-2.066,1.148-2.066,2.356c0,1.319,1.07,2.389,2.389,2.389h5.256c1.056,0,1.912-0.856,1.912-1.912
				s-0.856-1.912-1.912-1.912c0-1.584-1.283-2.867-2.867-2.867C10.24,8.919,9.172,9.733,8.788,10.863z"/>
		</g>
	</g>
</g>
</svg>
