<?xml version="1.0" encoding="utf-8"?>
<!-- Generator: Adobe Illustrator 24.0.2, SVG Export Plug-In . SVG Version: 6.00 Build 0)  -->
<svg version="1.1" id="Layer_1" xmlns="http://www.w3.org/2000/svg" xmlns:xlink="http://www.w3.org/1999/xlink" x="0px" y="0px"
	 width="24px" height="24px" viewBox="0 0 24 24" style="enable-background:new 0 0 24 24;" xml:space="preserve">
<style type="text/css">
	.st0{fill:none;stroke:#323232;stroke-width:1.5;stroke-linecap:round;stroke-linejoin:round;}
	.st1{fill:none;}
</style>
<g>
	<path class="st0" d="M15.3,21H8.7C5.5,21,3,18.4,3,15.3V8.7C3,5.5,5.5,3,8.7,3h6.7C18.5,3,21,5.5,21,8.7v6.7
		C21,18.4,18.5,21,15.3,21z"/>
	<path class="st0" d="M6.9,12.8c0-1.3,1-2.3,2.2-2.5c0.4-1.2,1.5-2.1,2.9-2.1c1.7,0,3,1.4,3,3c1.1,0,2,0.9,2,2s-0.9,2-2,2H9.5
		C8.1,15.3,6.9,14.2,6.9,12.8z"/>
</g>
<path class="st1" d="M0,0h24v24H0V0z"/>
</svg>
