<?xml version="1.0" encoding="utf-8"?>
<!-- Generator: Adobe Illustrator 24.0.2, SVG Export Plug-In . SVG Version: 6.00 Build 0)  -->
<svg version="1.1" id="Layer_3" xmlns="http://www.w3.org/2000/svg" xmlns:xlink="http://www.w3.org/1999/xlink" x="0px" y="0px"
	 width="24px" height="24px" viewBox="0 0 24 24" enable-background="new 0 0 24 24" xml:space="preserve">
<g>
	<path fill="none" d="M0,0h24v24H0V0z"/>
	<g>
		<path fill="none" stroke="#323232" stroke-width="1.5" stroke-linecap="round" stroke-linejoin="round" d="M16.847,14.483
			C17.573,13.328,18,11.965,18,10.5C18,6.358,14.643,3,10.5,3S3,6.358,3,10.5c0,2.318,1.053,4.39,2.705,5.765"/>
		<path fill="none" stroke="#323232" stroke-width="1.5" stroke-linecap="round" stroke-linejoin="round" d="M17.651,14.383
			c-0.515,0-1,0.106-1.424,0.318C15.909,12.608,14.091,11,11.909,11c-2.379,0-4.318,1.911-4.379,4.277
			C6.106,15.459,5,16.672,5,18.174c-0.001,1.608,1.302,2.912,2.908,2.912h9.742c1.848,0,3.348-1.501,3.348-3.352
			C20.999,15.884,19.499,14.383,17.651,14.383z"/>
	</g>
</g>
</svg>
