<?xml version="1.0" encoding="utf-8"?>
<!-- Generator: Adobe Illustrator 24.0.2, SVG Export Plug-In . SVG Version: 6.00 Build 0)  -->
<svg version="1.1" id="Layer_3" xmlns="http://www.w3.org/2000/svg" xmlns:xlink="http://www.w3.org/1999/xlink" x="0px" y="0px"
	 width="24px" height="24px" viewBox="0 0 24 24" enable-background="new 0 0 24 24" xml:space="preserve">
<path fill="none" d="M0,0h24v24H0V0z"/>
<g>
	<g>
		<path fill="none" stroke="#323232" stroke-width="1.5" stroke-linecap="round" stroke-linejoin="round" d="M15.988,15h1.535
			c2.195,0,3.977-1.787,3.977-3.988s-1.782-3.987-3.977-3.987c-0.611,0-1.188,0.127-1.691,0.379C15.455,4.912,13.295,3,10.704,3
			c-2.825,0-5.128,2.273-5.2,5.089C3.813,8.305,2.5,9.749,2.5,11.535C2.499,13.448,4.047,15,5.954,15h0.063h0.997"/>
		<path fill="none" stroke="#323232" stroke-width="1.5" stroke-linecap="round" stroke-linejoin="round" d="M12.3,21l1.5-3h-3.6
			l1.5-3"/>
	</g>
	<path fill="none" d="M0,0h24v24H0V0z"/>
</g>
</svg>
