<svg id="Layer_3" data-name="Layer 3" xmlns="http://www.w3.org/2000/svg" viewBox="0 0 24 24"><title>clubs-circle</title><path d="M14.04367,9.66165a1.92381,1.92381,0,0,0-.69694-2.06,1.9524,1.9524,0,0,0-1.4109-.60092,2.09634,2.09634,0,0,0-1.98455,2.661,2.11889,2.11889,0,1,0,1.81377,3.08342.25941.25941,0,0,1,.46838.00687,2.12321,2.12321,0,0,0,3.19562.69946,2.1187,2.1187,0,0,0-1.38538-3.78975Z" fill="none" stroke="#323232" stroke-linecap="round" stroke-linejoin="round" stroke-width="1.5"/><rect width="24" height="24" fill="none"/><line x1="13.74491" y1="16" x2="10.25059" y2="16" fill="none" stroke="#323232" stroke-linecap="round" stroke-linejoin="round" stroke-width="1.5"/><line x1="11.99775" y1="12.60065" x2="11.99775" y2="16" fill="none" stroke="#323232" stroke-linecap="round" stroke-linejoin="round" stroke-width="1.5"/><path id="a" d="M18.364,5.636a9,9,0,1,1-12.72792,0,9,9,0,0,1,12.72792,0" fill="none" stroke="#323232" stroke-linecap="round" stroke-linejoin="round" stroke-width="1.5"/><path id="a-2" data-name="a" d="M18.364,5.636a9,9,0,1,1-12.72792,0,9,9,0,0,1,12.72792,0" fill="none" stroke="#323232" stroke-linecap="round" stroke-linejoin="round" stroke-width="1.5"/><path d="M14.04367,9.66165a1.92381,1.92381,0,0,0-.69694-2.06,1.9524,1.9524,0,0,0-1.4109-.60092,2.09634,2.09634,0,0,0-1.98455,2.661,2.11889,2.11889,0,1,0,1.81377,3.08342.25941.25941,0,0,1,.46838.00687,2.12321,2.12321,0,0,0,3.19562.69946,2.1187,2.1187,0,0,0-1.38538-3.78975Z" fill="none" stroke="#323232" stroke-linecap="round" stroke-linejoin="round" stroke-width="1.5"/></svg>