<?xml version="1.0" encoding="utf-8"?>
<!-- Generator: Adobe Illustrator 23.1.0, SVG Export Plug-In . SVG Version: 6.00 Build 0)  -->
<svg version="1.1" id="icons" xmlns="http://www.w3.org/2000/svg" xmlns:xlink="http://www.w3.org/1999/xlink" x="0px" y="0px"
	 width="24px" height="24px" viewBox="0 0 24 24" enable-background="new 0 0 24 24" xml:space="preserve">
<g>
	<g>
		<path fill="none" stroke="#323232" stroke-width="1.5" stroke-linecap="round" stroke-linejoin="round" d="M12,12h-1.5
			C9.672,12,9,11.328,9,10.5l0,0C9,9.672,9.672,9,10.5,9l0,0c0.828,0,1.5,0.672,1.5,1.5V12z"/>
		<path fill="none" stroke="#323232" stroke-width="1.5" stroke-linecap="round" stroke-linejoin="round" d="M12,12h3v3h-3V12z"/>
		<path fill="none" stroke="#323232" stroke-width="1.5" stroke-linecap="round" stroke-linejoin="round" d="M10.5,18L10.5,18
			C9.672,18,9,17.328,9,16.5l0,0c0-0.828,0.672-1.5,1.5-1.5H12v1.5C12,17.328,11.328,18,10.5,18z"/>
		<path fill="none" stroke="#323232" stroke-width="1.5" stroke-linecap="round" stroke-linejoin="round" d="M15,15h1.5
			c0.829,0,1.5,0.672,1.5,1.5l0,0c0,0.828-0.671,1.5-1.5,1.5l0,0c-0.828,0-1.5-0.672-1.5-1.5V15z"/>
		<path fill="none" stroke="#323232" stroke-width="1.5" stroke-linecap="round" stroke-linejoin="round" d="M16.5,9L16.5,9
			c0.829,0,1.5,0.672,1.5,1.5l0,0c0,0.828-0.671,1.5-1.5,1.5H15v-1.5C15,9.672,15.672,9,16.5,9z"/>
		<path fill="none" stroke="#323232" stroke-width="1.5" stroke-linecap="round" stroke-linejoin="round" d="M19,21H8
			c-1.105,0-2-0.895-2-2V8c0-1.105,0.895-2,2-2h11c1.105,0,2,0.895,2,2v11C21,20.105,20.105,21,19,21z"/>
		<path fill="none" stroke="#323232" stroke-width="1.5" stroke-linecap="round" stroke-linejoin="round" d="M3,16V5
			c0-1.105,0.895-2,2-2h11"/>
		<path fill="none" stroke="#323232" stroke-width="1.5" stroke-linecap="round" stroke-linejoin="round" d="M3,15.316V4.895
			C3,3.848,3.848,3,4.895,3h10.421"/>
	</g>
	<path fill="none" d="M0,0h24v24H0V0z"/>
</g>
</svg>
