<svg id="Layer_3" data-name="Layer 3" xmlns="http://www.w3.org/2000/svg" viewBox="0 0 24 24"><title>Artboard 114</title><path d="M12.232,13h-.763a1.017,1.017,0,0,1-1.017-1.018V9.439a1.017,1.017,0,0,1,1.017-1.018h.763A1.018,1.018,0,0,1,13.25,9.439v2.543A1.018,1.018,0,0,1,12.232,13Z" fill="none" stroke="#323232" stroke-linecap="round" stroke-linejoin="round" stroke-width="1.5"/><path d="M15.45,11.972a1.275,1.275,0,1,1,2.55,0c0,1.593-2.548,1.593-2.548,3.479H18" fill="none" stroke="#323232" stroke-linecap="round" stroke-linejoin="round" stroke-width="1.5"/><rect x="3" y="3" width="18" height="18" rx="5" stroke-width="1.5" stroke="#323232" stroke-linecap="round" stroke-linejoin="round" fill="none"/><path d="M8.289,8.421H7.018A1.018,1.018,0,0,0,6,9.439v2.543A1.018,1.018,0,0,0,7.018,13H8.289" fill="none" stroke="#323232" stroke-linecap="round" stroke-linejoin="round" stroke-width="1.5"/><path d="M0,0H24V24H0Z" fill="none"/></svg>