<svg id="Layer_3" data-name="Layer 3" xmlns="http://www.w3.org/2000/svg" viewBox="0 0 24 24"><path d="M4.01542,8V21" fill="none" stroke="#323232" stroke-linecap="round" stroke-linejoin="round" stroke-width="1.5"/><path d="M20,8V21" fill="none" stroke="#323232" stroke-linecap="round" stroke-linejoin="round" stroke-width="1.5"/><line x1="3" y1="21" x2="21" y2="21" fill="none" stroke="#323232" stroke-linecap="round" stroke-linejoin="round" stroke-width="1.5"/><path d="M20,8H4A1.00036,1.00036,0,0,1,3,7V4A1.00036,1.00036,0,0,1,4,3H20a1.00036,1.00036,0,0,1,1,1V7A1.00036,1.00036,0,0,1,20,8Z" fill="none" stroke="#323232" stroke-linecap="round" stroke-linejoin="round" stroke-width="1.5"/><path d="M17.5,5.5h0" fill="none" stroke="#323232" stroke-linecap="round" stroke-linejoin="round" stroke-width="1.5"/><path d="M14.5,5.5h0" fill="none" stroke="#323232" stroke-linecap="round" stroke-linejoin="round" stroke-width="1.5"/><path d="M16.01,13.85l-.77,6.27a.99554.99554,0,0,1-.99.88H9.75a.99554.99554,0,0,1-.99-.88l-.78-6.27" fill="none" stroke="#323232" stroke-linecap="round" stroke-linejoin="round" stroke-width="1.5"/><path d="M15.49944,14H8.50114a.99991.99991,0,0,1-.949-1.316l.333-1a1.001,1.001,0,0,1,.949-.684h6.3313a1,1,0,0,1,.949.684l.333,1A.99891.99891,0,0,1,15.49944,14Z" fill="none" stroke="#323232" stroke-linecap="round" stroke-linejoin="round" stroke-width="1.5"/><path d="M24,24H0V0H24Z" fill="none"/></svg>