<svg id="Layer_3" data-name="Layer 3" xmlns="http://www.w3.org/2000/svg" viewBox="0 0 24 24"><title>color-picker-select-square</title><path d="M0,24V0H24V24Z" fill="none"/><path d="M21,13v4a4,4,0,0,1-4,4H7a4,4,0,0,1-4-4V7A4,4,0,0,1,7,3h4" fill="none" stroke="#323232" stroke-linecap="round" stroke-linejoin="round" stroke-width="1.5"/><path d="M19,9,15,5" fill="none" stroke="#323232" stroke-linecap="round" stroke-linejoin="round" stroke-width="1.5"/><path d="M13.3,8,17.706,3.6l0,0a1.907,1.907,0,0,1,2.7,0h0a1.908,1.908,0,0,1,0,2.7L16,10.7c-1.527,1.519-3.245.55-4,1.3C12.748,11.248,11.779,9.532,13.3,8Z" fill="none" stroke="#323232" stroke-linecap="round" stroke-linejoin="round" stroke-width="1.5"/><line x1="6" y1="12" x2="7.5" y2="12" fill="none" stroke="#323232" stroke-linecap="round" stroke-linejoin="round" stroke-width="1.5"/><line x1="8.639" y1="9.005" x2="7.579" y2="7.941" fill="none" stroke="#323232" stroke-linecap="round" stroke-linejoin="round" stroke-width="1.5"/><line x1="16.046" y1="16.435" x2="14.986" y2="15.371" fill="none" stroke="#323232" stroke-linecap="round" stroke-linejoin="round" stroke-width="1.5"/><line x1="7.579" y1="16.059" x2="8.639" y2="14.995" fill="none" stroke="#323232" stroke-linecap="round" stroke-linejoin="round" stroke-width="1.5"/><line x1="11.625" y1="18" x2="11.625" y2="16.495" fill="none" stroke="#323232" stroke-linecap="round" stroke-linejoin="round" stroke-width="1.5"/></svg>