<svg id="Layer_3" data-name="Layer 3" xmlns="http://www.w3.org/2000/svg" viewBox="0 0 24 24"><title>color-palette-square</title><path d="M12,18a6,6,0,0,1-6-6.17A6.064,6.064,0,0,1,11.83,6,6,6,0,0,1,18,12v.667A1.333,1.333,0,0,1,16.667,14H15.291a1.333,1.333,0,0,0-1.282,1.7l.172.6A1.333,1.333,0,0,1,12.9,18Z" fill="none" stroke="#323232" stroke-linecap="round" stroke-linejoin="round" stroke-width="1.5"/><path d="M11.982,8.617a.05.05,0,0,0-.05.05.05.05,0,0,0,.05.05.05.05,0,0,0,0-.1" fill="none" stroke="#323232" stroke-linecap="round" stroke-linejoin="round" stroke-width="1.5"/><path d="M8.717,11.982a.05.05,0,1,0-.05.051.051.051,0,0,0,.05-.051" fill="none" stroke="#323232" stroke-linecap="round" stroke-linejoin="round" stroke-width="1.5"/><path d="M14.362,9.6a.051.051,0,0,0-.071,0,.05.05,0,0,0,.071.071.051.051,0,0,0,0-.071" fill="none" stroke="#323232" stroke-linecap="round" stroke-linejoin="round" stroke-width="1.5"/><path d="M9.673,14.291a.05.05,0,0,0-.071,0,.05.05,0,0,0,.071.071.05.05,0,0,0,0-.071" fill="none" stroke="#323232" stroke-linecap="round" stroke-linejoin="round" stroke-width="1.5"/><path d="M9.6,9.6a.05.05,0,0,0,.071.071.05.05,0,0,0,0-.071.051.051,0,0,0-.071,0" fill="none" stroke="#323232" stroke-linecap="round" stroke-linejoin="round" stroke-width="1.5"/><rect x="3" y="3" width="18" height="18" rx="5" stroke-width="1.5" stroke="#323232" stroke-linecap="round" stroke-linejoin="round" fill="none"/><path d="M0,0H24V24H0Z" fill="none"/></svg>