<svg id="Layer_3" data-name="Layer 3" xmlns="http://www.w3.org/2000/svg" viewBox="0 0 24 24"><title>color-palette</title><path d="M0,0H24V24H0Z" fill="none"/><path d="M6.5,21h0A3.5,3.5,0,0,1,3,17.5V5A2,2,0,0,1,5,3H8a2,2,0,0,1,2,2V17.5A3.5,3.5,0,0,1,6.5,21Z" fill="none" stroke="#323232" stroke-linecap="round" stroke-linejoin="round" stroke-width="1.5"/><path d="M8.975,19.975l9.711-9.711a2,2,0,0,0,0-2.828L16.565,5.315a2,2,0,0,0-2.828,0L10,9.05" fill="none" stroke="#323232" stroke-linecap="round" stroke-linejoin="round" stroke-width="1.5"/><path d="M14.95,14H19a2,2,0,0,1,2,2v3a2,2,0,0,1-2,2H6.5" fill="none" stroke="#323232" stroke-linecap="round" stroke-linejoin="round" stroke-width="1.5"/><line x1="3" y1="14.957" x2="10" y2="14.957" fill="none" stroke="#323232" stroke-linecap="round" stroke-linejoin="round" stroke-width="1.5"/><line x1="3" y1="8.914" x2="10" y2="8.914" fill="none" stroke="#323232" stroke-linecap="round" stroke-linejoin="round" stroke-width="1.5"/></svg>