<svg id="Layer_3" data-name="Layer 3" xmlns="http://www.w3.org/2000/svg" viewBox="0 0 24 24"><title>color-picker-circle</title><path d="M15,14,10,9" fill="none" stroke="#323232" stroke-linecap="round" stroke-linejoin="round" stroke-width="1.5"/><path d="M8.536,12.464l4.9-4.9,0,0a2.121,2.121,0,0,1,3,0h0l0,0a2.121,2.121,0,0,1,0,3l-4.9,4.9c-1.7,1.689-3.607.612-4.443,1.443C7.924,16.071,6.847,14.164,8.536,12.464Z" fill="none" stroke="#323232" stroke-linecap="round" stroke-linejoin="round" stroke-width="1.5"/><path d="M18.718,5.282a9.5,9.5,0,1,1-13.435,0,9.5,9.5,0,0,1,13.435,0" fill="none" stroke="#323232" stroke-linecap="round" stroke-linejoin="round" stroke-width="1.5"/><path d="M0,0H24V24H0Z" fill="none"/></svg>