<svg id="Layer_3" data-name="Layer 3" xmlns="http://www.w3.org/2000/svg" viewBox="0 0 24 24"><title>color-palette-square</title><path d="M8.4,10.534a3.646,3.646,0,0,0,1.41,7.009A3.612,3.612,0,0,0,12,16.8" fill="none" stroke="#323232" stroke-linecap="round" stroke-linejoin="round" stroke-width="1.5"/><path d="M15.608,10.539a3.483,3.483,0,0,0,.044-.435,3.647,3.647,0,1,0-7.293,0,3.6,3.6,0,0,0,.044.43" fill="none" stroke="#323232" stroke-linecap="round" stroke-linejoin="round" stroke-width="1.5"/><path d="M8.4,10.534a3.643,3.643,0,0,0,2.182,2.927" fill="none" stroke="#323232" stroke-linecap="round" stroke-linejoin="round" stroke-width="1.5"/><circle cx="14.187" cy="13.896" r="3.646" fill="none" stroke="#323232" stroke-linecap="round" stroke-linejoin="round" stroke-width="1.5"/><rect x="3" y="3" width="18" height="18" rx="5" stroke-width="1.5" stroke="#323232" stroke-linecap="round" stroke-linejoin="round" fill="none"/><path d="M0,24V0H24V24Z" fill="none"/></svg>