<?xml version="1.0" encoding="utf-8"?>
<!-- Generator: Adobe Illustrator 24.0.2, SVG Export Plug-In . SVG Version: 6.00 Build 0)  -->
<svg version="1.1" id="Layer_3" xmlns="http://www.w3.org/2000/svg" xmlns:xlink="http://www.w3.org/1999/xlink" x="0px" y="0px"
	 width="24px" height="24px" viewBox="0 0 24 24" enable-background="new 0 0 24 24" xml:space="preserve">
<g>
	<path fill="none" d="M0,0h24v24H0V0z"/>
	<g>
		<path fill="none" stroke="#323232" stroke-width="1.5" stroke-linecap="round" stroke-linejoin="round" d="M19,17h-3.465
			c-0.334,0-0.647,0.167-0.832,0.445l-0.406,0.609c-0.185,0.278-0.498,0.445-0.832,0.445h-4.93c-0.334,0-0.647-0.167-0.832-0.445
			l-0.406-0.609C7.111,17.167,6.799,17,6.464,17H3c-0.552,0-1,0.448-1,1v1c0,1.105,0.895,2,2,2h14c1.105,0,2-0.895,2-2v-1
			C20,17.448,19.552,17,19,17z"/>
		<path fill="none" stroke="#323232" stroke-width="1.5" stroke-linecap="round" stroke-linejoin="round" d="M19,17v-7"/>
		<path fill="none" stroke="#323232" stroke-width="1.5" stroke-linecap="round" stroke-linejoin="round" d="M18.875,7
			c0-1.036-0.839-1.875-1.875-1.875"/>
		<path fill="none" stroke="#323232" stroke-width="1.5" stroke-linecap="round" stroke-linejoin="round" d="M22,6
			c0-2.209-1.791-4-4-4"/>
		<path fill="none" stroke="#323232" stroke-width="1.5" stroke-linecap="round" stroke-linejoin="round" d="M3,17V7
			c0-1.105,0.895-2,2-2h9"/>
	</g>
</g>
</svg>
