<?xml version="1.0" encoding="utf-8"?>
<!-- Generator: Adobe Illustrator 24.0.2, SVG Export Plug-In . SVG Version: 6.00 Build 0)  -->
<svg version="1.1" id="Layer_3" xmlns="http://www.w3.org/2000/svg" xmlns:xlink="http://www.w3.org/1999/xlink" x="0px" y="0px"
	 width="24px" height="24px" viewBox="0 0 24 24" enable-background="new 0 0 24 24" xml:space="preserve">
<g>
	<path fill="none" d="M0,0h24v24H0V0z"/>
	<g>
		<path fill="none" stroke="#323232" stroke-width="1.5" stroke-linecap="round" stroke-linejoin="round" d="M19,17h-3.465
			c-0.334,0-0.647,0.167-0.832,0.445l-0.406,0.609c-0.185,0.278-0.498,0.445-0.832,0.445h-4.93c-0.334,0-0.647-0.167-0.832-0.445
			l-0.406-0.609C7.111,17.167,6.799,17,6.464,17H3c-0.552,0-1,0.448-1,1v1c0,1.105,0.895,2,2,2h14c1.105,0,2-0.895,2-2v-1
			C20,17.448,19.552,17,19,17z"/>
		<path fill="none" stroke="#323232" stroke-width="1.5" stroke-linecap="round" stroke-linejoin="round" d="M11,5H4.778
			C3.796,5,3,5.703,3,6.571V17"/>
		<path fill="none" stroke="#323232" stroke-width="1.5" stroke-linecap="round" stroke-linejoin="round" d="M19,17v-4"/>
		<path fill="none" stroke="#323232" stroke-width="1.5" stroke-linecap="round" stroke-linejoin="round" d="M19.75,8.69L22,11"/>
		<path fill="none" stroke="#323232" stroke-width="1.5" stroke-linecap="round" stroke-linejoin="round" d="M19.753,3.976
			c1.302,1.302,1.302,3.412,0,4.714s-3.412,1.302-4.714,0s-1.302-3.412,0-4.714C16.341,2.675,18.451,2.675,19.753,3.976"/>
		
			<line fill="none" stroke="#323232" stroke-width="1.5" stroke-linecap="round" stroke-linejoin="round" x1="15" y1="13" x2="10" y2="13"/>
		
			<line fill="none" stroke="#323232" stroke-width="1.5" stroke-linecap="round" stroke-linejoin="round" x1="11" y1="9" x2="10" y2="9"/>
		<path fill="none" stroke="#323232" stroke-width="1.5" stroke-linecap="round" stroke-linejoin="round" d="M7.029,8.875
			C6.96,8.875,6.904,8.931,6.905,9c0,0.069,0.056,0.125,0.125,0.125S7.155,9.069,7.155,9S7.099,8.875,7.029,8.875"/>
		<path fill="none" stroke="#323232" stroke-width="1.5" stroke-linecap="round" stroke-linejoin="round" d="M7.03,12.875
			c-0.069,0-0.125,0.056-0.124,0.125c0,0.069,0.056,0.125,0.125,0.125S7.155,13.069,7.155,13S7.099,12.875,7.03,12.875"/>
	</g>
</g>
</svg>
