<?xml version="1.0" encoding="utf-8"?>
<!-- Generator: Adobe Illustrator 24.0.2, SVG Export Plug-In . SVG Version: 6.00 Build 0)  -->
<svg version="1.1" id="Layer_1" xmlns="http://www.w3.org/2000/svg" xmlns:xlink="http://www.w3.org/1999/xlink" x="0px" y="0px"
	 width="24px" height="24px" viewBox="0 0 24 24" style="enable-background:new 0 0 24 24;" xml:space="preserve">
<style type="text/css">
	.st0{fill:none;stroke:#323232;stroke-width:1.5;stroke-linecap:round;stroke-linejoin:round;}
	.st1{fill:none;}
</style>
<g>
	<g>
		<path class="st0" d="M19.5,17.5H16c-0.3,0-0.6,0.2-0.8,0.4l-0.4,0.6C14.6,18.8,14.3,19,14,19H9c-0.3,0-0.6-0.2-0.8-0.4l-0.4-0.6
			c-0.2-0.3-0.5-0.4-0.8-0.4H3.5c-0.6,0-1,0.4-1,1v1c0,1.1,0.9,2,2,2h14c1.1,0,2-0.9,2-2v-1C20.5,17.9,20.1,17.5,19.5,17.5z"/>
		<path class="st0" d="M11.1,5.5H5.3c-1,0-1.8,0.7-1.8,1.6v10.4"/>
		<path class="st0" d="M19.5,17.5v-5.3"/>
		<path class="st0" d="M13.5,8c-0.1,0-0.1,0.1-0.1,0.1c0,0.1,0.1,0.1,0.1,0.1s0.1-0.1,0.1-0.1C13.6,8.1,13.6,8,13.5,8"/>
		<path class="st0" d="M16,8c-0.1,0-0.1,0.1-0.1,0.1c0,0.1,0.1,0.1,0.1,0.1c0.1,0,0.1-0.1,0.1-0.1C16.1,8.1,16.1,8,16,8"/>
		<path class="st0" d="M18.5,8c-0.1,0-0.1,0.1-0.1,0.1s0.1,0.1,0.1,0.1s0.1-0.1,0.1-0.1S18.6,8,18.5,8"/>
		<path class="st0" d="M16,13.5c-0.9,0-1.8-0.2-2.5-0.6l-2.9,0.6l0.6-2.9c-0.4-0.8-0.6-1.6-0.6-2.6c0-3,2.5-5.5,5.5-5.5
			S21.5,5,21.5,8S19,13.5,16,13.5z"/>
	</g>
	<path class="st1" d="M0,0h24v24H0V0z"/>
</g>
</svg>
