<svg id="Layer_3" data-name="Layer 3" xmlns="http://www.w3.org/2000/svg" viewBox="0 0 24 24"><title>compass-map-loading</title><path d="M0,0H24V24H0Z" fill="none"/><path d="M5.16,6.16A8.95492,8.95492,0,0,1,6.722,4.722" fill="none" stroke="#323232" stroke-linecap="round" stroke-linejoin="round" stroke-width="1.5"/><path d="M17,19.482A8.994,8.994,0,0,1,9.38,20.61" fill="none" stroke="#323232" stroke-linecap="round" stroke-linejoin="round" stroke-width="1.5"/><path d="M3.523,9A8.95617,8.95617,0,0,0,3,12" fill="none" stroke="#323232" stroke-linecap="round" stroke-linejoin="round" stroke-width="1.5"/><path d="M9.38,3.39A8.982,8.982,0,0,1,19.463,17" fill="none" stroke="#323232" stroke-linecap="round" stroke-linejoin="round" stroke-width="1.5"/><path d="M6.722,19.279A9.02406,9.02406,0,0,1,3.525,15" fill="none" stroke="#323232" stroke-linecap="round" stroke-linejoin="round" stroke-width="1.5"/><path d="M13.58,15.042l-3.727.914a1.5,1.5,0,0,1-1.809-1.809l.914-3.727A2,2,0,0,1,10.42,8.958l3.727-.914a1.5,1.5,0,0,1,1.809,1.809l-.914,3.727A2,2,0,0,1,13.58,15.042Z" fill="none" stroke="#323232" stroke-linecap="round" stroke-linejoin="round" stroke-width="1.5"/><path d="M12.25,12a.25.25,0,1,1-.25-.25" fill="none" stroke="#323232" stroke-linecap="round" stroke-linejoin="round" stroke-width="1.5"/><path d="M12,11.75a.25.25,0,0,1,.25.25" fill="none" stroke="#323232" stroke-linecap="round" stroke-linejoin="round" stroke-width="1.5"/></svg>