<svg id="Layer_3" data-name="Layer 3" xmlns="http://www.w3.org/2000/svg" viewBox="0 0 24 24"><title>compass-map-delete-cross-circle</title><path d="M0,0H24V24H0Z" fill="none"/><path d="M13,20.938A8.16,8.16,0,0,1,12,21a9,9,0,1,1,9-9,8.16,8.16,0,0,1-.062,1" fill="none" stroke="#323232" stroke-linecap="round" stroke-linejoin="round" stroke-width="1.5"/><path d="M13.58,15.042l-3.727.914a1.5,1.5,0,0,1-1.809-1.809l.914-3.727A2,2,0,0,1,10.42,8.958l3.727-.914a1.5,1.5,0,0,1,1.809,1.809l-.914,3.727A2,2,0,0,1,13.58,15.042Z" fill="none" stroke="#323232" stroke-linecap="round" stroke-linejoin="round" stroke-width="1.5"/><path d="M19.487,17.012l-2.475,2.475" fill="none" stroke="#323232" stroke-linecap="round" stroke-linejoin="round" stroke-width="1.5"/><path d="M17.013,17.012l2.475,2.475" fill="none" stroke="#323232" stroke-linecap="round" stroke-linejoin="round" stroke-width="1.5"/><path d="M12,11.75a.25.25,0,1,0,.251.25A.249.249,0,0,0,12,11.75" fill="none" stroke="#323232" stroke-linecap="round" stroke-linejoin="round" stroke-width="1.5"/><path d="M0,0H24V24H0Z" fill="none"/></svg>