<?xml version="1.0" encoding="utf-8"?>
<!-- Generator: Adobe Illustrator 24.0.2, SVG Export Plug-In . SVG Version: 6.00 Build 0)  -->
<svg version="1.1" id="Layer_1" xmlns="http://www.w3.org/2000/svg" xmlns:xlink="http://www.w3.org/1999/xlink" x="0px" y="0px"
	 width="24px" height="24px" viewBox="0 0 24 24" enable-background="new 0 0 24 24" xml:space="preserve">
<g>
	<g>
		<g>
			<g>
				<g>
					<path fill="none" d="M0,0h24v24H0V0z"/>
				</g>
			</g>
		</g>
	</g>
	<g>
		<path fill="none" stroke="#323232" stroke-width="1.5" stroke-linecap="round" stroke-linejoin="round" d="M21,22h-8.086
			c-0.529,0-0.957-0.429-0.957-0.957V7.957C11.957,7.429,12.386,7,12.914,7H21c0.529,0,0.957,0.429,0.957,0.957v13.086
			C21.957,21.571,21.529,22,21,22z"/>
		
			<line fill="none" stroke="#323232" stroke-width="1.5" stroke-linecap="round" stroke-linejoin="round" x1="8.5" y1="16" x2="8" y2="20"/>
		<g>
			
				<path fill="none" stroke="#323232" stroke-width="1.5" stroke-linecap="round" stroke-linejoin="round" stroke-miterlimit="10" d="
				M19,7V5.428C19,4.087,17.913,3,16.572,3H4.428C3.087,3,2,4.087,2,5.428v8.144C2,14.913,3.087,16,4.428,16h7.529"/>
		</g>
		
			<line fill="none" stroke="#323232" stroke-width="1.5" stroke-linecap="round" stroke-linejoin="round" stroke-miterlimit="10" x1="6.5" y1="20" x2="11.957" y2="20"/>
		
			<circle fill="none" stroke="#323232" stroke-width="1.5" stroke-linecap="round" stroke-linejoin="round" cx="17" cy="16.5" r="2"/>
		<path fill="none" stroke="#323232" stroke-width="1.5" stroke-linecap="round" stroke-linejoin="round" d="M16.999,10.75
			c-0.138,0-0.25,0.112-0.248,0.25c0,0.138,0.112,0.25,0.25,0.25s0.25-0.112,0.25-0.25C17.25,10.862,17.138,10.75,16.999,10.75"/>
	</g>
</g>
</svg>
