<svg id="Layer_3" data-name="Layer 3" xmlns="http://www.w3.org/2000/svg" viewBox="0 0 24 24"><path d="M10.98969,20.7317l-6.109-3.49088a2.03635,2.03635,0,0,1-1.026-1.768V8.52723a2.03635,2.03635,0,0,1,1.026-1.768l6.109-3.49088a2.03638,2.03638,0,0,1,2.02062,0l6.109,3.49088a2.03635,2.03635,0,0,1,1.026,1.768v6.94554a2.03635,2.03635,0,0,1-1.026,1.768l-6.109,3.49088A2.03638,2.03638,0,0,1,10.98969,20.7317Z" fill="none" stroke="#323232" stroke-linecap="round" stroke-linejoin="round" stroke-width="1.5"/><path d="M7.904,15.507,9.04,9.825a1.00058,1.00058,0,0,1,.785-.784l5.682-1.136a.49943.49943,0,0,1,.588.588l-1.136,5.682a.99941.99941,0,0,1-.784.784L8.493,16.095A.49976.49976,0,0,1,7.904,15.507Z" fill="none" stroke="#323232" stroke-linecap="round" stroke-linejoin="round" stroke-width="1.5"/><path d="M11.9995,11.875A.125.125,0,1,0,12.125,12a.1243.1243,0,0,0-.1255-.125" fill="none" stroke="#323232" stroke-linecap="round" stroke-linejoin="round" stroke-width="1.5"/><rect width="24" height="24" fill="none"/></svg>