<svg id="Layer_3" data-name="Layer 3" xmlns="http://www.w3.org/2000/svg" viewBox="0 0 24 24"><path d="M0,0H24V24H0Z" fill="none"/><rect x="3" y="14.54054" width="18" height="2.91892" rx="1" stroke-width="1.5" stroke="#323232" stroke-linecap="round" stroke-linejoin="round" fill="none"/><line x1="4" y1="17.5" x2="4" y2="21" fill="none" stroke="#323232" stroke-linecap="round" stroke-linejoin="round" stroke-width="1.5"/><path d="M10.876,11H3.124A1.124,1.124,0,0,1,2,9.876V4.124A1.124,1.124,0,0,1,3.124,3h7.752A1.124,1.124,0,0,1,12,4.124h0V9.876A1.124,1.124,0,0,1,10.876,11Z" fill="none" stroke="#323232" stroke-linecap="round" stroke-linejoin="round" stroke-width="1.5"/><line x1="9.09009" y1="14.54054" x2="8.5" y2="11" fill="none" stroke="#323232" stroke-linecap="round" stroke-linejoin="round" stroke-width="1.5"/><line x1="4.90991" y1="14.54054" x2="5.5" y2="11" fill="none" stroke="#323232" stroke-linecap="round" stroke-linejoin="round" stroke-width="1.5"/><line x1="20" y1="21" x2="20" y2="17.5" fill="none" stroke="#323232" stroke-linecap="round" stroke-linejoin="round" stroke-width="1.5"/><path d="M15.5,9.906h2.906A2.1,2.1,0,0,1,20.5,12" fill="none" stroke="#323232" stroke-linecap="round" stroke-linejoin="round" stroke-width="1.5"/><path d="M16.996,7.406a2,2,0,1,1,.008,0Z" fill="none" stroke="#323232" stroke-linecap="round" stroke-linejoin="round" stroke-width="1.5"/></svg>