<svg id="Layer_3" data-name="Layer 3" xmlns="http://www.w3.org/2000/svg" viewBox="0 0 24 24"><title>compass-location map-off-circle</title><path d="M0,0H24V24H0Z" fill="none"/><path d="M0,0H24V24H0Z" fill="none"/><line x1="5.636" y1="5.636" x2="18.364" y2="18.364" fill="none" stroke="#323232" stroke-linecap="round" stroke-linejoin="round" stroke-width="1.5"/><path d="M9.224,9.224a1.033,1.033,0,0,0-.283.528L7.767,15.624a.516.516,0,0,0,.609.608l5.872-1.174a1.039,1.039,0,0,0,.528-.282" fill="none" stroke="#323232" stroke-linecap="round" stroke-linejoin="round" stroke-width="1.5"/><line x1="9.224" y1="9.224" x2="14.776" y2="14.776" fill="none" stroke="#323232" stroke-linecap="round" stroke-linejoin="round" stroke-width="1.5"/><path d="M15.489,12.1l.743-3.72a.515.515,0,0,0-.607-.607l-3.72.743" fill="none" stroke="#323232" stroke-linecap="round" stroke-linejoin="round" stroke-width="1.5"/><path d="M18.364,5.636a9,9,0,1,1-12.728,0,9,9,0,0,1,12.728,0" fill="none" stroke="#323232" stroke-linecap="round" stroke-linejoin="round" stroke-width="1.5"/></svg>