<svg id="Layer_3" data-name="Layer 3" xmlns="http://www.w3.org/2000/svg" viewBox="0 0 24 24"><title>compass-map-add-plus</title><path d="M0,0H24V24H0Z" fill="none"/><path d="M19,9a4,4,0,1,1,4-4,4,4,0,0,1-4,4" fill="none" stroke="#323232" stroke-linecap="round" stroke-linejoin="round" stroke-width="1.5"/><path d="M19.24,8.99A8.411,8.411,0,0,1,20,12.5,8.5,8.5,0,1,1,11.5,4a8.411,8.411,0,0,1,3.51.76" fill="none" stroke="#323232" stroke-linecap="round" stroke-linejoin="round" stroke-width="1.5"/><path d="M12.661,14.78l-2.795.686a1.123,1.123,0,0,1-1.357-1.357L9.2,11.314a1.493,1.493,0,0,1,1.1-1.1l2.8-.686a1.123,1.123,0,0,1,1.357,1.357l-.686,2.8A1.5,1.5,0,0,1,12.661,14.78Z" fill="none" stroke="#323232" stroke-linecap="round" stroke-linejoin="round" stroke-width="1.5"/><path d="M19,3.822V6.178" fill="none" stroke="#323232" stroke-linecap="round" stroke-linejoin="round" stroke-width="1.5"/><path d="M17.822,5h2.356" fill="none" stroke="#323232" stroke-linecap="round" stroke-linejoin="round" stroke-width="1.5"/></svg>