<?xml version="1.0" encoding="utf-8"?>
<!-- Generator: Adobe Illustrator 24.0.2, SVG Export Plug-In . SVG Version: 6.00 Build 0)  -->
<svg version="1.1" id="Layer_1" xmlns="http://www.w3.org/2000/svg" xmlns:xlink="http://www.w3.org/1999/xlink" x="0px" y="0px"
	 width="24px" height="24px" viewBox="0 0 24 24" style="enable-background:new 0 0 24 24;" xml:space="preserve">
<style type="text/css">
	.st0{fill:none;}
	.st1{fill:none;stroke:#323232;stroke-width:1.5;stroke-linecap:round;stroke-linejoin:round;}
</style>
<g>
	<path class="st0" d="M0,0h24v24H0V0z"/>
	<g>
		<path class="st1" d="M18.4,5.6c3.5,3.5,3.5,9.2,0,12.7s-9.2,3.5-12.7,0s-3.5-9.2,0-12.7S14.8,2.1,18.4,5.6"/>
		<path class="st1" d="M16,12l-2.4,1.1c-0.2,0.1-0.4,0.3-0.5,0.5L12,16l-1.1-2.4c-0.1-0.2-0.3-0.4-0.5-0.5L8,12l2.4-1.1
			c0.2-0.1,0.4-0.3,0.5-0.5L12,8l1.1,2.4c0.1,0.2,0.3,0.4,0.5,0.5L16,12z"/>
		<path class="st1" d="M12,3v1.5"/>
		<path class="st1" d="M12,21v-1.5"/>
		<path class="st1" d="M18.4,5.6l-1.1,1.1"/>
		<path class="st1" d="M5.6,18.4l1.1-1.1"/>
		<path class="st1" d="M21,12h-1.5"/>
		<path class="st1" d="M3,12h1.5"/>
		<path class="st1" d="M18.4,18.4l-1.1-1.1"/>
		<path class="st1" d="M5.6,5.6l1.1,1.1"/>
	</g>
</g>
</svg>
