<?xml version="1.0" encoding="UTF-8"?><svg version="1.1" viewBox="0 0 24 24" xmlns="http://www.w3.org/2000/svg" xmlns:xlink="http://www.w3.org/1999/xlink"><!--Generated by IJSVG (https://github.com/iconjar/IJSVG)--><g stroke-linecap="round" stroke-width="1.5" stroke="#323232" fill="none" stroke-linejoin="round"><path d="M7.904,15.507l1.136,-5.682c0.08,-0.396 0.389,-0.705 0.785,-0.784l5.682,-1.136c0.35,-0.07 0.658,0.238 0.588,0.588l-1.136,5.682c-0.079,0.396 -0.389,0.705 -0.784,0.784l-5.682,1.136c-0.35,0.071 -0.659,-0.238 -0.589,-0.588Z"></path><path d="M17,21h-10c-2.209,0 -4,-1.791 -4,-4v-10c0,-2.209 1.791,-4 4,-4h10c2.209,0 4,1.791 4,4v10c0,2.209 -1.791,4 -4,4Z"></path></g><path fill="none" d="M0,0h24v24h-24v-24Z"></path></svg>