<?xml version="1.0" encoding="UTF-8"?><svg xmlns="http://www.w3.org/2000/svg" xmlns:xlink="http://www.w3.org/1999/xlink" version="1.1" viewBox="0 0 24 24" id="Layer"><!--Generated by IJSVG (https://github.com/iconjar/IJSVG)--><g stroke-linecap="round" stroke-width="1.5" stroke="#323232" fill="none" stroke-linejoin="round"><path d="M21,11v8c0,1.105 -0.895,2 -2,2h-14c-1.105,0 -2,-0.895 -2,-2v-14c0,-1.105 0.895,-2 2,-2h7"/><path d="M9,15l3.15,-0.389c0.221,-0.027 0.427,-0.128 0.585,-0.285l7.631,-7.631c0.845,-0.845 0.845,-2.215 0,-3.061v0c-0.845,-0.845 -2.215,-0.845 -3.061,0l-7.56,7.56c-0.153,0.153 -0.252,0.351 -0.283,0.566l-0.462,3.24Z"/></g><path fill="none" d="M0,0h24v24h-24v-24Z"/></svg>