<svg id="Layer_3" data-name="Layer 3" xmlns="http://www.w3.org/2000/svg" viewBox="0 0 24 24"><title>contract-document-pen</title><path d="M14.722,20.676a1,1,0,0,1-.707.293H12V18.954a1,1,0,0,1,.293-.707l6.769-6.774a1.721,1.721,0,0,1,2.434,0h0a1.72,1.72,0,0,1,0,2.434Z" fill="none" stroke="#323232" stroke-linecap="round" stroke-linejoin="round" stroke-width="1.5"/><path d="M16.564,13.978l2.43,2.43" fill="none" stroke="#323232" stroke-linecap="round" stroke-linejoin="round" stroke-width="1.5"/><path d="M20.718,14.684l.9.9h0a1.216,1.216,0,0,1,0,1.718l-1.641,1.641" fill="none" stroke="#323232" stroke-linecap="round" stroke-linejoin="round" stroke-width="1.5"/><line x1="7" y1="8.969" x2="13" y2="8.969" fill="none" stroke="#323232" stroke-linecap="round" stroke-linejoin="round" stroke-width="1.5"/><line x1="7" y1="12.969" x2="11" y2="12.969" fill="none" stroke="#323232" stroke-linecap="round" stroke-linejoin="round" stroke-width="1.5"/><path d="M9,20.969H6a3,3,0,0,1-3-3v-12a3,3,0,0,1,3-3H18a3,3,0,0,1,3,3v2" fill="none" stroke="#323232" stroke-linecap="round" stroke-linejoin="round" stroke-width="1.5"/><path d="M0,23.969v-24H24v24Z" fill="none"/></svg>