<svg id="Layer_3" data-name="Layer 3" xmlns="http://www.w3.org/2000/svg" viewBox="0 0 24 24"><path d="M9.33354,13.283a.04953.04953,0,0,0-.04954.04953V13.333a.05.05,0,1,0,.05-.05H9.33354" fill="none" stroke="#323232" stroke-linecap="round" stroke-linejoin="round" stroke-width="1.5"/><path d="M10,9.949a.04953.04953,0,0,0-.05.049v.00142A.05.05,0,1,0,10,9.949" fill="none" stroke="#323232" stroke-linecap="round" stroke-linejoin="round" stroke-width="1.5"/><path d="M12.66648,14.617a.04959.04959,0,0,0-.04959.04958V14.667a.05.05,0,1,0,.05-.05005" fill="none" stroke="#323232" stroke-linecap="round" stroke-linejoin="round" stroke-width="1.5"/><path d="M12.00053,11.949a.04953.04953,0,0,0-.04954.04952v.00094a.05.05,0,1,0,.04953-.05046" fill="none" stroke="#323232" stroke-linecap="round" stroke-linejoin="round" stroke-width="1.5"/><path d="M12,6a6,6,0,0,0,6,6,6,6,0,1,1-6-6Z" fill="none" stroke="#323232" stroke-linecap="round" stroke-linejoin="round" stroke-width="1.5"/><circle cx="12" cy="12" r="9" fill="none" stroke="#323232" stroke-linecap="round" stroke-linejoin="round" stroke-width="1.5"/><path d="M0,0H24V24H0Z" fill="none"/></svg>