<svg id="Layer_3" data-name="Layer 3" xmlns="http://www.w3.org/2000/svg" viewBox="0 0 24 24"><title>cookies</title><path d="M7.999,13.838a.15963.15963,0,0,0-.16.162.16261.16261,0,0,0,.162.162.162.162,0,0,0-.002-.324" fill="none" stroke="#323232" stroke-linecap="round" stroke-linejoin="round" stroke-width="1.5"/><path d="M8.999,8.838A.15963.15963,0,0,0,8.839,9a.16261.16261,0,0,0,.162.162.162.162,0,0,0-.002-.324" fill="none" stroke="#323232" stroke-linecap="round" stroke-linejoin="round" stroke-width="1.5"/><path d="M12.999,15.838a.15963.15963,0,0,0-.16.162.16261.16261,0,0,0,.162.162.162.162,0,0,0-.002-.324" fill="none" stroke="#323232" stroke-linecap="round" stroke-linejoin="round" stroke-width="1.5"/><path d="M11.999,11.838a.15963.15963,0,0,0-.16.162.16261.16261,0,0,0,.162.162.162.162,0,0,0-.002-.324" fill="none" stroke="#323232" stroke-linecap="round" stroke-linejoin="round" stroke-width="1.5"/><path d="M12,3a9,9,0,0,0,9,9,9,9,0,1,1-9-9Z" fill="none" stroke="#323232" stroke-linecap="round" stroke-linejoin="round" stroke-width="1.5"/><path d="M0,0H24V24H0Z" fill="none"/></svg>