<svg id="Layer_3" data-name="Layer 3" xmlns="http://www.w3.org/2000/svg" viewBox="0 0 24 24"><path d="M9.33354,13.283a.04954.04954,0,0,0-.04954.04954h0V13.333a.05.05,0,1,0,.05-.05H9.33354" fill="none" stroke="#323232" stroke-linecap="round" stroke-linejoin="round" stroke-width="1.5"/><path d="M10,9.949a.04953.04953,0,0,0-.05.04906h0v.00141A.05.05,0,1,0,10,9.949" fill="none" stroke="#323232" stroke-linecap="round" stroke-linejoin="round" stroke-width="1.5"/><path d="M12.66648,14.6169a.04958.04958,0,0,0-.04958.04958h0V14.667a.05.05,0,1,0,.05005-.05005" fill="none" stroke="#323232" stroke-linecap="round" stroke-linejoin="round" stroke-width="1.5"/><path d="M12.00053,11.949a.04952.04952,0,0,0-.04953.04953v.00093a.05.05,0,1,0,.04953-.05046" fill="none" stroke="#323232" stroke-linecap="round" stroke-linejoin="round" stroke-width="1.5"/><path d="M12,6a6,6,0,0,0,6,6,6,6,0,1,1-6-6Z" fill="none" stroke="#323232" stroke-linecap="round" stroke-linejoin="round" stroke-width="1.5"/><path d="M20.582,9.353A8.839,8.839,0,0,1,21,12a9,9,0,1,1-9-9,8.839,8.839,0,0,1,2.647.418" fill="none" stroke="#323232" stroke-linecap="round" stroke-linejoin="round" stroke-width="1.5"/><polyline points="21 4.275 19.013 6.262 17.737 4.988" fill="none" stroke="#323232" stroke-linecap="round" stroke-linejoin="round" stroke-width="1.5"/><path d="M0,0H24V24H0Z" fill="none"/></svg>