<svg id="Layer_3" data-name="Layer 3" xmlns="http://www.w3.org/2000/svg" viewBox="0 0 24 24"><title>cookie</title><path d="M0,0H24V24H0Z" fill="none"/><path d="M13.48147,3.44049H10.51853a4.00006,4.00006,0,0,0-2.35115.76393L5.77031,5.946a4.00007,4.00007,0,0,0-1.45309,2l-.9156,2.81793a4,4,0,0,0,0,2.47214l.9156,2.81793a4.00007,4.00007,0,0,0,1.45309,2l2.39707,1.74158a4.00006,4.00006,0,0,0,2.35115.76393h2.96294a4.00006,4.00006,0,0,0,2.35115-.76393L18.22969,18.054a4.00007,4.00007,0,0,0,1.45309-2l.9156-2.81793a4,4,0,0,0,0-2.47214L19.68278,7.946a4.00007,4.00007,0,0,0-1.45309-2L15.83262,4.20442A4.00006,4.00006,0,0,0,13.48147,3.44049Z" fill="none" stroke="#323232" stroke-linecap="round" stroke-linejoin="round" stroke-width="1.5"/><path d="M9.125,9A.125.125,0,1,1,9,8.875" fill="none" stroke="#323232" stroke-linecap="round" stroke-linejoin="round" stroke-width="1.5"/><path d="M9,8.875A.125.125,0,0,1,9.125,9" fill="none" stroke="#323232" stroke-linecap="round" stroke-linejoin="round" stroke-width="1.5"/><path d="M14.125,8A.125.125,0,1,1,14,7.875" fill="none" stroke="#323232" stroke-linecap="round" stroke-linejoin="round" stroke-width="1.5"/><path d="M14,7.875A.125.125,0,0,1,14.125,8" fill="none" stroke="#323232" stroke-linecap="round" stroke-linejoin="round" stroke-width="1.5"/><path d="M16.125,12A.125.125,0,1,1,16,11.875" fill="none" stroke="#323232" stroke-linecap="round" stroke-linejoin="round" stroke-width="1.5"/><path d="M16,11.875a.125.125,0,0,1,.125.125" fill="none" stroke="#323232" stroke-linecap="round" stroke-linejoin="round" stroke-width="1.5"/><path d="M12.125,12A.125.125,0,1,1,12,11.875" fill="none" stroke="#323232" stroke-linecap="round" stroke-linejoin="round" stroke-width="1.5"/><path d="M12,11.875a.125.125,0,0,1,.125.125" fill="none" stroke="#323232" stroke-linecap="round" stroke-linejoin="round" stroke-width="1.5"/><path d="M8.125,14A.125.125,0,1,1,8,13.875" fill="none" stroke="#323232" stroke-linecap="round" stroke-linejoin="round" stroke-width="1.5"/><path d="M8,13.875A.125.125,0,0,1,8.125,14" fill="none" stroke="#323232" stroke-linecap="round" stroke-linejoin="round" stroke-width="1.5"/><path d="M13.125,16A.125.125,0,1,1,13,15.875" fill="none" stroke="#323232" stroke-linecap="round" stroke-linejoin="round" stroke-width="1.5"/><path d="M13,15.875a.125.125,0,0,1,.125.125" fill="none" stroke="#323232" stroke-linecap="round" stroke-linejoin="round" stroke-width="1.5"/></svg>