<?xml version="1.0" encoding="utf-8"?>
<!-- Generator: Adobe Illustrator 24.0.2, SVG Export Plug-In . SVG Version: 6.00 Build 0)  -->
<svg version="1.1" id="Layer_3" xmlns="http://www.w3.org/2000/svg" xmlns:xlink="http://www.w3.org/1999/xlink" x="0px" y="0px"
	 width="24px" height="24px" viewBox="0 0 24 24" enable-background="new 0 0 24 24" xml:space="preserve">
<g>
	<g>
		<path fill="none" stroke="#323232" stroke-width="1.5" stroke-linecap="round" stroke-linejoin="round" d="M8,14H4.385
			C3.62,14,3,13.38,3,12.615v-8.23C3,3.62,3.62,3,4.385,3h14.231C19.38,3,20,3.62,20,4.385V9"/>
		
			<line fill="none" stroke="#323232" stroke-width="1.5" stroke-linecap="round" stroke-linejoin="round" x1="7" y1="7" x2="10" y2="10"/>
		
			<line fill="none" stroke="#323232" stroke-width="1.5" stroke-linecap="round" stroke-linejoin="round" x1="7" y1="10" x2="7" y2="7"/>
		
			<line fill="none" stroke="#323232" stroke-width="1.5" stroke-linecap="round" stroke-linejoin="round" x1="10" y1="7" x2="7" y2="7"/>
		<path fill="none" stroke="#323232" stroke-width="1.5" stroke-linecap="round" stroke-linejoin="round" d="M19,21h-5
			c-1.105,0-2-0.895-2-2v-4c0-1.105,0.895-2,2-2h5c1.105,0,2,0.895,2,2v4C21,20.105,20.105,21,19,21z"/>
	</g>
	<rect id="_Transparent_Rectangle__42_" y="0" fill="none" width="24" height="24"/>
</g>
</svg>
