<svg id="Layer_3" data-name="Layer 3" xmlns="http://www.w3.org/2000/svg" viewBox="0 0 24 24"><title>copy-files-square</title><path d="M8.4,17.02h4.417a1,1,0,0,0,1-1V10.73a1,1,0,0,0-1-1H8.4a1,1,0,0,0-1,1v5.291A1,1,0,0,0,8.4,17.02Z" fill="none" stroke="#323232" stroke-linecap="round" stroke-linejoin="round" stroke-width="1.5"/><path d="M10.15,9.73V7.98a1,1,0,0,1,1-1H15.6a1,1,0,0,1,1,1v5.291a1,1,0,0,1-1,1H13.816" fill="none" stroke="#323232" stroke-linecap="round" stroke-linejoin="round" stroke-width="1.5"/><rect x="3" y="3" width="18" height="18" rx="5" stroke-width="1.5" stroke="#323232" stroke-linecap="round" stroke-linejoin="round" fill="none"/><path d="M0,0H24V24H0Z" fill="none"/></svg>