<?xml version="1.0" encoding="utf-8"?>
<!-- Generator: Adobe Illustrator 24.0.2, SVG Export Plug-In . SVG Version: 6.00 Build 0)  -->
<svg version="1.1" id="Layer_1" xmlns="http://www.w3.org/2000/svg" xmlns:xlink="http://www.w3.org/1999/xlink" x="0px" y="0px"
	 width="24px" height="24px" viewBox="0 0 24 24" style="enable-background:new 0 0 24 24;" xml:space="preserve">
<style type="text/css">
	.st0{fill:none;}
	.st1{fill:none;stroke:#323232;stroke-width:1.5;stroke-linecap:round;stroke-linejoin:round;}
</style>
<g>
	<path class="st0" d="M0,0h24v24H0V0z"/>
	<path class="st1" d="M21,5V4c0-0.6-0.4-1-1-1h-1"/>
	<path class="st1" d="M21,15v1c0,0.6-0.4,1-1,1h-1"/>
	<path class="st1" d="M7,5V4c0-0.6,0.4-1,1-1h1"/>
	<path class="st1" d="M13,3h2"/>
	<path class="st1" d="M21,11V9l0,0l0,0V11z"/>
	<path class="st1" d="M14,21H5c-1.1,0-2-0.9-2-2v-9c0-1.1,0.9-2,2-2h9c1.1,0,2,0.9,2,2v9C16,20.1,15.1,21,14,21z"/>
	<path class="st1" d="M9.5,12v5"/>
	<path class="st1" d="M12,14.5H7"/>
</g>
</svg>
