<?xml version="1.0" encoding="utf-8"?>
<!-- Generator: Adobe Illustrator 24.0.2, SVG Export Plug-In . SVG Version: 6.00 Build 0)  -->
<svg version="1.1" id="Layer_1" xmlns="http://www.w3.org/2000/svg" xmlns:xlink="http://www.w3.org/1999/xlink" x="0px" y="0px"
	 width="24px" height="24px" viewBox="0 0 24 24" enable-background="new 0 0 24 24" xml:space="preserve">
<g>
	<g>
		<path fill="none" stroke="#323232" stroke-width="1.5" stroke-linecap="round" stroke-linejoin="round" d="M16.263,13.421H8.789
			c-1.105,0-2-0.895-2-2V8.684"/>
		<path fill="none" stroke="#323232" stroke-width="1.5" stroke-linecap="round" stroke-linejoin="round" d="M11,18H5
			c-1.105,0-2-0.895-2-2V5c0-1.105,0.895-2,2-2h7c1.105,0,2,0.895,2,2v1"/>
		<path fill="none" stroke="#323232" stroke-width="1.5" stroke-linecap="round" stroke-linejoin="round" d="M11,11V8
			c0-1.105,0.895-2,2-2h6c1.105,0,2,0.895,2,2v11c0,1.105-0.895,2-2,2h-6c-1.105,0-2-0.895-2-2v-3"/>
		<polyline fill="none" stroke="#323232" stroke-width="1.5" stroke-linecap="round" stroke-linejoin="round" points="
			14.368,15.316 16.263,13.421 14.368,11.526 		"/>
	</g>
	<g>
		<path fill="none" d="M24,24H0L0,0l24,0V24z"/>
	</g>
</g>
</svg>
