<?xml version="1.0" encoding="utf-8"?>
<!-- Generator: Adobe Illustrator 24.0.2, SVG Export Plug-In . SVG Version: 6.00 Build 0)  -->
<svg version="1.1" id="Layer_21" xmlns="http://www.w3.org/2000/svg" xmlns:xlink="http://www.w3.org/1999/xlink" x="0px" y="0px"
	 width="24px" height="24px" viewBox="0 0 24 24" enable-background="new 0 0 24 24" xml:space="preserve">
<g>
	<g>
		<path fill="none" stroke="#323232" stroke-width="1.5" stroke-linecap="round" stroke-linejoin="round" d="M14.6,6.7L14.6,6.7
			C15,7.1,15.1,7.6,15,8l-1.1,5.8c-0.3,1.4-1.4,2.5-2.8,2.8l-5.8,1.1c-0.5,0.1-1-0.1-1.3-0.4l0,0c-0.6-0.6-0.6-1.5,0-2.1l8.5-8.5
			C13,6.1,14,6.1,14.6,6.7z"/>
		<path fill="none" stroke="#323232" stroke-width="1.5" stroke-linecap="round" stroke-linejoin="round" d="M9,4.1
			c-0.028,0-0.05-0.022-0.05-0.05S8.972,4,9,4s0.05,0.022,0.05,0.05S9.028,4.1,9,4.1"/>
		
			<line fill="none" stroke="#323232" stroke-width="1.5" stroke-linecap="round" stroke-linejoin="round" x1="3" y1="21" x2="21" y2="21"/>
		
			<line fill="none" stroke="#323232" stroke-width="1.5" stroke-linecap="round" stroke-linejoin="round" x1="3" y1="7" x2="3" y2="4"/>
		
			<line fill="none" stroke="#323232" stroke-width="1.5" stroke-linecap="round" stroke-linejoin="round" x1="6" y1="5" x2="6" y2="4"/>
		<path fill="none" stroke="#323232" stroke-width="1.5" stroke-linecap="round" stroke-linejoin="round" d="M14.6,6.7l5.2,5.2
			c0.8,0.8,0.8,2,0,2.8L13.5,21"/>
		
			<line fill="none" stroke="#323232" stroke-width="1.5" stroke-linecap="round" stroke-linejoin="round" x1="3.9" y1="17.4" x2="7.6" y2="21"/>
	</g>
	<path fill="none" d="M0,0h24v24H0V0z"/>
</g>
</svg>
