<?xml version="1.0" encoding="utf-8"?>
<!-- Generator: Adobe Illustrator 24.0.2, SVG Export Plug-In . SVG Version: 6.00 Build 0)  -->
<svg version="1.1" id="Layer_21" xmlns="http://www.w3.org/2000/svg" xmlns:xlink="http://www.w3.org/1999/xlink" x="0px" y="0px"
	 width="24px" height="24px" viewBox="0 0 24 24" enable-background="new 0 0 24 24" xml:space="preserve">
<g>
	<g>
		<path fill="none" stroke="#323232" stroke-width="1.5" stroke-linecap="round" stroke-linejoin="round" d="M12.286,22H3.143
			C2.511,22,2,21.489,2,20.857v-5.714C2,14.511,2.511,14,3.143,14h9.143c0.631,0,1.143,0.511,1.143,1.143v5.714
			C13.429,21.489,12.917,22,12.286,22z"/>
		<path fill="none" stroke="#323232" stroke-width="1.5" stroke-linecap="round" stroke-linejoin="round" d="M20.857,10h-9.143
			c-0.631,0-1.143-0.511-1.143-1.143V3.143C10.571,2.511,11.083,2,11.714,2h9.143C21.489,2,22,2.511,22,3.143v5.714
			C22,9.489,21.489,10,20.857,10z"/>
		<path fill="none" stroke="#323232" stroke-width="1.5" stroke-linecap="round" stroke-linejoin="round" d="M12.857,4.75v2.5"/>
		<path fill="none" stroke="#323232" stroke-width="1.5" stroke-linecap="round" stroke-linejoin="round" d="M19.714,4.75v2.5"/>
		<path fill="none" stroke="#323232" stroke-width="1.5" stroke-linecap="round" stroke-linejoin="round" d="M2.5,8.5L4,10l1.5-1.5"
			/>
		<path fill="none" stroke="#323232" stroke-width="1.5" stroke-linecap="round" stroke-linejoin="round" d="M4,10V8
			c0-1.657,1.343-3,3-3"/>
		<path fill="none" stroke="#323232" stroke-width="1.5" stroke-linecap="round" stroke-linejoin="round" d="M21.5,15.5L20,14
			l-1.5,1.5"/>
		<path fill="none" stroke="#323232" stroke-width="1.5" stroke-linecap="round" stroke-linejoin="round" d="M20,14v2
			c0,1.657-1.343,3-3,3"/>
		
			<circle fill="none" stroke="#323232" stroke-width="1.5" stroke-linecap="round" stroke-linejoin="round" cx="7.714" cy="18" r="1.25"/>
		
			<circle fill="none" stroke="#323232" stroke-width="1.5" stroke-linecap="round" stroke-linejoin="round" cx="16.286" cy="6" r="1.25"/>
		<path fill="none" stroke="#323232" stroke-width="1.5" stroke-linecap="round" stroke-linejoin="round" d="M11,16.45
			c0.028,0,0.05,0.022,0.05,0.05s-0.022,0.05-0.05,0.05s-0.05-0.022-0.05-0.05S10.972,16.45,11,16.45"/>
		<path fill="none" stroke="#323232" stroke-width="1.5" stroke-linecap="round" stroke-linejoin="round" d="M4.429,19.45
			c0.028,0,0.05,0.022,0.05,0.05s-0.022,0.05-0.05,0.05s-0.05-0.022-0.05-0.05S4.401,19.45,4.429,19.45"/>
	</g>
	<rect fill="none" width="24" height="24"/>
</g>
</svg>
