<?xml version="1.0" encoding="utf-8"?>
<!-- Generator: Adobe Illustrator 24.0.2, SVG Export Plug-In . SVG Version: 6.00 Build 0)  -->
<svg version="1.1" xmlns="http://www.w3.org/2000/svg" xmlns:xlink="http://www.w3.org/1999/xlink" x="0px" y="0px" width="24px"
	 height="24px" viewBox="0 0 24 24" enable-background="new 0 0 24 24" xml:space="preserve">
<g id="Layer_1">
</g>
<g id="Layer_5">
</g>
<g id="Layer_6">
</g>
<g id="Layer_15">
</g>
<g id="Layer_7">
</g>
<g id="Layer_8">
</g>
<g id="Layer_9">
</g>
<g id="Layer_10">
</g>
<g id="Layer_11">
</g>
<g id="Layer_12" display="none">
</g>
<g id="Layer_13">
</g>
<g id="Layer_14">
</g>
<g id="Layer_16">
</g>
<g id="Layer_17">
</g>
<g id="Layer_18">
</g>
<g id="Layer_19">
</g>
<g id="Layer_20">
</g>
<g id="Layer_21">
	<g>
		<g>
			<path fill="none" stroke="#323232" stroke-width="1.5" stroke-linecap="round" stroke-linejoin="round" d="M21.63,12.555
				l-4.807,7.21c-0.394,0.59-1.26,0.594-1.659,0.008l-4.905-7.21c-0.231-0.339-0.231-0.785,0-1.125l4.905-7.21
				c0.399-0.587,1.265-0.583,1.659,0.008l4.807,7.21C21.854,11.781,21.854,12.219,21.63,12.555z"/>
			<path fill="none" stroke="#323232" stroke-width="1.5" stroke-linecap="round" stroke-linejoin="round" d="M11.46,3.794L5.878,12
				l5.584,8.21"/>
			<path fill="none" stroke="#323232" stroke-width="1.5" stroke-linecap="round" stroke-linejoin="round" d="M2,11.955
				c-0.028,0-0.05,0.022-0.05,0.05s0.022,0.05,0.05,0.05s0.05-0.022,0.05-0.05C2.051,11.977,2.028,11.955,2,11.955"/>
			<path fill="none" stroke="#323232" stroke-width="1.5" stroke-linecap="round" stroke-linejoin="round" d="M3.823,9.211
				c-0.028,0-0.05,0.022-0.05,0.05s0.022,0.05,0.05,0.05s0.05-0.022,0.05-0.05C3.874,9.233,3.851,9.211,3.823,9.211"/>
			<path fill="none" stroke="#323232" stroke-width="1.5" stroke-linecap="round" stroke-linejoin="round" d="M5.65,6.481
				c-0.028,0-0.05,0.022-0.05,0.05s0.022,0.05,0.05,0.05S5.7,6.559,5.7,6.531C5.701,6.503,5.678,6.481,5.65,6.481"/>
			<path fill="none" stroke="#323232" stroke-width="1.5" stroke-linecap="round" stroke-linejoin="round" d="M7.47,3.745
				c-0.028,0-0.05,0.022-0.05,0.05s0.022,0.05,0.05,0.05s0.05-0.022,0.05-0.05C7.521,3.767,7.498,3.745,7.47,3.745"/>
			<path fill="none" stroke="#323232" stroke-width="1.5" stroke-linecap="round" stroke-linejoin="round" d="M5.608,17.421
				c-0.028,0-0.05,0.022-0.05,0.05s0.022,0.05,0.05,0.05s0.05-0.022,0.05-0.05C5.659,17.443,5.636,17.421,5.608,17.421"/>
			<path fill="none" stroke="#323232" stroke-width="1.5" stroke-linecap="round" stroke-linejoin="round" d="M3.82,14.691
				c-0.028,0-0.05,0.022-0.05,0.05s0.022,0.05,0.05,0.05s0.05-0.022,0.05-0.05C3.871,14.713,3.848,14.691,3.82,14.691"/>
			<path fill="none" stroke="#323232" stroke-width="1.5" stroke-linecap="round" stroke-linejoin="round" d="M7.47,20.165
				c-0.028,0-0.05,0.022-0.05,0.05s0.022,0.05,0.05,0.05s0.05-0.022,0.05-0.05C7.521,20.187,7.498,20.165,7.47,20.165"/>
		</g>
		<path fill="none" d="M0,0h24v24H0V0z"/>
	</g>
</g>
</svg>
