<?xml version="1.0" encoding="utf-8"?>
<!-- Generator: Adobe Illustrator 24.0.2, SVG Export Plug-In . SVG Version: 6.00 Build 0)  -->
<svg version="1.1" id="Layer_21" xmlns="http://www.w3.org/2000/svg" xmlns:xlink="http://www.w3.org/1999/xlink" x="0px" y="0px"
	 width="24px" height="24px" viewBox="0 0 24 24" enable-background="new 0 0 24 24" xml:space="preserve">
<g>
	<path fill="none" stroke="#323232" stroke-width="1.5" stroke-linecap="round" stroke-linejoin="round" d="M7,21H5
		c-1.105,0-2-0.895-2-2v-2"/>
	<path fill="none" stroke="#323232" stroke-width="1.5" stroke-linecap="round" stroke-linejoin="round" d="M3,7V5
		c0-1.105,0.895-2,2-2h2"/>
	<path fill="none" stroke="#323232" stroke-width="1.5" stroke-linecap="round" stroke-linejoin="round" d="M17,3h2
		c1.105,0,2,0.895,2,2v2"/>
	<path fill="none" stroke="#323232" stroke-width="1.5" stroke-linecap="round" stroke-linejoin="round" d="M21,17v2
		c0,1.105-0.895,2-2,2h-2"/>
	<path fill="none" stroke="#323232" stroke-width="1.5" stroke-linecap="round" stroke-linejoin="round" d="M12,10v4"/>
	<path fill="none" stroke="#323232" stroke-width="1.5" stroke-linecap="round" stroke-linejoin="round" d="M14,12h-4"/>
</g>
<path fill="none" d="M0,0h24v24H0V0z"/>
<path fill="none" stroke="#323232" stroke-width="1.5" stroke-linecap="round" stroke-linejoin="round" d="M12,5.45
	c0.028,0,0.05,0.022,0.05,0.05S12.028,5.55,12,5.55s-0.05-0.022-0.05-0.05S11.972,5.45,12,5.45"/>
<path fill="none" stroke="#323232" stroke-width="1.5" stroke-linecap="round" stroke-linejoin="round" d="M12,18.45
	c0.028,0,0.05,0.022,0.05,0.05s-0.022,0.05-0.05,0.05s-0.05-0.022-0.05-0.05S11.972,18.45,12,18.45"/>
<path fill="none" stroke="#323232" stroke-width="1.5" stroke-linecap="round" stroke-linejoin="round" d="M8.725,6.328
	c0.024-0.014,0.054-0.006,0.068,0.018S8.799,6.4,8.775,6.414C8.751,6.428,8.721,6.42,8.707,6.396S8.701,6.342,8.725,6.328"/>
<path fill="none" stroke="#323232" stroke-width="1.5" stroke-linecap="round" stroke-linejoin="round" d="M15.225,17.586
	c0.024-0.014,0.054-0.006,0.068,0.018c0.014,0.024,0.006,0.054-0.018,0.068c-0.024,0.014-0.054,0.006-0.068-0.018
	S15.201,17.6,15.225,17.586"/>
<path fill="none" stroke="#323232" stroke-width="1.5" stroke-linecap="round" stroke-linejoin="round" d="M6.328,8.725
	c0.014-0.024,0.044-0.032,0.068-0.018s0.032,0.044,0.018,0.068C6.4,8.799,6.37,8.807,6.346,8.793S6.314,8.749,6.328,8.725"/>
<path fill="none" stroke="#323232" stroke-width="1.5" stroke-linecap="round" stroke-linejoin="round" d="M17.586,15.225
	c0.014-0.024,0.044-0.032,0.068-0.018s0.032,0.044,0.018,0.068c-0.014,0.024-0.044,0.032-0.068,0.018
	C17.58,15.279,17.572,15.249,17.586,15.225"/>
<path fill="none" stroke="#323232" stroke-width="1.5" stroke-linecap="round" stroke-linejoin="round" d="M5.45,12
	c0-0.028,0.022-0.05,0.05-0.05S5.55,11.972,5.55,12s-0.022,0.05-0.05,0.05S5.45,12.028,5.45,12"/>
<path fill="none" stroke="#323232" stroke-width="1.5" stroke-linecap="round" stroke-linejoin="round" d="M18.45,12
	c0-0.028,0.022-0.05,0.05-0.05s0.05,0.022,0.05,0.05c0,0.028-0.022,0.05-0.05,0.05S18.45,12.028,18.45,12"/>
<path fill="none" stroke="#323232" stroke-width="1.5" stroke-linecap="round" stroke-linejoin="round" d="M6.328,15.275
	c-0.014-0.024-0.006-0.054,0.018-0.068s0.054-0.006,0.068,0.018c0.014,0.024,0.006,0.054-0.018,0.068S6.342,15.299,6.328,15.275"/>
<path fill="none" stroke="#323232" stroke-width="1.5" stroke-linecap="round" stroke-linejoin="round" d="M17.586,8.775
	c-0.014-0.024-0.006-0.054,0.018-0.068c0.024-0.014,0.054-0.006,0.068,0.018c0.014,0.024,0.006,0.054-0.018,0.068
	S17.6,8.799,17.586,8.775"/>
<path fill="none" stroke="#323232" stroke-width="1.5" stroke-linecap="round" stroke-linejoin="round" d="M8.725,17.672
	c-0.024-0.014-0.032-0.044-0.018-0.068c0.014-0.024,0.044-0.032,0.068-0.018c0.024,0.014,0.032,0.044,0.018,0.068
	S8.749,17.686,8.725,17.672"/>
<path fill="none" stroke="#323232" stroke-width="1.5" stroke-linecap="round" stroke-linejoin="round" d="M15.225,6.414
	C15.201,6.4,15.193,6.37,15.207,6.346s0.044-0.032,0.068-0.018c0.024,0.014,0.032,0.044,0.018,0.068S15.249,6.428,15.225,6.414"/>
<path fill="none" stroke="#323232" stroke-width="1.5" stroke-linecap="round" stroke-linejoin="round" d="M12,18.55
	c-0.028,0-0.05-0.022-0.05-0.05s0.022-0.05,0.05-0.05c0.028,0,0.05,0.022,0.05,0.05S12.028,18.55,12,18.55"/>
<path fill="none" stroke="#323232" stroke-width="1.5" stroke-linecap="round" stroke-linejoin="round" d="M12,5.55
	c-0.028,0-0.05-0.022-0.05-0.05S11.972,5.45,12,5.45s0.05,0.022,0.05,0.05S12.028,5.55,12,5.55"/>
</svg>
