<svg id="Layer_3" data-name="Layer 3" xmlns="http://www.w3.org/2000/svg" viewBox="0 0 24 24"><title>cow-circle</title><rect width="24" height="24" fill="none"/><path d="M9.99983,9.30921l4-.0007a1,1,0,0,1,1.00017,1v1.00767a4.736,4.736,0,0,1-.5,2.118h0a4.73612,4.73612,0,0,0-.5,2.118v.382a1.5,1.5,0,0,1-1.5,1.5h-1a1.5,1.5,0,0,1-1.5-1.5v-.382a4.736,4.736,0,0,0-.5-2.118h0a4.73609,4.73609,0,0,1-.5-2.118v-1.007A1,1,0,0,1,9.99983,9.30921Z" fill="none" stroke="#323232" stroke-linecap="round" stroke-linejoin="round" stroke-width="1.5"/><path d="M15,9.30938h1.5a1.5,1.5,0,0,1,1.5,1.5v.75a.75.75,0,0,1-.75.75H16.5a1.5,1.5,0,0,1-1.5-1.5v-1.5A0,0,0,0,1,15,9.30938Z" fill="none" stroke="#323232" stroke-linecap="round" stroke-linejoin="round" stroke-width="1.5"/><path d="M6,9.30938H7.5a1.5,1.5,0,0,1,1.5,1.5v.75a.75.75,0,0,1-.75.75H7.5a1.5,1.5,0,0,1-1.5-1.5v-1.5A0,0,0,0,1,6,9.30938Z" transform="translate(18.30938 3.30938) rotate(90)" fill="none" stroke="#323232" stroke-linecap="round" stroke-linejoin="round" stroke-width="1.5"/><line x1="15" y1="9.30938" x2="9" y2="9.30938" fill="none" stroke="#323232" stroke-linecap="round" stroke-linejoin="round" stroke-width="1.5"/><path d="M8.85105,7.19482h0a3.479,3.479,0,0,0,3.14895,2h0a3.479,3.479,0,0,0,3.11169-1.92313l.03843-.07687" fill="none" stroke="#323232" stroke-linecap="round" stroke-linejoin="round" stroke-width="1.5"/><circle cx="12" cy="12" r="9" fill="none" stroke="#323232" stroke-linecap="round" stroke-linejoin="round" stroke-width="1.5"/></svg>