<svg id="Layer_3" data-name="Layer 3" xmlns="http://www.w3.org/2000/svg" viewBox="0 0 24 24"><path d="M17.7,11.194l-1.322,5.291A2,2,0,0,1,14.438,18H9.562a2,2,0,0,1-1.941-1.515L6.3,11.194A9.96,9.96,0,0,1,6,8.769V5A2,2,0,0,1,8,3h8a2,2,0,0,1,2,2V8.769A9.96,9.96,0,0,1,17.7,11.194Z" fill="none" stroke="#323232" stroke-linecap="round" stroke-linejoin="round" stroke-width="1.5"/><path d="M9.5,18h5a1,1,0,0,1,1,1v.5A1.5,1.5,0,0,1,14,21H10a1.5,1.5,0,0,1-1.5-1.5V19A1,1,0,0,1,9.5,18Z" fill="none" stroke="#323232" stroke-linecap="round" stroke-linejoin="round" stroke-width="1.5"/><path d="M12.39993,8.19775l1.198,1.603a1.99878,1.99878,0,0,1-1.598,3.19642h0a1.9991,1.9991,0,0,1-1.59846-3.19642L11.6,8.19775A.499.499,0,0,1,12.39993,8.19775Z" fill="none" stroke="#323232" stroke-linecap="round" stroke-linejoin="round" stroke-width="1.5"/><path d="M0,0H24V24H0Z" fill="none"/></svg>