<svg id="Layer_3" data-name="Layer 3" xmlns="http://www.w3.org/2000/svg" viewBox="0 0 24 24"><circle cx="12" cy="12" r="9" fill="none" stroke="#323232" stroke-linecap="round" stroke-linejoin="round" stroke-width="1.5"/><rect width="24" height="24" fill="none"/><path d="M14.64593,16.5H9.35407a2,2,0,0,1-1.857-1.25722l-.4-1A2,2,0,0,1,8.95407,11.5h6.09186a2,2,0,0,1,1.857,2.74278l-.4,1A2,2,0,0,1,14.64593,16.5Z" fill="none" stroke="#323232" stroke-linecap="round" stroke-linejoin="round" stroke-width="1.5"/><path d="M10.5,11.5h-.43748A1.56253,1.56253,0,0,1,8.5,9.93748h0A1.56253,1.56253,0,0,1,10.06252,8.375H10.5C11.88071,8.375,13,7.53548,13,6.5a2.5,2.5,0,0,1,0,5" fill="none" stroke="#323232" stroke-linecap="round" stroke-linejoin="round" stroke-width="1.5"/></svg>