<svg id="Layer_3" data-name="Layer 3" xmlns="http://www.w3.org/2000/svg" viewBox="0 0 24 24"><title>cream-vitamins-checkmark</title><path d="M0,0H24V24H0Z" fill="none"/><path d="M14.889,8H7.111A2.111,2.111,0,0,1,5,5.889V5.111A2.111,2.111,0,0,1,7.111,3h7.778A2.111,2.111,0,0,1,17,5.111v.778A2.111,2.111,0,0,1,14.889,8Z" fill="none" stroke="#323232" stroke-linecap="round" stroke-linejoin="round" stroke-width="1.5"/><path d="M13.535,20H7.167A3.167,3.167,0,0,1,4,16.833V11.166A3.167,3.167,0,0,1,7.167,8h7.667A3.167,3.167,0,0,1,18,11.167v2.959" fill="none" stroke="#323232" stroke-linecap="round" stroke-linejoin="round" stroke-width="1.5"/><path d="M17,22a4,4,0,1,1,4-4,4,4,0,0,1-4,4" fill="none" stroke="#323232" stroke-linecap="round" stroke-linejoin="round" stroke-width="1.5"/><path d="M18.422,17.289l-1.778,1.778L15.578,18" fill="none" stroke="#323232" stroke-linecap="round" stroke-linejoin="round" stroke-width="1.5"/><line x1="11" y1="5.296" x2="11" y2="5.806" fill="none" stroke="#323232" stroke-linecap="round" stroke-linejoin="round" stroke-width="1.5"/><line x1="8.25" y1="5.296" x2="8.25" y2="5.806" fill="none" stroke="#323232" stroke-linecap="round" stroke-linejoin="round" stroke-width="1.5"/><line x1="13.75" y1="5.296" x2="13.75" y2="5.806" fill="none" stroke="#323232" stroke-linecap="round" stroke-linejoin="round" stroke-width="1.5"/></svg>