<svg id="Layer_3" data-name="Layer 3" xmlns="http://www.w3.org/2000/svg" viewBox="0 0 24 24"><title>cream</title><path d="M10.943,18.925,5.075,13.057,10.356,4.9a4.15,4.15,0,0,1,6.418-.68l3.01,3.01a4.15,4.15,0,0,1-.68,6.418Z" fill="none" stroke="#323232" stroke-linecap="round" stroke-linejoin="round" stroke-width="1.5"/><path d="M2.392,15.383h8.3a0,0,0,0,1,0,0v2.075a2.075,2.075,0,0,1-2.075,2.075H4.467a2.075,2.075,0,0,1-2.075-2.075V15.383a0,0,0,0,1,0,0Z" transform="translate(14.261 0.487) rotate(45)" fill="none" stroke="#323232" stroke-linecap="round" stroke-linejoin="round" stroke-width="1.5"/><path d="M0,0H24V24H0Z" fill="none"/></svg>