<?xml version="1.0" encoding="utf-8"?>
<!-- Generator: Adobe Illustrator 24.0.2, SVG Export Plug-In . SVG Version: 6.00 Build 0)  -->
<svg version="1.1" id="Layer_1" xmlns="http://www.w3.org/2000/svg" xmlns:xlink="http://www.w3.org/1999/xlink" x="0px" y="0px"
	 width="24px" height="24px" viewBox="0 0 24 24" enable-background="new 0 0 24 24" xml:space="preserve">
<g>
	<path fill="none" d="M24,24H0V0h24V24z"/>
	<g>
		<path fill="none" stroke="#323232" stroke-width="1.5" stroke-linecap="round" stroke-linejoin="round" d="M7.67,8H5
			c-1.105,0-2,0.895-2,2v9c0,1.105,0.895,2,2,2h14c1.105,0,2-0.895,2-2v-9c0-1.105-0.895-2-2-2h-2.67"/>
		
			<line fill="none" stroke="#323232" stroke-width="1.5" stroke-linecap="round" stroke-linejoin="round" x1="7" y1="17" x2="11" y2="17"/>
		<path fill="none" stroke="#323232" stroke-width="1.5" stroke-linecap="round" stroke-linejoin="round" d="M16.375,7.375
			c0,2.422-1.953,4.375-4.375,4.375S7.625,9.797,7.625,7.375S9.578,3,12,3S16.375,4.953,16.375,7.375z"/>
		<path fill="none" stroke="#323232" stroke-width="1.5" stroke-linecap="round" stroke-linejoin="round" d="M8.907,10.468
			l6.185-6.185"/>
	</g>
</g>
</svg>
