<?xml version="1.0" encoding="utf-8"?>
<!-- Generator: Adobe Illustrator 24.0.2, SVG Export Plug-In . SVG Version: 6.00 Build 0)  -->
<svg version="1.1" id="Layer_3" xmlns="http://www.w3.org/2000/svg" xmlns:xlink="http://www.w3.org/1999/xlink" x="0px" y="0px"
	 width="24px" height="24px" viewBox="0 0 24 24" enable-background="new 0 0 24 24" xml:space="preserve">
<g>
	<path fill="none" d="M0,0h24v24H0V0z"/>
	<g>
		<path fill="none" stroke="#323232" stroke-width="1.5" stroke-linecap="round" stroke-linejoin="round" d="M15.997,3h3.286
			c0.947,0,1.714,0.767,1.714,1.714V8"/>
		<path fill="none" stroke="#323232" stroke-width="1.5" stroke-linecap="round" stroke-linejoin="round" d="M8,21H4.714
			C3.767,21,3,20.233,3,19.286V16"/>
		<path fill="none" stroke="#323232" stroke-width="1.5" stroke-linecap="round" stroke-linejoin="round" d="M2,5v4
			c0,1.105,0.895,2,2,2h6c1.105,0,2-0.895,2-2V5c0-1.105-0.895-2-2-2H4C2.895,3,2,3.895,2,5z"/>
		<path fill="none" stroke="#323232" stroke-width="1.5" stroke-linecap="round" stroke-linejoin="round" d="M12,6H2"/>
		<path fill="none" stroke="#323232" stroke-width="1.5" stroke-linecap="round" stroke-linejoin="round" d="M17.393,15.983v1.758
			l1.382,0.843"/>
		<path fill="none" stroke="#323232" stroke-width="1.5" d="M17.5,22c-2.485,0-4.5-2.014-4.5-4.5c0-2.434,2.07-4.503,4.504-4.5
			C19.988,13.002,22,15.016,22,17.5C22,19.985,19.986,22,17.5,22"/>
	</g>
</g>
</svg>
