<svg id="Layer_3" data-name="Layer 3" xmlns="http://www.w3.org/2000/svg" viewBox="0 0 24 24"><path d="M21,18.5H18a1,1,0,0,0-1,1V21a1,1,0,0,0,1,1h3a1,1,0,0,0,1-1V19.5A1,1,0,0,0,21,18.5Z" fill="none" stroke="#323232" stroke-linecap="round" stroke-linejoin="round" stroke-width="1.5"/><path d="M21,18.5V17a1.5,1.5,0,0,0-1.5-1.5h0A1.5,1.5,0,0,0,18,17v1.5" fill="none" stroke="#323232" stroke-linecap="round" stroke-linejoin="round" stroke-width="1.5"/><path d="M8.25,10.5v3A1.5,1.5,0,0,0,9.75,15h4.5a1.5,1.5,0,0,0,1.5-1.5v-3A1.5,1.5,0,0,0,14.25,9H9.75A1.5,1.5,0,0,0,8.25,10.5Z" fill="none" stroke="#323232" stroke-linecap="round" stroke-linejoin="round" stroke-width="1.5"/><path d="M13.13141,20.91962A8.66742,8.66742,0,0,1,12,21a9,9,0,1,1,9-9" fill="none" stroke="#323232" stroke-linecap="round" stroke-linejoin="round" stroke-width="1.5"/><path d="M15.75,11.5H8.25" fill="none" stroke="#323232" stroke-linecap="round" stroke-linejoin="round" stroke-width="1.5"/><path d="M0,0H24V24H0Z" fill="none"/></svg>