<?xml version="1.0" encoding="utf-8"?>
<!-- Generator: Adobe Illustrator 23.1.0, SVG Export Plug-In . SVG Version: 6.00 Build 0)  -->
<svg version="1.1" id="icons" xmlns="http://www.w3.org/2000/svg" xmlns:xlink="http://www.w3.org/1999/xlink" x="0px" y="0px"
	 width="24px" height="24px" viewBox="0 0 24 24" enable-background="new 0 0 24 24" xml:space="preserve">
<g>
	<path fill="none" d="M24,24H0L0,0l24,0V24z"/>
	<g>
		<path fill="none" stroke="#323232" stroke-width="1.5" stroke-linecap="round" stroke-linejoin="round" d="M5.558,9.763
			L5.271,8.696C4.982,7.627,5.617,6.528,6.687,6.243L16.73,3.567c1.06-0.282,2.16,0.353,2.446,1.412l1.754,6.509
			c0.288,1.069-0.348,2.168-1.416,2.453L17.4,14.504"/>
		<path fill="none" stroke="#323232" stroke-width="1.5" stroke-linecap="round" stroke-linejoin="round" d="M5,20.5h10.4
			c1.105,0,2-0.895,2-2v-6.737c0-1.105-0.895-2-2-2H5c-1.105,0-2,0.895-2,2V18.5C3,19.605,3.896,20.5,5,20.5z"/>
		
			<line fill="none" stroke="#323232" stroke-width="1.5" stroke-linecap="round" stroke-linejoin="round" x1="3" y1="13.842" x2="17.4" y2="13.842"/>
	</g>
</g>
</svg>
