<svg id="Layer_3" data-name="Layer 3" xmlns="http://www.w3.org/2000/svg" viewBox="0 0 24 24"><title>credit-card-exchange</title><path d="M6,2.5,7.5,4,6,5.5" fill="none" stroke="#323232" stroke-linecap="round" stroke-linejoin="round" stroke-width="1.5"/><path d="M7.5,4h-2a2.99981,2.99981,0,0,0-3,3" fill="none" stroke="#323232" stroke-linecap="round" stroke-linejoin="round" stroke-width="1.5"/><path d="M18,21.5,16.5,20,18,18.5" fill="none" stroke="#323232" stroke-linecap="round" stroke-linejoin="round" stroke-width="1.5"/><path d="M16.5,20h2a2.99981,2.99981,0,0,0,3-3" fill="none" stroke="#323232" stroke-linecap="round" stroke-linejoin="round" stroke-width="1.5"/><path d="M14.667,14v2a2.00009,2.00009,0,0,1-2,2H6a1.99945,1.99945,0,0,1-2-2V12a1.99945,1.99945,0,0,1,2-2H20" fill="none" stroke="#323232" stroke-linecap="round" stroke-linejoin="round" stroke-width="1.5"/><path d="M11.333,14H18a2,2,0,0,0,2-2V8a2,2,0,0,0-2-2H11.333a2,2,0,0,0-2,2v4A2,2,0,0,0,11.333,14Z" fill="none" stroke="#323232" stroke-linecap="round" stroke-linejoin="round" stroke-width="1.5"/><rect width="24" height="24" fill="none"/></svg>