<svg id="Layer_3" data-name="Layer 3" xmlns="http://www.w3.org/2000/svg" viewBox="0 0 24 24"><title>credit-card-certificate</title><path d="M18.9,16.8l-1.75,1.751L16.1,17.5" fill="none" stroke="#323232" stroke-linecap="round" stroke-linejoin="round" stroke-width="1.5"/><path d="M13.249,18.233l.6.782.129.973a1.206,1.206,0,0,0,1.036,1.037l.976.13.781.6a1.206,1.206,0,0,0,1.465,0l.782-.6h0l.974-.129a1.206,1.206,0,0,0,1.037-1.036l.13-.976.6-.781a1.206,1.206,0,0,0,0-1.464l-.6-.782-.129-.973a1.206,1.206,0,0,0-1.036-1.037l-.976-.13-.781-.6a1.206,1.206,0,0,0-1.465,0l-.782.6h0l-.974.129a1.206,1.206,0,0,0-1.037,1.036l-.13.976-.6.781A1.2,1.2,0,0,0,13.249,18.233Z" fill="none" stroke="#323232" stroke-linecap="round" stroke-linejoin="round" stroke-width="1.5"/><path d="M9,21H4.714A1.715,1.715,0,0,1,3,19.286V16" fill="none" stroke="#323232" stroke-linecap="round" stroke-linejoin="round" stroke-width="1.5"/><path d="M16,4h3.286A1.715,1.715,0,0,1,21,5.714V9" fill="none" stroke="#323232" stroke-linecap="round" stroke-linejoin="round" stroke-width="1.5"/><path d="M2,5V9a2,2,0,0,0,2,2h6a2,2,0,0,0,2-2V5a2,2,0,0,0-2-2H4A2,2,0,0,0,2,5Z" fill="none" stroke="#323232" stroke-linecap="round" stroke-linejoin="round" stroke-width="1.5"/><path d="M12,6H2" fill="none" stroke="#323232" stroke-linecap="round" stroke-linejoin="round" stroke-width="1.5"/><path d="M0,0H24V24H0Z" fill="none"/></svg>