<svg id="Layer_3" data-name="Layer 3" xmlns="http://www.w3.org/2000/svg" viewBox="0 0 24 24"><title>credit-card-eye-hide-show</title><path d="M3,8H21" fill="none" stroke="#323232" stroke-linecap="round" stroke-linejoin="round" stroke-width="1.5"/><path d="M9.5,12H7" fill="none" stroke="#323232" stroke-linecap="round" stroke-linejoin="round" stroke-width="1.5"/><path d="M10,18H6a3,3,0,0,1-3-3V7A3,3,0,0,1,6,4H18a3,3,0,0,1,3,3v5" fill="none" stroke="#323232" stroke-linecap="round" stroke-linejoin="round" stroke-width="1.5"/><path d="M13.561,18.306a1.47,1.47,0,0,1,0-1.61,5.419,5.419,0,0,1,4.1-2.7,5.422,5.422,0,0,1,4.1,2.7,1.466,1.466,0,0,1,0,1.61,5.425,5.425,0,0,1-4.1,2.7A5.416,5.416,0,0,1,13.561,18.306Z" fill="none" stroke="#323232" stroke-linecap="round" stroke-linejoin="round" stroke-width="1.5"/><path d="M17.776,17.384a.165.165,0,1,1-.234,0,.165.165,0,0,1,.234,0" fill="none" stroke="#323232" stroke-linecap="round" stroke-linejoin="round" stroke-width="1.5"/><path d="M0,24V0H24V24Z" fill="none"/></svg>