<?xml version="1.0" encoding="utf-8"?>
<!-- Generator: Adobe Illustrator 23.1.0, SVG Export Plug-In . SVG Version: 6.00 Build 0)  -->
<svg version="1.1" id="icons" xmlns="http://www.w3.org/2000/svg" xmlns:xlink="http://www.w3.org/1999/xlink" x="0px" y="0px"
	 width="24px" height="24px" viewBox="0 0 24 24" enable-background="new 0 0 24 24" xml:space="preserve">
<g>
	<rect y="0" fill="none" width="24" height="24"/>
	<g>
		<path fill="none" stroke="#323232" stroke-width="1.5" stroke-linecap="round" stroke-linejoin="round" d="M16.625,18.5h1.75"/>
		<path fill="none" stroke="#323232" stroke-width="1.5" stroke-linecap="round" stroke-linejoin="round" d="M2,4v5
			c0,0.552,0.44,1,0.983,1h7.034C10.56,10,11,9.552,11,9V4c0-0.552-0.44-1-0.983-1H2.983C2.44,3,2,3.448,2,4z"/>
		<path fill="none" stroke="#323232" stroke-width="1.5" stroke-linecap="round" stroke-linejoin="round" d="M11,6H2.154"/>
		<path fill="none" stroke="#323232" stroke-width="1.5" stroke-linecap="round" stroke-linejoin="round" d="M19.25,21h-3.5
			C14.783,21,14,20.236,14,19.292v-6.583C14,11.764,14.783,11,15.75,11h3.5c0.967,0,1.75,0.764,1.75,1.708v6.583
			C21,20.236,20.217,21,19.25,21z"/>
		<path fill="none" d="M10,19l-2-2"/>
		<path fill="none" d="M8,21l2-2"/>
		<path fill="none" stroke="#323232" stroke-width="1.5" stroke-linecap="round" stroke-linejoin="round" d="M10,19H8
			c-2.761,0-5-2.239-5-5"/>
		<path fill="none" stroke="#323232" stroke-width="1.5" stroke-linecap="round" stroke-linejoin="round" d="M16.5,2.5L15,4l1.5,1.5
			"/>
		<path fill="none" stroke="#323232" stroke-width="1.5" stroke-linecap="round" stroke-linejoin="round" d="M15,4h2
			c1.657,0,3,1.343,3,3"/>
		<path fill="none" stroke="#323232" stroke-width="1.5" stroke-linecap="round" stroke-linejoin="round" d="M8.5,20.5L10,19
			l-1.5-1.5"/>
	</g>
</g>
</svg>
