<?xml version="1.0" encoding="utf-8"?>
<!-- Generator: Adobe Illustrator 24.0.2, SVG Export Plug-In . SVG Version: 6.00 Build 0)  -->
<svg version="1.1" id="Layer_1" xmlns="http://www.w3.org/2000/svg" xmlns:xlink="http://www.w3.org/1999/xlink" x="0px" y="0px"
	 width="24px" height="24px" viewBox="0 0 24 24" enable-background="new 0 0 24 24" xml:space="preserve">
<g>
	<g>
		<path fill="none" stroke="#323232" stroke-width="1.5" stroke-linecap="round" stroke-linejoin="round" d="M15,9H3"/>
		<path fill="none" stroke="#323232" stroke-width="1.5" stroke-linecap="round" stroke-linejoin="round" d="M7,4H5
			C3.895,4,3,4.895,3,6v14c0,1.105,0.895,2,2,2h8c1.105,0,2-0.895,2-2V6c0-1.105-0.895-2-2-2h-2"/>
		<path fill="none" stroke="#323232" stroke-width="1.5" stroke-linecap="round" stroke-linejoin="round" d="M20,17.5l2,2l-2,2"/>
		<path fill="none" stroke="#323232" stroke-width="1.5" stroke-linecap="round" stroke-linejoin="round" d="M18,19.5h4"/>
		<path fill="none" stroke="#323232" stroke-width="1.5" stroke-linecap="round" stroke-linejoin="round" d="M15,13.03H3"/>
		<path fill="none" stroke="#323232" stroke-width="1.5" stroke-linecap="round" stroke-linejoin="round" d="M7,2h4v4H7V2z"/>
		<path fill="none" stroke="#323232" stroke-width="1.5" stroke-linecap="round" stroke-linejoin="round" d="M5.999,15.833
			c-0.092,0-0.167,0.075-0.166,0.167c0,0.092,0.075,0.167,0.167,0.167S6.167,16.092,6.167,16
			C6.167,15.908,6.092,15.833,5.999,15.833"/>
		<path fill="none" stroke="#323232" stroke-width="1.5" stroke-linecap="round" stroke-linejoin="round" d="M8.999,15.833
			c-0.092,0-0.167,0.075-0.166,0.167c0,0.092,0.075,0.167,0.167,0.167S9.167,16.092,9.167,16
			C9.167,15.908,9.092,15.833,8.999,15.833"/>
		<path fill="none" stroke="#323232" stroke-width="1.5" stroke-linecap="round" stroke-linejoin="round" d="M11.999,18.833
			c-0.092,0-0.167,0.075-0.166,0.167c0,0.092,0.075,0.167,0.167,0.167s0.167-0.075,0.167-0.167S12.092,18.833,11.999,18.833"/>
		<path fill="none" stroke="#323232" stroke-width="1.5" stroke-linecap="round" stroke-linejoin="round" d="M5.999,18.833
			c-0.092,0-0.167,0.075-0.166,0.167c0,0.092,0.075,0.167,0.167,0.167S6.167,19.092,6.167,19S6.092,18.833,5.999,18.833"/>
		<path fill="none" stroke="#323232" stroke-width="1.5" stroke-linecap="round" stroke-linejoin="round" d="M8.999,18.833
			c-0.092,0-0.167,0.075-0.166,0.167c0,0.092,0.075,0.167,0.167,0.167S9.167,19.092,9.167,19S9.092,18.833,8.999,18.833"/>
		<path fill="none" stroke="#323232" stroke-width="1.5" stroke-linecap="round" stroke-linejoin="round" d="M15,7h5
			c0.552,0,1,0.448,1,1v5c0,0.552-0.448,1-1,1h-5"/>
		<path fill="none" stroke="#323232" stroke-width="1.5" stroke-linecap="round" stroke-linejoin="round" d="M15,10h6"/>
		<path fill="none" stroke="#323232" stroke-width="1.5" stroke-linecap="round" stroke-linejoin="round" d="M11.999,15.833
			c-0.092,0-0.167,0.075-0.166,0.167c0,0.092,0.075,0.167,0.167,0.167s0.167-0.075,0.167-0.167
			C12.167,15.908,12.092,15.833,11.999,15.833"/>
	</g>
	<path fill="none" d="M0,0h24v24H0V0z"/>
</g>
</svg>
