<?xml version="1.0" encoding="utf-8"?>
<!-- Generator: Adobe Illustrator 24.0.2, SVG Export Plug-In . SVG Version: 6.00 Build 0)  -->
<svg version="1.1" id="Layer_3" xmlns="http://www.w3.org/2000/svg" xmlns:xlink="http://www.w3.org/1999/xlink" x="0px" y="0px"
	 width="24px" height="24px" viewBox="0 0 24 24" enable-background="new 0 0 24 24" xml:space="preserve">
<g>
	<path fill="none" d="M24,24H0V0h24V24z"/>
	<g>
		<path fill="none" stroke="#323232" stroke-width="1.5" stroke-linecap="round" stroke-linejoin="round" d="M7.67,8H5
			c-1.105,0-2,0.895-2,2v9c0,1.105,0.895,2,2,2h14c1.105,0,2-0.895,2-2v-9c0-1.105-0.895-2-2-2h-2.67"/>
		<path fill="none" stroke="#323232" stroke-width="1.5" stroke-linecap="round" stroke-linejoin="round" d="M12,11.75
			c-2.416,0-4.375-1.959-4.375-4.375S9.584,3,12,3c2.417,0,4.375,1.959,4.375,4.375S14.417,11.75,12,11.75"/>
		<path fill="none" stroke="#323232" stroke-width="1.5" stroke-linecap="round" stroke-linejoin="round" d="M13.611,6.57
			l-2.014,2.014l-1.208-1.209"/>
		
			<line fill="none" stroke="#323232" stroke-width="1.5" stroke-linecap="round" stroke-linejoin="round" x1="7" y1="17" x2="11" y2="17"/>
	</g>
</g>
</svg>
