<svg id="Layer_3" data-name="Layer 3" xmlns="http://www.w3.org/2000/svg" viewBox="0 0 24 24"><title>credit-card-edit-circle</title><path d="M24,24H0V0H24Z" fill="none"/><path d="M24,0V24H0" fill="none"/><path d="M11.00327,20a9,9,0,1,1,8.941-10" fill="none" stroke="#323232" stroke-linecap="round" stroke-linejoin="round" stroke-width="1.5"/><path d="M7.24346,9.5v3a1.5,1.5,0,0,0,1.5,1.5h4.5a1.5,1.5,0,0,0,1.5-1.5v-3a1.5,1.5,0,0,0-1.5-1.5h-4.5A1.5,1.5,0,0,0,7.24346,9.5Z" fill="none" stroke="#323232" stroke-linecap="round" stroke-linejoin="round" stroke-width="1.5"/><path d="M14.74346,10.5h-7.5" fill="none" stroke="#323232" stroke-linecap="round" stroke-linejoin="round" stroke-width="1.5"/><path d="M15.29262,17.83868l3.542-3.54475a1.003,1.003,0,0,1,1.41851-.00048l1.45317,1.45234a1.002,1.002,0,0,1,0,1.41742L18.16,20.70732A1,1,0,0,1,17.45313,21H15V18.54551A1,1,0,0,1,15.29262,17.83868Z" fill="none" stroke="#323232" stroke-linecap="round" stroke-linejoin="round" stroke-width="1.5"/></svg>