<svg id="Layer_3" data-name="Layer 3" xmlns="http://www.w3.org/2000/svg" viewBox="0 0 24 24"><title>credit-card-wireless-circle</title><path d="M24,0V24H0V0Z" fill="none"/><path d="M16.757,9a4.24238,4.24238,0,0,1,0,6" fill="none" stroke="#323232" stroke-linecap="round" stroke-linejoin="round" stroke-width="1.5"/><path d="M6.636,5.636a9,9,0,1,1,0,12.72792" fill="none" stroke="#323232" stroke-linecap="round" stroke-linejoin="round" stroke-width="1.5"/><path d="M14.379,10.5a2.12209,2.12209,0,0,1,0,3" fill="none" stroke="#323232" stroke-linecap="round" stroke-linejoin="round" stroke-width="1.5"/><path d="M2,10.2v3.6a1.80014,1.80014,0,0,0,1.8,1.8H9.2A1.7995,1.7995,0,0,0,11,13.8V10.2A1.7995,1.7995,0,0,0,9.2,8.4H3.8A1.7995,1.7995,0,0,0,2,10.2Z" fill="none" stroke="#323232" stroke-linecap="round" stroke-linejoin="round" stroke-width="1.5"/><path d="M11,11H2" fill="none" stroke="#323232" stroke-linecap="round" stroke-linejoin="round" stroke-width="1.5"/></svg>