<svg id="Layer_3" data-name="Layer 3" xmlns="http://www.w3.org/2000/svg" viewBox="0 0 24 24"><path d="M17,18V12a1.99945,1.99945,0,0,0-2-2H5a1.99945,1.99945,0,0,0-2,2v6a1.99945,1.99945,0,0,0,2,2H15A2.00009,2.00009,0,0,0,17,18Z" fill="none" stroke="#323232" stroke-linecap="round" stroke-linejoin="round" stroke-width="1.5"/><line x1="3" y1="14.079" x2="17" y2="14.079" fill="none" stroke="#323232" stroke-linecap="round" stroke-linejoin="round" stroke-width="1.5"/><path d="M6.2,10,7.41,5.48A1.99616,1.99616,0,0,1,9.86,4.07l9.66,2.59a1.99616,1.99616,0,0,1,1.41,2.45L19.38,14.9A1.99221,1.99221,0,0,1,17,16.33" fill="none" stroke="#323232" stroke-linecap="round" stroke-linejoin="round" stroke-width="1.5"/><path d="M0,0H24V24H0Z" fill="none"/></svg>