<?xml version="1.0" encoding="utf-8"?>
<!-- Generator: Adobe Illustrator 23.1.0, SVG Export Plug-In . SVG Version: 6.00 Build 0)  -->
<svg version="1.1" id="icons" xmlns="http://www.w3.org/2000/svg" xmlns:xlink="http://www.w3.org/1999/xlink" x="0px" y="0px"
	 width="24px" height="24px" viewBox="0 0 24 24" enable-background="new 0 0 24 24" xml:space="preserve">
<g>
	<path fill="none" stroke="#323232" stroke-width="1.5" stroke-linecap="round" stroke-linejoin="round" d="M6.3,18.5h4.4"/>
	<path fill="none" stroke="#323232" stroke-width="1.5" stroke-linecap="round" stroke-linejoin="round" d="M14,9h6
		c0.553,0,1,0.448,1,1v4c0,0.553-0.448,1-1,1h-6c-0.553,0-1-0.448-1-1v-4C13,9.448,13.448,9,14,9z"/>
	<path fill="none" stroke="#323232" stroke-width="1.5" stroke-linecap="round" stroke-linejoin="round" d="M8,10l2,2.001L8,14"/>
	
		<line fill="none" stroke="#323232" stroke-width="1.5" stroke-linecap="round" stroke-linejoin="round" x1="10" y1="12" x2="6" y2="12"/>
	<rect x="0" y="0" fill="none" width="24" height="24"/>
	<path fill="none" stroke="#323232" stroke-width="1.5" stroke-linecap="round" stroke-linejoin="round" d="M14,18v1
		c0,1.105-0.895,2-2,2H5c-1.105,0-2-0.895-2-2V5c0-1.105,0.895-2,2-2h7c1.105,0,2,0.895,2,2v1"/>
</g>
</svg>
