<svg id="Layer_3" data-name="Layer 3" xmlns="http://www.w3.org/2000/svg" viewBox="0 0 24 24"><path d="M0,0H24V24H0Z" fill="none"/><path d="M16,21H8a5,5,0,0,1-5-5V8A5,5,0,0,1,8,3h8a5,5,0,0,1,5,5v8A5,5,0,0,1,16,21Z" fill="none" stroke="#323232" stroke-linecap="round" stroke-linejoin="round" stroke-width="1.5"/><path d="M14.27778,15V12.44444a1.5,1.5,0,0,0-1.5-1.5H8a1.5,1.5,0,0,0-1.5,1.5V15A1.5,1.5,0,0,0,8,16.5h4.77778A1.5,1.5,0,0,0,14.27778,15Z" fill="none" stroke="#323232" stroke-linecap="round" stroke-linejoin="round" stroke-width="1.5"/><path d="M9.31,10.94l.63-2.33a1.49387,1.49387,0,0,1,1.83-1.06l4.62,1.24a1.49979,1.49979,0,0,1,1.06,1.84l-.76,2.84a1.10983,1.10983,0,0,1-1.36.78l-1.05-.28" fill="none" stroke="#323232" stroke-linecap="round" stroke-linejoin="round" stroke-width="1.5"/></svg>