<svg id="Layer_3" data-name="Layer 3" xmlns="http://www.w3.org/2000/svg" viewBox="0 0 24 24"><path d="M0,0H24V24H0Z" fill="none"/><path d="M20.582,9.353A8.84321,8.84321,0,0,1,21,12a9,9,0,1,1-9-9,8.84316,8.84316,0,0,1,2.647.418" fill="none" stroke="#323232" stroke-linecap="round" stroke-linejoin="round" stroke-width="1.5"/><path d="M19.012,6.262,17.737,4.987" fill="none" stroke="#323232" stroke-linecap="round" stroke-linejoin="round" stroke-width="1.5"/><line x1="21" y1="4.27393" x2="19.01202" y2="6.26196" fill="none" stroke="#323232" stroke-linecap="round" stroke-linejoin="round" stroke-width="1.5"/><path d="M8.25,10.5v3A1.5,1.5,0,0,0,9.75,15h4.5a1.5,1.5,0,0,0,1.5-1.5v-3A1.5,1.5,0,0,0,14.25,9H9.75A1.5,1.5,0,0,0,8.25,10.5Z" fill="none" stroke="#323232" stroke-linecap="round" stroke-linejoin="round" stroke-width="1.5"/><path d="M15.75,11.5H8.25" fill="none" stroke="#323232" stroke-linecap="round" stroke-linejoin="round" stroke-width="1.5"/></svg>