<svg id="Layer_3" data-name="Layer 3" xmlns="http://www.w3.org/2000/svg" viewBox="0 0 24 24"><title>credit-card-checkmark-sqaure</title><path d="M0,0H24V24H0Z" fill="none"/><path d="M19,14v3a4,4,0,0,1-4,4H7a4,4,0,0,1-4-4V9A4,4,0,0,1,7,5h3" fill="none" stroke="#323232" stroke-linecap="round" stroke-linejoin="round" stroke-width="1.5"/><path d="M6,13.8v2.8A1.4,1.4,0,0,0,7.4,18h4.2A1.4,1.4,0,0,0,13,16.6V13.8a1.4,1.4,0,0,0-1.4-1.4H7.4A1.4,1.4,0,0,0,6,13.8Z" fill="none" stroke="#323232" stroke-linecap="round" stroke-linejoin="round" stroke-width="1.5"/><path d="M13,15H6" fill="none" stroke="#323232" stroke-linecap="round" stroke-linejoin="round" stroke-width="1.5"/><path d="M17,3a4,4,0,1,1-4,4,4,4,0,0,1,4-4" fill="none" stroke="#323232" stroke-linecap="round" stroke-linejoin="round" stroke-width="1.5"/><path d="M18.556,6.223,16.612,8.167,15.444,7" fill="none" stroke="#323232" stroke-linecap="round" stroke-linejoin="round" stroke-width="1.5"/></svg>