<svg id="Layer_3" data-name="Layer 3" xmlns="http://www.w3.org/2000/svg" viewBox="0 0 24 24"><title>credit-cards-circle</title><path d="M24,0V24H0V0Z" fill="none"/><path d="M10,12a1.5,1.5,0,0,0,1.5,1.5h4A1.5,1.5,0,0,0,17,12V9a1.5,1.5,0,0,0-1.5-1.5h-4A1.5,1.5,0,0,0,10,9v3Z" fill="none" stroke="#323232" stroke-linecap="round" stroke-linejoin="round" stroke-width="1.5"/><path d="M17,10.5H8.5A1.5,1.5,0,0,0,7,12v3H7a1.5,1.5,0,0,0,1.5,1.5h4A1.5,1.5,0,0,0,14,15V13.5" fill="none" stroke="#323232" stroke-linecap="round" stroke-linejoin="round" stroke-width="1.5"/><path d="M5.636,5.636a9,9,0,1,1,12.547,12.9,9.1,9.1,0,0,1-12.359.007A9,9,0,0,1,5.636,5.636" fill="none" stroke="#323232" stroke-linecap="round" stroke-linejoin="round" stroke-width="1.5"/></svg>