<svg id="Layer_3" data-name="Layer 3" xmlns="http://www.w3.org/2000/svg" viewBox="0 0 24 24"><title>credit-card-mastercard</title><path d="M12,10.5A2.5,2.5,0,1,1,10,9.5,2.487,2.487,0,0,1,12,10.5Z" fill="none" stroke="#323232" stroke-linecap="round" stroke-linejoin="round" stroke-width="1.5"/><path d="M12,10.5a2.5,2.5,0,1,1,0,3" fill="none" stroke="#323232" stroke-linecap="round" stroke-linejoin="round" stroke-width="1.5"/><path d="M18,19H6a3,3,0,0,1-3-3V8A3,3,0,0,1,6,5H18a3,3,0,0,1,3,3v8A3,3,0,0,1,18,19Z" fill="none" stroke="#323232" stroke-linecap="round" stroke-linejoin="round" stroke-width="1.5"/><path d="M0,0H24V24H0Z" fill="none"/></svg>