<?xml version="1.0" encoding="utf-8"?>
<!-- Generator: Adobe Illustrator 24.0.2, SVG Export Plug-In . SVG Version: 6.00 Build 0)  -->
<svg version="1.1" id="Layer_3" xmlns="http://www.w3.org/2000/svg" xmlns:xlink="http://www.w3.org/1999/xlink" x="0px" y="0px"
	 width="24px" height="24px" viewBox="0 0 24 24" enable-background="new 0 0 24 24" xml:space="preserve">
<g>
	<path fill="none" d="M0,0h24v24H0V0z"/>
	<g>
		<path fill="none" stroke="#323232" stroke-width="1.5" stroke-linecap="round" stroke-linejoin="round" d="M16,3h3.286
			C20.233,3,21,3.767,21,4.714V8"/>
		<path fill="none" stroke="#323232" stroke-width="1.5" stroke-linecap="round" stroke-linejoin="round" d="M8,21H4.714
			C3.767,21,3,20.233,3,19.286V16"/>
		<path fill="none" stroke="#323232" stroke-width="1.5" stroke-linecap="round" stroke-linejoin="round" d="M18.694,12.605
			l3.046,5.413C22.49,19.352,21.527,21,19.996,21h-6.091c-1.53,0-2.493-1.648-1.743-2.981l3.046-5.414
			C15.973,11.246,17.93,11.246,18.694,12.605z"/>
		<path fill="none" stroke="#323232" stroke-width="1.5" stroke-linecap="round" stroke-linejoin="round" d="M16.951,16.42v-1.835"
			/>
		<path fill="none" stroke="#323232" stroke-width="1.5" stroke-linecap="round" stroke-linejoin="round" d="M16.95,18.445
			c-0.05,0-0.091,0.041-0.09,0.091c0,0.05,0.041,0.091,0.091,0.091s0.091-0.041,0.091-0.091S17.001,18.445,16.95,18.445"/>
		<path fill="none" stroke="#323232" stroke-width="1.5" stroke-linecap="round" stroke-linejoin="round" d="M2,5v4
			c0,1.105,0.895,2,2,2h6c1.105,0,2-0.895,2-2V5c0-1.105-0.895-2-2-2H4C2.895,3,2,3.895,2,5z"/>
		<path fill="none" stroke="#323232" stroke-width="1.5" stroke-linecap="round" stroke-linejoin="round" d="M12,6H2"/>
	</g>
</g>
</svg>
