<svg id="Layer_3" data-name="Layer 3" xmlns="http://www.w3.org/2000/svg" viewBox="0 0 24 24"><title>croissant</title><rect width="24" height="24" fill="none"/><path d="M16.501,13.7993a7.126,7.126,0,0,0,2.48018-.02,1.64377,1.64377,0,0,1,1.73013,2.49984,8.99669,8.99669,0,0,1-1.05008,1.25992,9.80633,9.80633,0,0,1-1.4201,1.16993" fill="none" stroke="#323232" stroke-linecap="round" stroke-linejoin="round" stroke-width="1.5"/><path d="M5.07015,6.1398a8.9544,8.9544,0,0,1,1.2801-1.68989A9.97436,9.97436,0,0,1,7.67035,3.31a1.65072,1.65072,0,0,1,2.55018,1.69989,7.56089,7.56089,0,0,0,.06,2.95981" fill="none" stroke="#323232" stroke-linecap="round" stroke-linejoin="round" stroke-width="1.5"/><path d="M12.18451,10.22208l1.59233,1.59337a1.89135,1.89135,0,0,1,.42345,2.02564L11.87,19.80005a1.897,1.897,0,0,1-2.48069,1.06571,11.38381,11.38381,0,0,1-6.24923-6.25331,1.89906,1.89906,0,0,1,1.065-2.48232l5.95507-2.33177A1.8883,1.8883,0,0,1,12.18451,10.22208Z" fill="none" stroke="#323232" stroke-linecap="round" stroke-linejoin="round" stroke-width="1.5"/><path d="M14.30084,12.85936a4.31977,4.31977,0,0,0,.87006.17A1.895,1.895,0,0,1,16.761,14.29927L18.21113,18.589a.94874.94874,0,0,1-.55005,1.17993,10.29417,10.29417,0,0,1-6.10045.55" fill="none" stroke="#323232" stroke-linecap="round" stroke-linejoin="round" stroke-width="1.5"/><path d="M3.69005,12.43939a10.339,10.339,0,0,1,.39-5.66963.9462.9462,0,0,1,1.20009-.59L9.7605,7.6997a1.83147,1.83147,0,0,1,1.25009,1.41991,3.05933,3.05933,0,0,0,.14.58" fill="none" stroke="#323232" stroke-linecap="round" stroke-linejoin="round" stroke-width="1.5"/></svg>