<?xml version="1.0" encoding="utf-8"?>
<!-- Generator: Adobe Illustrator 24.0.2, SVG Export Plug-In . SVG Version: 6.00 Build 0)  -->
<svg version="1.1" id="Layer_3" xmlns="http://www.w3.org/2000/svg" xmlns:xlink="http://www.w3.org/1999/xlink" x="0px" y="0px"
	 width="24px" height="24px" viewBox="0 0 24 24" enable-background="new 0 0 24 24" xml:space="preserve">
<g>
	<g>
		<path fill="none" stroke="#323232" stroke-width="1.5" stroke-linecap="round" stroke-linejoin="round" d="M19,21H5
			c-1.105,0-2-0.895-2-2V5c0-1.105,0.895-2,2-2h14c1.105,0,2,0.895,2,2v14C21,20.105,20.105,21,19,21z"/>
		<path fill="none" stroke="#323232" stroke-width="1.5" stroke-linecap="round" stroke-linejoin="round" d="M3,8h18"/>
		
			<path fill="none" stroke="#323232" stroke-width="1.5" stroke-linecap="round" stroke-linejoin="round" stroke-miterlimit="10" d="
			M15.248,16.266c0.193,0.318,0.525,0.538,0.928,0.538h0.9c0.497,0,0.9-0.403,0.9-0.9v-0.251c0-0.388-0.248-0.732-0.616-0.854
			l-1.47-0.489c-0.369-0.123-0.616-0.466-0.616-0.854v-0.251c0-0.497,0.403-0.9,0.9-0.9h0.9c0.399,0,0.731,0.218,0.924,0.536"/>
		
			<path fill="none" stroke="#323232" stroke-width="1.5" stroke-linecap="round" stroke-linejoin="round" stroke-miterlimit="10" d="
			M10.35,16.266c0.193,0.318,0.525,0.538,0.928,0.538h0.9c0.497,0,0.9-0.403,0.9-0.9v-0.251c0-0.388-0.248-0.732-0.616-0.854
			l-1.47-0.489c-0.369-0.123-0.616-0.466-0.616-0.854v-0.251c0-0.497,0.403-0.9,0.9-0.9h0.9c0.399,0,0.731,0.218,0.924,0.536"/>
		
			<path fill="none" stroke="#323232" stroke-width="1.5" stroke-linecap="round" stroke-linejoin="round" stroke-miterlimit="10" d="
			M8.25,16.696H7c-0.552,0-1-0.448-1-1v-2.5c0-0.552,0.448-1,1-1h1.25"/>
	</g>
	<rect fill="none" width="24" height="24"/>
</g>
</svg>
