<svg id="Layer_3" data-name="Layer 3" xmlns="http://www.w3.org/2000/svg" viewBox="0 0 24 24"><title>cup-circle</title><path d="M15,9h1.5a1,1,0,0,1,1,1v1a2,2,0,0,1-2,2h-.563" fill="none" stroke="#323232" stroke-linecap="round" stroke-linejoin="round" stroke-width="1.5"/><line x1="12" y1="14.5" x2="12" y2="17.5" fill="none" stroke="#323232" stroke-linecap="round" stroke-linejoin="round" stroke-width="1.5"/><line x1="14" y1="17.5" x2="10" y2="17.5" fill="none" stroke="#323232" stroke-linecap="round" stroke-linejoin="round" stroke-width="1.5"/><path d="M12,21a9,9,0,1,1,9-9,9,9,0,0,1-9,9" fill="none" stroke="#323232" stroke-linecap="round" stroke-linejoin="round" stroke-width="1.5"/><path d="M10,7.5h4a1,1,0,0,1,1,1v4a2,2,0,0,1-2,2H11a2,2,0,0,1-2-2v-4A1,1,0,0,1,10,7.5Z" fill="none" stroke="#323232" stroke-linecap="round" stroke-linejoin="round" stroke-width="1.5"/><path d="M9,9H7.5a1,1,0,0,0-1,1v1a2,2,0,0,0,2,2h.563" fill="none" stroke="#323232" stroke-linecap="round" stroke-linejoin="round" stroke-width="1.5"/><path d="M0,0H24V24H0Z" fill="none"/></svg>