<svg id="Layer_3" data-name="Layer 3" xmlns="http://www.w3.org/2000/svg" viewBox="0 0 24 24"><title>cup-pen-writing-tools</title><path d="M4.5,6.91h4" fill="none" stroke="#323232" stroke-linecap="round" stroke-linejoin="round" stroke-width="1.5"/><path d="M4.5,10.137l0-4.7a2.007,2.007,0,0,1,2-2.009h0a2,2,0,0,1,2,2v0l0,4.577" fill="none" stroke="#323232" stroke-linecap="round" stroke-linejoin="round" stroke-width="1.5"/><polyline points="11.25 10 11.25 2 16 2 16 10" fill="none" stroke="#323232" stroke-linecap="round" stroke-linejoin="round" stroke-width="1.5"/><path d="M17,17h1.5A2.5,2.5,0,0,0,21,14.5V13.055a2,2,0,0,0-2-2H16.833" fill="none" stroke="#323232" stroke-linecap="round" stroke-linejoin="round" stroke-width="1.5"/><path d="M5,10H15.833a1,1,0,0,1,1,1v6.333A3.667,3.667,0,0,1,13.167,21h-5.5A3.667,3.667,0,0,1,4,17.333V11A1,1,0,0,1,5,10Z" fill="none" stroke="#323232" stroke-linecap="round" stroke-linejoin="round" stroke-width="1.5"/><line x1="15.248" y1="4.844" x2="13.748" y2="4.844" fill="none" stroke="#323232" stroke-linecap="round" stroke-linejoin="round" stroke-width="1.5"/><line x1="15.248" y1="7.344" x2="14.748" y2="7.344" fill="none" stroke="#323232" stroke-linecap="round" stroke-linejoin="round" stroke-width="1.5"/><path d="M0,0H24V24H0Z" fill="none"/></svg>