<?xml version="1.0" encoding="utf-8"?>
<!-- Generator: Adobe Illustrator 23.1.0, SVG Export Plug-In . SVG Version: 6.00 Build 0)  -->
<svg version="1.1" id="icons" xmlns="http://www.w3.org/2000/svg" xmlns:xlink="http://www.w3.org/1999/xlink" x="0px" y="0px"
	 width="24px" height="24px" viewBox="0 0 24 24" enable-background="new 0 0 24 24" xml:space="preserve">
<g>
	<rect x="0" y="0" transform="matrix(-1 4.486843e-11 -4.486843e-11 -1 24 24)" fill="none" width="24" height="24"/>
	<g>
		<path fill="none" stroke="#323232" stroke-width="1.5" stroke-linecap="round" stroke-linejoin="round" d="M17.25,13.5
			c-2.062,0-3.75,1.688-3.75,3.75S15.188,21,17.25,21S21,19.312,21,17.25c0-0.841-0.284-1.618-0.757-2.245
			C19.558,14.094,18.471,13.5,17.25,13.5z"/>
		<path fill="none" stroke="#323232" stroke-width="1.5" stroke-linecap="round" stroke-linejoin="round" d="M18.75,17.25h-3"/>
		<path fill="none" stroke="#323232" stroke-width="1.5" stroke-linecap="round" stroke-linejoin="round" d="M17.25,18.75v-3"/>
		
			<polyline fill="none" stroke="#323232" stroke-width="1.5" stroke-linecap="round" stroke-linejoin="round" stroke-miterlimit="10" points="
			14.189,8.49 10.77,11.91 8.49,9.63 6.211,11.91 		"/>
		<path fill="none" stroke="#323232" stroke-width="1.5" stroke-linecap="round" stroke-linejoin="round" d="M17.4,13.5V4.92
			C17.4,3.86,16.54,3,15.48,3H4.92C3.86,3,3,3.86,3,4.92v10.56c0,1.06,0.86,1.92,1.92,1.92h8.58"/>
	</g>
</g>
</svg>
