<svg id="Layer_3" data-name="Layer 3" xmlns="http://www.w3.org/2000/svg" viewBox="0 0 24 24"><title>customer-package-box</title><path d="M0,0H24V24H0Z" fill="none"/><path d="M14.075,19.628V16.872a.977.977,0,0,1,.5-.849l2.489-1.4a.978.978,0,0,1,.955,0l2.489,1.4a.974.974,0,0,1,.5.849v2.756a.978.978,0,0,1-.5.849l-2.49,1.4a.973.973,0,0,1-.955,0l-2.489-1.4A.975.975,0,0,1,14.075,19.628Z" fill="none" stroke="#323232" stroke-linecap="round" stroke-linejoin="round" stroke-width="1.5"/><path d="M17.538,18.249V22" fill="none" stroke="#323232" stroke-linecap="round" stroke-linejoin="round" stroke-width="1.5"/><path d="M14.208,16.38l3.33,1.869,3.33-1.869" fill="none" stroke="#323232" stroke-linecap="round" stroke-linejoin="round" stroke-width="1.5"/><path d="M4,20H4a4.5,4.5,0,0,1,4.5-4.5h2.583" fill="none" stroke="#323232" stroke-linecap="round" stroke-linejoin="round" stroke-width="1.5"/><path d="M15.005,5.245a4.25,4.25,0,1,1-6.01,0,4.249,4.249,0,0,1,6.01,0" fill="none" stroke="#323232" stroke-linecap="round" stroke-linejoin="round" stroke-width="1.5"/></svg>