<svg id="Layer_3" data-name="Layer 3" xmlns="http://www.w3.org/2000/svg" viewBox="0 0 24 24"><title>dashnoard-square</title><path d="M0,0H24V24H0Z" fill="none"/><path d="M12.90869,7.7268l.90529,4.00584a1.85794,1.85794,0,0,1-.49954,1.7229h0a1.85889,1.85889,0,0,1-2.62888,0h0a1.85794,1.85794,0,0,1-.49954-1.7229l.90529-4.00584a.93042.93042,0,0,1,.25011-.454h0a.93138.93138,0,0,1,1.31716,0h0A.93042.93042,0,0,1,12.90869,7.7268Z" fill="none" stroke="#323232" stroke-linecap="round" stroke-linejoin="round" stroke-width="1.5"/><path d="M16,21H8a5,5,0,0,1-5-5V8A5,5,0,0,1,8,3h8a5,5,0,0,1,5,5v8A5,5,0,0,1,16,21Z" fill="none" stroke="#323232" stroke-linecap="round" stroke-linejoin="round" stroke-width="1.5"/></svg>