<svg id="Layer_3" data-name="Layer 3" xmlns="http://www.w3.org/2000/svg" viewBox="0 0 24 24"><path d="M17.46576,9.53424a6.09129,6.09129,0,0,1,.269.731" fill="none"/><path d="M13.73352,6.26648a6.10028,6.10028,0,0,1,.77271.28729" fill="none"/><line x1="17.73474" y1="10.26526" x2="19" y2="9" fill="none"/><line x1="17.73474" y1="10.26526" x2="16" y2="12" fill="none"/><line x1="13.73352" y1="6.26648" x2="12" y2="8" fill="none"/><line x1="15" y1="5" x2="13.73352" y2="6.26648" fill="none"/><rect width="24" height="24" fill="none"/><circle cx="12" cy="12" r="1.5" fill="none" stroke="#323232" stroke-linecap="round" stroke-linejoin="round" stroke-width="1.5"/><circle cx="12" cy="12" r="9" fill="none" stroke="#323232" stroke-linecap="round" stroke-linejoin="round" stroke-width="1.5"/><line x1="16" y1="8" x2="13.18369" y2="10.81631" fill="none" stroke="#323232" stroke-linecap="round" stroke-linejoin="round" stroke-width="1.5"/><path d="M12,6a6,6,0,0,0-6,6" fill="none" stroke="#323232" stroke-linecap="round" stroke-linejoin="round" stroke-width="1.5"/><path d="M13.73352,6.26648A5.91122,5.91122,0,0,0,12,6" fill="none" stroke="#323232" stroke-linecap="round" stroke-linejoin="round" stroke-width="1.5"/></svg>