<svg id="Layer_3" data-name="Layer 3" xmlns="http://www.w3.org/2000/svg" viewBox="0 0 24 24"><title>dashboard-square_1</title><path d="M15.85,9.487,13.569,13.1a1.933,1.933,0,0,1-1.635.9h0A1.934,1.934,0,0,1,10,12.066h0a1.933,1.933,0,0,1,.9-1.635L14.513,8.15A.968.968,0,0,1,15.031,8h0A.969.969,0,0,1,16,8.969h0A.968.968,0,0,1,15.85,9.487Z" fill="none" stroke="#323232" stroke-linecap="round" stroke-linejoin="round" stroke-width="1.5"/><rect x="3" y="3" width="18" height="18" rx="5" stroke-width="1.5" stroke="#323232" stroke-linecap="round" stroke-linejoin="round" fill="none"/><path d="M11.768,6.381a.25.25,0,1,0,.25-.251.249.249,0,0,0-.25.251" fill="none" stroke="#323232" stroke-linecap="round" stroke-linejoin="round" stroke-width="1.5"/><path d="M11.718,17.671a.25.25,0,1,0,.25-.251.249.249,0,0,0-.25.251" fill="none" stroke="#323232" stroke-linecap="round" stroke-linejoin="round" stroke-width="1.5"/><path d="M7.806,15.823a.25.25,0,1,0,.354,0,.248.248,0,0,0-.354,0" fill="none" stroke="#323232" stroke-linecap="round" stroke-linejoin="round" stroke-width="1.5"/><path d="M17.636,11.8a.25.25,0,1,0,.251.25.249.249,0,0,0-.251-.25" fill="none" stroke="#323232" stroke-linecap="round" stroke-linejoin="round" stroke-width="1.5"/><path d="M6.347,11.75A.25.25,0,1,0,6.6,12a.249.249,0,0,0-.251-.25" fill="none" stroke="#323232" stroke-linecap="round" stroke-linejoin="round" stroke-width="1.5"/><path d="M16.142,15.857a.249.249,0,0,0-.353,0,.25.25,0,0,0,.354.354.249.249,0,0,0,0-.354" fill="none" stroke="#323232" stroke-linecap="round" stroke-linejoin="round" stroke-width="1.5"/><path d="M8.2,7.839a.249.249,0,0,0-.353,0,.25.25,0,1,0,.353,0" fill="none" stroke="#323232" stroke-linecap="round" stroke-linejoin="round" stroke-width="1.5"/><path d="M0,0H24V24H0Z" fill="none"/></svg>