<svg id="Layer_3" data-name="Layer 3" xmlns="http://www.w3.org/2000/svg" viewBox="0 0 24 24"><title>dashboard-round</title><circle cx="12" cy="12.505" r="2" fill="none" stroke="#323232" stroke-linecap="round" stroke-linejoin="round" stroke-width="1.5"/><line x1="16" y1="8.505" x2="13.5" y2="11.005" fill="none" stroke="#323232" stroke-linecap="round" stroke-linejoin="round" stroke-width="1.5"/><line x1="18.296" y1="12.505" x2="17.396" y2="12.505" fill="none" stroke="#323232" stroke-linecap="round" stroke-linejoin="round" stroke-width="1.5"/><line x1="5.695" y1="12.505" x2="6.595" y2="12.505" fill="none" stroke="#323232" stroke-linecap="round" stroke-linejoin="round" stroke-width="1.5"/><line x1="11.996" y1="6.205" x2="11.996" y2="7.105" fill="none" stroke="#323232" stroke-linecap="round" stroke-linejoin="round" stroke-width="1.5"/><line x1="7.54" y1="8.05" x2="7.99" y2="8.5" fill="none" stroke="#323232" stroke-linecap="round" stroke-linejoin="round" stroke-width="1.5"/><path d="M11.719,3.5A9.1,9.1,0,0,0,3,12.481,8.979,8.979,0,0,0,6.739,19.8a3.886,3.886,0,0,0,2.276.7h5.978a3.814,3.814,0,0,0,2.227-.677A8.995,8.995,0,0,0,11.719,3.5Z" fill="none" stroke="#323232" stroke-linecap="round" stroke-linejoin="round" stroke-width="1.5"/><path d="M24,24H0V0H24Z" fill="none"/></svg>