<svg id="Layer_3" data-name="Layer 3" xmlns="http://www.w3.org/2000/svg" viewBox="0 0 24 24"><title>dashnoard-circle</title><circle cx="12" cy="12" r="9" fill="none" stroke="#323232" stroke-linecap="round" stroke-linejoin="round" stroke-width="1.5"/><path d="M15.85,9.487,13.569,13.1a1.933,1.933,0,0,1-1.635.9h0A1.934,1.934,0,0,1,10,12.066h0a1.933,1.933,0,0,1,.9-1.635L14.513,8.15A.968.968,0,0,1,15.031,8h0A.969.969,0,0,1,16,8.969h0A.968.968,0,0,1,15.85,9.487Z" fill="none" stroke="#323232" stroke-linecap="round" stroke-linejoin="round" stroke-width="1.5"/><path d="M12.017,6.13a.25.25,0,1,0,.251.25.249.249,0,0,0-.251-.25" fill="none" stroke="#323232" stroke-linecap="round" stroke-linejoin="round" stroke-width="1.5"/><path d="M11.967,17.42a.25.25,0,1,0,.251.25.249.249,0,0,0-.251-.25" fill="none" stroke="#323232" stroke-linecap="round" stroke-linejoin="round" stroke-width="1.5"/><path d="M7.841,7.84a.25.25,0,1,0,.355,0,.25.25,0,0,0-.355,0" fill="none" stroke="#323232" stroke-linecap="round" stroke-linejoin="round" stroke-width="1.5"/><path d="M15.789,15.858a.249.249,0,0,0,0,.353.25.25,0,1,0,0-.353" fill="none" stroke="#323232" stroke-linecap="round" stroke-linejoin="round" stroke-width="1.5"/><path d="M7.808,16.176a.25.25,0,1,0,0-.354.247.247,0,0,0,0,.354" fill="none" stroke="#323232" stroke-linecap="round" stroke-linejoin="round" stroke-width="1.5"/><path d="M6.1,12a.25.25,0,1,0,.25-.251A.249.249,0,0,0,6.1,12" fill="none" stroke="#323232" stroke-linecap="round" stroke-linejoin="round" stroke-width="1.5"/><path d="M17.387,12.051a.25.25,0,1,0,.25-.251.249.249,0,0,0-.25.251" fill="none" stroke="#323232" stroke-linecap="round" stroke-linejoin="round" stroke-width="1.5"/><path d="M0,0H24V24H0Z" fill="none"/></svg>