<svg id="Layer_3" data-name="Layer 3" xmlns="http://www.w3.org/2000/svg" viewBox="0 0 24 24"><title>dashboard-loading</title><path d="M24,0V24H0V0Z" fill="none"/><path d="M3.12157,13.41421a8.95445,8.95445,0,0,1-.08768-2.12132" fill="none" stroke="#323232" stroke-linecap="round" stroke-linejoin="round" stroke-width="1.5"/><path d="M16.23557,4.05919A8.994,8.994,0,0,1,20.82611,10.245" fill="none" stroke="#323232" stroke-linecap="round" stroke-linejoin="round" stroke-width="1.5"/><path d="M5.636,5.636a8.95586,8.95586,0,0,0-1.7515,2.49114" fill="none" stroke="#323232" stroke-linecap="round" stroke-linejoin="round" stroke-width="1.5"/><path d="M20.81267,13.7416a8.982,8.982,0,0,1-16.75348,2.494" fill="none" stroke="#323232" stroke-linecap="round" stroke-linejoin="round" stroke-width="1.5"/><path d="M8.12859,3.886a9.024,9.024,0,0,1,5.28633-.76509" fill="none" stroke="#323232" stroke-linecap="round" stroke-linejoin="round" stroke-width="1.5"/><path d="M12,14a1.85915,1.85915,0,0,0,1.81339-2.26909l-.90546-4.00532A.93084.93084,0,0,0,12,7h0a.93084.93084,0,0,0-.90793.72559l-.90546,4.00532A1.85915,1.85915,0,0,0,12,14Z" fill="none" stroke="#323232" stroke-linecap="round" stroke-linejoin="round" stroke-width="1.5"/></svg>