<?xml version="1.0" encoding="utf-8"?>
<!-- Generator: Adobe Illustrator 23.1.0, SVG Export Plug-In . SVG Version: 6.00 Build 0)  -->
<svg version="1.1" id="icons" xmlns="http://www.w3.org/2000/svg" xmlns:xlink="http://www.w3.org/1999/xlink" x="0px" y="0px"
	 width="24px" height="24px" viewBox="0 0 24 24" enable-background="new 0 0 24 24" xml:space="preserve">
<g>
	<path fill="none" d="M0,0h24v24H0V0z"/>
	<g>
		<path fill="none" stroke="#323232" stroke-width="1.5" stroke-linecap="round" stroke-linejoin="round" d="M7.415,20.415
			l-3.829-3.829C3.211,16.211,3,15.702,3,15.172V8.828c0-0.53,0.211-1.039,0.585-1.413l3.829-3.829C7.789,3.211,8.298,3,8.828,3
			h6.342c0.531,0,1.04,0.211,1.415,0.586l3.828,3.828C20.789,7.79,21,8.3,21,8.831v6.34c0,0.53-0.211,1.038-0.585,1.413l-3.829,3.83
			C16.211,20.789,15.702,21,15.171,21H8.828C8.298,21,7.789,20.789,7.415,20.415z"/>
		<path fill="none" stroke="#323232" stroke-width="1.5" stroke-linecap="round" stroke-linejoin="round" d="M5.751,18.249
			L18.249,5.751"/>
	</g>
</g>
</svg>
