<svg id="Layer_3" data-name="Layer 3" xmlns="http://www.w3.org/2000/svg" viewBox="0 0 24 24"><title>delete-button</title><path d="M5.841,18,3.535,14a4,4,0,0,1,0-4L5.842,6A4,4,0,0,1,9.307,4h5.386a4,4,0,0,1,3.466,2l2.306,4a4,4,0,0,1,0,4l-2.307,4a4,4,0,0,1-3.465,2H9.307A4,4,0,0,1,5.841,18Z" fill="none" stroke="#323232" stroke-miterlimit="10" stroke-width="1.5"/><line x1="9.5" y1="14.5" x2="14.5" y2="9.5" fill="none" stroke="#323232" stroke-linecap="round" stroke-linejoin="round" stroke-width="1.5"/><line x1="14.5" y1="14.5" x2="9.5" y2="9.5" fill="none" stroke="#323232" stroke-linecap="round" stroke-linejoin="round" stroke-width="1.5"/><path d="M0,0H24V24H0Z" fill="none"/></svg>