<?xml version="1.0" encoding="utf-8"?>
<!-- Generator: Adobe Illustrator 24.0.2, SVG Export Plug-In . SVG Version: 6.00 Build 0)  -->
<svg version="1.1" id="Layer_3" xmlns="http://www.w3.org/2000/svg" xmlns:xlink="http://www.w3.org/1999/xlink" x="0px" y="0px"
	 width="24px" height="24px" viewBox="0 0 24 24" enable-background="new 0 0 24 24" xml:space="preserve">
<g>
	<g>
		<path fill="none" d="M0,0h24v24H0V0z"/>
	</g>
	<g>
		<path fill="none" stroke="#323232" stroke-width="1.5" stroke-linecap="round" stroke-linejoin="round" d="M15,7h4.323
			c0.409,0,0.777,0.249,0.928,0.629l1.606,4.014C21.951,11.879,22,12.131,22,12.385v5.948c0,0.552-0.448,1-1,1h-1.831"/>
		<path fill="none" stroke="#323232" stroke-width="1.5" stroke-linecap="round" stroke-linejoin="round" d="M16,19.42H8.17"/>
		<path fill="none" stroke="#323232" stroke-width="1.5" stroke-linecap="round" stroke-linejoin="round" d="M22,14h-4v-4h3.2"/>
		<path fill="none" stroke="#323232" stroke-width="1.5" stroke-linecap="round" stroke-linejoin="round" d="M12.556,5H14
			c0.552,0,1,0.448,1,1v9H2"/>
		<path fill="none" stroke="#323232" stroke-width="1.5" stroke-linecap="round" stroke-linejoin="round" d="M18.704,18.296
			c0.619,0.619,0.619,1.622,0,2.24c-0.619,0.619-1.622,0.619-2.24,0c-0.619-0.619-0.619-1.622,0-2.24
			C17.083,17.678,18.086,17.678,18.704,18.296"/>
		<path fill="none" stroke="#323232" stroke-width="1.5" stroke-linecap="round" stroke-linejoin="round" d="M7.704,18.296
			c0.619,0.619,0.619,1.622,0,2.24c-0.619,0.619-1.622,0.619-2.24,0s-0.619-1.622,0-2.24S7.085,17.678,7.704,18.296"/>
		<path fill="none" stroke="#323232" stroke-width="1.5" stroke-linecap="round" stroke-linejoin="round" d="M5,19.416H3
			c-0.552,0-1-0.448-1-1V6c0-0.552,0.448-1,1-1h1.238"/>
		<path fill="none" stroke="#323232" stroke-width="1.5" d="M8.397,9.318c-2.297,0-4.159-1.862-4.159-4.159
			C4.238,2.909,6.151,0.998,8.4,1c2.296,0.002,4.155,1.863,4.155,4.159C12.555,7.455,10.694,9.318,8.397,9.318"/>
		<path fill="none" stroke="#323232" stroke-width="1.5" stroke-linecap="round" stroke-linejoin="round" d="M10.245,4.235
			L7.934,6.546L6.548,5.159"/>
	</g>
</g>
</svg>
