<?xml version="1.0" encoding="utf-8"?>
<!-- Generator: Adobe Illustrator 24.0.2, SVG Export Plug-In . SVG Version: 6.00 Build 0)  -->
<svg version="1.1" id="Layer_3" xmlns="http://www.w3.org/2000/svg" xmlns:xlink="http://www.w3.org/1999/xlink" x="0px" y="0px"
	 width="24px" height="24px" viewBox="0 0 24 24" enable-background="new 0 0 24 24" xml:space="preserve">
<g>
	<g>
		<g>
			<path fill="none" d="M0,0h24v24H0V0z"/>
		</g>
	</g>
	<g>
		<g>
			<path fill="none" stroke="#333232" stroke-width="1.5" stroke-linecap="round" stroke-linejoin="round" d="M19,3H9.667
				c-0.649,0-1.281,0.211-1.8,0.6L4.2,6.35C3.445,6.917,3,7.806,3,8.75V19c0,1.105,0.895,2,2,2h10.5c0.944,0,1.833-0.445,2.4-1.2
				l2.7-3.6c0.26-0.346,0.4-0.767,0.4-1.2V5C21,3.895,20.105,3,19,3z"/>
		</g>
		
			<line fill="none" stroke="#333232" stroke-width="1.5" stroke-linecap="round" stroke-linejoin="round" x1="17" y1="7.308" x2="20.636" y2="3.871"/>
		
			<line fill="none" stroke="#333232" stroke-width="1.5" stroke-linecap="round" stroke-linejoin="round" x1="17" y1="20.595" x2="17" y2="7.308"/>
		
			<line fill="none" stroke="#333232" stroke-width="1.5" stroke-linecap="round" stroke-linejoin="round" x1="17" y1="7.308" x2="3.375" y2="7.308"/>
		
			<line fill="none" stroke="#333232" stroke-width="1.5" stroke-linecap="round" stroke-linejoin="round" x1="10.363" y1="7.308" x2="15.286" y2="3"/>
		
			<line fill="none" stroke="#333232" stroke-width="1.5" stroke-linecap="round" stroke-linejoin="round" x1="8" y1="11" x2="12" y2="11"/>
	</g>
</g>
</svg>
