<?xml version="1.0" encoding="utf-8"?>
<!-- Generator: Adobe Illustrator 24.0.2, SVG Export Plug-In . SVG Version: 6.00 Build 0)  -->
<svg version="1.1" id="Layer_3" xmlns="http://www.w3.org/2000/svg" xmlns:xlink="http://www.w3.org/1999/xlink" x="0px" y="0px"
	 width="24px" height="24px" viewBox="0 0 24 24" enable-background="new 0 0 24 24" xml:space="preserve">
<g>
	<g>
		<path fill="none" stroke="#323232" stroke-width="1.5" stroke-linecap="round" stroke-linejoin="round" d="M13,21H5.25
			C4.007,21,3,19.993,3,18.75V8.14c0-0.304,0.062-0.605,0.181-0.884l1.235-2.89C4.771,3.538,5.584,3,6.485,3h11.029
			c0.901,0,1.715,0.538,2.069,1.366l1.235,2.89C20.938,7.536,21,7.836,21,8.14V12"/>
		<path fill="none" stroke="#323232" stroke-width="1.5" stroke-linecap="round" stroke-linejoin="round" d="M12,3v4.995"/>
		<path fill="none" stroke="#323232" stroke-width="1.5" stroke-linecap="round" stroke-linejoin="round" d="M20.989,8H3"/>
		<path fill="none" stroke="#323232" stroke-width="1.5" stroke-linecap="round" stroke-linejoin="round" d="M6,17h2"/>
		<g>
			<path fill="none" stroke="#323232" stroke-width="1.5" stroke-linecap="round" stroke-linejoin="round" d="M20.121,14.88
				c1.172,1.172,1.172,3.071,0,4.242c-1.172,1.172-3.071,1.172-4.242,0c-1.172-1.172-1.172-3.071,0-4.242S18.95,13.708,20.121,14.88
				"/>
			<path fill="none" stroke="#323232" stroke-width="1.5" stroke-linecap="round" stroke-linejoin="round" d="M22,21l-1.879-1.878"
				/>
		</g>
	</g>
	<path fill="none" d="M0,0h24v24H0V0z"/>
</g>
</svg>
