<?xml version="1.0" encoding="utf-8"?>
<!-- Generator: Adobe Illustrator 24.0.2, SVG Export Plug-In . SVG Version: 6.00 Build 0)  -->
<svg version="1.1" id="Layer_1" xmlns="http://www.w3.org/2000/svg" xmlns:xlink="http://www.w3.org/1999/xlink" x="0px" y="0px"
	 width="24px" height="24px" viewBox="0 0 24 24" style="enable-background:new 0 0 24 24;" xml:space="preserve">
<style type="text/css">
	.st0{fill:none;stroke:#323232;stroke-width:1.5;stroke-linecap:round;stroke-linejoin:round;}
	.st1{fill:none;}
</style>
<g>
	<g>
		<path class="st0" d="M8,17l2,2l-2,2"/>
		<path class="st0" d="M3,15v2c0,1.1,0.9,2,2,2h5"/>
		<path class="st0" d="M21,9V7c0-1.1-0.9-2-2-2h-5"/>
		<path class="st0" d="M16,7l-2-2l2-2"/>
		<path class="st0" d="M11,8.9V5.1c0-0.4-0.2-0.8-0.6-1L7.1,2.2c-0.4-0.2-0.8-0.2-1.2,0L2.6,4.1C2.2,4.3,2,4.7,2,5.1v3.8
			c0,0.4,0.2,0.8,0.6,1l3.3,1.9c0.4,0.2,0.8,0.2,1.2,0l3.3-1.9C10.8,9.7,11,9.3,11,8.9z"/>
		<path class="st0" d="M2.2,4.5L6.5,7l4.3-2.5"/>
		<path class="st0" d="M6.5,7v5"/>
		<path class="st0" d="M22,18.9v-3.8c0-0.4-0.2-0.8-0.6-1l-3.3-1.9c-0.4-0.2-0.8-0.2-1.2,0l-3.3,1.9c-0.4,0.2-0.6,0.6-0.6,1v3.8
			c0,0.4,0.2,0.8,0.6,1l3.3,1.9c0.4,0.2,0.8,0.2,1.2,0l3.3-1.9C21.8,19.7,22,19.3,22,18.9z"/>
		<path class="st0" d="M13.2,14.5l4.3,2.5l4.3-2.5"/>
		<path class="st0" d="M17.5,17v5"/>
	</g>
	<rect y="0" class="st1" width="24" height="24"/>
</g>
</svg>
