<svg id="Layer_3" data-name="Layer 3" xmlns="http://www.w3.org/2000/svg" viewBox="0 0 24 24"><title>delivery-truck-cancel</title><path d="M0,0H24V24H0Z" fill="none"/><path d="M15,8h4.323a1,1,0,0,1,.928.629l1.606,4.014a2.007,2.007,0,0,1,.143.742V19.42a1,1,0,0,1-1,1H19.169" fill="none" stroke="#323232" stroke-linecap="round" stroke-linejoin="round" stroke-width="1.5"/><path d="M16,20.42H8.17" fill="none" stroke="#323232" stroke-linecap="round" stroke-linejoin="round" stroke-width="1.5"/><path d="M22,15H18V11h3.2" fill="none" stroke="#323232" stroke-linecap="round" stroke-linejoin="round" stroke-width="1.5"/><path d="M12.556,6H14a1,1,0,0,1,1,1v9H2" fill="none" stroke="#323232" stroke-linecap="round" stroke-linejoin="round" stroke-width="1.5"/><path d="M18.7,19.3a1.584,1.584,0,1,1-2.24,0,1.583,1.583,0,0,1,2.24,0" fill="none" stroke="#323232" stroke-linecap="round" stroke-linejoin="round" stroke-width="1.5"/><path d="M7.7,19.3a1.584,1.584,0,1,1-2.24,0,1.583,1.583,0,0,1,2.24,0" fill="none" stroke="#323232" stroke-linecap="round" stroke-linejoin="round" stroke-width="1.5"/><path d="M5,20.416H3a1,1,0,0,1-1-1V7A1,1,0,0,1,3,6H4.238" fill="none" stroke="#323232" stroke-linecap="round" stroke-linejoin="round" stroke-width="1.5"/><line x1="7.416" y1="5.179" x2="9.377" y2="7.14" fill="none" stroke="#323232" stroke-linecap="round" stroke-linejoin="round" stroke-width="1.5"/><line x1="7.416" y1="7.14" x2="9.377" y2="5.179" fill="none" stroke="#323232" stroke-linecap="round" stroke-linejoin="round" stroke-width="1.5"/><circle cx="8.397" cy="6.159" r="4.159" fill="none" stroke="#323232" stroke-linecap="round" stroke-linejoin="round" stroke-width="1.5"/></svg>