<?xml version="1.0" encoding="utf-8"?>
<!-- Generator: Adobe Illustrator 24.0.2, SVG Export Plug-In . SVG Version: 6.00 Build 0)  -->
<svg version="1.1" id="Layer_3" xmlns="http://www.w3.org/2000/svg" xmlns:xlink="http://www.w3.org/1999/xlink" x="0px" y="0px"
	 width="24px" height="24px" viewBox="0 0 24 24" enable-background="new 0 0 24 24" xml:space="preserve">
<g>
	<g>
		<path fill="none" stroke="#323232" stroke-width="1.5" stroke-linecap="round" stroke-linejoin="round" d="M12,21H5
			c-1.105,0-2-0.895-2-2V5c0-1.105,0.895-2,2-2h14c1.105,0,2,0.895,2,2v7"/>
		<path fill="none" stroke="#323232" stroke-width="1.5" stroke-linecap="round" stroke-linejoin="round" d="M14.767,18.691
			c-0.274-0.416-0.274-0.964,0-1.38C15.615,16.028,16.947,15,18.28,15s2.664,1.028,3.513,2.31c0.275,0.416,0.275,0.965,0,1.38
			C20.943,19.972,19.612,21,18.28,21C16.947,21.001,15.615,19.973,14.767,18.691z"/>
		<path fill="none" stroke="#323232" stroke-width="1.5" stroke-linecap="round" stroke-linejoin="round" d="M18.38,17.901
			c0.056,0.056,0.056,0.145,0,0.201c-0.056,0.056-0.145,0.056-0.201,0c-0.056-0.056-0.056-0.145,0-0.201
			C18.235,17.845,18.325,17.845,18.38,17.901"/>
		<path fill="none" stroke="#323232" stroke-width="1.5" stroke-linecap="round" stroke-linejoin="round" d="M15,3v5
			c0,0.552-0.448,1-1,1h-4C9.448,9,9,8.552,9,8V3"/>
	</g>
	<path fill="none" d="M0,0h24v24H0V0z"/>
</g>
</svg>
