<?xml version="1.0" encoding="utf-8"?>
<!-- Generator: Adobe Illustrator 24.0.2, SVG Export Plug-In . SVG Version: 6.00 Build 0)  -->
<svg version="1.1" id="Layer_3" xmlns="http://www.w3.org/2000/svg" xmlns:xlink="http://www.w3.org/1999/xlink" x="0px" y="0px"
	 width="24px" height="24px" viewBox="0 0 24 24" enable-background="new 0 0 24 24" xml:space="preserve">
<g>
	<path fill="none" d="M0,0h24v24H0V0z"/>
	<g>
		<path fill="none" stroke="#323232" stroke-width="1.5" stroke-linecap="round" stroke-linejoin="round" d="M5,3h13
			c1.105,0,2,0.895,2,2v6"/>
		<path fill="none" stroke="#323232" stroke-width="1.5" stroke-linecap="round" stroke-linejoin="round" d="M11,21H5"/>
		<path fill="none" stroke="#323232" stroke-width="1.5" stroke-linecap="round" stroke-linejoin="round" d="M8,11v2"/>
		<path fill="none" stroke="#323232" stroke-width="1.5" stroke-linecap="round" stroke-linejoin="round" d="M3,5.003v13.995
			c0,1.487,1.565,2.454,2.894,1.789l4-2c0.678-0.34,1.106-1.032,1.106-1.79V7.003c0-0.758-0.428-1.45-1.106-1.789l-4-2
			C4.565,2.549,3,3.516,3,5.003z"/>
		<g>
			<path fill="none" stroke="#323232" stroke-width="1.5" stroke-linecap="round" stroke-linejoin="round" d="M21.222,22h-5.444
				C15.348,22,15,21.652,15,21.222v-5.444C15,15.348,15.348,15,15.778,15h5.444C21.652,15,22,15.348,22,15.778v5.444
				C22,21.652,21.652,22,21.222,22z"/>
		</g>
		
			<line fill="none" stroke="#323232" stroke-width="1.5" stroke-linecap="round" stroke-linejoin="round" x1="18" y1="18" x2="19" y2="18"/>
	</g>
</g>
</svg>
