<?xml version="1.0" encoding="utf-8"?>
<!-- Generator: Adobe Illustrator 24.0.2, SVG Export Plug-In . SVG Version: 6.00 Build 0)  -->
<svg version="1.1" id="Layer_3" xmlns="http://www.w3.org/2000/svg" xmlns:xlink="http://www.w3.org/1999/xlink" x="0px" y="0px"
	 width="24px" height="24px" viewBox="0 0 24 24" enable-background="new 0 0 24 24" xml:space="preserve">
<g>
	<g>
		<path fill="none" stroke="#323232" stroke-width="1.5" stroke-linecap="round" stroke-linejoin="round" d="M18.704,18.296
			c0.619,0.619,0.619,1.622,0,2.24c-0.619,0.619-1.622,0.619-2.24,0c-0.619-0.619-0.619-1.622,0-2.24
			C17.083,17.677,18.086,17.677,18.704,18.296"/>
		<path fill="none" stroke="#323232" stroke-width="1.5" stroke-linecap="round" stroke-linejoin="round" d="M7.704,18.296
			c0.619,0.619,0.619,1.622,0,2.24c-0.619,0.619-1.622,0.619-2.24,0s-0.619-1.622,0-2.24S7.085,17.677,7.704,18.296"/>
		<path fill="none" stroke="#323232" stroke-width="1.5" stroke-linecap="round" stroke-linejoin="round" d="M10,4h4
			c0.552,0,1,0.448,1,1v10H2"/>
		<path fill="none" stroke="#323232" stroke-width="1.5" stroke-linecap="round" stroke-linejoin="round" d="M5,19.416H3
			c-0.552,0-1-0.448-1-1V13"/>
		<path fill="none" stroke="#323232" stroke-width="1.5" stroke-linecap="round" stroke-linejoin="round" d="M15,7h4.323
			c0.409,0,0.777,0.249,0.928,0.629l1.606,4.014C21.951,11.879,22,12.131,22,12.385v5.948c0,0.552-0.448,1-1,1h-1.831"/>
		<path fill="none" stroke="#323232" stroke-width="1.5" stroke-linecap="round" stroke-linejoin="round" d="M16,19.42H8.17"/>
		<path fill="none" stroke="#323232" stroke-width="1.5" stroke-linecap="round" stroke-linejoin="round" d="M22,14h-4v-4h3.2"/>
		
			<line fill="none" stroke="#323232" stroke-width="1.5" stroke-linecap="round" stroke-linejoin="round" x1="2" y1="4" x2="7" y2="4"/>
		
			<line fill="none" stroke="#323232" stroke-width="1.5" stroke-linecap="round" stroke-linejoin="round" x1="2" y1="7" x2="5" y2="7"/>
		
			<line fill="none" stroke="#323232" stroke-width="1.5" stroke-linecap="round" stroke-linejoin="round" x1="3" y1="10" x2="2" y2="10"/>
	</g>
	<path fill="none" d="M0,0h24v24H0V0z"/>
</g>
</svg>
