<?xml version="1.0" encoding="utf-8"?>
<!-- Generator: Adobe Illustrator 24.0.2, SVG Export Plug-In . SVG Version: 6.00 Build 0)  -->
<svg version="1.1" id="Layer_3" xmlns="http://www.w3.org/2000/svg" xmlns:xlink="http://www.w3.org/1999/xlink" x="0px" y="0px"
	 width="24px" height="24px" viewBox="0 0 24 24" enable-background="new 0 0 24 24" xml:space="preserve">
<g>
	<g>
		<g>
			<path fill="none" d="M0,0h24v24H0V0z"/>
		</g>
	</g>
	<g>
		<g>
			<path fill="none" stroke="#323232" stroke-width="1.5" stroke-linecap="round" stroke-linejoin="round" d="M21,10V5
				c0-1.105-0.895-2-2-2H5C3.895,3,3,3.895,3,5v14c0,1.105,0.895,2,2,2h6"/>
		</g>
		<g>
			<path fill="none" stroke="#323232" stroke-width="1.5" stroke-linecap="round" stroke-linejoin="round" d="M15,3.077v4.489
				c0,0.552-0.448,1-1,1h-4c-0.552,0-1-0.448-1-1V3"/>
		</g>
		<path fill="none" stroke="#323232" stroke-width="1.5" stroke-linecap="round" stroke-linejoin="round" d="M18.287,20.707
			l3.42-3.42c0.391-0.391,0.391-1.024,0-1.414l-1.586-1.586c-0.391-0.391-1.024-0.391-1.414,0l-3.42,3.42
			c-0.188,0.188-0.293,0.442-0.293,0.707V21h2.586C17.845,21,18.099,20.895,18.287,20.707z"/>
	</g>
</g>
</svg>
