<?xml version="1.0" encoding="utf-8"?>
<!-- Generator: Adobe Illustrator 24.0.2, SVG Export Plug-In . SVG Version: 6.00 Build 0)  -->
<svg version="1.1" id="Layer_3" xmlns="http://www.w3.org/2000/svg" xmlns:xlink="http://www.w3.org/1999/xlink" x="0px" y="0px"
	 width="24px" height="24px" viewBox="0 0 24 24" enable-background="new 0 0 24 24" xml:space="preserve">
<g>
	<g>
		<g>
			<path fill="none" stroke="#323232" stroke-width="1.5" stroke-linecap="round" stroke-linejoin="round" d="M15,3v5
				c0,0.552-0.448,1-1,1h-4C9.448,9,9,8.552,9,8V3"/>
		</g>
		<g>
			<path fill="none" stroke="#323232" stroke-width="1.5" stroke-linecap="round" stroke-linejoin="round" d="M21,12V5
				c0-1.105-0.895-2-2-2H5C3.895,3,3,3.895,3,5v14c0,1.105,0.895,2,2,2h7"/>
		</g>
		<path fill="none" stroke="#323232" stroke-width="1.3125" stroke-linecap="round" stroke-linejoin="round" d="M22,18.5
			c0,1.937-1.563,3.5-3.5,3.5S15,20.437,15,18.5s1.563-3.5,3.5-3.5S22,16.563,22,18.5z"/>
		<path fill="none" stroke="#323232" stroke-width="1.3125" stroke-linecap="round" stroke-linejoin="round" d="M16.026,20.974
			l4.948-4.948"/>
	</g>
	<path fill="none" d="M0,0h24v24H0V0z"/>
</g>
</svg>
