<?xml version="1.0" encoding="utf-8"?>
<!-- Generator: Adobe Illustrator 24.0.2, SVG Export Plug-In . SVG Version: 6.00 Build 0)  -->
<svg version="1.1" id="Layer_3" xmlns="http://www.w3.org/2000/svg" xmlns:xlink="http://www.w3.org/1999/xlink" x="0px" y="0px"
	 width="24px" height="24px" viewBox="0 0 24 24" enable-background="new 0 0 24 24" xml:space="preserve">
<g>
	<g>
		<g>
			<path fill="none" stroke="#323232" stroke-width="1.5" stroke-linecap="round" stroke-linejoin="round" d="M15,2.511V7
				c0,0.552-0.448,1-1,1h-4C9.448,8,9,7.552,9,7V2.434"/>
		</g>
		<path fill="none" d="M0,0h24v24H0V0z"/>
	</g>
	<path fill="none" stroke="#323232" stroke-width="1.5" stroke-linecap="round" stroke-linejoin="round" d="M19.542,14.758
		l2.265,4.025C22.364,19.774,21.648,21,20.511,21h-4.529c-1.138,0-1.853-1.224-1.296-2.217l2.265-4.025
		C17.518,13.747,18.973,13.747,19.542,14.758z"/>
	<g>
		<path fill="none" stroke="#323232" stroke-width="1.5" stroke-linecap="round" stroke-linejoin="round" d="M21,10.434v-6
			c0-1.105-0.895-2-2-2H5c-1.105,0-2,0.895-2,2V18c0,1.105,0.895,2,2,2h5"/>
	</g>
</g>
</svg>
