<svg id="Layer_3" data-name="Layer 3" xmlns="http://www.w3.org/2000/svg" viewBox="0 0 24 24"><rect width="24" height="24" fill="none"/><path d="M4.93439,17.70447l6.15831,3.0813a2.02686,2.02686,0,0,0,1.82321-.0047l6.06573-3.0742a2.02685,2.02685,0,0,0,1.10412-1.64637l.70041-8.7601A3.983,3.983,0,0,0,16.81589,3H7.16607A3.983,3.983,0,0,0,3.19324,7.26673l.62639,8.76954A2.02685,2.02685,0,0,0,4.93439,17.70447Z" fill="none" stroke="#323232" stroke-linecap="round" stroke-linejoin="round" stroke-width="1.5"/><polyline points="10 9 7 11.1 7 11.97 11 14 13 9 17 11.03 17 11.9 14 14" fill="none" stroke="#323232" stroke-linecap="round" stroke-linejoin="round" stroke-width="1.5"/></svg>