<svg id="Layer_3" data-name="Layer 3" xmlns="http://www.w3.org/2000/svg" viewBox="0 0 24 24"><title>diamond-circle</title><path d="M12.379,15.80941h0a21.30816,21.30816,0,0,1,3.21049-3.42729l.01981-.01695a.48166.48166,0,0,0,0-.732l-.01981-.01695A21.30816,21.30816,0,0,1,12.379,8.189h0a.47323.47323,0,0,0-.7579,0h0a21.30816,21.30816,0,0,1-3.21049,3.42729l-.01981.01695a.48166.48166,0,0,0,0,.732l.01981.01695a21.30816,21.30816,0,0,1,3.21049,3.42729h0A.47323.47323,0,0,0,12.379,15.80941Z" fill="none" stroke="#323232" stroke-linecap="round" stroke-linejoin="round" stroke-width="1.5"/><path id="a" d="M18.364,5.636a9,9,0,1,1-12.72792,0,9,9,0,0,1,12.72792,0" fill="none" stroke="#323232" stroke-linecap="round" stroke-linejoin="round" stroke-width="1.5"/><path id="a-2" data-name="a" d="M18.364,5.636a9,9,0,1,1-12.72792,0,9,9,0,0,1,12.72792,0" fill="none" stroke="#323232" stroke-linecap="round" stroke-linejoin="round" stroke-width="1.5"/><rect width="24" height="24" fill="none"/></svg>