<svg id="Layer_3" data-name="Layer 3" xmlns="http://www.w3.org/2000/svg" viewBox="0 0 24 24"><title>diaper</title><line x1="17" y1="7.5" x2="18" y2="7.5" fill="none" stroke="#323232" stroke-linecap="round" stroke-linejoin="round" stroke-width="1.5"/><line x1="17" y1="10.5" x2="18" y2="10.5" fill="none" stroke="#323232" stroke-linecap="round" stroke-linejoin="round" stroke-width="1.5"/><line x1="6" y1="7.5" x2="7" y2="7.5" fill="none" stroke="#323232" stroke-linecap="round" stroke-linejoin="round" stroke-width="1.5"/><line x1="6" y1="10.5" x2="7" y2="10.5" fill="none" stroke="#323232" stroke-linecap="round" stroke-linejoin="round" stroke-width="1.5"/><path d="M12,20.5h0c4.971,0,9-3.029,9-8v-5a4,4,0,0,0-4-4H7a4,4,0,0,0-4,4v5C3,17.471,7.029,20.5,12,20.5Z" fill="none" stroke="#323232" stroke-linecap="round" stroke-linejoin="round" stroke-width="1.5"/><path d="M12,20.5h0c-4.971,0-9-3.029-9-8v-5a4,4,0,0,1,4-4H17a4,4,0,0,1,4,4v5C21,17.471,16.971,20.5,12,20.5Z" fill="none" stroke="#323232" stroke-linecap="round" stroke-linejoin="round" stroke-width="1.5"/><path d="M9,20.1V18.5a5,5,0,0,0-5-5H3.057" fill="none" stroke="#323232" stroke-linecap="round" stroke-linejoin="round" stroke-width="1.5"/><rect x="10.062" y="7.062" width="3.875" height="3.875" rx="1.183" transform="translate(9.879 -5.849) rotate(45)" stroke-width="1.5" stroke="#323232" stroke-linecap="round" stroke-linejoin="round" fill="none"/><path d="M15,20.1V18.5a5,5,0,0,1,5-5h.943" fill="none" stroke="#323232" stroke-linecap="round" stroke-linejoin="round" stroke-width="1.5"/><rect width="24" height="24" fill="none"/></svg>