<svg id="Layer_3" data-name="Layer 3" xmlns="http://www.w3.org/2000/svg" viewBox="0 0 24 24"><title>dices</title><rect width="24" height="24" fill="none"/><rect x="3" y="9" width="12" height="12" rx="2" stroke-width="1.5" stroke="#323232" stroke-linecap="round" stroke-linejoin="round" fill="none"/><path d="M15,15h4a2.00588,2.00588,0,0,0,2-2V5a2.00588,2.00588,0,0,0-2-2H11A2.00588,2.00588,0,0,0,9,5V9" fill="none" stroke="#323232" stroke-linecap="round" stroke-linejoin="round" stroke-width="1.5"/><path d="M12.3335,5.99983A.3335.3335,0,1,1,12,5.66633" fill="none" stroke="#323232" stroke-linecap="round" stroke-linejoin="round" stroke-width="1.5"/><path d="M12,5.66633a.3335.3335,0,0,1,.3335.3335" fill="none" stroke="#323232" stroke-linecap="round" stroke-linejoin="round" stroke-width="1.5"/><path d="M18.3335,5.99983A.3335.3335,0,1,1,18,5.66633" fill="none" stroke="#323232" stroke-linecap="round" stroke-linejoin="round" stroke-width="1.5"/><path d="M18,5.66633a.3335.3335,0,0,1,.3335.3335" fill="none" stroke="#323232" stroke-linecap="round" stroke-linejoin="round" stroke-width="1.5"/><path d="M18.3335,11.99983A.3335.3335,0,1,1,18,11.66633" fill="none" stroke="#323232" stroke-linecap="round" stroke-linejoin="round" stroke-width="1.5"/><path d="M18,11.66633a.3335.3335,0,0,1,.3335.3335" fill="none" stroke="#323232" stroke-linecap="round" stroke-linejoin="round" stroke-width="1.5"/><path d="M12.3335,11.99983A.3335.3335,0,1,1,12,11.66633" fill="none" stroke="#323232" stroke-linecap="round" stroke-linejoin="round" stroke-width="1.5"/><path d="M12,11.66633a.3335.3335,0,0,1,.3335.3335" fill="none" stroke="#323232" stroke-linecap="round" stroke-linejoin="round" stroke-width="1.5"/><path d="M6.3335,11.99983A.3335.3335,0,1,1,6,11.66633" fill="none" stroke="#323232" stroke-linecap="round" stroke-linejoin="round" stroke-width="1.5"/><path d="M6,11.66633a.3335.3335,0,0,1,.3335.3335" fill="none" stroke="#323232" stroke-linecap="round" stroke-linejoin="round" stroke-width="1.5"/><path d="M9.3335,14.99983A.3335.3335,0,1,1,9,14.66633" fill="none" stroke="#323232" stroke-linecap="round" stroke-linejoin="round" stroke-width="1.5"/><path d="M9,14.66633a.3335.3335,0,0,1,.3335.3335" fill="none" stroke="#323232" stroke-linecap="round" stroke-linejoin="round" stroke-width="1.5"/><path d="M12.3335,17.99983A.3335.3335,0,1,1,12,17.66633" fill="none" stroke="#323232" stroke-linecap="round" stroke-linejoin="round" stroke-width="1.5"/><path d="M12,17.66633a.3335.3335,0,0,1,.3335.3335" fill="none" stroke="#323232" stroke-linecap="round" stroke-linejoin="round" stroke-width="1.5"/><path d="M6.3335,17.99983A.3335.3335,0,1,1,6,17.66633" fill="none" stroke="#323232" stroke-linecap="round" stroke-linejoin="round" stroke-width="1.5"/><path d="M6,17.66633a.3335.3335,0,0,1,.3335.3335" fill="none" stroke="#323232" stroke-linecap="round" stroke-linejoin="round" stroke-width="1.5"/></svg>