<svg id="Layer_3" data-name="Layer 3" xmlns="http://www.w3.org/2000/svg" viewBox="0 0 24 24"><title>dice-three</title><rect width="24" height="24" fill="none"/><path d="M17,3H7A4.01176,4.01176,0,0,0,3,7V17a4.01176,4.01176,0,0,0,4,4H17a4.01176,4.01176,0,0,0,4-4V7A4.01176,4.01176,0,0,0,17,3Z" fill="none" stroke="#323232" stroke-linecap="round" stroke-linejoin="round" stroke-width="1.5"/><path d="M12.5,12a.5.5,0,1,1-.5-.5" fill="none" stroke="#323232" stroke-linecap="round" stroke-linejoin="round" stroke-width="1.5"/><path d="M12,11.5a.5.5,0,0,1,.5.5" fill="none" stroke="#323232" stroke-linecap="round" stroke-linejoin="round" stroke-width="1.5"/><path d="M15.68206,8.818a.5.5,0,1,1-.5-.5" fill="none" stroke="#323232" stroke-linecap="round" stroke-linejoin="round" stroke-width="1.5"/><path d="M15.18206,8.318a.5.5,0,0,1,.5.5" fill="none" stroke="#323232" stroke-linecap="round" stroke-linejoin="round" stroke-width="1.5"/><path d="M9.3181,15.182a.5.5,0,1,1-.5-.5" fill="none" stroke="#323232" stroke-linecap="round" stroke-linejoin="round" stroke-width="1.5"/><path d="M8.8181,14.682a.5.5,0,0,1,.5.5" fill="none" stroke="#323232" stroke-linecap="round" stroke-linejoin="round" stroke-width="1.5"/></svg>