<svg id="Layer_3" data-name="Layer 3" xmlns="http://www.w3.org/2000/svg" viewBox="0 0 24 24"><title>dice-four-circle</title><path id="a" d="M18.364,5.636a9,9,0,1,1-12.72792,0,9,9,0,0,1,12.72792,0" fill="none" stroke="#323232" stroke-linecap="round" stroke-linejoin="round" stroke-width="1.5"/><path id="a-2" data-name="a" d="M18.364,5.636a9,9,0,1,1-12.72792,0,9,9,0,0,1,12.72792,0" fill="none" stroke="#323232" stroke-linecap="round" stroke-linejoin="round" stroke-width="1.5"/><path d="M15,7.5H9A1.50441,1.50441,0,0,0,7.5,9v6A1.50441,1.50441,0,0,0,9,16.5h6A1.50441,1.50441,0,0,0,16.5,15V9A1.50441,1.50441,0,0,0,15,7.5Z" fill="none" stroke="#323232" stroke-linecap="round" stroke-linejoin="round" stroke-width="1.5"/><path d="M10.4,10.2a.2.2,0,1,1-.2-.2" fill="none" stroke="#323232" stroke-linecap="round" stroke-linejoin="round" stroke-width="1.5"/><path d="M10.2,10a.2.2,0,0,1,.2.2" fill="none" stroke="#323232" stroke-linecap="round" stroke-linejoin="round" stroke-width="1.5"/><path d="M14,10.2a.2.2,0,1,1-.2-.2" fill="none" stroke="#323232" stroke-linecap="round" stroke-linejoin="round" stroke-width="1.5"/><path d="M13.8,10a.2.2,0,0,1,.2.2" fill="none" stroke="#323232" stroke-linecap="round" stroke-linejoin="round" stroke-width="1.5"/><path d="M10.4,13.8a.2.2,0,1,1-.2-.2" fill="none" stroke="#323232" stroke-linecap="round" stroke-linejoin="round" stroke-width="1.5"/><path d="M10.2,13.6a.2.2,0,0,1,.2.2" fill="none" stroke="#323232" stroke-linecap="round" stroke-linejoin="round" stroke-width="1.5"/><path d="M14,13.8a.2.2,0,1,1-.2-.2" fill="none" stroke="#323232" stroke-linecap="round" stroke-linejoin="round" stroke-width="1.5"/><path d="M13.8,13.6a.2.2,0,0,1,.2.2" fill="none" stroke="#323232" stroke-linecap="round" stroke-linejoin="round" stroke-width="1.5"/><path d="M0,0H24V24H0Z" fill="none"/></svg>