<svg id="Layer_3" data-name="Layer 3" xmlns="http://www.w3.org/2000/svg" viewBox="0 0 24 24"><title>dice-five</title><path d="M7,21H17a4.01176,4.01176,0,0,0,4-4V7a4.01176,4.01176,0,0,0-4-4H7A4.01176,4.01176,0,0,0,3,7V17A4.01176,4.01176,0,0,0,7,21ZM17,7.5a.5.5,0,1,1-.5-.5m0,0a.5.5,0,0,1,.5.5M8,7.49987a.5.5,0,1,1-.5-.5m0,0a.5.5,0,0,1,.5.5M12.49992,12a.5.5,0,1,1-.5-.5m0,0a.5.5,0,0,1,.5.5M17,16.5a.5.5,0,1,1-.5-.5m0,0a.5.5,0,0,1,.5.5m-9-.00013a.5.5,0,1,1-.5-.5m0,0a.5.5,0,0,1,.5.5" fill="none" stroke="#323232" stroke-linecap="round" stroke-linejoin="round" stroke-width="1.5"/><rect width="24" height="24" fill="none"/></svg>