<svg id="Layer_3" data-name="Layer 3" xmlns="http://www.w3.org/2000/svg" viewBox="0 0 24 24"><path d="M0,0H24V24H0Z" fill="none"/><path d="M18,6.0002l2.5-2.5" fill="none" stroke="#323232" stroke-linecap="round" stroke-linejoin="round" stroke-width="1.5"/><path d="M18,3.50121l2.5,2.5" fill="none" stroke="#323232" stroke-linecap="round" stroke-linejoin="round" stroke-width="1.5"/><path d="M14,3.26465A8.82229,8.82229,0,0,0,12,3a9,9,0,1,0,9,9,8.82236,8.82236,0,0,0-.26471-2" fill="none" stroke="#323232" stroke-linecap="round" stroke-linejoin="round" stroke-width="1.5"/><path d="M9.38162,15.17141l2.239-.91362a.99955.99955,0,0,1,.75516,0l2.24273.91476a1.00022,1.00022,0,0,0,1.25537-1.40542l-2.9963-5.49572a.99975.99975,0,0,0-1.75573,0L8.12611,13.766A1.00023,1.00023,0,0,0,9.38162,15.17141Z" fill="none" stroke="#323232" stroke-linecap="round" stroke-linejoin="round" stroke-width="1.5"/></svg>