<svg id="Layer_3" data-name="Layer 3" xmlns="http://www.w3.org/2000/svg" viewBox="0 0 24 24"><path d="M20.582,9.353A8.84321,8.84321,0,0,1,21,12a9,9,0,1,1-9-9,8.84316,8.84316,0,0,1,2.647.418" fill="none" stroke="#323232" stroke-linecap="round" stroke-linejoin="round" stroke-width="1.5"/><path d="M19.012,6.262,17.737,4.987" fill="none" stroke="#323232" stroke-linecap="round" stroke-linejoin="round" stroke-width="1.5"/><line x1="21" y1="4.27393" x2="19.01202" y2="6.26196" fill="none" stroke="#323232" stroke-linecap="round" stroke-linejoin="round" stroke-width="1.5"/><path d="M9.38162,15.17141l2.239-.91362a.99955.99955,0,0,1,.75516,0l2.24273.91476a1.00022,1.00022,0,0,0,1.25537-1.40542l-2.9963-5.49572a.99975.99975,0,0,0-1.75573,0L8.12611,13.766A1.00023,1.00023,0,0,0,9.38162,15.17141Z" fill="none" stroke="#323232" stroke-linecap="round" stroke-linejoin="round" stroke-width="1.5"/><path d="M0,0H24V24H0Z" fill="none"/></svg>