<svg id="Layer_3" data-name="Layer 3" xmlns="http://www.w3.org/2000/svg" viewBox="0 0 24 24"><rect width="24" height="24" transform="translate(24 24) rotate(-180)" fill="none"/><path d="M13,3C6.89184,3,2,6,2,9s4.89184,6,11,6c4.97056,0,9-2.68629,9-6S17.97056,3,13,3Z" fill="none" stroke="#323232" stroke-linecap="round" stroke-linejoin="round" stroke-width="1.5"/><path d="M15.251,21H9.749a1.52135,1.52135,0,0,1-1.39757-.92025L8.17864,19.678a1.52134,1.52134,0,0,1,.11918-1.42587h0a1.52134,1.52134,0,0,1,1.27839-.69659h5.84753a1.52136,1.52136,0,0,1,1.27839.69659h0a1.52134,1.52134,0,0,1,.11918,1.42588l-.17278.40172A1.52137,1.52137,0,0,1,15.251,21Z" fill="none" stroke="#323232" stroke-linecap="round" stroke-linejoin="round" stroke-width="1.5"/><path d="M2.87337,11.21991l-.82129,2.46386A1,1,0,0,0,3.00077,15H4.99531a1,1,0,0,0,.89442-.55279l.39239-.78476" fill="none" stroke="#323232" stroke-linecap="round" stroke-linejoin="round" stroke-width="1.5"/><path d="M2.87337,6.78009,2.05208,4.31623A1,1,0,0,1,3.00077,3H4.99531a1,1,0,0,1,.89442.55279l.39239.78476" fill="none" stroke="#323232" stroke-linecap="round" stroke-linejoin="round" stroke-width="1.5"/><line x1="16.16" y1="14.61" x2="15" y2="17.56" fill="none" stroke="#323232" stroke-linecap="round" stroke-linejoin="round" stroke-width="1.5"/><line x1="10" y1="17.56" x2="8.8" y2="14.5" fill="none" stroke="#323232" stroke-linecap="round" stroke-linejoin="round" stroke-width="1.5"/></svg>