<svg id="Layer_3" data-name="Layer 3" xmlns="http://www.w3.org/2000/svg" viewBox="0 0 24 24"><title>discount-sale-label</title><path d="M10.749,13.25l2.5-2.5" fill="none" stroke="#323232" stroke-linecap="round" stroke-linejoin="round" stroke-width="1.5"/><path d="M13.628,13.559a.05.05,0,1,1-.071.071.05.05,0,0,1,0-.071.051.051,0,0,1,.071,0" fill="none" stroke="#323232" stroke-linecap="round" stroke-linejoin="round" stroke-width="1.5"/><path d="M17.25,12A5.25,5.25,0,1,1,12,6.75,5.242,5.242,0,0,1,17.25,12Z" fill="none" stroke="#323232" stroke-linecap="round" stroke-linejoin="round" stroke-width="1.5"/><path d="M3.5,13.464l1.2,1.565.258,1.946A2.413,2.413,0,0,0,7.023,19.05l1.952.26L10.537,20.5a2.412,2.412,0,0,0,2.93,0l1.564-1.194h0l1.948-.258a2.413,2.413,0,0,0,2.074-2.073l.26-1.952,1.2-1.563a2.412,2.412,0,0,0,0-2.928l-1.2-1.565-.258-1.946A2.413,2.413,0,0,0,16.979,4.95l-1.952-.26L13.465,3.5a2.412,2.412,0,0,0-2.93,0L8.971,4.69h0l-1.948.258A2.413,2.413,0,0,0,4.951,7.021l-.26,1.952L3.5,10.536A2.41,2.41,0,0,0,3.5,13.464Z" fill="none" stroke="#323232" stroke-linecap="round" stroke-linejoin="round" stroke-width="1.5"/><path d="M10.372,10.441a.05.05,0,1,1,.071-.071.05.05,0,0,1,0,.071.051.051,0,0,1-.071,0" fill="none" stroke="#323232" stroke-linecap="round" stroke-linejoin="round" stroke-width="1.5"/><path d="M0,0H24V24H0Z" fill="none"/></svg>