<?xml version="1.0" encoding="utf-8"?>
<!-- Generator: Adobe Illustrator 24.0.2, SVG Export Plug-In . SVG Version: 6.00 Build 0)  -->
<svg version="1.1" id="Layer_3" xmlns="http://www.w3.org/2000/svg" xmlns:xlink="http://www.w3.org/1999/xlink" x="0px" y="0px"
	 width="24px" height="24px" viewBox="0 0 24 24" enable-background="new 0 0 24 24" xml:space="preserve">
<g>
	<path fill="none" d="M0,0h24v24H0V0z"/>
	<g>
		<path fill="none" stroke="#323232" stroke-width="1.5" stroke-linecap="round" stroke-linejoin="round" d="M8.5,12h7"/>
		<path fill="none" stroke="#323232" stroke-width="1.5" stroke-linecap="round" stroke-linejoin="round" d="M11.625,8.501
			c0.001,0.207,0.169,0.374,0.376,0.374c0.207,0,0.375-0.168,0.374-0.375c0-0.207-0.168-0.375-0.375-0.375
			S11.625,8.293,11.625,8.501"/>
		<path fill="none" stroke="#323232" stroke-width="1.5" stroke-linecap="round" stroke-linejoin="round" d="M11.625,15.501
			c0.001,0.207,0.169,0.374,0.376,0.374c0.207,0,0.375-0.168,0.374-0.375c0-0.207-0.168-0.375-0.375-0.375
			S11.625,15.293,11.625,15.501"/>
		<path fill="none" stroke="#323232" stroke-width="1.5" stroke-linecap="round" stroke-linejoin="round" d="M17,21H7
			c-2.209,0-4-1.791-4-4V7c0-2.209,1.791-4,4-4h10c2.209,0,4,1.791,4,4v10C21,19.209,19.209,21,17,21z"/>
	</g>
</g>
</svg>
