<svg id="Layer_3" data-name="Layer 3" xmlns="http://www.w3.org/2000/svg" viewBox="0 0 24 24"><title>Artboard 259</title><path d="M20,8H16a1,1,0,0,1-1-1V3" fill="none" stroke="#323232" stroke-linecap="round" stroke-linejoin="round" stroke-width="1.5"/><path d="M6,8V5A2,2,0,0,1,8,3h7.172a2,2,0,0,1,1.414.586l2.828,2.828A2,2,0,0,1,20,7.828V19a2,2,0,0,1-2,2H8a2,2,0,0,1-2-2V18" fill="none" stroke="#323232" stroke-linecap="round" stroke-linejoin="round" stroke-width="1.5"/><path d="M5.127,17.349,3.651,15.873A2.22,2.22,0,0,1,3,14.3V11.7a2.22,2.22,0,0,1,.651-1.571L5.127,8.652A2.217,2.217,0,0,1,6.7,8H9.3a2.22,2.22,0,0,1,1.571.651l1.477,1.477A2.218,2.218,0,0,1,13,11.7v2.6a2.22,2.22,0,0,1-.651,1.571l-1.477,1.477A2.216,2.216,0,0,1,9.3,18H6.7A2.22,2.22,0,0,1,5.127,17.349Z" fill="none" stroke="#323232" stroke-linecap="round" stroke-linejoin="round" stroke-width="1.5"/><path d="M8,12.8V10.854" fill="none" stroke="#323232" stroke-linecap="round" stroke-linejoin="round" stroke-width="1.5"/><path d="M8,14.952a.1.1,0,0,0-.1.1.1.1,0,1,0,.1-.1" fill="none" stroke="#323232" stroke-linecap="round" stroke-linejoin="round" stroke-width="1.5"/><path d="M0,0H24V24H0Z" fill="none"/></svg>