<?xml version="1.0" encoding="utf-8"?>
<!-- Generator: Adobe Illustrator 24.0.2, SVG Export Plug-In . SVG Version: 6.00 Build 0)  -->
<svg version="1.1" id="Layer_3" xmlns="http://www.w3.org/2000/svg" xmlns:xlink="http://www.w3.org/1999/xlink" x="0px" y="0px"
	 width="24px" height="24px" viewBox="0 0 24 24" enable-background="new 0 0 24 24" xml:space="preserve">
<g>
	<path fill="none" d="M0,0h24v24H0V0z"/>
	<g>
		<path fill="none" stroke="#323232" stroke-width="1.5" stroke-linecap="round" stroke-linejoin="round" d="M18.414,6.414
			l-2.828-2.828C15.211,3.211,14.702,3,14.172,3H7C5.895,3,5,3.895,5,5v14c0,1.105,0.895,2,2,2h10c1.105,0,2-0.895,2-2V7.828
			C19,7.298,18.789,6.789,18.414,6.414z"/>
		<path fill="none" stroke="#323232" stroke-width="1.5" stroke-linecap="round" stroke-linejoin="round" d="M19,8h-4
			c-0.552,0-1-0.448-1-1V3"/>
		
			<line fill="none" stroke="#323232" stroke-width="1.5" stroke-linecap="round" stroke-linejoin="round" x1="16" y1="11.125" x2="11.25" y2="11.125"/>
		
			<line fill="none" stroke="#323232" stroke-width="1.5" stroke-linecap="round" stroke-linejoin="round" x1="16" y1="14" x2="11.25" y2="14"/>
		
			<line fill="none" stroke="#323232" stroke-width="1.5" stroke-linecap="round" stroke-linejoin="round" x1="16" y1="16.875" x2="11.25" y2="16.875"/>
		<path fill="none" stroke="#323232" stroke-width="1.5" stroke-linecap="round" stroke-linejoin="round" d="M8.125,11
			C8.056,11,8,11.056,8,11.125c0,0.069,0.056,0.125,0.125,0.125c0.069,0,0.125-0.056,0.125-0.125S8.194,11,8.125,11"/>
		<path fill="none" stroke="#323232" stroke-width="1.5" stroke-linecap="round" stroke-linejoin="round" d="M8.125,13.875
			C8.056,13.875,8,13.931,8,14c0,0.069,0.056,0.125,0.125,0.125c0.069,0,0.125-0.056,0.125-0.125S8.194,13.875,8.125,13.875"/>
		<path fill="none" stroke="#323232" stroke-width="1.5" stroke-linecap="round" stroke-linejoin="round" d="M8.125,16.75
			C8.056,16.75,8,16.806,8,16.875C8,16.944,8.056,17,8.125,17c0.069,0,0.125-0.056,0.125-0.125S8.194,16.75,8.125,16.75"/>
	</g>
</g>
</svg>
