<?xml version="1.0" encoding="utf-8"?>
<!-- Generator: Adobe Illustrator 24.0.2, SVG Export Plug-In . SVG Version: 6.00 Build 0)  -->
<svg version="1.1" id="Layer_3" xmlns="http://www.w3.org/2000/svg" xmlns:xlink="http://www.w3.org/1999/xlink" x="0px" y="0px"
	 width="24px" height="24px" viewBox="0 0 24 24" enable-background="new 0 0 24 24" xml:space="preserve">
<g>
	<path fill="none" d="M0,0h24v24H0V0z"/>
	<g>
		<path fill="none" stroke="#323232" stroke-width="1.5" stroke-linecap="round" stroke-linejoin="round" d="M19,8h-4
			c-0.552,0-1-0.448-1-1V3"/>
		<path fill="none" stroke="#323232" stroke-width="1.5" stroke-linecap="round" stroke-linejoin="round" d="M5,13V5
			c0-1.105,0.895-2,2-2h7.172c0.53,0,1.039,0.211,1.414,0.586l2.828,2.828C18.789,6.789,19,7.298,19,7.828V19c0,1.105-0.895,2-2,2
			h-4"/>
		<path fill="none" stroke="#323232" stroke-width="1.2857" stroke-linecap="round" stroke-linejoin="round" d="M10.247,19.389
			c-1.005,1.005-2.632,1.005-3.637,0c-1.005-1.005-1.005-2.632,0-3.637s2.632-1.005,3.637,0
			C11.251,16.757,11.251,18.386,10.247,19.389"/>
		<path fill="none" stroke="#323232" stroke-width="1.5" stroke-linecap="round" stroke-linejoin="round" d="M9,11h6"/>
		<path fill="none" stroke="#323232" stroke-width="1.5" stroke-linecap="round" stroke-linejoin="round" d="M13,14h2"/>
		<path fill="none" stroke="#323232" stroke-width="1.2857" stroke-linecap="round" stroke-linejoin="round" d="M5,21l1.61-1.611"/>
	</g>
</g>
</svg>
