<svg id="Layer_3" data-name="Layer 3" xmlns="http://www.w3.org/2000/svg" viewBox="0 0 24 24"><title>document-contract-edit-pen</title><path d="M0,0H24V24H0Z" fill="none"/><path d="M9,21H5a2,2,0,0,1-2-2V5A2,2,0,0,1,5,3H17a2,2,0,0,1,2,2V8" fill="none" stroke="#323232" stroke-linecap="round" stroke-linejoin="round" stroke-width="1.5"/><path d="M12,21l2.624-.324a.836.836,0,0,0,.488-.238L21.47,14.08a1.8,1.8,0,0,0,.006-2.545l-.006-.005h0a1.8,1.8,0,0,0-2.545-.006l0,.006-6.3,6.3a.826.826,0,0,0-.236.472Z" fill="none" stroke="#323232" stroke-linecap="round" stroke-linejoin="round" stroke-width="1.5"/><path d="M8,17H8a1.5,1.5,0,0,1-1.5-1.5h0A1.5,1.5,0,0,1,8,14H8a1.5,1.5,0,0,1,1.5,1.5h0A1.5,1.5,0,0,1,8,17Z" fill="none" stroke="#323232" stroke-linecap="round" stroke-linejoin="round" stroke-width="1.5"/><path d="M6.5,7h8" fill="none" stroke="#323232" stroke-linecap="round" stroke-linejoin="round" stroke-width="1.5"/><path d="M6.5,10.5h4" fill="none" stroke="#323232" stroke-linecap="round" stroke-linejoin="round" stroke-width="1.5"/></svg>