<svg id="Layer_3" data-name="Layer 3" xmlns="http://www.w3.org/2000/svg" viewBox="0 0 24 24"><title>Artboard 397</title><path d="M9.541,12.434l2.249,2.473a.284.284,0,0,0,.42,0l2.249-2.473a.283.283,0,0,0,.024-.351l-1-1.461a.28.28,0,0,0-.231-.122H10.744a.281.281,0,0,0-.232.122l-1,1.461A.285.285,0,0,0,9.541,12.434Z" fill="none" stroke="#323232" stroke-linecap="round" stroke-linejoin="round" stroke-width="1.5"/><path d="M18.414,6.414,15.586,3.586A2,2,0,0,0,14.172,3H7A2,2,0,0,0,5,5V19a2,2,0,0,0,2,2H17a2,2,0,0,0,2-2V7.828A2,2,0,0,0,18.414,6.414Z" fill="none" stroke="#323232" stroke-linecap="round" stroke-linejoin="round" stroke-width="1.5"/><path d="M0,0H24V24H0Z" fill="none"/></svg>