<?xml version="1.0" encoding="utf-8"?>
<!-- Generator: Adobe Illustrator 24.0.2, SVG Export Plug-In . SVG Version: 6.00 Build 0)  -->
<svg version="1.1" id="Layer_3" xmlns="http://www.w3.org/2000/svg" xmlns:xlink="http://www.w3.org/1999/xlink" x="0px" y="0px"
	 width="24px" height="24px" viewBox="0 0 24 24" enable-background="new 0 0 24 24" xml:space="preserve">
<g>
	<g>
		<path fill="none" stroke="#323232" stroke-width="1.5" stroke-linecap="round" stroke-linejoin="round" d="M19,12.981V7.828
			c0-0.53-0.211-1.039-0.586-1.414l-2.828-2.828C15.211,3.211,14.702,3,14.172,3H7C5.895,3,5,3.895,5,5v14c0,1.105,0.895,2,2,2
			h7.868"/>
		<path fill="none" stroke="#323232" stroke-width="1.5" stroke-linecap="round" stroke-linejoin="round" d="M19,8h-4
			c-0.552,0-1-0.448-1-1V3"/>
		<path fill="none" stroke="#323232" stroke-width="1.5" stroke-linecap="round" stroke-linejoin="round" d="M18.556,16.223
			l-1.945,1.945l-1.167-1.167"/>
		<path fill="none" stroke="#323232" stroke-width="1.5" stroke-linecap="round" stroke-linejoin="round" d="M12.275,17.814
			l0.664,0.869l0.144,1.081c0.08,0.6,0.551,1.072,1.151,1.152l1.084,0.145l0.868,0.664c0.48,0.367,1.147,0.367,1.627,0l0.869-0.664
			h-0.001l1.082-0.144c0.6-0.08,1.072-0.551,1.152-1.151l0.145-1.084c0,0.001,0.336-0.439,0.664-0.868
			c0.367-0.48,0.367-1.147,0-1.627l-0.664-0.869l-0.144-1.081c-0.08-0.6-0.551-1.072-1.151-1.152l-1.084-0.145l-0.868-0.664
			c-0.48-0.367-1.147-0.367-1.627,0l-0.869,0.664h0.001l-1.082,0.144c-0.6,0.08-1.072,0.551-1.152,1.151l-0.145,1.084
			c0-0.001-0.336,0.439-0.664,0.868C11.908,16.667,11.908,17.333,12.275,17.814z"/>
	</g>
	<path fill="none" d="M0,0h24v24H0V0z"/>
</g>
</svg>
