<svg id="Layer_3" data-name="Layer 3" xmlns="http://www.w3.org/2000/svg" viewBox="0 0 24 24"><title>Artboard 231</title><path d="M0,24V0H24V24Z" fill="none"/><path d="M6,3H18a2,2,0,0,1,2,2V19a2,2,0,0,1-2,2H6a2,2,0,0,1-2-2V5A2,2,0,0,1,6,3Z" fill="none" stroke="#323232" stroke-linecap="round" stroke-linejoin="round" stroke-width="1.5"/><path d="M8.722,11.579l3,3.3a.378.378,0,0,0,.56,0l3-3.3a.376.376,0,0,0,.032-.466L13.983,9.163A.374.374,0,0,0,13.674,9H10.326a.374.374,0,0,0-.309.163L8.689,11.112A.377.377,0,0,0,8.722,11.579Z" fill="none" stroke="#323232" stroke-linecap="round" stroke-linejoin="round" stroke-width="1.5"/></svg>