<svg id="Layer_3" data-name="Layer 3" xmlns="http://www.w3.org/2000/svg" viewBox="0 0 24 24"><title>Artboard 239</title><path d="M0,24V0H24V24Z" fill="none"/><path d="M0,24V0H24V24Z" fill="none"/><path d="M13,9.5h-.808A2.692,2.692,0,0,0,9.5,12.192V13" fill="none" stroke="#323232" stroke-linecap="round" stroke-linejoin="round" stroke-width="1.5"/><path d="M10,16H9a1,1,0,0,1-1-1V14a1,1,0,0,1,1-1h1a1,1,0,0,1,1,1v1A1,1,0,0,1,10,16Z" fill="none" stroke="#323232" stroke-linecap="round" stroke-linejoin="round" stroke-width="1.5"/><path d="M15,11H14a1,1,0,0,1-1-1V9a1,1,0,0,1,1-1h1a1,1,0,0,1,1,1v1A1,1,0,0,1,15,11Z" fill="none" stroke="#323232" stroke-linecap="round" stroke-linejoin="round" stroke-width="1.5"/><path d="M6,3H18a2,2,0,0,1,2,2V19a2,2,0,0,1-2,2H6a2,2,0,0,1-2-2V5A2,2,0,0,1,6,3Z" fill="none" stroke="#323232" stroke-linecap="round" stroke-linejoin="round" stroke-width="1.5"/></svg>