<svg id="Layer_3" data-name="Layer 3" xmlns="http://www.w3.org/2000/svg" viewBox="0 0 24 24"><title>Artboard 233</title><path d="M0,24V0H24V24Z" fill="none"/><path d="M7.936,15V9" fill="none" stroke="#323232" stroke-linecap="round" stroke-linejoin="round" stroke-width="1.5"/><path d="M7.936,9h1.8A1.667,1.667,0,0,1,11.4,10.667h0a1.667,1.667,0,0,1-1.667,1.667H8" fill="none" stroke="#323232" stroke-linecap="round" stroke-linejoin="round" stroke-width="1.5"/><path d="M13.6,14.628a1.04,1.04,0,0,0,.792.372h.568a1.044,1.044,0,0,0,.253-2.056l-.475-.119-.475-.119a1.044,1.044,0,0,1,.254-2.056h.568a1.042,1.042,0,0,1,.792.372" fill="none" stroke="#323232" stroke-linecap="round" stroke-linejoin="round" stroke-width="1.5"/><path d="M6,3H18a2,2,0,0,1,2,2V19a2,2,0,0,1-2,2H6a2,2,0,0,1-2-2V5A2,2,0,0,1,6,3Z" fill="none" stroke="#323232" stroke-linecap="round" stroke-linejoin="round" stroke-width="1.5"/></svg>