<?xml version="1.0" encoding="utf-8"?>
<!-- Generator: Adobe Illustrator 24.0.2, SVG Export Plug-In . SVG Version: 6.00 Build 0)  -->
<svg version="1.1" id="Layer_1" xmlns="http://www.w3.org/2000/svg" xmlns:xlink="http://www.w3.org/1999/xlink" x="0px" y="0px"
	 width="24px" height="24px" viewBox="0 0 24 24" enable-background="new 0 0 24 24" xml:space="preserve">
<g>
	<g>
		<g>
			<g>
				<path fill="none" d="M0,0h24v24H0V0z"/>
			</g>
		</g>
	</g>
	<g>
		<path fill="none" stroke="#323232" stroke-width="1.5" stroke-linecap="round" stroke-linejoin="round" d="M18,11V7.828
			c0-0.53-0.211-1.039-0.586-1.414l-2.828-2.828C14.211,3.211,13.702,3,13.172,3H6C4.895,3,4,3.895,4,5v14c0,1.105,0.895,2,2,2h5"/>
		<g>
			<g>
				<path fill="none" stroke="#323232" stroke-width="1.5" stroke-linecap="round" stroke-linejoin="round" d="M19.451,15.827h1.547
					V14.28"/>
				<path fill="none" stroke="#323232" stroke-width="1.5" stroke-linecap="round" stroke-linejoin="round" d="M15.992,19.173
					h-1.547v1.547"/>
			</g>
			<g>
				<path fill="none" stroke="#323232" stroke-width="1.5" stroke-linecap="round" stroke-linejoin="round" d="M21,18.667
					c-0.164,0.477-0.422,0.927-0.804,1.308c-1.367,1.367-3.583,1.367-4.95,0c-0.243-0.243-0.441-0.514-0.598-0.801"/>
				<path fill="none" stroke="#323232" stroke-width="1.5" stroke-linecap="round" stroke-linejoin="round" d="M20.794,15.826
					c-0.157-0.287-0.354-0.558-0.598-0.801c-1.367-1.367-3.583-1.367-4.95,0c-0.381,0.381-0.643,0.831-0.807,1.308"/>
			</g>
		</g>
		<path fill="none" stroke="#323232" stroke-width="1.5" stroke-linecap="round" stroke-linejoin="round" d="M18,8h-4
			c-0.552,0-1-0.448-1-1V3"/>
	</g>
</g>
</svg>
