<svg id="Layer_3" data-name="Layer 3" xmlns="http://www.w3.org/2000/svg" viewBox="0 0 24 24"><title>Artboard 234</title><path d="M0,24V0H24V24Z" fill="none"/><path d="M12,10.334H10.333A1.666,1.666,0,0,1,8.667,8.667h0A1.665,1.665,0,0,1,10.333,7H12Z" fill="none" stroke="#323232" stroke-linecap="round" stroke-linejoin="round" stroke-width="1.5"/><path d="M12,10.334H10.333A1.665,1.665,0,0,0,8.667,12h0a1.666,1.666,0,0,0,1.666,1.667H12Z" fill="none" stroke="#323232" stroke-linecap="round" stroke-linejoin="round" stroke-width="1.5"/><path d="M12,13.667H10.333a1.665,1.665,0,0,0-1.666,1.666h0A1.666,1.666,0,0,0,10.333,17h0A1.667,1.667,0,0,0,12,15.333Z" fill="none" stroke="#323232" stroke-linecap="round" stroke-linejoin="round" stroke-width="1.5"/><path d="M14.845,10.822a1.667,1.667,0,1,1-2.357,0,1.666,1.666,0,0,1,2.357,0" fill="none" stroke="#323232" stroke-linecap="round" stroke-linejoin="round" stroke-width="1.5"/><path d="M6,3H18a2,2,0,0,1,2,2V19a2,2,0,0,1-2,2H6a2,2,0,0,1-2-2V5A2,2,0,0,1,6,3Z" fill="none" stroke="#323232" stroke-linecap="round" stroke-linejoin="round" stroke-width="1.5"/><path d="M13.667,10.334H12V7h1.667a1.666,1.666,0,0,1,1.666,1.667h0A1.665,1.665,0,0,1,13.667,10.334Z" fill="none" stroke="#323232" stroke-linecap="round" stroke-linejoin="round" stroke-width="1.5"/><path d="M0,24V0H24V24Z" fill="none"/></svg>