<svg id="Layer_3" data-name="Layer 3" xmlns="http://www.w3.org/2000/svg" viewBox="0 0 24 24"><title>Artboard 230</title><path d="M0,0H24V24H0Z" fill="none"/><path d="M7,7V5A2,2,0,0,1,9,3H19a2,2,0,0,1,2,2V19a2,2,0,0,1-2,2H9a2,2,0,0,1-2-2V17" fill="none" stroke="#323232" stroke-linecap="round" stroke-linejoin="round" stroke-width="1.5"/><path d="M17,21V9a1,1,0,0,1,1-1h3" fill="none" stroke="#323232" stroke-linecap="round" stroke-linejoin="round" stroke-width="1.5"/><line x1="21" y1="17.014" x2="17" y2="17.014" fill="none" stroke="#323232" stroke-linecap="round" stroke-linejoin="round" stroke-width="1.5"/><line x1="21" y1="12.007" x2="17" y2="12.007" fill="none" stroke="#323232" stroke-linecap="round" stroke-linejoin="round" stroke-width="1.5"/><path d="M9.75,10.478v3.5l-3.5-3.5v3.5" fill="none" stroke="#323232" stroke-linecap="round" stroke-linejoin="round" stroke-width="1.5"/><rect x="3" y="7" width="10" height="10" rx="2" stroke-width="1.5" stroke="#323232" stroke-linecap="round" stroke-linejoin="round" fill="none"/></svg>