<?xml version="1.0" encoding="utf-8"?>
<!-- Generator: Adobe Illustrator 24.0.2, SVG Export Plug-In . SVG Version: 6.00 Build 0)  -->
<svg version="1.1" id="Layer_3" xmlns="http://www.w3.org/2000/svg" xmlns:xlink="http://www.w3.org/1999/xlink" x="0px" y="0px"
	 width="24px" height="24px" viewBox="0 0 24 24" enable-background="new 0 0 24 24" xml:space="preserve">
<g>
	<g>
		<path fill="none" stroke="#323232" stroke-width="1.5" stroke-linecap="round" stroke-linejoin="round" d="M19,11V7.828
			c0-0.53-0.211-1.039-0.586-1.414l-2.828-2.828C15.211,3.211,14.702,3,14.172,3H7C5.895,3,5,3.895,5,5v14c0,1.105,0.895,2,2,2h4"/>
		<path fill="none" stroke="#323232" stroke-width="1.5" stroke-linecap="round" stroke-linejoin="round" d="M19,8h-4
			c-0.552,0-1-0.448-1-1V3"/>
		<path fill="none" stroke="#323232" stroke-width="1.5" stroke-linecap="round" stroke-linejoin="round" d="M18.687,17.354v-1.751
			c0-0.841-0.717-1.603-1.603-1.603s-1.603,0.717-1.603,1.603v1.751"/>
		<path fill="none" stroke="#323232" stroke-width="1.5" stroke-linecap="round" stroke-linejoin="round" d="M19.345,21h-4.521
			c-0.363,0-0.657-0.294-0.657-0.656v-2.333c0-0.363,0.294-0.656,0.656-0.656h4.521c0.363,0,0.656,0.294,0.656,0.656v2.333
			C20.001,20.706,19.707,21,19.345,21z"/>
	</g>
	<path fill="none" d="M0,0h24v24H0V0z"/>
</g>
</svg>
