<svg id="Layer_3" data-name="Layer 3" xmlns="http://www.w3.org/2000/svg" viewBox="0 0 24 24"><title>Artboard 396</title><path d="M18.414,6.414,15.586,3.586A2,2,0,0,0,14.172,3H7A2,2,0,0,0,5,5V19a2,2,0,0,0,2,2H17a2,2,0,0,0,2-2V7.828A2,2,0,0,0,18.414,6.414Z" fill="none" stroke="#323232" stroke-linecap="round" stroke-linejoin="round" stroke-width="1.5"/><path d="M12.74,11.433l1.3,2.3A.851.851,0,0,1,13.294,15H10.706a.85.85,0,0,1-.74-1.267l1.294-2.3A.849.849,0,0,1,12.74,11.433Z" fill="none" stroke="#323232" stroke-linecap="round" stroke-linejoin="round" stroke-width="1.5"/><path d="M0,0H24V24H0Z" fill="none"/></svg>