<svg id="Layer_3" data-name="Layer 3" xmlns="http://www.w3.org/2000/svg" viewBox="0 0 24 24"><title>Artboard 399</title><path d="M12.855,14.646A1.212,1.212,0,0,1,12,15h0a1.212,1.212,0,0,1-.855-.354L9.7,13.2a1.522,1.522,0,0,1,2.152-2.152L12,11.2l.153-.154A1.522,1.522,0,0,1,14.305,13.2Z" fill="none" stroke="#323232" stroke-linecap="round" stroke-linejoin="round" stroke-width="1.5"/><path d="M18.414,6.414,15.586,3.586A2,2,0,0,0,14.172,3H7A2,2,0,0,0,5,5V19a2,2,0,0,0,2,2H17a2,2,0,0,0,2-2V7.828A2,2,0,0,0,18.414,6.414Z" fill="none" stroke="#323232" stroke-linecap="round" stroke-linejoin="round" stroke-width="1.5"/><path d="M0,0H24V24H0Z" fill="none"/></svg>