<svg id="Layer_3" data-name="Layer 3" xmlns="http://www.w3.org/2000/svg" viewBox="0 0 24 24"><title>document-legal-law-hammer</title><path d="M0,0H24V24H0Z" fill="none"/><path d="M8,21H5a2,2,0,0,1-2-2V5A2,2,0,0,1,5,3H16a2,2,0,0,1,2,2V8" fill="none" stroke="#323232" stroke-linecap="round" stroke-linejoin="round" stroke-width="1.5"/><path d="M16.771,15.16l3.682,3.116a1.545,1.545,0,1,1-2.141,2.218L15.048,16.9" fill="none" stroke="#323232" stroke-linecap="round" stroke-linejoin="round" stroke-width="1.5"/><line x1="7" y1="8" x2="13" y2="8" fill="none" stroke="#323232" stroke-linecap="round" stroke-linejoin="round" stroke-width="1.5"/><line x1="7" y1="12" x2="9" y2="12" fill="none" stroke="#323232" stroke-linecap="round" stroke-linejoin="round" stroke-width="1.5"/><path d="M12.924,13.861l-1.465,1.167a1.221,1.221,0,0,0-.1,1.815l1.115,1.12a1.207,1.207,0,0,0,1.8-.1L15.45,16.4a6.056,6.056,0,0,1,.946-.941l1.465-1.168a1.22,1.22,0,0,0,.1-1.814L16.85,11.356a1.207,1.207,0,0,0-1.8.1L13.87,12.92A6.1,6.1,0,0,1,12.924,13.861Z" fill="none" stroke="#323232" stroke-linecap="round" stroke-linejoin="round" stroke-width="1.5"/><line x1="13.923" y1="20.98" x2="11.923" y2="20.98" fill="none" stroke="#323232" stroke-linecap="round" stroke-linejoin="round" stroke-width="1.5"/></svg>