<svg id="Layer_3" data-name="Layer 3" xmlns="http://www.w3.org/2000/svg" viewBox="0 0 24 24"><title>Artboard 256</title><path d="M20,8H16a1,1,0,0,1-1-1V3" fill="none" stroke="#323232" stroke-linecap="round" stroke-linejoin="round" stroke-width="1.5"/><path d="M6,8V5A2,2,0,0,1,8,3h7.172a2,2,0,0,1,1.414.586l2.828,2.828A2,2,0,0,1,20,7.828V19a2,2,0,0,1-2,2H8a2,2,0,0,1-2-2V18" fill="none" stroke="#323232" stroke-linecap="round" stroke-linejoin="round" stroke-width="1.5"/><rect x="3" y="8" width="10" height="10" rx="3" stroke-width="1.5" stroke="#323232" stroke-linecap="round" stroke-linejoin="round" fill="none"/><path d="M8.74,11.433l1.3,2.3A.851.851,0,0,1,9.294,15H6.706a.85.85,0,0,1-.74-1.267l1.294-2.3A.849.849,0,0,1,8.74,11.433Z" fill="none" stroke="#323232" stroke-linecap="round" stroke-linejoin="round" stroke-width="1.5"/><path d="M0,0H24V24H0Z" fill="none"/></svg>