<svg id="Layer_3" data-name="Layer 3" xmlns="http://www.w3.org/2000/svg" viewBox="0 0 24 24"><title>Artboard 388</title><polyline points="10.687 15 8.937 13.25 10.687 11.5" fill="none" stroke="#323232" stroke-linecap="round" stroke-linejoin="round" stroke-width="1.5"/><polyline points="13.312 11.5 15.062 13.25 13.312 15" fill="none" stroke="#323232" stroke-linecap="round" stroke-linejoin="round" stroke-width="1.5"/><path d="M18.414,6.414,15.586,3.586A2,2,0,0,0,14.172,3H7A2,2,0,0,0,5,5V19a2,2,0,0,0,2,2H17a2,2,0,0,0,2-2V7.828A2,2,0,0,0,18.414,6.414Z" fill="none" stroke="#323232" stroke-linecap="round" stroke-linejoin="round" stroke-width="1.5"/><path d="M0,0H24V24H0Z" fill="none"/></svg>