<svg id="Layer_3" data-name="Layer 3" xmlns="http://www.w3.org/2000/svg" viewBox="0 0 24 24"><title>Artboard 232</title><path d="M0,24V0H24V24Z" fill="none"/><path d="M6,3H18a2,2,0,0,1,2,2V19a2,2,0,0,1-2,2H6a2,2,0,0,1-2-2V5A2,2,0,0,1,6,3Z" fill="none" stroke="#323232" stroke-linecap="round" stroke-linejoin="round" stroke-width="1.5"/><path d="M15.75,9.9a.05.05,0,1,0,.05.05.05.05,0,0,0-.05-.05" fill="none" stroke="#323232" stroke-linecap="round" stroke-linejoin="round" stroke-width="1.5"/><path d="M15.75,12.25V15" fill="none" stroke="#323232" stroke-linecap="round" stroke-linejoin="round" stroke-width="1.5"/><path d="M8.522,13.434h3.956" fill="none" stroke="#323232" stroke-linecap="round" stroke-linejoin="round" stroke-width="1.5"/><path d="M8,15,9.943,9.171A.25.25,0,0,1,10.18,9h.64a.25.25,0,0,1,.237.171L13,15" fill="none" stroke="#323232" stroke-linecap="round" stroke-linejoin="round" stroke-width="1.5"/></svg>