<?xml version="1.0" encoding="utf-8"?>
<!-- Generator: Adobe Illustrator 24.0.2, SVG Export Plug-In . SVG Version: 6.00 Build 0)  -->
<svg version="1.1" id="Layer_1" xmlns="http://www.w3.org/2000/svg" xmlns:xlink="http://www.w3.org/1999/xlink" x="0px" y="0px"
	 width="24px" height="24px" viewBox="0 0 24 24" enable-background="new 0 0 24 24" xml:space="preserve">
<g>
	<g>
		<g>
			<g>
				<path fill="none" d="M0,0h24v24H0V0z"/>
			</g>
		</g>
	</g>
	<g>
		<path fill="none" stroke="#323232" stroke-width="1.5" stroke-linecap="round" stroke-linejoin="round" d="M15,19.4v-8.537
			c0-0.425-0.169-0.832-0.469-1.132l-2.262-2.262C11.969,7.169,11.562,7,11.137,7H5.6C4.716,7,4,7.716,4,8.6v10.8
			C4,20.284,4.716,21,5.6,21h7.8C14.284,21,15,20.284,15,19.4z"/>
		<g>
			<path fill="none" stroke="#323232" stroke-width="1.5" stroke-linecap="round" stroke-linejoin="round" d="M15,17h3.4
				c0.884,0,1.6-0.716,1.6-1.6V6.863c0-0.425-0.169-0.832-0.469-1.132l-2.262-2.262C16.969,3.169,16.562,3,16.137,3H10.6
				C9.716,3,9,3.716,9,4.6V7"/>
			<path fill="none" stroke="#323232" stroke-width="1.5" stroke-linecap="round" stroke-linejoin="round" d="M20,7h-3.2
				C16.358,7,16,6.642,16,6.2V3"/>
		</g>
		<path fill="none" stroke="#323232" stroke-width="1.5" stroke-linecap="round" stroke-linejoin="round" d="M15,11h-3.2
			c-0.442,0-0.8-0.358-0.8-0.8V7"/>
	</g>
</g>
</svg>
