<?xml version="1.0" encoding="utf-8"?>
<!-- Generator: Adobe Illustrator 24.0.2, SVG Export Plug-In . SVG Version: 6.00 Build 0)  -->
<svg version="1.1" id="Layer_1" xmlns="http://www.w3.org/2000/svg" xmlns:xlink="http://www.w3.org/1999/xlink" x="0px" y="0px"
	 width="24px" height="24px" viewBox="0 0 24 24" enable-background="new 0 0 24 24" xml:space="preserve">
<g>
	<g>
		<g>
			<g>
				<g>
					<path fill="none" d="M0,0h24v24H0V0z"/>
				</g>
			</g>
		</g>
	</g>
	<g>
		<path fill="none" stroke="#323232" stroke-width="1.5" stroke-linecap="round" stroke-linejoin="round" d="M16.5,22
			c-2.485,0-4.5-2.015-4.5-4.5s2.015-4.5,4.5-4.5c2.486,0,4.5,2.015,4.5,4.5S18.986,22,16.5,22"/>
		<path fill="none" stroke="#323232" stroke-width="1.5" stroke-linecap="round" stroke-linejoin="round" d="M18,10V7.828
			c0-0.53-0.211-1.039-0.586-1.414l-2.828-2.828C14.211,3.211,13.702,3,13.172,3H6C4.895,3,4,3.895,4,5v14c0,1.105,0.895,2,2,2h4"/>
		<path fill="none" stroke="#323232" stroke-width="1.5" stroke-linecap="round" stroke-linejoin="round" d="M18,8h-4
			c-0.552,0-1-0.448-1-1V3"/>
		<path fill="none" stroke="#323232" stroke-width="1.5" stroke-linecap="round" stroke-linejoin="round" d="M18.157,16.672
			l-2.072,2.072L14.843,17.5"/>
	</g>
</g>
</svg>
