<svg id="Layer_3" data-name="Layer 3" xmlns="http://www.w3.org/2000/svg" viewBox="0 0 24 24"><title>Artboard 237</title><path d="M0,0H24V24H0Z" fill="none"/><path d="M15,19.4V10.863a1.6,1.6,0,0,0-.469-1.132L12.269,7.469A1.6,1.6,0,0,0,11.137,7H5.6A1.6,1.6,0,0,0,4,8.6V19.4A1.6,1.6,0,0,0,5.6,21h7.8A1.6,1.6,0,0,0,15,19.4Z" fill="none" stroke="#323232" stroke-linecap="round" stroke-linejoin="round" stroke-width="1.5"/><path d="M15,17h3.4A1.6,1.6,0,0,0,20,15.4V5a2,2,0,0,0-2-2H10.6A1.6,1.6,0,0,0,9,4.6V7" fill="none" stroke="#323232" stroke-linecap="round" stroke-linejoin="round" stroke-width="1.5"/><path d="M15,11H11.8a.8.8,0,0,1-.8-.8V7" fill="none" stroke="#323232" stroke-linecap="round" stroke-linejoin="round" stroke-width="1.5"/></svg>