<svg id="Layer_3" data-name="Layer 3" xmlns="http://www.w3.org/2000/svg" viewBox="0 0 24 24"><title>Artboard 250</title><path d="M20,8H16a1,1,0,0,1-1-1V3" fill="none" stroke="#323232" stroke-linecap="round" stroke-linejoin="round" stroke-width="1.5"/><path d="M6,8V5A2,2,0,0,1,8,3h7.172a2,2,0,0,1,1.414.586l2.828,2.828A2,2,0,0,1,20,7.828V19a2,2,0,0,1-2,2H8a2,2,0,0,1-2-2V18" fill="none" stroke="#323232" stroke-linecap="round" stroke-linejoin="round" stroke-width="1.5"/><path d="M6.391,11A.278.278,0,1,1,6,11a.279.279,0,0,1,.393,0" fill="none" stroke="#323232" stroke-linecap="round" stroke-linejoin="round" stroke-width="1.5"/><path d="M13,11.95a5.308,5.308,0,0,0-6.111,5.286A5.215,5.215,0,0,0,6.95,18" fill="none" stroke="#323232" stroke-linecap="round" stroke-linejoin="round" stroke-width="1.5"/><rect x="3" y="8" width="10" height="10" rx="3" stroke-width="1.5" stroke="#323232" stroke-linecap="round" stroke-linejoin="round" fill="none"/><path d="M0,0H24V24H0Z" fill="none"/></svg>