<?xml version="1.0" encoding="utf-8"?>
<!-- Generator: Adobe Illustrator 24.0.2, SVG Export Plug-In . SVG Version: 6.00 Build 0)  -->
<svg version="1.1" id="Layer_1" xmlns="http://www.w3.org/2000/svg" xmlns:xlink="http://www.w3.org/1999/xlink" x="0px" y="0px"
	 width="24px" height="24px" viewBox="0 0 24 24" enable-background="new 0 0 24 24" xml:space="preserve">
<g>
	<g>
		<g>
			<g>
				<g>
					<g>
						<path fill="none" d="M0,0h24v24H0V0z"/>
					</g>
				</g>
			</g>
		</g>
	</g>
	<g>
		<path fill="none" stroke="#323232" stroke-width="1.5" stroke-linecap="round" stroke-linejoin="round" d="M19,8h-4
			c-0.552,0-1-0.448-1-1V3"/>
		
			<line fill="none" stroke="#323232" stroke-width="1.5" stroke-linecap="round" stroke-linejoin="round" x1="15" y1="17" x2="19" y2="21"/>
		<path fill="none" stroke="#323232" stroke-width="1.5" stroke-linecap="round" stroke-linejoin="round" d="M11,21c0,0-4,0-4,0
			c-1.105,0-2-0.895-2-2V5c0-1.105,0.895-2,2-2h7.171c0.531,0,1.04,0.211,1.415,0.586l2.828,2.828C18.789,6.789,19,7.298,19,7.829
			V13"/>
		<polyline fill="none" stroke="#323232" stroke-width="1.5" stroke-linecap="round" stroke-linejoin="round" points="15,21 19,21 
			19,17 		"/>
	</g>
</g>
</svg>
