<svg id="Layer_3" data-name="Layer 3" xmlns="http://www.w3.org/2000/svg" viewBox="0 0 24 24"><title>Document-printer</title><path d="M13.432,20.037H12a1,1,0,0,1-1-1V16a1,1,0,0,1,1-1h8a1,1,0,0,1,1,1v3.037a1,1,0,0,1-1,1H18.568" fill="none" stroke="#323232" stroke-linecap="round" stroke-linejoin="round" stroke-width="1.5"/><path d="M13.5,18h5v3a1,1,0,0,1-1,1h-3a1,1,0,0,1-1-1Z" fill="none" stroke="#323232" stroke-linecap="round" stroke-linejoin="round" stroke-width="1.5"/><path d="M14,12h4a1,1,0,0,1,1,1v2a0,0,0,0,1,0,0H13a0,0,0,0,1,0,0V13A1,1,0,0,1,14,12Z" fill="none" stroke="#323232" stroke-linecap="round" stroke-linejoin="round" stroke-width="1.5"/><line x1="8" y1="8" x2="12" y2="8" fill="none" stroke="#323232" stroke-linecap="round" stroke-linejoin="round" stroke-width="1.5"/><line x1="8" y1="12" x2="10" y2="12" fill="none" stroke="#323232" stroke-linecap="round" stroke-linejoin="round" stroke-width="1.5"/><path d="M19,9V5a2,2,0,0,0-2-2H6A2,2,0,0,0,4,5V18a2,2,0,0,0,2,2H8" fill="none" stroke="#323232" stroke-linecap="round" stroke-linejoin="round" stroke-width="1.5"/><path d="M0,0H24V24H0Z" fill="none"/></svg>