<svg id="Layer_3" data-name="Layer 3" xmlns="http://www.w3.org/2000/svg" viewBox="0 0 24 24"><title>dog-bone-circle</title><path d="M14.431,12.116h1.275a1.637,1.637,0,0,0,1.637-1.637h0a1.637,1.637,0,0,0-1.637-1.638h-.547V8.3a1.638,1.638,0,0,0-1.638-1.638h0a1.637,1.637,0,0,0-1.637,1.637V9.569a.711.711,0,0,1-.208.5L9.758,11.99a.713.713,0,0,1-.5.208H7.98a1.637,1.637,0,0,0-1.637,1.637h0A1.637,1.637,0,0,0,7.98,15.473h.547v.546a1.638,1.638,0,0,0,1.638,1.638h0A1.637,1.637,0,0,0,11.8,16.02V14.745a.711.711,0,0,1,.208-.5l1.918-1.918A.713.713,0,0,1,14.431,12.116Z" fill="none" stroke="#323232" stroke-linecap="round" stroke-linejoin="round" stroke-width="1.5"/><circle cx="12" cy="12" r="9" fill="none" stroke="#323232" stroke-linecap="round" stroke-linejoin="round" stroke-width="1.5"/><rect width="24" height="24" fill="none"/></svg>