<svg id="Layer_3" data-name="Layer 3" xmlns="http://www.w3.org/2000/svg" viewBox="0 0 24 24"><title>dollar-cash-circle</title><path d="M12.001,9V8" fill="none" stroke="#323232" stroke-linecap="round" stroke-linejoin="round" stroke-width="1.5"/><path d="M12.001,15v1" fill="none" stroke="#323232" stroke-linecap="round" stroke-linejoin="round" stroke-width="1.5"/><path d="M10.26614,14.28571a1.44345,1.44345,0,0,0,1.23543.71772h1.096a1.40453,1.40453,0,0,0,.34057-2.76686l-1.87428-.47085a1.40453,1.40453,0,0,1,.34057-2.76686h1.096a1.44087,1.44087,0,0,1,1.23428.71428" fill="none" stroke="#323232" stroke-linecap="round" stroke-linejoin="round" stroke-width="1.5"/><path id="a" d="M12,3a9,9,0,1,1-9,9,9,9,0,0,1,9-9" fill="none" stroke="#323232" stroke-linecap="round" stroke-linejoin="round" stroke-width="1.5"/><path id="a-2" data-name="a" d="M12,3a9,9,0,1,1-9,9,9,9,0,0,1,9-9" fill="none" stroke="#323232" stroke-linecap="round" stroke-linejoin="round" stroke-width="1.5"/><rect width="24" height="24" fill="none"/></svg>