<?xml version="1.0" encoding="utf-8"?>
<!-- Generator: Adobe Illustrator 23.1.0, SVG Export Plug-In . SVG Version: 6.00 Build 0)  -->
<svg version="1.1" id="icons" xmlns="http://www.w3.org/2000/svg" xmlns:xlink="http://www.w3.org/1999/xlink" x="0px" y="0px"
	 width="24px" height="24px" viewBox="0 0 24 24" enable-background="new 0 0 24 24" xml:space="preserve">
<g>
	<path fill="none" d="M0,0h24v24H0V0z"/>
	<g>
		<path fill="none" stroke="#323232" stroke-width="1.5" stroke-linecap="round" stroke-linejoin="round" d="M20,11.182
			c0,4.541-3.413,8.787-8,9.818c-4.587-1.031-8-5.277-8-9.818V7.243c0-0.812,0.491-1.544,1.243-1.851l5-2.046
			c1.126-0.461,2.388-0.461,3.514,0l5,2.046C19.509,5.7,20,6.431,20,7.243V11.182z"/>
		<path fill="none" stroke="#323232" stroke-width="1.5" stroke-linecap="round" stroke-linejoin="round" d="M12,8.5v-1"/>
		<path fill="none" stroke="#323232" stroke-width="1.5" stroke-linecap="round" stroke-linejoin="round" d="M12,14.5v1"/>
		<path fill="none" stroke="#323232" stroke-width="1.5" stroke-linecap="round" stroke-linejoin="round" d="M10.264,13.785
			c0.259,0.424,0.701,0.717,1.236,0.717H12h0.596c0.776,0,1.404-0.629,1.404-1.404c0-0.644-0.439-1.205-1.063-1.363l-1.875-0.471
			C10.439,11.108,10,10.547,10,9.903c0-0.776,0.629-1.404,1.404-1.404H12h0.5c0.533,0,0.975,0.292,1.233,0.715"/>
	</g>
</g>
</svg>
