<?xml version="1.0" encoding="utf-8"?>
<!-- Generator: Adobe Illustrator 24.0.2, SVG Export Plug-In . SVG Version: 6.00 Build 0)  -->
<svg version="1.1" id="Layer_1" xmlns="http://www.w3.org/2000/svg" xmlns:xlink="http://www.w3.org/1999/xlink" x="0px" y="0px"
	 width="24px" height="24px" viewBox="0 0 24 24" enable-background="new 0 0 24 24" xml:space="preserve">
<g>
	<g>
		
			<polyline fill="none" stroke="#323232" stroke-width="1.5" stroke-linecap="round" stroke-linejoin="round" stroke-miterlimit="10" points="
			6,8.25 3,8.25 3,5.25 		"/>
		<path fill="none" stroke="#323232" stroke-width="1.5" stroke-linecap="round" stroke-linejoin="round" d="M7.467,19.924
			c0.9,0.521,1.897,0.89,2.959,1.076"/>
		<path fill="none" stroke="#323232" stroke-width="1.5" stroke-linecap="round" stroke-linejoin="round" d="M3.482,15.173
			c0.366,1.004,0.896,1.927,1.57,2.73"/>
		<path fill="none" stroke="#323232" stroke-width="1.5" stroke-linecap="round" stroke-linejoin="round" d="M13.574,21
			c1.062-0.186,2.058-0.555,2.959-1.076"/>
		<path fill="none" stroke="#323232" stroke-width="1.5" stroke-linecap="round" stroke-linejoin="round" d="M18.948,17.903
			c0.674-0.803,1.204-1.726,1.57-2.73"/>
		<path fill="none" stroke="#323232" stroke-width="1.5" stroke-linecap="round" stroke-linejoin="round" d="M21,12
			c0-4.971-4.029-9-9-9C8.37,3,5.249,5.154,3.826,8.25"/>
		<g>
			<path fill="none" stroke="#323232" stroke-width="1.5" stroke-linecap="round" stroke-linejoin="round" d="M12,9.137V8.5"/>
			<path fill="none" stroke="#323232" stroke-width="1.5" stroke-linecap="round" stroke-linejoin="round" d="M12,14.864V15.5"/>
			<path fill="none" stroke="#323232" stroke-width="1.5" stroke-linecap="round" stroke-linejoin="round" d="M10.343,14.181
				c0.247,0.405,0.669,0.684,1.18,0.684H12h0.569c0.741,0,1.34-0.6,1.34-1.34c0-0.615-0.419-1.15-1.015-1.301l-1.79-0.45
				c-0.595-0.149-1.014-0.684-1.014-1.299c0-0.741,0.6-1.34,1.34-1.34H12h0.477c0.509,0,0.931,0.279,1.177,0.683"/>
		</g>
	</g>
	<rect id="_Transparent_Rectangle__30_" fill="none" width="24" height="24"/>
</g>
</svg>
