<svg id="Layer_3" data-name="Layer 3" xmlns="http://www.w3.org/2000/svg" viewBox="0 0 24 24"><title>dollar-send-arrow</title><path d="M0,0H24V24H0Z" fill="none"/><path d="M8,17.5l2,2-2,2" fill="none" stroke="#323232" stroke-linecap="round" stroke-linejoin="round" stroke-width="1.5"/><path d="M10,19.5H4" fill="none" stroke="#323232" stroke-linecap="round" stroke-linejoin="round" stroke-width="1.5"/><path d="M13.99751,20.27351a8.998,8.998,0,1,0-10.0558-4.77" fill="none" stroke="#323232" stroke-linecap="round" stroke-linejoin="round" stroke-width="1.5"/><path d="M12,8.49367v-1" fill="none" stroke="#323232" stroke-linecap="round" stroke-linejoin="round" stroke-width="1.5"/><path d="M12,14.49367v1" fill="none" stroke="#323232" stroke-linecap="round" stroke-linejoin="round" stroke-width="1.5"/><path d="M10.266,13.77967a1.444,1.444,0,0,0,1.234.714h1.1a1.4,1.4,0,0,0,.34-2.766l-1.874-.471a1.4,1.4,0,0,1,.334-2.763h1.1a1.442,1.442,0,0,1,1.235.714" fill="none" stroke="#323232" stroke-linecap="round" stroke-linejoin="round" stroke-width="1.5"/></svg>