<svg id="Layer_3" data-name="Layer 3" xmlns="http://www.w3.org/2000/svg" viewBox="0 0 24 24"><title>door-log-out-in-circle</title><path d="M9,8.485H8.25A1.249,1.249,0,0,0,7,9.735v4.53a1.249,1.249,0,0,0,1.25,1.25H9" fill="none" stroke="#323232" stroke-linecap="round" stroke-linejoin="round" stroke-width="1.5"/><path d="M12.894,16.485l3.125-.69A1.25,1.25,0,0,0,17,14.574V9.426a1.25,1.25,0,0,0-.981-1.221l-3.125-.69a1.249,1.249,0,0,0-1.519,1.221v6.529A1.249,1.249,0,0,0,12.894,16.485Z" fill="none" stroke="#323232" stroke-linecap="round" stroke-linejoin="round" stroke-width="1.5"/><path d="M13.75,11.5v1" fill="none" stroke="#323232" stroke-linecap="round" stroke-linejoin="round" stroke-width="1.5"/><circle cx="12" cy="12" r="9" fill="none" stroke="#323232" stroke-linecap="round" stroke-linejoin="round" stroke-width="1.5"/><path d="M0,0H24V24H0Z" fill="none"/></svg>