<svg id="Layer_3" data-name="Layer 3" xmlns="http://www.w3.org/2000/svg" viewBox="0 0 24 24"><title>door-delivery-checkmark-done</title><path d="M0,0H24V24H0Z" fill="none"/><path d="M5,3H18a2,2,0,0,1,2,2v6" fill="none" stroke="#323232" stroke-linecap="round" stroke-linejoin="round" stroke-width="1.5"/><path d="M11,21H5" fill="none" stroke="#323232" stroke-linecap="round" stroke-linejoin="round" stroke-width="1.5"/><path d="M8,11v2" fill="none" stroke="#323232" stroke-linecap="round" stroke-linejoin="round" stroke-width="1.5"/><path d="M3,5V19a2,2,0,0,0,2.894,1.789l4-2A2,2,0,0,0,11,17V7A2,2,0,0,0,9.894,5.214l-4-2A2,2,0,0,0,3,5Z" fill="none" stroke="#323232" stroke-linecap="round" stroke-linejoin="round" stroke-width="1.5"/><path d="M21,22H16a1,1,0,0,1-1-1V16a1,1,0,0,1,1-1h5a1,1,0,0,1,1,1v5A1,1,0,0,1,21,22Z" fill="none" stroke="#323232" stroke-linecap="round" stroke-linejoin="round" stroke-width="1.5"/><path d="M19.691,17.756,18.2,19.243l-.894-.892" fill="none" stroke="#323232" stroke-linecap="round" stroke-linejoin="round" stroke-width="1.5"/></svg>