<svg id="Layer_3" data-name="Layer 3" xmlns="http://www.w3.org/2000/svg" viewBox="0 0 24 24"><title>door-delivery</title><path d="M0,0H24V24H0Z" fill="none"/><path d="M5,3H18a2,2,0,0,1,2,2v6" fill="none" stroke="#323232" stroke-linecap="round" stroke-linejoin="round" stroke-width="1.5"/><path d="M18.5,15v3" fill="none" stroke="#323232" stroke-linecap="round" stroke-linejoin="round" stroke-width="1.5"/><path d="M22,18.778A.778.778,0,0,0,21.222,18H15.778a.778.778,0,0,0-.778.778" fill="none" stroke="#323232" stroke-linecap="round" stroke-linejoin="round" stroke-width="1.5"/><path d="M16,22h5a1,1,0,0,0,1-1V17.435a3.007,3.007,0,0,0-.241-1.179l-.278-.649A1,1,0,0,0,20.562,15H16.438a1,1,0,0,0-.92.607l-.277.648A3.007,3.007,0,0,0,15,17.434V21A1,1,0,0,0,16,22Z" fill="none" stroke="#323232" stroke-linecap="round" stroke-linejoin="round" stroke-width="1.5"/><path d="M11,21H5" fill="none" stroke="#323232" stroke-linecap="round" stroke-linejoin="round" stroke-width="1.5"/><path d="M3,5V19a2,2,0,0,0,2.894,1.789l4-2A2,2,0,0,0,11,17V7A2,2,0,0,0,9.894,5.214l-4-2A2,2,0,0,0,3,5Z" fill="none" stroke="#323232" stroke-linecap="round" stroke-linejoin="round" stroke-width="1.5"/><path d="M8,11v2" fill="none" stroke="#323232" stroke-linecap="round" stroke-linejoin="round" stroke-width="1.5"/></svg>