<svg id="Layer_3" data-name="Layer 3" xmlns="http://www.w3.org/2000/svg" viewBox="0 0 24 24"><title>door-log-out-in-square</title><path d="M9,8H8.25A1.249,1.249,0,0,0,7,9.25v5.5A1.249,1.249,0,0,0,8.25,16H9" fill="none" stroke="#323232" stroke-linecap="round" stroke-linejoin="round" stroke-width="1.5"/><path d="M12.894,16.97l3.125-.69A1.25,1.25,0,0,0,17,15.059V8.941a1.25,1.25,0,0,0-.981-1.221l-3.125-.69a1.249,1.249,0,0,0-1.519,1.221v7.5A1.249,1.249,0,0,0,12.894,16.97Z" fill="none" stroke="#323232" stroke-linecap="round" stroke-linejoin="round" stroke-width="1.5"/><rect x="3" y="3" width="18" height="18" rx="5" stroke-width="1.5" stroke="#323232" stroke-linecap="round" stroke-linejoin="round" fill="none"/><path d="M13.75,11.5v1" fill="none" stroke="#323232" stroke-linecap="round" stroke-linejoin="round" stroke-width="1.5"/><path d="M0,0H24V24H0Z" fill="none"/></svg>