<svg id="Layer_3" data-name="Layer 3" xmlns="http://www.w3.org/2000/svg" viewBox="0 0 24 24"><title>Artboard 355</title><line x1="10" y1="3" x2="10" y2="11.699" fill="none" stroke="#323232" stroke-linecap="round" stroke-linejoin="round" stroke-width="1.5"/><line x1="13" y1="8.699" x2="10" y2="11.699" fill="none" stroke="#323232" stroke-linecap="round" stroke-linejoin="round" stroke-width="1.5"/><line x1="7" y1="8.699" x2="10" y2="11.699" fill="none" stroke="#323232" stroke-linecap="round" stroke-linejoin="round" stroke-width="1.5"/><path d="M13,5h1a3,3,0,0,1,3,3v6a3,3,0,0,1-3,3H6a3,3,0,0,1-3-3V8A3,3,0,0,1,6,5H7" fill="none" stroke="#323232" stroke-linecap="round" stroke-linejoin="round" stroke-width="1.5"/><path d="M17,9h1a3,3,0,0,1,3,3v6a3,3,0,0,1-3,3H10a3,3,0,0,1-3-3V17" fill="none" stroke="#323232" stroke-linecap="round" stroke-linejoin="round" stroke-width="1.5"/><rect width="24" height="24" fill="none"/></svg>