<svg id="Layer_3" data-name="Layer 3" xmlns="http://www.w3.org/2000/svg" viewBox="0 0 24 24"><title>drill</title><path d="M7.072,3.4H9.894a1.693,1.693,0,0,1,1.693,1.693v0A1.693,1.693,0,0,1,9.894,6.785H7.072a0,0,0,0,1,0,0V3.4a0,0,0,0,1,0,0Z" transform="translate(12.326 15.29) rotate(-135)" fill="none" stroke="#323232" stroke-linecap="round" stroke-linejoin="round" stroke-width="1.5"/><path d="M11.191,5.76h5.03a2,2,0,0,1,2,2v6.068a1,1,0,0,1-1,1h-7.03a1,1,0,0,1-1-1V7.76A2,2,0,0,1,11.191,5.76Z" transform="translate(11.293 -6.677) rotate(45)" fill="none" stroke="#323232" stroke-linecap="round" stroke-linejoin="round" stroke-width="1.5"/><path d="M18.343,12.977h2.822a0,0,0,0,1,0,0v3.386a0,0,0,0,1,0,0H18.343A1.693,1.693,0,0,1,16.65,14.67v0a1.693,1.693,0,0,1,1.693-1.693Z" transform="translate(21.904 38.414) rotate(-135)" fill="none" stroke="#323232" stroke-linecap="round" stroke-linejoin="round" stroke-width="1.5"/><path d="M6.428,12.982h5.644a0,0,0,0,1,0,0v2.536a1,1,0,0,1-1,1H7.428a1,1,0,0,1-1-1V12.982A0,0,0,0,1,6.428,12.982Z" transform="translate(13.139 -2.221) rotate(45)" fill="none" stroke="#323232" stroke-linecap="round" stroke-linejoin="round" stroke-width="1.5"/><path d="M6.931,14.931,3.622,18.24a1.126,1.126,0,0,0-.309.576l-.3,1.509a.565.565,0,0,0,.664.664l1.509-.3a1.126,1.126,0,0,0,.576-.309l3.309-3.309" fill="none" stroke="#323232" stroke-linecap="round" stroke-linejoin="round" stroke-width="1.5"/><line x1="13.509" y1="8.097" x2="11.509" y2="10.097" fill="none" stroke="#323232" stroke-linecap="round" stroke-linejoin="round" stroke-width="1.5"/><line x1="15.903" y1="10.491" x2="13.903" y2="12.491" fill="none" stroke="#323232" stroke-linecap="round" stroke-linejoin="round" stroke-width="1.5"/><rect width="24" height="24" fill="none"/></svg>