<?xml version="1.0" encoding="utf-8"?>
<!-- Generator: Adobe Illustrator 24.0.2, SVG Export Plug-In . SVG Version: 6.00 Build 0)  -->
<svg version="1.1" id="Layer_1" xmlns="http://www.w3.org/2000/svg" xmlns:xlink="http://www.w3.org/1999/xlink" x="0px" y="0px"
	 width="24px" height="24px" viewBox="0 0 24 24" enable-background="new 0 0 24 24" xml:space="preserve">
<g>
	<g>
		<path fill="none" stroke="#323232" stroke-width="1.5" stroke-linecap="round" stroke-linejoin="round" d="M4.449,19.608
			L4.449,19.608c-1.797-1.797-1.797-4.71,0-6.506l8.652-8.652c1.797-1.797,4.71-1.797,6.506,0l0,0c1.797,1.797,1.797,4.71,0,6.506
			l-8.652,8.652C9.158,21.404,6.245,21.404,4.449,19.608z"/>
		
			<line fill="none" stroke="#323232" stroke-width="1.5" stroke-linecap="round" stroke-linejoin="round" x1="10.5" y1="10.5" x2="13.5" y2="13.5"/>
		<path fill="none" stroke="#323232" stroke-width="1.5" stroke-linecap="round" stroke-linejoin="round" d="M17.299,6.707
			c-0.028,0-0.05,0.022-0.05,0.05c0,0.028,0.022,0.05,0.05,0.05s0.05-0.022,0.05-0.05C17.349,6.729,17.327,6.707,17.299,6.707"/>
		<path fill="none" stroke="#323232" stroke-width="1.5" stroke-linecap="round" stroke-linejoin="round" d="M14.506,6.671
			c-0.028,0-0.05,0.022-0.05,0.05c0,0.028,0.022,0.05,0.05,0.05s0.05-0.022,0.05-0.05S14.534,6.671,14.506,6.671"/>
		<path fill="none" stroke="#323232" stroke-width="1.5" stroke-linecap="round" stroke-linejoin="round" d="M17.335,9.5
			c-0.028,0-0.05,0.022-0.05,0.05c0,0.028,0.022,0.05,0.05,0.05s0.05-0.022,0.05-0.05S17.362,9.5,17.335,9.5"/>
		<path fill="none" stroke="#323232" stroke-width="1.5" stroke-linecap="round" stroke-linejoin="round" d="M9.55,17.285
			c-0.028,0-0.05,0.022-0.05,0.05c0,0.028,0.022,0.05,0.05,0.05s0.05-0.022,0.05-0.05S9.578,17.285,9.55,17.285"/>
		<path fill="none" stroke="#323232" stroke-width="1.5" stroke-linecap="round" stroke-linejoin="round" d="M6.757,17.249
			c-0.028,0-0.05,0.022-0.05,0.05c0,0.028,0.022,0.05,0.05,0.05c0.028,0,0.05-0.022,0.05-0.05S6.785,17.249,6.757,17.249"/>
		<path fill="none" stroke="#323232" stroke-width="1.5" stroke-linecap="round" stroke-linejoin="round" d="M6.721,14.456
			c-0.028,0-0.05,0.022-0.05,0.05c0,0.028,0.022,0.05,0.05,0.05s0.05-0.022,0.05-0.05S6.749,14.456,6.721,14.456"/>
	</g>
	<path fill="none" d="M0,0h24v24H0V0z"/>
</g>
</svg>
