<svg id="Layer_3" data-name="Layer 3" xmlns="http://www.w3.org/2000/svg" viewBox="0 0 24 24"><title>Artboard 184</title><line x1="23" y1="3" x2="21.5" y2="3" fill="none" stroke="#323232" stroke-linecap="round" stroke-linejoin="round" stroke-width="1.5"/><line x1="18.5" y1="3" x2="17" y2="3" fill="none" stroke="#323232" stroke-linecap="round" stroke-linejoin="round" stroke-width="1.5"/><path d="M13.092,12H10.908a3,3,0,0,1-1.664-.5L7.756,10.5A3,3,0,0,0,6.092,10H3A2,2,0,0,1,1,8H1A2,2,0,0,1,3,6H6.092a3,3,0,0,0,1.664-.5L9.244,4.5A3,3,0,0,1,10.908,4h2.184a3,3,0,0,1,1.664.5l1.488.992a3,3,0,0,0,1.664.5H21a2,2,0,0,1,2,2h0a2,2,0,0,1-2,2H17l-2.244,1.5A3,3,0,0,1,13.092,12Z" fill="none" stroke="#323232" stroke-linecap="round" stroke-linejoin="round" stroke-width="1.5"/><line x1="10.5" y1="8" x2="13.5" y2="8" fill="none" stroke="#323232" stroke-linecap="round" stroke-linejoin="round" stroke-width="1.5"/><rect x="7.781" y="15" width="8.219" height="6" rx="1.17" stroke-width="1.5" stroke="#323232" stroke-linecap="round" stroke-linejoin="round" fill="none"/><path d="M20,13l-.678,3.392A2,2,0,0,1,17.36,18H16" fill="none" stroke="#323232" stroke-linecap="round" stroke-linejoin="round" stroke-width="1.5"/><path d="M4,13l.678,3.392A2,2,0,0,0,6.64,18H7.781" fill="none" stroke="#323232" stroke-linecap="round" stroke-linejoin="round" stroke-width="1.5"/><line x1="20" y1="4.5" x2="20" y2="6" fill="none" stroke="#323232" stroke-linecap="round" stroke-linejoin="round" stroke-width="1.5"/><line x1="7" y1="3" x2="5.5" y2="3" fill="none" stroke="#323232" stroke-linecap="round" stroke-linejoin="round" stroke-width="1.5"/><line x1="2.5" y1="3" x2="1" y2="3" fill="none" stroke="#323232" stroke-linecap="round" stroke-linejoin="round" stroke-width="1.5"/><line x1="4" y1="4.5" x2="4" y2="6" fill="none" stroke="#323232" stroke-linecap="round" stroke-linejoin="round" stroke-width="1.5"/><rect width="24" height="24" fill="none"/></svg>