<svg id="Layer_3" data-name="Layer 3" xmlns="http://www.w3.org/2000/svg" viewBox="0 0 24 24"><title>dropbox-circle</title><path d="M12,9.276,9.067,11.128,6.7,9.63a.419.419,0,0,1,0-.708L8.843,7.565a.417.417,0,0,1,.448,0Z" fill="none" stroke="#323232" stroke-linecap="round" stroke-linejoin="round" stroke-width="1.5" fill-rule="evenodd"/><path d="M17.305,9.63l-2.372,1.5L12,9.276l2.709-1.711a.417.417,0,0,1,.448,0l2.148,1.357A.419.419,0,0,1,17.305,9.63Z" fill="none" stroke="#323232" stroke-linecap="round" stroke-linejoin="round" stroke-width="1.5" fill-rule="evenodd"/><path d="M17.305,13.335l-2.372,1.5L12,12.98l2.933-1.852,2.372,1.5A.42.42,0,0,1,17.305,13.335Z" fill="none" stroke="#323232" stroke-linecap="round" stroke-linejoin="round" stroke-width="1.5" fill-rule="evenodd"/><path d="M12,12.98,9.067,14.833,6.7,13.335a.42.42,0,0,1,0-.709l2.372-1.5Z" fill="none" stroke="#323232" stroke-linecap="round" stroke-linejoin="round" stroke-width="1.5" fill-rule="evenodd"/><path d="M9.067,14.833v.891l2.71,1.711a.417.417,0,0,0,.448,0l2.708-1.71v-.892" fill="none" stroke="#323232" stroke-linecap="round" stroke-linejoin="round" stroke-width="1.5"/><circle cx="12" cy="12" r="9" fill="none" stroke="#323232" stroke-linecap="round" stroke-linejoin="round" stroke-width="1.5"/><path d="M0,24V0H24V24Z" fill="none"/></svg>