<?xml version="1.0" encoding="utf-8"?>
<!-- Generator: Adobe Illustrator 23.1.0, SVG Export Plug-In . SVG Version: 6.00 Build 0)  -->
<svg version="1.1" id="icons" xmlns="http://www.w3.org/2000/svg" xmlns:xlink="http://www.w3.org/1999/xlink" x="0px" y="0px"
	 width="24px" height="24px" viewBox="0 0 24 24" enable-background="new 0 0 24 24" xml:space="preserve">
<g>
	<rect fill="none" width="24" height="24"/>
	<g>
		<path fill="none" stroke="#323232" stroke-width="1.5" stroke-linecap="round" stroke-linejoin="round" d="M15.283,14.848
			l-0.019,1.115c-0.002,0.22-0.117,0.425-0.304,0.541l-2.273,1.421c-0.42,0.262-0.952,0.262-1.372,0L9.05,16.51
			c-0.191-0.12-0.307-0.331-0.304-0.557l0.018-1.105"/>
		<path fill="none" stroke="#323232" stroke-width="1.5" stroke-linecap="round" stroke-linejoin="round" d="M15.206,10.983
			L12,13.024l-3.206-2.04L12,8.944L15.206,10.983z"/>
		<path fill="none" stroke="#323232" stroke-width="1.5" stroke-linecap="round" stroke-linejoin="round" d="M15.206,10.983
			l2.426,1.544c0.363,0.231,0.363,0.762,0,0.992l-1.794,1.142c-0.386,0.245-0.878,0.245-1.263,0L12,13.024l-2.574,1.638
			c-0.386,0.245-0.878,0.245-1.263,0L6.368,13.52c-0.363-0.231-0.363-0.762,0-0.992l2.426-1.544L6.368,9.44
			c-0.363-0.231-0.363-0.762,0-0.992l1.794-1.142c0.386-0.245,0.878-0.245,1.263,0L12,8.944l2.574-1.638
			c0.386-0.245,0.878-0.245,1.263,0l1.794,1.142c0.363,0.231,0.363,0.762,0,0.992L15.206,10.983z"/>
		<path fill="none" stroke="#323232" stroke-width="1.5" stroke-linecap="round" stroke-linejoin="round" d="M19.071,4.929
			c3.905,3.905,3.905,10.237,0,14.142c-3.905,3.905-10.237,3.905-14.142,0c-3.905-3.905-3.905-10.237,0-14.142
			C8.834,1.024,15.166,1.024,19.071,4.929"/>
	</g>
</g>
</svg>
