<?xml version="1.0" encoding="utf-8"?>
<!-- Generator: Adobe Illustrator 24.0.2, SVG Export Plug-In . SVG Version: 6.00 Build 0)  -->
<svg version="1.1" id="Layer_3" xmlns="http://www.w3.org/2000/svg" xmlns:xlink="http://www.w3.org/1999/xlink" x="0px" y="0px"
	 width="24px" height="24px" viewBox="0 0 24 24" enable-background="new 0 0 24 24" xml:space="preserve">
<g>
	<g>
		<path fill="none" stroke="#323232" stroke-width="1.5" stroke-linecap="round" stroke-linejoin="round" d="M13.574,3.145
			C13.062,3.056,12.538,3,12,3s-1.062,0.056-1.574,0.145"/>
		<path fill="none" stroke="#323232" stroke-width="1.5" stroke-linecap="round" stroke-linejoin="round" d="M20.518,8.973
			c0.353,0.969,0.555,2.01,0.555,3.1"/>
		<path fill="none" stroke="#323232" stroke-width="1.5" stroke-linecap="round" stroke-linejoin="round" d="M18.948,6.243
			c-0.678-0.807-1.497-1.49-2.415-2.021"/>
		<path fill="none" stroke="#323232" stroke-width="1.5" stroke-linecap="round" stroke-linejoin="round" d="M7.467,4.222
			C6.549,4.753,5.731,5.436,5.052,6.243"/>
		<path fill="none" stroke="#323232" stroke-width="1.5" stroke-linecap="round" stroke-linejoin="round" d="M2.927,12.073
			c0-1.091,0.202-2.132,0.555-3.1"/>
		<path fill="none" stroke="#323232" stroke-width="1.5" stroke-linecap="round" stroke-linejoin="round" d="M7.467,19.924
			c0.9,0.521,1.897,0.89,2.959,1.076"/>
		<path fill="none" stroke="#323232" stroke-width="1.5" stroke-linecap="round" stroke-linejoin="round" d="M3.482,15.173
			c0.366,1.004,0.896,1.927,1.57,2.73"/>
		<path fill="none" stroke="#323232" stroke-width="1.5" stroke-linecap="round" stroke-linejoin="round" d="M13.574,21
			c1.062-0.186,2.058-0.555,2.959-1.076"/>
		<path fill="none" stroke="#323232" stroke-width="1.5" stroke-linecap="round" stroke-linejoin="round" d="M18.948,17.903
			c0.674-0.803,1.204-1.726,1.57-2.73"/>
		<path fill="none" stroke="#323232" stroke-width="1.5" stroke-linecap="round" stroke-linejoin="round" d="M12.8,7.401
			l2.396,3.206C17.167,13.243,15.288,17,12,17l0,0c-3.288,0-5.167-3.757-3.197-6.393L11.2,7.401C11.6,6.866,12.4,6.866,12.8,7.401z"
			/>
	</g>
	<rect id="_Transparent_Rectangle__34_" fill="none" width="24" height="24"/>
</g>
</svg>
