<svg id="Layer_3" data-name="Layer 3" xmlns="http://www.w3.org/2000/svg" viewBox="0 0 24 24"><title>dropdown-menu-item-checkmark</title><path d="M0,0H24V24H0Z" fill="none"/><path d="M18,7V5a2,2,0,0,0-2-2H5A2,2,0,0,0,3,5v5a2,2,0,0,0,2,2H7" fill="none" stroke="#323232" stroke-linecap="round" stroke-linejoin="round" stroke-width="1.5"/><path d="M19.444,21H8.556A1.555,1.555,0,0,1,7,19.444V8.556A1.555,1.555,0,0,1,8.556,7H19.445A1.555,1.555,0,0,1,21,8.556V19.445A1.555,1.555,0,0,1,19.444,21Z" fill="none" stroke="#323232" stroke-linecap="round" stroke-linejoin="round" stroke-width="1.5"/><path d="M15.556,11.5l-1.944,1.944-1.167-1.167" fill="none" stroke="#323232" stroke-linecap="round" stroke-linejoin="round" stroke-width="1.5"/><path d="M11,16.5h6" fill="none" stroke="#323232" stroke-linecap="round" stroke-linejoin="round" stroke-width="1.5"/></svg>