<svg id="Layer_3" data-name="Layer 3" xmlns="http://www.w3.org/2000/svg" viewBox="0 0 24 24"><title>Artboard 103</title><path d="M0,0H24V24H0Z" fill="none"/><path d="M5,3A2,2,0,0,0,3,5" fill="none" stroke="#323232" stroke-linecap="round" stroke-linejoin="round" stroke-width="1.5"/><path d="M3,8.33v2" fill="none" stroke="#323232" stroke-linecap="round" stroke-linejoin="round" stroke-width="1.5"/><path d="M8.33,3h2" fill="none" stroke="#323232" stroke-linecap="round" stroke-linejoin="round" stroke-width="1.5"/><path d="M19,21a2,2,0,0,0,2-2" fill="none" stroke="#323232" stroke-linecap="round" stroke-linejoin="round" stroke-width="1.5"/><path d="M21,15.67v-2" fill="none" stroke="#323232" stroke-linecap="round" stroke-linejoin="round" stroke-width="1.5"/><path d="M15.67,21h-2" fill="none" stroke="#323232" stroke-linecap="round" stroke-linejoin="round" stroke-width="1.5"/><path d="M16.275,2.3,13.088,7.715a.621.621,0,0,0,.522.94h2.984v2.724a.607.607,0,0,0,1.131.319l3.187-5.413a.621.621,0,0,0-.522-.94H17.406V2.622A.607.607,0,0,0,16.275,2.3Z" fill="none" stroke="#323232" stroke-linecap="round" stroke-linejoin="round" stroke-width="1.5"/><path d="M6.84,13.321l1.917,2.565A3.2,3.2,0,0,1,6.2,21h0a3.2,3.2,0,0,1-2.558-5.114L5.56,13.321A.8.8,0,0,1,6.84,13.321Z" fill="none" stroke="#323232" stroke-linecap="round" stroke-linejoin="round" stroke-width="1.5"/></svg>