<svg id="Layer_3" data-name="Layer 3" xmlns="http://www.w3.org/2000/svg" viewBox="0 0 24 24"><title>Artboard 117</title><path d="M0,0H24V24H0Z" fill="none"/><path d="M19.552,13.812,21.738,17.6A2.267,2.267,0,0,1,19.774,21H15.4" fill="none" stroke="#323232" stroke-linecap="round" stroke-linejoin="round" stroke-width="1.5"/><path d="M4.448,13.812,2.262,17.6A2.267,2.267,0,0,0,4.226,21H8.6" fill="none" stroke="#323232" stroke-linecap="round" stroke-linejoin="round" stroke-width="1.5"/><path d="M7.85,7.92l2.186-3.786a2.268,2.268,0,0,1,3.928,0L16.15,7.92" fill="none" stroke="#323232" stroke-linecap="round" stroke-linejoin="round" stroke-width="1.5"/><path d="M12.56,10.781l1.677,2.244A2.8,2.8,0,0,1,12,17.5h0a2.8,2.8,0,0,1-2.238-4.475l1.678-2.244A.7.7,0,0,1,12.56,10.781Z" fill="none" stroke="#323232" stroke-linecap="round" stroke-linejoin="round" stroke-width="1.5"/></svg>