<?xml version="1.0" encoding="utf-8"?>
<!-- Generator: Adobe Illustrator 24.0.2, SVG Export Plug-In . SVG Version: 6.00 Build 0)  -->
<svg version="1.1" id="Layer_1" xmlns="http://www.w3.org/2000/svg" xmlns:xlink="http://www.w3.org/1999/xlink" x="0px" y="0px"
	 width="24px" height="24px" viewBox="0 0 24 24" enable-background="new 0 0 24 24" xml:space="preserve">
<g>
	<g>
		<g>
			<path fill="none" stroke="#323232" stroke-width="1.5" stroke-linecap="round" stroke-linejoin="round" d="M17,21H7
				c-2.209,0-4-1.791-4-4V7c0-2.209,1.791-4,4-4h10c2.209,0,4,1.791,4,4v10C21,19.209,19.209,21,17,21z"/>
		</g>
		<path fill="none" stroke="#323232" stroke-width="1.5" stroke-linecap="round" stroke-linejoin="round" d="M8.333,18L8.333,18
			C7.045,18,6,16.955,6,15.667l0,0c0-1.289,1.045-2.333,2.333-2.333l0,0c1.289,0,2.333,1.045,2.333,2.333l0,0
			C10.667,16.955,9.622,18,8.333,18z"/>
		
			<line fill="none" stroke="#323232" stroke-width="1.5" stroke-linecap="round" stroke-linejoin="round" x1="7.684" y1="16.316" x2="6.684" y2="17.316"/>
		<path fill="none" stroke="#323232" stroke-width="1.5" stroke-linecap="round" stroke-linejoin="round" d="M13.334,8.334
			L13.334,8.334c0-1.288,1.045-2.333,2.333-2.333l0,0C16.956,6.001,18,7.046,18,8.334l0,0c0,1.289-1.045,2.333-2.333,2.333l0,0
			C14.379,10.668,13.334,9.623,13.334,8.334z"/>
		
			<line fill="none" stroke="#323232" stroke-width="1.5" stroke-linecap="round" stroke-linejoin="round" x1="15.018" y1="7.685" x2="14.018" y2="6.685"/>
		<path fill="none" stroke="#323232" stroke-width="1.5" stroke-linecap="round" stroke-linejoin="round" d="M15.667,13.334
			L15.667,13.334c1.288,0,2.333,1.045,2.333,2.333l0,0C18,16.956,16.955,18,15.667,18l0,0c-1.289,0-2.333-1.045-2.333-2.333l0,0
			C13.333,14.379,14.378,13.334,15.667,13.334z"/>
		
			<line fill="none" stroke="#323232" stroke-width="1.5" stroke-linecap="round" stroke-linejoin="round" x1="16.315" y1="15.019" x2="17.315" y2="14.019"/>
		<path fill="none" stroke="#323232" stroke-width="1.5" stroke-linecap="round" stroke-linejoin="round" d="M10.666,8.324
			L10.666,8.324c0.005,1.288-1.035,2.337-2.323,2.343l0,0c-1.289,0.005-2.337-1.035-2.343-2.323l0,0
			C5.995,7.054,7.036,6.006,8.324,6.001l0,0C9.612,5.994,10.661,7.035,10.666,8.324z"/>
		
			<line fill="none" stroke="#323232" stroke-width="1.5" stroke-linecap="round" stroke-linejoin="round" x1="8.989" y1="8.992" x2="9.989" y2="9.976"/>
	</g>
	<path fill="none" d="M0,0h24v24H0V0z"/>
</g>
</svg>
