<?xml version="1.0" encoding="utf-8"?>
<!-- Generator: Adobe Illustrator 24.0.2, SVG Export Plug-In . SVG Version: 6.00 Build 0)  -->
<svg version="1.1" id="Layer_1" xmlns="http://www.w3.org/2000/svg" xmlns:xlink="http://www.w3.org/1999/xlink" x="0px" y="0px"
	 width="24px" height="24px" viewBox="0 0 24 24" enable-background="new 0 0 24 24" xml:space="preserve">
<g>
	<g>
		<g>
			<path fill="none" stroke="#323232" stroke-width="1.5" stroke-linecap="round" stroke-linejoin="round" d="M7.795,11.293
				c-0.391,0.391-1.024,0.391-1.414,0L4.017,8.929c-1.356-1.356-1.356-3.557,0-4.912l0,0c1.356-1.356,3.557-1.356,4.913,0L12,7.088
				L7.795,11.293z"/>
			<path fill="none" stroke="#323232" stroke-width="1.5" stroke-linecap="round" stroke-linejoin="round" d="M12,7.088l3.07-3.07
				c1.356-1.356,3.556-1.356,4.913,0l0,0c1.356,1.356,1.356,3.557,0,4.913l-2.363,2.363c-0.391,0.391-1.024,0.391-1.414,0L12,7.088z
				"/>
		</g>
		<path fill="none" stroke="#323232" stroke-width="1.5" stroke-linecap="round" stroke-linejoin="round" d="M12.002,15
			c0.276-0.002,0.498-0.226,0.498-0.502c0-0.276-0.224-0.5-0.5-0.498c-0.276,0-0.5,0.224-0.5,0.5S11.722,15,12.002,15"/>
		<g>
			<path fill="none" stroke="#323232" stroke-width="1.5" stroke-linecap="round" stroke-linejoin="round" d="M12.5,20.498
				C12.498,20.222,12.274,20,11.998,20c-0.276,0-0.5,0.224-0.498,0.5c0,0.276,0.224,0.5,0.5,0.5S12.5,20.776,12.5,20.498"/>
		</g>
		<path fill="none" stroke="#323232" stroke-width="1.5" stroke-linecap="round" stroke-linejoin="round" d="M14.5,17.502
			C14.502,17.778,14.726,18,15.002,18c0.276,0,0.5-0.224,0.498-0.5c0-0.276-0.224-0.5-0.5-0.5S14.5,17.222,14.5,17.502"/>
		<g>
			<path fill="none" stroke="#323232" stroke-width="1.5" stroke-linecap="round" stroke-linejoin="round" d="M9.002,18
				C9.278,17.998,9.5,17.774,9.5,17.498c0-0.276-0.224-0.5-0.5-0.498c-0.276,0-0.5,0.224-0.5,0.5S8.724,18,9.002,18"/>
		</g>
		<path fill="none" stroke="#323232" stroke-width="1.5" stroke-linecap="round" stroke-linejoin="round" d="M17.5,20.502
			C17.502,20.778,17.726,21,18.002,21c0.276,0,0.5-0.224,0.498-0.5c0-0.276-0.224-0.5-0.5-0.5S17.5,20.222,17.5,20.502"/>
		<path fill="none" stroke="#323232" stroke-width="1.5" stroke-linecap="round" stroke-linejoin="round" d="M6.5,20.498
			C6.498,20.222,6.274,20,5.998,20c-0.276,0-0.5,0.224-0.498,0.5C5.5,20.776,5.724,21,6,21S6.5,20.778,6.5,20.498"/>
	</g>
	<path fill="none" d="M0,0h24v24H0V0z"/>
</g>
</svg>
