<?xml version="1.0" encoding="utf-8"?>
<!-- Generator: Adobe Illustrator 24.0.2, SVG Export Plug-In . SVG Version: 6.00 Build 0)  -->
<svg version="1.1" id="Layer_1" xmlns="http://www.w3.org/2000/svg" xmlns:xlink="http://www.w3.org/1999/xlink" x="0px" y="0px"
	 width="24px" height="24px" viewBox="0 0 24 24" enable-background="new 0 0 24 24" xml:space="preserve">
<g>
	<g>
		<path fill="none" stroke="#323232" stroke-width="1.5" stroke-linecap="round" stroke-linejoin="round" d="M15.889,8H8.111
			C6.945,8,6,7.055,6,5.889V5.111C6,3.945,6.945,3,8.111,3h7.778C17.055,3,18,3.945,18,5.111v0.778C18,7.055,17.055,8,15.889,8z"/>
		<path fill="none" stroke="#323232" stroke-width="1.5" stroke-linecap="round" stroke-linejoin="round" d="M15.833,21H8.167
			C6.418,21,5,19.582,5,17.833v-6.667C5,9.418,6.418,8,8.167,8h7.667C17.582,8,19,9.418,19,11.167v6.667
			C19,19.582,17.582,21,15.833,21z"/>
		
			<line fill="none" stroke="#323232" stroke-width="1.5" stroke-linecap="round" stroke-linejoin="round" x1="12" y1="12.556" x2="12" y2="16.778"/>
		
			<line fill="none" stroke="#323232" stroke-width="1.5" stroke-linecap="round" stroke-linejoin="round" x1="14.111" y1="14.667" x2="9.889" y2="14.667"/>
		
			<line fill="none" stroke="#323232" stroke-width="1.5" stroke-linecap="round" stroke-linejoin="round" x1="12" y1="5.296" x2="12" y2="5.806"/>
		
			<line fill="none" stroke="#323232" stroke-width="1.5" stroke-linecap="round" stroke-linejoin="round" x1="9.25" y1="5.296" x2="9.25" y2="5.806"/>
		
			<line fill="none" stroke="#323232" stroke-width="1.5" stroke-linecap="round" stroke-linejoin="round" x1="14.75" y1="5.296" x2="14.75" y2="5.806"/>
	</g>
	<path fill="none" d="M0,0h24v24H0V0z"/>
</g>
</svg>
