<svg id="Layer_3" data-name="Layer 3" xmlns="http://www.w3.org/2000/svg" viewBox="0 0 24 24"><title>earpods</title><line x1="5" y1="7.25" x2="5" y2="8.75" fill="none" stroke="#323232" stroke-linecap="round" stroke-linejoin="round" stroke-width="1.5"/><rect width="24" height="24" fill="none"/><line x1="8.5" y1="18" x2="8.5" y2="21" fill="none" stroke="#323232" stroke-linecap="round" stroke-linejoin="round" stroke-width="1.5"/><path d="M10,12V8A4,4,0,0,0,6,4H5.581a3.57,3.57,0,0,0-1.132.184h0A3.58,3.58,0,0,0,2,7.581v.838a3.58,3.58,0,0,0,2.449,3.4h0A3.57,3.57,0,0,0,5.581,12H6.5a.5.5,0,0,1,.5.5V17a1,1,0,0,0,1,1H9a1,1,0,0,0,1-1Z" fill="none" stroke="#323232" stroke-linecap="round" stroke-linejoin="round" stroke-width="1.5"/><line x1="15.5" y1="18" x2="15.5" y2="21" fill="none" stroke="#323232" stroke-linecap="round" stroke-linejoin="round" stroke-width="1.5"/><path d="M14,17a1,1,0,0,0,1,1h1a1,1,0,0,0,1-1V12.5a.5.5,0,0,1,.5-.5h.919a3.57,3.57,0,0,0,1.132-.184h0A3.58,3.58,0,0,0,22,8.419V7.581a3.58,3.58,0,0,0-2.449-3.4h0A3.57,3.57,0,0,0,18.419,4H18a4,4,0,0,0-4,4v9Z" fill="none" stroke="#323232" stroke-linecap="round" stroke-linejoin="round" stroke-width="1.5"/><line x1="19" y1="8.75" x2="19" y2="7.25" fill="none" stroke="#323232" stroke-linecap="round" stroke-linejoin="round" stroke-width="1.5"/></svg>