<svg id="Layer_3" data-name="Layer 3" xmlns="http://www.w3.org/2000/svg" viewBox="0 0 24 24"><title>Artboard 105</title><rect id="_Transparent_Rectangle_" data-name=" Transparent Rectangle " width="24" height="24" fill="none"/><path d="M11.5,19a8.5,8.5,0,1,1,0-17" fill="none" stroke="#323232" stroke-linecap="round" stroke-linejoin="round" stroke-width="1.5"/><line x1="3.484" y1="7.666" x2="19.514" y2="7.666" fill="none" stroke="#323232" stroke-linecap="round" stroke-linejoin="round" stroke-width="1.5"/><line x1="3.485" y1="13.333" x2="12.444" y2="13.333" fill="none" stroke="#323232" stroke-linecap="round" stroke-linejoin="round" stroke-width="1.5"/><path d="M13.231,3A2,2,0,0,0,9.769,3a14.761,14.761,0,0,0,0,15A2.008,2.008,0,0,0,11.5,19" fill="none" stroke="#323232" stroke-linecap="round" stroke-linejoin="round" stroke-width="1.5"/><path d="M16,17.509V14.5a1.5,1.5,0,0,1,3,0v3.009h0a2.5,2.5,0,1,1-3,0" fill="none" stroke="#323232" stroke-linecap="round" stroke-linejoin="round" stroke-width="1.5"/><path d="M19.974,10A8.492,8.492,0,0,0,11.5,2" fill="none" stroke="#323232" stroke-linecap="round" stroke-linejoin="round" stroke-width="1.5"/><path d="M13.231,3a14.59,14.59,0,0,1,2.03,7" fill="none" stroke="#323232" stroke-linecap="round" stroke-linejoin="round" stroke-width="1.5"/></svg>