<svg id="Layer_3" data-name="Layer 3" xmlns="http://www.w3.org/2000/svg" viewBox="0 0 24 24"><title>earth-astronomy</title><path id="a" d="M0,0H24V24H0Z" fill="none"/><path id="a-2" data-name="a" d="M0,0H24V24H0Z" fill="none"/><path d="M7.5,3H5A2,2,0,0,0,3,5V7.5" fill="none" stroke="#323232" stroke-linecap="round" stroke-linejoin="round" stroke-width="1.5"/><path d="M3,16.5V19a2,2,0,0,0,2,2H7.5" fill="none" stroke="#323232" stroke-linecap="round" stroke-linejoin="round" stroke-width="1.5"/><path d="M16.5,21H19a2,2,0,0,0,2-2V16.5" fill="none" stroke="#323232" stroke-linecap="round" stroke-linejoin="round" stroke-width="1.5"/><path d="M21,7.5V5a2,2,0,0,0-2-2H16.5" fill="none" stroke="#323232" stroke-linecap="round" stroke-linejoin="round" stroke-width="1.5"/><path d="M6,12H8.781a1.886,1.886,0,0,0,1.886-1.885h0a1.889,1.889,0,0,0-.552-1.334L8.478,7.145" fill="none" stroke="#323232" stroke-linecap="round" stroke-linejoin="round" stroke-width="1.5"/><path d="M16.2,16.292,15.01,14.515A1.154,1.154,0,0,0,14.048,14h0a1.155,1.155,0,0,1-1.034-.639l-.089-.177a1.161,1.161,0,0,1,0-1.034l.756-1.51A1.154,1.154,0,0,1,14.715,10h2.938" fill="none" stroke="#323232" stroke-linecap="round" stroke-linejoin="round" stroke-width="1.5"/><path d="M12,6a6,6,0,1,0,6,6A5.989,5.989,0,0,0,12,6Z" fill="none" stroke="#323232" stroke-linecap="round" stroke-linejoin="round" stroke-width="1.5"/></svg>