<svg id="Layer_3" data-name="Layer 3" xmlns="http://www.w3.org/2000/svg" viewBox="0 0 24 24"><path d="M12,21a9,9,0,1,1,9-9" fill="none" stroke="#323232" stroke-linecap="round" stroke-linejoin="round" stroke-width="1.5"/><line x1="3.513" y1="9" x2="20.48709" y2="9" fill="none" stroke="#323232" stroke-linecap="round" stroke-linejoin="round" stroke-width="1.5"/><line x1="3.514" y1="15" x2="12" y2="15" fill="none" stroke="#323232" stroke-linecap="round" stroke-linejoin="round" stroke-width="1.5"/><path d="M16,12a15.47619,15.47619,0,0,0-2.167-7.94,2.11424,2.11424,0,0,0-3.665,0,15.62851,15.62851,0,0,0,0,15.881,2.125,2.125,0,0,0,1.833,1.06" fill="none" stroke="#323232" stroke-linecap="round" stroke-linejoin="round" stroke-width="1.5"/><path d="M18,14a4,4,0,1,1-4,4,4,4,0,0,1,4-4" fill="none" stroke="#323232" stroke-linecap="round" stroke-linejoin="round" stroke-width="1.5"/><path d="M19.086,17.956a.044.044,0,0,0-.00018.088H19.086a.044.044,0,1,0,.00018-.088H19.086" fill="none" stroke="#323232" stroke-linecap="round" stroke-linejoin="round" stroke-width="1.5"/><path d="M16.913,17.956a.044.044,0,0,0-.044.044h0a.045.045,0,1,0,.046-.044h-.001" fill="none" stroke="#323232" stroke-linecap="round" stroke-linejoin="round" stroke-width="1.5"/><rect id="_Transparent_Rectangle_" data-name=" Transparent Rectangle " width="24" height="24" fill="none"/></svg>