<svg id="Layer_3" data-name="Layer 3" xmlns="http://www.w3.org/2000/svg" viewBox="0 0 24 24"><title>earth-saturn-rotation</title><path id="a" d="M19.139,4.829a1.59382,1.59382,0,1,1-2.254,0,1.59459,1.59459,0,0,1,2.254,0" fill="none" stroke="#323232" stroke-linecap="round" stroke-linejoin="round" stroke-width="1.5"/><path id="a-2" data-name="a" d="M19.139,4.829a1.59382,1.59382,0,1,1-2.254,0,1.59459,1.59459,0,0,1,2.254,0" fill="none" stroke="#323232" stroke-linecap="round" stroke-linejoin="round" stroke-width="1.5"/><path d="M9.523,20.133a8.49164,8.49164,0,0,0,2.474.368h.002a8.49562,8.49562,0,0,0,8.364-10.002" fill="none" stroke="#323232" stroke-linecap="round" stroke-linejoin="round" stroke-width="1.5"/><path d="M5.538,6.486A8.44819,8.44819,0,0,1,7.013,5.128" fill="none" stroke="#323232" stroke-linecap="round" stroke-linejoin="round" stroke-width="1.5"/><path d="M3.992,9.168a8.47171,8.47171,0,0,0-.494,2.833" fill="none" stroke="#323232" stroke-linecap="round" stroke-linejoin="round" stroke-width="1.5"/><path d="M7.013,18.876a8.51454,8.51454,0,0,1-3.019-4.041" fill="none" stroke="#323232" stroke-linecap="round" stroke-linejoin="round" stroke-width="1.5"/><path d="M9.523,3.87a8.49164,8.49164,0,0,1,2.474-.368L12,3.503a8.48421,8.48421,0,0,1,4.77,1.464" fill="none" stroke="#323232" stroke-linecap="round" stroke-linejoin="round" stroke-width="1.5"/><line x1="6.99982" y1="9.49958" x2="16.99982" y2="14.49979" fill="none" stroke="#323232" stroke-linecap="round" stroke-linejoin="round" stroke-width="1.5"/><path d="M13.76739,8.46469a3.95322,3.95322,0,1,1-5.30382,1.76784,3.95243,3.95243,0,0,1,5.30382-1.76784" fill="none" stroke="#323232" stroke-linecap="round" stroke-linejoin="round" stroke-width="1.5"/><path d="M0,0H24V24H0Z" fill="none"/></svg>