<svg id="Layer_3" data-name="Layer 3" xmlns="http://www.w3.org/2000/svg" viewBox="0 0 24 24"><title>earth-graduate-hat</title><path d="M20,11H15.828A2.828,2.828,0,0,1,13,8.172h0a2.829,2.829,0,0,1,.828-2l2.454-2.454" fill="none" stroke="#323232" stroke-linecap="round" stroke-linejoin="round" stroke-width="1.5"/><path d="M4.708,17.438l1.777-2.665A1.734,1.734,0,0,1,7.928,14h0a1.734,1.734,0,0,0,1.551-.959l.133-.266a1.735,1.735,0,0,0,0-1.551L8.479,8.959A1.732,1.732,0,0,0,6.928,8H2.52" fill="none" stroke="#323232" stroke-linecap="round" stroke-linejoin="round" stroke-width="1.5"/><path d="M11,2a9,9,0,0,0,0,18" fill="none" stroke="#323232" stroke-linecap="round" stroke-linejoin="round" stroke-width="1.5"/><path d="M20,11a8.985,8.985,0,0,0-9-9" fill="none" stroke="#323232" stroke-linecap="round" stroke-linejoin="round" stroke-width="1.5"/><path d="M15.025,17.922v2.325a1.349,1.349,0,0,0,.746,1.207l.522.261a2.7,2.7,0,0,0,2.414,0l.522-.261a1.349,1.349,0,0,0,.746-1.207V17.922" fill="none" stroke="#323232" stroke-linecap="round" stroke-linejoin="round" stroke-width="1.5"/><path d="M13.413,17.116,16.5,18.658a2.247,2.247,0,0,0,2.006,0l3.084-1.542a.747.747,0,0,0,0-1.337L18.5,14.237a2.241,2.241,0,0,0-2.006,0l-3.084,1.542A.747.747,0,0,0,13.413,17.116Z" fill="none" stroke="#323232" stroke-linecap="round" stroke-linejoin="round" stroke-width="1.5"/><path d="M22,16.447v1.8" fill="none" stroke="#323232" stroke-linecap="round" stroke-linejoin="round" stroke-width="1.5"/><path d="M0,0H24V24H0Z" fill="none"/></svg>