<svg id="Layer_3" data-name="Layer 3" xmlns="http://www.w3.org/2000/svg" viewBox="0 0 24 24"><title>earth-rotation</title><path d="M0,0H24V24H0Z" fill="none"/><path d="M11,5a8,8,0,1,0,8,8A7.987,7.987,0,0,0,11,5Z" fill="none" stroke="#323232" stroke-linecap="round" stroke-linejoin="round" stroke-width="1.5"/><path d="M7.44444,20.17156v-.06311c0-1.77778,3.55556-1.568,3.55556-3.55556,0-1.77778-2.66667-1.77778-2.66667-4.44444,0-2.51378-1.77777-2.66667-4.44444-2.66667H3.83467" fill="none" stroke="#323232" stroke-linecap="round" stroke-linejoin="round" stroke-width="1.5"/><path d="M16.30667,18.97333a2.62142,2.62142,0,0,1-.39467-.18044,2.67691,2.67691,0,1,1,2.70311-4.62133,2.75235,2.75235,0,0,1,.25867.18844" fill="none" stroke="#323232" stroke-linecap="round" stroke-linejoin="round" stroke-width="1.5"/><path d="M14.23,5.68a3.99706,3.99706,0,1,1,4.5,5.25" fill="none" stroke="#323232" stroke-linecap="round" stroke-linejoin="round" stroke-width="1.5"/></svg>