<svg id="Layer_3" data-name="Layer 3" xmlns="http://www.w3.org/2000/svg" viewBox="0 0 24 24"><title>Artboard 112</title><path d="M17,14.25h-.75a1,1,0,0,1-1-1v-2.5a1,1,0,0,1,1-1H17a1,1,0,0,1,1,1v2.5A1,1,0,0,1,17,14.25Z" fill="none" stroke="#323232" stroke-linecap="round" stroke-linejoin="round" stroke-width="1.5"/><rect x="3" y="3" width="18" height="18" rx="5" stroke-width="1.5" stroke="#323232" stroke-linecap="round" stroke-linejoin="round" fill="none"/><path d="M6,12h2.07" fill="none" stroke="#323232" stroke-linecap="round" stroke-linejoin="round" stroke-width="1.5"/><path d="M13.125,9.75h-1.25a1,1,0,0,0-1,1v2.5a1,1,0,0,0,1,1h1.25" fill="none" stroke="#323232" stroke-linecap="round" stroke-linejoin="round" stroke-width="1.5"/><path d="M8.5,9.75h-2a.5.5,0,0,0-.5.5v3.5a.5.5,0,0,0,.5.5h2" fill="none" stroke="#323232" stroke-linecap="round" stroke-linejoin="round" stroke-width="1.5"/><path d="M0,0H24V24H0Z" fill="none"/></svg>