<svg id="Layer_3" data-name="Layer 3" xmlns="http://www.w3.org/2000/svg" viewBox="0 0 24 24"><title>eggplant</title><rect width="24" height="24" fill="none"/><path d="M20.659,6.835l.288-.289a2.432,2.432,0,0,0,0-3.441" fill="none" stroke="#323232" stroke-linecap="round" stroke-linejoin="round" stroke-width="1.5"/><path d="M18.4,10.865l-.923-.185a1.2,1.2,0,0,1-.944-.944l-.185-.923a.6.6,0,0,0-.5-.478l-.174-.025a1.2,1.2,0,0,1-.681-2.042h0a3.61,3.61,0,0,1,5.106,0l.852.851a3.612,3.612,0,0,1,0,5.106h0a1.2,1.2,0,0,1-2.042-.681l-.025-.174A.6.6,0,0,0,18.4,10.865Z" fill="none" stroke="#323232" stroke-linecap="round" stroke-linejoin="round" stroke-width="1.5"/><path d="M19.27,12.25l-.49,1.09A13.06,13.06,0,0,1,6.89,21a4.893,4.893,0,0,1-1.06-9.67A37.346,37.346,0,0,0,15,7.98" fill="none" stroke="#323232" stroke-linecap="round" stroke-linejoin="round" stroke-width="1.5"/></svg>