<svg id="Layer_3" data-name="Layer 3" xmlns="http://www.w3.org/2000/svg" viewBox="0 0 24 24"><title>Artboard 21</title><path d="M9.5,10.75h5a1,1,0,0,1,1,1V13a2.25,2.25,0,0,1-2.25,2.25h-2.5A2.25,2.25,0,0,1,8.5,13V11.75A1,1,0,0,1,9.5,10.75Z" fill="none" stroke="#323232" stroke-linecap="round" stroke-linejoin="round" stroke-width="1.5"/><line x1="10.036" y1="10.75" x2="10.036" y2="8.5" fill="none" stroke="#323232" stroke-linecap="round" stroke-linejoin="round" stroke-width="1.5"/><line x1="13.964" y1="10.75" x2="13.964" y2="8.5" fill="none" stroke="#323232" stroke-linecap="round" stroke-linejoin="round" stroke-width="1.5"/><path d="M16,20.051A8.994,8.994,0,1,0,3,12a9.348,9.348,0,0,0,2.744,6.624h0a6.983,6.983,0,0,0,4.928,2.036h0A1.329,1.329,0,0,0,12,19.332V15.25" fill="none" stroke="#323232" stroke-linecap="round" stroke-linejoin="round" stroke-width="1.5"/><rect width="24" height="24" fill="none"/></svg>