<svg id="Layer_3" data-name="Layer 3" xmlns="http://www.w3.org/2000/svg" viewBox="0 0 24 24"><path d="M14.5,20.5v-.406A2.1,2.1,0,0,1,16.594,18h3.312A2.1,2.1,0,0,1,22,20.094V20.5a.5.5,0,0,1-.5.5H15A.5.5,0,0,1,14.5,20.5Z" fill="none" stroke="#323232" stroke-linecap="round" stroke-linejoin="round" stroke-width="1.5"/><path d="M16.325,14.04a2,2,0,1,1,1.463,1.408A2,2,0,0,1,16.325,14.04Z" fill="none" stroke="#323232" stroke-linecap="round" stroke-linejoin="round" stroke-width="1.5"/><path d="M2,18.5v-.406A2.1,2.1,0,0,1,4.094,16H7.406A2.1,2.1,0,0,1,9.5,18.094V18.5A.5.5,0,0,1,9,19H2.5A.5.5,0,0,1,2,18.5Z" fill="none" stroke="#323232" stroke-linecap="round" stroke-linejoin="round" stroke-width="1.5"/><path d="M3.825,12.04a2,2,0,1,1,1.463,1.408A2,2,0,0,1,3.825,12.04Z" fill="none" stroke="#323232" stroke-linecap="round" stroke-linejoin="round" stroke-width="1.5"/><circle cx="13" cy="6" r="4" fill="none" stroke="#323232" stroke-linecap="round" stroke-linejoin="round" stroke-width="1.5"/><path d="M14.345,5.208l-1.68,1.679L11.655,5.88" fill="none" stroke="#323232" stroke-linecap="round" stroke-linejoin="round" stroke-width="1.5"/><path d="M0,24V0H24V24" fill="none"/></svg>