<svg id="Layer_3" data-name="Layer 3" xmlns="http://www.w3.org/2000/svg" viewBox="0 0 24 24"><path d="M13.23746,14.79826a1.75,1.75,0,1,1-2.47487,0,1.75,1.75,0,0,1,2.47487,0" fill="none" stroke="#323232" stroke-linecap="round" stroke-linejoin="round" stroke-width="1.5"/><path d="M17.73744,10.29828a1.75,1.75,0,1,1-2.47488,0,1.75,1.75,0,0,1,2.47488,0" fill="none" stroke="#323232" stroke-linecap="round" stroke-linejoin="round" stroke-width="1.5"/><path d="M21,13V5.25A2.25,2.25,0,0,0,18.75,3H5.25A2.25,2.25,0,0,0,3,5.25V13" fill="none" stroke="#323232" stroke-linecap="round" stroke-linejoin="round" stroke-width="1.5"/><path d="M17,16a4.91219,4.91219,0,0,1,3,1" fill="none" stroke="#323232" stroke-linecap="round" stroke-linejoin="round" stroke-width="1.5"/><path d="M9.25,11.75A1.75,1.75,0,1,1,7.5,10a1.75,1.75,0,0,1,1.75,1.75" fill="none" stroke="#323232" stroke-linecap="round" stroke-linejoin="round" stroke-width="1.5"/><path d="M4,17a4.83,4.83,0,0,1,2.94931-.98286" fill="none" stroke="#323232" stroke-linecap="round" stroke-linejoin="round" stroke-width="1.5"/><path d="M15,21a5,5,0,0,0-6,0" fill="none" stroke="#323232" stroke-linecap="round" stroke-linejoin="round" stroke-width="1.5"/><path d="M0,24V0H24V24" fill="none"/></svg>