<svg id="Layer_3" data-name="Layer 3" xmlns="http://www.w3.org/2000/svg" viewBox="0 0 24 24"><title>endless-square</title><path d="M15.6,21H8.4A5.4,5.4,0,0,1,3,15.6V8.4A5.4,5.4,0,0,1,8.4,3h7.2A5.4,5.4,0,0,1,21,8.4v7.2A5.4,5.4,0,0,1,15.6,21Z" fill="none" stroke="#323232" stroke-linecap="round" stroke-linejoin="round" stroke-width="1.5"/><path d="M11.819,12.191c-.51.559-2.063,2.121-3.5,2.121v0l-.005,0h0a2.312,2.312,0,0,1,0-4.624h0l.005,0v0c1.44,0,2.993,1.561,3.5,2.121L12,12Z" fill="none" stroke="#323232" stroke-linecap="round" stroke-linejoin="round" stroke-width="1.5"/><path d="M12.181,12.191c.51.559,2.063,2.121,3.5,2.121v0l.005,0h0a2.312,2.312,0,0,0,0-4.624h0l-.005,0v0c-1.44,0-2.993,1.561-3.5,2.121L12,12Z" fill="none" stroke="#323232" stroke-linecap="round" stroke-linejoin="round" stroke-width="1.5"/><path d="M0,0H24V24H0Z" fill="none"/></svg>