<svg id="Layer_3" data-name="Layer 3" xmlns="http://www.w3.org/2000/svg" viewBox="0 0 24 24"><title>Artboard 28</title><path d="M6,6.37a2.423,2.423,0,0,0-2.227.88c-.966,1.674,1.933,5.158,6.477,7.781.587.339,1.173.646,1.75.922" fill="none" stroke="#323232" stroke-linecap="round" stroke-linejoin="round" stroke-width="1.5"/><path d="M12,8.047c.577.276,1.163.582,1.75.922,4.544,2.623,7.444,6.107,6.477,7.781A2.425,2.425,0,0,1,18,17.63" fill="none" stroke="#323232" stroke-linecap="round" stroke-linejoin="round" stroke-width="1.5"/><path d="M4.124,14.381a2.422,2.422,0,0,0-.351,2.369c.966,1.674,5.433.9,9.977-1.719.587-.339,1.146-.693,1.673-1.055" fill="none" stroke="#323232" stroke-linecap="round" stroke-linejoin="round" stroke-width="1.5"/><path d="M8.577,10.024c.528-.362,1.086-.716,1.673-1.055,4.544-2.623,9.011-3.393,9.977-1.719a2.425,2.425,0,0,1-.351,2.369" fill="none" stroke="#323232" stroke-linecap="round" stroke-linejoin="round" stroke-width="1.5"/><path d="M10.124,20.011c.543.938,1.185,1.489,1.876,1.489,1.933,0,3.5-4.253,3.5-9.5,0-.678-.027-1.338-.077-1.976" fill="none" stroke="#323232" stroke-linecap="round" stroke-linejoin="round" stroke-width="1.5"/><path d="M8.577,13.976c-.05-.638-.077-1.3-.077-1.976,0-5.247,1.567-9.5,3.5-9.5.691,0,1.333.551,1.876,1.489" fill="none" stroke="#323232" stroke-linecap="round" stroke-linejoin="round" stroke-width="1.5"/><path d="M24,0V24H0V0Z" fill="none"/></svg>