<?xml version="1.0" encoding="utf-8"?>
<!-- Generator: Adobe Illustrator 24.0.2, SVG Export Plug-In . SVG Version: 6.00 Build 0)  -->
<svg version="1.1" id="Layer_3" xmlns="http://www.w3.org/2000/svg" xmlns:xlink="http://www.w3.org/1999/xlink" x="0px" y="0px"
	 viewBox="0 0 24 24" style="enable-background:new 0 0 24 24;" xml:space="preserve">
<style type="text/css">
	.st0{fill:none;}
	.st1{fill:none;stroke:#323232;stroke-width:1.5;stroke-linecap:round;stroke-linejoin:round;}
</style>
<title>Artboard 27</title>
<path class="st0" d="M0,0h24v24H0V0z"/>
<g>
	<path class="st0" d="M0,0h24v24H0V0z"/>
	<g>
		<path class="st1" d="M6.7,19.3c-0.6-0.4-1.1-0.9-1.6-1.4"/>
		<path class="st1" d="M3.5,9c0.6-1.6,1.5-3,2.8-4"/>
		<path class="st1" d="M20.4,4.8v2.9l0,0"/>
		<path class="st1" d="M9.4,3.4c4.1-1.2,8.5,0.6,10.5,4.3"/>
		<path class="st1" d="M12.3,15.2L14,12h-4l1.7-3.2"/>
		<path class="st1" d="M9.8,20.8c0.7,0.2,1.5,0.3,2.3,0.3c5-0.1,8.9-4.1,8.9-9.1"/>
		<path class="st1" d="M17.5,7.7h2.9l0,0"/>
		<path class="st1" d="M3,12c0,1,0.2,2,0.5,3"/>
	</g>
</g>
</svg>
