<svg id="Layer_3" data-name="Layer 3" xmlns="http://www.w3.org/2000/svg" viewBox="0 0 24 24"><title>Artboard 34</title><path d="M0,0H24V24H0Z" fill="none"/><path d="M15.105,21l-1.5-1.492,1.5-1.492" fill="none" stroke="#323232" stroke-linecap="round" stroke-linejoin="round" stroke-width="1.5"/><path d="M18.675,12.622l2.387,4.1a1.856,1.856,0,0,1-1.619,2.783H13.6" fill="none" stroke="#323232" stroke-linecap="round" stroke-linejoin="round" stroke-width="1.5"/><path d="M5.859,11.7,2.938,16.725a1.856,1.856,0,0,0,1.619,2.783H9.33" fill="none" stroke="#323232" stroke-linecap="round" stroke-linejoin="round" stroke-width="1.5"/><path d="M8,8.031l2.387-4.1a1.876,1.876,0,0,1,3.237,0L16.54,8.949" fill="none" stroke="#323232" stroke-linecap="round" stroke-linejoin="round" stroke-width="1.5"/><path d="M3.816,12.259,5.859,11.7,6.4,13.751" fill="none" stroke="#323232" stroke-linecap="round" stroke-linejoin="round" stroke-width="1.5"/><path d="M17.08,6.9l-.541,2.047L14.5,8.394" fill="none" stroke="#323232" stroke-linecap="round" stroke-linejoin="round" stroke-width="1.5"/><path d="M12.227,15.6,13.378,13.3H10.622l1.151-2.294" fill="none" stroke="#323232" stroke-linecap="round" stroke-linejoin="round" stroke-width="1.5"/></svg>