<svg id="Layer_3" data-name="Layer 3" xmlns="http://www.w3.org/2000/svg" viewBox="0 0 24 24"><title>erase-square</title><path d="M9.57,11.971a.041.041,0,1,1-.058,0,.041.041,0,0,1,.058,0" fill="none" stroke="#323232" stroke-linecap="round" stroke-linejoin="round" stroke-width="1.5"/><path d="M14.488,11.971a.041.041,0,1,1-.058,0,.041.041,0,0,1,.058,0" fill="none" stroke="#323232" stroke-linecap="round" stroke-linejoin="round" stroke-width="1.5"/><path d="M12.029,14.43a.041.041,0,1,1-.058,0,.041.041,0,0,1,.058,0" fill="none" stroke="#323232" stroke-linecap="round" stroke-linejoin="round" stroke-width="1.5"/><path d="M12.029,9.512a.041.041,0,1,1-.058,0,.041.041,0,0,1,.058,0" fill="none" stroke="#323232" stroke-linecap="round" stroke-linejoin="round" stroke-width="1.5"/><path d="M12.029,11.971a.041.041,0,1,1-.058,0,.041.041,0,0,1,.058,0" fill="none" stroke="#323232" stroke-linecap="round" stroke-linejoin="round" stroke-width="1.5"/><path d="M17.812,9.559,14.441,6.188a2,2,0,0,0-2.828,0L6.188,11.613a2,2,0,0,0,0,2.828l3.371,3.371a2,2,0,0,0,2.828,0l5.425-5.425A2,2,0,0,0,17.812,9.559Z" fill="none" stroke="#323232" stroke-linecap="round" stroke-linejoin="round" stroke-width="1.5"/><rect x="3" y="3" width="18" height="18" rx="5" stroke-width="1.5" stroke="#323232" stroke-linecap="round" stroke-linejoin="round" fill="none"/><path d="M0,0H24V24H0Z" fill="none"/><rect width="24" height="24" fill="none"/></svg>