<svg id="Layer_3" data-name="Layer 3" xmlns="http://www.w3.org/2000/svg" viewBox="0 0 24 24"><title>Artboard 145</title><rect x="3" y="3" width="18" height="18" rx="5" stroke-width="1.5" stroke="#323232" stroke-linecap="round" stroke-linejoin="round" fill="none"/><path d="M10.287,10.287l3.926,3.926" fill="none" stroke="#323232" stroke-linecap="round" stroke-linejoin="round" stroke-width="1.5"/><path d="M11.305,16.5h-2a1.5,1.5,0,0,1-1.061-.439l-.809-.809a1.5,1.5,0,0,1,0-2.116l5.2-5.2a1.5,1.5,0,0,1,2.116,0l1.81,1.81a1.5,1.5,0,0,1,0,2.116l-4.2,4.2A1.5,1.5,0,0,1,11.305,16.5Z" fill="none" stroke="#323232" stroke-linecap="round" stroke-linejoin="round" stroke-width="1.5"/><path d="M0,0H24V24H0Z" fill="none"/></svg>