<svg id="Layer_3" data-name="Layer 3" xmlns="http://www.w3.org/2000/svg" viewBox="0 0 24 24"><title>erase-edit-square</title><path d="M0,0H24V24H0Z" fill="none"/><path d="M3,13V8A5,5,0,0,1,8,3h8a5,5,0,0,1,5,5v8a5,5,0,0,1-5,5H13" fill="none" stroke="#323232" stroke-linecap="round" stroke-linejoin="round" stroke-width="1.5"/><path d="M8.05805,21H6.0545a2,2,0,0,1-1.41421-.58579L3.58709,19.361a2.00447,2.00447,0,0,1,0-2.83475L10.52626,9.5871a2.00447,2.00447,0,0,1,2.83473,0l2.0519,2.05184a2.00443,2.00443,0,0,1,0,2.83472L9.47226,20.41422A2,2,0,0,1,8.05805,21Z" fill="none" stroke="#323232" stroke-linecap="round" stroke-linejoin="round" stroke-width="1.5"/><line x1="7.05669" y1="13.05666" x2="11.94327" y2="17.94324" fill="none" stroke="#323232" stroke-linecap="round" stroke-linejoin="round" stroke-width="1.5"/></svg>