<svg id="Layer_3" data-name="Layer 3" xmlns="http://www.w3.org/2000/svg" viewBox="0 0 24 24"><title>esp-dashboard-square</title><path d="M8.312,9.75H5.75v4.5H8.312" fill="none" stroke="#323232" stroke-linecap="round" stroke-linejoin="round" stroke-width="1.5"/><path d="M5.752,12H7.874" fill="none" stroke="#323232" stroke-linecap="round" stroke-linejoin="round" stroke-width="1.5"/><path d="M15.65,9.75v4.5" fill="none" stroke="#323232" stroke-linecap="round" stroke-linejoin="round" stroke-width="1.5"/><path d="M15.65,9.75H17.3a1.35,1.35,0,0,1,1.35,1.35h0a1.35,1.35,0,0,1-1.35,1.35H15.652" fill="none" stroke="#323232" stroke-linecap="round" stroke-linejoin="round" stroke-width="1.5"/><path d="M13.3,10.288a1.079,1.079,0,0,0-.927-.538h-.9a.9.9,0,0,0-.9.9V10.9a.9.9,0,0,0,.616.854l1.469.49a.9.9,0,0,1,.615.854v.251a.9.9,0,0,1-.9.9h-.9a1.078,1.078,0,0,1-.924-.536" fill="none" stroke="#323232" stroke-linecap="round" stroke-linejoin="round" stroke-width="1.5"/><rect x="2" y="3" width="20" height="18" rx="5" stroke-width="1.5" stroke="#323232" stroke-linecap="round" stroke-linejoin="round" fill="none"/><path d="M0,0H24V24H0Z" fill="none"/></svg>