<svg id="Layer_3" data-name="Layer 3" xmlns="http://www.w3.org/2000/svg" viewBox="0 0 24 24"><title>exchange-shield-protection</title><rect width="24" height="24" fill="none"/><path d="M6.5,2.5,8,4,6.5,5.5" fill="none" stroke="#323232" stroke-linecap="round" stroke-linejoin="round" stroke-width="1.5"/><path d="M8,4H6A3,3,0,0,0,3,7" fill="none" stroke="#323232" stroke-linecap="round" stroke-linejoin="round" stroke-width="1.5"/><path d="M17.5,21.5,16,20l1.5-1.5" fill="none" stroke="#323232" stroke-linecap="round" stroke-linejoin="round" stroke-width="1.5"/><path d="M16,20h2a3,3,0,0,0,3-3" fill="none" stroke="#323232" stroke-linecap="round" stroke-linejoin="round" stroke-width="1.5"/><path d="M10.153,6.153a5.14817,5.14817,0,0,1,.458-.542,5.5,5.5,0,0,1,7.778,7.778,4.64791,4.64791,0,0,1-.547.453" fill="none" stroke="#323232" stroke-linecap="round" stroke-linejoin="round" stroke-width="1.5"/><path d="M7.27652,14.41055V13.22639a.55557.55557,0,0,1,.38985-.53027L9.333,12.17529a.55551.55551,0,0,1,.33141,0l1.66667.52083a.55557.55557,0,0,1,.38985.53027v1.18416a2.77778,2.77778,0,0,1-1.80244,2.60092l-.32225.12084a.27769.27769,0,0,1-.19507,0L9.079,17.01147A2.77778,2.77778,0,0,1,7.27652,14.41055Z" fill="none" stroke="#323232" stroke-linecap="round" stroke-linejoin="round" stroke-width="1.5"/><circle cx="9.5" cy="14.5" r="5.5" fill="none" stroke="#323232" stroke-linecap="round" stroke-linejoin="round" stroke-width="1.5"/></svg>