<svg id="Layer_3" data-name="Layer 3" xmlns="http://www.w3.org/2000/svg" viewBox="0 0 24 24"><path d="M8,4H5.25A2.24937,2.24937,0,0,0,3,6.25v11.5A2.24938,2.24938,0,0,0,5.25,20H8" fill="none" stroke="#323232" stroke-linecap="round" stroke-linejoin="round" stroke-width="1.5"/><path d="M13.60987,20.946l5.625-1.242A2.24958,2.24958,0,0,0,21,17.50691V6.49309A2.24958,2.24958,0,0,0,19.23487,4.296l-5.625-1.242A2.24943,2.24943,0,0,0,10.875,5.25109V18.75A2.24924,2.24924,0,0,0,13.60987,20.946Z" fill="none" stroke="#323232" stroke-linecap="round" stroke-linejoin="round" stroke-width="1.5"/><path d="M14.09956,11.90042a.14062.14062,0,1,1-.19912,0,.14062.14062,0,0,1,.19912,0" fill="none" stroke="#323232" stroke-linecap="round" stroke-linejoin="round" stroke-width="1.5"/><path d="M0,0H24V24H0Z" fill="none"/></svg>