<?xml version="1.0" encoding="utf-8"?>
<!-- Generator: Adobe Illustrator 24.0.2, SVG Export Plug-In . SVG Version: 6.00 Build 0)  -->
<svg version="1.1" id="Layer_1" xmlns="http://www.w3.org/2000/svg" xmlns:xlink="http://www.w3.org/1999/xlink" x="0px" y="0px"
	 width="24px" height="24px" viewBox="0 0 24 24" enable-background="new 0 0 24 24" xml:space="preserve">
<g>
	<path fill="none" d="M0,0h24v24H0V0z"/>
	<g>
		<path fill="none" stroke="#323232" stroke-width="1.5" stroke-linecap="round" stroke-linejoin="round" d="M12,21H6
			c-1.105,0-2-0.895-2-2V5c0-1.105,0.895-2,2-2h12c1.105,0,2,0.895,2,2v5"/>
		<path fill="none" stroke="#323232" stroke-width="1.5" stroke-linecap="round" stroke-linejoin="round" d="M9,11v2"/>
		<path fill="none" stroke="#323232" stroke-width="1.5" stroke-linecap="round" stroke-linejoin="round" d="M4,5.003v13.995
			c0,1.487,1.565,2.454,2.894,1.789l4-2c0.678-0.34,1.106-1.032,1.106-1.79V7.003c0-0.758-0.428-1.45-1.106-1.789l-4-2
			C5.565,2.549,4,3.516,4,5.003z"/>
		<path fill="none" stroke="#323232" stroke-width="1.5" stroke-linecap="round" stroke-linejoin="round" d="M22,17.5
			c0,1.937-1.563,3.5-3.5,3.5S15,19.437,15,17.5s1.563-3.5,3.5-3.5S22,15.563,22,17.5z"/>
		<path fill="none" stroke="#323232" stroke-width="1.5" stroke-linecap="round" stroke-linejoin="round" d="M16.026,19.974
			l4.948-4.948"/>
	</g>
</g>
</svg>
