<svg id="Layer_3" data-name="Layer 3" xmlns="http://www.w3.org/2000/svg" viewBox="0 0 24 24"><title>Artboard 202</title><path d="M0,0H24V24H0Z" fill="none"/><path d="M13.77,11.826l1-1a3,3,0,0,1-3.272,4.13" fill="none" stroke="#323232" stroke-linecap="round" stroke-linejoin="round" stroke-width="1.5"/><path d="M10.23,12.173l-1,1a3,3,0,0,1,3.442-4.1" fill="none" stroke="#323232" stroke-linecap="round" stroke-linejoin="round" stroke-width="1.5"/><path d="M3,12a4.346,4.346,0,0,1,.446-1.912h0A9.453,9.453,0,0,1,12,5a9.453,9.453,0,0,1,8.554,5.088h0a4.321,4.321,0,0,1,0,3.824h0A9.453,9.453,0,0,1,12,19a9.453,9.453,0,0,1-8.554-5.088h0A4.346,4.346,0,0,1,3,12Z" fill="none" stroke="#323232" stroke-linecap="round" stroke-linejoin="round" stroke-width="1.5"/></svg>