<svg id="Layer_3" data-name="Layer 3" xmlns="http://www.w3.org/2000/svg" viewBox="0 0 24 24"><title>eye-one</title><path d="M0,0H24V24H0Z" fill="none"/><path d="M10.834,10.834,12,9.666v4.668" fill="none" stroke="#323232" stroke-linecap="round" stroke-linejoin="round" stroke-width="1.5"/><path d="M10.837,14.337h2.326" fill="none" stroke="#323232" stroke-linecap="round" stroke-linejoin="round" stroke-width="1.5"/><path d="M3,12a4.342,4.342,0,0,1,.446-1.912h0A9.452,9.452,0,0,1,12,5a9.452,9.452,0,0,1,8.554,5.086h0a4.319,4.319,0,0,1,0,3.824h0A9.452,9.452,0,0,1,12,19a9.452,9.452,0,0,1-8.554-5.086h0A4.342,4.342,0,0,1,3,12Z" fill="none" stroke="#323232" stroke-linecap="round" stroke-linejoin="round" stroke-width="1.5"/></svg>