<svg id="Layer_3" data-name="Layer 3" xmlns="http://www.w3.org/2000/svg" viewBox="0 0 24 24"><path d="M0,0H24V24H0Z" fill="none"/><path id="a" d="M19.55983,4.40664a1.6877,1.6877,0,1,1-2.38682,0,1.68845,1.68845,0,0,1,2.38682,0" fill="none" stroke="#323232" stroke-linecap="round" stroke-linejoin="round" stroke-width="1.5"/><path d="M9.37721,20.61183a8.99212,8.99212,0,0,0,2.61978.38967h.00212a8.996,8.996,0,0,0,8.85684-10.591" fill="none" stroke="#323232" stroke-linecap="round" stroke-linejoin="round" stroke-width="1.5"/><path d="M5.15739,6.16122a8.94567,8.94567,0,0,1,1.56192-1.438" fill="none" stroke="#323232" stroke-linecap="round" stroke-linejoin="round" stroke-width="1.5"/><path d="M3.5203,9.00115A8.97007,8.97007,0,0,0,2.99719,12.001" fill="none" stroke="#323232" stroke-linecap="round" stroke-linejoin="round" stroke-width="1.5"/><path d="M6.71931,19.28081a9.016,9.016,0,0,1-3.1969-4.279" fill="none" stroke="#323232" stroke-linecap="round" stroke-linejoin="round" stroke-width="1.5"/><path d="M9.37721,3.39117A8.99212,8.99212,0,0,1,11.997,3.0015l.00318.00106a8.98435,8.98435,0,0,1,5.05107,1.55021" fill="none" stroke="#323232" stroke-linecap="round" stroke-linejoin="round" stroke-width="1.5"/><path d="M13.06066,10.9404a1.49976,1.49976,0,1,1-2.121,0,1.5,1.5,0,0,1,2.121,0" fill="none" stroke="#323232" stroke-linecap="round" stroke-linejoin="round" stroke-width="1.5"/><path d="M6.85746,11.99991a2.47416,2.47416,0,0,1,.25507-1.09231h0a5.39948,5.39948,0,0,1,4.88764-2.90769A5.39946,5.39946,0,0,1,16.8878,10.9076h0a2.4663,2.4663,0,0,1,0,2.18462h0a5.40359,5.40359,0,0,1-4.88763,2.90769,5.39948,5.39948,0,0,1-4.88764-2.90769h0A2.47413,2.47413,0,0,1,6.85746,11.99991Z" fill="none" stroke="#323232" stroke-linecap="round" stroke-linejoin="round" stroke-width="1.5"/></svg>