<svg id="Layer_3" data-name="Layer 3" xmlns="http://www.w3.org/2000/svg" viewBox="0 0 24 24"><title>eye-plus-add-sqaure</title><path d="M6.00027,12a2.89451,2.89451,0,0,1,.29733-1.27462h0a6.30109,6.30109,0,0,1,5.70245-3.39187,6.3011,6.3011,0,0,1,5.70245,3.39054h0a2.87922,2.87922,0,0,1,0,2.54923h0a6.30109,6.30109,0,0,1-5.70245,3.39321A6.30109,6.30109,0,0,1,6.2976,13.276h0A2.89451,2.89451,0,0,1,6.00027,12Z" fill="none" stroke="#323232" stroke-linecap="round" stroke-linejoin="round" stroke-width="1.5"/><path d="M16,21H8a5,5,0,0,1-5-5V8A5,5,0,0,1,8,3h8a5,5,0,0,1,5,5v8A5,5,0,0,1,16,21Z" fill="none" stroke="#323232" stroke-linecap="round" stroke-linejoin="round" stroke-width="1.5"/><line x1="12" y1="10.5" x2="12" y2="13.5" fill="none" stroke="#323232" stroke-linecap="round" stroke-linejoin="round" stroke-width="1.5"/><line x1="13.5" y1="12" x2="10.5" y2="12" fill="none" stroke="#323232" stroke-linecap="round" stroke-linejoin="round" stroke-width="1.5"/><rect width="24" height="24" fill="none"/></svg>