<?xml version="1.0" encoding="utf-8"?>
<!-- Generator: Adobe Illustrator 24.0.2, SVG Export Plug-In . SVG Version: 6.00 Build 0)  -->
<svg version="1.1" id="Layer_1" xmlns="http://www.w3.org/2000/svg" xmlns:xlink="http://www.w3.org/1999/xlink" x="0px" y="0px"
	 width="24px" height="24px" viewBox="0 0 24 24" enable-background="new 0 0 24 24" xml:space="preserve">
<g>
	<g>
		<path fill="none" stroke="#323232" stroke-width="1.5" stroke-linecap="round" stroke-linejoin="round" d="M13.819,7.183
			c1.004,1.004,1.004,2.633,0,3.639c-1.004,1.004-2.633,1.004-3.639,0c-1.004-1.004-1.004-2.633,0-3.639
			C11.186,6.177,12.814,6.177,13.819,7.183"/>
		<path fill="none" stroke="#323232" stroke-width="1.5" stroke-linecap="round" stroke-linejoin="round" d="M4,9
			c0-0.565,0.135-1.124,0.396-1.639l0,0C5.743,4.707,8.719,3,12,3s6.257,1.707,7.604,4.361l0,0C19.865,7.876,20,8.435,20,9
			s-0.135,1.124-0.396,1.639l0,0C18.257,13.293,15.281,15,12,15s-6.257-1.707-7.604-4.361l0,0C4.135,10.124,4,9.565,4,9z"/>
		<path fill="none" stroke="#323232" stroke-width="1.5" stroke-linecap="round" stroke-linejoin="round" d="M12,21v-6"/>
		<path fill="none" stroke="#323232" stroke-width="1.5" stroke-linecap="round" stroke-linejoin="round" d="M14.5,18.5L12,21
			l-2.5-2.5"/>
	</g>
	<path fill="none" d="M0,0h24v24H0V0z"/>
</g>
</svg>
