<?xml version="1.0" encoding="utf-8"?>
<!-- Generator: Adobe Illustrator 24.0.2, SVG Export Plug-In . SVG Version: 6.00 Build 0)  -->
<svg version="1.1" id="Layer_1" xmlns="http://www.w3.org/2000/svg" xmlns:xlink="http://www.w3.org/1999/xlink" x="0px" y="0px"
	 width="24px" height="24px" viewBox="0 0 24 24" enable-background="new 0 0 24 24" xml:space="preserve">
<g>
	<g>
		<path fill="none" stroke="#323232" stroke-width="1.5" stroke-linecap="round" stroke-linejoin="round" d="M10.181,16.817
			c-1.004-1.004-1.004-2.633,0-3.639c1.004-1.004,2.633-1.004,3.639,0c1.004,1.004,1.004,2.633,0,3.639
			C12.814,17.823,11.186,17.823,10.181,16.817"/>
		<path fill="none" stroke="#323232" stroke-width="1.5" stroke-linecap="round" stroke-linejoin="round" d="M20,15
			c0,0.565-0.135,1.124-0.396,1.639l0,0C18.257,19.293,15.281,21,12,21s-6.257-1.707-7.604-4.361l0,0C4.135,16.124,4,15.565,4,15
			s0.135-1.124,0.396-1.639l0,0C5.743,10.707,8.719,9,12,9s6.257,1.707,7.604,4.361l0,0C19.865,13.876,20,14.435,20,15z"/>
		<path fill="none" stroke="#323232" stroke-width="1.5" stroke-linecap="round" stroke-linejoin="round" d="M12,3v6"/>
		<path fill="none" stroke="#323232" stroke-width="1.5" stroke-linecap="round" stroke-linejoin="round" d="M9.5,5.5L12,3l2.5,2.5"
			/>
	</g>
	<path fill="none" d="M24,24H0V0h24V24z"/>
</g>
</svg>
