<?xml version="1.0" encoding="utf-8"?>
<!-- Generator: Adobe Illustrator 23.1.0, SVG Export Plug-In . SVG Version: 6.00 Build 0)  -->
<svg version="1.1" id="icons" xmlns="http://www.w3.org/2000/svg" xmlns:xlink="http://www.w3.org/1999/xlink" x="0px" y="0px"
	 width="24px" height="24px" viewBox="0 0 24 24" enable-background="new 0 0 24 24" xml:space="preserve">
<g>
	<g>
		<path fill="none" stroke="#323232" stroke-width="1.5" stroke-linecap="round" stroke-linejoin="round" d="M6.536,13.074
			c-0.427-0.646-0.427-1.5,0-2.146C7.856,8.933,9.928,7.334,12,7.334s4.144,1.599,5.464,3.593c0.428,0.646,0.428,1.501,0,2.146
			c-1.321,1.995-3.392,3.593-5.464,3.593C9.928,16.668,7.856,15.069,6.536,13.074z"/>
		<path fill="none" stroke="#323232" stroke-width="1.5" stroke-linecap="round" stroke-linejoin="round" d="M13.237,10.764
			c0.683,0.683,0.683,1.791,0,2.475c-0.683,0.683-1.791,0.683-2.475,0c-0.683-0.683-0.683-1.791,0-2.475
			C11.446,10.08,12.554,10.08,13.237,10.764"/>
		<path fill="none" stroke="#323232" stroke-width="1.5" stroke-linecap="round" stroke-linejoin="round" d="M19,21H5
			c-1.105,0-2-0.895-2-2V5c0-1.105,0.895-2,2-2h14c1.105,0,2,0.895,2,2v14C21,20.105,20.105,21,19,21z"/>
	</g>
	<path fill="none" d="M0,0h24v24H0V0z"/>
</g>
</svg>
