<svg id="Layer_3" data-name="Layer 3" xmlns="http://www.w3.org/2000/svg" viewBox="0 0 24 24"><title>facebook-messanger-circle</title><path d="M4,4H20V20H4Z" fill="none"/><path d="M6,11.527a5.287,5.287,0,0,0,2.4,4.356c0,.57,0,1.338,0,2.144l2.354-1.164A6.63,6.63,0,0,0,12,16.982a5.746,5.746,0,0,0,6-5.455,5.745,5.745,0,0,0-6-5.454A5.745,5.745,0,0,0,6,11.527Z" fill="none" stroke="#323232" stroke-linecap="round" stroke-linejoin="round" stroke-width="1.5"/><rect x="3" y="3" width="18" height="18" rx="5" stroke-width="1.5" stroke="#323232" stroke-linecap="round" stroke-linejoin="round" fill="none"/><polyline points="15 10.474 12.522 12.333 11.426 10.701 9 12.52" fill="none" stroke="#323232" stroke-linecap="round" stroke-linejoin="round" stroke-width="1.5"/><path d="M0,24V0H24V24Z" fill="none"/></svg>