<?xml version="1.0" encoding="utf-8"?>
<!-- Generator: Adobe Illustrator 23.1.0, SVG Export Plug-In . SVG Version: 6.00 Build 0)  -->
<svg version="1.1" id="icons" xmlns="http://www.w3.org/2000/svg" xmlns:xlink="http://www.w3.org/1999/xlink" x="0px" y="0px"
	 width="24px" height="24px" viewBox="0 0 24 24" enable-background="new 0 0 24 24" xml:space="preserve">
<g>
	<path fill="none" d="M0,0h24v24H0V0z"/>
	<g>
		<path fill="none" stroke="#323232" stroke-width="1.5" stroke-linecap="round" stroke-linejoin="round" d="M7.5,3H5.25
			C4.007,3,3,4.007,3,5.25V7.5"/>
		<path fill="none" stroke="#323232" stroke-width="1.5" stroke-linecap="round" stroke-linejoin="round" d="M3,16.5v2.25
			C3,19.993,4.007,21,5.25,21H7.5"/>
		<path fill="none" stroke="#323232" stroke-width="1.5" stroke-linecap="round" stroke-linejoin="round" d="M16.5,21h2.25
			c1.243,0,2.25-1.007,2.25-2.25V16.5"/>
		<path fill="none" stroke="#323232" stroke-width="1.5" stroke-linecap="round" stroke-linejoin="round" d="M21,7.5V5.25
			C21,4.007,19.993,3,18.75,3H16.5"/>
		
			<line fill="none" stroke="#323232" stroke-width="1.5" stroke-linecap="round" stroke-linejoin="round" x1="6" y1="8.927" x2="18" y2="8.927"/>
		<path fill="none" stroke="#323232" stroke-width="1.5" stroke-linecap="round" stroke-linejoin="round" d="M16.674,17
			l-0.284-0.713c-0.144-0.361-0.367-0.686-0.652-0.95l0,0c-0.483-0.448-1.118-0.696-1.776-0.696h-3.924
			c-0.659,0-1.293,0.249-1.776,0.696l0,0c-0.285,0.264-0.508,0.589-0.652,0.95L7.326,17"/>
		<circle fill="none" stroke="#323232" stroke-width="1.5" stroke-linecap="round" stroke-linejoin="round" cx="12" cy="9" r="3"/>
	</g>
</g>
</svg>
