<svg id="Layer_3" data-name="Layer 3" xmlns="http://www.w3.org/2000/svg" viewBox="0 0 24 24"><title>facebook-messanger-circle_1</title><path d="M7,11.614a4.406,4.406,0,0,0,2,3.63c0,.475,0,1.115,0,1.787l1.962-.97a5.528,5.528,0,0,0,1.038.1,4.788,4.788,0,0,0,5-4.546,4.788,4.788,0,0,0-5-4.545A4.788,4.788,0,0,0,7,11.614Z" fill="none" stroke="#323232" stroke-linecap="round" stroke-linejoin="round" stroke-width="1.5"/><circle cx="12" cy="12" r="9" fill="none" stroke="#323232" stroke-linecap="round" stroke-linejoin="round" stroke-width="1.5"/><line x1="11.522" y1="10.925" x2="10" y2="12.067" fill="none" stroke="#323232" stroke-linecap="round" stroke-linejoin="round" stroke-width="1.5"/><line x1="12.435" y1="12.286" x2="11.522" y2="10.925" fill="none" stroke="#323232" stroke-linecap="round" stroke-linejoin="round" stroke-width="1.5"/><line x1="14" y1="11.112" x2="12.435" y2="12.286" fill="none" stroke="#323232" stroke-linecap="round" stroke-linejoin="round" stroke-width="1.5"/><path d="M0,24V0H24V24Z" fill="none"/></svg>