<?xml version="1.0" encoding="utf-8"?>
<!-- Generator: Adobe Illustrator 24.0.2, SVG Export Plug-In . SVG Version: 6.00 Build 0)  -->
<svg version="1.1" id="Layer_1" xmlns="http://www.w3.org/2000/svg" xmlns:xlink="http://www.w3.org/1999/xlink" x="0px" y="0px"
	 width="24px" height="24px" viewBox="0 0 24 24" style="enable-background:new 0 0 24 24;" xml:space="preserve">
<style type="text/css">
	.st0{fill:none;}
	.st1{fill:none;stroke:#323232;stroke-width:1.5;stroke-linecap:round;stroke-linejoin:round;}
</style>
<g>
	<path class="st0" d="M0,0h24v24H0V0z"/>
	<path class="st1" d="M7.5,9.1v1.5"/>
	<path class="st1" d="M16.5,9.1v1.5"/>
	<path class="st1" d="M11,13.6L11,13.6c0.8,0,1.5-0.7,1.5-1.5v-3"/>
	<path class="st1" d="M15.2,16.2c-1.8,1.8-4.7,1.8-6.5,0"/>
	<path class="st1" d="M10.5,21h3"/>
	<path class="st1" d="M13.5,3h-3"/>
	<path class="st1" d="M3,10.5v3"/>
	<path class="st1" d="M21,13.5v-3"/>
	<path class="st1" d="M18,3h1c1.1,0,2,0.9,2,2v1"/>
	<path class="st1" d="M6,21H5c-1.1,0-2-0.9-2-2v-1"/>
	<path class="st1" d="M3,6V5c0-1.1,0.9-2,2-2h1"/>
	<path class="st1" d="M21,18v1c0,1.1-0.9,2-2,2h-1"/>
</g>
</svg>
