<svg id="Layer_3" data-name="Layer 3" xmlns="http://www.w3.org/2000/svg" viewBox="0 0 24 24"><title>falling-star</title><line x1="20" y1="4" x2="15" y2="9" fill="none" stroke="#323232" stroke-linecap="round" stroke-linejoin="round" stroke-width="1.5"/><line x1="15" y1="3" x2="13" y2="5" fill="none" stroke="#323232" stroke-linecap="round" stroke-linejoin="round" stroke-width="1.5"/><path d="M10.82652,8.69067l1.063,3.41978,3.41978,1.063a.7817.7817,0,0,1,.21931,1.38469l-2.92391,2.06777.04577,3.5809a.78169.78169,0,0,1-1.24914.63647L8.53125,18.70148,5.13976,19.85157a.7817.7817,0,0,1-.99133-.99133l1.15009-3.39149L3.15669,12.59864a.78169.78169,0,0,1,.63647-1.24914l3.5809.04577L9.44183,8.47136A.7817.7817,0,0,1,10.82652,8.69067Z" fill="none" stroke="#323232" stroke-linecap="round" stroke-linejoin="round" stroke-width="1.5"/><line x1="21" y1="9" x2="19" y2="11" fill="none" stroke="#323232" stroke-linecap="round" stroke-linejoin="round" stroke-width="1.5"/><rect width="24" height="24" fill="none"/></svg>