<?xml version="1.0" encoding="utf-8"?>
<!-- Generator: Adobe Illustrator 24.0.2, SVG Export Plug-In . SVG Version: 6.00 Build 0)  -->
<svg version="1.1" id="Layer_1" xmlns="http://www.w3.org/2000/svg" xmlns:xlink="http://www.w3.org/1999/xlink" x="0px" y="0px"
	 width="24px" height="24px" viewBox="0 0 24 24" enable-background="new 0 0 24 24" xml:space="preserve">
<g>
	<g>
		<path fill="none" stroke="#323232" stroke-width="1.5" stroke-linecap="round" stroke-linejoin="round" d="M14.25,14.5h-4.5
			C9.336,14.5,9,14.186,9,13.8v-2.1C9,11.314,9.336,11,9.75,11h4.5c0.414,0,0.75,0.314,0.75,0.7v2.1
			C15,14.186,14.664,14.5,14.25,14.5z"/>
		<g>
			<path fill="none" stroke="#323232" stroke-width="1.5" stroke-linecap="round" stroke-linejoin="round" d="M4,15.667V5
				c0-1.105,0.895-2,2-2h12c1.105,0,2,0.895,2,2v10.667c0,0.726-0.394,1.396-1.029,1.748l-6,3.333c-0.604,0.336-1.339,0.336-1.943,0
				l-6-3.333C4.394,17.062,4,16.393,4,15.667z"/>
		</g>
		<path fill="none" stroke="#323232" stroke-width="1.5" stroke-linecap="round" stroke-linejoin="round" d="M10.179,10.858V9.321
			C10.179,8.316,10.995,7.5,12,7.5l0,0c1.005,0,1.821,0.816,1.821,1.821v1.537"/>
	</g>
	<rect fill="none" width="24" height="24"/>
</g>
</svg>
