<?xml version="1.0" encoding="utf-8"?>
<!-- Generator: Adobe Illustrator 24.0.2, SVG Export Plug-In . SVG Version: 6.00 Build 0)  -->
<svg version="1.1" id="Layer_1" xmlns="http://www.w3.org/2000/svg" xmlns:xlink="http://www.w3.org/1999/xlink" x="0px" y="0px"
	 width="24px" height="24px" viewBox="0 0 24 24" enable-background="new 0 0 24 24" xml:space="preserve">
<g>
	<g>
		<path fill="none" stroke="#323232" stroke-width="1.5" stroke-linecap="round" stroke-linejoin="round" d="M3.495,13.465
			l1.195,1.564l0.258,1.947c0.143,1.08,0.992,1.93,2.072,2.074l1.952,0.261l1.563,1.194c0.865,0.661,2.064,0.661,2.929,0
			l1.564-1.195h-0.002l1.948-0.258c1.08-0.143,1.93-0.992,2.074-2.072l0.26-1.952c0,0.001,0.604-0.79,1.195-1.563
			c0.661-0.865,0.66-2.064,0-2.929L19.311,8.97l-0.258-1.947c-0.143-1.08-0.992-1.93-2.072-2.074l-1.953-0.26l-1.563-1.194
			c-0.865-0.661-2.064-0.661-2.929,0L8.972,4.69h0.002L7.025,4.949c-1.08,0.143-1.93,0.992-2.074,2.072L4.69,8.972
			c0-0.001-0.604,0.79-1.195,1.563C2.835,11.399,2.835,12.6,3.495,13.465z"/>
		<path fill="none" stroke="#323232" stroke-width="1.5" stroke-linecap="round" stroke-linejoin="round" d="M13.318,9.5
			c1.132,0,1.891,1.024,1.891,1.978C15.209,13.472,12.635,15,12,15c-0.635,0-3.208-1.528-3.208-3.522
			c0-0.954,0.759-1.978,1.891-1.978c0.647,0,1.071,0.311,1.318,0.589C12.247,9.811,12.671,9.5,13.318,9.5z"/>
	</g>
	<path fill="none" d="M0,0h24v24H0V0z"/>
</g>
</svg>
