<?xml version="1.0" encoding="utf-8"?>
<!-- Generator: Adobe Illustrator 24.0.2, SVG Export Plug-In . SVG Version: 6.00 Build 0)  -->
<svg version="1.1" id="Layer_3" xmlns="http://www.w3.org/2000/svg" xmlns:xlink="http://www.w3.org/1999/xlink" x="0px" y="0px"
	 width="24px" height="24px" viewBox="0 0 24 24" enable-background="new 0 0 24 24" xml:space="preserve">
<g>
	<g>
		<g>
			<path fill="none" stroke="#323232" stroke-width="1.5" stroke-linecap="round" stroke-linejoin="round" d="M4,15.667V5
				c0-1.105,0.895-2,2-2h12c1.105,0,2,0.895,2,2v10.667c0,0.726-0.394,1.396-1.029,1.748l-6,3.333c-0.604,0.336-1.339,0.336-1.943,0
				l-6-3.333C4.394,17.062,4,16.393,4,15.667z"/>
		</g>
		<path fill="none" stroke="#323232" stroke-width="1.5" stroke-linecap="round" stroke-linejoin="round" d="M10.802,13.909
			l0.83-0.436c0.231-0.121,0.507-0.121,0.738,0l0.83,0.436c0.268,0.141,0.591,0.117,0.835-0.061l0.31-0.225
			c0.244-0.177,0.366-0.478,0.316-0.775l-0.159-0.924c-0.044-0.257,0.041-0.52,0.228-0.702l0.671-0.654
			c0.216-0.211,0.294-0.526,0.201-0.813l-0.118-0.364c-0.093-0.287-0.341-0.496-0.64-0.54l-0.928-0.135
			c-0.258-0.037-0.481-0.2-0.597-0.434l-0.415-0.841C12.769,7.171,12.493,7,12.191,7h-0.383c-0.302,0-0.578,0.171-0.711,0.442
			l-0.415,0.841c-0.116,0.234-0.339,0.397-0.597,0.434L9.158,8.851c-0.299,0.044-0.547,0.253-0.64,0.54L8.4,9.755
			c-0.093,0.287-0.016,0.602,0.201,0.813l0.671,0.654c0.187,0.182,0.272,0.445,0.228,0.702l-0.159,0.924
			c-0.051,0.298,0.072,0.598,0.316,0.775l0.31,0.225C10.211,14.025,10.534,14.049,10.802,13.909z"/>
	</g>
	<rect fill="none" width="24" height="24"/>
</g>
</svg>
