<?xml version="1.0" encoding="utf-8"?>
<!-- Generator: Adobe Illustrator 24.0.2, SVG Export Plug-In . SVG Version: 6.00 Build 0)  -->
<svg version="1.1" id="Layer_1" xmlns="http://www.w3.org/2000/svg" xmlns:xlink="http://www.w3.org/1999/xlink" x="0px" y="0px"
	 width="24px" height="24px" viewBox="0 0 24 24" enable-background="new 0 0 24 24" xml:space="preserve">
<g>
	<g>
		<g>
			<path fill="none" d="M0,0h24v24H0V0z"/>
		</g>
	</g>
	<g>
		<path fill="none" stroke="#323232" stroke-width="1.5" stroke-linecap="round" stroke-linejoin="round" d="M18.364,5.654
			c3.575,3.575,3.514,9.408-0.183,12.906c-3.413,3.229-8.949,3.229-12.362,0C2.122,15.062,2.061,9.229,5.636,5.654
			C9.151,2.139,14.849,2.139,18.364,5.654"/>
		<g>
			<path fill="none" stroke="#323232" stroke-width="1.5" stroke-linecap="round" stroke-linejoin="round" d="M15.563,8.897
				l-1.571-1.571C13.784,7.117,13.501,7,13.207,7H9.222C8.608,7,8.111,7.497,8.111,8.111v7.778C8.111,16.503,8.608,17,9.222,17
				h5.556c0.614,0,1.111-0.497,1.111-1.111V9.682C15.889,9.388,15.772,9.105,15.563,8.897z"/>
		</g>
		<path fill="none" stroke="#323232" stroke-width="1.5" stroke-linecap="round" stroke-linejoin="round" d="M15.889,10.25h-2.6
			c-0.359,0-0.65-0.291-0.65-0.65V7"/>
	</g>
</g>
</svg>
