<svg id="Layer_3" data-name="Layer 3" xmlns="http://www.w3.org/2000/svg" viewBox="0 0 24 24"><title>file-document-circle</title><path d="M0,0H24V24H0Z" fill="none"/><path d="M16,14.318V8.111A1.11047,1.11047,0,0,0,14.889,7H9.111A1.11047,1.11047,0,0,0,8,8.111v7.778A1.11047,1.11047,0,0,0,9.111,17h4.207a1.108,1.108,0,0,0,.785-.326l1.571-1.571A1.108,1.108,0,0,0,16,14.318Z" fill="none" stroke="#323232" stroke-linecap="round" stroke-linejoin="round" stroke-width="1.5"/><path d="M12.45,17V14.16a.71.71,0,0,1,.71-.71H16" fill="none" stroke="#323232" stroke-linecap="round" stroke-linejoin="round" stroke-width="1.5"/><circle cx="12" cy="12" r="9" fill="none" stroke="#323232" stroke-linecap="round" stroke-linejoin="round" stroke-width="1.5"/></svg>