<svg id="Layer_3" data-name="Layer 3" xmlns="http://www.w3.org/2000/svg" viewBox="0 0 24 24"><title>file-zip-rar</title><line x1="12" y1="17" x2="13.5" y2="17" fill="none" stroke="#323232" stroke-linecap="round" stroke-linejoin="round" stroke-width="1.5"/><line x1="10.5" y1="18.5" x2="12" y2="18.5" fill="none" stroke="#323232" stroke-linecap="round" stroke-linejoin="round" stroke-width="1.5"/><line x1="12" y1="15.5" x2="10.5" y2="15.5" fill="none" stroke="#323232" stroke-linecap="round" stroke-linejoin="round" stroke-width="1.5"/><line x1="12" y1="8.5" x2="12" y2="21.5" fill="none" stroke="#323232" stroke-linecap="round" stroke-linejoin="round" stroke-width="1.5"/><line x1="12" y1="14" x2="13.5" y2="14" fill="none" stroke="#323232" stroke-linecap="round" stroke-linejoin="round" stroke-width="1.5"/><line x1="12" y1="12.5" x2="10.5" y2="12.5" fill="none" stroke="#323232" stroke-linecap="round" stroke-linejoin="round" stroke-width="1.5"/><line x1="12" y1="11" x2="13.5" y2="11" fill="none" stroke="#323232" stroke-linecap="round" stroke-linejoin="round" stroke-width="1.5"/><path d="M12,8.5h0A2.453,2.453,0,0,1,9.563,5.768l.222-1.939A1.5,1.5,0,0,1,11.275,2.5h1.45a1.5,1.5,0,0,1,1.49,1.329l.222,1.939A2.453,2.453,0,0,1,12,8.5Z" fill="none" stroke="#323232" stroke-linecap="round" stroke-linejoin="round" stroke-width="1.5"/><path d="M9.863,3.5H7a4,4,0,0,0-4,4v10a4,4,0,0,0,4,4H17a4,4,0,0,0,4-4V7.5a4,4,0,0,0-4-4H14.138" fill="none" stroke="#323232" stroke-linecap="round" stroke-linejoin="round" stroke-width="1.5"/><path d="M0,0H24V24H0Z" fill="none"/></svg>