<svg id="Layer_3" data-name="Layer 3" xmlns="http://www.w3.org/2000/svg" viewBox="0 0 24 24"><title>Artboard 292</title><path d="M0,0H24V24H0Z" fill="none"/><path d="M19,8H15a1,1,0,0,1-1-1V3" fill="none" stroke="#323232" stroke-linecap="round" stroke-linejoin="round" stroke-width="1.5"/><path d="M5,18v1a2,2,0,0,0,2,2H17a2,2,0,0,0,2-2V7.828a2,2,0,0,0-.586-1.414L15.586,3.586A2,2,0,0,0,14.172,3H7A2,2,0,0,0,5,5V8" fill="none" stroke="#323232" stroke-linecap="round" stroke-linejoin="round" stroke-width="1.5"/><polyline points="5 15 3 13 5 11" fill="none" stroke="#323232" stroke-linecap="round" stroke-linejoin="round" stroke-width="1.5"/><polyline points="8 11 10 13 8 15" fill="none" stroke="#323232" stroke-linecap="round" stroke-linejoin="round" stroke-width="1.5"/></svg>