<?xml version="1.0" encoding="utf-8"?>
<!-- Generator: Adobe Illustrator 24.0.2, SVG Export Plug-In . SVG Version: 6.00 Build 0)  -->
<svg version="1.1" id="Layer_1" xmlns="http://www.w3.org/2000/svg" xmlns:xlink="http://www.w3.org/1999/xlink" x="0px" y="0px"
	 width="24px" height="24px" viewBox="0 0 24 24" style="enable-background:new 0 0 24 24;" xml:space="preserve">
<style type="text/css">
	.st0{fill:none;}
	.st1{fill:none;stroke:#323232;stroke-width:1.5;stroke-linecap:round;stroke-linejoin:round;}
</style>
<g>
	<path class="st0" d="M0,0h24v24H0V0z"/>
	<g>
		<path class="st1" d="M15.6,8.9L14,7.3C13.8,7.1,13.5,7,13.2,7h-4C8.6,7,8.1,7.5,8.1,8.1v7.8c0,0.6,0.5,1.1,1.1,1.1h5.6
			c0.6,0,1.1-0.5,1.1-1.1V9.7C15.9,9.4,15.8,9.1,15.6,8.9z"/>
		<g>
			<path class="st1" d="M17,21H7c-2.2,0-4-1.8-4-4V7c0-2.2,1.8-4,4-4h10c2.2,0,4,1.8,4,4v10C21,19.2,19.2,21,17,21z"/>
		</g>
	</g>
</g>
</svg>
