<?xml version="1.0" encoding="UTF-8"?><svg version="1.1" viewBox="0 0 24 24" xmlns="http://www.w3.org/2000/svg" xmlns:xlink="http://www.w3.org/1999/xlink"><!--Generated by IJSVG (https://github.com/iconjar/IJSVG)--><g stroke-linecap="round" stroke-width="1.5" stroke="#323232" fill="none" stroke-linejoin="round"><path d="M7.447,11.893l1,-0.5c0.339,-0.169 0.553,-0.516 0.553,-0.894v-1.964c0,-0.334 0.167,-0.647 0.445,-0.832l2.109,-1.405c0.279,-0.186 0.446,-0.498 0.446,-0.832v-1.466c0,-0.552 -0.448,-1 -1,-1h-7c-0.552,0 -1,0.448 -1,1v1.466c0,0.334 0.167,0.646 0.445,0.832l2.109,1.405c0.279,0.186 0.446,0.498 0.446,0.832v2.463c0,0.744 0.782,1.228 1.447,0.895Z"></path><path d="M6,16v3c0,1.105 0.895,2 2,2h11c1.105,0 2,-0.895 2,-2v-14c0,-1.105 -0.895,-2 -2,-2h-3"></path><path d="M13,9h4"></path><path d="M12,13h5"></path><path d="M10,17h7"></path></g><path fill="none" d="M0,0h24v24h-24Z"></path></svg>