<?xml version="1.0" encoding="utf-8"?>
<!-- Generator: Adobe Illustrator 24.0.2, SVG Export Plug-In . SVG Version: 6.00 Build 0)  -->
<svg version="1.1" id="Layer_1" xmlns="http://www.w3.org/2000/svg" xmlns:xlink="http://www.w3.org/1999/xlink" x="0px" y="0px"
	 width="24px" height="24px" viewBox="0 0 24 24" enable-background="new 0 0 24 24" xml:space="preserve">
<g>
	<g>
		<g>
			<path fill="none" stroke="#323232" stroke-width="1.5" stroke-linecap="round" stroke-linejoin="round" d="M20,6V5
				c0-0.552-0.448-1-1-1H5C4.448,4,4,4.448,4,5v2.586c0,0.265,0.105,0.52,0.293,0.707L9.5,13.5v6.249
				c0,0.813,0.764,1.41,1.553,1.213l2.5-0.625c0.556-0.139,0.947-0.639,0.947-1.213v-2.149"/>
		</g>
		<path fill="none" stroke="#323232" stroke-width="1.5" stroke-linecap="round" stroke-linejoin="round" d="M17.5,9.642
			C17.768,9.34,18.23,9,18.937,9C20.17,9,21,10.117,21,11.158C20.999,13.333,18.192,15,17.5,15S14,13.333,14,11.158
			C14,10.117,14.828,9,16.063,9C16.768,9,17.231,9.34,17.5,9.642z"/>
	</g>
	<rect fill="none" width="24" height="24"/>
</g>
</svg>
