<svg id="Layer_3" data-name="Layer 3" xmlns="http://www.w3.org/2000/svg" viewBox="0 0 24 24"><title>Artboard 6</title><path d="M0,0H24V24H0Z" fill="none"/><line x1="21" y1="8" x2="3" y2="8" fill="none" stroke="#323232" stroke-linecap="round" stroke-linejoin="round" stroke-width="1.5"/><line x1="8" y1="13" x2="3" y2="13" fill="none" stroke="#323232" stroke-linecap="round" stroke-linejoin="round" stroke-width="1.5"/><line x1="8" y1="18" x2="3" y2="18" fill="none" stroke="#323232" stroke-linecap="round" stroke-linejoin="round" stroke-width="1.5"/><line x1="21" y1="3" x2="3" y2="3" fill="none" stroke="#323232" stroke-linecap="round" stroke-linejoin="round" stroke-width="1.5"/><path d="M15.4,17.518V20.11a.888.888,0,0,0,1.286.8l1.424-.712a.888.888,0,0,0,.492-.8v-1.88l2.053-1.584a.889.889,0,0,0,.346-.7V13.889A.889.889,0,0,0,20.111,13H13.889a.889.889,0,0,0-.889.889V15.23a.89.89,0,0,0,.346.7Z" fill="none" stroke="#323232" stroke-linecap="round" stroke-linejoin="round" stroke-width="1.5"/></svg>