<svg id="Layer_3" data-name="Layer 3" xmlns="http://www.w3.org/2000/svg" viewBox="0 0 24 24"><title>filter-sort-circle</title><path d="M10.4,13.518V16.11a.889.889,0,0,0,1.286.8l1.424-.712a.89.89,0,0,0,.492-.8v-1.88l2.053-1.584a.889.889,0,0,0,.346-.7V9.889A.889.889,0,0,0,15.111,9H8.889A.889.889,0,0,0,8,9.889V11.23a.89.89,0,0,0,.346.7Z" fill="none" stroke="#323232" stroke-linecap="round" stroke-linejoin="round" stroke-width="1.5"/><circle cx="12" cy="12" r="9" fill="none" stroke="#323232" stroke-linecap="round" stroke-linejoin="round" stroke-width="1.5"/><path d="M0,0H24V24H0Z" fill="none"/></svg>