<svg id="Layer_3" data-name="Layer 3" xmlns="http://www.w3.org/2000/svg" viewBox="0 0 24 24"><title>Fingerprint-hexagon</title><path d="M18,13v1" fill="none" stroke="#323232" stroke-linecap="round" stroke-linejoin="round" stroke-width="1.5"/><path d="M12,12v6" fill="none" stroke="#323232" stroke-linecap="round" stroke-linejoin="round" stroke-width="1.5"/><path d="M6.835,8.957A5.967,5.967,0,0,0,6,12v2" fill="none" stroke="#323232" stroke-linecap="round" stroke-linejoin="round" stroke-width="1.5"/><path d="M17.649,10A5.981,5.981,0,0,0,8.957,6.835" fill="none" stroke="#323232" stroke-linecap="round" stroke-linejoin="round" stroke-width="1.5"/><path d="M7.121,20.121,3.878,16.878A3,3,0,0,1,3,14.757V9.243a3,3,0,0,1,.879-2.121L7.122,3.879A3,3,0,0,1,9.243,3h5.514a3,3,0,0,1,2.121.879l3.244,3.244A3,3,0,0,1,21,9.244v5.513a3,3,0,0,1-.878,2.121l-3.243,3.244A3,3,0,0,1,14.757,21H9.243A3,3,0,0,1,7.121,20.121Z" fill="none" stroke="#323232" stroke-linecap="round" stroke-linejoin="round" stroke-width="1.5"/><path d="M15,17V12a3,3,0,0,0-6,0v1" fill="none" stroke="#323232" stroke-linecap="round" stroke-linejoin="round" stroke-width="1.5"/><path d="M9,16v1" fill="none" stroke="#323232" stroke-linecap="round" stroke-linejoin="round" stroke-width="1.5"/><path d="M0,0H24V24H0Z" fill="none"/></svg>