<?xml version="1.0" encoding="utf-8"?>
<!-- Generator: Adobe Illustrator 24.0.2, SVG Export Plug-In . SVG Version: 6.00 Build 0)  -->
<svg version="1.1" id="Layer_3" xmlns="http://www.w3.org/2000/svg" xmlns:xlink="http://www.w3.org/1999/xlink" x="0px" y="0px"
	 width="24px" height="24px" viewBox="0 0 24 24" enable-background="new 0 0 24 24" xml:space="preserve">
<g>
	<line fill="none" x1="8.446" y1="10.446" x2="9" y2="11"/>
</g>
<g>
	<g>
		<path fill="none" d="M24,24H0V0h24V24z"/>
	</g>
	<g>
		<g>
			<path fill="none" stroke="#323232" stroke-width="1.5" stroke-linecap="round" stroke-linejoin="round" d="M10,15v-2"/>
		</g>
		<path fill="none" stroke="#323232" stroke-width="1.5" stroke-linecap="round" stroke-linejoin="round" d="M13.769,21H6.231
			C4.446,21,3,19.554,3,17.769v-7.538C3,8.446,4.446,7,6.231,7h7.538C15.554,7,17,8.446,17,10.231v7.538
			C17,19.554,15.554,21,13.769,21z"/>
		<path fill="none" stroke="#323232" stroke-width="1.5" stroke-linecap="round" stroke-linejoin="round" d="M6,7V6
			c0-1.657,1.343-3,3-3h9c1.657,0,3,1.343,3,3v10c0,1.657-1.343,3-3,3h-1.243"/>
		<path fill="none" stroke="#323232" stroke-width="1.5" stroke-linecap="round" stroke-linejoin="round" d="M8.446,10.446
			C8.9,10.168,9.429,10,10,10c1.657,0,3,1.343,3,3v2"/>
		<path fill="none" stroke="#323232" stroke-width="1.5" stroke-linecap="round" stroke-linejoin="round" d="M11.554,17.554
			C11.1,17.832,10.571,18,10,18c-1.657,0-3-1.343-3-3v-2"/>
	</g>
</g>
</svg>
