<svg id="Layer_3" data-name="Layer 3" xmlns="http://www.w3.org/2000/svg" viewBox="0 0 24 24"><title>Artboard 210</title><path d="M3,18v2a1,1,0,0,0,1,1H6" fill="none" stroke="#323232" stroke-linecap="round" stroke-linejoin="round" stroke-width="1.5"/><path d="M21,6V4a1,1,0,0,0-1-1H18" fill="none" stroke="#323232" stroke-linecap="round" stroke-linejoin="round" stroke-width="1.5"/><path d="M6,3H4A1,1,0,0,0,3,4V6" fill="none" stroke="#323232" stroke-linecap="round" stroke-linejoin="round" stroke-width="1.5"/><path d="M18,21h2a1,1,0,0,0,1-1V18" fill="none" stroke="#323232" stroke-linecap="round" stroke-linejoin="round" stroke-width="1.5"/><path d="M15,13V11.189a3.124,3.124,0,0,0-3.2-3.182,2.992,2.992,0,0,0-1.919.872" fill="none" stroke="#323232" stroke-linecap="round" stroke-linejoin="round" stroke-width="1.5"/><line x1="9" y1="12" x2="9" y2="13" fill="none" stroke="#323232" stroke-linecap="round" stroke-linejoin="round" stroke-width="1.5"/><path d="M9,12v.811a3.124,3.124,0,0,0,3.2,3.182,2.992,2.992,0,0,0,1.919-.872" fill="none" stroke="#323232" stroke-linecap="round" stroke-linejoin="round" stroke-width="1.5"/><path d="M17.119,7.881A5.968,5.968,0,0,1,18,11v1.783a6.149,6.149,0,0,1-5.368,6.184,5.969,5.969,0,0,1-3.751-.848" fill="none" stroke="#323232" stroke-linecap="round" stroke-linejoin="round" stroke-width="1.5"/><path d="M6.881,16.119A5.968,5.968,0,0,1,6,13V11.217a6.149,6.149,0,0,1,5.368-6.184,5.969,5.969,0,0,1,3.751.848" fill="none" stroke="#323232" stroke-linecap="round" stroke-linejoin="round" stroke-width="1.5"/><line x1="12" y1="11" x2="12" y2="13" fill="none" stroke="#323232" stroke-linecap="round" stroke-linejoin="round" stroke-width="1.5"/><path d="M0,0H24V24H0Z" fill="none"/></svg>