<svg id="Layer_3" data-name="Layer 3" xmlns="http://www.w3.org/2000/svg" viewBox="0 0 24 24"><title>Artboard 177</title><path d="M16,2h0a6,6,0,0,1,6,6h0a6,6,0,0,1-6,6h0a6,6,0,0,1-6-6h0A6,6,0,0,1,16,2Z" fill="none" stroke="#323232" stroke-linecap="round" stroke-linejoin="round" stroke-width="1.5"/><path d="M18.43,8.793V7.417a2.6,2.6,0,0,0-1.753-2.5,2.442,2.442,0,0,0-1.7.062" fill="none" stroke="#323232" stroke-linecap="round" stroke-linejoin="round" stroke-width="1.5"/><path d="M16,8.4v-1" fill="none" stroke="#323232" stroke-linecap="round" stroke-linejoin="round" stroke-width="1.5"/><path d="M13.57,7V8.376a2.6,2.6,0,0,0,1.753,2.5,2.442,2.442,0,0,0,1.7-.062" fill="none" stroke="#323232" stroke-linecap="round" stroke-linejoin="round" stroke-width="1.5"/><path d="M21,16v1a4,4,0,0,1-4,4H7a4,4,0,0,1-4-4V7A4,4,0,0,1,7,3H8" fill="none" stroke="#323232" stroke-linecap="round" stroke-linejoin="round" stroke-width="1.5"/><path d="M0,0H24V24H0Z" fill="none"/></svg>