<svg id="Layer_3" data-name="Layer 3" xmlns="http://www.w3.org/2000/svg" viewBox="0 0 24 24"><title>Fingerprint-more-dots</title><path d="M0,0H24V24H0Z" fill="none"/><path d="M5.154,17.846A6.965,6.965,0,0,1,4,14" fill="none" stroke="#323232" stroke-linecap="round" stroke-linejoin="round" stroke-width="1.5"/><path d="M8.89,7.89A3.465,3.465,0,0,1,11,7.166" fill="none" stroke="#323232" stroke-linecap="round" stroke-linejoin="round" stroke-width="1.5"/><path d="M7.5,11.333v3a3.484,3.484,0,0,0,5.61,2.776" fill="none" stroke="#323232" stroke-linecap="round" stroke-linejoin="round" stroke-width="1.5"/><line x1="11" y1="11" x2="11" y2="14" fill="none" stroke="#323232" stroke-linecap="round" stroke-linejoin="round" stroke-width="1.5"/><line x1="14.5" y1="12" x2="14.5" y2="13.667" fill="none" stroke="#323232" stroke-linecap="round" stroke-linejoin="round" stroke-width="1.5"/><path d="M18,2a4,4,0,1,1-4,4,4,4,0,0,1,4-4" fill="none" stroke="#323232" stroke-linecap="round" stroke-linejoin="round" stroke-width="1.5"/><path d="M19.333,5.956A.043.043,0,0,0,19.289,6V6a.044.044,0,1,0,.044-.044h0" fill="none" stroke="#323232" stroke-linecap="round" stroke-linejoin="round" stroke-width="1.5"/><path d="M16.667,5.956A.043.043,0,0,0,16.623,6V6a.044.044,0,1,0,.044-.044" fill="none" stroke="#323232" stroke-linecap="round" stroke-linejoin="round" stroke-width="1.5"/><path d="M11,4h0a7,7,0,0,0-7,7H4" fill="none" stroke="#323232" stroke-linecap="round" stroke-linejoin="round" stroke-width="1.5"/><path d="M18,14h0a7,7,0,0,1-7,7h0a6.97,6.97,0,0,1-3.214-.786" fill="none" stroke="#323232" stroke-linecap="round" stroke-linejoin="round" stroke-width="1.5"/><line x1="18" y1="14" x2="18" y2="13" fill="none" stroke="#323232" stroke-linecap="round" stroke-linejoin="round" stroke-width="1.5"/></svg>