<svg id="Layer_3" data-name="Layer 3" xmlns="http://www.w3.org/2000/svg" viewBox="0 0 24 24"><title>Artboard 216</title><path d="M12,6h0a6,6,0,0,1,6,6h0a6,6,0,0,1-6,6h0a6,6,0,0,1-6-6H6A6,6,0,0,1,12,6Z" fill="none" stroke="#323232" stroke-linecap="round" stroke-linejoin="round" stroke-width="1.5"/><path d="M14.43,12.793V11.428A2.609,2.609,0,0,0,12.653,8.91a2.437,2.437,0,0,0-1.674.069" fill="none" stroke="#323232" stroke-linecap="round" stroke-linejoin="round" stroke-width="1.5"/><path d="M12,12.4v-1" fill="none" stroke="#323232" stroke-linecap="round" stroke-linejoin="round" stroke-width="1.5"/><path d="M9.57,11v1.365a2.609,2.609,0,0,0,1.777,2.518,2.437,2.437,0,0,0,1.674-.069" fill="none" stroke="#323232" stroke-linecap="round" stroke-linejoin="round" stroke-width="1.5"/><rect x="3" y="3" width="18" height="18" rx="5" stroke-width="1.5" stroke="#323232" stroke-linecap="round" stroke-linejoin="round" fill="none"/><rect width="24" height="24" fill="none"/></svg>