<svg id="Layer_3" data-name="Layer 3" xmlns="http://www.w3.org/2000/svg" viewBox="0 0 24 24"><rect width="24" height="24" fill="none"/><path d="M10.67879,5.33244a1.49582,1.49582,0,0,1,2.64856,0l1.06,2.01822" fill="none" stroke="#323232" stroke-linecap="round" stroke-linejoin="round" stroke-width="1.5"/><path d="M15.47377,6.2622a1.49582,1.49582,0,0,1,2.535.8184l1.5052,9.31425a1.49582,1.49582,0,0,1-.75,1.54607L12.6997,21.31161a1.49583,1.49583,0,0,1-1.45818-.00266L5.23117,17.93942a1.49584,1.49584,0,0,1-.74642-1.53562l1.97412-12.638a1.49582,1.49582,0,0,1,2.8006-.46767L10.50676,5.66" fill="none" stroke="#323232" stroke-linecap="round" stroke-linejoin="round" stroke-width="1.5"/><line x1="4.56979" y1="17.18" x2="15.47377" y2="6.2622" fill="none" stroke="#323232" stroke-linecap="round" stroke-linejoin="round" stroke-width="1.5"/><line x1="4.5252" y1="17.0485" x2="10.67879" y2="5.33244" fill="none" stroke="#323232" stroke-linecap="round" stroke-linejoin="round" stroke-width="1.5"/></svg>