<svg id="Layer_3" data-name="Layer 3" xmlns="http://www.w3.org/2000/svg" viewBox="0 0 24 24"><title>fitness-biceps</title><path d="M15.59,14.383l.266-.4A4.48,4.48,0,0,1,21,12.219h0" fill="none" stroke="#323232" stroke-linecap="round" stroke-linejoin="round" stroke-width="1.5"/><path d="M10.065,12.793l1.2-5.984,1.31.655A1.082,1.082,0,0,0,13.956,7.1L15.1,5.383a1.083,1.083,0,0,0-.135-1.365l-1.44-1.44a1.826,1.826,0,0,0-2.46-.112h0A23.85,23.85,0,0,0,3.707,13.245l-.6,1.786a2.164,2.164,0,0,0,.8,2.445L5.438,18.57A10.655,10.655,0,0,0,15.59,19.793h0l1.082,2.164" fill="none" stroke="#323232" stroke-linecap="round" stroke-linejoin="round" stroke-width="1.5"/><path d="M15.59,13.3h0a5.853,5.853,0,0,0-6.492,0h0" fill="none" stroke="#323232" stroke-linecap="round" stroke-linejoin="round" stroke-width="1.5"/><rect width="24" height="24" fill="none"/></svg>