<?xml version="1.0" encoding="utf-8"?>
<!-- Generator: Adobe Illustrator 24.0.2, SVG Export Plug-In . SVG Version: 6.00 Build 0)  -->
<svg version="1.1" id="Layer_3" xmlns="http://www.w3.org/2000/svg" xmlns:xlink="http://www.w3.org/1999/xlink" x="0px" y="0px"
	 width="24px" height="24px" viewBox="0 0 24 24" enable-background="new 0 0 24 24" xml:space="preserve">
<g>
	<g>
		<path fill="none" stroke="#323232" stroke-width="1.5" stroke-linecap="round" stroke-linejoin="round" d="M12,21L12,21
			c-4.971,0-9-4.029-9-9v0c0-4.971,4.029-9,9-9h0c4.971,0,9,4.029,9,9v0C21,16.971,16.971,21,12,21z"/>
		<g>
			<g>
				<path fill="none" stroke="#323232" stroke-width="1.5" stroke-linecap="round" stroke-linejoin="round" d="M14.64,10.916
					l1.27-2.023C16.154,8.505,15.875,8,15.415,8H9.584C9.261,8,9,8.261,9,8.584v5.25h6.415c0.458,0,0.738-0.505,0.494-0.893
					L14.64,10.916z"/>
			</g>
			
				<line fill="none" stroke="#323232" stroke-width="1.5" stroke-linecap="round" stroke-linejoin="round" x1="9" y1="17" x2="9" y2="13.834"/>
		</g>
	</g>
	<rect fill="none" width="24" height="24"/>
</g>
</svg>
