<svg id="Layer_3" data-name="Layer 3" xmlns="http://www.w3.org/2000/svg" viewBox="0 0 24 24"><title>flag-delete-cross</title><rect width="24" height="24" fill="none"/><line x1="4" y1="13.9975" x2="4" y2="20.9975" fill="none" stroke="#323232" stroke-linecap="round" stroke-linejoin="round" stroke-width="1.5"/><path d="M20.53531,13.46454a4.99991,4.99991,0,1,1-7.07095.00015l.00016-.00015a4.9999,4.9999,0,0,1,7.07079,0" fill="none" stroke="#323232" stroke-linecap="round" stroke-linejoin="round" stroke-width="1.5"/><path d="M12.55,14.7175a5.23458,5.23458,0,0,1-1.55-.72,6.6391,6.6391,0,0,0-7,0v-10a6.6391,6.6391,0,0,1,7,0,6.6391,6.6391,0,0,0,7,0v8.1" fill="none" stroke="#323232" stroke-linecap="round" stroke-linejoin="round" stroke-width="1.5"/><line x1="18.04537" y1="18.00017" x2="16.04537" y2="16.00017" fill="none" stroke="#323232" stroke-linecap="round" stroke-linejoin="round" stroke-width="1.5"/><line x1="16.04537" y1="18.00017" x2="18.04537" y2="16.00017" fill="none" stroke="#323232" stroke-linecap="round" stroke-linejoin="round" stroke-width="1.5"/></svg>