<svg id="Layer_3" data-name="Layer 3" xmlns="http://www.w3.org/2000/svg" viewBox="0 0 24 24"><title>Artboard 348</title><path d="M10.443,9.495l-6.77,6.77a2.3,2.3,0,0,0,0,3.25l.812.812a2.3,2.3,0,0,0,3.25,0l6.77-6.77a2.3,2.3,0,0,1,1.3-.65l1.327-.189a2.3,2.3,0,0,0,1.3-.65l1.9-1.9a2.3,2.3,0,0,0,0-3.249l-3.25-3.25a2.3,2.3,0,0,0-3.249,0l-1.9,1.9a2.3,2.3,0,0,0-.65,1.3L11.093,8.2A2.3,2.3,0,0,1,10.443,9.495Z" fill="none" stroke="#323232" stroke-linecap="round" stroke-linejoin="round" stroke-width="1.5"/><line x1="11" y1="13" x2="12.5" y2="11.5" fill="none" stroke="#323232" stroke-linecap="round" stroke-linejoin="round" stroke-width="1.5"/><line x1="18.702" y1="11.797" x2="12.203" y2="5.298" fill="none" stroke="#323232" stroke-linecap="round" stroke-linejoin="round" stroke-width="1.5"/><rect width="24" height="24" fill="none"/></svg>