<svg id="Layer_3" data-name="Layer 3" xmlns="http://www.w3.org/2000/svg" viewBox="0 0 24 24"><title>flash-drive</title><path d="M0,0H24V24H0Z" fill="none"/><path d="M8.5,3h7a1,1,0,0,1,1,1v6a0,0,0,0,1,0,0h-9a0,0,0,0,1,0,0V4A1,1,0,0,1,8.5,3Z" fill="none" stroke="#323232" stroke-linecap="round" stroke-linejoin="round" stroke-width="1.5"/><path d="M7.5,10h9a2,2,0,0,1,2,2v4a5,5,0,0,1-5,5h-3a5,5,0,0,1-5-5V12A2,2,0,0,1,7.5,10Z" fill="none" stroke="#323232" stroke-linecap="round" stroke-linejoin="round" stroke-width="1.5"/><line x1="10.25" y1="7" x2="10.75" y2="7" fill="none" stroke="#323232" stroke-linecap="round" stroke-linejoin="round" stroke-width="1.5"/><line x1="13.25" y1="7" x2="13.75" y2="7" fill="none" stroke="#323232" stroke-linecap="round" stroke-linejoin="round" stroke-width="1.5"/></svg>