<svg id="Layer_3" data-name="Layer 3" xmlns="http://www.w3.org/2000/svg" viewBox="0 0 24 24"><title>flip-vertical</title><path d="M15.921,5.423,12.589,8.756a.834.834,0,0,1-1.178,0L8.079,5.423A.834.834,0,0,1,8.668,4h6.664A.834.834,0,0,1,15.921,5.423Z" fill="none" stroke="#323232" stroke-linecap="round" stroke-linejoin="round" stroke-width="1.5"/><line x1="20" y1="12" x2="4" y2="12" fill="none" stroke="#323232" stroke-linecap="round" stroke-linejoin="round" stroke-width="1.5"/><path d="M8.079,18.577l3.332-3.333a.834.834,0,0,1,1.178,0l3.332,3.333A.834.834,0,0,1,15.332,20H8.668A.834.834,0,0,1,8.079,18.577Z" fill="none" stroke="#323232" stroke-linecap="round" stroke-linejoin="round" stroke-width="1.5"/><rect width="24" height="24" fill="none"/></svg>