<svg id="Layer_3" data-name="Layer 3" xmlns="http://www.w3.org/2000/svg" viewBox="0 0 24 24"><title>floor-brush</title><rect width="24" height="24" fill="none"/><path d="M10.5,14V3.5A1.5,1.5,0,0,1,12,2h0a1.5,1.5,0,0,1,1.5,1.5V14" fill="none" stroke="#323232" stroke-linecap="round" stroke-linejoin="round" stroke-width="1.5"/><rect x="7" y="14" width="10" height="3" rx="1" stroke-width="1.5" stroke="#323232" stroke-linecap="round" stroke-linejoin="round" fill="none"/><path d="M17,16h2.5A1.5,1.5,0,0,1,21,17.5v2A1.5,1.5,0,0,1,19.5,21H4.5A1.5,1.5,0,0,1,3,19.5v-2A1.5,1.5,0,0,1,4.5,16H7" fill="none" stroke="#323232" stroke-linecap="round" stroke-linejoin="round" stroke-width="1.5"/></svg>