<svg id="Layer_3" data-name="Layer 3" xmlns="http://www.w3.org/2000/svg" viewBox="0 0 24 24"><title>floppy-save-cross-desable</title><path d="M20,10.99969v-3.172a2.00064,2.00064,0,0,0-.586-1.414l-2.828-2.828a2.003,2.003,0,0,0-1.415-.586H5.007a2.00015,2.00015,0,0,0-2,2.015l.104,13a1.99951,1.99951,0,0,0,2,1.985H11" fill="none" stroke="#323232" stroke-linecap="round" stroke-linejoin="round" stroke-width="1.5"/><path d="M15,2.99969v3.909a1.00036,1.00036,0,0,1-1,1H8.993a1.00036,1.00036,0,0,1-1-1v-3.909" fill="none" stroke="#323232" stroke-linecap="round" stroke-linejoin="round" stroke-width="1.5"/><path d="M7,19.99969v-5.714a1.28631,1.28631,0,0,1,1.286-1.286H12" fill="none" stroke="#323232" stroke-linecap="round" stroke-linejoin="round" stroke-width="1.5"/><path d="M0-.00031H24v24H0Z" fill="none"/><path d="M18.5,16.49969l-2,2" fill="none" stroke="#323232" stroke-linecap="round" stroke-linejoin="round" stroke-width="1.5"/><path d="M16.5,16.49969l2,2" fill="none" stroke="#323232" stroke-linecap="round" stroke-linejoin="round" stroke-width="1.5"/><circle cx="17.5" cy="17.49969" r="4.5" fill="none" stroke="#323232" stroke-linecap="round" stroke-linejoin="round" stroke-width="1.5"/></svg>