<svg id="Layer_3" data-name="Layer 3" xmlns="http://www.w3.org/2000/svg" viewBox="0 0 24 24"><title>floppy-save-edit</title><path d="M20,9V7.56036a1.88957,1.88957,0,0,0-.55343-1.3361L16.77592,3.55361A1.89016,1.89016,0,0,0,15.43938,3H5A2,2,0,0,0,3,5V18a2,2,0,0,0,2,2h5" fill="none" stroke="#323232" stroke-linecap="round" stroke-linejoin="round" stroke-width="1.5"/><path d="M14.99358,3V7.125a.87532.87532,0,0,1-.875.875h-5.25a.87532.87532,0,0,1-.875-.875V3" fill="none" stroke="#323232" stroke-linecap="round" stroke-linejoin="round" stroke-width="1.5"/><path d="M7,19.99961V14.32568A1.31474,1.31474,0,0,1,8.21453,13H14" fill="none" stroke="#323232" stroke-linecap="round" stroke-linejoin="round" stroke-width="1.5"/><path d="M16.26,20.71019l5.44978-5.44978a.98869.98869,0,0,0,0-1.39957l-1.57058-1.57058a.98867.98867,0,0,0-1.39957,0L13.28981,17.74A.98775.98775,0,0,0,13,18.43937V21h2.56063A.98775.98775,0,0,0,16.26,20.71019Z" fill="none" stroke="#323232" stroke-linecap="round" stroke-linejoin="round" stroke-width="1.5"/><path d="M0,0H24V24H0Z" fill="none"/></svg>