<svg id="Layer_3" data-name="Layer 3" xmlns="http://www.w3.org/2000/svg" viewBox="0 0 24 24"><title>floppy-save-circle</title><path d="M14.082,7.5H8.5a1,1,0,0,0-1,1.007l.052,7a1,1,0,0,0,1,.993H15.5a1,1,0,0,0,1-1V9.914a1,1,0,0,0-.293-.707L14.79,7.793A1,1,0,0,0,14.082,7.5Z" fill="none" stroke="#323232" stroke-linecap="round" stroke-linejoin="round" stroke-width="1.5"/><path d="M13.83,7.5V9.854a.458.458,0,0,1-.458.458h-2.75a.458.458,0,0,1-.458-.458V7.5" fill="none" stroke="#323232" stroke-linecap="round" stroke-linejoin="round" stroke-width="1.5"/><circle cx="12" cy="12" r="9" fill="none" stroke="#323232" stroke-linecap="round" stroke-linejoin="round" stroke-width="1.5"/><path d="M10.125,16.5V13.607a.482.482,0,0,1,.482-.482h2.786a.482.482,0,0,1,.482.482V16.5" fill="none" stroke="#323232" stroke-linecap="round" stroke-linejoin="round" stroke-width="1.5"/><path d="M0,0H24V24H0Z" fill="none"/></svg>