<?xml version="1.0" encoding="utf-8"?>
<!-- Generator: Adobe Illustrator 24.0.2, SVG Export Plug-In . SVG Version: 6.00 Build 0)  -->
<svg version="1.1" id="Layer_3" xmlns="http://www.w3.org/2000/svg" xmlns:xlink="http://www.w3.org/1999/xlink" x="0px" y="0px"
	 width="24px" height="24px" viewBox="0 0 24 24" enable-background="new 0 0 24 24" xml:space="preserve">
<g>
	<g>
		<path fill="none" stroke="#323232" stroke-width="1.5" stroke-linecap="round" stroke-linejoin="round" d="M16.164,3H5.007
			c-1.11,0-2.008,0.904-2,2.015l0.104,14C3.119,20.114,4.012,21,5.111,21h13.881c1.105,0,2-0.895,2-2V7.828
			c0-0.53-0.211-1.039-0.586-1.414l-2.828-2.828C17.203,3.211,16.695,3,16.164,3z"/>
		<path fill="none" stroke="#323232" stroke-width="1.5" stroke-linecap="round" stroke-linejoin="round" d="M15.993,3v3.909
			c0,0.552-0.448,1-1,1h-6c-0.552,0-1-0.448-1-1V3"/>
		<path fill="none" stroke="#323232" stroke-width="1.5" stroke-linecap="round" stroke-linejoin="round" d="M7,21v-7.714
			C7,12.576,7.576,12,8.286,12h7.429C16.424,12,17,12.576,17,13.286V21"/>
	</g>
	<path fill="none" d="M0,0h24v24H0V0z"/>
</g>
</svg>
