<?xml version="1.0" encoding="utf-8"?>
<!-- Generator: Adobe Illustrator 24.0.2, SVG Export Plug-In . SVG Version: 6.00 Build 0)  -->
<svg version="1.1" id="Layer_3" xmlns="http://www.w3.org/2000/svg" xmlns:xlink="http://www.w3.org/1999/xlink" x="0px" y="0px"
	 width="24px" height="24px" viewBox="0 0 24 24" enable-background="new 0 0 24 24" xml:space="preserve">
<g>
	<g>
		<path fill="none" stroke="#323232" stroke-width="1.5" stroke-linecap="round" stroke-linejoin="round" d="M14.082,7.5H8.504
			c-0.555,0-1.004,0.452-1,1.007l0.052,7c0.004,0.549,0.451,0.993,1,0.993h6.941c0.552,0,1-0.448,1-1V9.914
			c0-0.265-0.105-0.52-0.293-0.707l-1.414-1.414C14.602,7.605,14.347,7.5,14.082,7.5z"/>
		<path fill="none" stroke="#323232" stroke-width="1.5" stroke-linecap="round" stroke-linejoin="round" d="M13.83,7.5v2.354
			c0,0.253-0.205,0.458-0.458,0.458h-2.75c-0.253,0-0.458-0.205-0.458-0.458V7.5"/>
		<path fill="none" stroke="#323232" stroke-width="1.5" stroke-linecap="round" stroke-linejoin="round" d="M10.125,16.5v-2.893
			c0-0.266,0.216-0.482,0.482-0.482h2.786c0.266,0,0.482,0.216,0.482,0.482V16.5"/>
		<g>
			<g>
				<path fill="none" stroke="#323232" stroke-width="1.5" stroke-linecap="round" stroke-linejoin="round" d="M20.996,7v10
					c0,2.209-1.791,4-4,4h-10c-2.209,0-4-1.791-4-4V7c0-2.209,1.791-4,4-4h10C19.205,3,20.996,4.791,20.996,7z"/>
			</g>
		</g>
	</g>
	<g>
		<path fill="none" d="M0,0h24v24H0V0z"/>
	</g>
</g>
</svg>
