<?xml version="1.0" encoding="utf-8"?>
<!-- Generator: Adobe Illustrator 24.0.2, SVG Export Plug-In . SVG Version: 6.00 Build 0)  -->
<svg version="1.1" id="Layer_3" xmlns="http://www.w3.org/2000/svg" xmlns:xlink="http://www.w3.org/1999/xlink" x="0px" y="0px"
	 width="24px" height="24px" viewBox="0 0 24 24" enable-background="new 0 0 24 24" xml:space="preserve">
<g>
	<g>
		<path fill="none" stroke="#323232" stroke-width="1.5" stroke-linecap="round" stroke-linejoin="round" d="M13.964,6H4.667
			C3.741,6,2.993,6.754,3,7.679l0.087,11.667C3.093,20.261,3.838,21,4.753,21h11.568c0.92,0,1.667-0.746,1.667-1.667v-9.31
			c0-0.442-0.176-0.866-0.488-1.179l-2.357-2.357C14.83,6.176,14.406,6,13.964,6z"/>
		<g>
			<path fill="none" stroke="#323232" stroke-width="1.5" stroke-linecap="round" stroke-linejoin="round" d="M21,17V7.828
				c0-0.53-0.211-1.039-0.586-1.414l-2.828-2.828C17.211,3.211,16.702,3,16.172,3H7.007"/>
		</g>
		<path fill="none" stroke="#323232" stroke-width="1.5" stroke-linecap="round" stroke-linejoin="round" d="M13.821,6v3.258
			c0,0.46-0.373,0.833-0.833,0.833h-5c-0.46,0-0.833-0.373-0.833-0.833V6"/>
		<path fill="none" stroke="#323232" stroke-width="1.5" stroke-linecap="round" stroke-linejoin="round" d="M6.327,21v-6.429
			c0-0.592,0.48-1.071,1.071-1.071h6.19c0.592,0,1.071,0.48,1.071,1.071V21"/>
	</g>
	<path fill="none" d="M0,0h24v24H0V0z"/>
</g>
</svg>
