<?xml version="1.0" encoding="utf-8"?>
<!-- Generator: Adobe Illustrator 24.0.2, SVG Export Plug-In . SVG Version: 6.00 Build 0)  -->
<svg version="1.1" id="Layer_3" xmlns="http://www.w3.org/2000/svg" xmlns:xlink="http://www.w3.org/1999/xlink" x="0px" y="0px"
	 width="24px" height="24px" viewBox="0 0 24 24" enable-background="new 0 0 24 24" xml:space="preserve">
<g>
	<g>
		<path fill="none" stroke="#323232" stroke-width="1.5" stroke-linecap="round" stroke-linejoin="round" d="M12.513,8H4.444
			C3.643,8,2.994,8.653,3,9.455l0.075,10.111C3.081,20.36,3.726,21,4.519,21h10.036C15.353,21,16,20.353,16,19.556v-8.068
			c0-0.383-0.152-0.75-0.423-1.021l-2.043-2.043C13.263,8.152,12.896,8,12.513,8z"/>
		<path fill="none" stroke="#323232" stroke-width="1.5" stroke-linecap="round" stroke-linejoin="round" d="M12,8v2.823
			c0,0.399-0.323,0.722-0.722,0.722H7.722C7.323,11.545,7,11.222,7,10.823V5c0-1.105,0.895-2,2-2h10c1.105,0,2,0.895,2,2v8
			c0,1.105-0.895,2-2,2h-3"/>
		<path fill="none" stroke="#323232" stroke-width="1.5" stroke-linecap="round" stroke-linejoin="round" d="M6,21v-5.071
			C6,15.416,6.416,15,6.929,15H12c0.513,0,0.929,0.416,0.929,0.929V21"/>
	</g>
	<path fill="none" d="M0,0h24v24H0V0z"/>
</g>
</svg>
