<?xml version="1.0" encoding="utf-8"?>
<!-- Generator: Adobe Illustrator 24.0.2, SVG Export Plug-In . SVG Version: 6.00 Build 0)  -->
<svg version="1.1" id="Layer_3" xmlns="http://www.w3.org/2000/svg" xmlns:xlink="http://www.w3.org/1999/xlink" x="0px" y="0px"
	 width="24px" height="24px" viewBox="0 0 24 24" enable-background="new 0 0 24 24" xml:space="preserve">
<g>
	<g>
		<g>
			<path fill="none" stroke="#323232" stroke-width="1.5" stroke-linecap="round" stroke-linejoin="round" d="M19,9h-6.471
				c-0.331,0-0.641-0.164-0.827-0.438l-1.405-2.065C10.111,6.224,9.802,6.06,9.471,6.06H5c-1.105,0-2,0.895-2,2V19
				c0,1.105,0.895,2,2,2h14c1.105,0,2-0.895,2-2v-8C21,9.896,20.105,9,19,9z"/>
			<path fill="none" stroke="#323232" stroke-width="1.5" stroke-linecap="round" stroke-linejoin="round" d="M21,19v-8
				c0-1.104-0.895-2-2-2h-6.471c-0.331,0-0.641-0.164-0.827-0.438l-1.405-2.065C10.111,6.224,9.802,6.06,9.471,6.06H5
				c-1.105,0-2,0.895-2,2V19"/>
		</g>
		<path fill="none" stroke="#323232" stroke-width="1.5" stroke-linecap="round" stroke-linejoin="round" d="M19,5.94h-4.471
			c-0.331,0-0.641-0.164-0.827-0.438l-1.405-2.065C12.111,3.164,11.802,3,11.471,3H5"/>
	</g>
	<g>
		<path fill="none" d="M0,0h24v24H0V0z"/>
	</g>
</g>
</svg>
