<svg id="Layer_3" data-name="Layer 3" xmlns="http://www.w3.org/2000/svg" viewBox="0 0 24 24"><title>Artboard 364</title><path d="M19,5.45H15.029a1,1,0,0,1-.827-.437L13.131,3.437A1,1,0,0,0,12.3,3H9A2,2,0,0,0,7,5v9a2,2,0,0,0,2,2H19a2,2,0,0,0,2-2V7.45A2,2,0,0,0,19,5.45Z" fill="none" stroke="#323232" stroke-linecap="round" stroke-linejoin="round" stroke-width="1.5"/><path d="M7,7H5A2,2,0,0,0,3,9V19a2,2,0,0,0,2,2H16.75a2,2,0,0,0,2-2V16" fill="none" stroke="#323232" stroke-linecap="round" stroke-linejoin="round" stroke-width="1.5"/><path d="M0,0H24V24H0Z" fill="none"/></svg>