<svg id="Layer_3" data-name="Layer 3" xmlns="http://www.w3.org/2000/svg" viewBox="0 0 24 24"><title>Artboard 373</title><path d="M0,0H24V24H0Z" fill="none"/><path d="M6.391,14A.278.278,0,1,1,6,14a.279.279,0,0,1,.393,0" fill="none" stroke="#323232" stroke-linecap="round" stroke-linejoin="round" stroke-width="1.5"/><path d="M13,14.95a5.308,5.308,0,0,0-6.111,5.286A5.215,5.215,0,0,0,6.95,21" fill="none" stroke="#323232" stroke-linecap="round" stroke-linejoin="round" stroke-width="1.5"/><path d="M10,21H6a3,3,0,0,1-3-3V14a3,3,0,0,1,3-3h4a3,3,0,0,1,3,3v4A3,3,0,0,1,10,21Z" fill="none" stroke="#323232" stroke-linecap="round" stroke-linejoin="round" stroke-width="1.5"/><path d="M16,19h3a2,2,0,0,0,2-2V7.94a2,2,0,0,0-2-2H12.529A1,1,0,0,1,11.7,5.5L10.3,3.437A1,1,0,0,0,9.471,3H5A2,2,0,0,0,3,5V9" fill="none" stroke="#323232" stroke-linecap="round" stroke-linejoin="round" stroke-width="1.5"/></svg>