<?xml version="1.0" encoding="utf-8"?>
<!-- Generator: Adobe Illustrator 24.0.2, SVG Export Plug-In . SVG Version: 6.00 Build 0)  -->
<svg version="1.1" id="Layer_3" xmlns="http://www.w3.org/2000/svg" xmlns:xlink="http://www.w3.org/1999/xlink" x="0px" y="0px"
	 width="24px" height="24px" viewBox="0 0 24 24" enable-background="new 0 0 24 24" xml:space="preserve">
<g>
	<g>
		<path fill="none" stroke="#323232" stroke-width="1.5" stroke-linecap="round" stroke-linejoin="round" d="M15.146,6.94h-2.617
			c-0.331,0-0.641-0.164-0.827-0.438l-1.405-2.065C10.111,4.164,9.802,4,9.471,4H5C3.895,4,3,4.895,3,6v12c0,1.105,0.895,2,2,2h14
			c1.105,0,2-0.895,2-2v-6.537"/>
		<path fill="none" stroke="#323232" stroke-width="1.5" stroke-linecap="round" stroke-linejoin="round" d="M19,4
			c-2.209,0-4,1.791-4,4s1.791,4,4,4c2.21,0,4-1.791,4-4S21.21,4,19,4"/>
		<path fill="none" stroke="#323232" stroke-width="1.5" stroke-linecap="round" stroke-linejoin="round" d="M20.383,7.309
			l-1.729,1.729L17.617,8"/>
	</g>
	<path fill="none" d="M0,0h24v24H0V0z"/>
</g>
</svg>
