<?xml version="1.0" encoding="utf-8"?>
<!-- Generator: Adobe Illustrator 24.0.2, SVG Export Plug-In . SVG Version: 6.00 Build 0)  -->
<svg version="1.1" id="Layer_3" xmlns="http://www.w3.org/2000/svg" xmlns:xlink="http://www.w3.org/1999/xlink" x="0px" y="0px"
	 width="24px" height="24px" viewBox="0 0 24 24" enable-background="new 0 0 24 24" xml:space="preserve">
<g>
	<g>
		<path fill="none" stroke="#323232" stroke-width="1.5" stroke-linecap="round" stroke-linejoin="round" d="M19.687,17.354v-1.751
			c0-0.841-0.717-1.603-1.603-1.603s-1.603,0.717-1.603,1.603v1.751"/>
		<path fill="none" stroke="#323232" stroke-width="1.5" stroke-linecap="round" stroke-linejoin="round" d="M20.345,21h-4.521
			c-0.363,0-0.657-0.294-0.657-0.656v-2.333c0-0.363,0.294-0.656,0.656-0.656h4.521c0.363,0,0.656,0.294,0.656,0.656v2.333
			C21.001,20.706,20.707,21,20.345,21z"/>
		<g>
			<path fill="none" stroke="#323232" stroke-width="1.5" stroke-linecap="round" stroke-linejoin="round" d="M21,11V7.94
				c0-1.104-0.895-2-2-2h-6.471c-0.331,0-0.641-0.164-0.827-0.438l-1.405-2.065C10.111,3.164,9.802,3,9.471,3H5C3.895,3,3,3.895,3,5
				v12c0,1.105,0.895,2,2,2h6"/>
		</g>
	</g>
	<path fill="none" d="M0,0h24v24H0V0z"/>
</g>
</svg>
