<?xml version="1.0" encoding="utf-8"?>
<!-- Generator: Adobe Illustrator 24.0.2, SVG Export Plug-In . SVG Version: 6.00 Build 0)  -->
<svg version="1.1" id="Layer_3" xmlns="http://www.w3.org/2000/svg" xmlns:xlink="http://www.w3.org/1999/xlink" x="0px" y="0px"
	 width="24px" height="24px" viewBox="0 0 24 24" enable-background="new 0 0 24 24" xml:space="preserve">
<g>
	<path fill="none" d="M0,0h24v24H0V0z"/>
	<g>
		<g>
			<path fill="none" stroke="#323232" stroke-width="1.5" stroke-linecap="round" stroke-linejoin="round" d="M20.241,14.996
				c0,0,1.007-3.433,1.007-3.433C21.624,10.282,20.664,9,19.329,9H9.488c-0.883,0-1.662,0.579-1.916,1.426l-2.327,7.757
				C5.1,18.668,4.653,19,4.147,19l0,0C3.513,19,3,18.487,3,17.853V5c0-1.105,0.895-2,2-2h4.465c0.334,0,0.646,0.167,0.832,0.446
				l1.406,2.109C11.888,5.833,12.201,6,12.535,6H17c1.105,0,2,0.895,2,2v1"/>
		</g>
		<path fill="none" stroke="#323232" stroke-width="1.5" stroke-linecap="round" stroke-linejoin="round" d="M16.5,22
			c-2.485,0-4.5-2.015-4.5-4.5s2.015-4.5,4.5-4.5c2.486,0,4.5,2.015,4.5,4.5S18.986,22,16.5,22"/>
		
			<line fill="none" stroke="#323232" stroke-width="1.5" stroke-linecap="round" stroke-linejoin="round" x1="12.257" y1="19" x2="4.146" y2="19"/>
		
			<line fill="none" stroke="#323232" stroke-width="1.5" stroke-linecap="round" stroke-linejoin="round" x1="15.125" y1="17.375" x2="18.125" y2="17.375"/>
		
			<line fill="none" stroke="#323232" stroke-width="1.5" stroke-linecap="round" stroke-linejoin="round" x1="16.625" y1="18.875" x2="16.625" y2="15.875"/>
	</g>
</g>
</svg>
