<svg id="Layer_3" data-name="Layer 3" xmlns="http://www.w3.org/2000/svg" viewBox="0 0 24 24"><title>Artboard 377</title><path d="M0,0H24V24H0Z" fill="none"/><path d="M16,17l-2,2,2,2" fill="none" stroke="#323232" stroke-linecap="round" stroke-linejoin="round" stroke-width="1.5"/><path d="M21,11V7.94a2,2,0,0,0-2-2H12.529A1,1,0,0,1,11.7,5.5L10.3,3.437A1,1,0,0,0,9.471,3H5A2,2,0,0,0,3,5V17a2,2,0,0,0,2,2h5" fill="none" stroke="#323232" stroke-linecap="round" stroke-linejoin="round" stroke-width="1.5"/><path d="M18.01,15h1a2,2,0,0,1,2,2h0a2,2,0,0,1-2,2h-5" fill="none" stroke="#323232" stroke-linecap="round" stroke-linejoin="round" stroke-width="1.5"/></svg>