<?xml version="1.0" encoding="utf-8"?>
<!-- Generator: Adobe Illustrator 24.0.2, SVG Export Plug-In . SVG Version: 6.00 Build 0)  -->
<svg version="1.1" id="Layer_1" xmlns="http://www.w3.org/2000/svg" xmlns:xlink="http://www.w3.org/1999/xlink" x="0px" y="0px"
	 width="24px" height="24px" viewBox="0 0 24 24" enable-background="new 0 0 24 24" xml:space="preserve">
<g>
	<g>
		
			<path fill="none" stroke="#323232" stroke-width="1.5" stroke-linecap="round" stroke-linejoin="round" stroke-miterlimit="10" d="
			M16,21H8c-2.761,0-5-2.239-5-5V8c0-2.761,2.239-5,5-5h8c2.761,0,5,2.239,5,5v8C21,18.761,18.761,21,16,21z"/>
		<path fill="none" stroke="#323232" stroke-width="1.5" stroke-linecap="round" stroke-linejoin="round" d="M15.5,9.47H12
			l-0.702-1.033C11.111,8.164,10.802,8,10.471,8H8.5c-0.552,0-1,0.448-1,1v6c0,0.552,0.448,1,1,1h7c0.552,0,1-0.448,1-1v-4.53
			C16.5,9.918,16.052,9.47,15.5,9.47z"/>
	</g>
	<path fill="none" d="M0,0h24v24H0V0z"/>
</g>
</svg>
