<svg id="Layer_3" data-name="Layer 3" xmlns="http://www.w3.org/2000/svg" viewBox="0 0 24 24"><title>Artboard 369</title><path d="M9.667,17.388H6.333L7.444,18.5" fill="none" stroke="#323232" stroke-linecap="round" stroke-linejoin="round" stroke-width="1.5"/><path d="M8.556,13.5l1.111,1.112H6.333" fill="none" stroke="#323232" stroke-linecap="round" stroke-linejoin="round" stroke-width="1.5"/><path d="M10,21H6a3,3,0,0,1-3-3V14a3,3,0,0,1,3-3h4a3,3,0,0,1,3,3v4A3,3,0,0,1,10,21Z" fill="none" stroke="#323232" stroke-linecap="round" stroke-linejoin="round" stroke-width="1.5"/><path d="M16,19h3a2,2,0,0,0,2-2V7.94a2,2,0,0,0-2-2H12.529A1,1,0,0,1,11.7,5.5L10.3,3.437A1,1,0,0,0,9.471,3H5A2,2,0,0,0,3,5V9" fill="none" stroke="#323232" stroke-linecap="round" stroke-linejoin="round" stroke-width="1.5"/><path d="M0,0H24V24H0Z" fill="none"/></svg>