<svg id="Layer_3" data-name="Layer 3" xmlns="http://www.w3.org/2000/svg" viewBox="0 0 24 24"><title>Artboard 361</title><path d="M19,6.94H12.529A1,1,0,0,1,11.7,6.5L10.3,4.437A1,1,0,0,0,9.471,4H5A2,2,0,0,0,3,6V18a2,2,0,0,0,2,2H19a2,2,0,0,0,2-2V8.94A2,2,0,0,0,19,6.94Z" fill="none" stroke="#323232" stroke-linecap="round" stroke-linejoin="round" stroke-width="1.5"/><path d="M3,9.88H9.471a1,1,0,0,0,.826-.437l1.4-2.065a1,1,0,0,1,.827-.438" fill="none" stroke="#323232" stroke-linecap="round" stroke-linejoin="round" stroke-width="1.5"/><path d="M0,0H24V24H0Z" fill="none"/></svg>