<svg id="Layer_3" data-name="Layer 3" xmlns="http://www.w3.org/2000/svg" viewBox="0 0 24 24"><title>Artboard 374</title><path d="M20.467,17.5l.554-.554a2.94,2.94,0,0,0,.218-4.007,2.831,2.831,0,0,0-4.109-.11l-.667.667" fill="none" stroke="#323232" stroke-linecap="round" stroke-linejoin="round" stroke-width="1.5"/><path d="M14.461,15.5l-.554.554a2.94,2.94,0,0,0-.218,4.007,2.831,2.831,0,0,0,4.109.11l.667-.667" fill="none" stroke="#323232" stroke-linecap="round" stroke-linejoin="round" stroke-width="1.5"/><line x1="15.796" y1="18.168" x2="19.132" y2="14.832" fill="none" stroke="#323232" stroke-linecap="round" stroke-linejoin="round" stroke-width="1.5"/><path d="M21,9V7.94a2,2,0,0,0-2-2H12.529A1,1,0,0,1,11.7,5.5L10.3,3.437A1,1,0,0,0,9.471,3H5A2,2,0,0,0,3,5V17a2,2,0,0,0,2,2h5" fill="none" stroke="#323232" stroke-linecap="round" stroke-linejoin="round" stroke-width="1.5"/><path d="M0,0H24V24H0Z" fill="none"/></svg>