<?xml version="1.0" encoding="utf-8"?>
<!-- Generator: Adobe Illustrator 24.0.2, SVG Export Plug-In . SVG Version: 6.00 Build 0)  -->
<svg version="1.1" id="Layer_3" xmlns="http://www.w3.org/2000/svg" xmlns:xlink="http://www.w3.org/1999/xlink" x="0px" y="0px"
	 width="24px" height="24px" viewBox="0 0 24 24" enable-background="new 0 0 24 24" xml:space="preserve">
<g>
	<g>
		<g>
			<g>
				<path fill="none" d="M0,0h24v24H0V0z"/>
			</g>
		</g>
	</g>
	<g>
		<path fill="none" stroke="#323232" stroke-width="1.5" stroke-linecap="round" stroke-linejoin="round" d="M15.753,19.389
			c1.005,1.005,2.632,1.005,3.637,0c1.005-1.005,1.005-2.632,0-3.637s-2.632-1.005-3.637,0
			C14.749,16.757,14.749,18.386,15.753,19.389"/>
		<path fill="none" stroke="#323232" stroke-width="1.5" stroke-linecap="round" stroke-linejoin="round" d="M21,21l-1.61-1.611"/>
		<g>
			<path fill="none" stroke="#323232" stroke-width="1.5" stroke-linecap="round" stroke-linejoin="round" d="M21,12V7.94
				c0-1.104-0.895-2-2-2h-6.471c-0.331,0-0.641-0.164-0.827-0.438l-1.405-2.065C10.111,3.164,9.802,3,9.471,3H5C3.895,3,3,3.895,3,5
				v12c0,1.105,0.895,2,2,2h6"/>
		</g>
	</g>
</g>
</svg>
