<?xml version="1.0" encoding="utf-8"?>
<!-- Generator: Adobe Illustrator 24.0.2, SVG Export Plug-In . SVG Version: 6.00 Build 0)  -->
<svg version="1.1" id="Layer_3" xmlns="http://www.w3.org/2000/svg" xmlns:xlink="http://www.w3.org/1999/xlink" x="0px" y="0px"
	 width="24px" height="24px" viewBox="0 0 24 24" enable-background="new 0 0 24 24" xml:space="preserve">
<g>
	<path fill="none" d="M0,0h24v24H0V0z"/>
	<g>
		<path fill="none" stroke="#323232" stroke-width="1.5" stroke-linecap="round" stroke-linejoin="round" d="M15.997,3h3.286
			c0.946,0,1.714,0.768,1.714,1.714V8"/>
		<path fill="none" stroke="#323232" stroke-width="1.5" stroke-linecap="round" stroke-linejoin="round" d="M8,21H4.714
			C3.768,21,3,20.232,3,19.286V16"/>
		<path fill="none" stroke="#323232" stroke-width="1.5" stroke-linecap="round" stroke-linejoin="round" d="M20.519,14.633h-3.127
			c-0.245,0-0.475-0.121-0.613-0.324l-0.67-0.985C15.971,13.121,15.742,13,15.497,13h-2.016C12.663,13,12,13.663,12,14.481v6.037
			C12,21.337,12.663,22,13.481,22h7.037C21.337,22,22,21.337,22,20.519v-4.404C22,15.297,21.337,14.633,20.519,14.633z"/>
		<path fill="none" stroke="#323232" stroke-width="1.5" stroke-linecap="round" stroke-linejoin="round" d="M10.519,3.633H7.392
			c-0.245,0-0.475-0.121-0.613-0.324l-0.67-0.985C5.971,2.121,5.742,2,5.497,2H3.481C2.663,2,2,2.663,2,3.481v6.037
			C2,10.337,2.663,11,3.481,11h7.037C11.337,11,12,10.337,12,9.519V5.115C12,4.297,11.337,3.633,10.519,3.633z"/>
	</g>
</g>
</svg>
