<svg id="Layer_3" data-name="Layer 3" xmlns="http://www.w3.org/2000/svg" viewBox="0 0 24 24"><title>Artboard 363</title><path d="M0,0H24V24H0Z" fill="none"/><path d="M16,3h3.286A1.714,1.714,0,0,1,21,4.714V8" fill="none" stroke="#323232" stroke-linecap="round" stroke-linejoin="round" stroke-width="1.5"/><path d="M8,21H5a2,2,0,0,1-2-2V16" fill="none" stroke="#323232" stroke-linecap="round" stroke-linejoin="round" stroke-width="1.5"/><path d="M20.5,14.633H17.529A1,1,0,0,1,16.7,14.2l-.516-.757A1,1,0,0,0,15.359,13H13.5A1.5,1.5,0,0,0,12,14.5v6A1.5,1.5,0,0,0,13.5,22h7A1.5,1.5,0,0,0,22,20.5V16.133A1.5,1.5,0,0,0,20.5,14.633Z" fill="none" stroke="#323232" stroke-linecap="round" stroke-linejoin="round" stroke-width="1.5"/><path d="M10.5,3.633H7.529A1,1,0,0,1,6.7,3.2l-.516-.757A1,1,0,0,0,5.359,2H3.5A1.5,1.5,0,0,0,2,3.5v6A1.5,1.5,0,0,0,3.5,11h7A1.5,1.5,0,0,0,12,9.5V5.133A1.5,1.5,0,0,0,10.5,3.633Z" fill="none" stroke="#323232" stroke-linecap="round" stroke-linejoin="round" stroke-width="1.5"/></svg>