<svg id="Layer_3" data-name="Layer 3" xmlns="http://www.w3.org/2000/svg" viewBox="0 0 24 24"><title>Artboard 365</title><path d="M24,24H0V0H24Z" fill="none"/><path d="M17.5,5.5,16,4l1.5-1.5" fill="none" stroke="#323232" stroke-linecap="round" stroke-linejoin="round" stroke-width="1.5"/><path d="M21,7a3,3,0,0,0-3-3H16" fill="none" stroke="#323232" stroke-linecap="round" stroke-linejoin="round" stroke-width="1.5"/><path d="M6.5,18.5,8,20,6.5,21.5" fill="none" stroke="#323232" stroke-linecap="round" stroke-linejoin="round" stroke-width="1.5"/><path d="M3,17a3,3,0,0,0,3,3H8" fill="none" stroke="#323232" stroke-linecap="round" stroke-linejoin="round" stroke-width="1.5"/><path d="M13.222,14.637V21a1,1,0,0,0,1,1H20a1,1,0,0,0,1-1V13a1,1,0,0,0-1-1H15.859a1,1,0,0,0-.707.293L13.515,13.93A1,1,0,0,0,13.222,14.637Z" fill="none" stroke="#323232" stroke-linecap="round" stroke-linejoin="round" stroke-width="1.5"/><path d="M10.5,3.633H7.529A1,1,0,0,1,6.7,3.2l-.516-.757A1,1,0,0,0,5.359,2H3.5A1.5,1.5,0,0,0,2,3.5v6A1.5,1.5,0,0,0,3.5,11h7A1.5,1.5,0,0,0,12,9.5V5.133A1.5,1.5,0,0,0,10.5,3.633Z" fill="none" stroke="#323232" stroke-linecap="round" stroke-linejoin="round" stroke-width="1.5"/></svg>