<svg id="Layer_3" data-name="Layer 3" xmlns="http://www.w3.org/2000/svg" viewBox="0 0 24 24"><title>Artboard 362</title><path d="M0,0H24V24H0Z" fill="none"/><path d="M19,10H12.535a1,1,0,0,1-.832-.445L10.3,7.446A1,1,0,0,0,9.465,7H5A2,2,0,0,0,3,9V19a2,2,0,0,0,2,2H19a2,2,0,0,0,2-2V12A2,2,0,0,0,19,10Z" fill="none" stroke="#323232" stroke-linecap="round" stroke-linejoin="round" stroke-width="1.5"/><path d="M5,7V5A2,2,0,0,1,7,3H17a2,2,0,0,1,2,2v5" fill="none" stroke="#323232" stroke-linecap="round" stroke-linejoin="round" stroke-width="1.5"/><path d="M0,0H24V24H0Z" fill="none"/></svg>