<?xml version="1.0" encoding="utf-8"?>
<!-- Generator: Adobe Illustrator 24.0.2, SVG Export Plug-In . SVG Version: 6.00 Build 0)  -->
<svg version="1.1" id="Layer_1" xmlns="http://www.w3.org/2000/svg" xmlns:xlink="http://www.w3.org/1999/xlink" x="0px" y="0px"
	 width="24px" height="24px" viewBox="0 0 24 24" enable-background="new 0 0 24 24" xml:space="preserve">
<g>
	<g>
		<path fill="none" stroke="#323232" stroke-width="1.5" stroke-linecap="round" stroke-linejoin="round" d="M18.364,5.636
			c3.515,3.515,3.515,9.213,0,12.728c-3.515,3.515-9.213,3.515-12.728,0c-3.515-3.515-3.515-9.213,0-12.728
			C9.151,2.121,14.849,2.121,18.364,5.636"/>
		<path fill="none" stroke="#323232" stroke-width="1.5" stroke-linecap="round" stroke-linejoin="round" d="M15.5,9.47H12
			l-0.702-1.033C11.111,8.164,10.802,8,10.471,8H8.5c-0.552,0-1,0.448-1,1v6c0,0.552,0.448,1,1,1h7c0.552,0,1-0.448,1-1v-4.53
			C16.5,9.918,16.052,9.47,15.5,9.47z"/>
	</g>
	<path fill="none" d="M0,0h24v24H0V0z"/>
</g>
</svg>
