<svg id="Layer_3" data-name="Layer 3" xmlns="http://www.w3.org/2000/svg" viewBox="0 0 24 24"><title>Artboard 380</title><path d="M0,0H24V24H0Z" fill="none"/><path d="M3,16v2a2,2,0,0,0,2,2H9" fill="none" stroke="#323232" stroke-linecap="round" stroke-linejoin="round" stroke-width="1.5"/><path d="M21,9V5a2,2,0,0,0-2-2H15" fill="none" stroke="#323232" stroke-linecap="round" stroke-linejoin="round" stroke-width="1.5"/><path d="M11.5,4.633H8.529A1,1,0,0,1,7.7,4.2l-.516-.757A1,1,0,0,0,6.359,3H4.5A1.5,1.5,0,0,0,3,4.5v6A1.5,1.5,0,0,0,4.5,12h7A1.5,1.5,0,0,0,13,10.5V6.133A1.5,1.5,0,0,0,11.5,4.633Z" fill="none" stroke="#323232" stroke-linecap="round" stroke-linejoin="round" stroke-width="1.5"/><path d="M17.224,14a3.225,3.225,0,0,1,3.225,3.224,3.274,3.274,0,0,1-3.225,3.225,3.225,3.225,0,0,1,0-6.449" fill="none" stroke="#323232" stroke-linecap="round" stroke-linejoin="round" stroke-width="1.5"/><path d="M21,21l-1.512-1.512" fill="none" stroke="#323232" stroke-linecap="round" stroke-linejoin="round" stroke-width="1.5"/></svg>