<svg id="Layer_3" data-name="Layer 3" xmlns="http://www.w3.org/2000/svg" viewBox="0 0 24 24"><title>Artboard 372</title><path d="M0,0H24V24H0Z" fill="none"/><path d="M20.241,15l1.007-3.433A2,2,0,0,0,19.329,9H9.488a2,2,0,0,0-1.916,1.426L5.245,18.183a1.146,1.146,0,0,1-1.1.817h0A1.146,1.146,0,0,1,3,17.853V5A2,2,0,0,1,5,3H9.465a1,1,0,0,1,.832.446L11.7,5.555A1,1,0,0,0,12.535,6H17a2,2,0,0,1,2,2V9" fill="none" stroke="#323232" stroke-linecap="round" stroke-linejoin="round" stroke-width="1.5"/><path d="M16.5,22A4.5,4.5,0,1,1,21,17.5,4.5,4.5,0,0,1,16.5,22" fill="none" stroke="#323232" stroke-linecap="round" stroke-linejoin="round" stroke-width="1.5"/><line x1="12.257" y1="19" x2="4.146" y2="19" fill="none" stroke="#323232" stroke-linecap="round" stroke-linejoin="round" stroke-width="1.5"/><line x1="15.439" y1="16.439" x2="17.561" y2="18.561" fill="none" stroke="#323232" stroke-linecap="round" stroke-linejoin="round" stroke-width="1.5"/><line x1="15.439" y1="18.561" x2="17.561" y2="16.439" fill="none" stroke="#323232" stroke-linecap="round" stroke-linejoin="round" stroke-width="1.5"/></svg>