<?xml version="1.0" encoding="utf-8"?>
<!-- Generator: Adobe Illustrator 24.0.2, SVG Export Plug-In . SVG Version: 6.00 Build 0)  -->
<svg version="1.1" id="Layer_3" xmlns="http://www.w3.org/2000/svg" xmlns:xlink="http://www.w3.org/1999/xlink" x="0px" y="0px"
	 width="24px" height="24px" viewBox="0 0 24 24" enable-background="new 0 0 24 24" xml:space="preserve">
<g>
	<g>
		<path fill="none" stroke="#323232" stroke-width="1.5" stroke-linecap="round" stroke-linejoin="round" d="M18,6.94h1
			c1.105,0,2,0.896,2,2V18c0,1.105-0.895,2-2,2H5c-1.105,0-2-0.895-2-2V6c0-1.105,0.895-2,2-2h4.471c0.331,0,0.64,0.164,0.826,0.437
			l1.405,2.065c0.186,0.274,0.496,0.438,0.827,0.438H14"/>
		<path fill="none" stroke="#323232" stroke-width="1.5" stroke-linecap="round" stroke-linejoin="round" d="M17,6h-2
			c-0.552,0-1,0.448-1,1v5l2-1l2,1V7C18,6.448,17.552,6,17,6z"/>
	</g>
	<path fill="none" d="M0,0h24v24H0V0z"/>
</g>
</svg>
