<?xml version="1.0" encoding="utf-8"?>
<!-- Generator: Adobe Illustrator 24.0.2, SVG Export Plug-In . SVG Version: 6.00 Build 0)  -->
<svg version="1.1" id="Layer_3" xmlns="http://www.w3.org/2000/svg" xmlns:xlink="http://www.w3.org/1999/xlink" x="0px" y="0px"
	 width="24px" height="24px" viewBox="0 0 24 24" enable-background="new 0 0 24 24" xml:space="preserve">
<g>
	<g>
		<g>
			<g>
				<path fill="none" d="M0,0h24v24H0V0z"/>
			</g>
		</g>
	</g>
	<g>
		<path fill="none" stroke="#323232" stroke-width="1.5" stroke-linecap="round" stroke-linejoin="round" d="M20,19l-0.284-0.713
			c-0.144-0.361-0.367-0.686-0.652-0.95l0,0c-0.483-0.448-1.118-0.696-1.776-0.696h-3.924"/>
		<g>
			<path fill="none" stroke="#323232" stroke-width="1.5" stroke-linecap="round" stroke-linejoin="round" d="M21,12V7.94
				c0-1.104-0.895-2-2-2h-6.471c-0.331,0-0.641-0.164-0.827-0.438l-1.405-2.065C10.111,3.164,9.802,3,9.471,3H5C3.895,3,3,3.895,3,5
				v12c0,1.105,0.895,2,2,2h5"/>
		</g>
		<path fill="none" stroke="#323232" stroke-width="1.5" stroke-linecap="round" stroke-linejoin="round" d="M16.667,10.159
			c0.879,0.879,0.879,2.303,0,3.182c-0.879,0.879-2.303,0.879-3.182,0c-0.879-0.879-0.879-2.303,0-3.182
			C14.364,9.28,15.788,9.28,16.667,10.159"/>
		<g>
			<path fill="none" stroke="#323232" stroke-width="1.5" stroke-linecap="round" stroke-linejoin="round" d="M9,10.25l-2,2"/>
			<path fill="none" stroke="#323232" stroke-width="1.5" stroke-linecap="round" stroke-linejoin="round" d="M9,12.25l-2-2"/>
		</g>
	</g>
</g>
</svg>
