<svg id="Layer_3" data-name="Layer 3" xmlns="http://www.w3.org/2000/svg" viewBox="0 0 24 24"><title>Artboard 371</title><path d="M24,24H0V0H24Z" fill="none"/><path d="M13,21h6a2,2,0,0,0,2-2V16" fill="none" stroke="#323232" stroke-linecap="round" stroke-linejoin="round" stroke-width="1.5"/><path d="M8,3H5A2,2,0,0,0,3,5v6" fill="none" stroke="#323232" stroke-linecap="round" stroke-linejoin="round" stroke-width="1.5"/><path d="M19.5,4.633H16.529A1,1,0,0,1,15.7,4.2l-.516-.757A1,1,0,0,0,14.359,3H12.5A1.5,1.5,0,0,0,11,4.5v6A1.5,1.5,0,0,0,12.5,12h7A1.5,1.5,0,0,0,21,10.5V6.133A1.5,1.5,0,0,0,19.5,4.633Z" fill="none" stroke="#323232" stroke-linecap="round" stroke-linejoin="round" stroke-width="1.5"/><path d="M3,16H9L7,14" fill="none" stroke="#323232" stroke-linecap="round" stroke-linejoin="round" stroke-width="1.5"/><path d="M9,19H3l2,2" fill="none" stroke="#323232" stroke-linecap="round" stroke-linejoin="round" stroke-width="1.5"/></svg>