<?xml version="1.0" encoding="utf-8"?>
<!-- Generator: Adobe Illustrator 23.1.0, SVG Export Plug-In . SVG Version: 6.00 Build 0)  -->
<svg version="1.1" id="icons" xmlns="http://www.w3.org/2000/svg" xmlns:xlink="http://www.w3.org/1999/xlink" x="0px" y="0px"
	 width="24px" height="24px" viewBox="0 0 24 24" enable-background="new 0 0 24 24" xml:space="preserve">
<g>
	<g>
		<g>
			
				<path fill="none" stroke="#323232" stroke-width="1.5" stroke-linecap="round" stroke-linejoin="round" stroke-miterlimit="10" d="
				M18,15.052L18,15.052c-1.657,0-3-1.343-3-3v-6c0-1.657,1.343-3,3-3h0"/>
			
				<path fill="none" stroke="#323232" stroke-width="1.5" stroke-linecap="round" stroke-linejoin="round" stroke-miterlimit="10" d="
				M18,3.052h1c0.552,0,1,0.448,1,1l0,17"/>
			
				<line fill="none" stroke="#323232" stroke-width="1.5" stroke-linecap="round" stroke-linejoin="round" stroke-miterlimit="10" x1="18" y1="15.052" x2="20" y2="15.052"/>
		</g>
		
			<line fill="none" stroke="#323232" stroke-width="1.5" stroke-linecap="round" stroke-linejoin="round" stroke-miterlimit="10" x1="6.5" y1="11.546" x2="6.487" y2="21"/>
		
			<line fill="none" stroke="#323232" stroke-width="1.5" stroke-linecap="round" stroke-linejoin="round" stroke-miterlimit="10" x1="6.5" y1="8.546" x2="6.5" y2="3"/>
		<g>
			
				<path fill="none" stroke="#323232" stroke-width="1.5" stroke-linecap="round" stroke-linejoin="round" stroke-miterlimit="10" d="
				M3,3.084v4.552l0-0.09c0,2.209,1.567,4,3.5,4s3.5-1.791,3.5-4l0,0.09V3.084"/>
		</g>
	</g>
	<g>
		<rect fill="none" width="24" height="24"/>
	</g>
</g>
</svg>
