<svg id="Layer_3" data-name="Layer 3" xmlns="http://www.w3.org/2000/svg" viewBox="0 0 24 24"><title>forward-frame-circle</title><path d="M24,24H0V0H24Z" fill="none"/><path d="M8.5,9.25v5.5" fill="none" stroke="#323232" stroke-linecap="round" stroke-linejoin="round" stroke-width="1.5"/><path d="M16.279,12.415,12.8,14.766a.5.5,0,0,1-.78-.414V9.65a.5.5,0,0,1,.78-.414l3.483,2.351A.5.5,0,0,1,16.279,12.415Z" fill="none" stroke="#323232" stroke-linecap="round" stroke-linejoin="round" stroke-width="1.5"/><path d="M3,12H3a9,9,0,0,1,9-9h0a9,9,0,0,1,9,9h0a9,9,0,0,1-9,9h0A9,9,0,0,1,3,12Z" fill="none" stroke="#323232" stroke-linecap="round" stroke-linejoin="round" stroke-width="1.5"/></svg>