<svg id="Layer_3" data-name="Layer 3" xmlns="http://www.w3.org/2000/svg" viewBox="0 0 24 24"><title>front-door-part-sqaure</title><line x1="17" y1="11.757" x2="7.05" y2="11.757" fill="none" stroke="#323232" stroke-linecap="round" stroke-linejoin="round" stroke-width="1.5"/><line x1="13.75" y1="13.934" x2="14.25" y2="13.934" fill="none" stroke="#323232" stroke-linecap="round" stroke-linejoin="round" stroke-width="1.5"/><path d="M7,12.307v3.012a1.667,1.667,0,0,0,1.664,1.667L15.334,17A1.667,1.667,0,0,0,17,15.332V8.668A1.667,1.667,0,0,0,15.337,7H11.092a1.668,1.668,0,0,0-1.307.632L7.723,10.239A3.337,3.337,0,0,0,7,12.307Z" fill="none" stroke="#323232" stroke-linecap="round" stroke-linejoin="round" stroke-width="1.5"/><rect x="3" y="3" width="18" height="18" rx="5" stroke-width="1.5" stroke="#323232" stroke-linecap="round" stroke-linejoin="round" fill="none"/><path d="M0,0H24V24H0Z" fill="none"/></svg>