<svg id="Layer_3" data-name="Layer 3" xmlns="http://www.w3.org/2000/svg" viewBox="0 0 24 24"><title>frozen-fruits</title><path d="M12,21a7.99914,7.99914,0,0,1-8-8" fill="none" stroke="#323232" stroke-linecap="round" stroke-linejoin="round" stroke-width="1.5"/><path d="M4,13C4,9.50909,5.6,6.99949,8.8,6.99949" fill="none" stroke="#323232" stroke-linecap="round" stroke-linejoin="round" stroke-width="1.5"/><path d="M12,21a7.99914,7.99914,0,0,0,8-8" fill="none" stroke="#323232" stroke-linecap="round" stroke-linejoin="round" stroke-width="1.5"/><path d="M20,13c0-3.49091-1.6-6.00051-4.8-6.00051" fill="none" stroke="#323232" stroke-linecap="round" stroke-linejoin="round" stroke-width="1.5"/><path d="M15.2,7.00154A23.38732,23.38732,0,0,0,12,7.5137a23.38732,23.38732,0,0,0-3.2-.51216" fill="none" stroke="#323232" stroke-linecap="round" stroke-linejoin="round" stroke-width="1.5"/><line x1="12.00036" y1="11.4369" x2="12.00036" y2="16.4369" fill="none" stroke="#323232" stroke-linecap="round" stroke-linejoin="round" stroke-width="1.5"/><line x1="14.05179" y1="12.50833" x2="9.94821" y2="15.36547" fill="none" stroke="#323232" stroke-linecap="round" stroke-linejoin="round" stroke-width="1.5"/><line x1="9.94821" y1="12.50833" x2="14.05179" y2="15.36547" fill="none" stroke="#323232" stroke-linecap="round" stroke-linejoin="round" stroke-width="1.5"/><path d="M13.72275,7h-1.474v-1.474A2.52536,2.52536,0,0,1,14.77485,3H16.2488V4.474A2.527,2.527,0,0,1,13.72275,7Z" fill="none" stroke="#323232" stroke-linecap="round" stroke-linejoin="round" stroke-width="1.5"/><path d="M12.2488,7V6.5a2.5,2.5,0,0,0-2.5-2.5h-.5" fill="none" stroke="#323232" stroke-linecap="round" stroke-linejoin="round" stroke-width="1.5"/><rect width="24" height="24" fill="none"/></svg>