<?xml version="1.0" encoding="utf-8"?>
<!-- Generator: Adobe Illustrator 24.0.2, SVG Export Plug-In . SVG Version: 6.00 Build 0)  -->
<svg version="1.1" id="Layer_1" xmlns="http://www.w3.org/2000/svg" xmlns:xlink="http://www.w3.org/1999/xlink" x="0px" y="0px"
	 width="24px" height="24px" viewBox="0 0 24 24" enable-background="new 0 0 24 24" xml:space="preserve">
<g>
	<g>
		<path fill="none" stroke="#323232" stroke-width="1.5" stroke-linecap="round" stroke-linejoin="round" d="M5.333,5.469
			C6.973,3.957,9.348,3,12,3s5.027,0.957,6.667,2.469"/>
		<g>
			<path fill="none" stroke="#323232" stroke-width="1.5" stroke-linecap="round" stroke-linejoin="round" d="M7.556,8.185
				C8.649,7.278,10.232,6.704,12,6.704s3.351,0.574,4.444,1.481"/>
		</g>
		<g>
			<path fill="none" stroke="#323232" stroke-width="1.5" stroke-linecap="round" stroke-linejoin="round" d="M9.778,11
				c0.547-0.454,1.338-0.741,2.222-0.741s1.676,0.287,2.222,0.741"/>
		</g>
		<g>
			<path fill="none" stroke="#323232" stroke-width="1.5" stroke-linecap="round" stroke-linejoin="round" d="M4.406,11
				l-1.353,6.764C2.718,19.438,3.999,21,5.707,21h12.587c1.707,0,2.988-1.562,2.653-3.236L19.594,11"/>
		</g>
	</g>
	<path fill="none" d="M24,24H0V0h24V24z"/>
</g>
</svg>
