<svg id="Layer_3" data-name="Layer 3" xmlns="http://www.w3.org/2000/svg" viewBox="0 0 24 24"><title>game-cards-Diamond</title><path d="M24,24H0V0H24Z" fill="none"/><path d="M16.38,17l.01.03a1.55078,1.55078,0,0,1-1.1,1.9L7.78,20.95a1.56124,1.56124,0,0,1-1.91-1.1L3.05,9.33a1.56581,1.56581,0,0,1,1.1-1.91l5.96-1.59" fill="none" stroke="#323232" stroke-linecap="round" stroke-linejoin="round" stroke-width="1.5"/><rect x="10.11111" y="3" width="10.88889" height="14" rx="1.55556" stroke-width="1.5" stroke="#323232" stroke-linecap="round" stroke-linejoin="round" fill="none"/><path d="M16.22934,7.91962l1.25609,1.5973a.8516.8516,0,0,1,0,1.03868l-1.25609,1.59731a.70943.70943,0,0,1-1.13445,0L13.8388,10.5556a.8516.8516,0,0,1,0-1.03868l1.25609-1.5973A.70941.70941,0,0,1,16.22934,7.91962Z" fill="none" stroke="#323232" stroke-linecap="round" stroke-linejoin="round" stroke-width="1.5"/></svg>