<?xml version="1.0" encoding="utf-8"?>
<!-- Generator: Adobe Illustrator 24.0.2, SVG Export Plug-In . SVG Version: 6.00 Build 0)  -->
<svg version="1.1" id="Layer_3" xmlns="http://www.w3.org/2000/svg" xmlns:xlink="http://www.w3.org/1999/xlink" x="0px" y="0px"
	 width="24px" height="24px" viewBox="0 0 24 24" enable-background="new 0 0 24 24" xml:space="preserve">
<g>
	<g>
		<path fill="none" stroke="#323232" stroke-width="1.5" stroke-linecap="round" stroke-linejoin="round" d="M21,19
			c-1.105,0-2,0.895-2,2"/>
		<path fill="none" stroke="#323232" stroke-width="1.5" stroke-linecap="round" stroke-linejoin="round" d="M21,16
			c-2.761,0-5,2.239-5,5"/>
		<path fill="none" stroke="#323232" stroke-width="1.5" stroke-linecap="round" stroke-linejoin="round" d="M10.125,9h3.75"/>
		<polyline fill="none" stroke="#323232" stroke-width="1.5" stroke-linecap="round" stroke-linejoin="round" points="8,21 8,13 
			16,13 		"/>
		
			<line fill="none" stroke="#323232" stroke-width="1.5" stroke-linecap="round" stroke-linejoin="round" x1="8" y1="17.158" x2="14" y2="17.158"/>
		<g>
			<path fill="none" stroke="#323232" stroke-width="1.5" stroke-linecap="round" stroke-linejoin="round" d="M21,12v-1.333
				c0-0.926-0.427-1.8-1.158-2.368l-6-4.667c-1.084-0.843-2.601-0.843-3.684,0l-6,4.667C3.427,8.867,3,9.741,3,10.667V18
				c0,1.657,1.343,3,3,3h6"/>
		</g>
	</g>
	<rect id="_Transparent_Rectangle__47_" x="0" fill="none" width="24" height="24"/>
</g>
</svg>
