<svg id="Layer_3" data-name="Layer 3" xmlns="http://www.w3.org/2000/svg" viewBox="0 0 24 24"><title>gift-circle</title><path d="M24,0V24H0V0Z" fill="none"/><path d="M15.25,16H8.75a1,1,0,0,1-1-1V11.5a1,1,0,0,1,1-1h6.5a1,1,0,0,1,1,1V15A1,1,0,0,1,15.25,16Z" fill="none" stroke="#323232" stroke-linecap="round" stroke-linejoin="round" stroke-width="1.5"/><path d="M12,10.5V16" fill="none" stroke="#323232" stroke-linecap="round" stroke-linejoin="round" stroke-width="1.5"/><path d="M12.069,10.5a3.705,3.705,0,0,0,2.518-.972,1.524,1.524,0,0,0,0-2.095,1.385,1.385,0,0,0-2.013,0C11.723,8.32,12.069,10.5,12.069,10.5Z" fill="none" stroke="#323232" stroke-linecap="round" stroke-linejoin="round" stroke-width="1.5"/><path d="M11.931,10.5a3.705,3.705,0,0,1-2.518-.972,1.524,1.524,0,0,1,0-2.095,1.384,1.384,0,0,1,2.013,0C12.277,8.32,11.931,10.5,11.931,10.5Z" fill="none" stroke="#323232" stroke-linecap="round" stroke-linejoin="round" stroke-width="1.5"/><circle cx="12" cy="12" r="9" fill="none" stroke="#323232" stroke-linecap="round" stroke-linejoin="round" stroke-width="1.5"/></svg>