<?xml version="1.0" encoding="utf-8"?>
<!-- Generator: Adobe Illustrator 24.0.2, SVG Export Plug-In . SVG Version: 6.00 Build 0)  -->
<svg version="1.1" id="Layer_1" xmlns="http://www.w3.org/2000/svg" xmlns:xlink="http://www.w3.org/1999/xlink" x="0px" y="0px"
	 width="24px" height="24px" viewBox="0 0 24 24" enable-background="new 0 0 24 24" xml:space="preserve">
<g>
	<path fill="none" d="M24,0v24H0V0H24z"/>
	<g>
		<path fill="none" stroke="#323232" stroke-width="1.5" stroke-linecap="round" stroke-linejoin="round" d="M15.375,16.5h-6.75
			c-0.552,0-1-0.448-1-1V12c0-0.552,0.448-1,1-1h6.749c0.552,0,1,0.448,1,1v3.5C16.374,16.052,15.926,16.5,15.375,16.5z"/>
		<path fill="none" stroke="#323232" stroke-width="1.5" stroke-linecap="round" stroke-linejoin="round" d="M12,11v5.5"/>
		<g>
			<path fill="none" stroke="#323232" stroke-width="1.5" stroke-linecap="round" stroke-linejoin="round" d="M17,21H7
				c-2.209,0-4-1.791-4-4V7c0-2.209,1.791-4,4-4h10c2.209,0,4,1.791,4,4v10C21,19.209,19.209,21,17,21z"/>
		</g>
		<g>
			<path fill="none" stroke="#323232" stroke-width="1.5" stroke-linecap="round" stroke-linejoin="round" d="M12.069,11
				c0.575,0,1.763-0.186,2.518-0.972c0.556-0.578,0.556-1.516,0-2.095c-0.556-0.578-1.457-0.578-2.013,0
				C11.723,8.819,12.069,11,12.069,11z"/>
			<path fill="none" stroke="#323232" stroke-width="1.5" stroke-linecap="round" stroke-linejoin="round" d="M11.931,11
				c-0.575,0-1.763-0.186-2.518-0.972c-0.556-0.578-0.556-1.516,0-2.095s1.457-0.578,2.013,0C12.277,8.819,11.931,11,11.931,11z"/>
		</g>
	</g>
</g>
</svg>
