<?xml version="1.0" encoding="utf-8"?>
<!-- Generator: Adobe Illustrator 24.0.2, SVG Export Plug-In . SVG Version: 6.00 Build 0)  -->
<svg version="1.1" id="Layer_1" xmlns="http://www.w3.org/2000/svg" xmlns:xlink="http://www.w3.org/1999/xlink" x="0px" y="0px"
	 width="24px" height="24px" viewBox="0 0 24 24" style="enable-background:new 0 0 24 24;" xml:space="preserve">
<style type="text/css">
	.st0{fill:none;stroke:#323232;stroke-width:1.5;stroke-linecap:round;stroke-linejoin:round;}
	.st1{fill:none;}
</style>
<g>
	<path class="st0" d="M5.4,5.9C4,7.4,3,9.5,3,12.2c0,2,0.7,3.9,1.8,5.4C6.1,19.3,8,20.3,9,20.7V20c0,0,0-1.6,0.9-3
		c-2-0.1-3.6-2-3.6-4.2c0-0.8,0.3-1.5,0.8-2.1l0.1-1.9c0-0.5,0.5-0.8,1-0.7l2.1,0.8c0.6-0.1,1.2-0.2,1.9-0.2c0.7,0,1.3,0.1,1.9,0.2
		L15.9,8c0.5-0.2,1,0.2,1,0.7l0.1,1.9c0.5,0.6,0.8,1.4,0.8,2.1c0,2.2-1.6,4-3.6,4.2c0.9,1.4,0.9,3,0.9,3v0.7c1-0.4,2.9-1.4,4.2-3.1
		c1.1-1.4,1.8-3.4,1.8-5.4c0-2.7-1-4.8-2.4-6.3C16.8,3.9,14.2,3,12,3S7.2,3.9,5.4,5.9z"/>
	<path class="st1" d="M0,0h24v24H0V0z"/>
</g>
</svg>
