<svg id="Layer_3" data-name="Layer 3" xmlns="http://www.w3.org/2000/svg" viewBox="0 0 24 24"><title>gitlab-square</title><path d="M6.678,10.765,8,6.8a.252.252,0,0,1,.475,0L9.8,10.765l2.2,6.6L6.206,13.264a.48.48,0,0,1-.182-.544Z" fill="none" stroke="#323232" stroke-linecap="round" stroke-linejoin="round" stroke-width="1.5"/><path d="M17.322,10.765,16,6.8a.252.252,0,0,0-.475,0L14.2,10.765l-2.2,6.6,5.794-4.105a.48.48,0,0,0,.182-.544Z" fill="none" stroke="#323232" stroke-linecap="round" stroke-linejoin="round" stroke-width="1.5"/><rect x="3" y="3" width="18" height="18" rx="5" stroke-width="1.5" stroke="#323232" stroke-linecap="round" stroke-linejoin="round" fill="none"/><path d="M9.742,10.593h4.516" fill="none" stroke="#323232" stroke-linecap="round" stroke-linejoin="round" stroke-width="1.5"/><path d="M0,0H24V24H0Z" fill="none"/></svg>