<svg id="Layer_3" data-name="Layer 3" xmlns="http://www.w3.org/2000/svg" viewBox="0 0 24 24"><title>glasses</title><rect width="24" height="24" fill="none"/><path d="M10.5,14A7.53127,7.53127,0,0,0,3,14" fill="none" stroke="#323232" stroke-linecap="round" stroke-linejoin="round" stroke-width="1.5"/><path d="M8,5.40216l-.89623-.29875A2,2,0,0,0,4.51894,6.56692l-1.42369,6.4066A4.00013,4.00013,0,0,0,3,13.84125V16a3,3,0,0,0,3,3H7.285a3,3,0,0,0,2.98511-2.70149L10.5,14" fill="none" stroke="#323232" stroke-linecap="round" stroke-linejoin="round" stroke-width="1.5"/><path d="M16,5.40216l.89623-.29875a2,2,0,0,1,2.58483,1.46351l1.42369,6.4066A4.00013,4.00013,0,0,1,21,13.84125V16a3,3,0,0,1-3,3H16.715a3,3,0,0,1-2.98511-2.70149L13.5,14" fill="none" stroke="#323232" stroke-linecap="round" stroke-linejoin="round" stroke-width="1.5"/><path d="M10.5,14a2.5,2.5,0,0,1,3,0" fill="none" stroke="#323232" stroke-linecap="round" stroke-linejoin="round" stroke-width="1.5"/><path d="M21,14a7.53127,7.53127,0,0,0-7.5,0" fill="none" stroke="#323232" stroke-linecap="round" stroke-linejoin="round" stroke-width="1.5"/></svg>