<?xml version="1.0" encoding="utf-8"?>
<!-- Generator: Adobe Illustrator 24.0.2, SVG Export Plug-In . SVG Version: 6.00 Build 0)  -->
<svg version="1.1" id="Layer_3" xmlns="http://www.w3.org/2000/svg" xmlns:xlink="http://www.w3.org/1999/xlink" x="0px" y="0px"
	 width="24px" height="24px" viewBox="0 0 24 24" enable-background="new 0 0 24 24" xml:space="preserve">
<g>
	<g>
		
			<path fill-rule="evenodd" clip-rule="evenodd" fill="none" stroke="#323232" stroke-width="1.5" stroke-linecap="round" stroke-linejoin="round" stroke-miterlimit="10" d="
			M11,21c-4.971,0-9-4.029-9-9s4.029-9,9-9s9,4.029,9,9"/>
		
			<line fill="none" stroke="#323232" stroke-width="1.5" stroke-linecap="round" stroke-linejoin="round" stroke-miterlimit="10" x1="2.513" y1="9" x2="19.486" y2="9"/>
		
			<line fill="none" stroke="#323232" stroke-width="1.5" stroke-linecap="round" stroke-linejoin="round" stroke-miterlimit="10" x1="2.514" y1="15" x2="12" y2="15"/>
		
			<path fill="none" stroke="#323232" stroke-width="1.5" stroke-linecap="round" stroke-linejoin="round" stroke-miterlimit="10" d="
			M15,12c0-2.764-0.723-5.528-2.167-7.94c-0.847-1.413-2.819-1.413-3.665,0c-2.89,4.825-2.89,11.056,0,15.881
			c0.423,0.706,1.128,1.06,1.833,1.06"/>
		<path fill="none" stroke="#323232" stroke-width="1.5" stroke-linecap="round" stroke-linejoin="round" d="M21.999,20v-3
			c0.001-1.105-1.567-2-3.499-2s-3.499,0.896-3.5,2v3c0,1.104,1.566,2,3.499,2S21.999,21.105,21.999,20z"/>
		<path fill="none" stroke="#323232" stroke-width="1.5" stroke-linecap="round" stroke-linejoin="round" d="M15,17
			c0,1.105,1.567,2,3.5,2s3.5-0.895,3.5-2"/>
	</g>
	<rect id="_Transparent_Rectangle__40_" fill="none" width="24" height="24"/>
</g>
</svg>
