<?xml version="1.0" encoding="utf-8"?>
<!-- Generator: Adobe Illustrator 24.0.2, SVG Export Plug-In . SVG Version: 6.00 Build 0)  -->
<svg version="1.1" id="Layer_3" xmlns="http://www.w3.org/2000/svg" xmlns:xlink="http://www.w3.org/1999/xlink" x="0px" y="0px"
	 width="24px" height="24px" viewBox="0 0 24 24" enable-background="new 0 0 24 24" xml:space="preserve">
<g>
	<g>
		
			<path fill-rule="evenodd" clip-rule="evenodd" fill="none" stroke="#323232" stroke-width="1.5" stroke-linecap="round" stroke-linejoin="round" stroke-miterlimit="10" d="
			M12,21c-4.971,0-9-4.029-9-9s4.029-9,9-9s9,4.029,9,9"/>
		
			<line fill="none" stroke="#323232" stroke-width="1.5" stroke-linecap="round" stroke-linejoin="round" stroke-miterlimit="10" x1="3.513" y1="9" x2="20.487" y2="9"/>
		
			<line fill="none" stroke="#323232" stroke-width="1.5" stroke-linecap="round" stroke-linejoin="round" stroke-miterlimit="10" x1="3.514" y1="15" x2="12" y2="15"/>
		<g>
			<g>
				<path fill="none" stroke="#323232" stroke-width="1.5" stroke-linecap="round" stroke-linejoin="round" d="M22,22l-1.863-1.863"
					/>
				<path fill="none" stroke="#323232" stroke-width="1.5" stroke-linecap="round" stroke-linejoin="round" d="M18,15
					c1.657,0,3,1.343,3,3c0,1.657-1.343,3-3,3s-3-1.343-3-3S16.343,15,18,15"/>
			</g>
		</g>
		
			<path fill="none" stroke="#323232" stroke-width="1.5" stroke-linecap="round" stroke-linejoin="round" stroke-miterlimit="10" d="
			M16,12c0-2.764-0.723-5.528-2.167-7.94c-0.847-1.413-2.819-1.413-3.665,0c-2.89,4.825-2.89,11.056,0,15.881
			c0.423,0.706,1.128,1.06,1.833,1.06"/>
	</g>
	<rect id="_Transparent_Rectangle__45_" fill="none" width="24" height="24"/>
</g>
</svg>
