<?xml version="1.0" encoding="utf-8"?>
<!-- Generator: Adobe Illustrator 24.0.2, SVG Export Plug-In . SVG Version: 6.00 Build 0)  -->
<svg version="1.1" id="Layer_3" xmlns="http://www.w3.org/2000/svg" xmlns:xlink="http://www.w3.org/1999/xlink" x="0px" y="0px"
	 width="24px" height="24px" viewBox="0 0 24 24" enable-background="new 0 0 24 24" xml:space="preserve">
<g>
	<g>
		
			<path fill-rule="evenodd" clip-rule="evenodd" fill="none" stroke="#323232" stroke-width="1.5" stroke-linecap="round" stroke-linejoin="round" stroke-miterlimit="10" d="
			M11,21c-4.971,0-9-4.029-9-9s4.029-9,9-9s9,4.029,9,9"/>
		
			<line fill="none" stroke="#323232" stroke-width="1.5" stroke-linecap="round" stroke-linejoin="round" stroke-miterlimit="10" x1="2.513" y1="9" x2="19" y2="9"/>
		<g>
			<path fill="none" stroke="#323232" stroke-width="1.5" stroke-linecap="round" stroke-linejoin="round" d="M20,22h-4
				c-1.105,0-2-0.895-2-2v0c0-1.105,0.895-2,2-2h4c1.105,0,2,0.895,2,2v0C22,21.105,21.105,22,20,22z"/>
		</g>
		
			<path fill="none" stroke="#323232" stroke-width="1.5" stroke-linecap="round" stroke-linejoin="round" stroke-miterlimit="10" d="
			M15,12c0-2.764-0.723-5.528-2.167-7.94c-0.847-1.413-2.819-1.413-3.665,0c-2.89,4.825-2.89,11.056,0,15.881
			c0.423,0.706,1.128,1.06,1.833,1.06"/>
		<path fill="none" stroke="#323232" stroke-width="1.5" stroke-linecap="round" stroke-linejoin="round" d="M14.007,19.834
			l0.236-2.991c0.082-1.04,0.95-1.843,1.994-1.843h3.527c1.044,0,1.912,0.802,1.994,1.843l0.236,2.991"/>
		
			<line fill="none" stroke="#323232" stroke-width="1.5" stroke-linecap="round" stroke-linejoin="round" stroke-miterlimit="10" x1="2.514" y1="15" x2="12" y2="15"/>
	</g>
	<rect id="_Transparent_Rectangle__26_" fill="none" width="24" height="24"/>
</g>
</svg>
