<?xml version="1.0" encoding="utf-8"?>
<!-- Generator: Adobe Illustrator 24.0.2, SVG Export Plug-In . SVG Version: 6.00 Build 0)  -->
<svg version="1.1" id="Layer_3" xmlns="http://www.w3.org/2000/svg" xmlns:xlink="http://www.w3.org/1999/xlink" x="0px" y="0px"
	 width="24px" height="24px" viewBox="0 0 24 24" enable-background="new 0 0 24 24" xml:space="preserve">
<g>
	<g>
		
			<path fill-rule="evenodd" clip-rule="evenodd" fill="none" stroke="#323232" stroke-width="1.5" stroke-linecap="round" stroke-linejoin="round" stroke-miterlimit="10" d="
			M12,21c-4.971,0-9-4.029-9-9s4.029-9,9-9s9,4.029,9,9"/>
		
			<line fill="none" stroke="#323232" stroke-width="1.5" stroke-linecap="round" stroke-linejoin="round" stroke-miterlimit="10" x1="3.513" y1="9" x2="20.487" y2="9"/>
		
			<line fill="none" stroke="#323232" stroke-width="1.5" stroke-linecap="round" stroke-linejoin="round" stroke-miterlimit="10" x1="3.514" y1="15" x2="14" y2="15"/>
		
			<path fill="none" stroke="#323232" stroke-width="1.5" stroke-linecap="round" stroke-linejoin="round" stroke-miterlimit="10" d="
			M16,12c0-2.764-0.723-5.528-2.167-7.94c-0.847-1.413-2.819-1.413-3.665,0c-2.89,4.825-2.89,11.056,0,15.881
			C10.591,20.647,11.295,21,12,21"/>
		
			<path fill="none" stroke="#323232" stroke-width="1.5" stroke-linecap="round" stroke-linejoin="round" stroke-miterlimit="10" d="
			M20.775,20.55c-0.124,0-0.225,0.102-0.225,0.225c0,0.123,0.101,0.225,0.225,0.225c0.123,0,0.225-0.101,0.224-0.225
			C21,20.651,20.9,20.55,20.775,20.55"/>
		
			<path fill="none" stroke="#323232" stroke-width="1.5" stroke-linecap="round" stroke-linejoin="round" stroke-miterlimit="10" d="
			M21,18c-1.756,0.039-2.961,1.244-3,3"/>
		
			<path fill="none" stroke="#323232" stroke-width="1.5" stroke-linecap="round" stroke-linejoin="round" stroke-miterlimit="10" d="
			M15,21c0.009-0.759,0.137-1.47,0.367-2.121c0.588-1.665,1.847-2.924,3.513-3.513C19.53,15.137,20.241,15.009,21,15"/>
	</g>
	<rect id="_Transparent_Rectangle__46_" fill="none" width="24" height="24"/>
</g>
</svg>
