<svg id="Layer_3" data-name="Layer 3" xmlns="http://www.w3.org/2000/svg" viewBox="0 0 24 24"><path d="M17.9308,21.88075l-2.71513-1.5515a.90505.90505,0,0,1-.456-.7858v-3.0869a.90505.90505,0,0,1,.456-.7858l2.71513-1.5515a.905.905,0,0,1,.898,0l2.71513,1.5515a.90505.90505,0,0,1,.456.7858v3.0869a.90505.90505,0,0,1-.456.7858l-2.71513,1.5515A.905.905,0,0,1,17.9308,21.88075Z" fill="none" stroke="#323232" stroke-linecap="round" stroke-linejoin="round" stroke-width="1.5"/><line x1="14.88241" y1="16.0015" x2="18.37983" y2="18" fill="none" stroke="#323232" stroke-linecap="round" stroke-linejoin="round" stroke-width="1.5"/><line x1="21.87724" y1="16.0015" x2="18.37983" y2="18" fill="none" stroke="#323232" stroke-linecap="round" stroke-linejoin="round" stroke-width="1.5"/><line x1="18.37983" y1="18" x2="18.37983" y2="21.99853" fill="none" stroke="#323232" stroke-linecap="round" stroke-linejoin="round" stroke-width="1.5"/><path d="M12,20.999a8.9995,8.9995,0,1,1,9-8.9995" fill="none" stroke="#323232" stroke-linecap="round" stroke-linejoin="round" stroke-width="1.5"/><line x1="3.513" y1="8.99967" x2="20.42" y2="8.99967" fill="none" stroke="#323232" stroke-linecap="round" stroke-linejoin="round" stroke-width="1.5"/><line x1="3.514" y1="14.99933" x2="12" y2="14.99933" fill="none" stroke="#323232" stroke-linecap="round" stroke-linejoin="round" stroke-width="1.5"/><path d="M16,11.9995a15.47468,15.47468,0,0,0-2.167-7.93956,2.1143,2.1143,0,0,0-3.665,0,15.6269,15.6269,0,0,0,0,15.88012A2.125,2.125,0,0,0,12.001,21" fill="none" stroke="#323232" stroke-linecap="round" stroke-linejoin="round" stroke-width="1.5"/><rect id="_Transparent_Rectangle_" data-name=" Transparent Rectangle " width="24" height="24" fill="none"/></svg>