<?xml version="1.0" encoding="utf-8"?>
<!-- Generator: Adobe Illustrator 24.0.2, SVG Export Plug-In . SVG Version: 6.00 Build 0)  -->
<svg version="1.1" id="Layer_1" xmlns="http://www.w3.org/2000/svg" xmlns:xlink="http://www.w3.org/1999/xlink" x="0px" y="0px"
	 width="24px" height="24px" viewBox="0 0 24 24" enable-background="new 0 0 24 24" xml:space="preserve">
<g>
	<g>
		
			<path fill="none" stroke="#323232" stroke-width="1.5" stroke-linecap="round" stroke-linejoin="round" stroke-miterlimit="10" d="
			M12,21c-4.971,0-9-4.029-9-9s4.029-9,9-9s9,4.029,9,9"/>
		
			<line fill="none" stroke="#323232" stroke-width="1.5" stroke-linecap="round" stroke-linejoin="round" stroke-miterlimit="10" x1="3.513" y1="9" x2="20.381" y2="9"/>
		
			<line fill="none" stroke="#323232" stroke-width="1.5" stroke-linecap="round" stroke-linejoin="round" stroke-miterlimit="10" x1="3.514" y1="15" x2="12" y2="15"/>
		
			<path fill="none" stroke="#323232" stroke-width="1.5" stroke-linecap="round" stroke-linejoin="round" stroke-miterlimit="10" d="
			M16,12c0-2.764-0.723-5.528-2.167-7.94c-0.847-1.413-2.819-1.413-3.665,0c-2.89,4.825-2.89,11.056,0,15.881
			c0.423,0.706,1.128,1.06,1.833,1.06"/>
		<path fill="none" stroke="#323232" stroke-width="1.5" stroke-linecap="round" stroke-linejoin="round" d="M19.244,17.379
			l-1.556,1.556l-0.933-0.934"/>
		<path fill="none" stroke="#323232" stroke-width="1.5" stroke-linecap="round" stroke-linejoin="round" d="M14.22,18.652
			l0.531,0.695l0.115,0.865c0.064,0.48,0.441,0.858,0.921,0.922l0.867,0.116l0.694,0.53c0.384,0.294,0.918,0.294,1.302,0
			l0.695-0.531h-0.001l0.866-0.115c0.48-0.064,0.858-0.441,0.922-0.921l0.116-0.867c0,0.001,0.269-0.351,0.531-0.694
			c0.294-0.384,0.294-0.918,0-1.302l-0.531-0.695l-0.115-0.865c-0.064-0.48-0.441-0.858-0.921-0.922l-0.868-0.115l-0.694-0.53
			c-0.384-0.294-0.918-0.294-1.302,0l-0.695,0.53h0.001l-0.866,0.114c-0.48,0.064-0.858,0.441-0.922,0.921l-0.116,0.867
			c0-0.001-0.269,0.351-0.531,0.694C13.927,17.734,13.927,18.267,14.22,18.652z"/>
	</g>
	<rect id="_Transparent_Rectangle__31_" fill="none" width="24" height="24"/>
</g>
</svg>
