<svg id="Layer_3" data-name="Layer 3" xmlns="http://www.w3.org/2000/svg" viewBox="0 0 24 24"><title>globe-package-shipping</title><path d="M12,21a9,9,0,1,1,9-9" fill="none" stroke="#323232" stroke-linecap="round" stroke-linejoin="round" stroke-width="1.5"/><line x1="3.513" y1="9" x2="20.42" y2="9" fill="none" stroke="#323232" stroke-linecap="round" stroke-linejoin="round" stroke-width="1.5"/><line x1="3.514" y1="15" x2="12" y2="15" fill="none" stroke="#323232" stroke-linecap="round" stroke-linejoin="round" stroke-width="1.5"/><path d="M16,12a15.476,15.476,0,0,0-2.167-7.94,2.114,2.114,0,0,0-3.665,0,15.629,15.629,0,0,0,0,15.881A2.125,2.125,0,0,0,12,21" fill="none" stroke="#323232" stroke-linecap="round" stroke-linejoin="round" stroke-width="1.5"/><path d="M14.787,19.629V16.873a.978.978,0,0,1,.5-.849l2.489-1.4a.973.973,0,0,1,.955,0l2.489,1.4a.976.976,0,0,1,.5.849v2.756a.977.977,0,0,1-.5.849l-2.49,1.4a.978.978,0,0,1-.955,0l-2.489-1.4A.974.974,0,0,1,14.787,19.629Z" fill="none" stroke="#323232" stroke-linecap="round" stroke-linejoin="round" stroke-width="1.5"/><path d="M18.25,18.251V22" fill="none" stroke="#323232" stroke-linecap="round" stroke-linejoin="round" stroke-width="1.5"/><path d="M14.92,16.381l3.33,1.87,3.33-1.87" fill="none" stroke="#323232" stroke-linecap="round" stroke-linejoin="round" stroke-width="1.5"/><rect id="_Transparent_Rectangle_" data-name=" Transparent Rectangle " width="24" height="24" fill="none"/></svg>