<?xml version="1.0" encoding="utf-8"?>
<!-- Generator: Adobe Illustrator 23.1.0, SVG Export Plug-In . SVG Version: 6.00 Build 0)  -->
<svg version="1.1" id="icons" xmlns="http://www.w3.org/2000/svg" xmlns:xlink="http://www.w3.org/1999/xlink" x="0px" y="0px"
	 width="24px" height="24px" viewBox="0 0 24 24" enable-background="new 0 0 24 24" xml:space="preserve">
<g>
	<rect fill="none" width="24" height="24"/>
	<g>
		<path fill="none" stroke="#323232" stroke-width="1.5" stroke-linecap="round" stroke-linejoin="round" d="M19.071,4.929
			c3.905,3.905,3.905,10.237,0,14.142c-3.905,3.905-10.237,3.905-14.142,0c-3.905-3.905-3.905-10.237,0-14.142
			C8.834,1.024,15.166,1.024,19.071,4.929"/>
		<path fill="none" stroke="#323232" stroke-width="1.5" stroke-linecap="round" stroke-linejoin="round" d="M8.367,7.489v9.023
			c0,0.657,0.709,1.07,1.28,0.745l7.939-4.511c0.578-0.328,0.578-1.162,0-1.49L9.647,6.743C9.076,6.419,8.367,6.832,8.367,7.489z"/>
		
			<line fill="none" stroke="#323232" stroke-width="1.5" stroke-linecap="round" stroke-linejoin="round" x1="8.561" y1="17.045" x2="14.803" y2="9.674"/>
		
			<line fill="none" stroke="#323232" stroke-width="1.5" stroke-linecap="round" stroke-linejoin="round" x1="8.561" y1="6.955" x2="14.804" y2="14.326"/>
	</g>
</g>
</svg>
