<svg id="Layer_3" data-name="Layer 3" xmlns="http://www.w3.org/2000/svg" viewBox="0 0 24 24"><title>government-building</title><rect width="24" height="24" fill="none"/><line x1="8" y1="14" x2="8" y2="21" fill="none" stroke="#323232" stroke-linecap="round" stroke-linejoin="round" stroke-width="1.5"/><line x1="12" y1="14" x2="12" y2="21" fill="none" stroke="#323232" stroke-linecap="round" stroke-linejoin="round" stroke-width="1.5"/><line x1="16" y1="14" x2="16" y2="21" fill="none" stroke="#323232" stroke-linecap="round" stroke-linejoin="round" stroke-width="1.5"/><line x1="22" y1="21" x2="2" y2="21" fill="none" stroke="#323232" stroke-linecap="round" stroke-linejoin="round" stroke-width="1.5"/><path d="M12,7V2.5a.5.5,0,0,1,.5-.5h3a.5.5,0,0,1,.5.5V3.918a.5.5,0,0,1-.5.5H12" fill="none" stroke="#323232" stroke-linecap="round" stroke-linejoin="round" stroke-width="1.5"/><path d="M8,10V8.414a1,1,0,0,1,.293-.707l.414-.414A1,1,0,0,1,9.414,7h5.172a1,1,0,0,1,.707.293l.414.414A1,1,0,0,1,16,8.414V10" fill="none" stroke="#323232" stroke-linecap="round" stroke-linejoin="round" stroke-width="1.5"/><line x1="4" y1="14" x2="20" y2="14" fill="none" stroke="#323232" stroke-linecap="round" stroke-linejoin="round" stroke-width="1.5"/><path d="M20,21V11.414a1,1,0,0,0-.293-.707l-.414-.414A1,1,0,0,0,18.586,10H5.414a1,1,0,0,0-.707.293l-.414.414A1,1,0,0,0,4,11.414V21" fill="none" stroke="#323232" stroke-linecap="round" stroke-linejoin="round" stroke-width="1.5"/></svg>