<svg id="Layer_3" data-name="Layer 3" xmlns="http://www.w3.org/2000/svg" viewBox="0 0 24 24"><title>graduate-hat-loading</title><path d="M0,0H24V24H0Z" fill="none"/><path d="M9.525,11.922v2.325a1.349,1.349,0,0,0,.746,1.207l.522.261a2.7,2.7,0,0,0,2.414,0l.522-.261a1.349,1.349,0,0,0,.746-1.207V11.922" fill="none" stroke="#323232" stroke-linecap="round" stroke-linejoin="round" stroke-width="1.5"/><path d="M17.924,3.992H16.091V5.825" fill="none" stroke="#323232" stroke-linecap="round" stroke-linejoin="round" stroke-width="1.5"/><path d="M12,20.556A8.551,8.551,0,0,0,16.091,4.49" fill="none" stroke="#323232" stroke-linecap="round" stroke-linejoin="round" stroke-width="1.5"/><path d="M7.909,18.175v1.833H6.076" fill="none" stroke="#323232" stroke-linecap="round" stroke-linejoin="round" stroke-width="1.5"/><path d="M7.909,19.51A8.546,8.546,0,0,1,5.95,5.95v0A8.528,8.528,0,0,1,12,3.439" fill="none" stroke="#323232" stroke-linecap="round" stroke-linejoin="round" stroke-width="1.5"/><path d="M7.913,11.116,11,12.658a2.247,2.247,0,0,0,2.006,0l3.084-1.542a.747.747,0,0,0,0-1.337L13,8.237a2.241,2.241,0,0,0-2.006,0L7.913,9.779A.747.747,0,0,0,7.913,11.116Z" fill="none" stroke="#323232" stroke-linecap="round" stroke-linejoin="round" stroke-width="1.5"/><path d="M16.5,10.447v1.8" fill="none" stroke="#323232" stroke-linecap="round" stroke-linejoin="round" stroke-width="1.5"/></svg>