<svg id="Layer_3" data-name="Layer 3" xmlns="http://www.w3.org/2000/svg" viewBox="0 0 24 24"><title>graduate-hat-sqaure</title><path d="M10.662,7.346l-3.6,2a1.1,1.1,0,0,0,0,1.926l3.6,2a2.762,2.762,0,0,0,2.676,0l3.6-2a1.1,1.1,0,0,0,0-1.926l-3.6-2A2.762,2.762,0,0,0,10.662,7.346Z" fill="none" stroke="#323232" stroke-linecap="round" stroke-linejoin="round" stroke-width="1.5"/><path d="M17.5,10.307V13" fill="none" stroke="#323232" stroke-linecap="round" stroke-linejoin="round" stroke-width="1.5"/><path d="M8.5,12.066v2.385a1.649,1.649,0,0,0,.736,1.374l.936.623a3.3,3.3,0,0,0,3.655,0l.936-.623a1.649,1.649,0,0,0,.737-1.374V12.067" fill="none" stroke="#323232" stroke-linecap="round" stroke-linejoin="round" stroke-width="1.5"/><rect x="3" y="3" width="18" height="18" rx="5" stroke-width="1.5" stroke="#323232" stroke-linecap="round" stroke-linejoin="round" fill="none"/><path d="M0,0H24V24H0Z" fill="none"/></svg>