<svg id="Layer_3" data-name="Layer 3" xmlns="http://www.w3.org/2000/svg" viewBox="0 0 24 24"><title>graphic-video-card</title><circle cx="9" cy="12" r="3" fill="none" stroke="#323232" stroke-linecap="round" stroke-linejoin="round" stroke-width="1.5"/><path d="M3,6H20a2,2,0,0,1,2,2v8a2,2,0,0,1-2,2H3a0,0,0,0,1,0,0V6A0,0,0,0,1,3,6Z" fill="none" stroke="#323232" stroke-linecap="round" stroke-linejoin="round" stroke-width="1.5"/><path d="M7,18H19a0,0,0,0,1,0,0v2a1,1,0,0,1-1,1H8a1,1,0,0,1-1-1V18A0,0,0,0,1,7,18Z" fill="none" stroke="#323232" stroke-linecap="round" stroke-linejoin="round" stroke-width="1.5"/><path d="M3,21V4A1,1,0,0,0,2,3H1" fill="none" stroke="#323232" stroke-linecap="round" stroke-linejoin="round" stroke-width="1.5"/><line x1="19.00005" y1="13.50005" x2="15" y2="13.50005" fill="none" stroke="#323232" stroke-linecap="round" stroke-linejoin="round" stroke-width="1.5"/><line x1="19.00005" y1="10.50005" x2="15" y2="10.50005" fill="none" stroke="#323232" stroke-linecap="round" stroke-linejoin="round" stroke-width="1.5"/><path d="M0,0H24V24H0Z" fill="none"/></svg>