<svg id="Layer_3" data-name="Layer 3" xmlns="http://www.w3.org/2000/svg" viewBox="0 0 24 24"><title>graphic-tablet-draw-pen</title><path d="M11.894,11.5l.529,2.117a4,4,0,0,0,1.052,1.858l4.9,4.9a2.122,2.122,0,0,0,3,0h0a2.122,2.122,0,0,0,0-3l-4.9-4.9a4,4,0,0,0-1.858-1.052L12.5,10.894A.5.5,0,0,0,11.894,11.5Z" fill="none" stroke="#323232" stroke-linecap="round" stroke-linejoin="round" stroke-width="1.5"/><line x1="8" y1="3" x2="8" y2="21" fill="none" stroke="#323232" stroke-linecap="round" stroke-linejoin="round" stroke-width="1.5"/><path d="M21,12V6a3,3,0,0,0-3-3H6A3,3,0,0,0,3,6V18a3,3,0,0,0,3,3h8" fill="none" stroke="#323232" stroke-linecap="round" stroke-linejoin="round" stroke-width="1.5"/><rect width="24" height="24" fill="none"/></svg>