<svg id="Layer_3" data-name="Layer 3" xmlns="http://www.w3.org/2000/svg" viewBox="0 0 24 24"><title>graph-analitycs-square</title><path d="M10.333,14.278v-5a.556.556,0,0,1,.556-.556h2.778v5.556" fill="none" stroke="#323232" stroke-linecap="round" stroke-linejoin="round" stroke-width="1.5"/><path d="M13.667,8.722V7.056a.556.556,0,0,1,.555-.556h2.222A.556.556,0,0,1,17,7.056v6.666a.556.556,0,0,1-.556.556H7.556A.556.556,0,0,1,7,13.722V11.5a.556.556,0,0,1,.556-.556h2.777" fill="none" stroke="#323232" stroke-linecap="round" stroke-linejoin="round" stroke-width="1.5"/><line x1="7" y1="17" x2="17" y2="17" fill="none" stroke="#323232" stroke-linecap="round" stroke-linejoin="round" stroke-width="1.5"/><rect x="3" y="3" width="18" height="18" rx="5" stroke-width="1.5" stroke="#323232" stroke-linecap="round" stroke-linejoin="round" fill="none"/><path d="M0,0H24V24H0Z" fill="none"/></svg>