<?xml version="1.0" encoding="utf-8"?>
<!-- Generator: Adobe Illustrator 24.0.2, SVG Export Plug-In . SVG Version: 6.00 Build 0)  -->
<svg version="1.1" id="Layer_3" xmlns="http://www.w3.org/2000/svg" xmlns:xlink="http://www.w3.org/1999/xlink" x="0px" y="0px"
	 width="24px" height="24px" viewBox="0 0 24 24" enable-background="new 0 0 24 24" xml:space="preserve">
<g>
	<path fill="none" d="M0,0h24v24H0V0z"/>
	<g>
		<path fill="none" stroke="#323232" stroke-width="1.5" stroke-linecap="round" stroke-linejoin="round" d="M10.333,17v-5.556
			c0-0.613,0.498-1.111,1.111-1.111h2.222"/>
		<g>
			<path fill="none" stroke="#323232" stroke-width="1.5" stroke-linecap="round" stroke-linejoin="round" d="M18,21H6
				c-1.657,0-3-1.343-3-3V6c0-1.657,1.343-3,3-3h12c1.657,0,3,1.343,3,3v12C21,19.657,19.657,21,18,21z"/>
		</g>
		<path fill="none" stroke="#323232" stroke-width="1.5" stroke-linecap="round" stroke-linejoin="round" d="M13.667,17V8.111
			C13.667,7.498,14.164,7,14.778,7h1.111C16.502,7,17,7.498,17,8.111v7.778C17,16.502,16.502,17,15.889,17H8.111
			C7.498,17,7,16.502,7,15.889v-1.111c0-0.613,0.498-1.111,1.111-1.111h2.222"/>
	</g>
</g>
</svg>
