<svg id="Layer_3" data-name="Layer 3" xmlns="http://www.w3.org/2000/svg" viewBox="0 0 24 24"><path d="M9,9a3,3,0,0,1,0,6" fill="none" stroke="#323232" stroke-linecap="round" stroke-linejoin="round" stroke-width="1.5"/><path d="M3,6H18a4,4,0,0,1,4,4v4a4,4,0,0,1-4,4H3a0,0,0,0,1,0,0V6A0,0,0,0,1,3,6Z" fill="none" stroke="#323232" stroke-linecap="round" stroke-linejoin="round" stroke-width="1.5"/><path d="M19,17.87357V20a1,1,0,0,1-1,1H8a1,1,0,0,1-1-1V18" fill="none" stroke="#323232" stroke-linecap="round" stroke-linejoin="round" stroke-width="1.5"/><path d="M3,21V4A1,1,0,0,0,2,3H1" fill="none" stroke="#323232" stroke-linecap="round" stroke-linejoin="round" stroke-width="1.5"/><path d="M9,9h8.00005a2,2,0,0,1,2,2v2a2,2,0,0,1-2,2H9A3,3,0,0,1,9,9Z" fill="none" stroke="#323232" stroke-linecap="round" stroke-linejoin="round" stroke-width="1.5"/><path d="M0,0H24V24H0Z" fill="none"/></svg>