<?xml version="1.0" encoding="utf-8"?>

<!-- Generator: Adobe Illustrator 23.1.0, SVG Export Plug-In . SVG Version: 6.00 Build 0)  --><svg xmlns="http://www.w3.org/2000/svg" xmlns:xlink="http://www.w3.org/1999/xlink" version="1.1" id="Layer" x="0px" y="0px" width="24px" height="24px" viewBox="0 0 24 24" enable-background="new 0 0 24 24" xml:space="preserve" class="mi">
<g>
	<g>
		<path fill="none" stroke="#323232" stroke-width="1.5" stroke-linecap="round" stroke-linejoin="round" d="M8,10H5    c-1.105,0-2-0.895-2-2V5c0-1.105,0.895-2,2-2h3c1.105,0,2,0.895,2,2v3C10,9.105,9.105,10,8,10z"/>
		<path fill="none" stroke="#323232" stroke-width="1.5" stroke-linecap="round" stroke-linejoin="round" d="M19,10h-3    c-1.105,0-2-0.895-2-2V5c0-1.105,0.895-2,2-2h3c1.105,0,2,0.895,2,2v3C21,9.105,20.105,10,19,10z"/>
		<path fill="none" stroke="#323232" stroke-width="1.5" stroke-linecap="round" stroke-linejoin="round" d="M8,21H5    c-1.105,0-2-0.895-2-2v-3c0-1.105,0.895-2,2-2h3c1.105,0,2,0.895,2,2v3C10,20.105,9.105,21,8,21z"/>
		
			<line fill="none" stroke="#323232" stroke-width="1.5" stroke-linecap="round" stroke-linejoin="round" x1="17.5" y1="15" x2="17.5" y2="20"/>
		
			<line fill="none" stroke="#323232" stroke-width="1.5" stroke-linecap="round" stroke-linejoin="round" x1="20" y1="17.5" x2="15" y2="17.5"/>
	</g>
	<rect transform="matrix(-1 -1.224647e-16 1.224647e-16 -1 24 24)" fill="none" width="24" height="24"/>
</g>
</svg>