<?xml version="1.0" encoding="UTF-8"?><svg xmlns="http://www.w3.org/2000/svg" xmlns:xlink="http://www.w3.org/1999/xlink" version="1.1" viewBox="0 0 24 24" id="Layer"><!--Generated by IJSVG (https://github.com/iconjar/IJSVG)--><g stroke-linecap="round" stroke-width="1.5" stroke="#323232" fill="none" stroke-linejoin="round"><path d="M19,21h-3c-1.105,0 -2,-0.895 -2,-2v-5c0,-1.105 0.895,-2 2,-2h3c1.105,0 2,0.895 2,2v5c0,1.105 -0.895,2 -2,2Z"/><path d="M19,9h-3c-1.105,0 -2,-0.895 -2,-2v-2c0,-1.105 0.895,-2 2,-2h3c1.105,0 2,0.895 2,2v2c0,1.105 -0.895,2 -2,2Z"/><path d="M5,3h3c1.105,0 2,0.895 2,2v5c0,1.105 -0.895,2 -2,2h-3c-1.105,0 -2,-0.895 -2,-2v-5c0,-1.105 0.895,-2 2,-2Z"/><path d="M5,15h3c1.105,0 2,0.895 2,2v2c0,1.105 -0.895,2 -2,2h-3c-1.105,0 -2,-0.895 -2,-2v-2c0,-1.105 0.895,-2 2,-2Z"/></g><path fill="none" d="M0,0h24v24h-24Z"/></svg>