<svg id="Layer_3" data-name="Layer 3" xmlns="http://www.w3.org/2000/svg" viewBox="0 0 24 24"><path d="M6,3H4A1,1,0,0,0,3,4V6A1,1,0,0,0,4,7H6A1,1,0,0,0,7,6V4A1,1,0,0,0,6,3Z" fill="none" stroke="#323232" stroke-linecap="round" stroke-linejoin="round" stroke-width="1.5"/><path d="M20,3H18a1,1,0,0,0-1,1V6a1,1,0,0,0,1,1h2a1,1,0,0,0,1-1V4A1,1,0,0,0,20,3Z" fill="none" stroke="#323232" stroke-linecap="round" stroke-linejoin="round" stroke-width="1.5"/><path d="M7,5H17" fill="none" stroke="#323232" stroke-linecap="round" stroke-linejoin="round" stroke-width="1.5"/><path d="M3,18v2a1,1,0,0,0,1,1H6a1,1,0,0,0,1-1V18a1,1,0,0,0-1-1H4A1,1,0,0,0,3,18Z" fill="none" stroke="#323232" stroke-linecap="round" stroke-linejoin="round" stroke-width="1.5"/><path d="M5,17V7" fill="none" stroke="#323232" stroke-linecap="round" stroke-linejoin="round" stroke-width="1.5"/><path d="M21,20V18a1,1,0,0,0-1-1H18a1,1,0,0,0-1,1v2a1,1,0,0,0,1,1h2A1,1,0,0,0,21,20Z" fill="none" stroke="#323232" stroke-linecap="round" stroke-linejoin="round" stroke-width="1.5"/><path d="M19,7V17" fill="none" stroke="#323232" stroke-linecap="round" stroke-linejoin="round" stroke-width="1.5"/><polygon points="11 13 9 13 9 9 13 9 13 12 15 12 15 16 11 16 11 13" fill="none" stroke="#323232" stroke-linecap="round" stroke-linejoin="round" stroke-width="1.5"/><path d="M20,17H18a1,1,0,0,0-1,1v2a1,1,0,0,0,1,1h2a1,1,0,0,0,1-1V18A1,1,0,0,0,20,17Z" fill="none" stroke="#323232" stroke-linecap="round" stroke-linejoin="round" stroke-width="1.5"/><path d="M7,19H17" fill="none" stroke="#323232" stroke-linecap="round" stroke-linejoin="round" stroke-width="1.5"/><rect width="24" height="24" fill="none"/></svg>