<?xml version="1.0" encoding="utf-8"?>
<!-- Generator: Adobe Illustrator 24.0.2, SVG Export Plug-In . SVG Version: 6.00 Build 0)  -->
<svg version="1.1" id="Layer_3" xmlns="http://www.w3.org/2000/svg" xmlns:xlink="http://www.w3.org/1999/xlink" x="0px" y="0px"
	 width="24px" height="24px" viewBox="0 0 24 24" enable-background="new 0 0 24 24" xml:space="preserve">
<g>
	<path fill="none" d="M0,0h24v24H0V0z"/>
	<g>
		<path fill="none" stroke="#323232" stroke-width="1.5" stroke-linecap="round" stroke-linejoin="round" d="M4,3h5
			c0.552,0,1,0.448,1,1v5c0,0.552-0.448,1-1,1H4c-0.552,0-1-0.448-1-1V4C3,3.448,3.448,3,4,3z"/>
		<path fill="none" stroke="#323232" stroke-width="1.5" stroke-linecap="round" stroke-linejoin="round" d="M15,3h5
			c0.552,0,1,0.448,1,1v5c0,0.552-0.448,1-1,1h-5c-0.552,0-1-0.448-1-1V4C14,3.448,14.448,3,15,3z"/>
		<polyline fill="none" stroke="#323232" stroke-width="1.5" stroke-linecap="round" stroke-linejoin="round" points="17,16 19,14 
			21,16 		"/>
		<path fill="none" stroke="#323232" stroke-width="1.5" stroke-linecap="round" stroke-linejoin="round" d="M19,14v6
			c0,0.552-0.448,1-1,1h-4"/>
		<path fill="none" stroke="#323232" stroke-width="1.5" stroke-linecap="round" stroke-linejoin="round" d="M4,14h5
			c0.552,0,1,0.448,1,1v5c0,0.552-0.448,1-1,1H4c-0.552,0-1-0.448-1-1v-5C3,14.448,3.448,14,4,14z"/>
	</g>
</g>
</svg>
