<?xml version="1.0" encoding="utf-8"?>
<!-- Generator: Adobe Illustrator 23.1.0, SVG Export Plug-In . SVG Version: 6.00 Build 0)  -->
<svg version="1.1" id="icons" xmlns="http://www.w3.org/2000/svg" xmlns:xlink="http://www.w3.org/1999/xlink" x="0px" y="0px"
	 width="24px" height="24px" viewBox="0 0 24 24" enable-background="new 0 0 24 24" xml:space="preserve">
<g>
	<path fill="none" d="M0,0h24v24H0V0z"/>
	<g>
		<path fill="none" stroke="#323232" stroke-width="1.5" stroke-linecap="round" stroke-linejoin="round" d="M19,14L19,14
			c-1.105,0-2-0.895-2-2l0,0c0-1.105,0.895-2,2-2l0,0c1.105,0,2,0.895,2,2l0,0C21,13.105,20.105,14,19,14z"/>
		<path fill="none" stroke="#323232" stroke-width="1.5" stroke-linecap="round" stroke-linejoin="round" d="M14,19L14,19
			c0,1.105-0.895,2-2,2l0,0c-1.105,0-2-0.895-2-2l0,0c0-1.105,0.895-2,2-2l0,0C13.105,17,14,17.895,14,19z"/>
		<path fill="none" stroke="#323232" stroke-width="1.5" stroke-linecap="round" stroke-linejoin="round" d="M19,21L19,21
			c-1.105,0-2-0.895-2-2l0,0c0-1.105,0.895-2,2-2l0,0c1.105,0,2,0.895,2,2l0,0C21,20.105,20.105,21,19,21z"/>
		<path fill="none" stroke="#323232" stroke-width="1.5" stroke-linecap="round" stroke-linejoin="round" d="M12,7L12,7
			c-1.105,0-2-0.895-2-2l0,0c0-1.105,0.895-2,2-2l0,0c1.105,0,2,0.895,2,2l0,0C14,6.105,13.105,7,12,7z"/>
		<path fill="none" stroke="#323232" stroke-width="1.5" stroke-linecap="round" stroke-linejoin="round" d="M17,5L17,5
			c0-1.105,0.895-2,2-2l0,0c1.105,0,2,0.895,2,2l0,0c0,1.105-0.895,2-2,2l0,0C17.895,7,17,6.105,17,5z"/>
		
			<line fill="none" stroke="#323232" stroke-width="1.5" stroke-linecap="round" stroke-linejoin="round" x1="13.414" y1="17.586" x2="17.586" y2="13.414"/>
		
			<line fill="none" stroke="#323232" stroke-width="1.5" stroke-linecap="round" stroke-linejoin="round" x1="6.414" y1="17.586" x2="10.586" y2="13.414"/>
		
			<line fill="none" stroke="#323232" stroke-width="1.5" stroke-linecap="round" stroke-linejoin="round" x1="13.414" y1="10.586" x2="17.586" y2="6.414"/>
		<path fill="none" stroke="#323232" stroke-width="1.5" stroke-linecap="round" stroke-linejoin="round" d="M10,12L10,12
			c0-1.105,0.895-2,2-2l0,0c1.105,0,2,0.895,2,2l0,0c0,1.105-0.895,2-2,2l0,0C10.895,14,10,13.105,10,12z"/>
		
			<line fill="none" stroke="#323232" stroke-width="1.5" stroke-linecap="round" stroke-linejoin="round" x1="6.414" y1="10.586" x2="10.586" y2="6.414"/>
		<path fill="none" stroke="#323232" stroke-width="1.5" stroke-linecap="round" stroke-linejoin="round" d="M5,14L5,14
			c-1.105,0-2-0.895-2-2l0,0c0-1.105,0.895-2,2-2l0,0c1.105,0,2,0.895,2,2l0,0C7,13.105,6.105,14,5,14z"/>
		<path fill="none" stroke="#323232" stroke-width="1.5" stroke-linecap="round" stroke-linejoin="round" d="M7,19L7,19
			c0,1.105-0.895,2-2,2l0,0c-1.105,0-2-0.895-2-2l0,0c0-1.105,0.895-2,2-2l0,0C6.105,17,7,17.895,7,19z"/>
		<path fill="none" stroke="#323232" stroke-width="1.5" stroke-linecap="round" stroke-linejoin="round" d="M5,7L5,7
			C3.895,7,3,6.105,3,5l0,0c0-1.105,0.895-2,2-2l0,0c1.105,0,2,0.895,2,2l0,0C7,6.105,6.105,7,5,7z"/>
	</g>
</g>
</svg>
