<?xml version="1.0" encoding="utf-8"?>
<!-- Generator: Adobe Illustrator 24.0.2, SVG Export Plug-In . SVG Version: 6.00 Build 0)  -->
<svg version="1.1" id="Layer_1" xmlns="http://www.w3.org/2000/svg" xmlns:xlink="http://www.w3.org/1999/xlink" x="0px" y="0px"
	 width="24px" height="24px" viewBox="0 0 24 24" style="enable-background:new 0 0 24 24;" xml:space="preserve">
<style type="text/css">
	.st0{fill:none;stroke:#323232;stroke-width:1.5;stroke-linecap:round;stroke-linejoin:round;}
	.st1{fill:none;}
</style>
<g>
	<path class="st0" d="M2,19L2,19c0-2.2,1.8-4,4-4h4c2.2,0,4,1.8,4,4l0,0"/>
	<path class="st0" d="M10.5,6c1.4,1.4,1.4,3.6,0,4.9s-3.6,1.4-4.9,0S4.2,7.4,5.5,6S9.1,4.7,10.5,6"/>
	<path class="st0" d="M16,14h3c1.7,0,3,1.3,3,3l0,0"/>
	<path class="st0" d="M19.3,6.7c1,1,1,2.6,0,3.5s-2.6,1-3.5,0s-1-2.6,0-3.5C16.7,5.8,18.3,5.8,19.3,6.7"/>
</g>
<path class="st1" d="M0,0h24v24H0V0z"/>
</svg>
