<?xml version="1.0" encoding="utf-8"?>
<!-- Generator: Adobe Illustrator 24.0.2, SVG Export Plug-In . SVG Version: 6.00 Build 0)  -->
<svg version="1.1" id="Layer_3" xmlns="http://www.w3.org/2000/svg" xmlns:xlink="http://www.w3.org/1999/xlink" x="0px" y="0px"
	 width="24px" height="24px" viewBox="0 0 24 24" enable-background="new 0 0 24 24" xml:space="preserve">
<g>
	<path fill="none" d="M0,0h24v24H0V0z"/>
	<g>
		<path fill="none" stroke="#323232" stroke-width="1.5" stroke-linecap="round" stroke-linejoin="round" d="M10.333,8.667
			L10.333,8.667C10.333,7.747,11.079,7,12,7l0,0c0.92,0,1.667,0.746,1.667,1.667l0,0c0,0.92-0.746,1.667-1.667,1.667l0,0
			C11.079,10.333,10.333,9.587,10.333,8.667z"/>
		<path fill="none" stroke="#323232" stroke-width="1.5" stroke-linecap="round" stroke-linejoin="round" d="M6.293,15.333
			L6.293,15.333c0-0.92,0.746-1.667,1.667-1.667l0,0c0.92,0,1.667,0.746,1.667,1.667l0,0C9.626,16.253,8.881,17,7.96,17l0,0
			C7.039,17,6.293,16.254,6.293,15.333z"/>
		<path fill="none" stroke="#323232" stroke-width="1.5" stroke-linecap="round" stroke-linejoin="round" d="M14.373,15.333
			L14.373,15.333c0-0.92,0.746-1.667,1.667-1.667l0,0c0.92,0,1.667,0.746,1.667,1.667l0,0c0,0.92-0.746,1.667-1.667,1.667l0,0
			C15.119,17,14.373,16.254,14.373,15.333z"/>
		<g>
			<path fill="none" stroke="#323232" stroke-width="1.5" stroke-linecap="round" stroke-linejoin="round" d="M3,18V6
				c0-1.657,1.343-3,3-3h12c1.657,0,3,1.343,3,3v12c0,1.657-1.343,3-3,3H6C4.343,21,3,19.657,3,18z"/>
		</g>
		<path fill="none" stroke="#323232" stroke-width="1.5" stroke-linecap="round" stroke-linejoin="round" d="M9.89,11.95l-1.21,1.89
			"/>
		<path fill="none" stroke="#323232" stroke-width="1.5" stroke-linecap="round" stroke-linejoin="round" d="M12.9,10.07l1.21,1.88"
			/>
		<path fill="none" stroke="#323232" stroke-width="1.5" stroke-linecap="round" stroke-linejoin="round" d="M14.37,15.33H12"/>
	</g>
</g>
</svg>
