<svg id="Layer_3" data-name="Layer 3" xmlns="http://www.w3.org/2000/svg" viewBox="0 0 24 24"><title>Group, Elements</title><path d="M0,0H24V24H0Z" fill="none"/><path d="M10.333,8.167h0A1.667,1.667,0,0,1,12,6.5h0a1.667,1.667,0,0,1,1.667,1.667h0A1.667,1.667,0,0,1,12,9.834h0A1.668,1.668,0,0,1,10.333,8.167Z" fill="none" stroke="#323232" stroke-linecap="round" stroke-linejoin="round" stroke-width="1.5"/><path d="M6.293,14.833h0A1.667,1.667,0,0,1,7.96,13.166h0a1.667,1.667,0,0,1,1.667,1.667h0A1.668,1.668,0,0,1,7.96,16.5h0A1.667,1.667,0,0,1,6.293,14.833Z" fill="none" stroke="#323232" stroke-linecap="round" stroke-linejoin="round" stroke-width="1.5"/><path d="M14.373,14.833h0a1.667,1.667,0,0,1,1.667-1.667h0a1.667,1.667,0,0,1,1.667,1.667h0A1.667,1.667,0,0,1,16.04,16.5h0A1.667,1.667,0,0,1,14.373,14.833Z" fill="none" stroke="#323232" stroke-linecap="round" stroke-linejoin="round" stroke-width="1.5"/><path d="M9.89,11.45,8.68,13.34" fill="none" stroke="#323232" stroke-linecap="round" stroke-linejoin="round" stroke-width="1.5"/><path d="M12.9,9.57l1.21,1.88" fill="none" stroke="#323232" stroke-linecap="round" stroke-linejoin="round" stroke-width="1.5"/><path d="M14.37,14.83H12" fill="none" stroke="#323232" stroke-linecap="round" stroke-linejoin="round" stroke-width="1.5"/><rect x="3" y="3" width="18" height="18" rx="4" stroke-width="1.5" stroke="#323232" stroke-linecap="round" stroke-linejoin="round" fill="none"/></svg>