<svg id="Layer_3" data-name="Layer 3" xmlns="http://www.w3.org/2000/svg" viewBox="0 0 24 24"><title>gumroad-square</title><path d="M15.5,7H8.132A1.132,1.132,0,0,0,7,8.132v7.736A1.132,1.132,0,0,0,8.132,17h7.736A1.132,1.132,0,0,0,17,15.868V11.816a1.132,1.132,0,0,0-1.132-1.132H11.816a1.132,1.132,0,0,0-1.132,1.132v.894a1.132,1.132,0,0,0,1.132,1.132h1.026" fill="none" stroke="#323232" stroke-linecap="round" stroke-linejoin="round" stroke-width="1.5"/><path d="M17,21H7a4,4,0,0,1-4-4V7A4,4,0,0,1,7,3H17a4,4,0,0,1,4,4V17A4,4,0,0,1,17,21Z" fill="none" stroke="#323232" stroke-linecap="round" stroke-linejoin="round" stroke-width="1.5"/><path d="M16,6.5a.5.5,0,1,0,.5.5.5.5,0,0,0-.5-.5" fill="none" stroke="#323232" stroke-linecap="round" stroke-linejoin="round" stroke-width="1.5"/><path d="M13.34,13.342a.5.5,0,1,0,.5.5.5.5,0,0,0-.5-.5" fill="none" stroke="#323232" stroke-linecap="round" stroke-linejoin="round" stroke-width="1.5"/><path d="M0,24V0H24V24Z" fill="none"/></svg>