<svg id="Layer_3" data-name="Layer 3" xmlns="http://www.w3.org/2000/svg" viewBox="0 0 24 24"><rect width="24" height="24" fill="none"/><path d="M5,9.322V6.44662A2,2,0,0,1,6.56487,4.49453l2-.44581A2,2,0,0,1,11,6.00082V9.322" fill="none" stroke="#323232" stroke-linecap="round" stroke-linejoin="round" stroke-width="1.5"/><path d="M14.87467,7.125a.12517.12517,0,1,0,.00033,0" fill="none" stroke="#323232" stroke-linecap="round" stroke-linejoin="round" stroke-width="1.5"/><path d="M20.87467,3A.125.125,0,1,0,21,3.125.12526.12526,0,0,0,20.87467,3" fill="none" stroke="#323232" stroke-linecap="round" stroke-linejoin="round" stroke-width="1.5"/><path d="M20.87467,7.125A.125.125,0,1,0,21,7.25a.12526.12526,0,0,0-.12533-.125" fill="none" stroke="#323232" stroke-linecap="round" stroke-linejoin="round" stroke-width="1.5"/><path d="M20.87467,11A.125.125,0,1,0,21,11.125.12526.12526,0,0,0,20.87467,11" fill="none" stroke="#323232" stroke-linecap="round" stroke-linejoin="round" stroke-width="1.5"/><path d="M17.87467,5A.125.125,0,1,0,18,5.125.12526.12526,0,0,0,17.87467,5" fill="none" stroke="#323232" stroke-linecap="round" stroke-linejoin="round" stroke-width="1.5"/><path d="M17.87467,9A.125.125,0,1,0,18,9.125.12526.12526,0,0,0,17.87467,9" fill="none" stroke="#323232" stroke-linecap="round" stroke-linejoin="round" stroke-width="1.5"/><path d="M13,11.3885,13,19a2,2,0,0,1-2,2H5a2,2,0,0,1-2-2L3,11.3885A2.01526,2.01526,0,0,1,4.48817,9.44983a13.93187,13.93187,0,0,1,7.02366,0A2.01526,2.01526,0,0,1,13,11.3885Z" fill="none" stroke="#323232" stroke-linecap="round" stroke-linejoin="round" stroke-width="1.5"/></svg>