<svg id="Layer_3" data-name="Layer 3" xmlns="http://www.w3.org/2000/svg" viewBox="0 0 24 24"><path d="M18.5,21H8.5A1.5,1.5,0,0,1,7,19.5H7A1.5,1.5,0,0,1,8.5,18h10A1.5,1.5,0,0,1,20,19.5h0A1.5,1.5,0,0,1,18.5,21Z" fill="none" stroke="#323232" stroke-linecap="round" stroke-linejoin="round" stroke-width="1.5"/><line x1="7" y1="19.5" x2="4" y2="19.5" fill="none" stroke="#323232" stroke-linecap="round" stroke-linejoin="round" stroke-width="1.5"/><line x1="4" y1="18" x2="4" y2="21" fill="none" stroke="#323232" stroke-linecap="round" stroke-linejoin="round" stroke-width="1.5"/><path d="M18.5,6H8.5A1.5,1.5,0,0,1,7,4.5H7A1.5,1.5,0,0,1,8.5,3h10A1.5,1.5,0,0,1,20,4.5h0A1.5,1.5,0,0,1,18.5,6Z" fill="none" stroke="#323232" stroke-linecap="round" stroke-linejoin="round" stroke-width="1.5"/><line x1="7" y1="4.5" x2="4" y2="4.5" fill="none" stroke="#323232" stroke-linecap="round" stroke-linejoin="round" stroke-width="1.5"/><line x1="4" y1="3" x2="4" y2="6" fill="none" stroke="#323232" stroke-linecap="round" stroke-linejoin="round" stroke-width="1.5"/><line x1="8.5" y1="18" x2="8.5" y2="6" fill="none" stroke="#323232" stroke-linecap="round" stroke-linejoin="round" stroke-width="1.5"/><line x1="18.5" y1="6" x2="18.5" y2="18" fill="none" stroke="#323232" stroke-linecap="round" stroke-linejoin="round" stroke-width="1.5"/><path d="M18.5,6.5h0a8.12056,8.12056,0,0,0-3.46277.77531L11.96277,8.72469A8.12056,8.12056,0,0,1,8.5,9.5h0" fill="none" stroke="#323232" stroke-linecap="round" stroke-linejoin="round" stroke-width="1.5"/><path d="M18.5,10.5h0a8.12056,8.12056,0,0,0-3.46277.77531l-3.07446,1.44938A8.12056,8.12056,0,0,1,8.5,13.5h0" fill="none" stroke="#323232" stroke-linecap="round" stroke-linejoin="round" stroke-width="1.5"/><path d="M18.5,14.5h0a8.12056,8.12056,0,0,0-3.46277.77531l-3.07446,1.44938A8.12056,8.12056,0,0,1,8.5,17.5h0" fill="none" stroke="#323232" stroke-linecap="round" stroke-linejoin="round" stroke-width="1.5"/><rect width="24" height="24" fill="none"/></svg>