<svg id="Layer_3" data-name="Layer 3" xmlns="http://www.w3.org/2000/svg" viewBox="0 0 24 24"><path d="M22,10v4a4,4,0,0,1-4,4H17" fill="none" stroke="#323232" stroke-linecap="round" stroke-linejoin="round" stroke-width="1.5"/><path d="M2,9V6A4,4,0,0,1,6,2h8" fill="none" stroke="#323232" stroke-linecap="round" stroke-linejoin="round" stroke-width="1.5"/><path d="M7,9H9a2,2,0,0,1,2,2v3a1,1,0,0,1-1,1H6a1,1,0,0,1-1-1V11A2,2,0,0,1,7,9Z" fill="none" stroke="#323232" stroke-linecap="round" stroke-linejoin="round" stroke-width="1.5"/><path d="M4.5,15h7a1,1,0,0,1,1,1v.5A1.5,1.5,0,0,1,11,18H4.65A1.15,1.15,0,0,1,3.5,16.85V16A1,1,0,0,1,4.5,15Z" fill="none" stroke="#323232" stroke-linecap="round" stroke-linejoin="round" stroke-width="1.5"/><line x1="8.00001" y1="18" x2="8.00001" y2="21" fill="none" stroke="#323232" stroke-linecap="round" stroke-linejoin="round" stroke-width="1.5"/><line x1="10.50001" y1="21" x2="5.50001" y2="21" fill="none" stroke="#323232" stroke-linecap="round" stroke-linejoin="round" stroke-width="1.5"/><path d="M14,13v1.00037a1,1,0,0,1-1,1H3a1,1,0,0,1-1-1V13" fill="none" stroke="#323232" stroke-linecap="round" stroke-linejoin="round" stroke-width="1.5"/><path d="M19.65789,2.38978,20.208,3.39509a.99944.99944,0,0,0,.39707.397l1.00516.54994a.7496.7496,0,0,1,0,1.3152l-1.00406.54939a.99952.99952,0,0,0-.39685.39669l-.55157,1.00709a.74959.74959,0,0,1-1.315-.00028l-.54981-1.00485a.99945.99945,0,0,0-.3967-.39686l-1.00666-.55132a.74959.74959,0,0,1,.00025-1.315l1.00611-.55051a.9994.9994,0,0,0,.397-.397l.54977-1.00477A.7496.7496,0,0,1,19.65789,2.38978Z" fill="none" stroke="#323232" stroke-linecap="round" stroke-linejoin="round" stroke-width="1.5"/><rect width="24" height="24" fill="none"/></svg>