<svg id="Layer_3" data-name="Layer 3" xmlns="http://www.w3.org/2000/svg" viewBox="0 0 24 24"><title>hammer-legal</title><line x1="11.655" y1="12.394" x2="7.655" y2="8.394" fill="none" stroke="#323232" stroke-linecap="round" stroke-linejoin="round" stroke-width="1.5"/><line x1="11.394" y1="4.654" x2="15.394" y2="8.654" fill="none" stroke="#323232" stroke-linecap="round" stroke-linejoin="round" stroke-width="1.5"/><line x1="3" y1="21" x2="13.586" y2="21" fill="none" stroke="#323232" stroke-linecap="round" stroke-linejoin="round" stroke-width="1.5"/><path d="M3.9,21l.545-1.632A2,2,0,0,1,6.338,18h3.91a2,2,0,0,1,1.9,1.368L12.689,21" fill="none" stroke="#323232" stroke-linecap="round" stroke-linejoin="round" stroke-width="1.5"/><path d="M8.892,7.3l-2.2,1.755a1.835,1.835,0,0,0-.156,2.726l1.676,1.684a1.814,1.814,0,0,0,2.7-.143l1.776-2.206A9.179,9.179,0,0,1,14.108,9.7l2.2-1.755a1.835,1.835,0,0,0,.156-2.726L14.791,3.536a1.814,1.814,0,0,0-2.7.143L10.313,5.885A9.135,9.135,0,0,1,8.892,7.3Z" fill="none" stroke="#323232" stroke-linecap="round" stroke-linejoin="round" stroke-width="1.5"/><path d="M14.376,9.487,20.3,14.5a1.986,1.986,0,1,1-2.754,2.851l-5.234-5.764" fill="none" stroke="#323232" stroke-linecap="round" stroke-linejoin="round" stroke-width="1.5"/><path d="M24,24H0V0H24Z" fill="none"/></svg>