<svg id="Layer_3" data-name="Layer 3" xmlns="http://www.w3.org/2000/svg" viewBox="0 0 24 24"><title>hammer-legal-square</title><path d="M24,24H0V0H24Z" fill="none"/><rect x="3" y="3" width="18" height="18" rx="4" stroke-width="1.5" stroke="#323232" stroke-linecap="round" stroke-linejoin="round" fill="none"/><path d="M9.074,9.107,7.588,10.292a1.51,1.51,0,0,0-.129,2.244l.979.984a1.507,1.507,0,0,0,2.243-.118l1.192-1.481a6.749,6.749,0,0,1,1.047-1.043l1.486-1.185a1.509,1.509,0,0,0,.129-2.244l-.979-.984a1.507,1.507,0,0,0-2.243.118L10.122,8.064A6.712,6.712,0,0,1,9.074,9.107Z" fill="none" stroke="#323232" stroke-linecap="round" stroke-linejoin="round" stroke-width="1.5"/><line x1="10.65" y1="17" x2="7" y2="17" fill="none" stroke="#323232" stroke-linecap="round" stroke-linejoin="round" stroke-width="1.5"/><path d="M13.335,10.547,17.414,14a1.711,1.711,0,1,1-2.371,2.458l-3.616-3.984" fill="none" stroke="#323232" stroke-linecap="round" stroke-linejoin="round" stroke-width="1.5"/></svg>