<svg id="Layer_3" data-name="Layer 3" xmlns="http://www.w3.org/2000/svg" viewBox="0 0 24 24"><title>handshake-deal-square</title><path d="M3,15.75H5.334a1.333,1.333,0,0,0,.943-.39h0a1.333,1.333,0,0,0,.39-.943V9.083a1.333,1.333,0,0,0-.39-.943h0a1.333,1.333,0,0,0-.943-.39H3.007" fill="none" stroke="#323232" stroke-linecap="round" stroke-linejoin="round" stroke-width="1.5"/><path d="M20.993,7.75H18.667a1.333,1.333,0,0,0-.943.39h0a1.333,1.333,0,0,0-.39.943v5.334a1.333,1.333,0,0,0,.39.943h0a1.333,1.333,0,0,0,.943.39h2.326" fill="none" stroke="#323232" stroke-linecap="round" stroke-linejoin="round" stroke-width="1.5"/><rect x="3" y="3" width="18" height="18" rx="5" stroke-width="1.5" stroke="#323232" stroke-linecap="round" stroke-linejoin="round" fill="none"/><path d="M17.354,14.647h-.86a1.992,1.992,0,0,0-.829.18l-4.207,1.916" fill="none" stroke="#323232" stroke-linecap="round" stroke-linejoin="round" stroke-width="1.5"/><path d="M10.645,8.668A1.988,1.988,0,0,0,8.97,8.5l-2.3.829" fill="none" stroke="#323232" stroke-linecap="round" stroke-linejoin="round" stroke-width="1.5"/><path d="M17.494,8.436,14.618,7.17a2,2,0,0,0-1.893.152l-2.61,1.691a1.506,1.506,0,0,0-.193,2.379h0a1.507,1.507,0,0,0,1.648.249l1.556-.726" fill="none" stroke="#323232" stroke-linecap="round" stroke-linejoin="round" stroke-width="1.5"/><path d="M13.126,10.914l.79.717a2,2,0,0,1,.008,2.957l-2.017,1.846a2,2,0,0,1-2.693.007L7.828,15.184a2,2,0,0,0-1.185-.5" fill="none" stroke="#323232" stroke-linecap="round" stroke-linejoin="round" stroke-width="1.5"/><path d="M0,0H24V24H0Z" fill="none"/></svg>