<?xml version="1.0" encoding="utf-8"?>
<!-- Generator: Adobe Illustrator 23.1.0, SVG Export Plug-In . SVG Version: 6.00 Build 0)  -->
<svg version="1.1" id="icons" xmlns="http://www.w3.org/2000/svg" xmlns:xlink="http://www.w3.org/1999/xlink" x="0px" y="0px"
	 width="24px" height="24px" viewBox="0 0 24 24" enable-background="new 0 0 24 24" xml:space="preserve">
<g>
	<g>
		<g>
			<path fill="none" stroke="#323232" stroke-width="1.5" stroke-linecap="round" stroke-linejoin="round" d="M3.817,15.75h1.517
				c0.354,0,0.693-0.14,0.943-0.39h0c0.25-0.25,0.39-0.589,0.39-0.943V9.083c0-0.354-0.14-0.693-0.39-0.943h0
				c-0.25-0.25-0.589-0.39-0.943-0.39H4.065"/>
		</g>
		<path fill="none" stroke="#323232" stroke-width="1.5" stroke-linecap="round" stroke-linejoin="round" d="M19.935,7.75h-1.268
			c-0.354,0-0.693,0.14-0.943,0.39l0,0c-0.25,0.25-0.39,0.589-0.39,0.943v5.334c0,0.354,0.14,0.693,0.39,0.943l0,0
			c0.25,0.25,0.589,0.39,0.943,0.39h1.517"/>
		<path fill="none" stroke="#323232" stroke-width="1.5" stroke-linecap="round" stroke-linejoin="round" d="M17.354,14.647h-0.86
			c-0.286,0-0.569,0.061-0.829,0.18l-4.207,1.916"/>
		<path fill="none" stroke="#323232" stroke-width="1.5" stroke-linecap="round" stroke-linejoin="round" d="M10.645,8.668
			C10.141,8.375,9.532,8.302,8.97,8.504L6.667,9.333"/>
		<path fill="none" stroke="#323232" stroke-width="1.5" stroke-linecap="round" stroke-linejoin="round" d="M17.494,8.436
			L14.618,7.17c-0.616-0.271-1.328-0.214-1.893,0.152l-2.61,1.691c-0.83,0.537-0.925,1.715-0.193,2.379l0,0
			c0.449,0.407,1.099,0.505,1.648,0.249l1.556-0.726"/>
		<circle fill="none" stroke="#323232" stroke-width="1.5" stroke-linecap="round" stroke-linejoin="round" cx="12" cy="12" r="9"/>
		<g>
			<path fill="none" stroke="#323232" stroke-width="1.5" stroke-linecap="round" stroke-linejoin="round" d="M13.126,10.914
				l0.79,0.717c0.873,0.791,0.876,2.161,0.008,2.957l-2.017,1.846c-0.761,0.698-1.929,0.7-2.693,0.007l-1.386-1.257
				c-0.328-0.297-0.746-0.464-1.185-0.5"/>
		</g>
	</g>
	<path fill="none" d="M0,0h24v24H0V0z"/>
</g>
</svg>
