<?xml version="1.0" encoding="utf-8"?>
<!-- Generator: Adobe Illustrator 24.0.2, SVG Export Plug-In . SVG Version: 6.00 Build 0)  -->
<svg version="1.1" id="Layer_1" xmlns="http://www.w3.org/2000/svg" xmlns:xlink="http://www.w3.org/1999/xlink" x="0px" y="0px"
	 width="24px" height="24px" viewBox="0 0 24 24" enable-background="new 0 0 24 24" xml:space="preserve">
<g>
	<g>
		<path fill="none" stroke="#323232" stroke-width="1.5" stroke-linecap="round" stroke-linejoin="round" d="M6,21H4
			c-0.552,0-1-0.448-1-1v-6c0-0.552,0.448-1,1-1h2c0.552,0,1,0.448,1,1v6C7,20.552,6.552,21,6,21z"/>
		<path fill="none" stroke="#323232" stroke-width="1.5" stroke-linecap="round" stroke-linejoin="round" d="M13,17h2.333
			c0.433,0,0.854-0.14,1.2-0.4l2.416-1.812c0.603-0.452,1.447-0.392,1.98,0.141l0,0c0.592,0.592,0.592,1.551,0,2.142l-2.073,2.073
			c-0.558,0.558-1.27,0.939-2.044,1.094l-2.93,0.586c-0.581,0.116-1.18,0.102-1.755-0.042l-2.65-0.662C9.16,20.04,8.835,20,8.508,20
			H7"/>
		<path fill="none" stroke="#323232" stroke-width="1.5" stroke-linecap="round" stroke-linejoin="round" d="M13,17h1.485
			C15.322,17,16,16.322,16,15.485v-0.303c0-0.695-0.473-1.301-1.147-1.469l-2.292-0.573C12.188,13.047,11.806,13,11.422,13l0,0
			c-0.927,0-1.834,0.274-2.605,0.789L7,15"/>
		<path fill="none" stroke="#323232" stroke-width="1.5" stroke-linecap="round" stroke-linejoin="round" d="M13.449,4.174
			L8.824,4.177c-0.265,0-0.519,0.106-0.706,0.293L7.293,5.295c-0.391,0.391-0.391,1.024,0,1.414l0.828,0.828
			C8.308,7.724,8.563,7.83,8.828,7.829l4.624-0.003l0.011,0.001c0.663,1.287,1.99,2.175,3.539,2.173C19.21,9.994,21,8.199,21,5.992
			C21.001,3.784,19.213,1.998,17.005,2c-1.543,0.004-2.867,0.893-3.533,2.175"/>
		<g>
			<path id="Shape_3077_1_" fill="none" stroke="#323232" stroke-width="1.5" stroke-linecap="round" stroke-linejoin="round" d="
				M17.002,6.264c0.144,0,0.26-0.117,0.26-0.261c0-0.144-0.118-0.261-0.261-0.261c-0.144,0-0.261,0.117-0.261,0.261
				C16.74,6.147,16.857,6.264,17.002,6.264"/>
		</g>
	</g>
	<path fill="none" d="M24,0v24H0V0H24z"/>
</g>
</svg>
