<svg id="Layer_3" data-name="Layer 3" xmlns="http://www.w3.org/2000/svg" viewBox="0 0 24 24"><title>hand-package-delivery</title><path d="M0,0H24V24H0Z" fill="none"/><path d="M6,21H4a1,1,0,0,1-1-1V14a1,1,0,0,1,1-1H6a1,1,0,0,1,1,1v6A1,1,0,0,1,6,21Z" fill="none" stroke="#323232" stroke-linecap="round" stroke-linejoin="round" stroke-width="1.5"/><path d="M13.5,4V8.6" fill="none" stroke="#323232" stroke-linecap="round" stroke-linejoin="round" stroke-width="1.5"/><path d="M20,14V10.04A1.445,1.445,0,0,0,18.556,8.6H8.444A1.445,1.445,0,0,0,7,10.04V15.1" fill="none" stroke="#323232" stroke-linecap="round" stroke-linejoin="round" stroke-width="1.5"/><path d="M7,14V7.971a2.9,2.9,0,0,1,.232-1.135l.791-1.85A1.624,1.624,0,0,1,9.517,4h7.965a1.626,1.626,0,0,1,1.5.986l.791,1.852A2.891,2.891,0,0,1,20,7.973v6.512" fill="none" stroke="#323232" stroke-linecap="round" stroke-linejoin="round" stroke-width="1.5"/><path d="M13,17h2.333a2,2,0,0,0,1.2-.4l2.416-1.812a1.515,1.515,0,0,1,1.98.141h0a1.514,1.514,0,0,1,0,2.142l-2.073,2.073a4,4,0,0,1-2.044,1.094l-2.93.586a4,4,0,0,1-1.755-.042l-2.65-.662A3.957,3.957,0,0,0,8.508,20H7" fill="none" stroke="#323232" stroke-linecap="round" stroke-linejoin="round" stroke-width="1.5"/><path d="M13,17h1.485A1.515,1.515,0,0,0,16,15.485v-.3a1.514,1.514,0,0,0-1.147-1.469l-2.292-.573A4.705,4.705,0,0,0,11.422,13h0a4.69,4.69,0,0,0-2.605.789L7,15" fill="none" stroke="#323232" stroke-linecap="round" stroke-linejoin="round" stroke-width="1.5"/></svg>