<svg id="Layer_3" data-name="Layer 3" xmlns="http://www.w3.org/2000/svg" viewBox="0 0 24 24"><title>hand-credit-card</title><path d="M2,14,4.55054,9.74911a3,3,0,0,1,1.23083-1.1398l.58519-.29259A3.00007,3.00007,0,0,1,7.7082,8H10" fill="none" stroke="#323232" stroke-linecap="round" stroke-linejoin="round" stroke-width="1.5"/><path d="M4,21l5.76187-2.082a4,4,0,0,0,1.96854-1.54267l2.99287-4.48795a1.64575,1.64575,0,0,0-.20549-2.07681h0a1.64575,1.64575,0,0,0-2.3272-.00023L10,13H8" fill="none" stroke="#323232" stroke-linecap="round" stroke-linejoin="round" stroke-width="1.5"/><path d="M13.9813,14h5.70291A2.359,2.359,0,0,0,22,11.6V7.4A2.359,2.359,0,0,0,19.68421,5H12.31579A2.359,2.359,0,0,0,10,7.4h0V13" fill="none" stroke="#323232" stroke-linecap="round" stroke-linejoin="round" stroke-width="1.5"/><rect width="24" height="24" fill="none"/></svg>