<svg id="Layer_3" data-name="Layer 3" xmlns="http://www.w3.org/2000/svg" viewBox="0 0 24 24"><title>hand-drop</title><path d="M0,0H24V24H0Z" fill="none"/><path d="M6,21H4a1,1,0,0,1-1-1V14a1,1,0,0,1,1-1H6a1,1,0,0,1,1,1v6A1,1,0,0,1,6,21Z" fill="none" stroke="#323232" stroke-linecap="round" stroke-linejoin="round" stroke-width="1.5"/><path d="M13,17h2.333a2,2,0,0,0,1.2-.4l2.416-1.812a1.515,1.515,0,0,1,1.98.141h0a1.514,1.514,0,0,1,0,2.142l-2.073,2.073a4,4,0,0,1-2.044,1.094l-2.93.586a4,4,0,0,1-1.755-.042l-2.65-.662A3.957,3.957,0,0,0,8.508,20H7" fill="none" stroke="#323232" stroke-linecap="round" stroke-linejoin="round" stroke-width="1.5"/><path d="M13,17h1.485A1.515,1.515,0,0,0,16,15.485v-.3a1.514,1.514,0,0,0-1.147-1.469l-2.292-.573A4.705,4.705,0,0,0,11.422,13h0a4.69,4.69,0,0,0-2.605.789L7,15" fill="none" stroke="#323232" stroke-linecap="round" stroke-linejoin="round" stroke-width="1.5"/><path d="M16.76,3.281l1.677,2.244A2.8,2.8,0,0,1,16.2,10h0a2.8,2.8,0,0,1-2.238-4.475L15.64,3.281A.7.7,0,0,1,16.76,3.281Z" fill="none" stroke="#323232" stroke-linecap="round" stroke-linejoin="round" stroke-width="1.5"/></svg>