<svg id="Layer_3" data-name="Layer 3" xmlns="http://www.w3.org/2000/svg" viewBox="0 0 24 24"><rect width="24" height="24" fill="none"/><path d="M2,14,4.55054,9.74911a3,3,0,0,1,1.23083-1.1398l.58519-.29259A3.00007,3.00007,0,0,1,7.7082,8H10" fill="none" stroke="#323232" stroke-linecap="round" stroke-linejoin="round" stroke-width="1.5"/><path d="M4,21l5.76187-2.082a4,4,0,0,0,1.96854-1.54267l2.99287-4.488a1.64576,1.64576,0,0,0-.20549-2.07681h0a1.64575,1.64575,0,0,0-2.3272-.00023L10,13H8" fill="none" stroke="#323232" stroke-linecap="round" stroke-linejoin="round" stroke-width="1.5"/><path d="M10,13V7.5A2.5,2.5,0,0,1,12.5,5h7A2.5,2.5,0,0,1,22,7.5v4A2.5,2.5,0,0,1,19.5,14H14" fill="none" stroke="#323232" stroke-linecap="round" stroke-linejoin="round" stroke-width="1.5"/><line x1="19" y1="8" x2="16" y2="8" fill="none" stroke="#323232" stroke-linecap="round" stroke-linejoin="round" stroke-width="1.5"/><line x1="19" y1="11" x2="18" y2="11" fill="none" stroke="#323232" stroke-linecap="round" stroke-linejoin="round" stroke-width="1.5"/></svg>