<svg id="Layer_3" data-name="Layer 3" xmlns="http://www.w3.org/2000/svg" viewBox="0 0 24 24"><path d="M3.5,5.5l2.082,5.76187a3.99992,3.99992,0,0,0,1.54267,1.96854l4.488,2.99288a1.64575,1.64575,0,0,0,2.07681-.2055h0a1.64576,1.64576,0,0,0,.00023-2.32721L11.5,11.5v-2" fill="none" stroke="#323232" stroke-linecap="round" stroke-linejoin="round" stroke-width="1.5"/><path d="M10.5,3.5l4.25089,2.55054a3,3,0,0,1,1.1398,1.23084l.29259.58519A3,3,0,0,1,16.5,9.20821V11.5" fill="none" stroke="#323232" stroke-linecap="round" stroke-linejoin="round" stroke-width="1.5"/><path d="M11.5,11.5H18A2.5,2.5,0,0,1,20.5,14v4A2.5,2.5,0,0,1,18,20.5H9A2.5,2.5,0,0,1,6.5,18V12.71311" fill="none" stroke="#323232" stroke-linecap="round" stroke-linejoin="round" stroke-width="1.5"/><rect width="24" height="24" fill="none"/></svg>