<svg id="Layer_3" data-name="Layer 3" xmlns="http://www.w3.org/2000/svg" viewBox="0 0 24 24"><title>hand-cleaning-star-shining</title><path d="M0,0H24V24H0Z" fill="none"/><path d="M6,21H4a1,1,0,0,1-1-1V14a1,1,0,0,1,1-1H6a1,1,0,0,1,1,1v6A1,1,0,0,1,6,21Z" fill="none" stroke="#323232" stroke-linecap="round" stroke-linejoin="round" stroke-width="1.5"/><path d="M13,17h2.333a2,2,0,0,0,1.2-.4l2.416-1.812a1.515,1.515,0,0,1,1.981.141h0a1.513,1.513,0,0,1,0,2.141h0l-2.074,2.073a4,4,0,0,1-2.044,1.094l-2.93.586a4,4,0,0,1-1.755-.042l-2.65-.662A3.963,3.963,0,0,0,8.508,20H7" fill="none" stroke="#323232" stroke-linecap="round" stroke-linejoin="round" stroke-width="1.5"/><path d="M13,17h1.485A1.515,1.515,0,0,0,16,15.485h0v-.3a1.514,1.514,0,0,0-1.147-1.469l-2.292-.574A4.7,4.7,0,0,0,11.422,13h0a4.691,4.691,0,0,0-2.605.79L7,15" fill="none" stroke="#323232" stroke-linecap="round" stroke-linejoin="round" stroke-width="1.5"/><path d="M16.73,4.458a.878.878,0,0,1,1.54,0L18.95,5.7a.886.886,0,0,0,.35.35l1.243.679a.877.877,0,0,1,0,1.54L19.3,8.951a.871.871,0,0,0-.35.349l-.68,1.242a.878.878,0,0,1-1.54,0L16.05,9.3a.867.867,0,0,0-.35-.35L14.458,8.27a.877.877,0,0,1,0-1.54L15.7,6.051a.88.88,0,0,0,.35-.35Z" fill="none" stroke="#323232" stroke-linecap="round" stroke-linejoin="round" stroke-width="1.5"/><path d="M7.95,3.326a.628.628,0,0,1,1.1,0l.485.888a.627.627,0,0,0,.25.25l.888.485a.627.627,0,0,1,0,1.1l-.888.486a.627.627,0,0,0-.25.25l-.485.887a.627.627,0,0,1-1.1,0l-.486-.888a.614.614,0,0,0-.25-.25l-.887-.485a.627.627,0,0,1,0-1.1l.887-.485a.62.62,0,0,0,.25-.25Z" fill="none" stroke="#323232" stroke-linecap="round" stroke-linejoin="round" stroke-width="1.5"/></svg>