<svg id="Layer_3" data-name="Layer 3" xmlns="http://www.w3.org/2000/svg" viewBox="0 0 24 24"><title>hand-coin</title><rect width="24" height="24" transform="translate(24) rotate(90)" fill="none"/><path d="M11,4l4.25089,2.55054a3,3,0,0,1,1.1398,1.23083l.29259.58519A3.00007,3.00007,0,0,1,17,9.7082v1.70871" fill="none" stroke="#323232" stroke-linecap="round" stroke-linejoin="round" stroke-width="1.5"/><path d="M10.06476,15.35767A4.92986,4.92986,0,0,0,10,16a5.04415,5.04415,0,1,0,2.01239-3.98755" fill="none" stroke="#323232" stroke-linecap="round" stroke-linejoin="round" stroke-width="1.5"/><path d="M4,6l2.082,5.76187a4,4,0,0,0,1.54267,1.96854l4.488,2.99287a1.64575,1.64575,0,0,0,2.07681-.20549h0a1.64575,1.64575,0,0,0,.00023-2.3272L12,12V10" fill="none" stroke="#323232" stroke-linecap="round" stroke-linejoin="round" stroke-width="1.5"/></svg>