<svg id="Layer_3" data-name="Layer 3" xmlns="http://www.w3.org/2000/svg" viewBox="0 0 24 24"><title>hand-stop-circle</title><path d="M0,0H24V24H0Z" fill="none"/><path d="M6.826,11.055a1.412,1.412,0,0,1,1.9.094l.868.867V9.066a2,2,0,0,1,2.632-1.9l2.8.934A2,2,0,0,1,16.392,10v3.55A3.45,3.45,0,0,1,12.942,17H11.316a3.451,3.451,0,0,1-2.762-1.382L6.59,13a1.413,1.413,0,0,1,.236-1.94Z" fill="none" stroke="#323232" stroke-linecap="round" stroke-linejoin="round" stroke-width="1.5"/><path d="M18.364,5.636a9,9,0,1,1-12.728,0,9,9,0,0,1,12.728,0" fill="none" stroke="#323232" stroke-linecap="round" stroke-linejoin="round" stroke-width="1.5"/></svg>