<?xml version="1.0" encoding="utf-8"?>
<!-- Generator: Adobe Illustrator 24.0.2, SVG Export Plug-In . SVG Version: 6.00 Build 0)  -->
<svg version="1.1" id="Layer_1" xmlns="http://www.w3.org/2000/svg" xmlns:xlink="http://www.w3.org/1999/xlink" x="0px" y="0px"
	 width="24px" height="24px" viewBox="0 0 24 24" enable-background="new 0 0 24 24" xml:space="preserve">
<g>
	<path fill="none" d="M0,0h24v24H0V0z"/>
	<g>
		<path fill="none" stroke="#323232" stroke-width="1.5" stroke-linecap="round" stroke-linejoin="round" d="M6.826,11.539
			c0.562-0.461,1.382-0.42,1.895,0.094L9.589,12.5V9.002c0-1.365,1.337-2.329,2.632-1.897l2.803,0.934
			c0.817,0.272,1.368,1.037,1.368,1.897v4.098c0,1.905-1.545,3.45-3.45,3.45h-1.626c-1.087,0-2.11-0.512-2.762-1.382L6.59,13.479
			C6.137,12.873,6.241,12.018,6.826,11.539L6.826,11.539z"/>
		<g>
			<path fill="none" stroke="#323232" stroke-width="1.5" stroke-linecap="round" stroke-linejoin="round" d="M17,21H7
				c-2.209,0-4-1.791-4-4V7c0-2.209,1.791-4,4-4h10c2.209,0,4,1.791,4,4v10C21,19.209,19.209,21,17,21z"/>
		</g>
	</g>
</g>
</svg>
