<svg id="Layer_3" data-name="Layer 3" xmlns="http://www.w3.org/2000/svg" viewBox="0 0 24 24"><rect width="24" height="24" fill="none"/><path d="M2,13.00006,4.55054,8.74917a3,3,0,0,1,1.23083-1.1398l.58519-.29259A3.00007,3.00007,0,0,1,7.7082,7.00006h3.13657" fill="none" stroke="#323232" stroke-linecap="round" stroke-linejoin="round" stroke-width="1.5"/><path d="M13.23034,14.14013a4.70506,4.70506,0,0,0,2.96989-.02L18.80013,16.71a1.00865,1.00865,0,0,0,.7.29H21a1.0029,1.0029,0,0,0,1-.99995v-1.5057a.99993.99993,0,0,0-.29562-.7098l-2.59427-2.57428a4.52218,4.52218,0,0,0,.26-1.44993,4.68217,4.68217,0,0,0-4.60982-4.75978,4.761,4.761,0,0,0-4.75981,4.60978,4.65031,4.65031,0,0,0,.41,1.97991" fill="none" stroke="#323232" stroke-linecap="round" stroke-linejoin="round" stroke-width="1.5"/><path d="M4,20l5.76187-2.082a4,4,0,0,0,1.96854-1.54267l2.99287-4.488a1.64576,1.64576,0,0,0-.20549-2.07681h0a1.64575,1.64575,0,0,0-2.3272-.00023L10,12H8" fill="none" stroke="#323232" stroke-linecap="round" stroke-linejoin="round" stroke-width="1.5"/></svg>