<svg id="Layer_3" data-name="Layer 3" xmlns="http://www.w3.org/2000/svg" viewBox="0 0 24 24"><path d="M0,0H24V24H0Z" fill="none"/><path d="M5.984,21H4a1.00036,1.00036,0,0,1-1-1V14a1.00036,1.00036,0,0,1,1-1H5.984a1.00036,1.00036,0,0,1,1,1v6A1.00036,1.00036,0,0,1,5.984,21Z" fill="none" stroke="#323232" stroke-linecap="round" stroke-linejoin="round" stroke-width="1.5"/><path d="M12.96,17h2.324a1.98429,1.98429,0,0,0,1.195-.4l2.406-1.812a1.50456,1.50456,0,0,1,1.972.141h0a1.51917,1.51917,0,0,1,0,2.142l-2.064,2.073a3.98024,3.98024,0,0,1-2.036,1.094l-2.919.586a3.96765,3.96765,0,0,1-1.748-.042L9.451,20.12A3.92682,3.92682,0,0,0,8.485,20H6.984" fill="none" stroke="#323232" stroke-linecap="round" stroke-linejoin="round" stroke-width="1.5"/><path d="M12.96,17h1.479a1.51208,1.51208,0,0,0,1.509-1.515v-.303a1.51236,1.51236,0,0,0-1.143-1.469l-2.283-.573A4.66464,4.66464,0,0,0,11.388,13h0a4.65713,4.65713,0,0,0-2.594.789L6.984,15" fill="none" stroke="#323232" stroke-linecap="round" stroke-linejoin="round" stroke-width="1.5"/><ellipse cx="17" cy="7" rx="5" ry="2" transform="translate(0.02944 14.07107) rotate(-45)" stroke-width="1.5" stroke="#323232" stroke-linecap="round" stroke-linejoin="round" fill="none"/><ellipse cx="17" cy="7" rx="2" ry="5" transform="translate(0.02944 14.07107) rotate(-45)" stroke-width="1.5" stroke="#323232" stroke-linecap="round" stroke-linejoin="round" fill="none"/></svg>