<svg id="Layer_3" data-name="Layer 3" xmlns="http://www.w3.org/2000/svg" viewBox="0 0 24 24"><path d="M0,0H24V24H0Z" fill="none"/><path d="M6,21H4a1,1,0,0,1-1-1V14a1,1,0,0,1,1-1H6a1,1,0,0,1,1,1v6A1,1,0,0,1,6,21Z" fill="none" stroke="#323232" stroke-linecap="round" stroke-linejoin="round" stroke-width="1.5"/><path d="M13.12712,17h2.333a2,2,0,0,0,1.2-.4l2.416-1.812a1.515,1.515,0,0,1,1.98.141h0a1.514,1.514,0,0,1,.00088,2.14112l-.00088.00088-2.073,2.073a4,4,0,0,1-2.044,1.094l-2.93.586a4,4,0,0,1-1.755-.042l-2.65-.662a3.9569,3.9569,0,0,0-.969-.12H7" fill="none" stroke="#323232" stroke-linecap="round" stroke-linejoin="round" stroke-width="1.5"/><path d="M13.12712,17h1.485a1.515,1.515,0,0,0,1.515-1.515h0v-.3a1.514,1.514,0,0,0-1.147-1.469l-2.292-.573a4.705,4.705,0,0,0-1.139-.143h0a4.69,4.69,0,0,0-2.605.789L7,15.08472" fill="none" stroke="#323232" stroke-linecap="round" stroke-linejoin="round" stroke-width="1.5"/><path d="M14.21429,6.28575h-.375A1.33929,1.33929,0,0,1,12.5,4.94645h0a1.3393,1.3393,0,0,1,1.3393-1.33931h.375c1.18347,0,2.14286-.71954,2.14286-1.6071a2.14286,2.14286,0,1,1,0,4.28571" fill="none" stroke="#323232" stroke-linecap="round" stroke-linejoin="round" stroke-width="1.5"/><path d="M17.28586,10.00036H13.71478A2.71445,2.71445,0,0,1,11.00032,7.2859h0a1,1,0,0,1,1-1h7a1,1,0,0,1,1,1h0A2.71446,2.71446,0,0,1,17.28586,10.00036Z" fill="none" stroke="#323232" stroke-linecap="round" stroke-linejoin="round" stroke-width="1.5"/></svg>