<svg id="Layer_3" data-name="Layer 3" xmlns="http://www.w3.org/2000/svg" viewBox="0 0 24 24"><title>hardware-nut-square</title><path d="M6.234,12.883l2.034,3.558a1.778,1.778,0,0,0,1.545.9h4.374a1.778,1.778,0,0,0,1.545-.9l2.034-3.558a1.783,1.783,0,0,0,0-1.766L15.732,7.559a1.778,1.778,0,0,0-1.545-.9H9.813a1.778,1.778,0,0,0-1.545.9L6.234,11.117A1.783,1.783,0,0,0,6.234,12.883Z" fill="none" stroke="#323232" stroke-linecap="round" stroke-linejoin="round" stroke-width="1.5"/><rect x="3" y="3" width="18" height="18" rx="5" stroke-width="1.5" stroke="#323232" stroke-linecap="round" stroke-linejoin="round" fill="none"/><circle cx="11.957" cy="12" r="2.372" fill="none" stroke="#323232" stroke-linecap="round" stroke-linejoin="round" stroke-width="1.5"/><rect width="24" height="24" fill="none"/></svg>