<?xml version="1.0" encoding="utf-8"?>
<!-- Generator: Adobe Illustrator 24.0.2, SVG Export Plug-In . SVG Version: 6.00 Build 0)  -->
<svg version="1.1" id="Layer_1" xmlns="http://www.w3.org/2000/svg" xmlns:xlink="http://www.w3.org/1999/xlink" x="0px" y="0px"
	 width="24px" height="24px" viewBox="0 0 24 24" enable-background="new 0 0 24 24" xml:space="preserve">
<g>
	<g>
		
			<path fill="none" stroke="#323232" stroke-width="1.5" stroke-linecap="round" stroke-linejoin="round" stroke-miterlimit="10" d="
			M16,21H8c-2.761,0-5-2.239-5-5V8c0-2.761,2.239-5,5-5h8c2.761,0,5,2.239,5,5v8C21,18.761,18.761,21,16,21z"/>
		<path fill="none" stroke="#323232" stroke-width="1.5" stroke-linecap="round" stroke-linejoin="round" d="M17.17,15v-3.177
			c0-2.855-2.315-5.17-5.17-5.17h0c-2.855,0-5.17,2.315-5.17,5.17V15"/>
		<g>
			<path fill="none" stroke="#323232" stroke-width="1.5" stroke-linecap="round" stroke-linejoin="round" d="M8.415,17L8.415,17
				C7.54,17,6.83,16.29,6.83,15.415v-1.426c0-0.875,0.71-1.585,1.585-1.585h0c0.875,0,1.585,0.71,1.585,1.585v1.426
				C10,16.29,9.29,17,8.415,17z"/>
		</g>
		<path fill="none" stroke="#323232" stroke-width="1.5" stroke-linecap="round" stroke-linejoin="round" d="M15.585,17L15.585,17
			C14.71,17,14,16.29,14,15.415v-1.426c0-0.875,0.71-1.585,1.585-1.585h0c0.875,0,1.585,0.71,1.585,1.585l0,1.426
			C17.17,16.29,16.46,17,15.585,17z"/>
	</g>
	<path fill="none" d="M0,0h24v24H0V0z"/>
</g>
</svg>
