<svg id="Layer_3" data-name="Layer 3" xmlns="http://www.w3.org/2000/svg" viewBox="0 0 24 24"><title>health-graph-heart</title><path d="M21,11v5a5,5,0,0,1-5,5H8a5,5,0,0,1-5-5V15" fill="none" stroke="#323232" stroke-linecap="round" stroke-linejoin="round" stroke-width="1.5"/><path d="M13,3H8A5,5,0,0,0,3,8V9" fill="none" stroke="#323232" stroke-linecap="round" stroke-linejoin="round" stroke-width="1.5"/><path d="M18,12H14.267l-1.733,4L9.066,8,7.2,12H3" fill="none" stroke="#323232" stroke-linecap="round" stroke-linejoin="round" stroke-width="1.5"/><path d="M19.016,3.535A1.61,1.61,0,0,1,20.241,3,1.805,1.805,0,0,1,22,4.8C22,6.611,19.606,8,19.016,8s-2.984-1.389-2.984-3.2A1.8,1.8,0,0,1,17.791,3,1.613,1.613,0,0,1,19.016,3.535Z" fill="none" stroke="#323232" stroke-linecap="round" stroke-linejoin="round" stroke-width="1.5"/><path d="M0,0H24V24H0Z" fill="none"/></svg>