<svg id="Layer_3" data-name="Layer 3" xmlns="http://www.w3.org/2000/svg" viewBox="0 0 24 24"><title>heart-circle</title><path id="a" d="M18.364,5.636a9,9,0,1,1-12.72792,0,9,9,0,0,1,12.72792,0" fill="none" stroke="#323232" stroke-linecap="round" stroke-linejoin="round" stroke-width="1.5"/><path id="a-2" data-name="a" d="M18.364,5.636a9,9,0,1,1-12.72792,0,9,9,0,0,1,12.72792,0" fill="none" stroke="#323232" stroke-linecap="round" stroke-linejoin="round" stroke-width="1.5"/><path d="M11.53842,9.6505,12,10.11243l.4616-.46195a2.218,2.218,0,0,1,3.13839,0h0a2.2222,2.2222,0,0,1,0,3.14092l-2.9275,2.92981a.95053.95053,0,0,1-1.345,0L8.4,12.79146a2.22221,2.22221,0,0,1,0-3.14093h0A2.218,2.218,0,0,1,11.53842,9.6505Z" fill="none" stroke="#323232" stroke-linecap="round" stroke-linejoin="round" stroke-width="1.5"/><rect width="24" height="24" fill="none"/></svg>