<?xml version="1.0" encoding="utf-8"?>
<!-- Generator: Adobe Illustrator 24.0.2, SVG Export Plug-In . SVG Version: 6.00 Build 0)  -->
<svg version="1.1" id="Layer_1" xmlns="http://www.w3.org/2000/svg" xmlns:xlink="http://www.w3.org/1999/xlink" x="0px" y="0px"
	 width="24px" height="24px" viewBox="0 0 24 24" enable-background="new 0 0 24 24" xml:space="preserve">
<g>
	<path fill="none" d="M24,24H0V0h24V24z"/>
	<g>
		<path fill="none" stroke="#323232" stroke-width="1.5" stroke-linecap="round" stroke-linejoin="round" d="M19.828,11.686
			c1.562,1.562,1.562,4.095,0,5.657c-1.562,1.562-4.095,1.562-5.657,0c-1.562-1.562-1.562-4.095,0-5.657
			C15.734,10.123,18.266,10.123,19.828,11.686"/>
		<path fill="none" stroke="#323232" stroke-width="1.5" stroke-linecap="round" stroke-linejoin="round" d="M18.33,14.51h-2.66"/>
		<path fill="none" stroke="#323232" stroke-width="1.5" stroke-linecap="round" stroke-linejoin="round" d="M14.507,17.636
			c-1.62,1.174-2.994,1.878-3.054,1.878c-0.15,0-8.453-4.33-8.453-9.618c0-2.611,2.001-5.41,4.978-5.41
			c1.709,0,2.827,0.855,3.475,1.606c0.648-0.751,1.766-1.606,3.475-1.606c2.977,0,4.978,2.799,4.978,5.41
			c0,0.55-0.107,1.086-0.269,1.611"/>
	</g>
</g>
</svg>
