<?xml version="1.0" encoding="utf-8"?>
<!-- Generator: Adobe Illustrator 23.1.0, SVG Export Plug-In . SVG Version: 6.00 Build 0)  -->
<svg version="1.1" id="icons" xmlns="http://www.w3.org/2000/svg" xmlns:xlink="http://www.w3.org/1999/xlink" x="0px" y="0px"
	 width="24px" height="24px" viewBox="0 0 24 24" enable-background="new 0 0 24 24" xml:space="preserve">
<g>
	<g>
		<path fill="none" stroke="#323232" stroke-width="1.5" stroke-linecap="round" stroke-linejoin="round" d="M5.16,6.16
			c0.461-0.54,0.986-1.021,1.562-1.438"/>
		<path fill="none" stroke="#323232" stroke-width="1.5" stroke-linecap="round" stroke-linejoin="round" d="M17,19.482
			C15.57,20.44,13.851,21,12,21c-0.912,0-1.791-0.138-2.62-0.39"/>
		<path fill="none" stroke="#323232" stroke-width="1.5" stroke-linecap="round" stroke-linejoin="round" d="M6.349,19
			c-1.281-1.035-2.265-2.417-2.826-4"/>
		<path fill="none" stroke="#323232" stroke-width="1.5" stroke-linecap="round" stroke-linejoin="round" d="M3.523,9
			C3.19,9.94,3,10.946,3,12"/>
		<path fill="none" stroke="#323232" stroke-width="1.5" stroke-linecap="round" stroke-linejoin="round" d="M19.463,17
			C20.427,15.569,21,13.855,21,12c0-4.971-4.029-9-9-9"/>
		<path fill="none" stroke="#323232" stroke-width="1.5" stroke-linecap="round" stroke-linejoin="round" d="M13.643,9
			C15.054,9,16,10.304,16,11.518C16,13.982,12.072,16,12,16s-4-2.018-4-4.482C8,10.304,8.947,9,10.357,9
			C11.163,9,11.693,9.396,12,9.749C12.306,9.396,12.836,9,13.643,9z"/>
	</g>
	<path fill="none" d="M0,0h24v24H0V0z"/>
</g>
</svg>
