<?xml version="1.0" encoding="utf-8"?>
<!-- Generator: Adobe Illustrator 24.0.2, SVG Export Plug-In . SVG Version: 6.00 Build 0)  -->
<svg version="1.1" id="Layer_1" xmlns="http://www.w3.org/2000/svg" xmlns:xlink="http://www.w3.org/1999/xlink" x="0px" y="0px"
	 width="24px" height="24px" viewBox="0 0 24 24" enable-background="new 0 0 24 24" xml:space="preserve">
<g>
	<g>
		<path fill="none" stroke="#323232" stroke-width="1.5" stroke-linecap="round" stroke-linejoin="round" d="M19.016,3.535
			C19.244,3.283,19.639,3,20.241,3C21.294,3,22,3.931,22,4.798C22,6.611,19.606,8,19.016,8s-2.984-1.389-2.984-3.202
			C16.031,3.931,16.738,3,17.791,3C18.392,3,18.787,3.283,19.016,3.535z"/>
		<path fill="none" stroke="#323232" stroke-width="1.5" stroke-linecap="round" stroke-linejoin="round" d="M13,3.06
			C12.672,3.021,12.339,3,12,3C8.083,3,4.76,5.507,3.523,9"/>
		<path fill="none" stroke="#323232" stroke-width="1.5" stroke-linecap="round" stroke-linejoin="round" d="M16,12h-1.733
			l-1.733,3.999L9.066,8.001L7.197,12H3"/>
		<path fill="none" stroke="#323232" stroke-width="1.5" stroke-linecap="round" stroke-linejoin="round" d="M20.94,11
			c0.038,0.328,0.06,0.661,0.06,1c0,4.971-4.029,9-9,9c-3.917,0-7.24-2.507-8.477-6"/>
	</g>
	<path fill="none" d="M0,0h24v24H0V0z"/>
</g>
</svg>
