<svg id="Layer_3" data-name="Layer 3" xmlns="http://www.w3.org/2000/svg" viewBox="0 0 24 24"><title>Artboard 56</title><path d="M18.985,8.437A1.925,1.925,0,0,1,17.625,9h0a1.925,1.925,0,0,1-1.36-.563L13.959,6.131a2.42,2.42,0,0,1,3.422-3.422l.244.244.244-.244a2.42,2.42,0,0,1,3.422,3.422Z" fill="none" stroke="#323232" stroke-linecap="round" stroke-linejoin="round" stroke-width="1.5"/><path d="M21,11v5a5,5,0,0,1-5,5H8a5,5,0,0,1-5-5V8A5,5,0,0,1,8,3h2" fill="none" stroke="#323232" stroke-linecap="round" stroke-linejoin="round" stroke-width="1.5"/><path d="M24,24H0V0H24Z" fill="none"/></svg>