<?xml version="1.0" encoding="UTF-8"?><svg version="1.1" viewBox="0 0 24 24" xmlns="http://www.w3.org/2000/svg" xmlns:xlink="http://www.w3.org/1999/xlink"><!--Generated by IJSVG (https://github.com/iconjar/IJSVG)--><g fill="none"><path d="M24,24h-24v-24h24v24Z"></path><path stroke="#323232" stroke-linecap="round" stroke-linejoin="round" stroke-width="1.5" d="M19.828,11.686c1.562,1.562 1.562,4.095 0,5.657c-1.562,1.562 -4.095,1.562 -5.657,0c-1.562,-1.562 -1.562,-4.095 0,-5.657c1.563,-1.563 4.095,-1.563 5.657,0"></path><path stroke="#323232" stroke-linecap="round" stroke-linejoin="round" stroke-width="1.5" d="M17.944,13.571l-1.888,1.888"></path><path stroke="#323232" stroke-linecap="round" stroke-linejoin="round" stroke-width="1.5" d="M17.944,15.452l-1.881,-1.881"></path><path stroke="#323232" stroke-linecap="round" stroke-linejoin="round" stroke-width="1.5" d="M14.507,17.636c-1.62,1.174 -2.994,1.878 -3.054,1.878c-0.15,0 -8.453,-4.33 -8.453,-9.618c0,-2.611 2.001,-5.41 4.978,-5.41c1.709,0 2.827,0.855 3.475,1.606c0.648,-0.751 1.766,-1.606 3.475,-1.606c2.977,0 4.978,2.799 4.978,5.41c0,0.55 -0.107,1.086 -0.269,1.611"></path></g></svg>