<svg id="Layer_3" data-name="Layer 3" xmlns="http://www.w3.org/2000/svg" viewBox="0 0 24 24"><title>Artboard 311</title><path d="M11.174,16.748a1.48,1.48,0,0,0,1.652,0l.626-.42a12.4,12.4,0,0,0,3.394-3.4,3.285,3.285,0,0,0,.32-3.044,3.021,3.021,0,0,0-1.848-1.744,2.691,2.691,0,0,0-2.965.888L12,9.474l-.353-.448a2.691,2.691,0,0,0-2.965-.888A3.021,3.021,0,0,0,6.834,9.882a3.285,3.285,0,0,0,.32,3.044,12.4,12.4,0,0,0,3.394,3.4Z" fill="none" stroke="#323232" stroke-linecap="round" stroke-linejoin="round" stroke-width="1.5"/><rect x="3" y="3" width="18" height="18" rx="5" stroke-width="1.5" stroke="#323232" stroke-linecap="round" stroke-linejoin="round" fill="none"/><rect width="24" height="24" fill="none"/></svg>