<svg id="Layer_3" data-name="Layer 3" xmlns="http://www.w3.org/2000/svg" viewBox="0 0 24 24"><title>heart-arrow-right-circle</title><path d="M0,0H24V24H0Z" fill="none"/><path d="M8,17.5l2,2-2,2" fill="none" stroke="#323232" stroke-linecap="round" stroke-linejoin="round" stroke-width="1.5"/><path d="M10,19.5H4" fill="none" stroke="#323232" stroke-linecap="round" stroke-linejoin="round" stroke-width="1.5"/><path d="M13.99751,20.27351a8.998,8.998,0,1,0-10.0558-4.77" fill="none" stroke="#323232" stroke-linecap="round" stroke-linejoin="round" stroke-width="1.5"/><path d="M13.244,14.8848A1.76,1.76,0,0,1,12,15.4h0a1.76,1.76,0,0,1-1.244-.5152l-2.108-2.108A2.2124,2.2124,0,1,1,11.7768,9.648L12,9.8712l.2232-.2232a2.2124,2.2124,0,1,1,3.1288,3.1288Z" fill="none" stroke="#323232" stroke-linecap="round" stroke-linejoin="round" stroke-width="1.5"/></svg>