<svg id="Layer_3" data-name="Layer 3" xmlns="http://www.w3.org/2000/svg" viewBox="0 0 24 24"><title>heart-favorite Remove-add-plus</title><path d="M0,0H24V24H0Z" fill="none"/><path d="M19,9a4,4,0,1,1,4-4,4,4,0,0,1-4,4" fill="none" stroke="#323232" stroke-linecap="round" stroke-linejoin="round" stroke-width="1.5"/><path d="M15,4.759a8.518,8.518,0,1,0,4.245,4.248" fill="none" stroke="#323232" stroke-linecap="round" stroke-linejoin="round" stroke-width="1.5"/><path d="M19,9a4,4,0,1,1,4-4,4,4,0,0,1-4,4" fill="none" stroke="#323232" stroke-linecap="round" stroke-linejoin="round" stroke-width="1.5"/><path d="M20.414,5H17.586" fill="none" stroke="#323232" stroke-linecap="round" stroke-linejoin="round" stroke-width="1.5"/><path d="M19,3.586V6.414" fill="none" stroke="#323232" stroke-linecap="round" stroke-linejoin="round" stroke-width="1.5"/><path d="M12.69,15.533a1.716,1.716,0,0,1-1.214.5h0a1.716,1.716,0,0,1-1.214-.5L8.206,13.477a2.158,2.158,0,0,1,3.052-3.052l.218.217.218-.217a2.158,2.158,0,0,1,3.052,3.052Z" fill="none" stroke="#323232" stroke-linecap="round" stroke-linejoin="round" stroke-width="1.5"/></svg>