<svg id="Layer_3" data-name="Layer 3" xmlns="http://www.w3.org/2000/svg" viewBox="0 0 24 24"><path d="M24,0H0V24H24Z" fill="none"/><line x1="13" y1="4" x2="13" y2="7" fill="none" stroke="#323232" stroke-linecap="round" stroke-linejoin="round" stroke-width="1.5"/><line x1="23" y1="4.0001" x2="1" y2="4" fill="none" stroke="#323232" stroke-linecap="round" stroke-linejoin="round" stroke-width="1.5"/><path d="M15,8v2.2A2.8,2.8,0,0,0,17.8,13h4.02235" fill="none" stroke="#323232" stroke-linecap="round" stroke-linejoin="round" stroke-width="1.5"/><line x1="14" y1="17" x2="13" y2="20" fill="none" stroke="#323232" stroke-linecap="round" stroke-linejoin="round" stroke-width="1.5"/><line x1="18" y1="17" x2="19" y2="20" fill="none" stroke="#323232" stroke-linecap="round" stroke-linejoin="round" stroke-width="1.5"/><path d="M22,19l-1.57771.78885A2,2,0,0,1,19.52786,20H10" fill="none" stroke="#323232" stroke-linecap="round" stroke-linejoin="round" stroke-width="1.5"/><path d="M15,10.2V8a1,1,0,0,0-1-1H12.23607a2,2,0,0,0-1.78886,1.10557L10,9H6.79541L5.51715,7.38037A.99974.99974,0,0,0,4.73239,7H3.00159a1,1,0,0,0-.85288,1.52214L4.7438,12.76106A.5.5,0,0,0,5.17023,13H10l1.17082,2.34164A3,3,0,0,0,13.8541,17H19.5A2.5,2.5,0,0,0,22,14.5h0A6.5,6.5,0,0,0,15.5,8H15" fill="none" stroke="#323232" stroke-linecap="round" stroke-linejoin="round" stroke-width="1.5"/></svg>