<svg id="Layer_3" data-name="Layer 3" xmlns="http://www.w3.org/2000/svg" viewBox="0 0 24 24"><title>home-more-menu</title><path d="M0,0H24V24H0Z" fill="none"/><path d="M19.842,8.299l-6-4.667a2.99937,2.99937,0,0,0-3.684,0l-6,4.667A2.99814,2.99814,0,0,0,3,10.667V18a2.99981,2.99981,0,0,0,3,3H18a2.99981,2.99981,0,0,0,3-3V10.667A2.99814,2.99814,0,0,0,19.842,8.299Z" fill="none" stroke="#323232" stroke-linecap="round" stroke-linejoin="round" stroke-width="1.5"/><path d="M16.25,14a.25.25,0,1,1-.25-.25" fill="none" stroke="#323232" stroke-linecap="round" stroke-linejoin="round" stroke-width="1.5"/><path d="M16,13.75a.25.25,0,0,1,.25.25" fill="none" stroke="#323232" stroke-linecap="round" stroke-linejoin="round" stroke-width="1.5"/><path d="M12.25,14a.25.25,0,1,1-.25-.25" fill="none" stroke="#323232" stroke-linecap="round" stroke-linejoin="round" stroke-width="1.5"/><path d="M12,13.75a.25.25,0,0,1,.25.25" fill="none" stroke="#323232" stroke-linecap="round" stroke-linejoin="round" stroke-width="1.5"/><path d="M8.25,14A.25.25,0,1,1,8,13.75" fill="none" stroke="#323232" stroke-linecap="round" stroke-linejoin="round" stroke-width="1.5"/><path d="M8,13.75a.25.25,0,0,1,.25.25" fill="none" stroke="#323232" stroke-linecap="round" stroke-linejoin="round" stroke-width="1.5"/></svg>