<svg id="Layer_3" data-name="Layer 3" xmlns="http://www.w3.org/2000/svg" viewBox="0 0 24 24"><path d="M0,0H24V24H0Z" fill="none"/><path d="M19.714,8.97732V4a1,1,0,0,0-1-1H16.857a1,1,0,0,0-1,1V5.67189" fill="none" stroke="#323232" stroke-linecap="round" stroke-linejoin="round" stroke-width="1.5"/><path d="M3,10.07942l7.698-6.598a2,2,0,0,1,2.603-.00008L21,10.07942" fill="none" stroke="#323232" stroke-linecap="round" stroke-linejoin="round" stroke-width="1.5"/><path d="M4.5,8.79376V19a2,2,0,0,0,2,2H9" fill="none" stroke="#323232" stroke-linecap="round" stroke-linejoin="round" stroke-width="1.5"/><polyline points="19.048 12.381 18.507 12.937 19.048 12.381" fill="none" stroke="#323232" stroke-linecap="round" stroke-linejoin="round" stroke-width="1.5"/><path d="M15.52871,16.21324,17.001,20.62987a.54117.54117,0,0,0,.97745.10728l.90795-1.51329a.984.984,0,0,1,.33749-.33749l1.51332-.908a.54117.54117,0,0,0-.1073-.97745l-4.41663-1.47221A.54116.54116,0,0,0,15.52871,16.21324Z" fill="none" stroke="#323232" stroke-linecap="round" stroke-linejoin="round" stroke-width="1.5"/><line x1="20.66667" y1="20.66667" x2="19.16667" y2="19.16667" fill="none" stroke="#323232" stroke-linecap="round" stroke-linejoin="round" stroke-width="1.5"/><line x1="15.71444" y1="11" x2="15.72444" y2="11.77556" fill="none" stroke="#323232" stroke-linecap="round" stroke-linejoin="round" stroke-width="1.5"/><polyline points="12.381 12.381 12.937 12.921 12.381 12.381" fill="none" stroke="#323232" stroke-linecap="round" stroke-linejoin="round" stroke-width="1.5"/><polyline points="11 15.714 11.776 15.703 11 15.714" fill="none" stroke="#323232" stroke-linecap="round" stroke-linejoin="round" stroke-width="1.5"/><polyline points="12.381 19.048 12.937 18.507 12.381 19.048" fill="none" stroke="#323232" stroke-linecap="round" stroke-linejoin="round" stroke-width="1.5"/></svg>