<svg id="Layer_3" data-name="Layer 3" xmlns="http://www.w3.org/2000/svg" viewBox="0 0 24 24"><path d="M0,24V0H24V24" fill="none"/><rect width="24" height="24" fill="none"/><path d="M8,21H4.714A1.714,1.714,0,0,1,3,19.286V16" fill="none" stroke="#323232" stroke-linecap="round" stroke-linejoin="round" stroke-width="1.5"/><path d="M16,4h3.286A1.714,1.714,0,0,1,21,5.714V9" fill="none" stroke="#323232" stroke-linecap="round" stroke-linejoin="round" stroke-width="1.5"/><path d="M12.5,17.25h2a.5.5,0,0,1,.5.5V21H12.5a.5.5,0,0,1-.5-.5V17.75A.5.5,0,0,1,12.5,17.25Z" fill="none" stroke="#323232" stroke-linecap="round" stroke-linejoin="round" stroke-width="1.5"/><path d="M15.5,13h2a.5.5,0,0,1,.5.5V21H15V13.5A.5.5,0,0,1,15.5,13Z" fill="none" stroke="#323232" stroke-linecap="round" stroke-linejoin="round" stroke-width="1.5"/><path d="M18.5,15.25h2a.5.5,0,0,1,.5.5V20.5a.5.5,0,0,1-.5.5H18V15.75A.5.5,0,0,1,18.5,15.25Z" fill="none" stroke="#323232" stroke-linecap="round" stroke-linejoin="round" stroke-width="1.5"/><path d="M3.045,5.88338V10.5a1.5,1.5,0,0,0,1.5,1.5h5a1.5,1.5,0,0,0,1.5-1.5V5.95538" fill="none" stroke="#323232" stroke-linecap="round" stroke-linejoin="round" stroke-width="1.5"/><path d="M12,6.71938,7.6247,3.21913a1,1,0,0,0-1.2494,0L2,6.71938" fill="none" stroke="#323232" stroke-linecap="round" stroke-linejoin="round" stroke-width="1.5"/></svg>