<svg id="Layer_3" data-name="Layer 3" xmlns="http://www.w3.org/2000/svg" viewBox="0 0 24 24"><path d="M21,10V7.5A4.5,4.5,0,0,0,16.5,3h-9A4.5,4.5,0,0,0,3,7.5v9A4.5,4.5,0,0,0,7.5,21H10" fill="none" stroke="#323232" stroke-linecap="round" stroke-linejoin="round" stroke-width="1.5"/><line x1="11" y1="12" x2="13" y2="12" fill="none" stroke="#323232" stroke-linecap="round" stroke-linejoin="round" stroke-width="1.5"/><line x1="11" y1="8" x2="17" y2="8" fill="none" stroke="#323232" stroke-linecap="round" stroke-linejoin="round" stroke-width="1.5"/><path d="M7,12.25a.247.247,0,0,1-.25-.244V12a.25.25,0,1,1,.25.25" fill="none" stroke="#323232" stroke-linecap="round" stroke-linejoin="round" stroke-width="1.5"/><path d="M7,8.25a.247.247,0,0,1-.25-.244V8A.25.25,0,1,1,7,8.25" fill="none" stroke="#323232" stroke-linecap="round" stroke-linejoin="round" stroke-width="1.5"/><path d="M13.9405,15.595V19.65a1.35,1.35,0,0,0,1.35,1.35h4.5a1.35,1.35,0,0,0,1.35-1.35V15.65984" fill="none" stroke="#323232" stroke-linecap="round" stroke-linejoin="round" stroke-width="1.5"/><path d="M22,16.34744l-3.93777-3.15022a.9.9,0,0,0-1.12446,0L13,16.34744" fill="none" stroke="#323232" stroke-linecap="round" stroke-linejoin="round" stroke-width="1.5"/><rect width="24" height="24" fill="none"/></svg>