<?xml version="1.0" encoding="utf-8"?>
<!-- Generator: Adobe Illustrator 24.0.2, SVG Export Plug-In . SVG Version: 6.00 Build 0)  -->
<svg version="1.1" id="Layer_3" xmlns="http://www.w3.org/2000/svg" xmlns:xlink="http://www.w3.org/1999/xlink" x="0px" y="0px"
	 width="24px" height="24px" viewBox="0 0 24 24" enable-background="new 0 0 24 24" xml:space="preserve">
<g>
	<path fill="none" d="M0,0h24v24H0V0z"/>
	<g>
		<path fill="none" stroke="#323232" stroke-width="1.5" stroke-linecap="round" stroke-linejoin="round" d="M10.489,14h3.022
			c0.884,0,1.6,0.716,1.6,1.6v3.289C15.111,20.607,13.718,22,12,22l0,0c-1.718,0-3.111-1.393-3.111-3.111V15.6
			C8.889,14.716,9.605,14,10.489,14z"/>
		<path fill="none" stroke="#323232" stroke-width="1.5" stroke-linecap="round" stroke-linejoin="round" d="M9.094,20
			C9.094,20,6,20,6,20c-1.657,0-3-1.343-3-3V9.667c0-0.926,0.427-1.8,1.158-2.368l6-4.667c1.084-0.843,2.601-0.843,3.684,0l6,4.667
			C20.573,7.867,21,8.741,21,9.667V17c0,1.657-1.343,3-3,3h-3.094"/>
		<path fill="none" stroke="#323232" stroke-width="1.5" stroke-linecap="round" stroke-linejoin="round" d="M9,9
			c1.657-1.657,4.343-1.657,6,0"/>
		<path fill="none" stroke="#323232" stroke-width="1.5" stroke-linecap="round" stroke-linejoin="round" d="M10.5,11
			c0.828-0.828,2.172-0.828,3,0"/>
		<path fill="none" stroke="#323232" stroke-width="1.5" stroke-linecap="round" stroke-linejoin="round" d="M11.999,17.611
			c-0.107,0-0.194,0.087-0.194,0.194C11.806,17.913,11.893,18,12,18c0.107,0,0.194-0.087,0.194-0.194S12.107,17.611,11.999,17.611"
			/>
	</g>
</g>
</svg>
