<svg id="Layer_3" data-name="Layer 3" xmlns="http://www.w3.org/2000/svg" viewBox="0 0 24 24"><path d="M0,0H24V24H0Z" fill="none"/><path d="M0,0H24V24H0Z" fill="none"/><path d="M3,18V10.66608a3,3,0,0,1,1.158-2.367l6-4.667a3,3,0,0,1,3.684,0l6,4.667A3,3,0,0,1,21,10.66608V18a3,3,0,0,1-3,3H6A3,3,0,0,1,3,18Z" fill="none" stroke="#323232" stroke-linecap="round" stroke-linejoin="round" stroke-width="1.5"/><path d="M14,12.5,11.5,15,10,13.5" fill="none" stroke="#323232" stroke-linecap="round" stroke-linejoin="round" stroke-width="1.5"/></svg>