<svg id="Layer_3" data-name="Layer 3" xmlns="http://www.w3.org/2000/svg" viewBox="0 0 24 24"><path d="M17.048,19.86964h-.96959a1.83562,1.83562,0,0,0-.764.16588l-3.87706,1.76574" fill="none" stroke="#323232" stroke-linecap="round" stroke-linejoin="round" stroke-width="1.5"/><path d="M12.97455,16.42938l1.008.91486a1.5,1.5,0,0,1,.00458,2.21728l-2.136,1.955a1.84321,1.84321,0,0,1-2.48273.00561L8.08435,20.35748A1.98541,1.98541,0,0,0,6.95,19.86536" fill="none" stroke="#323232" stroke-linecap="round" stroke-linejoin="round" stroke-width="1.5"/><path d="M3,10.7145l7.93505-6.80166a1.63636,1.63636,0,0,1,2.1299,0L21,10.7145" fill="none" stroke="#323232" stroke-linecap="round" stroke-linejoin="round" stroke-width="1.5"/><path d="M19.7145,9.61261V3.81818A.81818.81818,0,0,0,18.89632,3H16.44177a.81818.81818,0,0,0-.81818.81818V6.106" fill="none" stroke="#323232" stroke-linecap="round" stroke-linejoin="round" stroke-width="1.5"/><path d="M21,14H18.5A1.5,1.5,0,0,0,17,15.5v4A1.5,1.5,0,0,0,18.5,21H21" fill="none" stroke="#323232" stroke-linecap="round" stroke-linejoin="round" stroke-width="1.5"/><path d="M3,21H5.5A1.5,1.5,0,0,0,7,19.5v-4A1.5,1.5,0,0,0,5.5,14H3" fill="none" stroke="#323232" stroke-linecap="round" stroke-linejoin="round" stroke-width="1.5"/><path d="M17.50761,14.36919,14.34955,12.979a1.84314,1.84314,0,0,0-1.74454.14008l-2.4053,1.55838a1.38789,1.38789,0,0,0-.17787,2.19242h0a1.3888,1.3888,0,0,0,1.51876.22947l1.434-.66906" fill="none" stroke="#323232" stroke-linecap="round" stroke-linejoin="round" stroke-width="1.5"/><path d="M6.918,15.00725l2.22655-.80253a1.83213,1.83213,0,0,1,1.54364.15482" fill="none" stroke="#323232" stroke-linecap="round" stroke-linejoin="round" stroke-width="1.5"/><rect width="24" height="24" fill="none"/></svg>