<svg id="Layer_3" data-name="Layer 3" xmlns="http://www.w3.org/2000/svg" viewBox="0 0 24 24"><path d="M0,0H24V24H0Z" fill="none"/><path d="M20,17H16.535a1,1,0,0,0-.832.445l-.406.609a1,1,0,0,1-.832.445H9.535a1,1,0,0,1-.832-.445L8.3,17.445A1,1,0,0,0,7.464,17H4a1,1,0,0,0-1,1v1a2,2,0,0,0,2,2H19a2,2,0,0,0,2-2V18A1,1,0,0,0,20,17Z" fill="none" stroke="#323232" stroke-linecap="round" stroke-linejoin="round" stroke-width="1.5"/><path d="M20,17V15" fill="none" stroke="#323232" stroke-linecap="round" stroke-linejoin="round" stroke-width="1.5"/><path d="M4,17V7A2,2,0,0,1,6,5H9" fill="none" stroke="#323232" stroke-linecap="round" stroke-linejoin="round" stroke-width="1.5"/><path d="M12.045,5.88338V10.5a1.5,1.5,0,0,0,1.5,1.5h5a1.5,1.5,0,0,0,1.5-1.5V5.95538" fill="none" stroke="#323232" stroke-linecap="round" stroke-linejoin="round" stroke-width="1.5"/><path d="M21,6.71938,16.6247,3.21913a1,1,0,0,0-1.2494,0L11,6.71938" fill="none" stroke="#323232" stroke-linecap="round" stroke-linejoin="round" stroke-width="1.5"/></svg>