<?xml version="1.0" encoding="UTF-8"?><svg version="1.1" viewBox="0 0 24 24" xmlns="http://www.w3.org/2000/svg" xmlns:xlink="http://www.w3.org/1999/xlink"><!--Generated by IJSVG (https://github.com/iconjar/IJSVG)--><g fill="none"><path d="M0,0h24v24h-24v-24Z"></path><path stroke="#323232" stroke-width="1.5" d="M19.842,8.299l-6,-4.667c-1.083,-0.843 -2.6,-0.843 -3.684,0l-6,4.667c-0.731,0.568 -1.158,1.442 -1.158,2.368v7.333c0,1.657 1.343,3 3,3h12c1.657,0 3,-1.343 3,-3v-7.333c0,-0.926 -0.427,-1.8 -1.158,-2.368Z"></path><path stroke="#323232" stroke-linecap="round" stroke-linejoin="round" stroke-width="1.5" d="M14.121,11.379c1.172,1.172 1.172,3.071 0,4.243c-1.172,1.172 -3.071,1.172 -4.243,0c-1.172,-1.172 -1.172,-3.071 0,-4.243c1.172,-1.172 3.072,-1.172 4.243,0"></path></g></svg>