<svg id="Layer_3" data-name="Layer 3" xmlns="http://www.w3.org/2000/svg" viewBox="0 0 24 24"><path d="M0,0H24V24H0Z" fill="none"/><path d="M6.5,3.50038l1.5,1.5-1.5,1.5" fill="none" stroke="#323232" stroke-linecap="round" stroke-linejoin="round" stroke-width="1.5"/><path d="M8,5.00038H6A2.99981,2.99981,0,0,0,3,8v.00038" fill="none" stroke="#323232" stroke-linecap="round" stroke-linejoin="round" stroke-width="1.5"/><path d="M13.045,4.88338V9.5a1.5,1.5,0,0,0,1.5,1.5h5a1.5,1.5,0,0,0,1.5-1.5V4.95538" fill="none" stroke="#323232" stroke-linecap="round" stroke-linejoin="round" stroke-width="1.5"/><path d="M22,5.71938,17.6247,2.21913a1,1,0,0,0-1.2494,0L12,5.71938" fill="none" stroke="#323232" stroke-linecap="round" stroke-linejoin="round" stroke-width="1.5"/><path d="M3.045,14.88338V19.5a1.5,1.5,0,0,0,1.5,1.5h5a1.5,1.5,0,0,0,1.5-1.5V14.95538" fill="none" stroke="#323232" stroke-linecap="round" stroke-linejoin="round" stroke-width="1.5"/><path d="M12,15.71938,7.6247,12.21913a1,1,0,0,0-1.2494,0L2,15.71938" fill="none" stroke="#323232" stroke-linecap="round" stroke-linejoin="round" stroke-width="1.5"/><path d="M17.5,20.5,16,19l1.5-1.5" fill="none" stroke="#323232" stroke-linecap="round" stroke-linejoin="round" stroke-width="1.5"/><path d="M16,19h2a2.99981,2.99981,0,0,0,3-2.99962V16" fill="none" stroke="#323232" stroke-linecap="round" stroke-linejoin="round" stroke-width="1.5"/><path d="M24,24H0V0H24Z" fill="none"/></svg>