<svg id="Layer_3" data-name="Layer 3" xmlns="http://www.w3.org/2000/svg" viewBox="0 0 24 24"><line x1="7.5" y1="3" x2="7.5" y2="6" fill="none" stroke="#323232" stroke-linecap="round" stroke-linejoin="round" stroke-width="1.5"/><line x1="16.5" y1="3" x2="16.5" y2="6" fill="none" stroke="#323232" stroke-linecap="round" stroke-linejoin="round" stroke-width="1.5"/><path d="M10,21H6a3,3,0,0,1-3-3V7.5a3,3,0,0,1,3-3H18a3,3,0,0,1,3,3V11" fill="none" stroke="#323232" stroke-linecap="round" stroke-linejoin="round" stroke-width="1.5"/><path d="M13.045,14.88338V19.5a1.5,1.5,0,0,0,1.5,1.5h5a1.5,1.5,0,0,0,1.5-1.5V14.95538" fill="none" stroke="#323232" stroke-linecap="round" stroke-linejoin="round" stroke-width="1.5"/><path d="M22,15.71938l-4.3753-3.50025a1,1,0,0,0-1.2494,0L12,15.71938" fill="none" stroke="#323232" stroke-linecap="round" stroke-linejoin="round" stroke-width="1.5"/><rect width="24" height="24" fill="none"/></svg>