<svg id="Layer_3" data-name="Layer 3" xmlns="http://www.w3.org/2000/svg" viewBox="0 0 24 24"><rect width="24" height="24" fill="none"/><path d="M3,10.69562,10.93505,3.894a1.63636,1.63636,0,0,1,2.1299,0L21,10.69562" fill="none" stroke="#323232" stroke-linecap="round" stroke-linejoin="round" stroke-width="1.5"/><path d="M19.7145,9.61261V3.81818A.81818.81818,0,0,0,18.89632,3H16.44177a.81818.81818,0,0,0-.81818.81818V6.106" fill="none" stroke="#323232" stroke-linecap="round" stroke-linejoin="round" stroke-width="1.5"/><path d="M9.54545,20V14.81818A.81819.81819,0,0,1,10.36364,14H12" fill="none" stroke="#323232" stroke-linecap="round" stroke-linejoin="round" stroke-width="1.5"/><path d="M4.2855,9.61261V20" fill="none" stroke="#323232" stroke-linecap="round" stroke-linejoin="round" stroke-width="1.5"/><line x1="12" y1="20" x2="3" y2="20" fill="none" stroke="#323232" stroke-linecap="round" stroke-linejoin="round" stroke-width="1.5"/><path d="M17.26174,13.76208a.82128.82128,0,0,1,1.47326,0l.6003,1.21708a.81688.81688,0,0,0,.61789.44858l1.34462.2001a.82129.82129,0,0,1,.45407,1.40069l-.97191.94773a.81578.81578,0,0,0-.23528.72673l.22868,1.33693a.82018.82018,0,0,1-1.1907.86526l-1.20059-.63108a.81688.81688,0,0,0-.76962,0l-1.19949.63108a.82018.82018,0,0,1-1.1907-.86526L15.451,18.703a.819.819,0,0,0-.23528-.72673l-.96751-.94773a.82128.82128,0,0,1,.453-1.40069l1.34352-.2001a.8169.8169,0,0,0,.61789-.44858Z" fill="none" stroke="#323232" stroke-linecap="round" stroke-linejoin="round" stroke-width="1.5"/><rect width="24" height="24" fill="none"/></svg>