<svg id="Layer_3" data-name="Layer 3" xmlns="http://www.w3.org/2000/svg" viewBox="0 0 24 24"><title>Artboard 213</title><path d="M12.586,21H10V18.414a1,1,0,0,1,.293-.707l4-4a1,1,0,0,1,1.414,0l1.586,1.586a1,1,0,0,1,0,1.414l-4,4A1,1,0,0,1,12.586,21Z" fill="none" stroke="#323232" stroke-linecap="round" stroke-linejoin="round" stroke-width="1.5"/><path d="M17,21h1a3,3,0,0,0,3-3V10.667A3,3,0,0,0,19.842,8.3l-6-4.667a3,3,0,0,0-3.684,0l-6,4.667A3,3,0,0,0,3,10.667V18a3,3,0,0,0,3,3H7" fill="none" stroke="#323232" stroke-linecap="round" stroke-linejoin="round" stroke-width="1.5"/><path d="M0,0H24V24H0Z" fill="none"/></svg>