<?xml version="1.0" encoding="utf-8"?>
<!-- Generator: Adobe Illustrator 24.0.2, SVG Export Plug-In . SVG Version: 6.00 Build 0)  -->
<svg version="1.1" id="Layer_3" xmlns="http://www.w3.org/2000/svg" xmlns:xlink="http://www.w3.org/1999/xlink" x="0px" y="0px"
	 width="24px" height="24px" viewBox="0 0 24 24" enable-background="new 0 0 24 24" xml:space="preserve">
<g>
	<path fill="none" d="M0,0h24v24H0V0z"/>
	<g>
		<path fill="none" stroke="#323232" stroke-width="1.5" stroke-linecap="round" stroke-linejoin="round" d="M17,19.5h2"/>
		<path fill="none" stroke="#323232" stroke-width="1.5" stroke-linecap="round" stroke-linejoin="round" d="M20,22h-4
			c-1.105,0-2-0.895-2-2v-8c0-1.105,0.895-2,2-2h4c1.105,0,2,0.895,2,2v8C22,21.105,21.105,22,20,22z"/>
		<path fill="none" stroke="#323232" stroke-width="1.5" stroke-linecap="round" stroke-linejoin="round" d="M14,3h4
			c1.105,0,2,0.895,2,2v1"/>
		<path fill="none" stroke="#323232" stroke-width="1.5" stroke-linecap="round" stroke-linejoin="round" d="M10,19.143H5.714
			C4.768,19.143,4,18.375,4,17.429V15"/>
		<path fill="none" stroke="#323232" stroke-width="1.5" stroke-miterlimit="10" d="M10.485,5.355L7.819,3.281
			c-0.481-0.374-1.156-0.374-1.637,0L3.515,5.355C3.19,5.608,3,5.996,3,6.407v3.259C3,10.403,3.597,11,4.333,11h5.333
			C10.403,11,11,10.403,11,9.667V6.407C11,5.996,10.81,5.608,10.485,5.355z"/>
	</g>
</g>
</svg>
