<svg id="Layer_3" data-name="Layer 3" xmlns="http://www.w3.org/2000/svg" viewBox="0 0 24 24"><title>horn-trumpet-square</title><path d="M12.79153,14.3145l-2.65734.712a2.48929,2.48929,0,0,1-3.04875-1.7602h0a2.48929,2.48929,0,0,1,1.76019-3.04875l2.65735-.712a1,1,0,0,0,.40465-.21773L13.85731,7.559a.99572.99572,0,0,1,1.62242.48728l1.48542,5.54369a.99572.99572,0,0,1-1.16141,1.23322l-2.55291-.52242A1.00006,1.00006,0,0,0,12.79153,14.3145Z" fill="none" stroke="#323232" stroke-linecap="round" stroke-linejoin="round" stroke-width="1.5"/><rect x="3" y="3" width="18" height="18" rx="4" stroke-width="1.5" stroke="#323232" stroke-linecap="round" stroke-linejoin="round" fill="none"/><line x1="9.76229" y1="9.98635" x2="11.6114" y2="16.69241" fill="none" stroke="#323232" stroke-linecap="round" stroke-linejoin="round" stroke-width="1.5"/><path d="M0,0H24V24H0Z" fill="none"/></svg>