<?xml version="1.0" encoding="utf-8"?>
<!-- Generator: Adobe Illustrator 24.0.2, SVG Export Plug-In . SVG Version: 6.00 Build 0)  -->
<svg version="1.1" id="Layer_1" xmlns="http://www.w3.org/2000/svg" xmlns:xlink="http://www.w3.org/1999/xlink" x="0px" y="0px"
	 width="24px" height="24px" viewBox="0 0 24 24" enable-background="new 0 0 24 24" xml:space="preserve">
<g>
	<g>
		<path fill="none" stroke="#323232" stroke-width="1.5" stroke-linecap="round" stroke-linejoin="round" d="M13.998,15
			l-6.998-0.002C4.791,14.998,3,13.206,3,10.996V9.999c0-2.21,1.791-4.001,4.001-4.001h6.998l3.872-2.646
			C19.199,2.445,21,3.396,21,5.004v10.992c0,1.608-1.802,2.559-3.129,1.651L13.998,15z"/>
		
			<line fill="none" stroke="#323232" stroke-width="1.5" stroke-linecap="round" stroke-linejoin="round" x1="14" y1="6" x2="14" y2="15"/>
		<path fill="none" stroke="#323232" stroke-width="1.5" stroke-linecap="round" stroke-linejoin="round" d="M6,15l1.529,3.858
			C7.802,19.548,8.464,20,9.199,20h0c1.271,0,2.141-1.294,1.672-2.487L9.882,15"/>
	</g>
	<path fill="none" d="M0,0h24v24H0V0z"/>
</g>
</svg>
