<svg id="Layer_3" data-name="Layer 3" xmlns="http://www.w3.org/2000/svg" viewBox="0 0 24 24"><title>horn-trumpet</title><path d="M0,0H24V24H0Z" fill="none"/><path d="M18.014,18.9,4.792,14.527A1.875,1.875,0,0,1,3.5,12.749v-2.5A1.875,1.875,0,0,1,4.792,8.473L18.014,4.1A1.886,1.886,0,0,1,20.5,5.876V17.124A1.886,1.886,0,0,1,18.014,18.9Z" fill="none" stroke="#323232" stroke-linecap="round" stroke-linejoin="round" stroke-width="1.5"/><path d="M8.312,15.692A2.966,2.966,0,0,0,8,17a3,3,0,0,0,5.944.556" fill="none" stroke="#323232" stroke-linecap="round" stroke-linejoin="round" stroke-width="1.5"/><line x1="8.312" y1="15.692" x2="13.944" y2="17.556" fill="none" stroke="#323232" stroke-linecap="round" stroke-linejoin="round" stroke-width="1.5"/></svg>