<?xml version="1.0" encoding="UTF-8"?><svg version="1.1" viewBox="0 0 24 24" xmlns="http://www.w3.org/2000/svg" xmlns:xlink="http://www.w3.org/1999/xlink"><!--Generated by IJSVG (https://github.com/iconjar/IJSVG)--><g fill="none"><path d="M0,0h24v24h-24v-24Z"></path><path stroke="#323232" stroke-linecap="round" stroke-linejoin="round" stroke-width="1.5" d="M16.75,14.221v-6.11c0,-0.735 -0.7,-1.267 -1.408,-1.071l-7.86,2.184c-0.432,0.121 -0.732,0.515 -0.732,0.964v1.532c0,0.431 0.276,0.813 0.685,0.949l7.854,2.607c0.719,0.239 1.461,-0.297 1.461,-1.055Z"></path><path stroke="#323232" stroke-linecap="round" stroke-linejoin="round" stroke-width="1.5" d="M12.53,17l-2.78,-0.92"></path><path stroke="#323232" stroke-linecap="round" stroke-linejoin="round" stroke-width="1.5" d="M16,21h-8c-2.761,0 -5,-2.239 -5,-5v-8c0,-2.761 2.239,-5 5,-5h8c2.761,0 5,2.239 5,5v8c0,2.761 -2.239,5 -5,5Z"></path></g></svg>