<svg id="Layer_3" data-name="Layer 3" xmlns="http://www.w3.org/2000/svg" viewBox="0 0 24 24"><title>horn-trumpet-circle</title><circle cx="12" cy="12" r="9" fill="none" stroke="#323232" stroke-linecap="round" stroke-linejoin="round" stroke-width="1.5"/><path d="M14.684,15.637l-7-2.315A.992.992,0,0,1,7,12.381V11.058a.992.992,0,0,1,.684-.941l7-2.315A1,1,0,0,1,16,8.742V14.7A1,1,0,0,1,15,15.689.966.966,0,0,1,14.684,15.637Z" fill="none" stroke="#323232" stroke-linecap="round" stroke-linejoin="round" stroke-width="1.5"/><path d="M9.528,13.932a1.847,1.847,0,1,0,3.412,1.129" fill="none" stroke="#323232" stroke-linecap="round" stroke-linejoin="round" stroke-width="1.5"/><path d="M24,24H0V0H24Z" fill="none"/></svg>