<svg id="Layer_3" data-name="Layer 3" xmlns="http://www.w3.org/2000/svg" viewBox="0 0 24 24"><title>horn-trumpet-square</title><path d="M5.316,18.112A1.851,1.851,0,1,0,8.7,19.231" fill="none" stroke="#323232" stroke-linecap="round" stroke-linejoin="round" stroke-width="1.5"/><path d="M10.684,19.887l-7-2.315A.992.992,0,0,1,3,16.631V15.308a.992.992,0,0,1,.684-.941l7-2.315a1,1,0,0,1,1.316.94v5.955A1,1,0,0,1,11,19.939.966.966,0,0,1,10.684,19.887Z" fill="none" stroke="#323232" stroke-linecap="round" stroke-linejoin="round" stroke-width="1.5"/><path d="M3,11V8A5,5,0,0,1,8,3h8a5,5,0,0,1,5,5v9a4,4,0,0,1-4,4H15" fill="none" stroke="#323232" stroke-linecap="round" stroke-linejoin="round" stroke-width="1.5"/><path d="M0,0H24V24H0Z" fill="none"/></svg>