<svg id="Layer_3" data-name="Layer 3" xmlns="http://www.w3.org/2000/svg" viewBox="0 0 24 24"><title>hospital-board-square</title><path d="M16,10.182H13.82V8a1,1,0,0,0-1-1H11.184a1,1,0,0,0-1,1v2.182H8a1,1,0,0,0-1,1v1.636a1,1,0,0,0,1,1h2.182V16a1,1,0,0,0,1,1H12.82a1,1,0,0,0,1-1V13.818H16a1,1,0,0,0,1-1V11.182A1,1,0,0,0,16,10.182Z" fill="none" stroke="#323232" stroke-linecap="round" stroke-linejoin="round" stroke-width="1.5"/><rect x="3.002" y="3" width="18" height="18" rx="5" stroke-width="1.5" stroke="#323232" stroke-linecap="round" stroke-linejoin="round" fill="none"/><path d="M0,0H24V24H0Z" fill="none"/></svg>