<?xml version="1.0" encoding="utf-8"?>
<!-- Generator: Adobe Illustrator 24.0.2, SVG Export Plug-In . SVG Version: 6.00 Build 0)  -->
<svg version="1.1" id="Layer_1" xmlns="http://www.w3.org/2000/svg" xmlns:xlink="http://www.w3.org/1999/xlink" x="0px" y="0px"
	 width="24px" height="24px" viewBox="0 0 24 24" enable-background="new 0 0 24 24" xml:space="preserve">
<g>
	<g>
		<g>
			<path id="a_16_" fill="none" d="M0,0h24v24H0V0z"/>
		</g>
		<g>
			<path id="a_10_" fill="none" d="M0,0h24v24H0V0z"/>
		</g>
	</g>
	<g>
		<path fill="none" stroke="#323232" stroke-width="1.5" stroke-linecap="round" stroke-linejoin="round" d="M10.723,7.365
			l0.433-0.433c1.172-1.172,3.071-1.172,4.243,0l4.513,4.513c1.451,1.451,1.451,3.803,0,5.254l-0.221,0.221
			c-1.451,1.451-3.803,1.451-5.254,0l-3.513-3.513"/>
		<path fill="none" stroke="#323232" stroke-width="1.5" stroke-linecap="round" stroke-linejoin="round" d="M5.502,14.513
			C4.025,13.775,3,12.264,3,10.5C3,8.015,5.015,6,7.5,6S12,8.015,12,10.5c0,1.763-1.024,3.274-2.5,4.012V14.51l-0.001,4.494
			c-0.001,0.264-0.106,0.517-0.293,0.703l-1.002,1.002c-0.39,0.389-1.02,0.388-1.409-0.001l-1.003-1.005
			C5.605,19.516,5.5,19.262,5.5,18.998l0.002-4.487"/>
		<path fill="none" stroke="#323232" stroke-width="1.5" stroke-linecap="round" stroke-linejoin="round" d="M7.5,10.25v-4.5
			C7.5,4.231,8.731,3,10.25,3h0C11.769,3,13,4.231,13,5.75v0.317"/>
		<path fill="none" stroke="#323232" stroke-width="1.5" stroke-linecap="round" stroke-linejoin="round" d="M7.499,10.25
			c-0.138,0-0.25,0.112-0.248,0.25c0,0.138,0.112,0.25,0.25,0.25s0.25-0.112,0.25-0.25C7.75,10.362,7.638,10.25,7.499,10.25"/>
	</g>
</g>
</svg>
