<?xml version="1.0" encoding="utf-8"?>
<!-- Generator: Adobe Illustrator 24.0.2, SVG Export Plug-In . SVG Version: 6.00 Build 0)  -->
<svg version="1.1" id="Layer_1" xmlns="http://www.w3.org/2000/svg" xmlns:xlink="http://www.w3.org/1999/xlink" x="0px" y="0px"
	 width="24px" height="24px" viewBox="0 0 24 24" enable-background="new 0 0 24 24" xml:space="preserve">
<g>
	<g>
		<g>
			<path fill="none" stroke="#323232" stroke-width="1.5" stroke-linecap="round" stroke-linejoin="round" d="M9,21H4.714
				C3.767,21,3,20.233,3,19.286V15"/>
			<path fill="none" stroke="#323232" stroke-width="1.5" stroke-linecap="round" stroke-linejoin="round" d="M3,4.355V9.5
				C3,9.776,3.224,10,3.5,10h6.053c0.276,0,0.5-0.224,0.5-0.5V4.355"/>
			<path fill="none" stroke="#323232" stroke-width="1.5" stroke-linecap="round" stroke-linejoin="round" d="M2,5l4.592-3L11,5"/>
			<path fill="none" stroke="#323232" stroke-width="1.5" stroke-linecap="round" stroke-linejoin="round" d="M16,3h3.286
				C20.233,3,21,3.767,21,4.714V8"/>
		</g>
		<path fill="none" stroke="#323232" stroke-width="1.5" stroke-linecap="round" stroke-linejoin="round" d="M17,22
			C19.75,22,22,19.75,22,17.001S19.75,12,17,12S12,14.25,12,17.001c0,1.122,0.379,2.156,1.008,2.993C13.923,21.208,15.372,22,17,22"
			/>
		<path fill="none" stroke="#323232" stroke-width="1.5" stroke-linecap="round" stroke-linejoin="round" d="M17,14.955v-0.455"/>
		<path fill="none" stroke="#323232" stroke-width="1.5" stroke-linecap="round" stroke-linejoin="round" d="M17,19.046v0.455"/>
		<path fill="none" stroke="#323232" stroke-width="1.5" stroke-linecap="round" stroke-linejoin="round" d="M15.816,18.558
			c0.176,0.289,0.478,0.489,0.843,0.489H17h0.406c0.529,0,0.957-0.429,0.957-0.957c0-0.439-0.299-0.822-0.725-0.929L16.36,16.84
			c-0.425-0.106-0.725-0.489-0.725-0.928c0-0.529,0.429-0.957,0.957-0.957H17h0.341c0.364,0,0.665,0.199,0.841,0.487"/>
	</g>
	<path fill="none" d="M0,0h24v24H0V0z"/>
</g>
</svg>
