<?xml version="1.0" encoding="utf-8"?>
<!-- Generator: Adobe Illustrator 24.0.2, SVG Export Plug-In . SVG Version: 6.00 Build 0)  -->
<svg version="1.1" id="Layer_1" xmlns="http://www.w3.org/2000/svg" xmlns:xlink="http://www.w3.org/1999/xlink" x="0px" y="0px"
	 width="24px" height="24px" viewBox="0 0 24 24" enable-background="new 0 0 24 24" xml:space="preserve">
<g>
	<path fill="none" d="M0,0h24v24H0V0z"/>
	<g>
		<path fill="none" stroke="#323232" stroke-width="1.5" stroke-linecap="round" stroke-linejoin="round" d="M8.938,10.561V15
			c0,0.276,0.224,0.5,0.5,0.5h5.171c0.276,0,0.5-0.224,0.5-0.5v-4.439"/>
		<path fill="none" stroke="#323232" stroke-width="1.5" stroke-linecap="round" stroke-linejoin="round" d="M4.151,16.396
			C3.421,15.096,3,13.598,3,12c0-4.971,4.029-9,9-9s9,4.029,9,9s-4.029,9-9,9c-1.598,0-3.096-0.421-4.396-1.151L3,21L4.151,16.396z"
			/>
		<path fill="none" stroke="#323232" stroke-width="1.5" stroke-linecap="round" stroke-linejoin="round" d="M8,11.167L12.082,8.5
			L16,11.167"/>
	</g>
</g>
</svg>
