<?xml version="1.0" encoding="utf-8"?>
<!-- Generator: Adobe Illustrator 24.0.2, SVG Export Plug-In . SVG Version: 6.00 Build 0)  -->
<svg version="1.1" id="Layer_3" xmlns="http://www.w3.org/2000/svg" xmlns:xlink="http://www.w3.org/1999/xlink" x="0px" y="0px"
	 width="24px" height="24px" viewBox="0 0 24 24" enable-background="new 0 0 24 24" xml:space="preserve">
<g>
	<rect id="_Transparent_Rectangle__48_" fill="none" width="24" height="24"/>
	<g>
		<g>
			<path fill="none" stroke="#323232" stroke-width="1.5" stroke-linecap="round" stroke-linejoin="round" d="M10.642,12.934V9.358
				C10.642,8.608,11.25,8,12,8s1.358,0.608,1.358,1.358v3.577v0.001c0.547,0.413,0.906,1.062,0.906,1.8
				C14.262,15.987,13.25,17,12,17s-2.263-1.013-2.263-2.263c0-0.738,0.359-1.388,0.906-1.8"/>
		</g>
		<path fill="none" stroke="#323232" stroke-width="1.5" stroke-linecap="round" stroke-linejoin="round" d="M5,21
			c0-1.105-0.895-2-2-2"/>
		<path fill="none" stroke="#323232" stroke-width="1.5" stroke-linecap="round" stroke-linejoin="round" d="M8,21
			c0-2.761-2.239-5-5-5"/>
		<g>
			<path fill="none" stroke="#323232" stroke-width="1.5" stroke-linecap="round" stroke-linejoin="round" d="M12,21h6
				c1.657,0,3-1.343,3-3v-7.333c0-0.926-0.427-1.8-1.158-2.368l-6-4.667c-1.083-0.843-2.6-0.843-3.684,0l-6,4.667
				C3.427,8.867,3,9.741,3,10.667V12"/>
		</g>
	</g>
</g>
</svg>
