<?xml version="1.0" encoding="utf-8"?>
<!-- Generator: Adobe Illustrator 24.0.2, SVG Export Plug-In . SVG Version: 6.00 Build 0)  -->
<svg version="1.1" id="Layer_1" xmlns="http://www.w3.org/2000/svg" xmlns:xlink="http://www.w3.org/1999/xlink" x="0px" y="0px"
	 width="24px" height="24px" viewBox="0 0 24 24" enable-background="new 0 0 24 24" xml:space="preserve">
<g>
	<path fill="none" d="M0,0h24v24H0V0z"/>
	<g>
		<path fill="none" stroke="#323232" stroke-width="1.5" stroke-linecap="round" stroke-linejoin="round" d="M20,15.126V7
			c0-2.209-1.791-4-4-4H7C4.791,3,3,4.791,3,7v9c0,2.209,1.791,4,4,4h8.126"/>
		<path fill="none" stroke="#323232" stroke-width="1.5" stroke-linecap="round" stroke-linejoin="round" d="M19,23
			c-2.209,0-4-1.791-4-4s1.791-4,4-4c2.21,0,4,1.791,4,4S21.21,23,19,23"/>
		<path fill="none" stroke="#323232" stroke-width="1.5" stroke-linecap="round" stroke-linejoin="round" d="M20.333,18.333
			L18.667,20l-1-1"/>
		<g>
			<path fill="none" stroke="#323232" stroke-width="1.5" stroke-linecap="round" stroke-linejoin="round" d="M8.852,10.266V14
				c0,0.276,0.224,0.5,0.5,0.5h4.29c0.276,0,0.5-0.224,0.5-0.5v-3.734"/>
			<path fill="none" stroke="#323232" stroke-width="1.5" stroke-linecap="round" stroke-linejoin="round" d="M7.977,10.833
				L11.548,8.5l3.428,2.333"/>
		</g>
	</g>
</g>
</svg>
