<?xml version="1.0" encoding="utf-8"?>
<!-- Generator: Adobe Illustrator 24.0.2, SVG Export Plug-In . SVG Version: 6.00 Build 0)  -->
<svg version="1.1" id="Layer_1" xmlns="http://www.w3.org/2000/svg" xmlns:xlink="http://www.w3.org/1999/xlink" x="0px" y="0px"
	 width="24px" height="24px" viewBox="0 0 24 24" enable-background="new 0 0 24 24" xml:space="preserve">
<g>
	<path fill="none" d="M0,0h24v24H0V0z"/>
	<g>
		<path fill="none" stroke="#323232" stroke-width="1.5" stroke-linecap="round" stroke-linejoin="round" d="M15,21h2.714
			c1.105,0,2-0.895,2-2V4c0-0.552-0.448-1-1-1h-1.857c-0.552,0-1,0.448-1,1v2.306"/>
		<path fill="none" stroke="#323232" stroke-width="1.5" stroke-linecap="round" stroke-linejoin="round" d="M3,10.714l7.698-6.598
			c0.749-0.642,1.854-0.642,2.603,0L21,10.714"/>
		<path fill="none" stroke="#323232" stroke-width="1.5" stroke-linecap="round" stroke-linejoin="round" d="M5.502,16.685
			l1.846-3.021c0.711-1.163,2.502-0.66,2.502,0.704c0,0,0,1.595,0,1.595h0.89h0.62c0.453,0,0.876,0.227,1.128,0.606
			c0.223,0.335,0.288,0.752,0.177,1.139l-0.732,2.562C11.809,20.702,11.414,21,10.965,21H7.382c-0.291,0-0.574-0.102-0.798-0.288
			l-1.082-0.897"/>
		<path fill="none" stroke="#323232" stroke-width="1.5" stroke-linecap="round" stroke-linejoin="round" d="M5.002,21h-1.5
			c-0.276,0-0.5-0.224-0.5-0.5V16c0-0.276,0.224-0.5,0.5-0.5h1.5c0.276,0,0.5,0.224,0.5,0.5v4.5C5.502,20.776,5.278,21,5.002,21z"/>
	</g>
</g>
</svg>
