<?xml version="1.0" encoding="utf-8"?>
<!-- Generator: Adobe Illustrator 24.0.2, SVG Export Plug-In . SVG Version: 6.00 Build 0)  -->
<svg version="1.1" id="Layer_1" xmlns="http://www.w3.org/2000/svg" xmlns:xlink="http://www.w3.org/1999/xlink" x="0px" y="0px"
	 width="24px" height="24px" viewBox="0 0 24 24" enable-background="new 0 0 24 24" xml:space="preserve">
<g>
	<g>
		<g transform="matrix(-1,-4.48687e-11,4.48687e-11,-1,24,24)">
			<path id="a_9_" fill="none" d="M24,24H0V0h24V24z"/>
		</g>
		<g>
			<path id="a_8_" fill="none" d="M0,0h24v24H0V0z"/>
		</g>
	</g>
	<g>
		<path fill="none" stroke="#323232" stroke-width="1.5" stroke-linecap="round" stroke-linejoin="round" d="M15,3.01V11"/>
		<path fill="none" stroke="#323232" stroke-width="1.5" stroke-linecap="round" stroke-linejoin="round" d="M9,4.78V19"/>
		<path fill="none" stroke="#323232" stroke-width="1.5" stroke-linecap="round" stroke-linejoin="round" d="M14.889,16.093V20.5
			c0,0.276,0.224,0.5,0.5,0.5h5.269c0.276,0,0.5-0.224,0.5-0.5v-4.407"/>
		<path fill="none" stroke="#323232" stroke-width="1.5" stroke-linecap="round" stroke-linejoin="round" d="M14,16.667L18.082,14
			L22,16.667"/>
		<g>
			<path fill="none" stroke="#323232" stroke-width="1.5" stroke-linecap="round" stroke-linejoin="round" d="M21,12V5.613
				c0-0.431-0.275-0.813-0.684-0.949l-4.684-1.561c-0.41-0.137-0.854-0.137-1.265-0.001L9.632,4.68
				c-0.411,0.137-0.854,0.137-1.265,0L4.316,3.33C3.669,3.114,3,3.596,3,4.279v11.339c0,0.379,0.214,0.725,0.553,0.895l4.553,2.276
				c0.563,0.282,1.226,0.282,1.789,0L11,18.236"/>
		</g>
	</g>
</g>
</svg>
