<?xml version="1.0" encoding="utf-8"?>
<!-- Generator: Adobe Illustrator 24.0.2, SVG Export Plug-In . SVG Version: 6.00 Build 0)  -->
<svg version="1.1" id="Layer_1" xmlns="http://www.w3.org/2000/svg" xmlns:xlink="http://www.w3.org/1999/xlink" x="0px" y="0px"
	 width="24px" height="24px" viewBox="0 0 24 24" enable-background="new 0 0 24 24" xml:space="preserve">
<g>
	<path fill="none" d="M24,24H0L0,0l24,0V24z"/>
	<g>
		<path fill="none" stroke="#323232" stroke-width="1.5" stroke-linecap="round" stroke-linejoin="round" d="M15,21h2.714
			c1.105,0,2-0.895,2-2V4c0-0.552-0.448-1-1-1h-1.857c-0.552,0-1,0.448-1,1v2.306"/>
		<path fill="none" stroke="#323232" stroke-width="1.5" stroke-linecap="round" stroke-linejoin="round" d="M3,10.714l7.698-6.598
			c0.749-0.642,1.854-0.642,2.603,0L21,10.714"/>
		<path fill="none" stroke="#323232" stroke-width="1.5" stroke-linecap="round" stroke-linejoin="round" d="M9.556,16.223
			l-1.945,1.945l-1.167-1.167"/>
		<path fill="none" stroke="#323232" stroke-width="1.5" stroke-linecap="round" stroke-linejoin="round" d="M3.275,17.814
			l0.664,0.869l0.144,1.081c0.08,0.6,0.551,1.072,1.151,1.152l1.084,0.145l0.868,0.664c0.48,0.367,1.147,0.367,1.627,0l0.869-0.664
			H9.681l1.082-0.144c0.6-0.08,1.072-0.551,1.152-1.151l0.145-1.084c0,0.001,0.336-0.439,0.664-0.868
			c0.367-0.48,0.367-1.147,0-1.627l-0.664-0.869l-0.144-1.081c-0.08-0.6-0.551-1.072-1.151-1.152L9.681,12.94l-0.868-0.664
			c-0.48-0.367-1.147-0.367-1.627,0L6.317,12.94h0.001l-1.082,0.144c-0.6,0.08-1.072,0.551-1.152,1.151l-0.145,1.084
			c0-0.001-0.336,0.439-0.664,0.868C2.908,16.667,2.908,17.333,3.275,17.814z"/>
	</g>
</g>
</svg>
