<?xml version="1.0" encoding="utf-8"?>
<!-- Generator: Adobe Illustrator 24.0.2, SVG Export Plug-In . SVG Version: 6.00 Build 0)  -->
<svg version="1.1" id="Layer_1" xmlns="http://www.w3.org/2000/svg" xmlns:xlink="http://www.w3.org/1999/xlink" x="0px" y="0px"
	 width="24px" height="24px" viewBox="0 0 24 24" enable-background="new 0 0 24 24" xml:space="preserve">
<g>
	<g>
		<path fill="none" stroke="#323232" stroke-width="1.5" stroke-linecap="round" stroke-linejoin="round" d="M19.714,9.612V4
			c0-0.552-0.448-1-1-1h-1.857c-0.552,0-1,0.448-1,1v2.306"/>
		<path fill="none" stroke="#323232" stroke-width="1.5" stroke-linecap="round" stroke-linejoin="round" d="M3,10.714l7.698-6.598
			c0.749-0.642,1.854-0.642,2.603,0L21,10.714"/>
		<path fill="none" stroke="#323232" stroke-width="1.5" stroke-linecap="round" stroke-linejoin="round" d="M4.286,9.612V19
			c0,1.105,0.895,2,2,2H11"/>
		<path fill="none" stroke="#323232" stroke-width="1.5" stroke-linecap="round" stroke-linejoin="round" d="M18.343,20.023
			l1.755,0.922c0.342,0.18,0.741-0.111,0.676-0.491L20.439,18.5l1.42-1.383c0.277-0.269,0.124-0.739-0.258-0.794l-1.962-0.285
			l-0.877-1.779c-0.171-0.346-0.665-0.346-0.835,0l-0.877,1.779l-1.962,0.285c-0.382,0.056-0.535,0.525-0.258,0.794l1.42,1.383
			l-0.336,1.955c-0.065,0.38,0.334,0.67,0.676,0.491l1.755-0.922"/>
	</g>
	<g>
		<path fill="none" d="M0,0h24v24H0V0z"/>
	</g>
</g>
</svg>
