<?xml version="1.0" encoding="utf-8"?>
<!-- Generator: Adobe Illustrator 24.0.2, SVG Export Plug-In . SVG Version: 6.00 Build 0)  -->
<svg version="1.1" id="Layer_1" xmlns="http://www.w3.org/2000/svg" xmlns:xlink="http://www.w3.org/1999/xlink" x="0px" y="0px"
	 width="24px" height="24px" viewBox="0 0 24 24" enable-background="new 0 0 24 24" xml:space="preserve">
<g>
	<g>
		<path fill="none" stroke="#323232" stroke-width="1.5" stroke-linecap="round" stroke-linejoin="round" d="M8.842,10.233v3.734
			c0,0.276,0.224,0.5,0.5,0.5h4.29c0.276,0,0.5-0.224,0.5-0.5v-3.734"/>
		<path fill="none" stroke="#323232" stroke-width="1.5" stroke-linecap="round" stroke-linejoin="round" d="M7.967,10.8
			l3.572-2.333l3.428,2.333"/>
		<g>
			<path fill="none" stroke="#323232" stroke-width="1.5" stroke-linecap="round" stroke-linejoin="round" d="M20,20l-3.25-3.25"/>
		</g>
		<path fill="none" stroke="#323232" stroke-width="1.5" stroke-linecap="round" stroke-linejoin="round" d="M16.747,6.187
			c2.916,2.916,2.916,7.644,0,10.56c-2.916,2.916-7.644,2.916-10.56,0c-2.916-2.916-2.916-7.644,0-10.56
			C9.103,3.271,13.831,3.271,16.747,6.187"/>
	</g>
	<path fill="none" d="M24,0v24H0V0H24z"/>
</g>
</svg>
