<?xml version="1.0" encoding="utf-8"?>
<!-- Generator: Adobe Illustrator 24.0.2, SVG Export Plug-In . SVG Version: 6.00 Build 0)  -->
<svg version="1.1" id="Layer_3" xmlns="http://www.w3.org/2000/svg" xmlns:xlink="http://www.w3.org/1999/xlink" x="0px" y="0px"
	 width="24px" height="24px" viewBox="0 0 24 24" enable-background="new 0 0 24 24" xml:space="preserve">
<g>
	<g>
		<g>
			
				<path fill="none" stroke="#323232" stroke-width="1.5" stroke-linecap="round" stroke-linejoin="round" stroke-miterlimit="10" d="
				M13.461,20.737l4.417-2.524c1.072-0.612,1.801-1.685,1.975-2.907l1.105-7.739C21.303,5.156,19.433,3,16.999,3H7.001
				c-2.434,0-4.304,2.156-3.96,4.566l1.085,7.596c0.186,1.304,1.003,2.433,2.184,3.018l5.271,2.612
				C12.178,21.088,12.883,21.067,13.461,20.737z"/>
		</g>
		
			<polyline fill="none" stroke="#323232" stroke-width="1.5" stroke-linecap="round" stroke-linejoin="round" stroke-miterlimit="10" points="
			8,14 8.111,14.778 12,17 15.889,14.778 16.429,11 7.571,11 7,7 17,7 		"/>
	</g>
	<path fill="none" d="M0,0h24v24H0V0z"/>
</g>
</svg>
