<svg id="Layer_3" data-name="Layer 3" xmlns="http://www.w3.org/2000/svg" viewBox="0 0 24 24"><title>ico-icon-sqaure</title><path d="M0,0H24V24H0Z" fill="none"/><line x1="7" y1="9.857" x2="7" y2="14.142" fill="none" stroke="#323232" stroke-linecap="round" stroke-linejoin="round" stroke-width="1.5"/><path d="M12.113,9.858h-1.19a.952.952,0,0,0-.952.952v2.38a.952.952,0,0,0,.952.952h1.19" fill="none" stroke="#323232" stroke-linecap="round" stroke-linejoin="round" stroke-width="1.5"/><path d="M16.392,14.25h-.75a1,1,0,0,1-1-1v-2.5a1,1,0,0,1,1-1h.75a1,1,0,0,1,1,1v2.5A1,1,0,0,1,16.392,14.25Z" fill="none" stroke="#323232" stroke-linecap="round" stroke-linejoin="round" stroke-width="1.5"/><path d="M3,16V8A5,5,0,0,1,8,3h8a5,5,0,0,1,5,5v8a5,5,0,0,1-5,5H8A5,5,0,0,1,3,16Z" fill="none" stroke="#323232" stroke-linecap="round" stroke-linejoin="round" stroke-width="1.5"/></svg>