<svg id="Layer_3" data-name="Layer 3" xmlns="http://www.w3.org/2000/svg" viewBox="0 0 24 24"><title>iconjar</title><path d="M10.415,9H7.761a1.394,1.394,0,0,1-.947-.371l-.047-.043a1.392,1.392,0,0,1-.3-1.646h0a1.392,1.392,0,0,1,1.12-.765l2.621-.238-.3-.61a2.309,2.309,0,0,1-.237-1.019h0A2.308,2.308,0,0,1,11.98,2h.04a2.308,2.308,0,0,1,2.308,2.308h0a2.309,2.309,0,0,1-.237,1.019l-.3.61,2.621.238a1.392,1.392,0,0,1,1.12.765h0a1.392,1.392,0,0,1-.3,1.646l-.047.043A1.4,1.4,0,0,1,16.239,9h-.774" fill="none" stroke="#323232" stroke-linecap="round" stroke-linejoin="round" stroke-width="1.5"/><path d="M10.415,9a1.311,1.311,0,0,1,1.311,1.311h0a1.977,1.977,0,0,1-.208.884l-.472.943a1.98,1.98,0,0,0-.208.884h0A1.977,1.977,0,0,0,12.815,15h.25a1.977,1.977,0,0,0,1.978-1.978h0a1.968,1.968,0,0,0-.209-.884l-.471-.943a1.978,1.978,0,0,1-.209-.884h0A1.311,1.311,0,0,1,15.465,9h1.442a1.233,1.233,0,0,1,1.232,1.232h0a1.231,1.231,0,0,1-.361.871h0a.687.687,0,0,0-.2.488h0a.781.781,0,0,0,.236.56h0a3.915,3.915,0,0,1,1.034,3.895l-.785,2.72A3.092,3.092,0,0,1,15.091,21H8.909a3.092,3.092,0,0,1-2.97-2.234l-.785-2.72a3.915,3.915,0,0,1,1.034-3.895h0a.781.781,0,0,0,.236-.56h0a.687.687,0,0,0-.2-.488h0a1.231,1.231,0,0,1-.361-.871h0A1.233,1.233,0,0,1,7.093,9Z" fill="none" stroke="#323232" stroke-linecap="round" stroke-linejoin="round" stroke-width="1.5"/><path d="M0,24V0H24V24Z" fill="none"/></svg>