<svg id="Layer_3" data-name="Layer 3" xmlns="http://www.w3.org/2000/svg" viewBox="0 0 24 24"><title>Artboard 316</title><path d="M14.778,7H9.222A2.222,2.222,0,0,0,7,9.222v5.556A2.222,2.222,0,0,0,9.222,17h5.556A2.222,2.222,0,0,0,17,14.778V9.221A2.222,2.222,0,0,0,14.778,7Z" fill="none" stroke="#323232" stroke-linecap="round" stroke-linejoin="round" stroke-width="1.5"/><path d="M10.51,10.157a.25.25,0,1,1-.353,0,.249.249,0,0,1,.353,0" fill="none" stroke="#323232" stroke-linecap="round" stroke-linejoin="round" stroke-width="1.5"/><path d="M17,11.5a4.962,4.962,0,0,0-.7-.056A4.822,4.822,0,0,0,11.5,17" fill="none" stroke="#323232" stroke-linecap="round" stroke-linejoin="round" stroke-width="1.5"/><path d="M15,21h2a4,4,0,0,0,4-4V15.6" fill="none" stroke="#323232" stroke-linecap="round" stroke-linejoin="round" stroke-width="1.5"/><path d="M8.4,3H7A4,4,0,0,0,3,7V8.4" fill="none" stroke="#323232" stroke-linecap="round" stroke-linejoin="round" stroke-width="1.5"/><path d="M3,15.6V17a4,4,0,0,0,4,4H8.4" fill="none" stroke="#323232" stroke-linecap="round" stroke-linejoin="round" stroke-width="1.5"/><path d="M21,8.4V7a4,4,0,0,0-4-4H15" fill="none" stroke="#323232" stroke-linecap="round" stroke-linejoin="round" stroke-width="1.5"/><rect width="24" height="24" fill="none"/></svg>