<svg id="Layer_3" data-name="Layer 3" xmlns="http://www.w3.org/2000/svg" viewBox="0 0 24 24"><title>image-picture-circle</title><path d="M20.94124,11.051a8.93224,8.93224,0,0,0-1.26-.1008,8.6796,8.6796,0,0,0-8.64,10.0008" fill="none" stroke="#323232" stroke-linecap="round" stroke-linejoin="round" stroke-width="1.5"/><path d="M21,12h0a8.99944,8.99944,0,0,1-9,9h0a8.99944,8.99944,0,0,1-9-9H3a8.99944,8.99944,0,0,1,9-9h0A8.99944,8.99944,0,0,1,21,12Z" fill="none" stroke="#323232" stroke-linecap="round" stroke-linejoin="round" stroke-width="1.5"/><path d="M10.17974,9.29974a.25.25,0,1,1-.25-.25" fill="none" stroke="#323232" stroke-linecap="round" stroke-linejoin="round" stroke-width="1.5"/><path d="M9.92974,9.04974a.25.25,0,0,1,.25.25" fill="none" stroke="#323232" stroke-linecap="round" stroke-linejoin="round" stroke-width="1.5"/><path d="M24,24H0V0H24Z" fill="none"/></svg>