<svg id="Layer_3" data-name="Layer 3" xmlns="http://www.w3.org/2000/svg" viewBox="0 0 24 24"><title>inbox-male-incoming</title><path d="M0,0H24V24H0Z" fill="none"/><path d="M15,7H9" fill="none" stroke="#323232" stroke-linecap="round" stroke-linejoin="round" stroke-width="1.5"/><path d="M5,14V5A2,2,0,0,1,7,3H17a2,2,0,0,1,2,2v9" fill="none" stroke="#323232" stroke-linecap="round" stroke-linejoin="round" stroke-width="1.5"/><path d="M3,19V15.5A1.5,1.5,0,0,1,4.5,14H6.379a1.5,1.5,0,0,1,1.06.439l.976.976A2,2,0,0,0,9.828,16h4.343a2,2,0,0,0,1.415-.586l.829-.829A2,2,0,0,1,17.828,14H19.5A1.5,1.5,0,0,1,21,15.5V19a2,2,0,0,1-2,2H5A2,2,0,0,1,3,19Z" fill="none" stroke="#323232" stroke-linecap="round" stroke-linejoin="round" stroke-width="1.5"/></svg>