<svg id="Layer_3" data-name="Layer 3" xmlns="http://www.w3.org/2000/svg" viewBox="0 0 24 24"><title>inbox-male-incoming</title><path d="M14.586,14.414l.828-.828A2,2,0,0,1,16.828,13H20a1,1,0,0,1,1,1v3.875a2,2,0,0,1-2,2H5a2,2,0,0,1-2-2V14a1,1,0,0,1,1-1H7.172a2,2,0,0,1,1.414.586l.828.828A2,2,0,0,0,10.828,15h2.344A2,2,0,0,0,14.586,14.414Z" fill="none" stroke="#323232" stroke-linecap="round" stroke-linejoin="round" stroke-width="1.5"/><line x1="20" y1="4" x2="4" y2="4" fill="none" stroke="#323232" stroke-linecap="round" stroke-linejoin="round" stroke-width="1.5"/><line x1="20" y1="9" x2="4" y2="9" fill="none" stroke="#323232" stroke-linecap="round" stroke-linejoin="round" stroke-width="1.5"/><rect width="24" height="24" fill="none"/></svg>