<svg id="Layer_3" data-name="Layer 3" xmlns="http://www.w3.org/2000/svg" viewBox="0 0 24 24"><title>incandescent-lamp-square</title><path d="M18,9a4.667,4.667,0,0,0-4.667,4.667C13.333,14.955,14.08,16,15,16s1.667-1.045,1.667-2.333A4.667,4.667,0,0,0,12,9" fill="none" stroke="#323232" stroke-linecap="round" stroke-linejoin="round" stroke-width="1.5"/><path d="M6,9a4.667,4.667,0,0,1,4.667,4.667C10.667,14.955,9.92,16,9,16s-1.667-1.045-1.667-2.333A4.667,4.667,0,0,1,12,9" fill="none" stroke="#323232" stroke-linecap="round" stroke-linejoin="round" stroke-width="1.5"/><rect x="3" y="3" width="18" height="18" rx="5" stroke-width="1.5" stroke="#323232" stroke-linecap="round" stroke-linejoin="round" fill="none"/><path d="M0,0H24V24H0Z" fill="none"/></svg>