<?xml version="1.0" encoding="UTF-8"?><svg version="1.1" viewBox="0 0 24 24" xmlns="http://www.w3.org/2000/svg" xmlns:xlink="http://www.w3.org/1999/xlink"><!--Generated by IJSVG (https://github.com/iconjar/IJSVG)--><g stroke-linecap="round" stroke-width="1.5" stroke="#323232" fill="none" stroke-linejoin="round"><path d="M11.819,12.191c-0.51,0.559 -2.063,2.121 -3.503,2.121v-0.002l-0.005,0.002v0c-1.276,0.001 -2.311,-1.035 -2.311,-2.312c0,-1.277 1.035,-2.313 2.312,-2.312v0l0.005,0.002v-0.002c1.44,0 2.993,1.561 3.503,2.121c-0.001,-1.77636e-15 0.18,0.191 0.18,0.191c0,0 -0.181,0.191 -0.181,0.191Z"></path><path d="M12.181,12.191c0.51,0.559 2.063,2.121 3.503,2.121v-0.002l0.005,0.002v0c1.276,0.001 2.311,-1.035 2.311,-2.312c0,-1.277 -1.035,-2.313 -2.312,-2.312v0l-0.005,0.002v-0.002c-1.44,0 -2.993,1.561 -3.503,2.121c0.001,-1.77636e-15 -0.18,0.191 -0.18,0.191c0,0 0.181,0.191 0.181,0.191Z"></path><path d="M18.364,5.63604c3.51472,3.51472 3.51472,9.2132 0,12.7279c-3.51472,3.51472 -9.2132,3.51472 -12.7279,0c-3.51472,-3.51472 -3.51472,-9.2132 -1.77636e-15,-12.7279c3.51472,-3.51472 9.2132,-3.51472 12.7279,-1.77636e-15"></path></g><path fill="none" d="M0,0h24v24h-24v-24Z"></path></svg>