<?xml version="1.0" encoding="utf-8"?>
<!-- Generator: Adobe Illustrator 24.0.2, SVG Export Plug-In . SVG Version: 6.00 Build 0)  -->
<svg version="1.1" id="Layer_3" xmlns="http://www.w3.org/2000/svg" xmlns:xlink="http://www.w3.org/1999/xlink" x="0px" y="0px"
	 width="24px" height="24px" viewBox="0 0 24 24" enable-background="new 0 0 24 24" xml:space="preserve">
<g>
	<path fill="none" d="M0,0h24v24H0V0z"/>
	<g>
		<path fill="none" stroke="#323232" stroke-width="1.5" stroke-linecap="round" stroke-linejoin="round" d="M20.117,3.883
			c1.177,1.177,1.177,3.085,0,4.262s-3.085,1.177-4.262,0s-1.177-3.085,0-4.262S18.94,2.706,20.117,3.883"/>
		<path fill="none" stroke="#323232" stroke-width="1.5" stroke-linecap="round" stroke-linejoin="round" d="M19,13v6
			c0,1.105-0.895,2-2,2H5c-1.105,0-2-0.895-2-2V7c0-1.105,0.895-2,2-2h6"/>
		<path fill="none" stroke="#323232" stroke-width="1.5" stroke-linecap="round" stroke-linejoin="round" d="M11,9.5
			c-0.107,0-0.194,0.087-0.194,0.194S10.893,9.888,11,9.888s0.194-0.087,0.194-0.194C11.195,9.587,11.108,9.5,11,9.5"/>
		<path fill="none" stroke="#323232" stroke-width="1.5" stroke-linecap="round" stroke-linejoin="round" d="M11.001,12.611V16.5"/>
	</g>
</g>
</svg>
