<svg id="Layer_3" data-name="Layer 3" xmlns="http://www.w3.org/2000/svg" viewBox="0 0 24 24"><polyline points="11.009 11.25 12.159 11.25 12.159 15.5" fill="none" stroke="#323232" stroke-linecap="round" stroke-linejoin="round" stroke-width="1.5"/><line x1="11" y1="15.5" x2="13.30934" y2="15.5" fill="none" stroke="#323232" stroke-linecap="round" stroke-linejoin="round" stroke-width="1.5"/><path d="M6.828,19.828,4.171,17.171A3.99858,3.99858,0,0,1,3,14.343V9.657A3.99534,3.99534,0,0,1,4.172,6.829L6.829,4.172A3.99534,3.99534,0,0,1,9.657,3h4.685A3.99534,3.99534,0,0,1,17.17,4.172L19.828,6.83A3.99534,3.99534,0,0,1,21,9.658v4.684a3.99858,3.99858,0,0,1-1.171,2.828l-2.657,2.658A4.00187,4.00187,0,0,1,14.343,21H9.657A3.9994,3.9994,0,0,1,6.828,19.828Z" fill="none" stroke="#323232" stroke-linecap="round" stroke-linejoin="round" stroke-width="1.5"/><path d="M12.10032,8.24757A.25.25,0,1,1,11.85,7.99725a.25.25,0,0,1,.25032.25032" fill="none" stroke="#323232" stroke-linecap="round" stroke-linejoin="round" stroke-width="1.5"/><path d="M0,0H24V24H0Z" fill="none"/></svg>