<svg id="Layer_3" data-name="Layer 3" xmlns="http://www.w3.org/2000/svg" viewBox="0 0 24 24"><path id="a" d="M0,0H24V24H0Z" fill="none"/><path id="a-2" data-name="a" d="M0,0H24V24H0Z" fill="none"/><path d="M7.5,3H6A3,3,0,0,0,3,6V7.5" fill="none" stroke="#323232" stroke-linecap="round" stroke-linejoin="round" stroke-width="1.5"/><path d="M3,16.5V18a3,3,0,0,0,3,3H7.5" fill="none" stroke="#323232" stroke-linecap="round" stroke-linejoin="round" stroke-width="1.5"/><path d="M16.5,21H18a3,3,0,0,0,3-3V16.5" fill="none" stroke="#323232" stroke-linecap="round" stroke-linejoin="round" stroke-width="1.5"/><path d="M21,7.5V6a3,3,0,0,0-3-3H16.5" fill="none" stroke="#323232" stroke-linecap="round" stroke-linejoin="round" stroke-width="1.5"/><polyline points="11.009 11.25 12.159 11.25 12.159 15.5" fill="none" stroke="#323232" stroke-linecap="round" stroke-linejoin="round" stroke-width="1.5"/><line x1="11" y1="15.5" x2="13.30934" y2="15.5" fill="none" stroke="#323232" stroke-linecap="round" stroke-linejoin="round" stroke-width="1.5"/><path d="M12.10032,8.24757A.25.25,0,1,1,11.85,7.99725a.25.25,0,0,1,.25032.25032" fill="none" stroke="#323232" stroke-linecap="round" stroke-linejoin="round" stroke-width="1.5"/></svg>