<svg id="Layer_3" data-name="Layer 3" xmlns="http://www.w3.org/2000/svg" viewBox="0 0 24 24"><title>Artboard 332</title><path d="M0,0H24V24H0Z" fill="none"/><path d="M7.761,11.823a.25.25,0,1,1-.354,0,.252.252,0,0,1,.354,0" fill="none" stroke="#323232" stroke-linecap="round" stroke-linejoin="round" stroke-width="1.5"/><path d="M12.177,11.823a.25.25,0,1,1-.354,0,.252.252,0,0,1,.354,0" fill="none" stroke="#323232" stroke-linecap="round" stroke-linejoin="round" stroke-width="1.5"/><path d="M16,14.5v-5" fill="none" stroke="#323232" stroke-linecap="round" stroke-linejoin="round" stroke-width="1.5"/><path d="M17,3H7A4,4,0,0,0,3,7V17a4,4,0,0,0,4,4H17a4,4,0,0,0,4-4V7A4,4,0,0,0,17,3Z" fill="none" stroke="#323232" stroke-linecap="round" stroke-linejoin="round" stroke-width="1.5"/></svg>