<svg id="Layer_3" data-name="Layer 3" xmlns="http://www.w3.org/2000/svg" viewBox="0 0 24 24"><title>Artboard 263</title><path d="M24,24H0V0H24Z" fill="none"/><path d="M9,3h1a2,2,0,0,1,2,2,2,2,0,0,1,2-2h1" fill="none" stroke="#323232" stroke-linecap="round" stroke-linejoin="round" stroke-width="1.5"/><path d="M12,20V5" fill="none" stroke="#323232" stroke-linecap="round" stroke-linejoin="round" stroke-width="1.5"/><path d="M15,21H14a2,2,0,0,1-2-2,2,2,0,0,1-2,2H9" fill="none" stroke="#323232" stroke-linecap="round" stroke-linejoin="round" stroke-width="1.5"/><path d="M9,18H5a2,2,0,0,1-2-2V8A2,2,0,0,1,5,6H9" fill="none" stroke="#323232" stroke-linecap="round" stroke-linejoin="round" stroke-width="1.5"/><path d="M15,18h4a2,2,0,0,0,2-2V8a2,2,0,0,0-2-2H15" fill="none" stroke="#323232" stroke-linecap="round" stroke-linejoin="round" stroke-width="1.5"/></svg>