<?xml version="1.0" encoding="utf-8"?>
<!-- Generator: Adobe Illustrator 23.1.0, SVG Export Plug-In . SVG Version: 6.00 Build 0)  -->
<svg version="1.1" id="icons" xmlns="http://www.w3.org/2000/svg" xmlns:xlink="http://www.w3.org/1999/xlink" x="0px" y="0px"
	 width="24px" height="24px" viewBox="0 0 24 24" enable-background="new 0 0 24 24" xml:space="preserve">
<g>
	<rect fill="none" width="24" height="24"/>
	<g>
		
			<circle fill="none" stroke="#323232" stroke-width="1.5" stroke-linecap="round" stroke-linejoin="round" stroke-miterlimit="10" cx="12" cy="12" r="10"/>
		
			<path fill="none" stroke="#323232" stroke-width="1.5" stroke-linecap="round" stroke-linejoin="round" stroke-miterlimit="10" d="
			M9.27,6.545h5.46c1.504,0,2.724,1.219,2.724,2.725v5.46c0,1.504-1.219,2.724-2.725,2.724H9.27c-1.505,0-2.725-1.219-2.725-2.725
			V9.27C6.545,7.765,7.765,6.545,9.27,6.545z"/>
		
			<path fill="none" stroke="#323232" stroke-width="1.5" stroke-linecap="round" stroke-linejoin="round" stroke-miterlimit="10" d="
			M15,8.95c-0.028,0-0.05,0.023-0.05,0.05S14.972,9.05,15,9.05c0.028,0,0.05-0.022,0.05-0.05C15.05,8.973,15.027,8.95,15,8.95"/>
		
			<path fill="none" stroke="#323232" stroke-width="1.5" stroke-linecap="round" stroke-linejoin="round" stroke-miterlimit="10" d="
			M13.414,10.586c0.781,0.781,0.781,2.047,0,2.828c-0.781,0.781-2.047,0.781-2.828,0c-0.781-0.781-0.781-2.047,0-2.828
			C11.367,9.805,12.633,9.805,13.414,10.586"/>
	</g>
</g>
</svg>
