<?xml version="1.0" encoding="utf-8"?>
<!-- Generator: Adobe Illustrator 24.0.2, SVG Export Plug-In . SVG Version: 6.00 Build 0)  -->
<svg version="1.1" id="Layer_1" xmlns="http://www.w3.org/2000/svg" xmlns:xlink="http://www.w3.org/1999/xlink" x="0px" y="0px"
	 width="24px" height="24px" viewBox="0 0 24 24" style="enable-background:new 0 0 24 24;" xml:space="preserve">
<style type="text/css">
	.st0{fill:none;}
	.st1{fill:none;stroke:#323232;stroke-width:1.5;stroke-linecap:round;stroke-linejoin:round;}
</style>
<g>
	<path class="st0" d="M0,0h24v24H0V0z"/>
	<path class="st1" d="M13.5,13.7l-6.8,6.8c-0.9,0.9-2.3,0.9-3.2,0l0,0c-0.9-0.9-0.9-2.3,0-3.2l6.8-6.8c-0.8-2-0.3-4.3,1.3-5.9
		c1.7-1.7,4.2-2,6.2-1.2c0.1,0,0.1,0.1,0,0.2l-3.6,3.6c0,0,1.3,1.3,1.3,1.3l1.3,1.3l0,0l3.7-3.6c0,0,0.1,0,0.2,0
		c1,2,0.5,4.5-1.2,6.2C17.8,14,15.5,14.4,13.5,13.7z"/>
</g>
</svg>
