<?xml version="1.0" encoding="utf-8"?>
<!-- Generator: Adobe Illustrator 24.0.2, SVG Export Plug-In . SVG Version: 6.00 Build 0)  -->
<svg version="1.1" id="Layer_1" xmlns="http://www.w3.org/2000/svg" xmlns:xlink="http://www.w3.org/1999/xlink" x="0px" y="0px"
	 width="24px" height="24px" viewBox="0 0 24 24" style="enable-background:new 0 0 24 24;" xml:space="preserve">
<style type="text/css">
	.st0{fill:none;stroke:#323232;stroke-width:1.5;stroke-linecap:round;stroke-linejoin:round;}
	.st1{fill:none;}
</style>
<g>
	<g>
		<path class="st0" d="M14.4,8.9c-0.2,0-0.4,0.2-0.4,0.4c0,0.2,0.2,0.4,0.4,0.4c0.2,0,0.4-0.2,0.4-0.4C14.8,9.1,14.6,8.9,14.4,8.9"
			/>
		<path class="st0" d="M9.5,11.3l-0.9-2C8.3,8.5,8.5,7.6,9.1,7L12,4.1c0.6-0.6,1.4-0.7,2.2-0.4l3.5,1.5c0.5,0.2,0.9,0.6,1.1,1.1
			l1.5,3.5c0.3,0.8,0.1,1.6-0.4,2.2L17,14.9c-0.6,0.6-1.4,0.7-2.2,0.4l-2.1-0.9c0,0-6,6-6,6H3.5v-3.2L9.5,11.3z"/>
	</g>
	<path class="st1" d="M0,0h24v24H0V0z"/>
</g>
</svg>
