<?xml version="1.0" encoding="utf-8"?>
<!-- Generator: Adobe Illustrator 24.0.2, SVG Export Plug-In . SVG Version: 6.00 Build 0)  -->
<svg version="1.1" id="Layer_1" xmlns="http://www.w3.org/2000/svg" xmlns:xlink="http://www.w3.org/1999/xlink" x="0px" y="0px"
	 viewBox="0 0 24 24" style="enable-background:new 0 0 24 24;" xml:space="preserve">
<style type="text/css">
	.st0{fill:none;}
	.st1{fill:none;stroke:#323232;stroke-width:1.5;stroke-linecap:round;stroke-linejoin:round;}
</style>
<g>
	<path class="st0" d="M0,0h24v24H0V0z"/>
	<path class="st1" d="M13,8l-3,3l4,2l-3,3"/>
	<path class="st1" d="M6.8,19.8l-2.7-2.7C3.4,16.4,3,15.4,3,14.3V9.7c0-1.1,0.4-2.1,1.2-2.8l2.7-2.7C7.6,3.4,8.6,3,9.7,3h4.7
		c1.1,0,2.1,0.4,2.8,1.2l2.7,2.7C20.6,7.6,21,8.6,21,9.7v4.7c0,1.1-0.4,2.1-1.2,2.8l-2.7,2.7c-0.8,0.8-1.8,1.2-2.8,1.2H9.7
		C8.6,21,7.6,20.6,6.8,19.8z"/>
</g>
</svg>
