<svg id="Layer_3" data-name="Layer 3" xmlns="http://www.w3.org/2000/svg" viewBox="0 0 24 24"><title>invoice-accounting-checkmark</title><path d="M11.687,11.129l-.937-.938" fill="none" stroke="#323232" stroke-linecap="round" stroke-linejoin="round" stroke-width="1.5"/><path d="M13.25,9.566l-1.563,1.563" fill="none" stroke="#323232" stroke-linecap="round" stroke-linejoin="round" stroke-width="1.5"/><path d="M9.5,13.629h5" fill="none" stroke="#323232" stroke-linecap="round" stroke-linejoin="round" stroke-width="1.5"/><path d="M15.125,7H8.875A1.874,1.874,0,0,0,7,8.875v7.188a.625.625,0,0,0,.9.559l.482-.242a.625.625,0,0,1,.559,0l1.108.554a.625.625,0,0,0,.559,0l1.108-.554a.625.625,0,0,1,.559,0l1.108.554a.627.627,0,0,0,.56,0l1.106-.554a.627.627,0,0,1,.56,0l.482.242A.625.625,0,0,0,17,16.063V8.875A1.874,1.874,0,0,0,15.125,7Z" fill="none" stroke="#323232" stroke-linecap="round" stroke-linejoin="round" stroke-width="1.5"/><path d="M0,0H24V24H0Z" fill="none"/><rect x="3" y="3" width="18" height="18" rx="5" stroke-width="1.5" stroke="#323232" stroke-linecap="round" stroke-linejoin="round" fill="none"/></svg>