<svg id="Layer_3" data-name="Layer 3" xmlns="http://www.w3.org/2000/svg" viewBox="0 0 24 24"><title>invoice-accounting-checkmark</title><path d="M20,10V5a2,2,0,0,0-2-2H5A2,2,0,0,0,3,5V19a2,2,0,0,0,2,2h5" fill="none" stroke="#323232" stroke-linecap="round" stroke-linejoin="round" stroke-width="1.5"/><line x1="9.25" y1="15" x2="10" y2="15" fill="none" stroke="#323232" stroke-linecap="round" stroke-linejoin="round" stroke-width="1.5"/><line x1="9.25" y1="11" x2="14" y2="11" fill="none" stroke="#323232" stroke-linecap="round" stroke-linejoin="round" stroke-width="1.5"/><line x1="9.25" y1="7.125" x2="16" y2="7.125" fill="none" stroke="#323232" stroke-linecap="round" stroke-linejoin="round" stroke-width="1.5"/><path d="M6.125,15.125A.125.125,0,1,0,6,15a.125.125,0,0,0,.125.125" fill="none" stroke="#323232" stroke-linecap="round" stroke-linejoin="round" stroke-width="1.5"/><path d="M6.125,11.125A.125.125,0,1,0,6,11a.125.125,0,0,0,.125.125" fill="none" stroke="#323232" stroke-linecap="round" stroke-linejoin="round" stroke-width="1.5"/><path d="M6.125,7.25A.125.125,0,1,0,6,7.125a.125.125,0,0,0,.125.125" fill="none" stroke="#323232" stroke-linecap="round" stroke-linejoin="round" stroke-width="1.5"/><path d="M17.5,13A4.5,4.5,0,1,1,13,17.5,4.5,4.5,0,0,1,17.5,13" fill="none" stroke="#323232" stroke-linecap="round" stroke-linejoin="round" stroke-width="1.5"/><path d="M19.056,16.723l-1.944,1.944L15.944,17.5" fill="none" stroke="#323232" stroke-linecap="round" stroke-linejoin="round" stroke-width="1.5"/><path d="M0,0H24V24H0Z" fill="none"/></svg>