<svg id="Layer_3" data-name="Layer 3" xmlns="http://www.w3.org/2000/svg" viewBox="0 0 24 24"><title>invoice-accounting</title><path d="M0,0H24V24H0Z" fill="none"/><path d="M13.125,9.843,11.718,11.25l-.843-.844" fill="none" stroke="#323232" stroke-linecap="round" stroke-linejoin="round" stroke-width="1.5"/><path d="M10,13.5h4" fill="none" stroke="#323232" stroke-linecap="round" stroke-linejoin="round" stroke-width="1.5"/><path d="M7.5,8.686A1.687,1.687,0,0,1,9.188,7h5.626A1.686,1.686,0,0,1,16.5,8.687v7.529a.576.576,0,0,1-.061.258.564.564,0,0,1-.757.245l-.434-.218a.566.566,0,0,0-.5,0l-.995.5a.566.566,0,0,1-.5,0l-1-.5a.563.563,0,0,0-.5,0l-1,.5a.563.563,0,0,1-.5,0l-1-.5a.563.563,0,0,0-.5,0l-.434.218a.561.561,0,0,1-.81-.5V8.687Z" fill="none" stroke="#323232" stroke-linecap="round" stroke-linejoin="round" stroke-width="1.5"/><circle cx="12" cy="12" r="9" fill="none" stroke="#323232" stroke-linecap="round" stroke-linejoin="round" stroke-width="1.5"/></svg>