<?xml version="1.0" encoding="utf-8"?>
<!-- Generator: Adobe Illustrator 24.0.2, SVG Export Plug-In . SVG Version: 6.00 Build 0)  -->
<svg version="1.1" id="Layer_1" xmlns="http://www.w3.org/2000/svg" xmlns:xlink="http://www.w3.org/1999/xlink" x="0px" y="0px"
	 width="24px" height="24px" viewBox="0 0 24 24" enable-background="new 0 0 24 24" xml:space="preserve">
<g>
	<g>
		<g>
			<path fill="none" stroke="#323232" stroke-width="1.5" stroke-linecap="round" stroke-linejoin="round" d="M20,10V5
				c0-1.105-0.895-2-2-2H5C3.895,3,3,3.895,3,5v14c0,1.105,0.895,2,2,2h5"/>
			
				<line fill="none" stroke="#323232" stroke-width="1.5" stroke-linecap="round" stroke-linejoin="round" x1="9.25" y1="15" x2="10" y2="15"/>
			
				<line fill="none" stroke="#323232" stroke-width="1.5" stroke-linecap="round" stroke-linejoin="round" x1="9.25" y1="11" x2="14" y2="11"/>
			
				<line fill="none" stroke="#323232" stroke-width="1.5" stroke-linecap="round" stroke-linejoin="round" x1="9.25" y1="7.125" x2="16" y2="7.125"/>
			<path fill="none" stroke="#323232" stroke-width="1.5" stroke-linecap="round" stroke-linejoin="round" d="M6.125,15.125
				c0.069,0,0.125-0.056,0.125-0.125s-0.056-0.125-0.125-0.125S6,14.931,6,15S6.056,15.125,6.125,15.125"/>
			<path fill="none" stroke="#323232" stroke-width="1.5" stroke-linecap="round" stroke-linejoin="round" d="M6.125,11.125
				c0.069,0,0.125-0.056,0.125-0.125s-0.056-0.125-0.125-0.125S6,10.931,6,11S6.056,11.125,6.125,11.125"/>
			<path fill="none" stroke="#323232" stroke-width="1.5" stroke-linecap="round" stroke-linejoin="round" d="M6.125,7.25
				c0.069,0,0.125-0.056,0.125-0.125S6.194,7,6.125,7S6,7.056,6,7.125S6.056,7.25,6.125,7.25"/>
		</g>
		<g>
			<g>
				<path fill="none" stroke="#323232" stroke-width="1.5" stroke-linecap="round" stroke-linejoin="round" d="M17.5,13
					c2.485,0,4.5,2.015,4.5,4.5S19.985,22,17.5,22S13,19.985,13,17.5S15.015,13,17.5,13"/>
				<path fill="none" stroke="#323232" stroke-width="1.5" stroke-linecap="round" stroke-linejoin="round" d="M18.594,16.406
					l-2.188,2.188"/>
				<path fill="none" stroke="#323232" stroke-width="1.5" stroke-linecap="round" stroke-linejoin="round" d="M16.406,16.406
					l2.188,2.188"/>
			</g>
		</g>
	</g>
	<path fill="none" d="M0,0h24v24H0V0z"/>
</g>
</svg>
