<svg id="Layer_3" data-name="Layer 3" xmlns="http://www.w3.org/2000/svg" viewBox="0 0 24 24"><line x1="6" y1="11" x2="12" y2="11" fill="none" stroke="#323232" stroke-linecap="round" stroke-linejoin="round" stroke-width="1.5"/><line x1="6" y1="8" x2="9" y2="8" fill="none" stroke="#323232" stroke-linecap="round" stroke-linejoin="round" stroke-width="1.5"/><path d="M7.5,17h0A1.50055,1.50055,0,0,1,6,15.5H6A1.50055,1.50055,0,0,1,7.5,14h0A1.50055,1.50055,0,0,1,9,15.5H9A1.50055,1.50055,0,0,1,7.5,17Z" fill="none" stroke="#323232" stroke-linecap="round" stroke-linejoin="round" stroke-width="1.5"/><path d="M12.5,17.25H15V21H12.5a.5.5,0,0,1-.5-.5V17.75A.5.5,0,0,1,12.5,17.25Z" fill="none" stroke="#323232" stroke-linecap="round" stroke-linejoin="round" stroke-width="1.5"/><path d="M15.5,13h2a.5.5,0,0,1,.5.5V21H15V13.5A.5.5,0,0,1,15.5,13Z" fill="none" stroke="#323232" stroke-linecap="round" stroke-linejoin="round" stroke-width="1.5"/><path d="M18.5,15.25h2a.5.5,0,0,1,.5.5V20.5a.5.5,0,0,1-.5.5H18V15.75A.5.5,0,0,1,18.5,15.25Z" fill="none" stroke="#323232" stroke-linecap="round" stroke-linejoin="round" stroke-width="1.5"/><path d="M9,21H5a2,2,0,0,1-2-2V5A2,2,0,0,1,5,3h8.17157a2,2,0,0,1,1.41422.58579l2.82842,2.82842A2,2,0,0,1,18,7.82843V10" fill="none" stroke="#323232" stroke-linecap="round" stroke-linejoin="round" stroke-width="1.5"/><rect width="24" height="24" fill="none"/></svg>