<?xml version="1.0" encoding="utf-8"?>
<!-- Generator: Adobe Illustrator 24.0.2, SVG Export Plug-In . SVG Version: 6.00 Build 0)  -->
<svg version="1.1" id="Layer_1" xmlns="http://www.w3.org/2000/svg" xmlns:xlink="http://www.w3.org/1999/xlink" x="0px" y="0px"
	 width="24px" height="24px" viewBox="0 0 24 24" enable-background="new 0 0 24 24" xml:space="preserve">
<g>
	<g>
		<path fill="none" stroke="#323232" stroke-width="1.5" stroke-linecap="round" stroke-linejoin="round" d="M19,18.75V5.25
			C19,4.007,17.993,3,16.75,3h-9.5C6.007,3,5,4.007,5,5.25v13.5C5,19.993,6.007,21,7.25,21h9.5C17.993,21,19,19.993,19,18.75z"/>
		<path fill="none" stroke="#323232" stroke-width="1.5" stroke-linecap="round" stroke-linejoin="round" d="M11.999,17.875
			c-0.069,0-0.125,0.056-0.124,0.125c0,0.069,0.056,0.125,0.125,0.125s0.125-0.056,0.125-0.125
			C12.125,17.931,12.069,17.875,11.999,17.875"/>
	</g>
	<g>
		<path fill="none" d="M0,0h24v24H0V0z"/>
	</g>
</g>
</svg>
