<?xml version="1.0" encoding="utf-8"?>
<!-- Generator: Adobe Illustrator 24.0.2, SVG Export Plug-In . SVG Version: 6.00 Build 0)  -->
<svg version="1.1" id="Layer_3" xmlns="http://www.w3.org/2000/svg" xmlns:xlink="http://www.w3.org/1999/xlink" x="0px" y="0px"
	 width="24px" height="24px" viewBox="0 0 24 24" enable-background="new 0 0 24 24" xml:space="preserve">
<g>
	<g>
		<path fill="none" stroke="#323232" stroke-width="1.5" stroke-linecap="round" stroke-linejoin="round" d="M19,10V7.444
			C19,4.99,17.01,3,14.556,3H7.444C4.99,3,3,4.99,3,7.444v4.111C3,14.01,4.99,16,7.444,16H11"/>
		<path fill="none" stroke="#323232" stroke-width="1.5" stroke-linecap="round" stroke-linejoin="round" d="M21.191,19.928h-2.892
			l-1.852,1.836c-0.51,0.505-1.375,0.144-1.375-0.573v-7.383c0-0.718,0.869-1.079,1.377-0.57l5.313,5.313
			C22.27,19.059,21.911,19.928,21.191,19.928z"/>
		<path fill="none" stroke="#323232" stroke-width="1.5" stroke-linecap="round" stroke-linejoin="round" d="M11.114,7
			c1.029,0,1.719,0.931,1.719,1.798c0,1.813-2.34,3.202-2.917,3.202S7,10.611,7,8.798C7,7.931,7.69,7,8.719,7
			c0.588,0,0.974,0.283,1.198,0.535C10.14,7.283,10.526,7,11.114,7z"/>
	</g>
	<path fill="none" d="M24,24H0L0,0l24,0V24z"/>
</g>
</svg>
