<?xml version="1.0" encoding="utf-8"?>
<!-- Generator: Adobe Illustrator 24.0.2, SVG Export Plug-In . SVG Version: 6.00 Build 0)  -->
<svg version="1.1" id="Layer_3" xmlns="http://www.w3.org/2000/svg" xmlns:xlink="http://www.w3.org/1999/xlink" x="0px" y="0px"
	 width="24px" height="24px" viewBox="0 0 24 24" enable-background="new 0 0 24 24" xml:space="preserve">
<g>
	<g>
		
			<path fill="none" stroke="#323232" stroke-width="1.5" stroke-linecap="round" stroke-linejoin="round" stroke-miterlimit="10" d="
			M3,12V5c0-1.105,0.895-2,2-2h7c1.105,0,2,0.895,2,2v7c0,1.105-0.895,2-2,2H5C3.895,14,3,13.105,3,12z"/>
		
			<polyline fill="none" stroke="#323232" stroke-width="1.5" stroke-linecap="round" stroke-linejoin="round" stroke-miterlimit="10" points="
			14,23 11,20 14,17 		"/>
		
			<path fill="none" stroke="#323232" stroke-width="1.5" stroke-linecap="round" stroke-linejoin="round" stroke-miterlimit="10" d="
			M11,20h6c2.209,0,4-1.791,4-4v-4"/>
	</g>
	<rect transform="matrix(-1.836970e-16 1 -1 -1.836970e-16 24 1.776357e-15)" fill="none" width="24" height="24"/>
</g>
</svg>
