<svg id="Layer_3" data-name="Layer 3" xmlns="http://www.w3.org/2000/svg" viewBox="0 0 24 24"><path d="M20.75,17h-3.5A1.25,1.25,0,0,0,16,18.25v2.5A1.25,1.25,0,0,0,17.25,22h3.5A1.25,1.25,0,0,0,22,20.75v-2.5A1.25,1.25,0,0,0,20.75,17Z" fill="none" stroke="#323232" stroke-linecap="round" stroke-linejoin="round" stroke-width="1.5"/><path d="M20.75,17V15.75A1.75,1.75,0,0,0,19,14h0a1.75,1.75,0,0,0-1.75,1.75V17" fill="none" stroke="#323232" stroke-linecap="round" stroke-linejoin="round" stroke-width="1.5"/><path d="M14.499,10.71512l-3.12276,3.12276L9.499,11.96661" fill="none" stroke="#323232" stroke-linecap="round" stroke-linejoin="round" stroke-width="1.5"/><path d="M20.94135,11A8.99862,8.99862,0,1,0,12,21" fill="none" stroke="#323232" stroke-linecap="round" stroke-linejoin="round" stroke-width="1.5"/><rect width="24" height="24" fill="none"/></svg>