<svg id="Layer_3" data-name="Layer 3" xmlns="http://www.w3.org/2000/svg" viewBox="0 0 24 24"><title>item-a-message</title><path d="M0,0H24V24H0Z" fill="none"/><path d="M15,9.449v5.967" fill="none" stroke="#323232" stroke-linecap="round" stroke-linejoin="round" stroke-width="1.5"/><path d="M14.121,10.313a3,3,0,1,1-4.242,0,3,3,0,0,1,4.242,0" fill="none" stroke="#323232" stroke-linecap="round" stroke-linejoin="round" stroke-width="1.5"/><path d="M12,3h0a9,9,0,0,1,9,9v5a4,4,0,0,1-4,4H12a9,9,0,0,1-9-9v0A9,9,0,0,1,12,3Z" fill="none" stroke="#323232" stroke-linecap="round" stroke-linejoin="round" stroke-width="1.5"/><path d="M24,24H0V0H24Z" fill="none"/></svg>