<svg id="Layer_3" data-name="Layer 3" xmlns="http://www.w3.org/2000/svg" viewBox="0 0 24 24"><title>item-warning-circle</title><path d="M0,0H24V24H0Z" fill="none"/><path d="M19,15v2a4,4,0,0,1-4,4H7a4,4,0,0,1-4-4V9A4,4,0,0,1,7,5H9" fill="none" stroke="#323232" stroke-linecap="round" stroke-linejoin="round" stroke-width="1.5"/><path d="M17,6.815V4.98" fill="none" stroke="#323232" stroke-linecap="round" stroke-linejoin="round" stroke-width="1.5"/><path d="M17,8.839a.09.09,0,0,0-.09.091A.091.091,0,1,0,17,8.839" fill="none" stroke="#323232" stroke-linecap="round" stroke-linejoin="round" stroke-width="1.5"/><path d="M17,12a5,5,0,1,1,5-5,5,5,0,0,1-5,5" fill="none" stroke="#323232" stroke-linecap="round" stroke-linejoin="round" stroke-width="1.5"/></svg>