<?xml version="1.0" encoding="utf-8"?>
<!-- Generator: Adobe Illustrator 24.0.2, SVG Export Plug-In . SVG Version: 6.00 Build 0)  -->
<svg version="1.1" id="Layer_3" xmlns="http://www.w3.org/2000/svg" xmlns:xlink="http://www.w3.org/1999/xlink" x="0px" y="0px"
	 width="24px" height="24px" viewBox="0 0 24 24" enable-background="new 0 0 24 24" xml:space="preserve">
<g>
	<path fill="none" d="M0,0h24v24H0V0z"/>
	<g>
		<path fill="none" stroke="#323232" stroke-width="1.5" stroke-linecap="round" stroke-linejoin="round" d="M20,11V4.774l0,0
			C20,3.794,19.206,3,18.226,3H4.774C3.794,3,3,3.794,3,4.774v13.452C3,19.206,3.794,20,4.774,20H9"/>
		<path fill="none" stroke="#323232" stroke-width="1.5" stroke-linecap="round" stroke-linejoin="round" d="M7.052,11.448
			c0.098,0.098,0.098,0.256,0,0.354c-0.098,0.098-0.256,0.098-0.354,0s-0.098-0.256,0-0.354C6.796,11.351,6.954,11.351,7.052,11.448
			"/>
		<path fill="none" stroke="#323232" stroke-width="1.5" stroke-linecap="round" stroke-linejoin="round" d="M16.265,7.125h-5.26"/>
		<path fill="none" stroke="#323232" stroke-width="1.5" stroke-linecap="round" stroke-linejoin="round" d="M7.052,6.951
			c0.098,0.098,0.098,0.256,0,0.354s-0.256,0.098-0.354,0s-0.098-0.256,0-0.354S6.954,6.854,7.052,6.951"/>
		<path fill="none" stroke="#323232" stroke-width="1.5" stroke-linecap="round" stroke-linejoin="round" d="M16.265,11.625h-5.26"
			/>
		<path fill="none" stroke="#323232" stroke-width="1.5" stroke-linecap="round" stroke-linejoin="round" d="M12.25,16.75v3.5
			c0,0.966,0.784,1.75,1.75,1.75h5.25c0.966,0,1.75-0.784,1.75-1.75v-3.5c0-0.966-0.784-1.75-1.75-1.75H14
			C13.034,15,12.25,15.784,12.25,16.75z"/>
		<path fill="none" stroke="#323232" stroke-width="1.5" stroke-linecap="round" stroke-linejoin="round" d="M21,18.172h-8.75"/>
	</g>
</g>
</svg>
