<?xml version="1.0" encoding="utf-8"?>
<!-- Generator: Adobe Illustrator 24.0.2, SVG Export Plug-In . SVG Version: 6.00 Build 0)  -->
<svg version="1.1" id="Layer_3" xmlns="http://www.w3.org/2000/svg" xmlns:xlink="http://www.w3.org/1999/xlink" x="0px" y="0px"
	 width="24px" height="24px" viewBox="0 0 24 24" enable-background="new 0 0 24 24" xml:space="preserve">
<g>
	<g>
		<path id="a" fill="none" d="M0,0h24v24H0V0z"/>
	</g>
	<g>
		<path id="a_1_" fill="none" d="M0,0h24v24H0V0z"/>
	</g>
	<g>
		<path fill="none" stroke="#323232" stroke-width="1.5" stroke-linecap="round" stroke-linejoin="round" d="M20,9.478V6
			c0-1.105-0.895-2-2-2h-3.478H5C3.895,4,3,4.895,3,6v12c0,1.105,0.895,2,2,2h6"/>
		<path fill="none" stroke="#323232" stroke-width="1.5" stroke-linecap="round" stroke-linejoin="round" d="M19.121,13.879
			c1.298,1.298,1.158,3.487-0.418,4.594c-1.003,0.704-2.404,0.704-3.407,0c-1.577-1.106-1.716-3.296-0.418-4.594
			C16.05,12.707,17.95,12.707,19.121,13.879"/>
		<g>
			<path fill="none" stroke="#323232" stroke-width="1.5" stroke-linecap="round" stroke-linejoin="round" d="M11.272,7.687
				c1.093,0,1.827,0.989,1.827,1.911C13.099,11.524,10.613,13,10,13c-0.613,0-3.099-1.476-3.099-3.402
				c0-0.922,0.733-1.911,1.827-1.911c0.625,0,1.035,0.301,1.272,0.568C10.237,7.989,10.647,7.687,11.272,7.687z"/>
		</g>
		<path fill="none" stroke="#323232" stroke-width="1.5" stroke-linecap="round" stroke-linejoin="round" d="M21,20l-1.88-1.88"/>
	</g>
</g>
</svg>
