<svg id="Layer_3" data-name="Layer 3" xmlns="http://www.w3.org/2000/svg" viewBox="0 0 24 24"><title>item-favorite-star</title><path d="M20,13v3.75A4.25,4.25,0,0,1,15.75,21H7.25A4.25,4.25,0,0,1,3,16.75V8.25A4.25,4.25,0,0,1,7.25,4H11" fill="none" stroke="#323232" stroke-linecap="round" stroke-linejoin="round" stroke-width="1.5"/><path d="M17.264,2.458a.82.82,0,0,1,1.472,0l.6,1.216a.818.818,0,0,0,.618.449l1.343.2a.82.82,0,0,1,.454,1.4l-.971.948a.817.817,0,0,0-.236.726l.229,1.337a.82.82,0,0,1-1.19.865l-1.2-.631a.819.819,0,0,0-.764,0l-1.2.631a.82.82,0,0,1-1.19-.865l.229-1.337a.817.817,0,0,0-.236-.726l-.971-.948a.82.82,0,0,1,.454-1.4l1.343-.2a.818.818,0,0,0,.618-.449Z" fill="none" stroke="#323232" stroke-linecap="round" stroke-linejoin="round" stroke-width="1.5"/><rect width="24" height="24" fill="none"/></svg>