<svg id="Layer_3" data-name="Layer 3" xmlns="http://www.w3.org/2000/svg" viewBox="0 0 24 24"><rect width="24" height="24" fill="none"/><path d="M20.75,16.98049h-3.5a1.25,1.25,0,0,0-1.25,1.25v2.5a1.25,1.25,0,0,0,1.25,1.25h3.5a1.25,1.25,0,0,0,1.25-1.25v-2.5A1.25,1.25,0,0,0,20.75,16.98049Z" fill="none" stroke="#323232" stroke-linecap="round" stroke-linejoin="round" stroke-width="1.5"/><path d="M20.75,16.98049V15.75A1.75,1.75,0,0,0,19,14h0a1.75,1.75,0,0,0-1.75,1.75v1.23049" fill="none" stroke="#323232" stroke-linecap="round" stroke-linejoin="round" stroke-width="1.5"/><path d="M11.50377,11.18091v-3.269" fill="none" stroke="#323232" stroke-linecap="round" stroke-linejoin="round" stroke-width="1.5"/><path d="M11.50377,14.78991a.16.16,0,0,0-.16.16v.002a.161.161,0,1,0,.16-.164" fill="none" stroke="#323232" stroke-linecap="round" stroke-linejoin="round" stroke-width="1.5"/><path d="M20.94135,11A8.99862,8.99862,0,1,0,12,21" fill="none" stroke="#323232" stroke-linecap="round" stroke-linejoin="round" stroke-width="1.5"/></svg>