<?xml version="1.0" encoding="utf-8"?>
<!-- Generator: Adobe Illustrator 24.0.2, SVG Export Plug-In . SVG Version: 6.00 Build 0)  -->
<svg version="1.1" id="Layer_3" xmlns="http://www.w3.org/2000/svg" xmlns:xlink="http://www.w3.org/1999/xlink" x="0px" y="0px"
	 width="24px" height="24px" viewBox="0 0 24 24" enable-background="new 0 0 24 24" xml:space="preserve">
<g>
	<g>
		
			<path fill="none" stroke="#323232" stroke-width="1.5" stroke-linecap="round" stroke-linejoin="round" stroke-miterlimit="10" d="
			M5,16H4.444C3.647,16,3,15.353,3,14.556V4.444C3,3.647,3.647,3,4.444,3h10.111C15.353,3,16,3.647,16,4.444V5"/>
		<path fill="none" stroke="#323232" stroke-width="1.5" stroke-miterlimit="10" d="M19.556,21H9.444C8.647,21,8,20.353,8,19.556
			V9.444C8,8.647,8.647,8,9.444,8h10.111C20.353,8,21,8.647,21,9.444v10.111C21,20.353,20.353,21,19.556,21z"/>
		
			<line fill="none" stroke="#323232" stroke-width="1.5" stroke-linecap="round" stroke-linejoin="round" stroke-miterlimit="10" x1="14.5" y1="12" x2="14.5" y2="17"/>
		
			<line fill="none" stroke="#323232" stroke-width="1.5" stroke-linecap="round" stroke-linejoin="round" stroke-miterlimit="10" x1="17" y1="14.5" x2="12" y2="14.5"/>
	</g>
	<path fill="none" d="M0,0h24v24H0V0z"/>
</g>
</svg>
