<?xml version="1.0" encoding="utf-8"?>
<!-- Generator: Adobe Illustrator 24.0.2, SVG Export Plug-In . SVG Version: 6.00 Build 0)  -->
<svg version="1.1" id="Layer_3" xmlns="http://www.w3.org/2000/svg" xmlns:xlink="http://www.w3.org/1999/xlink" x="0px" y="0px"
	 width="24px" height="24px" viewBox="0 0 24 24" enable-background="new 0 0 24 24" xml:space="preserve">
<g>
	<path fill="none" d="M24,24H0V0h24V24z"/>
	<g>
		<path fill="none" stroke="#323232" stroke-width="1.5" stroke-linecap="round" stroke-linejoin="round" d="M17,17.385v1.983
			C17,20.822,15.822,22,14.368,22H4.632C3.178,22,2,20.822,2,19.368V9.631C2,8.178,3.178,7,4.632,7h1.983"/>
		<path fill="none" stroke="#323232" stroke-width="1.5" stroke-linecap="round" stroke-linejoin="round" d="M14.199,9.8l3.6-3.6"/>
		<path fill="none" stroke="#323232" stroke-width="1.5" stroke-linecap="round" stroke-linejoin="round" d="M17.962,9.674
			c0.081,0.081,0.081,0.211,0,0.291c-0.081,0.081-0.211,0.081-0.291,0c-0.081-0.081-0.081-0.211,0-0.291
			C17.751,9.593,17.882,9.593,17.962,9.674"/>
		<path fill="none" stroke="#323232" stroke-width="1.5" stroke-linecap="round" stroke-linejoin="round" d="M14.328,6.035
			c0.081,0.081,0.081,0.211,0,0.291c-0.081,0.081-0.211,0.081-0.291,0c-0.08-0.081-0.081-0.211,0-0.291
			C14.118,5.956,14.248,5.955,14.328,6.035"/>
		<path fill="none" stroke="#323232" stroke-width="1.5" stroke-linecap="round" stroke-linejoin="round" d="M20.243,3.757
			c2.343,2.343,2.343,6.142,0,8.485s-6.142,2.343-8.485,0s-2.343-6.142,0-8.485S17.899,1.414,20.243,3.757"/>
	</g>
</g>
</svg>
