<?xml version="1.0" encoding="utf-8"?>
<!-- Generator: Adobe Illustrator 24.0.2, SVG Export Plug-In . SVG Version: 6.00 Build 0)  -->
<svg version="1.1" id="Layer_3" xmlns="http://www.w3.org/2000/svg" xmlns:xlink="http://www.w3.org/1999/xlink" x="0px" y="0px"
	 width="24px" height="24px" viewBox="0 0 24 24" enable-background="new 0 0 24 24" xml:space="preserve">
<g>
	<path fill="none" d="M0,0h24v24H0V0z"/>
	<g>
		<path fill="none" stroke="#323232" stroke-width="1.5" stroke-linecap="round" stroke-linejoin="round" d="M9.501,12H17"/>
		<path fill="none" stroke="#323232" stroke-width="1.5" stroke-linecap="round" stroke-linejoin="round" d="M9.501,15.484H17"/>
		<path fill="none" stroke="#323232" stroke-width="1.5" stroke-linecap="round" stroke-linejoin="round" d="M9.501,8.484H17"/>
		<path fill="none" stroke="#323232" stroke-width="1.5" stroke-linecap="round" stroke-linejoin="round" d="M7.05,8.434
			C7.022,8.434,7,8.457,7,8.485c0,0.028,0.023,0.05,0.051,0.05c0.028,0,0.051-0.023,0.051-0.05C7.101,8.457,7.078,8.434,7.05,8.434"
			/>
		<path fill="none" stroke="#323232" stroke-width="1.5" stroke-linecap="round" stroke-linejoin="round" d="M7.05,11.949
			C7.022,11.949,7,11.972,7,12c0,0.028,0.023,0.051,0.051,0.051c0.028,0,0.051-0.023,0.051-0.051S7.078,11.949,7.05,11.949"/>
		<path fill="none" stroke="#323232" stroke-width="1.5" stroke-linecap="round" stroke-linejoin="round" d="M7.05,15.434
			C7.022,15.434,7,15.457,7,15.485c0,0.028,0.023,0.05,0.051,0.05c0.028,0,0.051-0.023,0.051-0.05
			C7.101,15.457,7.078,15.434,7.05,15.434"/>
		<g>
			<path fill="none" stroke="#323232" stroke-width="1.5" stroke-linecap="round" stroke-linejoin="round" d="M21,7v10
				c0,2.209-1.791,4-4,4H7c-2.209,0-4-1.791-4-4V7c0-2.209,1.791-4,4-4h10C19.209,3,21,4.791,21,7z"/>
		</g>
	</g>
</g>
</svg>
