<?xml version="1.0" encoding="utf-8"?>
<!-- Generator: Adobe Illustrator 24.0.2, SVG Export Plug-In . SVG Version: 6.00 Build 0)  -->
<svg version="1.1" id="Layer_3" xmlns="http://www.w3.org/2000/svg" xmlns:xlink="http://www.w3.org/1999/xlink" x="0px" y="0px"
	 width="24px" height="24px" viewBox="0 0 24 24" enable-background="new 0 0 24 24" xml:space="preserve">
<g>
	<path fill="none" d="M0,0h24v24H0V0z"/>
	<g>
		<path fill="none" stroke="#323232" stroke-width="1.5" stroke-linecap="round" stroke-linejoin="round" d="M20.66,3.34
			c1.993,1.993,1.716,5.397-0.832,6.997c-1.406,0.884-3.266,0.884-4.673,0c-2.547-1.601-2.825-5.004-0.832-6.997
			C16.073,1.591,18.91,1.591,20.66,3.34"/>
		<path fill="none" stroke="#323232" stroke-width="1.5" stroke-linecap="round" stroke-linejoin="round" d="M19,14v3
			c0,2.209-1.791,4-4,4H7c-2.209,0-4-1.791-4-4V9c0-2.209,1.791-4,4-4h3"/>
		<path fill="none" stroke="#323232" stroke-width="1.5" stroke-linecap="round" stroke-linejoin="round" d="M16.649,5.667
			l0.842-0.843v3.37"/>
		<path fill="none" stroke="#323232" stroke-width="1.5" stroke-linecap="round" stroke-linejoin="round" d="M16.652,8.196h1.679"/>
	</g>
</g>
</svg>
