<svg id="Layer_3" data-name="Layer 3" xmlns="http://www.w3.org/2000/svg" viewBox="0 0 24 24"><rect width="24" height="24" fill="none"/><path d="M10,20H5a2,2,0,0,1-2-2V6A2,2,0,0,1,5,4H19a2,2,0,0,1,2,2V8" fill="none" stroke="#323232" stroke-linecap="round" stroke-linejoin="round" stroke-width="1.5"/><line x1="22" y1="20" x2="19.681" y2="17.681" fill="none" stroke="#323232" stroke-linecap="round" stroke-linejoin="round" stroke-width="1.5"/><path d="M16.5,10A4.5,4.5,0,1,1,12,14.5,4.5,4.5,0,0,1,16.5,10" fill="none" stroke="#323232" stroke-linecap="round" stroke-linejoin="round" stroke-width="1.5"/><path d="M17.722,14.45a.05.05,0,0,0,0,.1h0a.05.05,0,0,0,0-.1" fill="none" stroke="#323232" stroke-linecap="round" stroke-linejoin="round" stroke-width="1.5"/><path d="M15.277,14.45a.049.049,0,0,0-.049.049h0a.05.05,0,1,0,.05-.05h0" fill="none" stroke="#323232" stroke-linecap="round" stroke-linejoin="round" stroke-width="1.5"/></svg>