<?xml version="1.0" encoding="utf-8"?>
<!-- Generator: Adobe Illustrator 24.0.2, SVG Export Plug-In . SVG Version: 6.00 Build 0)  -->
<svg version="1.1" id="Layer_3" xmlns="http://www.w3.org/2000/svg" xmlns:xlink="http://www.w3.org/1999/xlink" x="0px" y="0px"
	 width="24px" height="24px" viewBox="0 0 24 24" enable-background="new 0 0 24 24" xml:space="preserve">
<g>
	<g>
		
			<line fill="none" stroke="#323232" stroke-width="1.5" stroke-linecap="round" stroke-linejoin="round" x1="16" y1="7" x2="11" y2="7"/>
		
			<line fill="none" stroke="#323232" stroke-width="1.5" stroke-linecap="round" stroke-linejoin="round" x1="11" y1="11" x2="16" y2="11"/>
		
			<line fill="none" stroke="#323232" stroke-width="1.5" stroke-linecap="round" stroke-linejoin="round" x1="11" y1="15" x2="16" y2="15"/>
		<path fill="none" stroke="#323232" stroke-width="1.5" stroke-linecap="round" stroke-linejoin="round" d="M4,4.778V19.5
			c0,0.743,0.782,1.227,1.447,0.894l0.771-0.386c0.282-0.141,0.613-0.141,0.894,0l1.773,0.886c0.281,0.141,0.613,0.141,0.894,0
			l1.773-0.886c0.281-0.141,0.613-0.141,0.894,0l1.773,0.886c0.282,0.141,0.613,0.141,0.895,0l1.771-0.886
			c0.282-0.141,0.613-0.141,0.895,0l0.772,0.386C19.218,20.727,20,20.243,20,19.5V4.778C20,3.796,19.204,3,18.222,3H5.778
			C4.796,3,4,3.796,4,4.778z"/>
		<path fill="none" stroke="#323232" stroke-width="1.5" stroke-linecap="round" stroke-linejoin="round" d="M7.874,6.875
			C7.806,6.875,7.749,6.931,7.75,7c0,0.069,0.056,0.125,0.125,0.125S8,7.069,8,7S7.944,6.875,7.874,6.875"/>
		<path fill="none" stroke="#323232" stroke-width="1.5" stroke-linecap="round" stroke-linejoin="round" d="M7.874,10.875
			c-0.069,0-0.125,0.056-0.124,0.125c0,0.069,0.056,0.125,0.125,0.125S8,11.069,8,11S7.944,10.875,7.874,10.875"/>
		<path fill="none" stroke="#323232" stroke-width="1.5" stroke-linecap="round" stroke-linejoin="round" d="M7.874,14.875
			c-0.069,0-0.125,0.056-0.124,0.125c0,0.069,0.056,0.125,0.125,0.125S8,15.069,8,15S7.944,14.875,7.874,14.875"/>
	</g>
	<path fill="none" d="M0,0h24v24H0V0z"/>
</g>
</svg>
