<?xml version="1.0" encoding="utf-8"?>
<!-- Generator: Adobe Illustrator 24.0.2, SVG Export Plug-In . SVG Version: 6.00 Build 0)  -->
<svg version="1.1" id="Layer_3" xmlns="http://www.w3.org/2000/svg" xmlns:xlink="http://www.w3.org/1999/xlink" x="0px" y="0px"
	 width="24px" height="24px" viewBox="0 0 24 24" enable-background="new 0 0 24 24" xml:space="preserve">
<g>
	<g>
		<path fill="none" stroke="#323232" stroke-width="1.5" stroke-linecap="round" stroke-linejoin="round" d="M10,12H5
			c-1.105,0-2-0.895-2-2V5c0-1.105,0.895-2,2-2h5c1.105,0,2,0.895,2,2v5C12,11.105,11.105,12,10,12z"/>
		<path fill="none" stroke="#323232" stroke-width="1.5" stroke-linecap="round" stroke-linejoin="round" d="M18.5,20h-3
			c-0.828,0-1.5-0.672-1.5-1.5v-3c0-0.828,0.672-1.5,1.5-1.5h3c0.828,0,1.5,0.672,1.5,1.5v3C20,19.328,19.328,20,18.5,20z"/>
		<path fill="none" stroke="#323232" stroke-width="1.5" stroke-linecap="round" stroke-linejoin="round" d="M19.5,11h-3
			c-0.828,0-1.5-0.672-1.5-1.5v-3C15,5.672,15.672,5,16.5,5h3C20.328,5,21,5.672,21,6.5v3C21,10.328,20.328,11,19.5,11z"/>
		<path fill="none" stroke="#323232" stroke-width="1.5" stroke-linecap="round" stroke-linejoin="round" d="M9.5,21h-3
			C5.672,21,5,20.328,5,19.5v-3C5,15.672,5.672,15,6.5,15h3c0.828,0,1.5,0.672,1.5,1.5v3C11,20.328,10.328,21,9.5,21z"/>
	</g>
	<rect fill="none" width="24" height="24"/>
</g>
</svg>
