<svg id="Layer_3" data-name="Layer 3" xmlns="http://www.w3.org/2000/svg" viewBox="0 0 24 24"><path d="M20,18a3,3,0,0,1-3,3H6a3,3,0,0,1-3-3V6A3,3,0,0,1,6,3H17a3,3,0,0,1,3,3" fill="none" stroke="#323232" stroke-linecap="round" stroke-linejoin="round" stroke-width="1.5"/><path id="Health-Icon" d="M15,11.05411a3.734,3.734,0,0,0,.98616,2.35235,6.31692,6.31692,0,0,0,1.67509,1.37571,1.71737,1.71737,0,0,0,1.76022-.05186,6.85674,6.85674,0,0,0,1.53171-1.33677A3.85376,3.85376,0,0,0,22,11.05411a2.04694,2.04694,0,0,0-.545-1.40726,1.81607,1.81607,0,0,0-1.32317-.588,1.85312,1.85312,0,0,0-1.61974.74738l-.012.01757-.01215-.01757a1.77765,1.77765,0,0,0-1.49422-.74738A1.96073,1.96073,0,0,0,15,11.05411Z" fill="none" stroke="#323232" stroke-linecap="round" stroke-linejoin="round" stroke-width="1.5" fill-rule="evenodd"/><path d="M7,7h7" fill="none" stroke="#323232" stroke-linecap="round" stroke-linejoin="round" stroke-width="1.5"/><path d="M7,10.5h5" fill="none" stroke="#323232" stroke-linecap="round" stroke-linejoin="round" stroke-width="1.5"/><path d="M7,13.66667h5" fill="none" stroke="#323232" stroke-linecap="round" stroke-linejoin="round" stroke-width="1.5"/><path d="M7,17h8" fill="none" stroke="#323232" stroke-linecap="round" stroke-linejoin="round" stroke-width="1.5"/><rect width="24" height="24" fill="none"/></svg>