<svg id="Layer_3" data-name="Layer 3" xmlns="http://www.w3.org/2000/svg" viewBox="0 0 24 24"><path d="M19,15h0a3,3,0,0,0,3-3V9a3,3,0,0,0-3-3H16" fill="none" stroke="#323232" stroke-linecap="round" stroke-linejoin="round" stroke-width="1.5"/><path d="M16,9V5.672a2,2,0,0,0-1.83391-1.99309L6.06392,3.0037a1,1,0,0,0-.91509,1.55124l.68322,1.02484A1,1,0,0,1,6,6.13448V9a7.45483,7.45483,0,0,0-.68317,11.37576A2.06151,2.06151,0,0,0,6.77559,21h8.44882a2.06151,2.06151,0,0,0,1.45876-.62424A7.45483,7.45483,0,0,0,16,9Z" fill="none" stroke="#323232" stroke-linecap="round" stroke-linejoin="round" stroke-width="1.5"/><line x1="18.92724" y1="14" x2="3.07276" y2="14" fill="none" stroke="#323232" stroke-linecap="round" stroke-linejoin="round" stroke-width="1.5"/><line x1="16" y1="9" x2="6" y2="9" fill="none" stroke="#323232" stroke-linecap="round" stroke-linejoin="round" stroke-width="1.5"/><path d="M24,24H0V0H24Z" fill="none"/></svg>