<svg id="Layer_3" data-name="Layer 3" xmlns="http://www.w3.org/2000/svg" viewBox="0 0 24 24"><title>jeans</title><line x1="20.2119" y1="6" x2="3.7881" y2="6" fill="none" stroke="#323232" stroke-linecap="round" stroke-linejoin="round" stroke-width="1.5"/><path d="M3.58386,9.88A3.88,3.88,0,0,0,7.46382,6" fill="none" stroke="#323232" stroke-linecap="round" stroke-linejoin="round" stroke-width="1.5"/><path d="M16.07006,22a1,1,0,0,1-.98389-.82113l-1.59423-8.76831A.5.5,0,0,0,13,12H11.07006a.5.5,0,0,0-.49194.41056L8.98389,21.17887A1,1,0,0,1,8,22H4a1,1,0,0,1-.9986-1.05254l.89472-17A1,1,0,0,1,4.89472,3H19.10528a1,1,0,0,1,.99859.94742l.89472,17A1,1,0,0,1,20,22Z" fill="none" stroke="#323232" stroke-linecap="round" stroke-linejoin="round" stroke-width="1.5"/><rect width="24" height="24" fill="none"/><path d="M20.41614,9.88a3.88,3.88,0,0,1-3.88-3.88" fill="none" stroke="#323232" stroke-linecap="round" stroke-linejoin="round" stroke-width="1.5"/></svg>