<svg id="Layer_3" data-name="Layer 3" xmlns="http://www.w3.org/2000/svg" viewBox="0 0 24 24"><title>jumping-rope</title><path d="M5,10v5c0,3.314,2.239,6,5,6s5-2.686,5-6a3.33,3.33,0,0,0-3-3.582A3.33,3.33,0,0,0,9,15c0,3.314,2.239,6,5,6s5-2.686,5-6V10" fill="none" stroke="#323232" stroke-linecap="round" stroke-linejoin="round" stroke-width="1.5"/><path d="M17.522,10V3.87a.871.871,0,0,1,.87-.87h1.13a1,1,0,0,1,1,1v6" fill="none" stroke="#323232" stroke-linecap="round" stroke-linejoin="round" stroke-width="1.5"/><path d="M21,10H17" fill="none" stroke="#323232" stroke-linecap="round" stroke-linejoin="round" stroke-width="1.5"/><path d="M3.522,10V3.87A.871.871,0,0,1,4.392,3h1.13a1,1,0,0,1,1,1v6" fill="none" stroke="#323232" stroke-linecap="round" stroke-linejoin="round" stroke-width="1.5"/><path d="M7,10H3" fill="none" stroke="#323232" stroke-linecap="round" stroke-linejoin="round" stroke-width="1.5"/><rect width="24" height="24" fill="none"/></svg>