<svg id="Layer_3" data-name="Layer 3" xmlns="http://www.w3.org/2000/svg" viewBox="0 0 24 24"><title>key-login-circle</title><path d="M9.691,12.093l-1.93,1.934a.9.9,0,0,0-.261.632v.947a.894.894,0,0,0,.894.894h.951a.888.888,0,0,0,.632-.263l1.926-1.93A3.44,3.44,0,0,0,13,14.5a3.559,3.559,0,1,0-3.309-2.407Z" fill="none" stroke="#323232" stroke-linecap="round" stroke-linejoin="round" stroke-width="1.5"/><path d="M13,10.959a.041.041,0,1,0,.041.041A.041.041,0,0,0,13,10.959" fill="none" stroke="#323232" stroke-linecap="round" stroke-linejoin="round" stroke-width="1.5"/><circle cx="12" cy="12" r="9" fill="none" stroke="#323232" stroke-linecap="round" stroke-linejoin="round" stroke-width="1.5"/><path d="M0,0H24V24H0Z" fill="none"/></svg>