<?xml version="1.0" encoding="utf-8"?>
<!-- Generator: Adobe Illustrator 24.0.2, SVG Export Plug-In . SVG Version: 6.00 Build 0)  -->
<svg version="1.1" id="Layer_1" xmlns="http://www.w3.org/2000/svg" xmlns:xlink="http://www.w3.org/1999/xlink" x="0px" y="0px"
	 width="24px" height="24px" viewBox="0 0 24 24" enable-background="new 0 0 24 24" xml:space="preserve">
<g>
	<g>
		<path fill="none" d="M0,0h24v24H0V0z"/>
	</g>
	<g>
		<path fill="none" stroke="#323232" stroke-width="1.5" stroke-linecap="round" stroke-linejoin="round" d="M9.941,11.843
			l-1.93,1.934c-0.167,0.168-0.261,0.395-0.261,0.631v0.947c0,0.494,0.4,0.894,0.894,0.894h0.95c0.237,0,0.465-0.094,0.633-0.262
			c0,0,1.926-1.93,1.926-1.93c0.347,0.115,0.711,0.193,1.097,0.193c1.933,0,3.5-1.567,3.5-3.5s-1.567-3.5-3.5-3.5
			s-3.5,1.567-3.5,3.5C9.75,11.134,9.827,11.497,9.941,11.843z"/>
		<path fill="none" stroke="#323232" stroke-width="1.5" stroke-linecap="round" stroke-linejoin="round" d="M18.364,5.636
			c3.515,3.515,3.515,9.213,0,12.728s-9.213,3.515-12.728,0s-3.515-9.213,0-12.728S14.849,2.121,18.364,5.636"/>
		<path fill="none" stroke="#323232" stroke-width="1.5" stroke-linecap="round" stroke-linejoin="round" d="M13.25,10.7
			c-0.028,0-0.05,0.022-0.05,0.05c0,0.028,0.022,0.05,0.05,0.05s0.05-0.022,0.05-0.05C13.3,10.722,13.278,10.7,13.25,10.7"/>
	</g>
</g>
</svg>
