<?xml version="1.0" encoding="utf-8"?>
<!-- Generator: Adobe Illustrator 24.0.2, SVG Export Plug-In . SVG Version: 6.00 Build 0)  -->
<svg version="1.1" id="Layer_1" xmlns="http://www.w3.org/2000/svg" xmlns:xlink="http://www.w3.org/1999/xlink" x="0px" y="0px"
	 width="24px" height="24px" viewBox="0 0 24 24" enable-background="new 0 0 24 24" xml:space="preserve">
<g>
	<path fill="none" d="M0,0h24v24H0V0z"/>
	<g>
		<path fill="none" stroke="#323232" stroke-width="1.5" stroke-linecap="round" stroke-linejoin="round" d="M13.678,8.614
			l-2.359,2.364C11.115,11.183,11,11.461,11,11.75v1.157C11,13.511,11.489,14,12.093,14h1.162c0.29,0,0.568-0.115,0.773-0.321
			c0,0,2.354-2.359,2.354-2.359c0.424,0.141,0.869,0.235,1.34,0.235C20.085,11.556,22,9.64,22,7.278S20.085,3,17.722,3
			s-4.278,1.915-4.278,4.278C13.444,7.748,13.539,8.191,13.678,8.614z"/>
		<g>
			
				<path fill="none" stroke="#323232" stroke-width="1.5" stroke-linecap="round" stroke-linejoin="round" stroke-miterlimit="10" d="
				M21,14v3c0,2.209-1.791,4-4,4H7c-2.209,0-4-1.791-4-4V7c0-2.209,1.791-4,4-4h5"/>
		</g>
		<path fill="none" stroke="#323232" stroke-width="1.5" stroke-linecap="round" stroke-linejoin="round" d="M17.722,7.228
			c-0.028,0-0.05,0.022-0.05,0.05c0,0.028,0.022,0.05,0.05,0.05s0.05-0.022,0.05-0.05S17.75,7.228,17.722,7.228"/>
	</g>
</g>
</svg>
