<svg id="Layer_3" data-name="Layer 3" xmlns="http://www.w3.org/2000/svg" viewBox="0 0 24 24"><title>key-arrow-circle</title><path d="M11.845,13.56l1.934,1.93a.9.9,0,0,0,.631.261h.947a.894.894,0,0,0,.894-.894v-.95a.9.9,0,0,0-.262-.633l-1.93-1.926a3.558,3.558,0,1,0-2.214,2.212Z" fill="none" stroke="#323232" stroke-linecap="round" stroke-linejoin="round" stroke-width="1.5"/><path d="M10,19.5H4" fill="none" stroke="#323232" stroke-linecap="round" stroke-linejoin="round" stroke-width="1.5"/><path d="M14,20.271A9,9,0,1,0,3.942,15.5" fill="none" stroke="#323232" stroke-linecap="round" stroke-linejoin="round" stroke-width="1.5"/><path d="M8,17.5l2,2-2,2" fill="none" stroke="#323232" stroke-linecap="round" stroke-linejoin="round" stroke-width="1.5"/><path d="M10.7,10.251a.05.05,0,1,0,.05-.05.05.05,0,0,0-.05.05" fill="none" stroke="#323232" stroke-linecap="round" stroke-linejoin="round" stroke-width="1.5"/><path d="M0,24V0H24V24Z" fill="none"/></svg>