<?xml version="1.0" encoding="utf-8"?>
<!-- Generator: Adobe Illustrator 24.0.2, SVG Export Plug-In . SVG Version: 6.00 Build 0)  -->
<svg version="1.1" id="Layer_1" xmlns="http://www.w3.org/2000/svg" xmlns:xlink="http://www.w3.org/1999/xlink" x="0px" y="0px"
	 width="24px" height="24px" viewBox="0 0 24 24" enable-background="new 0 0 24 24" xml:space="preserve">
<g>
	<g>
		
			<path fill="none" stroke="#323232" stroke-width="1.5" stroke-linecap="round" stroke-linejoin="round" stroke-miterlimit="10" d="
			M21,14v5c0,1.105-0.895,2-2,2H5c-1.105,0-2-0.895-2-2V5c0-1.105,0.895-2,2-2h6"/>
		
			<line fill="none" stroke="#323232" stroke-width="1.5" stroke-linecap="round" stroke-linejoin="round" stroke-miterlimit="10" x1="7" y1="3" x2="7" y2="21"/>
		<g>
			<g>
				
					<path id="Shape_3077_3_" fill="none" stroke="#323232" stroke-width="1.5" stroke-linecap="round" stroke-linejoin="round" stroke-miterlimit="10" d="
					M18.14,7.124c0-0.146-0.119-0.264-0.265-0.264c-0.146,0.001-0.265,0.119-0.265,0.265c0,0.146,0.119,0.265,0.265,0.264
					C18.021,7.389,18.14,7.271,18.14,7.124"/>
			</g>
		</g>
		
			<path fill="none" stroke="#323232" stroke-width="1.5" stroke-linecap="round" stroke-linejoin="round" stroke-miterlimit="10" d="
			M11,11.667l3.04-3.049c-0.569-1.478-0.264-3.216,0.925-4.408c1.609-1.613,4.219-1.613,5.828,0c1.609,1.613,1.609,4.228,0,5.842
			c-1.201,1.204-2.957,1.506-4.441,0.915L13.328,14H11V11.667z"/>
	</g>
	<rect fill="none" width="24" height="24"/>
</g>
</svg>
