<?xml version="1.0" encoding="utf-8"?>
<!-- Generator: Adobe Illustrator 23.1.0, SVG Export Plug-In . SVG Version: 6.00 Build 0)  -->
<svg version="1.1" id="icons" xmlns="http://www.w3.org/2000/svg" xmlns:xlink="http://www.w3.org/1999/xlink" x="0px" y="0px"
	 width="24px" height="24px" viewBox="0 0 24 24" enable-background="new 0 0 24 24" xml:space="preserve">
<g>
	<g>
		<g>
			<path id="Shape_3077_14_" fill="none" stroke="#323232" stroke-width="1.5" stroke-linecap="round" stroke-linejoin="round" d="
				M13.464,10.793c0.138,0,0.249-0.112,0.249-0.25c0-0.138-0.113-0.25-0.25-0.25c-0.138,0-0.25,0.112-0.25,0.25
				C13.213,10.681,13.325,10.793,13.464,10.793"/>
		</g>
		<path fill="none" stroke="#323232" stroke-width="1.5" stroke-linecap="round" stroke-linejoin="round" d="M9.831,11.696
			c-0.417-1.321-0.122-2.82,0.921-3.869c1.495-1.498,3.918-1.499,5.414-0.002c1.496,1.496,1.499,3.926,0.007,5.426
			c-1.049,1.051-2.55,1.349-3.872,0.926l-0.008,0.007L9.7,16.782c-0.684,0.685-1.794,0.685-2.478,0
			c-0.682-0.683-0.682-1.789,0-2.473l2.593-2.598"/>
		<path fill="none" stroke="#323232" stroke-width="1.5" stroke-linecap="round" stroke-linejoin="round" d="M19,21H5
			c-1.105,0-2-0.895-2-2V5c0-1.105,0.895-2,2-2h14c1.105,0,2,0.895,2,2v14C21,20.105,20.105,21,19,21z"/>
	</g>
	<path fill="none" d="M0,0h24v24H0V0z"/>
</g>
</svg>
