<?xml version="1.0" encoding="utf-8"?>
<!-- Generator: Adobe Illustrator 24.0.2, SVG Export Plug-In . SVG Version: 6.00 Build 0)  -->
<svg version="1.1" id="Layer_3" xmlns="http://www.w3.org/2000/svg" xmlns:xlink="http://www.w3.org/1999/xlink" x="0px" y="0px"
	 width="24px" height="24px" viewBox="0 0 24 24" enable-background="new 0 0 24 24" xml:space="preserve">
<g>
	<g>
		<g>
			<path id="Shape_3077_14_" fill="none" stroke="#323232" stroke-width="1.5" stroke-linecap="round" stroke-linejoin="round" d="
				M13.245,10.885c0.069,0,0.125-0.056,0.125-0.125c0-0.069-0.057-0.125-0.125-0.125c-0.069,0-0.125,0.056-0.125,0.125
				C13.12,10.829,13.176,10.885,13.245,10.885"/>
		</g>
		<path fill="none" stroke="#323232" stroke-width="1.5" stroke-linecap="round" stroke-linejoin="round" d="M10.155,11.741
			C9.8,10.618,10.051,9.342,10.938,8.45c1.272-1.274,3.333-1.275,4.606-0.002c1.273,1.273,1.275,3.34,0.006,4.616
			c-0.892,0.894-2.169,1.148-3.294,0.788l-0.007,0.006l-2.206,2.21c-0.582,0.583-1.526,0.583-2.108,0
			c-0.58-0.581-0.58-1.522,0-2.104l2.206-2.21"/>
		<path fill="none" stroke="#323232" stroke-width="1.5" stroke-linecap="round" stroke-linejoin="round" d="M12,21L12,21
			c-4.971,0-9-4.029-9-9v0c0-4.971,4.029-9,9-9h0c4.971,0,9,4.029,9,9v0C21,16.971,16.971,21,12,21z"/>
	</g>
	<path fill="none" d="M0,0h24v24H0V0z"/>
</g>
</svg>
