<?xml version="1.0" encoding="utf-8"?>
<!-- Generator: Adobe Illustrator 24.0.2, SVG Export Plug-In . SVG Version: 6.00 Build 0)  -->
<svg version="1.1" id="Layer_3" xmlns="http://www.w3.org/2000/svg" xmlns:xlink="http://www.w3.org/1999/xlink" x="0px" y="0px"
	 width="24px" height="24px" viewBox="0 0 24 24" enable-background="new 0 0 24 24" xml:space="preserve">
<g>
	<g>
		<path fill="none" d="M0,24V0h24v24"/>
	</g>
	<g>
		<path fill="none" stroke="#323232" stroke-width="1.5" stroke-linecap="round" stroke-linejoin="round" d="M18.5,21h-13
			C3.567,21,2,19.433,2,17.5v0C2,15.567,3.567,14,5.5,14h13c1.933,0,3.5,1.567,3.5,3.5v0C22,19.433,20.433,21,18.5,21z"/>
		<path fill="none" stroke="#323232" stroke-width="1.625" stroke-linecap="round" stroke-linejoin="round" d="M18.244,17.499
			c0-0.135-0.109-0.244-0.244-0.243c-0.135,0-0.244,0.109-0.244,0.244s0.109,0.244,0.244,0.244S18.244,17.635,18.244,17.499"/>
		<path fill="none" stroke="#323232" stroke-width="1.625" stroke-linecap="round" stroke-linejoin="round" d="M14.244,17.499
			c0-0.135-0.109-0.244-0.244-0.243c-0.135,0-0.244,0.109-0.244,0.244s0.109,0.244,0.244,0.244
			C14.134,17.744,14.244,17.635,14.244,17.499"/>
		<path fill="none" stroke="#323232" stroke-width="1.625" stroke-linecap="round" stroke-linejoin="round" d="M10.244,17.499
			c0-0.135-0.109-0.244-0.244-0.243c-0.135,0-0.244,0.109-0.244,0.244S9.865,17.744,10,17.744
			C10.134,17.744,10.244,17.635,10.244,17.499"/>
		<path fill="none" stroke="#323232" stroke-width="1.625" stroke-linecap="round" stroke-linejoin="round" d="M6.244,17.499
			c0-0.135-0.109-0.244-0.244-0.243c-0.135,0-0.244,0.109-0.244,0.244S5.865,17.744,6,17.744
			C6.134,17.744,6.244,17.635,6.244,17.499"/>
		<path fill="none" stroke="#323232" stroke-width="1.5" stroke-linecap="round" stroke-linejoin="round" d="M19,8.571V5.967"/>
		<path fill="none" stroke="#323232" stroke-width="1.5" stroke-linecap="round" stroke-linejoin="round" d="M15,8.604V6"/>
		<path fill="none" stroke="#323232" stroke-width="1.5" stroke-linecap="round" stroke-linejoin="round" d="M10.121,3.879
			c1.172,1.172,1.172,3.071,0,4.243s-3.071,1.172-4.243,0c-1.172-1.172-1.172-3.071,0-4.243C7.05,2.707,8.95,2.707,10.121,3.879"/>
		<path fill="none" stroke="#323232" stroke-width="1.5" stroke-linecap="round" stroke-linejoin="round" d="M19,5.967L11,6"/>
	</g>
</g>
</svg>
