<svg id="Layer_3" data-name="Layer 3" xmlns="http://www.w3.org/2000/svg" viewBox="0 0 24 24"><title>key-login-protection</title><path d="M9.178,12.114,6.819,14.478a1.1,1.1,0,0,0-.319.772v1.157A1.093,1.093,0,0,0,7.593,17.5H8.755a1.09,1.09,0,0,0,.773-.321l2.354-2.359a4.224,4.224,0,0,0,1.34.235,4.351,4.351,0,1,0-4.044-2.941Z" fill="none" stroke="#323232" stroke-linecap="round" stroke-linejoin="round" stroke-width="1.5"/><rect x="3" y="3" width="18" height="18" rx="5" stroke-width="1.5" stroke="#323232" stroke-linecap="round" stroke-linejoin="round" fill="none"/><path d="M13.222,10.728a.05.05,0,1,0,.05.05.05.05,0,0,0-.05-.05" fill="none" stroke="#323232" stroke-linecap="round" stroke-linejoin="round" stroke-width="1.5"/><path d="M0,0H24V24H0Z" fill="none"/></svg>