<?xml version="1.0" encoding="utf-8"?>
<!-- Generator: Adobe Illustrator 23.1.0, SVG Export Plug-In . SVG Version: 6.00 Build 0)  -->
<svg version="1.1" id="icons" xmlns="http://www.w3.org/2000/svg" xmlns:xlink="http://www.w3.org/1999/xlink" x="0px" y="0px"
	 width="24px" height="24px" viewBox="0 0 24 24" enable-background="new 0 0 24 24" xml:space="preserve">
<g>
	<g>
		<g>
			<g>
				
					<path id="Shape_3077_3_" fill="none" stroke="#323232" stroke-width="1.5" stroke-linecap="round" stroke-linejoin="round" stroke-miterlimit="10" d="
					M15.031,9.342c0-0.207-0.168-0.374-0.375-0.374c-0.207,0.001-0.375,0.169-0.375,0.376c0,0.207,0.168,0.375,0.375,0.374
					c0.207,0,0.375-0.168,0.375-0.375"/>
			</g>
		</g>
		
			<path fill="none" stroke="#323232" stroke-width="1.5" stroke-linecap="round" stroke-linejoin="round" stroke-miterlimit="10" d="
			M3.5,17.195l5.723-5.736c-0.806-2.094-0.374-4.556,1.311-6.245c2.28-2.285,5.977-2.285,8.256,0c2.28,2.285,2.28,5.99,0,8.276
			c-1.701,1.705-4.189,2.134-6.291,1.296L6.798,20.5H3.5C3.5,20.5,3.5,17.195,3.5,17.195z"/>
	</g>
	<rect y="0" fill="none" width="24" height="24"/>
</g>
</svg>
