<?xml version="1.0" encoding="UTF-8"?><svg version="1.1" viewBox="0 0 24 24" xmlns="http://www.w3.org/2000/svg" xmlns:xlink="http://www.w3.org/1999/xlink"><!--Generated by IJSVG (https://github.com/iconjar/IJSVG)--><g fill="none"><path d="M0,0h24v24h-24"></path><path stroke="#323232" stroke-linecap="round" stroke-linejoin="round" stroke-width="1.5" d="M8.294,10.705c0,-0.163 -0.132,-0.294 -0.294,-0.294c-0.163,0.001 -0.294,0.133 -0.294,0.295c0,0.163 0.132,0.294 0.294,0.294c0.162,0 0.294,-0.132 0.294,-0.295"></path><path stroke="#323232" stroke-linecap="round" stroke-linejoin="round" stroke-width="1.5" d="M8,10.411v-4.911c0,-1.381 1.119,-2.5 2.5,-2.5v0c1.381,0 2.5,1.119 2.5,2.5v0.572"></path><path stroke="#323232" stroke-linecap="round" stroke-linejoin="round" stroke-width="1.5" d="M10.162,15.183c0.807,0.558 1.783,0.889 2.838,0.889c0.662,0 1.29,-0.135 1.868,-0.369l3.009,3.005c0.188,0.187 0.442,0.292 0.706,0.292h1.417c0.552,0 1,-0.448 1,-1v-1.412c0,-0.266 -0.106,-0.52 -0.294,-0.708l-3.044,-3.04c0.21,-0.551 0.338,-1.143 0.338,-1.768c0,-2.761 -2.239,-5 -5,-5c-0.784,0 -1.516,0.196 -2.176,0.518"></path><path stroke="#323232" stroke-linecap="round" stroke-linejoin="round" stroke-width="1.5" d="M6.004,15.268c-0.557,-0.243 -1.083,-0.582 -1.539,-1.038c-1.953,-1.953 -1.953,-5.118 0,-7.071c1.953,-1.953 5.118,-1.953 7.071,0c1.953,1.953 1.953,5.118 0,7.071c-0.454,0.454 -0.978,0.791 -1.532,1.034l0.003,4.237c0,0.266 -0.105,0.52 -0.293,0.708l-0.998,0.998c-0.391,0.391 -1.024,0.391 -1.414,0l-1.002,-1.002c-0.187,-0.187 -0.293,-0.441 -0.293,-0.706l-0.003,-4.231Z"></path><path d="M24,0v24h-24v-24h24Z"></path></g></svg>