<svg id="Layer_3" data-name="Layer 3" xmlns="http://www.w3.org/2000/svg" viewBox="0 0 24 24"><title>keyboard</title><rect x="3" y="4" width="18" height="16" rx="5" stroke-width="1.5" stroke="#323232" stroke-linecap="round" stroke-linejoin="round" fill="none"/><line x1="16" y1="16.5" x2="8" y2="16.5" fill="none" stroke="#323232" stroke-linecap="round" stroke-linejoin="round" stroke-width="1.5"/><path d="M13.675,12.367a.124.124,0,0,0,.125.124.125.125,0,1,0-.125-.124" fill="none" stroke="#323232" stroke-linecap="round" stroke-linejoin="round" stroke-width="1.5"/><path d="M17.275,12.367a.124.124,0,0,0,.125.124.125.125,0,1,0-.125-.124" fill="none" stroke="#323232" stroke-linecap="round" stroke-linejoin="round" stroke-width="1.5"/><path d="M10.075,12.367a.124.124,0,0,0,.125.124.125.125,0,1,0-.125-.124" fill="none" stroke="#323232" stroke-linecap="round" stroke-linejoin="round" stroke-width="1.5"/><path d="M6.475,12.367a.124.124,0,0,0,.125.124.125.125,0,1,0-.125-.124" fill="none" stroke="#323232" stroke-linecap="round" stroke-linejoin="round" stroke-width="1.5"/><path d="M6.475,8.75A.125.125,0,1,0,6.6,8.625a.125.125,0,0,0-.125.125" fill="none" stroke="#323232" stroke-linecap="round" stroke-linejoin="round" stroke-width="1.5"/><path d="M10.075,8.75a.125.125,0,1,0,.125-.125.125.125,0,0,0-.125.125" fill="none" stroke="#323232" stroke-linecap="round" stroke-linejoin="round" stroke-width="1.5"/><path d="M13.675,8.75a.125.125,0,1,0,.125-.125.125.125,0,0,0-.125.125" fill="none" stroke="#323232" stroke-linecap="round" stroke-linejoin="round" stroke-width="1.5"/><path d="M17.275,8.75a.125.125,0,1,0,.125-.125.125.125,0,0,0-.125.125" fill="none" stroke="#323232" stroke-linecap="round" stroke-linejoin="round" stroke-width="1.5"/><path d="M0,0H24V24H0Z" fill="none"/></svg>