<svg id="Layer_3" data-name="Layer 3" xmlns="http://www.w3.org/2000/svg" viewBox="0 0 24 24"><title>Artboard 266</title><path d="M5.331,21H12a2.331,2.331,0,0,0,2.332-2.33V14.331A2.331,2.331,0,0,0,12,12H5.331A2.33,2.33,0,0,0,3,14.331v4.338A2.331,2.331,0,0,0,5.331,21Z" fill="none" stroke="#323232" stroke-linecap="round" stroke-linejoin="round" stroke-width="1.5"/><path d="M13,3H4.714A1.715,1.715,0,0,0,3,4.714V10" fill="none" stroke="#323232" stroke-linecap="round" stroke-linejoin="round" stroke-width="1.5"/><path d="M21,11v8.2A1.8,1.8,0,0,1,19.2,21H17" fill="none" stroke="#323232" stroke-linecap="round" stroke-linejoin="round" stroke-width="1.5"/><line x1="16" y1="8" x2="21" y2="3" fill="none" stroke="#323232" stroke-linecap="round" stroke-linejoin="round" stroke-width="1.5"/><line x1="17" y1="3" x2="21" y2="3" fill="none" stroke="#323232" stroke-linecap="round" stroke-linejoin="round" stroke-width="1.5"/><line x1="21" y1="7" x2="21" y2="3" fill="none" stroke="#323232" stroke-linecap="round" stroke-linejoin="round" stroke-width="1.5"/><path d="M8.666,15.05a.05.05,0,0,0,.05-.05.05.05,0,1,0-.05.05" fill="none" stroke="#323232" stroke-linecap="round" stroke-linejoin="round" stroke-width="1.5"/><path d="M11.166,15.05a.05.05,0,0,0,.05-.05.05.05,0,0,0-.05-.05.05.05,0,0,0-.05.05.05.05,0,0,0,.05.05" fill="none" stroke="#323232" stroke-linecap="round" stroke-linejoin="round" stroke-width="1.5"/><path d="M6.166,15.05a.05.05,0,0,0,.05-.05.05.05,0,0,0-.05-.05.05.05,0,0,0-.05.05.05.05,0,0,0,.05.05" fill="none" stroke="#323232" stroke-linecap="round" stroke-linejoin="round" stroke-width="1.5"/><path d="M6.166,15.05a.05.05,0,0,0,.05-.05.05.05,0,0,0-.05-.05.05.05,0,0,0-.05.05.05.05,0,0,0,.05.05" fill="none" stroke="#323232" stroke-linecap="round" stroke-linejoin="round" stroke-width="1.5"/><path d="M6.166,18h5" fill="none" stroke="#323232" stroke-linecap="round" stroke-linejoin="round" stroke-width="1.5"/><rect width="24" height="24" fill="none"/></svg>