<?xml version="1.0" encoding="utf-8"?>
<!-- Generator: Adobe Illustrator 24.0.2, SVG Export Plug-In . SVG Version: 6.00 Build 0)  -->
<svg version="1.1" id="Layer_1" xmlns="http://www.w3.org/2000/svg" xmlns:xlink="http://www.w3.org/1999/xlink" x="0px" y="0px"
	 width="24px" height="24px" viewBox="0 0 24 24" enable-background="new 0 0 24 24" xml:space="preserve">
<g>
	<path fill="none" d="M0,0h24v24H0V0z"/>
	<g>
		<path fill="none" stroke="#323232" stroke-width="1.5" stroke-linecap="round" stroke-linejoin="round" d="M17.668,15H6.331
			C5.044,15,4,13.957,4,12.669V5.331C4,4.043,5.043,3,6.331,3h11.338C18.956,3,20,4.043,20,5.331v7.339
			C19.999,13.957,18.956,15,17.668,15z"/>
		<path fill="none" stroke="#323232" stroke-width="1.5" stroke-linecap="round" stroke-linejoin="round" d="M14.5,19L12,21l-2.5-2"
			/>
		<path fill="none" stroke="#323232" stroke-width="1.5" stroke-linecap="round" stroke-linejoin="round" d="M16.91,7.545
			c0.1,0,0.182-0.081,0.181-0.182c0-0.1-0.081-0.182-0.182-0.182s-0.182,0.081-0.182,0.182S16.809,7.545,16.91,7.545"/>
		<path fill="none" stroke="#323232" stroke-width="1.5" stroke-linecap="round" stroke-linejoin="round" d="M16.91,10.818
			c0.1,0,0.182-0.081,0.181-0.182c0-0.1-0.081-0.182-0.182-0.182s-0.182,0.081-0.182,0.182S16.809,10.818,16.91,10.818"/>
		<path fill="none" stroke="#323232" stroke-width="1.5" stroke-linecap="round" stroke-linejoin="round" d="M10.23,10.64h3.54"/>
		<path fill="none" stroke="#323232" stroke-width="1.5" stroke-linecap="round" stroke-linejoin="round" d="M13.637,7.545
			c0.1,0,0.182-0.081,0.181-0.182c0-0.1-0.081-0.182-0.182-0.182c-0.1,0-0.182,0.081-0.182,0.182
			C13.455,7.464,13.536,7.545,13.637,7.545"/>
		<path fill="none" stroke="#323232" stroke-width="1.5" stroke-linecap="round" stroke-linejoin="round" d="M10.364,7.545
			c0.1,0,0.182-0.081,0.181-0.182c0-0.1-0.081-0.182-0.182-0.182c-0.1,0-0.182,0.081-0.182,0.182
			C10.182,7.464,10.263,7.545,10.364,7.545"/>
		<path fill="none" stroke="#323232" stroke-width="1.5" stroke-linecap="round" stroke-linejoin="round" d="M7.092,7.545
			c0.1,0,0.182-0.081,0.181-0.182c0-0.1-0.081-0.182-0.182-0.182c-0.101,0-0.182,0.081-0.182,0.182S6.991,7.545,7.092,7.545"/>
		<path fill="none" stroke="#323232" stroke-width="1.5" stroke-linecap="round" stroke-linejoin="round" d="M7.092,10.818
			c0.1,0,0.182-0.081,0.181-0.182c0-0.1-0.081-0.182-0.182-0.182c-0.101,0-0.182,0.081-0.182,0.182S6.991,10.818,7.092,10.818"/>
	</g>
</g>
</svg>
