<svg id="Layer_3" data-name="Layer 3" xmlns="http://www.w3.org/2000/svg" viewBox="0 0 24 24"><title>keyboard-squre</title><path d="M9,16h6a2,2,0,0,0,2-2V10a2,2,0,0,0-2-2H9a2,2,0,0,0-2,2v4A2,2,0,0,0,9,16Z" fill="none" stroke="#323232" stroke-linecap="round" stroke-linejoin="round" stroke-width="1.5"/><rect x="3" y="3" width="18" height="18" rx="5" stroke-width="1.5" stroke="#323232" stroke-linecap="round" stroke-linejoin="round" fill="none"/><path d="M12,11.05a.05.05,0,1,0-.05-.05.05.05,0,0,0,.05.05" fill="none" stroke="#323232" stroke-linecap="round" stroke-linejoin="round" stroke-width="1.5"/><path d="M14.5,11.05a.05.05,0,0,0,0-.1.05.05,0,0,0-.05.05.05.05,0,0,0,.05.05" fill="none" stroke="#323232" stroke-linecap="round" stroke-linejoin="round" stroke-width="1.5"/><path d="M9.5,11.05a.05.05,0,0,0,0-.1.05.05,0,0,0-.05.05.05.05,0,0,0,.05.05" fill="none" stroke="#323232" stroke-linecap="round" stroke-linejoin="round" stroke-width="1.5"/><path d="M9.5,11.05a.05.05,0,0,0,0-.1.05.05,0,0,0-.05.05.05.05,0,0,0,.05.05" fill="none" stroke="#323232" stroke-linecap="round" stroke-linejoin="round" stroke-width="1.5"/><path d="M10,13.5h4" fill="none" stroke="#323232" stroke-linecap="round" stroke-linejoin="round" stroke-width="1.5"/><rect width="24" height="24" fill="none"/></svg>