<?xml version="1.0" encoding="utf-8"?>
<!-- Generator: Adobe Illustrator 23.1.0, SVG Export Plug-In . SVG Version: 6.00 Build 0)  -->
<svg version="1.1" id="icons" xmlns="http://www.w3.org/2000/svg" xmlns:xlink="http://www.w3.org/1999/xlink" x="0px" y="0px"
	 width="24px" height="24px" viewBox="0 0 24 24" enable-background="new 0 0 24 24" xml:space="preserve">
<g>
	<g>
		<path fill="none" stroke="#323232" stroke-width="1.5" stroke-linecap="round" stroke-linejoin="round" d="M10.074,2.5h3.852
			C15.071,2.5,16,3.429,16,4.574v3.852c0,1.145-0.929,2.074-2.074,2.074h-3.852C8.929,10.5,8,9.571,8,8.426V4.574
			C8,3.429,8.929,2.5,10.074,2.5z"/>
		
			<line fill="none" stroke="#323232" stroke-width="1.5" stroke-linecap="round" stroke-linejoin="round" x1="12" y1="5" x2="12" y2="8"/>
		<polyline fill="none" stroke="#323232" stroke-width="1.5" stroke-linecap="round" stroke-linejoin="round" points="13.5,6.5 
			12,5 10.5,6.5 		"/>
		<path fill="none" stroke="#323232" stroke-width="1.5" stroke-linecap="round" stroke-linejoin="round" d="M22,15.574v3.852
			c0,1.145-0.929,2.074-2.074,2.074h-3.852C14.929,21.5,14,20.571,14,19.426v-3.852c0-1.145,0.929-2.074,2.074-2.074h3.852
			C21.071,13.5,22,14.429,22,15.574z"/>
		
			<line fill="none" stroke="#323232" stroke-width="1.5" stroke-linecap="round" stroke-linejoin="round" x1="19.5" y1="17.5" x2="16.5" y2="17.5"/>
		<polyline fill="none" stroke="#323232" stroke-width="1.5" stroke-linecap="round" stroke-linejoin="round" points="18,19 
			19.5,17.5 18,16 		"/>
		<path fill="none" stroke="#323232" stroke-width="1.5" stroke-linecap="round" stroke-linejoin="round" d="M2,19.426v-3.852
			C2,14.429,2.929,13.5,4.074,13.5h3.852C9.071,13.5,10,14.429,10,15.574v3.852c0,1.145-0.929,2.074-2.074,2.074H4.074
			C2.929,21.5,2,20.571,2,19.426z"/>
		
			<line fill="none" stroke="#323232" stroke-width="1.5" stroke-linecap="round" stroke-linejoin="round" x1="4.5" y1="17.5" x2="7.5" y2="17.5"/>
		<polyline fill="none" stroke="#323232" stroke-width="1.5" stroke-linecap="round" stroke-linejoin="round" points="6,16 
			4.5,17.5 6,19 		"/>
	</g>
	<rect y="0" fill="none" width="24" height="24"/>
</g>
</svg>
