<?xml version="1.0" encoding="utf-8"?>
<!-- Generator: Adobe Illustrator 24.0.2, SVG Export Plug-In . SVG Version: 6.00 Build 0)  -->
<svg version="1.1" id="Layer_1" xmlns="http://www.w3.org/2000/svg" xmlns:xlink="http://www.w3.org/1999/xlink" x="0px" y="0px"
	 width="24px" height="24px" viewBox="0 0 24 24" enable-background="new 0 0 24 24" xml:space="preserve">
<g>
	<g>
		<g>
			<path fill="none" d="M24,24H0V0h24V24z"/>
		</g>
	</g>
	<g>
		<path fill="none" stroke="#323232" stroke-width="1.5" stroke-linecap="round" stroke-linejoin="round" d="M17.668,21H6.331
			C5.044,21,4,19.957,4,18.669v-7.338C4,10.043,5.043,9,6.331,9h11.338C18.956,9,20,10.043,20,11.331v7.339
			C19.999,19.957,18.956,21,17.668,21z"/>
		
			<line fill="none" stroke="#323232" stroke-width="1.5" stroke-linecap="round" stroke-linejoin="round" x1="10.586" y1="3" x2="13.414" y2="5.828"/>
		
			<line fill="none" stroke="#323232" stroke-width="1.5" stroke-linecap="round" stroke-linejoin="round" x1="10.586" y1="5.828" x2="13.414" y2="3"/>
		<path fill="none" stroke="#323232" stroke-width="1.5" stroke-linecap="round" stroke-linejoin="round" d="M16.91,13.545
			c0.1,0,0.182-0.081,0.181-0.182c0-0.1-0.081-0.182-0.182-0.182s-0.182,0.081-0.182,0.182S16.809,13.545,16.91,13.545"/>
		<path fill="none" stroke="#323232" stroke-width="1.5" stroke-linecap="round" stroke-linejoin="round" d="M16.91,16.818
			c0.1,0,0.182-0.081,0.181-0.182c0-0.1-0.081-0.182-0.182-0.182s-0.182,0.081-0.182,0.182
			C16.727,16.737,16.809,16.818,16.91,16.818"/>
		<path fill="none" stroke="#323232" stroke-width="1.5" stroke-linecap="round" stroke-linejoin="round" d="M10.23,16.64h3.54"/>
		<path fill="none" stroke="#323232" stroke-width="1.5" stroke-linecap="round" stroke-linejoin="round" d="M13.637,13.545
			c0.1,0,0.182-0.081,0.181-0.182c0-0.1-0.081-0.182-0.182-0.182c-0.1,0-0.182,0.081-0.182,0.182
			C13.455,13.464,13.536,13.545,13.637,13.545"/>
		<path fill="none" stroke="#323232" stroke-width="1.5" stroke-linecap="round" stroke-linejoin="round" d="M10.364,13.545
			c0.1,0,0.182-0.081,0.181-0.182c0-0.1-0.081-0.182-0.182-0.182c-0.1,0-0.182,0.081-0.182,0.182
			C10.182,13.464,10.263,13.545,10.364,13.545"/>
		<path fill="none" stroke="#323232" stroke-width="1.5" stroke-linecap="round" stroke-linejoin="round" d="M7.092,13.545
			c0.1,0,0.182-0.081,0.181-0.182c0-0.1-0.081-0.182-0.182-0.182c-0.101,0-0.182,0.081-0.182,0.182S6.991,13.545,7.092,13.545"/>
		<path fill="none" stroke="#323232" stroke-width="1.5" stroke-linecap="round" stroke-linejoin="round" d="M7.092,16.818
			c0.1,0,0.182-0.081,0.181-0.182c0-0.1-0.081-0.182-0.182-0.182c-0.101,0-0.182,0.081-0.182,0.182
			C6.909,16.737,6.991,16.818,7.092,16.818"/>
	</g>
</g>
</svg>
