<?xml version="1.0" encoding="utf-8"?>
<!-- Generator: Adobe Illustrator 23.1.0, SVG Export Plug-In . SVG Version: 6.00 Build 0)  -->
<svg version="1.1" id="icons" xmlns="http://www.w3.org/2000/svg" xmlns:xlink="http://www.w3.org/1999/xlink" x="0px" y="0px"
	 width="24px" height="24px" viewBox="0 0 24 24" enable-background="new 0 0 24 24" xml:space="preserve">
<g>
	<g>
		<path fill="none" stroke="#323232" stroke-width="1.5" stroke-linecap="round" stroke-linejoin="round" d="M20.424,4.803v2.893
			h-2.893h2.893"/>
		<path fill="none" stroke="#323232" stroke-width="1.5" stroke-linecap="round" stroke-linejoin="round" d="M19.905,7.696
			C18.379,4.899,15.412,3,12,3c-4.971,0-9,4.03-9,9s4.029,9,9,9s9-4.03,9-9"/>
		<g>
			<path fill="none" stroke="#323232" stroke-width="1.5" stroke-linecap="round" stroke-linejoin="round" d="M13.539,12.131
				c0.644-0.557,0.983-1.456,0.73-2.416c-0.207-0.786-0.851-1.427-1.637-1.632c-1.572-0.409-2.984,0.766-2.984,2.271
				c0,0.71,0.315,1.346,0.813,1.777c0.138,0.119,0.208,0.298,0.158,0.474l-0.647,2.264C9.809,15.435,10.235,16,10.825,16h2.349
				c0.591,0,1.017-0.565,0.855-1.133l-0.647-2.265C13.332,12.427,13.402,12.249,13.539,12.131z"/>
		</g>
	</g>
	<path fill="none" d="M0,0h24v24H0V0z"/>
</g>
</svg>
