<svg id="Layer_3" data-name="Layer 3" xmlns="http://www.w3.org/2000/svg" viewBox="0 0 24 24"><title>keyhole-octagon</title><path d="M0,0H24V24H0Z" fill="none"/><path d="M7.121,20.121,3.878,16.878A3,3,0,0,1,3,14.757V9.243a3,3,0,0,1,.879-2.121L7.122,3.879A3,3,0,0,1,9.243,3h5.514a3,3,0,0,1,2.121.879l3.244,3.244A3,3,0,0,1,21,9.244v5.513a3,3,0,0,1-.878,2.121l-3.243,3.244A3,3,0,0,1,14.757,21H9.243A3,3,0,0,1,7.121,20.121Z" fill="none" stroke="#323232" stroke-linecap="round" stroke-linejoin="round" stroke-width="1.5"/><path d="M13.383,13.148a3,3,0,1,0-2.766,0l-.9,2.694a.5.5,0,0,0,.475.658h3.612a.5.5,0,0,0,.475-.658Z" fill="none" stroke="#323232" stroke-linecap="round" stroke-linejoin="round" stroke-width="1.5"/></svg>