<?xml version="1.0" encoding="utf-8"?>
<!-- Generator: Adobe Illustrator 23.1.0, SVG Export Plug-In . SVG Version: 6.00 Build 0)  -->
<svg version="1.1" id="icons" xmlns="http://www.w3.org/2000/svg" xmlns:xlink="http://www.w3.org/1999/xlink" x="0px" y="0px"
	 width="24px" height="24px" viewBox="0 0 24 24" enable-background="new 0 0 24 24" xml:space="preserve">
<g>
	<g>
		<g>
			<path fill="none" stroke="#323232" stroke-width="1.5" stroke-linecap="round" stroke-linejoin="round" d="M13.733,11.646
				c0.723-0.627,1.104-1.638,0.819-2.717c-0.233-0.884-0.957-1.606-1.842-1.836c-1.768-0.46-3.357,0.862-3.357,2.555
				c0,0.799,0.355,1.514,0.915,1.999c0.155,0.134,0.234,0.335,0.177,0.533l-0.91,3.184C9.444,15.682,9.684,16,10.016,16h3.968
				c0.332,0,0.573-0.313,0.482-0.633c-0.256-0.896-0.715-2.504-0.911-3.19C13.498,11.98,13.578,11.78,13.733,11.646z"/>
		</g>
		
			<circle fill="none" stroke="#323232" stroke-width="1.5" stroke-linecap="round" stroke-linejoin="round" cx="12" cy="11.5" r="9"/>
	</g>
	<path fill="none" d="M0,0h24v24H0V0z"/>
</g>
</svg>
