<?xml version="1.0" encoding="utf-8"?>
<!-- Generator: Adobe Illustrator 23.1.0, SVG Export Plug-In . SVG Version: 6.00 Build 0)  -->
<svg version="1.1" id="icons" xmlns="http://www.w3.org/2000/svg" xmlns:xlink="http://www.w3.org/1999/xlink" x="0px" y="0px"
	 width="24px" height="24px" viewBox="0 0 24 24" enable-background="new 0 0 24 24" xml:space="preserve">
<g>
	<g>
		<path fill="none" stroke="#323232" stroke-width="1.5" stroke-linecap="round" stroke-linejoin="round" d="M6,3H5
			C3.895,3,3,3.895,3,5v1"/>
		<path fill="none" stroke="#323232" stroke-width="1.5" stroke-linecap="round" stroke-linejoin="round" d="M18,21h1
			c1.105,0,2-0.895,2-2v-1"/>
		<path fill="none" stroke="#323232" stroke-width="1.5" stroke-linecap="round" stroke-linejoin="round" d="M3,18v1
			c0,1.105,0.895,2,2,2h1"/>
		<path fill="none" stroke="#323232" stroke-width="1.5" stroke-linecap="round" stroke-linejoin="round" d="M21,6V5
			c0-1.105-0.895-2-2-2h-1"/>
		<g>
			<path fill="none" stroke="#323232" stroke-width="1.5" stroke-linecap="round" stroke-linejoin="round" d="M13.731,12.147
				c0.724-0.627,1.106-1.638,0.821-2.718c-0.233-0.884-0.957-1.606-1.842-1.836c-1.768-0.46-3.357,0.862-3.357,2.555
				c0,0.799,0.355,1.514,0.915,1.999c0.155,0.134,0.234,0.335,0.177,0.533l-0.728,2.547c-0.183,0.639,0.297,1.275,0.962,1.275h2.643
				c0.664,0,1.144-0.636,0.962-1.275l-0.728-2.548C13.499,12.481,13.577,12.28,13.731,12.147z"/>
		</g>
	</g>
	<path fill="none" d="M0,0h24v24H0V0z"/>
</g>
</svg>
