<svg id="Layer_3" data-name="Layer 3" xmlns="http://www.w3.org/2000/svg" viewBox="0 0 24 24"><polyline points="3 5.5 3 8.5 6 8.5" fill="none" stroke="#323232" stroke-linecap="round" stroke-linejoin="round" stroke-width="1.5"/><path d="M3.059,13a8.987,8.987,0,1,0,.647-4.5" fill="none" stroke="#323232" stroke-linecap="round" stroke-linejoin="round" stroke-width="1.5"/><path d="M9.66275,12.14981,7.75763,14.05887A.88839.88839,0,0,0,7.5,14.68272v.93479A.88248.88248,0,0,0,8.38247,16.5h.93874a.87657.87657,0,0,0,.62385-.25961l1.90116-1.90511a3.39593,3.39593,0,0,0,1.08286.19051,3.51313,3.51313,0,1,0-3.26633-2.376Z" fill="none" stroke="#323232" stroke-linecap="round" stroke-linejoin="round" stroke-width="1.5"/><path d="M12.92908,11.03043a.04047.04047,0,1,0,.04047.04047.04047.04047,0,0,0-.04047-.04047h0" fill="none" stroke="#323232" stroke-linecap="round" stroke-linejoin="round" stroke-width="1.5"/><rect width="24" height="24" fill="none"/></svg>