<svg id="Layer_3" data-name="Layer 3" xmlns="http://www.w3.org/2000/svg" viewBox="0 0 24 24"><path d="M3,8H21" fill="none" stroke="#323232" stroke-linecap="round" stroke-linejoin="round" stroke-width="1.5"/><path d="M10.866,5.495l-.005.005.005.005.005-.005-.005-.005" fill="none" stroke="#323232" stroke-linecap="round" stroke-linejoin="round" stroke-width="1.5"/><path d="M8.327,5.495,8.322,5.5l.005.005L8.332,5.5l-.005-.005" fill="none" stroke="#323232" stroke-linecap="round" stroke-linejoin="round" stroke-width="1.5"/><path d="M5.779,5.49l-.005.005.005.005.005-.005L5.779,5.49" fill="none" stroke="#323232" stroke-linecap="round" stroke-linejoin="round" stroke-width="1.5"/><path d="M10,21H5a1.99945,1.99945,0,0,1-2-2V5A1.99945,1.99945,0,0,1,5,3H19a1.99945,1.99945,0,0,1,2,2v5" fill="none" stroke="#323232" stroke-linecap="round" stroke-linejoin="round" stroke-width="1.5"/><path d="M15.16275,16.64983l-1.90512,1.90906A.88839.88839,0,0,0,13,19.18274v.93479A.88248.88248,0,0,0,13.88247,21h.93874a.87657.87657,0,0,0,.62385-.25961l1.90116-1.90511a3.39566,3.39566,0,0,0,1.08286.19051,3.51313,3.51313,0,1,0-3.26633-2.376Z" fill="none" stroke="#323232" stroke-linecap="round" stroke-linejoin="round" stroke-width="1.5"/><path d="M18.42908,15.53045a.04047.04047,0,1,0,.04047.04047.04047.04047,0,0,0-.04047-.04047h0" fill="none" stroke="#323232" stroke-linecap="round" stroke-linejoin="round" stroke-width="1.5"/><path d="M0,0H24V24H0Z" fill="none"/></svg>