<svg id="Layer_3" data-name="Layer 3" xmlns="http://www.w3.org/2000/svg" viewBox="0 0 24 24"><title>label-tag-arrow-circle</title><path d="M0,0H24V24H0Z" fill="none"/><path d="M8,17.5l2,2-2,2" fill="none" stroke="#323232" stroke-linecap="round" stroke-linejoin="round" stroke-width="1.5"/><path d="M10,19.5H4" fill="none" stroke="#323232" stroke-linecap="round" stroke-linejoin="round" stroke-width="1.5"/><path d="M13.99751,20.27351a8.998,8.998,0,1,0-10.0558-4.77" fill="none" stroke="#323232" stroke-linecap="round" stroke-linejoin="round" stroke-width="1.5"/><path d="M7.92651,11.34917V9.49976a2,2,0,0,1,2-2h1.84886a2,2,0,0,1,1.41415.58573l2.87655,2.8763a2,2,0,0,1,0,2.82855L14.21646,15.6398a2,2,0,0,1-2.82851-.0002L8.51216,12.76325A2,2,0,0,1,7.92651,11.34917Z" fill="none" stroke="#323232" stroke-linecap="round" stroke-linejoin="round" stroke-width="1.5"/><path d="M10.80987,10.28376a.05.05,0,1,1-.05-.05" fill="none" stroke="#323232" stroke-linecap="round" stroke-linejoin="round" stroke-width="1.5"/><path d="M10.75987,10.23376a.05.05,0,0,1,.05.05" fill="none" stroke="#323232" stroke-linecap="round" stroke-linejoin="round" stroke-width="1.5"/></svg>