<?xml version="1.0" encoding="utf-8"?>
<!-- Generator: Adobe Illustrator 24.0.2, SVG Export Plug-In . SVG Version: 6.00 Build 0)  -->
<svg version="1.1" id="Layer_3" xmlns="http://www.w3.org/2000/svg" xmlns:xlink="http://www.w3.org/1999/xlink" x="0px" y="0px"
	 width="24px" height="24px" viewBox="0 0 24 24" enable-background="new 0 0 24 24" xml:space="preserve">
<g>
	<g>
		<path fill="none" stroke="#323232" stroke-width="1.5" stroke-linecap="round" stroke-linejoin="round" d="M5.77,5.565
			C3.218,8.116,2.564,11.841,3.796,15"/>
		<path fill="none" stroke="#323232" stroke-width="1.5" stroke-linecap="round" stroke-linejoin="round" d="M20.205,15
			c1.232-3.159,0.577-6.884-1.974-9.435"/>
		<path fill="none" stroke="#323232" stroke-width="1.5" stroke-linecap="round" stroke-linejoin="round" d="M18.367,18.364
			c-3.516,3.515-9.217,3.515-12.733,0"/>
		<path fill="none" stroke="#323232" stroke-width="1.5" stroke-linecap="round" stroke-linejoin="round" d="M15.93,15.93
			c-2.171,2.171-5.69,2.171-7.86,0"/>
		<path fill="none" stroke="#323232" stroke-width="1.5" stroke-linecap="round" stroke-linejoin="round" d="M9.954,6.762h4.092"/>
		<path fill="none" stroke="#323232" stroke-width="1.5" stroke-linecap="round" stroke-linejoin="round" d="M14.238,6.95
			c1.149,0.812,1.838,2.23,1.596,3.791c-0.263,1.687-1.669,3.034-3.365,3.232c-2.354,0.276-4.352-1.556-4.352-3.854
			c0-1.31,0.651-2.466,1.646-3.169c0.178-0.126,0.296-0.321,0.296-0.54V4.618C10.059,3.725,10.783,3,11.677,3h0.647
			c0.893,0,1.618,0.724,1.618,1.618v1.787C13.941,6.627,14.059,6.822,14.238,6.95z"/>
	</g>
	<path fill="none" d="M24,24H0V0h24V24z"/>
</g>
</svg>
