<svg id="Layer_3" data-name="Layer 3" xmlns="http://www.w3.org/2000/svg" viewBox="0 0 24 24"><line x1="14.68823" y1="15.81465" x2="9.31423" y2="15.81465" fill="none" stroke="#323232" stroke-linecap="round" stroke-linejoin="round" stroke-width="1.5"/><path d="M9.07,15.56476a5.08209,5.08209,0,1,1,5.85836.0017.87258.87258,0,0,0-.38711.7073v2.34386a2.11738,2.11738,0,0,1-2.11769,2.11768h-.84707a2.11738,2.11738,0,0,1-2.11769-2.11768V16.27715A.87877.87877,0,0,0,9.07,15.56476Z" fill="none" stroke="#323232" stroke-linecap="round" stroke-linejoin="round" stroke-width="1.5"/><line x1="18.36396" y1="5.37134" x2="17.72756" y2="6.00773" fill="none" stroke="#323232" stroke-linecap="round" stroke-linejoin="round" stroke-width="1.5"/><line x1="6.27244" y1="17.46286" x2="5.63604" y2="18.09926" fill="none" stroke="#323232" stroke-linecap="round" stroke-linejoin="round" stroke-width="1.5"/><line x1="21" y1="11.7353" x2="20.1" y2="11.7353" fill="none" stroke="#323232" stroke-linecap="round" stroke-linejoin="round" stroke-width="1.5"/><line x1="3.9" y1="11.7353" x2="3" y2="11.7353" fill="none" stroke="#323232" stroke-linecap="round" stroke-linejoin="round" stroke-width="1.5"/><line x1="18.36396" y1="18.09926" x2="17.72757" y2="17.46286" fill="none" stroke="#323232" stroke-linecap="round" stroke-linejoin="round" stroke-width="1.5"/><line x1="6.27243" y1="6.00774" x2="5.63604" y2="5.37134" fill="none" stroke="#323232" stroke-linecap="round" stroke-linejoin="round" stroke-width="1.5"/><line x1="12" y1="3.6353" x2="12" y2="2.7353" fill="none" stroke="#323232" stroke-linecap="round" stroke-linejoin="round" stroke-width="1.5"/><rect width="24" height="24" fill="none"/></svg>