<svg id="Layer_3" data-name="Layer 3" xmlns="http://www.w3.org/2000/svg" viewBox="0 0 24 24"><title>lamp-light-checkmark</title><path d="M0,0H24V24H0Z" fill="none"/><path d="M13.674,13.42528H10.326" fill="none" stroke="#323232" stroke-linecap="round" stroke-linejoin="round" stroke-width="1.5"/><path d="M10.168,13.27128a3.177,3.177,0,1,1,3.662,0,.544.544,0,0,0-.242.442v1.465a1.324,1.324,0,0,1-1.324,1.324h-.53a1.324,1.324,0,0,1-1.324-1.324v-1.462A.542.542,0,0,0,10.168,13.27128Z" fill="none" stroke="#323232" stroke-linecap="round" stroke-linejoin="round" stroke-width="1.5"/><path d="M13,20.938A8.15936,8.15936,0,0,1,12,21a9,9,0,1,1,9-9,8.15936,8.15936,0,0,1-.062,1" fill="none" stroke="#323232" stroke-linecap="round" stroke-linejoin="round" stroke-width="1.5"/><path d="M20,17l-2.5,2.5L16,18" fill="none" stroke="#323232" stroke-linecap="round" stroke-linejoin="round" stroke-width="1.5"/></svg>