<svg id="Layer_3" data-name="Layer 3" xmlns="http://www.w3.org/2000/svg" viewBox="0 0 24 24"><title>language-translate</title><path d="M14.996,7.75H9" fill="none" stroke="#323232" stroke-linecap="round" stroke-linejoin="round" stroke-width="1.5"/><path d="M12,6.25l.004,1.5" fill="none" stroke="#323232" stroke-linecap="round" stroke-linejoin="round" stroke-width="1.5"/><path d="M13.5,7.75C13.5,10.651,11.485,13,9,13" fill="none" stroke="#323232" stroke-linecap="round" stroke-linejoin="round" stroke-width="1.5"/><path d="M15,13a4.145,4.145,0,0,1-3-1.344" fill="none" stroke="#323232" stroke-linecap="round" stroke-linejoin="round" stroke-width="1.5"/><path d="M13,17h5a2.99981,2.99981,0,0,0,3-3V6a2.99981,2.99981,0,0,0-3-3H6A2.99981,2.99981,0,0,0,3,6v8a2.99981,2.99981,0,0,0,3,3H8v4l5-4" fill="none" stroke="#323232" stroke-linecap="round" stroke-linejoin="round" stroke-width="1.5"/><path d="M0,0H24V24H0Z" fill="none"/></svg>