<svg id="Layer_3" data-name="Layer 3" xmlns="http://www.w3.org/2000/svg" viewBox="0 0 24 24"><title>laoding-waiting</title><rect width="24" height="24" fill="none"/><path d="M5.16,6.16A8.955,8.955,0,0,1,6.722,4.722" fill="none" stroke="#323232" stroke-linecap="round" stroke-linejoin="round" stroke-width="1.5"/><path d="M17,19.482A8.994,8.994,0,0,1,9.38,20.61" fill="none" stroke="#323232" stroke-linecap="round" stroke-linejoin="round" stroke-width="1.5"/><path d="M3.523,9A8.956,8.956,0,0,0,3,12" fill="none" stroke="#323232" stroke-linecap="round" stroke-linejoin="round" stroke-width="1.5"/><path d="M9.38,3.39A8.982,8.982,0,0,1,19.463,17" fill="none" stroke="#323232" stroke-linecap="round" stroke-linejoin="round" stroke-width="1.5"/><path d="M6.722,19.279A9.024,9.024,0,0,1,3.525,15" fill="none" stroke="#323232" stroke-linecap="round" stroke-linejoin="round" stroke-width="1.5"/><path d="M11,10a2,2,0,0,1,2,2h0a2,2,0,0,1-2,2" fill="none" stroke="#323232" stroke-linecap="round" stroke-linejoin="round" stroke-width="1.5"/><path d="M9,10h6a2,2,0,0,1,2,2h0a2,2,0,0,1-2,2H9a2,2,0,0,1-2-2H7A2,2,0,0,1,9,10Z" fill="none" stroke="#323232" stroke-linecap="round" stroke-linejoin="round" stroke-width="1.5"/></svg>