<svg id="Layer_3" data-name="Layer 3" xmlns="http://www.w3.org/2000/svg" viewBox="0 0 24 24"><path d="M18.5,17H15.035a1,1,0,0,0-.832.445l-.406.609a1,1,0,0,1-.832.445H9.035a1,1,0,0,1-.832-.445l-.406-.609A1.00173,1.00173,0,0,0,6.964,17H3.5a1.00036,1.00036,0,0,0-1,1v1a1.99945,1.99945,0,0,0,2,2h13a1.99945,1.99945,0,0,0,2-2V18A1.00036,1.00036,0,0,0,18.5,17Z" fill="none" stroke="#323232" stroke-linecap="round" stroke-linejoin="round" stroke-width="1.5"/><path d="M14,11V6.42" fill="none" stroke="#323232" stroke-linecap="round" stroke-linejoin="round" stroke-width="1.5"/><path d="M17,11V6.42" fill="none" stroke="#323232" stroke-linecap="round" stroke-linejoin="round" stroke-width="1.5"/><path d="M20,11V6.42" fill="none" stroke="#323232" stroke-linecap="round" stroke-linejoin="round" stroke-width="1.5"/><path d="M13,11h8" fill="none" stroke="#323232" stroke-linecap="round" stroke-linejoin="round" stroke-width="1.5"/><path d="M13,6.42h8V4.637L17,3,13,4.637Z" fill="none" stroke="#323232" stroke-linecap="round" stroke-linejoin="round" stroke-width="1.5"/><path d="M18.5,17V14" fill="none" stroke="#323232" stroke-linecap="round" stroke-linejoin="round" stroke-width="1.5"/><path d="M3.5,17V7a1.99945,1.99945,0,0,1,2-2H10" fill="none" stroke="#323232" stroke-linecap="round" stroke-linejoin="round" stroke-width="1.5"/><path d="M0,0H24V24H0Z" fill="none"/></svg>