<svg id="Layer_3" data-name="Layer 3" xmlns="http://www.w3.org/2000/svg" viewBox="0 0 24 24"><title>laptop-store</title><path d="M0,0H24V24H0Z" fill="none"/><path d="M20,17H16.535a1,1,0,0,0-.832.445l-.406.609a1,1,0,0,1-.832.445H9.535a1,1,0,0,1-.832-.445L8.3,17.445A1,1,0,0,0,7.464,17H4a1,1,0,0,0-1,1v1a2,2,0,0,0,2,2H19a2,2,0,0,0,2-2V18A1,1,0,0,0,20,17Z" fill="none" stroke="#323232" stroke-linecap="round" stroke-linejoin="round" stroke-width="1.5"/><path d="M20,17V15" fill="none" stroke="#323232" stroke-linecap="round" stroke-linejoin="round" stroke-width="1.5"/><path d="M4,17V7A2,2,0,0,1,6,5H9" fill="none" stroke="#323232" stroke-linecap="round" stroke-linejoin="round" stroke-width="1.5"/><path d="M12.54,7.178V12" fill="none" stroke="#323232" stroke-linecap="round" stroke-linejoin="round" stroke-width="1.5"/><path d="M20.54,12V7.108" fill="none" stroke="#323232" stroke-linecap="round" stroke-linejoin="round" stroke-width="1.5"/><line x1="16.444" y1="12" x2="16.444" y2="10" fill="none" stroke="#323232" stroke-linecap="round" stroke-linejoin="round" stroke-width="1.5"/><path d="M12.04,12H21" fill="none" stroke="#323232" stroke-linecap="round" stroke-linejoin="round" stroke-width="1.5"/><path d="M16.444,7.237a1.741,1.741,0,0,0,1.649-1.182.1.1,0,0,1,.183,0,1.743,1.743,0,0,0,1.65,1.182" fill="none" stroke="#323232" stroke-linecap="round" stroke-linejoin="round" stroke-width="1.5"/><path d="M12.962,7.237a1.743,1.743,0,0,0,1.65-1.182.1.1,0,0,1,.183,0,1.741,1.741,0,0,0,1.649,1.182" fill="none" stroke="#323232" stroke-linecap="round" stroke-linejoin="round" stroke-width="1.5"/><path d="M19.926,7.237a1.517,1.517,0,0,0,1.352-2.2l-.659-1.3A1.349,1.349,0,0,0,19.416,3H13.472a1.349,1.349,0,0,0-1.2.738l-.658,1.3a1.516,1.516,0,0,0,1.351,2.2h0" fill="none" stroke="#323232" stroke-linecap="round" stroke-linejoin="round" stroke-width="1.5"/></svg>