<svg id="Layer_3" data-name="Layer 3" xmlns="http://www.w3.org/2000/svg" viewBox="0 0 24 24"><path d="M0,0H24V24H0Z" fill="none"/><path d="M20,17H16.535a1,1,0,0,0-.832.445l-.406.609a1,1,0,0,1-.832.445H9.535a1,1,0,0,1-.832-.445l-.406-.609A1.00173,1.00173,0,0,0,7.464,17H4a1.00036,1.00036,0,0,0-1,1v1a1.99945,1.99945,0,0,0,2,2H19a1.99945,1.99945,0,0,0,2-2V18A1.00036,1.00036,0,0,0,20,17Z" fill="none" stroke="#323232" stroke-linecap="round" stroke-linejoin="round" stroke-width="1.5"/><path d="M10,5H6A2,2,0,0,0,4,7V17" fill="none" stroke="#323232" stroke-linecap="round" stroke-linejoin="round" stroke-width="1.5"/><path d="M20,17V15" fill="none" stroke="#323232" stroke-linecap="round" stroke-linejoin="round" stroke-width="1.5"/><path d="M18.125,6.29625a1.999,1.999,0,1,1-2.827,0,1.99837,1.99837,0,0,1,2.827,0" fill="none" stroke="#323232" stroke-linecap="round" stroke-linejoin="round" stroke-width="1.5"/><path d="M19,9.99925l-.88-.88" fill="none" stroke="#323232" stroke-linecap="round" stroke-linejoin="round" stroke-width="1.5"/><circle cx="17" cy="8" r="5" fill="none" stroke="#323232" stroke-linecap="round" stroke-linejoin="round" stroke-width="1.5"/></svg>