<svg id="Layer_3" data-name="Layer 3" xmlns="http://www.w3.org/2000/svg" viewBox="0 0 24 24"><title>laptop-medical-app</title><path d="M0,0H24V24H0Z" fill="none"/><path d="M20,17H16.535a1,1,0,0,0-.832.445l-.406.609a1,1,0,0,1-.832.445H9.535a1,1,0,0,1-.832-.445L8.3,17.445A1,1,0,0,0,7.464,17H4a1,1,0,0,0-1,1v1a2,2,0,0,0,2,2H19a2,2,0,0,0,2-2V18A1,1,0,0,0,20,17Z" fill="none" stroke="#323232" stroke-linecap="round" stroke-linejoin="round" stroke-width="1.5"/><path d="M20,17V13" fill="none" stroke="#323232" stroke-linecap="round" stroke-linejoin="round" stroke-width="1.5"/><path d="M4,17V7A2,2,0,0,1,6,5H9" fill="none" stroke="#323232" stroke-linecap="round" stroke-linejoin="round" stroke-width="1.5"/><path d="M21,6.5A4.5,4.5,0,1,1,16.5,2,4.5,4.5,0,0,1,21,6.5Z" fill="none" stroke="#323232" stroke-linecap="round" stroke-linejoin="round" stroke-width="1.5"/><path d="M15.251,7.75V5.25" fill="none" stroke="#323232" stroke-linecap="round" stroke-linejoin="round" stroke-width="1.5"/><path d="M17.751,7.75V5.25" fill="none" stroke="#323232" stroke-linecap="round" stroke-linejoin="round" stroke-width="1.5"/><path d="M17.747,6.5H15.255" fill="none" stroke="#323232" stroke-linecap="round" stroke-linejoin="round" stroke-width="1.5"/></svg>