<svg id="Layer_3" data-name="Layer 3" xmlns="http://www.w3.org/2000/svg" viewBox="0 0 24 24"><title>laptop-mobile</title><path d="M19,17H15.535a1,1,0,0,0-.832.445l-.406.609a1,1,0,0,1-.832.445H9.535a1,1,0,0,1-.832-.445L8.3,17.445A1,1,0,0,0,7.464,17H4a1,1,0,0,0-1,1v1a2,2,0,0,0,2,2H18a2,2,0,0,0,2-2V18A1,1,0,0,0,19,17Z" fill="none" stroke="#323232" stroke-linecap="round" stroke-linejoin="round" stroke-width="1.5"/><path d="M19,17V14" fill="none" stroke="#323232" stroke-linecap="round" stroke-linejoin="round" stroke-width="1.5"/><path d="M16,3h4a2,2,0,0,1,2,2v7a2,2,0,0,1-2,2H16a2,2,0,0,1-2-2V5A2,2,0,0,1,16,3Z" fill="none" stroke="#323232" stroke-linecap="round" stroke-linejoin="round" stroke-width="1.5"/><path d="M16.75,11.75h2.5" fill="none" stroke="#323232" stroke-linecap="round" stroke-linejoin="round" stroke-width="1.5"/><path d="M4,17V7A2,2,0,0,1,6,5h8" fill="none" stroke="#323232" stroke-linecap="round" stroke-linejoin="round" stroke-width="1.5"/><path d="M0,0H24V24H0Z" fill="none"/></svg>