<svg id="Layer_3" data-name="Layer 3" xmlns="http://www.w3.org/2000/svg" viewBox="0 0 24 24"><path d="M11,18.499H9.535a1,1,0,0,1-.832-.445l-.406-.609A1.00173,1.00173,0,0,0,7.464,17H4a1.00036,1.00036,0,0,0-1,1v1a1.99945,1.99945,0,0,0,2,2h6" fill="none" stroke="#323232" stroke-linecap="round" stroke-linejoin="round" stroke-width="1.5"/><path d="M21.5,21H15a.5.5,0,0,1-.5-.5v-.406A2.1,2.1,0,0,1,16.594,18h3.312A2.1,2.1,0,0,1,22,20.094V20.5A.5.5,0,0,1,21.5,21Z" fill="none" stroke="#323232" stroke-linecap="round" stroke-linejoin="round" stroke-width="1.5"/><path d="M18.25,15.5a2,2,0,1,1,.008,0Z" fill="none" stroke="#323232" stroke-linecap="round" stroke-linejoin="round" stroke-width="1.5"/><path d="M20,9V7a2,2,0,0,0-2-2H6A2,2,0,0,0,4,7V17" fill="none" stroke="#323232" stroke-linecap="round" stroke-linejoin="round" stroke-width="1.5"/><path d="M0,0H24V24H0Z" fill="none"/></svg>