<svg id="Layer_3" data-name="Layer 3" xmlns="http://www.w3.org/2000/svg" viewBox="0 0 24 24"><title>laptop-square</title><path d="M17.077,13.385H14.8a.922.922,0,0,0-.768.41l-.375.563a.925.925,0,0,1-.768.41H11.109a.925.925,0,0,1-.768-.41L9.966,13.8a.923.923,0,0,0-.768-.41H6.923A.923.923,0,0,0,6,14.308v.923a1.845,1.845,0,0,0,1.846,1.846h8.308A1.845,1.845,0,0,0,18,15.231v-.923A.923.923,0,0,0,17.077,13.385Z" fill="none" stroke="#323232" stroke-linecap="round" stroke-linejoin="round" stroke-width="1.5"/><rect x="3" y="3" width="18" height="18" rx="5" stroke-width="1.5" stroke="#323232" stroke-linecap="round" stroke-linejoin="round" fill="none"/><path d="M17.077,13.385V8.769a1.847,1.847,0,0,0-1.846-1.846H8.564a1.554,1.554,0,0,0-1.641,1.45v5.012" fill="none" stroke="#323232" stroke-linecap="round" stroke-linejoin="round" stroke-width="1.5"/><path d="M0,0H24V24H0Z" fill="none"/></svg>