<svg id="Layer_3" data-name="Layer 3" xmlns="http://www.w3.org/2000/svg" viewBox="0 0 24 24"><line x1="17.4" y1="12.96432" x2="17.4" y2="8.79342" fill="none" stroke="#323232" stroke-linecap="round" stroke-linejoin="round" stroke-width="1.5"/><line x1="6.60115" y1="15.05283" x2="10.20115" y2="17.13704" fill="none" stroke="#323232" stroke-linecap="round" stroke-linejoin="round" stroke-width="1.5"/><line x1="13.80115" y1="10.8795" x2="6.60115" y2="15.05283" fill="none" stroke="#323232" stroke-linecap="round" stroke-linejoin="round" stroke-width="1.5"/><line x1="13.80115" y1="6.70986" x2="17.4" y2="8.79342" fill="none" stroke="#323232" stroke-linecap="round" stroke-linejoin="round" stroke-width="1.5"/><line x1="3" y1="17.13946" x2="3" y2="4.77632" fill="none" stroke="#323232" stroke-linecap="round" stroke-linejoin="round" stroke-width="1.5"/><polyline points="17.401 12.964 13.801 10.88 13.801 6.71 17.401 4.623 21 6.707 21 10.878 17.4 12.964" fill="none" stroke="#323232" stroke-linecap="round" stroke-linejoin="round" stroke-width="1.5"/><line x1="17.4" y1="17.13458" x2="10.2" y2="21.30789" fill="none" stroke="#323232" stroke-linecap="round" stroke-linejoin="round" stroke-width="1.5"/><line x1="10.2" y1="21.30789" x2="3" y2="17.13946" fill="none" stroke="#323232" stroke-linecap="round" stroke-linejoin="round" stroke-width="1.5"/><line x1="10.20115" y1="21.30789" x2="10.20115" y2="17.13704" fill="none" stroke="#323232" stroke-linecap="round" stroke-linejoin="round" stroke-width="1.5"/><line x1="10.20115" y1="17.13704" x2="17.4" y2="12.96432" fill="none" stroke="#323232" stroke-linecap="round" stroke-linejoin="round" stroke-width="1.5"/><path d="M17.4,12.96432v4.17026" fill="none" stroke="#323232" stroke-linecap="round" stroke-linejoin="round" stroke-width="1.5"/><line x1="17.4" y1="8.79342" x2="21" y2="6.70673" fill="none" stroke="#323232" stroke-linecap="round" stroke-linejoin="round" stroke-width="1.5"/><line x1="6.60115" y1="6.86054" x2="6.60115" y2="15.05283" fill="none" stroke="#323232" stroke-linecap="round" stroke-linejoin="round" stroke-width="1.5"/><line x1="10.20115" y1="12.96614" x2="10.20115" y2="4.77632" fill="none" stroke="#323232" stroke-linecap="round" stroke-linejoin="round" stroke-width="1.5"/><polygon points="6.6 2.692 3 4.776 6.601 6.861 10.201 4.776 6.6 2.692" fill="none" stroke="#323232" stroke-linecap="round" stroke-linejoin="round" stroke-width="1.5"/><path d="M0,24V0H24V24Z" fill="none"/></svg>