<svg id="Layer_3" data-name="Layer 3" xmlns="http://www.w3.org/2000/svg" viewBox="0 0 24 24"><title>lasso-tool</title><path d="M15.042,7.32c2.423.845,3.025,3.1,1.345,5.042a7.381,7.381,0,0,1-7.431,1.981C6.533,13.5,5.931,11.24,7.612,9.3a7.381,7.381,0,0,1,7.43-1.981" fill="none" stroke="#323232" stroke-linecap="round" stroke-linejoin="round" stroke-width="1.5"/><path d="M12.95,14.4c-2.315.617-5.227.049-5.227-1.866" fill="none" stroke="#323232" stroke-linecap="round" stroke-linejoin="round" stroke-width="1.5"/><path d="M10.915,13.169A3.891,3.891,0,0,1,7.723,17" fill="none" stroke="#323232" stroke-linecap="round" stroke-linejoin="round" stroke-width="1.5"/><path d="M7.723,12.531c0-1.915,3.192-1.915,3.192.638" fill="none" stroke="#323232" stroke-linecap="round" stroke-linejoin="round" stroke-width="1.5"/><rect x="3" y="3" width="18" height="18" rx="5" stroke-width="1.5" stroke="#323232" stroke-linecap="round" stroke-linejoin="round" fill="none"/><rect width="24" height="24" fill="none"/></svg>