<svg id="Layer_3" data-name="Layer 3" xmlns="http://www.w3.org/2000/svg" viewBox="0 0 24 24"><title>layers</title><rect x="3" y="3" width="18" height="18" rx="4" stroke-width="1.5" stroke="#323232" stroke-linecap="round" stroke-linejoin="round" fill="none"/><path d="M7,3h9a0,0,0,0,1,0,0V13.11111A2.88889,2.88889,0,0,1,13.11111,16H3a0,0,0,0,1,0,0V7A4,4,0,0,1,7,3Z" fill="none" stroke="#323232" stroke-linecap="round" stroke-linejoin="round" stroke-width="1.5"/><path d="M7,3h4a0,0,0,0,1,0,0V9.22222A1.77778,1.77778,0,0,1,9.22222,11H3a0,0,0,0,1,0,0V7A4,4,0,0,1,7,3Z" fill="none" stroke="#323232" stroke-linecap="round" stroke-linejoin="round" stroke-width="1.5"/><rect width="24" height="24" fill="none"/></svg>