<svg id="Layer_3" data-name="Layer 3" xmlns="http://www.w3.org/2000/svg" viewBox="0 0 24 24"><title>Artboard 110</title><path d="M0,0H24V24H0Z" fill="none"/><path d="M15,21h2.714a2,2,0,0,0,2-2V4a1,1,0,0,0-1-1H16.857a1,1,0,0,0-1,1V6.306" fill="none" stroke="#323232" stroke-linecap="round" stroke-linejoin="round" stroke-width="1.5"/><path d="M8.787,13.052a3.879,3.879,0,0,0,0,7.757c3.16,0,3.935-3.88,5.746-4.911A7.063,7.063,0,0,0,8.787,13.052Z" fill="none" stroke="#323232" stroke-linecap="round" stroke-linejoin="round" stroke-width="1.5"/><path d="M9.255,16.508A7.725,7.725,0,0,0,4,20" fill="none" stroke="#323232" stroke-linecap="round" stroke-linejoin="round" stroke-width="1.5"/><path d="M3,10.714l7.7-6.6a2,2,0,0,1,2.6,0l7.7,6.6" fill="none" stroke="#323232" stroke-linecap="round" stroke-linejoin="round" stroke-width="1.5"/></svg>