<svg id="Layer_3" data-name="Layer 3" xmlns="http://www.w3.org/2000/svg" viewBox="0 0 24 24"><title>legal-friction-talk-user</title><path d="M3,20.531v-.406a2.1,2.1,0,0,1,2.094-2.094H8.406A2.1,2.1,0,0,1,10.5,20.125v.406a.5.5,0,0,1-.5.5H3.5A.5.5,0,0,1,3,20.531Z" fill="none" stroke="#323232" stroke-linecap="round" stroke-linejoin="round" stroke-width="1.5"/><path d="M4.75,13.523a2,2,0,1,1,2,2.008A2,2,0,0,1,4.75,13.523Z" fill="none" stroke="#323232" stroke-linecap="round" stroke-linejoin="round" stroke-width="1.5"/><path d="M20,11.031a2,2,0,0,0,2-2v-4a2,2,0,0,0-2-2H12a2,2,0,0,0-2,2v4a2,2,0,0,0,2,2h1v3l4-3Z" fill="none" stroke="#323232" stroke-linecap="round" stroke-linejoin="round" stroke-width="1.5"/><path d="M18.57,7a.049.049,0,1,1,0,.07.048.048,0,0,1,0-.07" fill="none" stroke="#323232" stroke-linecap="round" stroke-linejoin="round" stroke-width="1.5"/><path d="M15.965,7a.049.049,0,1,1,0,.07.048.048,0,0,1,0-.07" fill="none" stroke="#323232" stroke-linecap="round" stroke-linejoin="round" stroke-width="1.5"/><path d="M13.36,7a.049.049,0,1,1,0,.07.048.048,0,0,1,0-.07" fill="none" stroke="#323232" stroke-linecap="round" stroke-linejoin="round" stroke-width="1.5"/><path d="M24,24H0V0H24Z" fill="none"/></svg>