<svg id="Layer_3" data-name="Layer 3" xmlns="http://www.w3.org/2000/svg" viewBox="0 0 24 24"><title>legal-friction-talk-users</title><path d="M13.5,20.5v-.406A2.1,2.1,0,0,1,15.594,18h3.312A2.1,2.1,0,0,1,21,20.094V20.5a.5.5,0,0,1-.5.5H14A.5.5,0,0,1,13.5,20.5Z" fill="none" stroke="#323232" stroke-linecap="round" stroke-linejoin="round" stroke-width="1.5"/><path d="M15.325,14.04a2,2,0,1,1,1.463,1.408A2,2,0,0,1,15.325,14.04Z" fill="none" stroke="#323232" stroke-linecap="round" stroke-linejoin="round" stroke-width="1.5"/><path d="M2,18.5v-.406A2.1,2.1,0,0,1,4.094,16H7.406A2.1,2.1,0,0,1,9.5,18.094V18.5A.5.5,0,0,1,9,19H2.5A.5.5,0,0,1,2,18.5Z" fill="none" stroke="#323232" stroke-linecap="round" stroke-linejoin="round" stroke-width="1.5"/><path d="M3.825,12.04a2,2,0,1,1,1.463,1.408A2,2,0,0,1,3.825,12.04Z" fill="none" stroke="#323232" stroke-linecap="round" stroke-linejoin="round" stroke-width="1.5"/><path d="M16.97,4.965a.049.049,0,1,1,0,.07.048.048,0,0,1,0-.07" fill="none" stroke="#323232" stroke-linecap="round" stroke-linejoin="round" stroke-width="1.5"/><path d="M14.365,4.965a.049.049,0,1,1,0,.07.048.048,0,0,1,0-.07" fill="none" stroke="#323232" stroke-linecap="round" stroke-linejoin="round" stroke-width="1.5"/><path d="M11.76,4.965a.049.049,0,1,1,0,.07.048.048,0,0,1,0-.07" fill="none" stroke="#323232" stroke-linecap="round" stroke-linejoin="round" stroke-width="1.5"/><path d="M12,8V9.5a.5.5,0,0,0,.817.388l2.052-1.671A.944.944,0,0,1,15.475,8H18a2,2,0,0,0,2-2V4a2,2,0,0,0-2-2H11A2,2,0,0,0,9,4V6a2,2,0,0,0,2,2Z" fill="none" stroke="#323232" stroke-linecap="round" stroke-linejoin="round" stroke-width="1.5"/><path d="M0,23.969v-24H24v24" fill="none"/></svg>