<svg id="Layer_3" data-name="Layer 3" xmlns="http://www.w3.org/2000/svg" viewBox="0 0 24 24"><title>legal-scale-square</title><path d="M17.883,12.127a.785.785,0,0,1,.114.466,2.589,2.589,0,0,1-2.5,2.448A2.589,2.589,0,0,1,13,12.594a.8.8,0,0,1,.115-.469L15.5,8.091Z" fill="none" stroke="#323232" stroke-linecap="round" stroke-linejoin="round" stroke-width="1.5"/><path d="M17.976,12.341H13.024" fill="none" stroke="#323232" stroke-linecap="round" stroke-linejoin="round" stroke-width="1.5"/><path d="M10.883,14.178a.783.783,0,0,1,.114.465,2.589,2.589,0,0,1-2.5,2.448A2.589,2.589,0,0,1,6,14.644a.8.8,0,0,1,.115-.469L8.5,10.142Z" fill="none" stroke="#323232" stroke-linecap="round" stroke-linejoin="round" stroke-width="1.5"/><path d="M10.976,14.392H6.024" fill="none" stroke="#323232" stroke-linecap="round" stroke-linejoin="round" stroke-width="1.5"/><line x1="15.5" y1="8.091" x2="8.5" y2="10.142" fill="none" stroke="#323232" stroke-linecap="round" stroke-linejoin="round" stroke-width="1.5"/><line x1="11.5" y1="7.091" x2="11.5" y2="9.091" fill="none" stroke="#323232" stroke-linecap="round" stroke-linejoin="round" stroke-width="1.5"/><rect x="3" y="3.091" width="18" height="18" rx="4" stroke-width="1.5" stroke="#323232" stroke-linecap="round" stroke-linejoin="round" fill="none"/><path d="M24,24H0V0H24Z" fill="none"/></svg>