<svg id="Layer_3" data-name="Layer 3" xmlns="http://www.w3.org/2000/svg" viewBox="0 0 24 24"><title>legal-scale</title><path d="M21.806,12.727A1.319,1.319,0,0,1,22,13.5a4.318,4.318,0,0,1-4.163,4.08A4.317,4.317,0,0,1,13.671,13.5a1.329,1.329,0,0,1,.192-.781L17.833,6S20.96,11.3,21.806,12.727Z" fill="none" stroke="#323232" stroke-linecap="round" stroke-linejoin="round" stroke-width="1.5"/><path d="M21.96,13.083H13.707" fill="none" stroke="#323232" stroke-linecap="round" stroke-linejoin="round" stroke-width="1.5"/><path d="M10.139,16.144a1.321,1.321,0,0,1,.19.776A4.315,4.315,0,0,1,6.167,21,4.317,4.317,0,0,1,2,16.922,1.325,1.325,0,0,1,2.2,16.14l3.97-6.723Z" fill="none" stroke="#323232" stroke-linecap="round" stroke-linejoin="round" stroke-width="1.5"/><path d="M10.293,16.5H2.04" fill="none" stroke="#323232" stroke-linecap="round" stroke-linejoin="round" stroke-width="1.5"/><line x1="17.833" y1="6" x2="6.167" y2="9.417" fill="none" stroke="#323232" stroke-linecap="round" stroke-linejoin="round" stroke-width="1.5"/><line x1="11.167" y1="4" x2="11.167" y2="7.953" fill="none" stroke="#323232" stroke-linecap="round" stroke-linejoin="round" stroke-width="1.5"/><path d="M24,23.969H0v-24H24Z" fill="none"/></svg>