<svg id="Layer_3" data-name="Layer 3" xmlns="http://www.w3.org/2000/svg" viewBox="0 0 24 24"><title>lego-figure-head</title><path d="M16.5,18.5v2a.5.5,0,0,1-.5.5H8a.5.5,0,0,1-.5-.5v-2" fill="none" stroke="#323232" stroke-linecap="round" stroke-linejoin="round" stroke-width="1.5"/><rect x="4.5" y="5.5" width="15" height="13" rx="3" stroke-width="1.5" stroke="#323232" stroke-linecap="round" stroke-linejoin="round" fill="none"/><path d="M8,5.5v-1A1.5,1.5,0,0,1,9.5,3h5A1.5,1.5,0,0,1,16,4.5v1" fill="none" stroke="#323232" stroke-linecap="round" stroke-linejoin="round" stroke-width="1.5"/><path d="M9.392,13.848a3.484,3.484,0,0,0,5.216,0" fill="none" stroke="#323232" stroke-linecap="round" stroke-linejoin="round" stroke-width="1.5"/><path d="M14.347,10.592a.124.124,0,0,0-.124.125.125.125,0,1,0,.124-.125" fill="none" stroke="#323232" stroke-linecap="round" stroke-linejoin="round" stroke-width="1.5"/><path d="M9.652,10.592a.125.125,0,1,0,.125.125.125.125,0,0,0-.125-.125" fill="none" stroke="#323232" stroke-linecap="round" stroke-linejoin="round" stroke-width="1.5"/><rect width="24" height="24" fill="none"/></svg>