<svg id="Layer_3" data-name="Layer 3" xmlns="http://www.w3.org/2000/svg" viewBox="0 0 24 24"><title>leisure-roulette</title><path id="a" d="M18.7175,5.28249a9.5,9.5,0,1,1-13.435,0,9.5,9.5,0,0,1,13.435,0" fill="none" stroke="#323232" stroke-linecap="round" stroke-linejoin="round" stroke-width="1.5"/><path id="a-2" data-name="a" d="M18.7175,5.28249a9.5,9.5,0,1,1-13.435,0,9.5,9.5,0,0,1,13.435,0" fill="none" stroke="#323232" stroke-linecap="round" stroke-linejoin="round" stroke-width="1.5"/><path id="b" d="M16.2426,7.75736a6,6,0,1,1-8.48528,0,6,6,0,0,1,8.48528,0" fill="none" stroke="#323232" stroke-linecap="round" stroke-linejoin="round" stroke-width="1.5"/><line x1="10" y1="12" x2="14" y2="12" fill="none" stroke="#323232" stroke-linecap="round" stroke-linejoin="round" stroke-width="1.5"/><line x1="12" y1="14" x2="12" y2="10" fill="none" stroke="#323232" stroke-linecap="round" stroke-linejoin="round" stroke-width="1.5"/><line x1="14.68561" y1="17.37122" x2="16.25" y2="20.48999" fill="none" stroke="#323232" stroke-linecap="round" stroke-linejoin="round" stroke-width="1.5"/><line x1="9.31436" y1="17.37122" x2="7.75" y2="20.48999" fill="none" stroke="#323232" stroke-linecap="round" stroke-linejoin="round" stroke-width="1.5"/><line x1="9.31439" y1="6.62876" x2="7.75" y2="3.50999" fill="none" stroke="#323232" stroke-linecap="round" stroke-linejoin="round" stroke-width="1.5"/><line x1="14.68564" y1="6.62876" x2="16.25" y2="3.50999" fill="none" stroke="#323232" stroke-linecap="round" stroke-linejoin="round" stroke-width="1.5"/><line x1="6.62877" y1="14.6856" x2="3.51" y2="16.24999" fill="none" stroke="#323232" stroke-linecap="round" stroke-linejoin="round" stroke-width="1.5"/><line x1="6.62877" y1="9.31435" x2="3.51" y2="7.74999" fill="none" stroke="#323232" stroke-linecap="round" stroke-linejoin="round" stroke-width="1.5"/><line x1="17.37123" y1="9.31438" x2="20.49" y2="7.74999" fill="none" stroke="#323232" stroke-linecap="round" stroke-linejoin="round" stroke-width="1.5"/><line x1="17.37123" y1="14.68564" x2="20.49" y2="16.24999" fill="none" stroke="#323232" stroke-linecap="round" stroke-linejoin="round" stroke-width="1.5"/><path d="M0,0H24V24H0Z" fill="none"/></svg>