<svg id="Layer_3" data-name="Layer 3" xmlns="http://www.w3.org/2000/svg" viewBox="0 0 24 24"><title>lemon</title><path d="M16.185,4.585a.932.932,0,0,1-.76-.01,8.245,8.245,0,0,0-8.909,1.94,8.244,8.244,0,0,0-1.931,8.934,1,1,0,0,1,.041.767,2.413,2.413,0,0,0,3.158,3.158,1,1,0,0,1,.767.041,8.244,8.244,0,0,0,8.934-1.931,8.245,8.245,0,0,0,1.94-8.909.932.932,0,0,1-.01-.76,2.418,2.418,0,0,0-3.23-3.23Z" fill="none" stroke="#323232" stroke-linecap="round" stroke-linejoin="round" stroke-width="1.5"/><rect width="24" height="24" fill="none"/></svg>