<svg id="Layer_3" data-name="Layer 3" xmlns="http://www.w3.org/2000/svg" viewBox="0 0 24 24"><title>leo</title><path d="M9.943,15.886h0a2.972,2.972,0,0,0-2.972-2.972h0A2.972,2.972,0,0,0,4,15.886H4a2.971,2.971,0,0,0,2.971,2.971h0a2.971,2.971,0,0,0,2.972-2.971Z" fill="none" stroke="#323232" stroke-linecap="round" stroke-linejoin="round" stroke-width="1.5"/><path d="M20,16.8A3.2,3.2,0,0,1,16.8,20h0a3.2,3.2,0,0,1-3.2-3.2h0a6.6,6.6,0,0,1,.941-3.4l.861-1.435a6.6,6.6,0,0,0,.941-3.4h0A4.572,4.572,0,0,0,11.771,4h0A4.572,4.572,0,0,0,7.2,8.571h0a5.385,5.385,0,0,0,.941,3.02L9,12.867a5.381,5.381,0,0,1,.941,3.019h0" fill="none" stroke="#323232" stroke-linecap="round" stroke-linejoin="round" stroke-width="1.5"/><rect width="24" height="24" fill="none"/></svg>