<svg id="Layer_3" data-name="Layer 3" xmlns="http://www.w3.org/2000/svg" viewBox="0 0 24 24"><path d="M0,0H24V24H0Z" fill="none"/><path d="M7.50345,8.977c.63794.58394,2.13579,1.95381,3.37466,3.08269a1.66561,1.66561,0,0,0,2.24478.001c1.28287-1.16988,2.74872-2.51074,3.37466-3.08369" fill="none" stroke="#323232" stroke-linecap="round" stroke-linejoin="round" stroke-width="1.5"/><path d="M7.0005,10.16683v4.16634A1.667,1.667,0,0,0,8.66733,16h6.66534a1.66854,1.66854,0,0,0,1.66783-1.66683V10.16683A1.667,1.667,0,0,0,15.33367,8.5H8.66733A1.667,1.667,0,0,0,7.0005,10.16683Z" fill="none" stroke="#323232" stroke-linecap="round" stroke-linejoin="round" stroke-width="1.5"/><line x1="11.09139" y1="12.22469" x2="7.49533" y2="15.517" fill="none" stroke="#323232" stroke-linecap="round" stroke-linejoin="round" stroke-width="1.5"/><line x1="12.90961" y1="12.22469" x2="16.50567" y2="15.517" fill="none" stroke="#323232" stroke-linecap="round" stroke-linejoin="round" stroke-width="1.5"/><polyline points="21 4.275 19.013 6.262 17.737 4.988" fill="none" stroke="#323232" stroke-linecap="round" stroke-linejoin="round" stroke-width="1.5"/><path d="M21,9v7a5,5,0,0,1-5,5H8a5,5,0,0,1-5-5V8A5,5,0,0,1,8,3h7" fill="none" stroke="#323232" stroke-linecap="round" stroke-linejoin="round" stroke-width="1.5"/><path d="M0,0H24V24H0Z" fill="none"/></svg>