<svg id="Layer_3" data-name="Layer 3" xmlns="http://www.w3.org/2000/svg" viewBox="0 0 24 24"><path d="M0,0H24V24H0Z" fill="none"/><path d="M0,0H24V24H0Z" fill="none"/><path d="M7.50345,8.727c.63794.58394,2.13579,1.95381,3.37466,3.08269a1.66561,1.66561,0,0,0,2.24478.001c1.28287-1.16988,2.74872-2.51074,3.37466-3.08369" fill="none" stroke="#323232" stroke-linecap="round" stroke-linejoin="round" stroke-width="1.5"/><path d="M7.0005,9.91683v4.16634A1.667,1.667,0,0,0,8.66733,15.75h6.66534a1.66854,1.66854,0,0,0,1.66783-1.66683V9.91683A1.667,1.667,0,0,0,15.33367,8.25H8.66733A1.667,1.667,0,0,0,7.0005,9.91683Z" fill="none" stroke="#323232" stroke-linecap="round" stroke-linejoin="round" stroke-width="1.5"/><path d="M21.05878,9.20594A9.33037,9.33037,0,0,1,21.5,12,9.5,9.5,0,1,1,12,2.5a9.33037,9.33037,0,0,1,2.79406.44122" fill="none" stroke="#323232" stroke-linecap="round" stroke-linejoin="round" stroke-width="1.5"/><polyline points="21.5 3.846 19.403 5.943 18.056 4.598" fill="none" stroke="#323232" stroke-linecap="round" stroke-linejoin="round" stroke-width="1.5"/><line x1="11.09139" y1="11.97469" x2="7.49533" y2="15.267" fill="none" stroke="#323232" stroke-linecap="round" stroke-linejoin="round" stroke-width="1.5"/><line x1="12.90961" y1="11.97469" x2="16.50567" y2="15.267" fill="none" stroke="#323232" stroke-linecap="round" stroke-linejoin="round" stroke-width="1.5"/></svg>