<?xml version="1.0" encoding="utf-8"?>
<!-- Generator: Adobe Illustrator 23.1.0, SVG Export Plug-In . SVG Version: 6.00 Build 0)  -->
<svg version="1.1" id="icons" xmlns="http://www.w3.org/2000/svg" xmlns:xlink="http://www.w3.org/1999/xlink" x="0px" y="0px"
	 width="24px" height="24px" viewBox="0 0 24 24" enable-background="new 0 0 24 24" xml:space="preserve">
<g>
	<g>
		
			<line fill="none" stroke="#323232" stroke-width="1.5" stroke-linecap="round" stroke-linejoin="round" x1="15" y1="15.191" x2="9" y2="15.191"/>
		<path fill="none" stroke="#323232" stroke-width="1.5" stroke-linecap="round" stroke-linejoin="round" d="M8.541,14.896
			C6.765,13.641,5.7,11.45,6.075,9.038c0.406-2.607,2.579-4.688,5.2-4.995C14.913,3.616,18,6.448,18,10
			c0,2.025-1.006,3.812-2.543,4.898C15.181,15.093,15,15.395,15,15.733l0,2.767c0,1.381-1.119,2.5-2.5,2.5h-1
			C10.119,21,9,19.881,9,18.5l0-2.763C9,15.396,8.818,15.092,8.541,14.896z"/>
		
			<line fill="none" stroke="#323232" stroke-width="1.5" stroke-linecap="round" stroke-linejoin="round" x1="20" y1="5" x2="21.193" y2="3.807"/>
		
			<line fill="none" stroke="#323232" stroke-width="1.5" stroke-linecap="round" stroke-linejoin="round" x1="4" y1="15" x2="2.807" y2="16.193"/>
		
			<line fill="none" stroke="#323232" stroke-width="1.5" stroke-linecap="round" stroke-linejoin="round" x1="5" y1="4" x2="3.807" y2="2.807"/>
		
			<line fill="none" stroke="#323232" stroke-width="1.5" stroke-linecap="round" stroke-linejoin="round" x1="20" y1="15" x2="21.193" y2="16.193"/>
		
			<line fill="none" stroke="#323232" stroke-width="1.5" stroke-linecap="round" stroke-linejoin="round" x1="21" y1="10" x2="22.687" y2="10"/>
		
			<line fill="none" stroke="#323232" stroke-width="1.5" stroke-linecap="round" stroke-linejoin="round" x1="1.313" y1="10" x2="3" y2="10.001"/>
		
			<line fill="none" stroke="#323232" stroke-width="1.5" stroke-linecap="round" stroke-linejoin="round" x1="9" y1="18" x2="14.873" y2="18"/>
	</g>
	<path fill="none" d="M0,0h24v24H0V0z"/>
</g>
</svg>
