<svg id="Layer_3" data-name="Layer 3" xmlns="http://www.w3.org/2000/svg" viewBox="0 0 24 24"><title>lightbulb-shine-circle</title><path d="M0,0H24V24H0Z" fill="none"/><path d="M24,24H0V0H24Z" fill="none"/><path d="M5.5,12H6" fill="none" stroke="#323232" stroke-linecap="round" stroke-linejoin="round" stroke-width="1.5"/><path d="M12,5.5V6" fill="none" stroke="#323232" stroke-linecap="round" stroke-linejoin="round" stroke-width="1.5"/><path d="M7.4,7.4l.36.36" fill="none" stroke="#323232" stroke-linecap="round" stroke-linejoin="round" stroke-width="1.5"/><path d="M13.674,14.923H10.326" fill="none" stroke="#323232" stroke-linecap="round" stroke-linejoin="round" stroke-width="1.5"/><path d="M10.168,14.769a3.177,3.177,0,1,1,3.662,0,.544.544,0,0,0-.242.442v1.465A1.324,1.324,0,0,1,12.264,18h-.53a1.324,1.324,0,0,1-1.324-1.324V15.214A.544.544,0,0,0,10.168,14.769Z" fill="none" stroke="#323232" stroke-linecap="round" stroke-linejoin="round" stroke-width="1.5"/><circle cx="12" cy="12" r="9" fill="none" stroke="#323232" stroke-linecap="round" stroke-linejoin="round" stroke-width="1.5"/><path d="M18,12h.5" fill="none" stroke="#323232" stroke-linecap="round" stroke-linejoin="round" stroke-width="1.5"/><path d="M16.24,7.76l.36-.36" fill="none" stroke="#323232" stroke-linecap="round" stroke-linejoin="round" stroke-width="1.5"/></svg>