<svg id="Layer_3" data-name="Layer 3" xmlns="http://www.w3.org/2000/svg" viewBox="0 0 24 24"><title>link-square_1</title><path d="M24,24.00031H0v-24H24Z" fill="none"/><path d="M12,10.667H11a1,1,0,0,0-1,1v3.33333a1,1,0,0,0,1,1h5a1,1,0,0,0,1-1V11.667a1,1,0,0,0-1-1" fill="none" stroke="#323232" stroke-linecap="round" stroke-linejoin="round" stroke-width="1.5"/><circle cx="12" cy="12.00031" r="9" fill="none" stroke="#323232" stroke-linecap="round" stroke-linejoin="round" stroke-width="1.5"/><path d="M12,13.33365h1a1,1,0,0,0,1-1V9.00031a1,1,0,0,0-1-1H8a1,1,0,0,0-1,1v3.33334a1,1,0,0,0,1,1" fill="none" stroke="#323232" stroke-linecap="round" stroke-linejoin="round" stroke-width="1.5"/></svg>