<svg id="Layer_3" data-name="Layer 3" xmlns="http://www.w3.org/2000/svg" viewBox="0 0 24 24"><title>link-square</title><path d="M24,24H0V0H24Z" fill="none"/><path d="M11.85366,13.39763H12.439a1.7561,1.7561,0,0,0,1.7561-1.7561V9.30007A1.7561,1.7561,0,0,0,12.439,7.544H7.7561A1.7561,1.7561,0,0,0,6,9.30007v2.34147a1.75609,1.75609,0,0,0,1.7561,1.75609h0" fill="none" stroke="#323232" stroke-linecap="round" stroke-linejoin="round" stroke-width="1.5"/><path d="M12.14634,10.4708H11.561a1.7561,1.7561,0,0,0-1.7561,1.7561v2.34146a1.7561,1.7561,0,0,0,1.7561,1.7561H16.2439A1.7561,1.7561,0,0,0,18,14.56836V12.2269a1.7561,1.7561,0,0,0-1.7561-1.7561h0" fill="none" stroke="#323232" stroke-linecap="round" stroke-linejoin="round" stroke-width="1.5"/><path d="M8,3h8a5,5,0,0,1,5,5v8a5,5,0,0,1-5,5H8a5,5,0,0,1-5-5V8A5,5,0,0,1,8,3Z" fill="none" stroke="#323232" stroke-linecap="round" stroke-linejoin="round" stroke-width="1.5"/></svg>