<svg id="Layer_3" data-name="Layer 3" xmlns="http://www.w3.org/2000/svg" viewBox="0 0 24 24"><path d="M0,0H24V24H0Z" fill="none"/><path d="M13,20.938A8.15936,8.15936,0,0,1,12,21a9,9,0,1,1,9-9,8.15936,8.15936,0,0,1-.062,1" fill="none" stroke="#323232" stroke-linecap="round" stroke-linejoin="round" stroke-width="1.5"/><path d="M20,17l-2.5,2.5L16,18" fill="none" stroke="#323232" stroke-linecap="round" stroke-linejoin="round" stroke-width="1.5"/><path d="M13.045,15.135a2.95754,2.95754,0,0,1-4.18,0h0a2.95755,2.95755,0,0,1,0-4.18" fill="none" stroke="#323232" stroke-linecap="round" stroke-linejoin="round" stroke-width="1.5"/><path d="M10.955,8.865a2.95755,2.95755,0,0,1,4.18,0h0a2.95756,2.95756,0,0,1,0,4.18" fill="none" stroke="#323232" stroke-linecap="round" stroke-linejoin="round" stroke-width="1.5"/><line x1="11" y1="13" x2="13" y2="11" fill="none" stroke="#323232" stroke-linecap="round" stroke-linejoin="round" stroke-width="1.5"/></svg>