<svg id="Layer_3" data-name="Layer 3" xmlns="http://www.w3.org/2000/svg" viewBox="0 0 24 24"><title>Artboard 147</title><path d="M24,24H0V0H24Z" fill="none"/><path d="M19.326,19.128l-3.454-3.454" fill="none" stroke="#323232" stroke-linecap="round" stroke-linejoin="round" stroke-width="1.5"/><path d="M14.934,21H17.04a1,1,0,0,0,.707-.293l3.923-3.923a1.127,1.127,0,0,0,0-1.594l-1.86-1.86a1.127,1.127,0,0,0-1.594,0L13.33,18.216a1.127,1.127,0,0,0,0,1.594l.9.9A1,1,0,0,0,14.934,21Z" fill="none" stroke="#323232" stroke-linecap="round" stroke-linejoin="round" stroke-width="1.5"/><path d="M9.714,20H6.857A2.857,2.857,0,0,1,4,17.143V15" fill="none" stroke="#323232" stroke-linecap="round" stroke-linejoin="round" stroke-width="1.5"/><path d="M14,4h3a3,3,0,0,1,3,3V9.25" fill="none" stroke="#323232" stroke-linecap="round" stroke-linejoin="round" stroke-width="1.5"/><path d="M8,12V11" fill="none" stroke="#323232" stroke-linecap="round" stroke-linejoin="round" stroke-width="1.5"/><path d="M10,9h1" fill="none" stroke="#323232" stroke-linecap="round" stroke-linejoin="round" stroke-width="1.5"/><path d="M5,3V4" fill="none" stroke="#323232" stroke-linecap="round" stroke-linejoin="round" stroke-width="1.5"/><path d="M3,6H2" fill="none" stroke="#323232" stroke-linecap="round" stroke-linejoin="round" stroke-width="1.5"/><path d="M6,10l-.586.586a1.415,1.415,0,0,1-2,0h0a1.415,1.415,0,0,1,0-2L4,8" fill="none" stroke="#323232" stroke-linecap="round" stroke-linejoin="round" stroke-width="1.5"/><path d="M7,5l.586-.586a1.415,1.415,0,0,1,2,0h0a1.415,1.415,0,0,1,0,2L9,7" fill="none" stroke="#323232" stroke-linecap="round" stroke-linejoin="round" stroke-width="1.5"/></svg>