<svg id="Layer_3" data-name="Layer 3" xmlns="http://www.w3.org/2000/svg" viewBox="0 0 24 24"><title>link-attachment-circle-arrow-left</title><path d="M24,24H0V0H24Z" fill="none"/><path d="M16,21.5l-2-2,2-2" fill="none" stroke="#323232" stroke-linecap="round" stroke-linejoin="round" stroke-width="1.5"/><path d="M11.06441,12.43559a2.84655,2.84655,0,0,0,3.74418,0l.9356-.93559h0A2.64769,2.64769,0,0,0,12,7.75581" fill="none" stroke="#323232" stroke-linecap="round" stroke-linejoin="round" stroke-width="1.5"/><path d="M12.93559,10.5644a2.84655,2.84655,0,0,0-3.74418,0l-.9356.9356h0A2.64769,2.64769,0,0,0,12,15.24418" fill="none" stroke="#323232" stroke-linecap="round" stroke-linejoin="round" stroke-width="1.5"/><path d="M20,19.5H14" fill="none" stroke="#323232" stroke-linecap="round" stroke-linejoin="round" stroke-width="1.5"/><path d="M20.05829,15.50356a8.998,8.998,0,1,0-10.0558,4.77" fill="none" stroke="#323232" stroke-linecap="round" stroke-linejoin="round" stroke-width="1.5"/></svg>