<svg id="Layer_3" data-name="Layer 3" xmlns="http://www.w3.org/2000/svg" viewBox="0 0 24 24"><title>link-attachment-circle-edit</title><path d="M24,0V24H0" fill="none"/><path d="M10.06843,11.942a2.84657,2.84657,0,0,0,3.74419,0l.93559-.9356h0A2.64768,2.64768,0,0,0,11.004,7.26222" fill="none" stroke="#323232" stroke-linecap="round" stroke-linejoin="round" stroke-width="1.5"/><path d="M11.03123,20A9,9,0,1,1,20,10" fill="none" stroke="#323232" stroke-linecap="round" stroke-linejoin="round" stroke-width="1.5"/><path d="M15.29262,17.83868l3.542-3.54475a1.003,1.003,0,0,1,1.41851-.00048l1.45317,1.45234a1.002,1.002,0,0,1,0,1.41742L18.16,20.70732A1,1,0,0,1,17.45313,21H15V18.54551A1,1,0,0,1,15.29262,17.83868Z" fill="none" stroke="#323232" stroke-linecap="round" stroke-linejoin="round" stroke-width="1.5"/><path d="M11.93962,10.07081a2.84655,2.84655,0,0,0-3.74418,0l-.9356.93559h0A2.64769,2.64769,0,0,0,11.004,14.75059" fill="none" stroke="#323232" stroke-linecap="round" stroke-linejoin="round" stroke-width="1.5"/><path d="M24,24H0V0H24Z" fill="none"/></svg>