<svg id="Layer_3" data-name="Layer 3" xmlns="http://www.w3.org/2000/svg" viewBox="0 0 24 24"><rect width="24" height="24" fill="none"/><path d="M9,12H7A4,4,0,0,1,3,8H3A4,4,0,0,1,7,4H9" fill="none" stroke="#323232" stroke-linecap="round" stroke-linejoin="round" stroke-width="1.5"/><path d="M14,4h2a4,4,0,0,1,4,4h0" fill="none" stroke="#323232" stroke-linecap="round" stroke-linejoin="round" stroke-width="1.5"/><line x1="7" y1="8" x2="15" y2="8" fill="none" stroke="#323232" stroke-linecap="round" stroke-linejoin="round" stroke-width="1.5"/><path d="M12,20l3.14913-.38889a.99976.99976,0,0,0,.58483-.28492l4.63249-4.62749a2.16441,2.16441,0,0,0,0-3.06015h0a2.16439,2.16439,0,0,0-3.06015,0l-4.56151,4.56151a.99971.99971,0,0,0-.28292.56584Z" fill="none" stroke="#323232" stroke-linecap="round" stroke-linejoin="round" stroke-width="1.5"/></svg>