<?xml version="1.0" encoding="utf-8"?>
<!-- Generator: Adobe Illustrator 23.1.0, SVG Export Plug-In . SVG Version: 6.00 Build 0)  -->
<svg version="1.1" id="icons" xmlns="http://www.w3.org/2000/svg" xmlns:xlink="http://www.w3.org/1999/xlink" x="0px" y="0px"
	 width="24px" height="24px" viewBox="0 0 24 24" enable-background="new 0 0 24 24" xml:space="preserve">
<g>
	<rect fill="none" width="24" height="24"/>
	<g>
		<path fill="none" stroke="#323232" stroke-width="1.5" stroke-linecap="round" stroke-linejoin="round" d="M8.649,10.574v4.909"/>
		<path fill="none" stroke="#323232" stroke-width="1.5" stroke-linecap="round" stroke-linejoin="round" d="M11.92,15.483v-2.864
			c0-1.13,0.915-2.045,2.045-2.045l0,0c1.13,0,2.045,0.915,2.045,2.045v2.864"/>
		<path fill="none" stroke="#323232" stroke-width="1.5" stroke-linecap="round" stroke-linejoin="round" d="M8.647,7.608
			c-0.113,0-0.205,0.092-0.204,0.205c0,0.113,0.092,0.205,0.205,0.205s0.205-0.092,0.205-0.205C8.852,7.699,8.76,7.608,8.647,7.608"
			/>
		<path fill="none" stroke="#323232" stroke-width="1.5" stroke-linecap="round" stroke-linejoin="round" d="M19.071,4.929
			c3.905,3.905,3.905,10.237,0,14.142c-3.905,3.905-10.237,3.905-14.142,0c-3.905-3.905-3.905-10.237,0-14.142
			C8.834,1.024,15.166,1.024,19.071,4.929"/>
	</g>
</g>
</svg>
