<svg id="Layer_3" data-name="Layer 3" xmlns="http://www.w3.org/2000/svg" viewBox="0 0 24 24"><rect width="24" height="24" fill="none"/><path d="M17.77126,15a.71931.71931,0,0,0-.57849.28759c-.365.48674-1.128,1.50415-1.77457,2.36629a2.09134,2.09134,0,0,0,.19441,2.73353h0a2.09131,2.09131,0,0,0,2.73348.19438l2.36362-1.77246A.72561.72561,0,0,0,21,18.22881v-.60109a2.62774,2.62774,0,0,0-.76962-1.85808h0A2.62758,2.62758,0,0,0,18.37237,15Z" fill="none" stroke="#323232" stroke-linecap="round" stroke-linejoin="round" stroke-width="1.5"/><path d="M6.22874,15a.71931.71931,0,0,1,.57849.28759c.365.48674,1.12805,1.50415,1.77457,2.36629a2.09134,2.09134,0,0,1-.19441,2.73353h0a2.09131,2.09131,0,0,1-2.73348.19438L3.29029,18.80934A.72561.72561,0,0,1,3,18.22881v-.60109a2.62774,2.62774,0,0,1,.76962-1.85808h0A2.62758,2.62758,0,0,1,5.62763,15Z" fill="none" stroke="#323232" stroke-linecap="round" stroke-linejoin="round" stroke-width="1.5"/><path d="M10.05287,11.43154l1.11145.55572a1.86781,1.86781,0,0,0,1.67062,0l1.11145-.55572a1,1,0,0,0,0-1.78886l-.6938-.3469a2.80176,2.80176,0,0,0-2.50592,0l-.6938.3469A1,1,0,0,0,10.05287,11.43154Z" fill="none" stroke="#323232" stroke-linecap="round" stroke-linejoin="round" stroke-width="1.5"/><line x1="10.5" y1="7.5" x2="10.5" y2="9.41949" fill="none" stroke="#323232" stroke-linecap="round" stroke-linejoin="round" stroke-width="1.5"/><line x1="13.5" y1="7.5" x2="13.5" y2="9.41949" fill="none" stroke="#323232" stroke-linecap="round" stroke-linejoin="round" stroke-width="1.5"/><path d="M15.07031,18.37122A10.03668,10.03668,0,0,0,14.15057,11.29" fill="none" stroke="#323232" stroke-linecap="round" stroke-linejoin="round" stroke-width="1.5"/><path d="M9.84924,11.29047a10.03614,10.03614,0,0,0-.91955,7.08075" fill="none" stroke="#323232" stroke-linecap="round" stroke-linejoin="round" stroke-width="1.5"/><path d="M5.12878,15.04938a1.99262,1.99262,0,0,1,.3628-1.23755l.14575-.2041A10.00019,10.00019,0,0,0,7.5,7.79535V7.5a4.5,4.5,0,0,1,9,0v.29535a10.00019,10.00019,0,0,0,1.86267,5.81238l.14575.2041a1.99262,1.99262,0,0,1,.3628,1.23755" fill="none" stroke="#323232" stroke-linecap="round" stroke-linejoin="round" stroke-width="1.5"/><path d="M15.31128,19.9931a3.151,3.151,0,0,1-1.58106-.477l-.0512-.03216a3.15491,3.15491,0,0,0-3.358,0l-.0512.03216a3.151,3.151,0,0,1-1.58106.477" fill="none" stroke="#323232" stroke-linecap="round" stroke-linejoin="round" stroke-width="1.5"/></svg>