<svg id="Layer_3" data-name="Layer 3" xmlns="http://www.w3.org/2000/svg" viewBox="0 0 24 24"><title>lips-square</title><path d="M18,12.37a84.317,84.317,0,0,1-12,0" fill="none" stroke="#323232" stroke-linecap="round" stroke-linejoin="round" stroke-width="1.5"/><path d="M14.182,9.5c-1.309,0-1.309.574-2.182.574S11.127,9.5,9.818,9.5c-2.182,0-2.1,2.571-3.818,2.87,1.714.559,1.714,3.13,6,3.13s4.286-2.571,6-3.13C16.286,12.071,16.364,9.5,14.182,9.5Z" fill="none" stroke="#323232" stroke-linecap="round" stroke-linejoin="round" stroke-width="1.5"/><path d="M3,8v8a5,5,0,0,0,5,5h8a5,5,0,0,0,5-5V8a5,5,0,0,0-5-5H8A5,5,0,0,0,3,8Z" fill="none" stroke="#323232" stroke-linecap="round" stroke-linejoin="round" stroke-width="1.5"/><path d="M0,0H24V24H0Z" fill="none"/></svg>