<svg id="Layer_3" data-name="Layer 3" xmlns="http://www.w3.org/2000/svg" viewBox="0 0 24 24"><path d="M18,12.37a84.3174,84.3174,0,0,1-12,0" fill="none" stroke="#323232" stroke-linecap="round" stroke-linejoin="round" stroke-width="1.5"/><path d="M21,12a9,9,0,1,1-9-9" fill="none" stroke="#323232" stroke-linecap="round" stroke-linejoin="round" stroke-width="1.5"/><path d="M19.65789,2.38978,20.208,3.39509a.99944.99944,0,0,0,.39707.397l1.00516.54994a.7496.7496,0,0,1,0,1.3152l-1.00406.54939a.99952.99952,0,0,0-.39685.39669l-.55157,1.00709a.74959.74959,0,0,1-1.315-.00028l-.54981-1.00485a.99945.99945,0,0,0-.3967-.39686l-1.00666-.55132a.74959.74959,0,0,1,.00025-1.315l1.00611-.55051a.9994.9994,0,0,0,.397-.397l.54977-1.00477A.7496.7496,0,0,1,19.65789,2.38978Z" fill="none" stroke="#323232" stroke-linecap="round" stroke-linejoin="round" stroke-width="1.5"/><path d="M14.182,9.5c-1.309,0-1.309.574-2.182.574S11.127,9.5,9.818,9.5c-2.182,0-2.1,2.571-3.818,2.87,1.714.559,1.714,3.13,6,3.13s4.286-2.571,6-3.13C16.286,12.071,16.364,9.5,14.182,9.5Z" fill="none" stroke="#323232" stroke-linecap="round" stroke-linejoin="round" stroke-width="1.5"/><path d="M0,0H24V24H0Z" fill="none"/></svg>