<svg id="Layer_3" data-name="Layer 3" xmlns="http://www.w3.org/2000/svg" viewBox="0 0 24 24"><rect width="24" height="24" fill="none"/><circle cx="12" cy="12" r="9" fill="none" stroke="#323232" stroke-linecap="round" stroke-linejoin="round" stroke-width="1.5"/><path d="M5.63833,14.00708l1.58232-1.58149a1.45041,1.45041,0,0,1,2.0512-.00154l.00155.00154,2.301,2.301a1.45042,1.45042,0,0,1,.00155,2.0512l-.00155.00155L10.0117,18.34289" fill="none" stroke="#323232" stroke-linecap="round" stroke-linejoin="round" stroke-width="1.5"/><path d="M3.64931,15.34069,4.5,14.49a1.67185,1.67185,0,0,1,2.36,0l2.65,2.65a1.67185,1.67185,0,0,1,0,2.36l-.86356.86356" fill="none" stroke="#323232" stroke-linecap="round" stroke-linejoin="round" stroke-width="1.5"/><path d="M11.89068,15.16389l3.81591-3.81512a1,1,0,0,0-.39151-1.6561l-1.85266-.616a1.5,1.5,0,0,0-1.53393.36272L9.09024,12.27763" fill="none" stroke="#323232" stroke-linecap="round" stroke-linejoin="round" stroke-width="1.5"/></svg>