<svg id="Layer_3" data-name="Layer 3" xmlns="http://www.w3.org/2000/svg" viewBox="0 0 24 24"><title>list-diet-heart</title><path d="M8,4,9.3,2.375A1,1,0,0,1,10.081,2H13.92a1,1,0,0,1,.781.375L16,4h0V5a1,1,0,0,1-1,1H9A1,1,0,0,1,8,5V4Z" fill="none" stroke="#323232" stroke-linecap="round" stroke-linejoin="round" stroke-width="1.5"/><path d="M9.667,9.333,8,11,7,10" fill="none" stroke="#323232" stroke-linecap="round" stroke-linejoin="round" stroke-width="1.5"/><path d="M13,10h3" fill="none" stroke="#323232" stroke-linecap="round" stroke-linejoin="round" stroke-width="1.5"/><path d="M11,20H6a2,2,0,0,1-2-2V6A2,2,0,0,1,6,4H8" fill="none" stroke="#323232" stroke-linecap="round" stroke-linejoin="round" stroke-width="1.5"/><path d="M18.244,20.485A1.758,1.758,0,0,1,17,21h0a1.758,1.758,0,0,1-1.244-.515l-2.108-2.108a2.213,2.213,0,0,1,3.129-3.129l.223.223.223-.223a2.213,2.213,0,1,1,3.129,3.129Z" fill="none" stroke="#323232" stroke-linecap="round" stroke-linejoin="round" stroke-width="1.5"/><path d="M16,4h2a2,2,0,0,1,2,2v6" fill="none" stroke="#323232" stroke-linecap="round" stroke-linejoin="round" stroke-width="1.5"/><line x1="7" y1="15" x2="9" y2="15" fill="none" stroke="#323232" stroke-linecap="round" stroke-linejoin="round" stroke-width="1.5"/><path d="M0,0H24V24H0Z" fill="none"/></svg>