<?xml version="1.0" encoding="utf-8"?>
<!-- Generator: Adobe Illustrator 24.0.2, SVG Export Plug-In . SVG Version: 6.00 Build 0)  -->
<svg version="1.1" id="Layer_1" xmlns="http://www.w3.org/2000/svg" xmlns:xlink="http://www.w3.org/1999/xlink" x="0px" y="0px"
	 width="24px" height="24px" viewBox="0 0 24 24" enable-background="new 0 0 24 24" xml:space="preserve">
<g>
	<g>
		<path fill="none" d="M0,0h24v24H0V0z"/>
	</g>
	<g>
		<path fill="none" stroke="#323232" stroke-width="1.5" stroke-linecap="round" stroke-linejoin="round" d="M18,7V5
			c0-1.105-0.895-2-2-2H5C3.895,3,3,3.895,3,5v5c0,1.105,0.895,2,2,2h2"/>
		
			<line fill="none" stroke="#323232" stroke-width="1.5" stroke-linecap="round" stroke-linejoin="round" x1="10.111" y1="17.111" x2="17.889" y2="17.111"/>
		
			<line fill="none" stroke="#323232" stroke-width="1.5" stroke-linecap="round" stroke-linejoin="round" x1="10.111" y1="14" x2="17.889" y2="14"/>
		
			<line fill="none" stroke="#323232" stroke-width="1.5" stroke-linecap="round" stroke-linejoin="round" x1="10.111" y1="10.889" x2="17.889" y2="10.889"/>
		
			<path fill-rule="evenodd" clip-rule="evenodd" fill="none" stroke="#323232" stroke-width="1.5" stroke-linecap="round" stroke-linejoin="round" d="
			M19.444,21H8.556C7.696,21,7,20.304,7,19.444V8.556C7,7.696,7.696,7,8.556,7h10.889C20.304,7,21,7.696,21,8.556v10.889
			C21,20.304,20.304,21,19.444,21z"/>
	</g>
</g>
</svg>
