<svg id="Layer_3" data-name="Layer 3" xmlns="http://www.w3.org/2000/svg" viewBox="0 0 24 24"><title>Artboard 12</title><path d="M0,0H24V24H0Z" fill="none"/><path d="M17,21a5,5,0,0,1-5-5,5.077,5.077,0,0,1,5-5,5,5,0,0,1,0,10" fill="none" stroke="#323232" stroke-width="1.5"/><path d="M18.414,14.586l-2.828,2.828" fill="none" stroke="#323232" stroke-linecap="round" stroke-linejoin="round" stroke-width="1.5"/><path d="M18.414,17.414l-2.828-2.828" fill="none" stroke="#323232" stroke-linecap="round" stroke-linejoin="round" stroke-width="1.5"/><path d="M3.194,3.806A.194.194,0,1,0,3.388,4a.194.194,0,0,0-.194-.194" fill="none" stroke="#323232" stroke-linecap="round" stroke-linejoin="round" stroke-width="1.5"/><path d="M6.306,4H20" fill="none" stroke="#323232" stroke-linecap="round" stroke-linejoin="round" stroke-width="1.5"/><path d="M3.194,7.806A.194.194,0,1,0,3.388,8a.194.194,0,0,0-.194-.194" fill="none" stroke="#323232" stroke-linecap="round" stroke-linejoin="round" stroke-width="1.5"/><path d="M6.306,8H20" fill="none" stroke="#323232" stroke-linecap="round" stroke-linejoin="round" stroke-width="1.5"/><path d="M3.194,11.806A.194.194,0,1,0,3.388,12a.194.194,0,0,0-.194-.194" fill="none" stroke="#323232" stroke-linecap="round" stroke-linejoin="round" stroke-width="1.5"/><path d="M6.306,12H8.352" fill="none" stroke="#323232" stroke-linecap="round" stroke-linejoin="round" stroke-width="1.5"/></svg>