<svg id="Layer_3" data-name="Layer 3" xmlns="http://www.w3.org/2000/svg" viewBox="0 0 24 24"><title>list-package-box</title><path d="M20,11V5a2,2,0,0,0-2-2H5A2,2,0,0,0,3,5V19a2,2,0,0,0,2,2h5" fill="none" stroke="#323232" stroke-linecap="round" stroke-linejoin="round" stroke-width="1.5"/><line x1="9.25" y1="15" x2="10" y2="15" fill="none" stroke="#323232" stroke-linecap="round" stroke-linejoin="round" stroke-width="1.5"/><path d="M17.5,13.818V17" fill="none" stroke="#323232" stroke-linecap="round" stroke-linejoin="round" stroke-width="1.5"/><path d="M21,22H14.125A1.125,1.125,0,0,1,13,20.875V16.567a2.006,2.006,0,0,1,.161-.786l.547-1.28a1.126,1.126,0,0,1,1.035-.683h5.514a1.125,1.125,0,0,1,1.034.683l.548,1.282a2,2,0,0,1,.161.786V21A1,1,0,0,1,21,22Z" fill="none" stroke="#323232" stroke-linecap="round" stroke-linejoin="round" stroke-width="1.5"/><path d="M22,18a1,1,0,0,0-1-1H14a1,1,0,0,0-1,1" fill="none" stroke="#323232" stroke-linecap="round" stroke-linejoin="round" stroke-width="1.5"/><line x1="9.25" y1="11" x2="13" y2="11" fill="none" stroke="#323232" stroke-linecap="round" stroke-linejoin="round" stroke-width="1.5"/><line x1="9.25" y1="7.125" x2="16" y2="7.125" fill="none" stroke="#323232" stroke-linecap="round" stroke-linejoin="round" stroke-width="1.5"/><path d="M6.125,15.125A.125.125,0,1,0,6,15a.125.125,0,0,0,.125.125" fill="none" stroke="#323232" stroke-linecap="round" stroke-linejoin="round" stroke-width="1.5"/><path d="M6.125,11.125A.125.125,0,1,0,6,11a.125.125,0,0,0,.125.125" fill="none" stroke="#323232" stroke-linecap="round" stroke-linejoin="round" stroke-width="1.5"/><path d="M6.125,7.25A.125.125,0,1,0,6,7.125a.125.125,0,0,0,.125.125" fill="none" stroke="#323232" stroke-linecap="round" stroke-linejoin="round" stroke-width="1.5"/><path d="M0,0H24V24H0Z" fill="none"/></svg>