<svg id="Layer_3" data-name="Layer 3" xmlns="http://www.w3.org/2000/svg" viewBox="0 0 24 24"><title>loading-ciecle</title><path d="M0,0H24V24H0Z" fill="none"/><path d="M15.846,12H8.154a1.651,1.651,0,0,0-1.167,2.818l2.2,2.2A1.651,1.651,0,0,0,12,15.846V8.154a1.651,1.651,0,0,1,2.818-1.167l2.2,2.2A1.651,1.651,0,0,1,15.846,12Z" fill="none" stroke="#323232" stroke-linecap="round" stroke-linejoin="round" stroke-width="1.5"/><circle cx="12" cy="12" r="9" fill="none" stroke="#323232" stroke-linecap="round" stroke-linejoin="round" stroke-width="1.5"/><path d="M15.846,12H8.154a1.651,1.651,0,0,0-1.167,2.818l2.2,2.2A1.651,1.651,0,0,0,12,15.846V8.154a1.651,1.651,0,0,1,2.818-1.167l2.2,2.2A1.651,1.651,0,0,1,15.846,12Z" fill="none" stroke="#323232" stroke-linecap="round" stroke-linejoin="round" stroke-width="1.5"/></svg>