<?xml version="1.0" encoding="utf-8"?>
<!-- Generator: Adobe Illustrator 24.0.2, SVG Export Plug-In . SVG Version: 6.00 Build 0)  -->
<svg version="1.1" id="Layer_3" xmlns="http://www.w3.org/2000/svg" xmlns:xlink="http://www.w3.org/1999/xlink" x="0px" y="0px"
	 width="24px" height="24px" viewBox="0 0 24 24" enable-background="new 0 0 24 24" xml:space="preserve">
<g>
	<g>
		<path fill="none" stroke="#323232" stroke-width="1.5" stroke-linecap="round" stroke-linejoin="round" d="M18.364,5.636
			c3.515,3.515,3.515,9.213,0,12.728s-9.213,3.515-12.728,0s-3.515-9.213,0-12.728S14.849,2.121,18.364,5.636"/>
		<path fill="none" stroke="#323232" stroke-width="1.5" stroke-linecap="round" stroke-linejoin="round" d="M4.206,16.5L4.206,16.5
			c-1.127-1.953-0.554-4.442,1.312-5.706l0.002-0.002c1.499-1.013,3.472-0.979,4.936,0.085l3.089,2.246
			c1.463,1.064,3.436,1.098,4.936,0.085l0.002-0.002c1.867-1.264,2.441-3.755,1.312-5.706l0,0"/>
		<path fill="none" stroke="#323232" stroke-width="1.5" stroke-linecap="round" stroke-linejoin="round" d="M16.502,19.794
			L16.502,19.794c-1.953,1.127-4.442,0.554-5.706-1.312l-0.002-0.002c-1.013-1.499-0.979-3.472,0.085-4.936l2.246-3.089
			c1.064-1.463,1.098-3.436,0.085-4.936l-0.004-0.002C11.942,3.652,9.451,3.077,7.5,4.206l0,0"/>
	</g>
	<path fill="none" d="M0,0h24v24H0V0z"/>
</g>
</svg>
