<?xml version="1.0" encoding="utf-8"?>
<!-- Generator: Adobe Illustrator 23.1.0, SVG Export Plug-In . SVG Version: 6.00 Build 0)  -->
<svg version="1.1" id="icons" xmlns="http://www.w3.org/2000/svg" xmlns:xlink="http://www.w3.org/1999/xlink" x="0px" y="0px"
	 width="24px" height="24px" viewBox="0 0 24 24" enable-background="new 0 0 24 24" xml:space="preserve">
<g>
	<g>
		<path fill="none" stroke="#323232" stroke-width="1.5" stroke-linecap="round" stroke-linejoin="round" d="M6.722,19.278
			C6.146,18.861,5.621,18.38,5.16,17.84"/>
		<path fill="none" stroke="#323232" stroke-width="1.5" stroke-linecap="round" stroke-linejoin="round" d="M3.523,9
			c0.561-1.583,1.545-2.965,2.826-4"/>
		<path fill="none" stroke="#323232" stroke-width="1.5" stroke-linecap="round" stroke-linejoin="round" d="M3,12
			c0,1.054,0.19,2.06,0.523,3"/>
		<path fill="none" stroke="#323232" stroke-width="1.5" stroke-linecap="round" stroke-linejoin="round" d="M19.559,4.407
			c0.659,0.659,0.659,1.728,0,2.387c-0.659,0.659-1.728,0.659-2.387,0c-0.659-0.659-0.659-1.728,0-2.387
			C17.831,3.748,18.9,3.748,19.559,4.407"/>
		<path fill="none" stroke="#323232" stroke-width="1.5" stroke-linecap="round" stroke-linejoin="round" d="M12,21
			c4.971,0,9-4.029,9-9c0-0.543-0.056-1.072-0.148-1.588"/>
		<path fill="none" stroke="#323232" stroke-width="1.5" stroke-linecap="round" stroke-linejoin="round" d="M17.053,4.553
			C15.612,3.573,13.873,3,12,3c-0.912,0-1.791,0.138-2.62,0.39"/>
		<path fill="none" stroke="#323232" stroke-width="1.5" stroke-linecap="round" stroke-linejoin="round" d="M14.995,9.005
			c1.654,1.654,1.654,4.336,0,5.99s-4.336,1.654-5.99,0s-1.654-4.336,0-5.99S13.341,7.351,14.995,9.005"/>
	</g>
	<path fill="none" d="M0,0h24v24H0V0z"/>
</g>
</svg>
