<?xml version="1.0" encoding="utf-8"?>
<!-- Generator: Adobe Illustrator 24.0.2, SVG Export Plug-In . SVG Version: 6.00 Build 0)  -->
<svg version="1.1" id="Layer_1" xmlns="http://www.w3.org/2000/svg" xmlns:xlink="http://www.w3.org/1999/xlink" x="0px" y="0px"
	 width="24px" height="24px" viewBox="0 0 24 24" enable-background="new 0 0 24 24" xml:space="preserve">
<g>
	<g>
		<g>
			<g>
				<path id="a_12_" fill="none" d="M0,0h24v24H0V0z"/>
			</g>
			<g>
				<path id="a_11_" fill="none" d="M0,0h24v24H0V0z"/>
			</g>
		</g>
	</g>
	<g>
		
			<circle fill="none" stroke="#323232" stroke-width="1.5" stroke-linecap="round" stroke-linejoin="round" stroke-miterlimit="10" cx="11.7" cy="3.5" r="1.5"/>
		
			<path fill="none" stroke="#323232" stroke-width="1.5" stroke-linecap="round" stroke-linejoin="round" stroke-miterlimit="10" d="
			M11,16h1.6c0.6,0,1-0.4,1-1v-2.75l1-1.2c0.1-0.2,0.2-0.4,0.2-0.6v-2.2c0-0.6-0.4-1-1-1h-4c-0.6,0-1,0.4-1,1v2.2
			c0,0.2,0.1,0.4,0.2,0.6l1,1.2V15C10,15.6,10.4,16,11,16z"/>
		<path fill="none" stroke="#323232" stroke-width="1.5" stroke-linecap="round" stroke-linejoin="round" d="M10.8,21l1.2-1.2
			l-1.2-1.2"/>
		<path fill="none" stroke="#323232" stroke-width="1.5" stroke-linecap="round" stroke-linejoin="round" d="M18,13.704
			c1.836,0.639,3,1.562,3,2.596c0,1.472-2.34,2.73-5.65,3.247"/>
		<path fill="none" stroke="#323232" stroke-width="1.5" stroke-linecap="round" stroke-linejoin="round" d="M6,13.704
			c-1.836,0.639-3,1.562-3,2.596c0,1.933,4.029,3.5,9,3.5"/>
	</g>
</g>
</svg>
