<svg id="Layer_3" data-name="Layer 3" xmlns="http://www.w3.org/2000/svg" viewBox="0 0 24 24"><title>lock-dots</title><path d="M17,21H7a2,2,0,0,1-2-2V12a2,2,0,0,1,2-2H17a2,2,0,0,1,2,2v7A2,2,0,0,1,17,21Z" fill="none" stroke="#323232" stroke-linecap="round" stroke-linejoin="round" stroke-width="1.5"/><path d="M8,10V7H8a4,4,0,0,1,4-4h0a4,4,0,0,1,4,4h0v3" fill="none" stroke="#323232" stroke-linecap="round" stroke-linejoin="round" stroke-width="1.5"/><path d="M10.316,15.431a.069.069,0,1,0,.069.069.069.069,0,0,0-.069-.069" fill="none" stroke="#323232" stroke-linecap="round" stroke-linejoin="round" stroke-width="1.5"/><path d="M13.615,15.5a.069.069,0,1,0,.069-.069.069.069,0,0,0-.069.069" fill="none" stroke="#323232" stroke-linecap="round" stroke-linejoin="round" stroke-width="1.5"/><path d="M0,0H24V24H0Z" fill="none"/></svg>