<?xml version="1.0" encoding="utf-8"?>
<!-- Generator: Adobe Illustrator 24.0.2, SVG Export Plug-In . SVG Version: 6.00 Build 0)  -->
<svg version="1.1" id="Layer_1" xmlns="http://www.w3.org/2000/svg" xmlns:xlink="http://www.w3.org/1999/xlink" x="0px" y="0px"
	 width="24px" height="24px" viewBox="0 0 24 24" enable-background="new 0 0 24 24" xml:space="preserve">
<g>
	<path fill="none" d="M0,0h24v24H0V0z"/>
	<g>
		
			<line fill="none" stroke="#323232" stroke-width="1.5" stroke-linecap="round" stroke-linejoin="round" x1="17.5" y1="5" x2="20.5" y2="5"/>
		
			<line fill="none" stroke="#323232" stroke-width="1.5" stroke-linecap="round" stroke-linejoin="round" x1="19" y1="6.5" x2="19" y2="3.5"/>
		<path fill="none" stroke="#323232" stroke-width="1.5" stroke-linecap="round" stroke-linejoin="round" d="M19,9
			c-2.209,0-4-1.791-4-4s1.791-4,4-4s4,1.791,4,4S21.209,9,19,9"/>
		<g>
			<path fill="none" stroke="#323232" stroke-width="1.5" stroke-linecap="round" stroke-linejoin="round" d="M15.006,4.765
				C13.936,4.279,12.752,4,11.5,4C6.806,4,3,7.806,3,12.5S6.806,21,11.5,21c4.694,0,8.5-3.806,8.5-8.5
				c0-1.252-0.279-2.436-0.765-3.506"/>
		</g>
		<path fill="none" stroke="#323232" stroke-width="1.5" stroke-linecap="round" stroke-linejoin="round" d="M9.611,11.269h3.778
			c0.519,0,0.944,0.425,0.944,0.944v2.883c0,0.521-0.423,0.944-0.944,0.944H9.611c-0.521,0-0.944-0.423-0.944-0.944v-2.883
			C8.666,11.693,9.089,11.269,9.611,11.269z"/>
		<path fill="none" stroke="#323232" stroke-width="1.5" stroke-linecap="round" stroke-linejoin="round" d="M9.909,11.269v-1.193
			c0-0.878,0.712-1.59,1.59-1.59s1.59,0.712,1.59,1.59v1.191"/>
	</g>
</g>
</svg>
