<?xml version="1.0" encoding="utf-8"?>
<!-- Generator: Adobe Illustrator 23.1.0, SVG Export Plug-In . SVG Version: 6.00 Build 0)  -->
<svg version="1.1" id="icons" xmlns="http://www.w3.org/2000/svg" xmlns:xlink="http://www.w3.org/1999/xlink" x="0px" y="0px"
	 width="24px" height="24px" viewBox="0 0 24 24" enable-background="new 0 0 24 24" xml:space="preserve">
<rect fill="none" width="24" height="24"/>
<g>
	<path fill="none" d="M0,0h24v24H0V0z"/>
	<g>
		<g>
			<path fill="none" stroke="#323232" stroke-width="1.5" stroke-linecap="round" stroke-linejoin="round" d="M8,10V7l0,0
				c0-2.209,1.791-4,4-4l0,0c2.209,0,4,1.791,4,4l0,0v3"/>
		</g>
		<path fill="none" stroke="#323232" stroke-width="1.5" stroke-linecap="round" stroke-linejoin="round" d="M17,21H7
			c-1.105,0-2-0.895-2-2v-7c0-1.105,0.895-2,2-2h10c1.105,0,2,0.895,2,2v7C19,20.105,18.105,21,17,21z"/>
		<path fill="none" stroke="#323232" stroke-width="1.5" stroke-linecap="round" stroke-linejoin="round" d="M9,15.541
			c-0.003,0-0.005,0.002-0.005,0.005c0,0.003,0.002,0.005,0.005,0.005c0.003,0,0.005-0.002,0.005-0.005S9.003,15.541,9,15.541"/>
		<path fill="none" stroke="#323232" stroke-width="1.5" stroke-linecap="round" stroke-linejoin="round" d="M12.005,15.541
			c-0.003,0-0.005,0.002-0.005,0.005c0,0.003,0.003,0.005,0.005,0.005c0.003,0,0.005-0.002,0.005-0.005S12.008,15.541,12.005,15.541
			"/>
		<path fill="none" stroke="#323232" stroke-width="1.5" stroke-linecap="round" stroke-linejoin="round" d="M15,15.541
			c-0.003,0-0.005,0.002-0.005,0.005c0,0.003,0.002,0.005,0.005,0.005s0.005-0.002,0.005-0.005S15.003,15.541,15,15.541"/>
	</g>
</g>
</svg>
