<?xml version="1.0" encoding="utf-8"?>
<!-- Generator: Adobe Illustrator 24.0.2, SVG Export Plug-In . SVG Version: 6.00 Build 0)  -->
<svg version="1.1" id="Layer_3" xmlns="http://www.w3.org/2000/svg" xmlns:xlink="http://www.w3.org/1999/xlink" x="0px" y="0px"
	 width="24px" height="24px" viewBox="0 0 24 24" enable-background="new 0 0 24 24" xml:space="preserve">
<g>
	<path fill="none" d="M0,0h24v24H0V0z"/>
	<g>
		<path fill="none" stroke="#323232" stroke-width="1.5" stroke-linecap="round" stroke-linejoin="round" d="M14,21H5
			c-1.105,0-2-0.895-2-2v-9c0-1.105,0.895-2,2-2h9c1.105,0,2,0.895,2,2v9C16,20.105,15.105,21,14,21z"/>
		<path fill="none" stroke="#323232" stroke-width="1.5" stroke-linecap="round" stroke-linejoin="round" d="M21,5V4
			c0-0.552-0.448-1-1-1h-1"/>
		<path fill="none" stroke="#323232" stroke-width="1.5" stroke-linecap="round" stroke-linejoin="round" d="M21,15v1
			c0,0.552-0.448,1-1,1h-1"/>
		<path fill="none" stroke="#323232" stroke-width="1.5" stroke-linecap="round" stroke-linejoin="round" d="M7,5V4
			c0-0.552,0.448-1,1-1h1"/>
		<path fill="none" stroke="#323232" stroke-width="1.5" stroke-linecap="round" stroke-linejoin="round" d="M13,3h2"/>
		<path fill="none" stroke="#323232" stroke-width="1.5" stroke-linecap="round" stroke-linejoin="round" d="M21,11V9l0,0l0,0V11z"
			/>
		<path fill="none" stroke="#323232" stroke-width="1.5" stroke-linecap="round" stroke-linejoin="round" d="M11.223,14v-1.277
			C11.223,11.819,10.452,11,9.5,11s-1.723,0.771-1.723,1.723V14"/>
		<path fill="none" stroke="#323232" stroke-width="1.5" stroke-linecap="round" stroke-linejoin="round" d="M11.526,18H7.474
			C6.936,18,6.5,17.564,6.5,17.026v-2.052C6.5,14.436,6.936,14,7.474,14h4.052c0.538,0,0.974,0.436,0.974,0.974v2.052
			C12.5,17.564,12.064,18,11.526,18z"/>
	</g>
</g>
</svg>
