<?xml version="1.0" encoding="utf-8"?>
<!-- Generator: Adobe Illustrator 24.0.2, SVG Export Plug-In . SVG Version: 6.00 Build 0)  -->
<svg version="1.1" id="Layer_3" xmlns="http://www.w3.org/2000/svg" xmlns:xlink="http://www.w3.org/1999/xlink" x="0px" y="0px"
	 width="24px" height="24px" viewBox="0 0 24 24" enable-background="new 0 0 24 24" xml:space="preserve">
<g>
	<path fill="none" d="M0,0h24v24H0V0z"/>
	<g>
		<path fill="none" stroke="#323232" stroke-width="1.5" stroke-linecap="round" stroke-linejoin="round" d="M13.723,11.5v-1.277
			C13.723,9.319,12.952,8.5,12,8.5s-1.723,0.771-1.723,1.723V11.5"/>
		<path fill="none" stroke="#323232" stroke-width="1.5" stroke-linecap="round" stroke-linejoin="round" d="M14.026,15.5H9.974
			C9.436,15.5,9,15.064,9,14.526v-2.052C9,11.936,9.436,11.5,9.974,11.5h4.052c0.538,0,0.974,0.436,0.974,0.974v2.052
			C15,15.064,14.564,15.5,14.026,15.5z"/>
		<path fill="none" stroke="#323232" stroke-width="1.5" stroke-linecap="round" stroke-linejoin="round" d="M3,13.882v-3.763
			c0-1.602,0.852-3.083,2.236-3.889l4.5-2.619c1.399-0.814,3.128-0.814,4.527,0l4.5,2.619C20.148,7.035,21,8.516,21,10.118v3.763
			c0,1.602-0.852,3.083-2.236,3.889l-4.5,2.619c-1.399,0.814-3.128,0.814-4.527,0l-4.5-2.619C3.852,16.965,3,15.484,3,13.882z"/>
	</g>
</g>
</svg>
