<?xml version="1.0" encoding="utf-8"?>
<!-- Generator: Adobe Illustrator 24.0.2, SVG Export Plug-In . SVG Version: 6.00 Build 0)  -->
<svg version="1.1" id="Layer_3" xmlns="http://www.w3.org/2000/svg" xmlns:xlink="http://www.w3.org/1999/xlink" x="0px" y="0px"
	 width="24px" height="24px" viewBox="0 0 24 24" enable-background="new 0 0 24 24" xml:space="preserve">
<g>
	<path fill="none" d="M0,0h24v24H0V0z"/>
	<g>
		<path fill="none" stroke="#323232" stroke-width="1.5" stroke-linecap="round" stroke-linejoin="round" d="M15.126,4H7
			C4.791,4,3,5.791,3,8v9c0,2.209,1.791,4,4,4h9c2.209,0,4-1.791,4-4V8.874"/>
		<g>
			<path fill="none" stroke="#323232" stroke-width="1.5" stroke-linecap="round" stroke-linejoin="round" d="M13.19,12v-1.277
				C13.19,9.819,12.419,9,11.467,9s-1.723,0.771-1.723,1.723V12"/>
			<path fill="none" stroke="#323232" stroke-width="1.5" stroke-linecap="round" stroke-linejoin="round" d="M13.493,16H9.441
				c-0.538,0-0.974-0.436-0.974-0.974v-2.052C8.467,12.436,8.903,12,9.441,12h4.052c0.538,0,0.974,0.436,0.974,0.974v2.052
				C14.467,15.564,14.031,16,13.493,16z"/>
		</g>
		
			<line fill="none" stroke="#323232" stroke-width="1.5" stroke-linecap="round" stroke-linejoin="round" x1="18" y1="6" x2="20" y2="4"/>
		
			<line fill="none" stroke="#323232" stroke-width="1.5" stroke-linecap="round" stroke-linejoin="round" x1="18" y1="4" x2="20" y2="6"/>
		<path fill="none" stroke="#323232" stroke-width="1.5" stroke-linecap="round" stroke-linejoin="round" d="M19,9
			c-2.209,0-4-1.791-4-4s1.791-4,4-4s4,1.791,4,4S21.209,9,19,9"/>
	</g>
</g>
</svg>
