<?xml version="1.0" encoding="utf-8"?>
<!-- Generator: Adobe Illustrator 24.0.2, SVG Export Plug-In . SVG Version: 6.00 Build 0)  -->
<svg version="1.1" id="Layer_3" xmlns="http://www.w3.org/2000/svg" xmlns:xlink="http://www.w3.org/1999/xlink" x="0px" y="0px"
	 width="24px" height="24px" viewBox="0 0 24 24" enable-background="new 0 0 24 24" xml:space="preserve">
<g>
	<g>
		<path fill="none" stroke="#323232" stroke-width="1.5" stroke-linecap="round" stroke-linejoin="round" d="M13.723,13v-1.277
			C13.723,10.819,12.952,10,12,10s-1.723,0.771-1.723,1.723V13"/>
		<path fill="none" stroke="#323232" stroke-width="1.5" stroke-linecap="round" stroke-linejoin="round" d="M14.026,17H9.974
			C9.436,17,9,16.564,9,16.026v-2.052C9,13.436,9.436,13,9.974,13h4.052C14.564,13,15,13.436,15,13.974v2.052
			C15,16.564,14.564,17,14.026,17z"/>
		<g>
			<g>
				<g>
					<path fill="none" stroke="#323232" stroke-width="1.5" stroke-linecap="round" stroke-linejoin="round" d="M15.106,5.426
						l5.43,9.652c1.337,2.376-0.38,5.314-3.107,5.314H6.571c-2.728,0-4.444-2.936-3.107-5.314l5.43-9.652
						C10.254,3.002,13.743,3.002,15.106,5.426z"/>
				</g>
			</g>
		</g>
	</g>
	<path fill="none" d="M24,24H0V0h24V24z"/>
</g>
</svg>
