<svg id="Layer_3" data-name="Layer 3" xmlns="http://www.w3.org/2000/svg" viewBox="0 0 24 24"><path d="M17,21H7a1.99945,1.99945,0,0,1-2-2V12a1.99945,1.99945,0,0,1,2-2H17a1.99945,1.99945,0,0,1,2,2v7A1.99945,1.99945,0,0,1,17,21Z" fill="none" stroke="#323232" stroke-linecap="round" stroke-linejoin="round" stroke-width="1.5"/><path d="M12.03663,15.46332a.05184.05184,0,1,1-.07331,0l0,0a.05184.05184,0,0,1,.07326,0" fill="none" stroke="#323232" stroke-linecap="round" stroke-linejoin="round" stroke-width="1.5"/><path d="M15.437,17V14" fill="none" stroke="#323232" stroke-linecap="round" stroke-linejoin="round" stroke-width="1.5"/><path d="M8,10V7H8a4.00018,4.00018,0,0,1,4-4h0a4.00018,4.00018,0,0,1,4,4h0v3" fill="none" stroke="#323232" stroke-linecap="round" stroke-linejoin="round" stroke-width="1.5"/><path d="M8.59963,15.46332a.05184.05184,0,1,1-.07331,0l0,0a.05184.05184,0,0,1,.07326,0" fill="none" stroke="#323232" stroke-linecap="round" stroke-linejoin="round" stroke-width="1.5"/><path d="M0,0H24V24H0Z" fill="none"/></svg>