<?xml version="1.0" encoding="utf-8"?>
<!-- Generator: Adobe Illustrator 24.0.2, SVG Export Plug-In . SVG Version: 6.00 Build 0)  -->
<svg version="1.1" id="Layer_1" xmlns="http://www.w3.org/2000/svg" xmlns:xlink="http://www.w3.org/1999/xlink" x="0px" y="0px"
	 width="24px" height="24px" viewBox="0 0 24 24" enable-background="new 0 0 24 24" xml:space="preserve">
<g>
	<g>
		
			<path fill="none" stroke="#323232" stroke-width="1.5" stroke-linecap="round" stroke-linejoin="round" stroke-miterlimit="10" d="
			M17,21H7c-1.105,0-2-0.895-2-2v-8c0-1.105,0.895-2,2-2h10c1.105,0,2,0.895,2,2v8C19,20.105,18.105,21,17,21z"/>
		<path fill="none" stroke="#323232" stroke-width="1.5" stroke-linecap="round" stroke-linejoin="round" d="M16,9V7
			c0-2.209-1.791-4-4-4c-1.87,0-3.428,1.289-3.866,3.023"/>
		<path fill="none" stroke="#323232" stroke-width="1.5" stroke-linecap="round" stroke-linejoin="round" d="M11.997,14.5
			c-0.275,0-0.5,0.225-0.497,0.5c0,0.275,0.225,0.5,0.5,0.5s0.5-0.225,0.5-0.5C12.5,14.725,12.275,14.5,11.997,14.5"/>
	</g>
	<path fill="none" d="M0,0h24v24H0V0z"/>
</g>
</svg>
