<svg id="Layer_3" data-name="Layer 3" xmlns="http://www.w3.org/2000/svg" viewBox="0 0 24 24"><title>lock-corss-delete</title><path d="M13,21H7a2,2,0,0,1-2-2V12a2,2,0,0,1,2-2H17a2,2,0,0,1,2,2v1" fill="none" stroke="#323232" stroke-linecap="round" stroke-linejoin="round" stroke-width="1.5"/><path d="M8,10V7H8a4,4,0,0,1,4-4h0a4,4,0,0,1,4,4h0v3" fill="none" stroke="#323232" stroke-linecap="round" stroke-linejoin="round" stroke-width="1.5"/><line x1="17.00111" y1="17" x2="20" y2="19.99889" fill="none" stroke="#323232" stroke-linecap="round" stroke-linejoin="round" stroke-width="1.5"/><line x1="17.00111" y1="19.99889" x2="20" y2="17" fill="none" stroke="#323232" stroke-linecap="round" stroke-linejoin="round" stroke-width="1.5"/><path d="M0,0H24V24H0Z" fill="none"/></svg>