<?xml version="1.0" encoding="UTF-8"?><svg version="1.1" viewBox="0 0 24 24" xmlns="http://www.w3.org/2000/svg" xmlns:xlink="http://www.w3.org/1999/xlink"><!--Generated by IJSVG (https://github.com/iconjar/IJSVG)--><g stroke-linecap="round" stroke-width="1.5" stroke="#323232" fill="none" stroke-linejoin="round"><path d="M14.078,9.248c1.148,1.148 1.148,3.008 0,4.156c-1.148,1.148 -3.008,1.148 -4.156,0c-1.148,-1.148 -1.148,-3.008 0,-4.156c1.148,-1.147 3.008,-1.147 4.156,-1.77636e-15"></path><path d="M20,11.181c0,4.541 -3.413,8.788 -8,9.819c-4.587,-1.031 -8,-5.278 -8,-9.819v-3.937c0,-0.813 0.492,-1.544 1.243,-1.851l5,-2.047c1.126,-0.462 2.389,-0.462 3.513,0l5,2.047c0.753,0.309 1.243,1.038 1.243,1.851v3.937h0.001Z"></path></g><path fill="none" d="M0,0h24v24h-24v-24Z"></path></svg>