<?xml version="1.0" encoding="UTF-8"?><svg version="1.1" viewBox="0 0 24 24" xmlns="http://www.w3.org/2000/svg" xmlns:xlink="http://www.w3.org/1999/xlink"><!--Generated by IJSVG (https://github.com/iconjar/IJSVG)--><g fill="none"><path d="M0,0h24v24h-24v-24Z"></path><path stroke="#323232" stroke-linecap="round" stroke-linejoin="round" stroke-width="1.5" d="M10,10.697h4c0.55,0 1,0.45 1,1v3.053c0,0.552 -0.448,1 -1,1h-4c-0.552,0 -1,-0.448 -1,-1v-3.053c0,-0.552 0.448,-1 1,-1Z"></path><path stroke="#323232" stroke-linecap="round" stroke-linejoin="round" stroke-width="1.5" d="M10.316,10.697v-1.263c0,-0.93 0.754,-1.684 1.684,-1.684c0.93,0 1.684,0.754 1.684,1.684v1.261"></path><path stroke="#323232" stroke-linecap="round" stroke-linejoin="round" stroke-width="1.5" d="M3.111,14.469v-4.938c0,-1.582 0.841,-3.045 2.209,-3.841l4.444,-2.587c1.382,-0.804 3.089,-0.804 4.471,0l4.445,2.587c1.368,0.796 2.209,2.259 2.209,3.841v4.938c0,1.582 -0.841,3.045 -2.209,3.841l-4.444,2.587c-1.382,0.804 -3.089,0.804 -4.471,0l-4.445,-2.587c-1.368,-0.796 -2.209,-2.259 -2.209,-3.841Z"></path></g></svg>