<?xml version="1.0" encoding="UTF-8"?><svg version="1.1" viewBox="0 0 24 24" xmlns="http://www.w3.org/2000/svg" xmlns:xlink="http://www.w3.org/1999/xlink"><!--Generated by IJSVG (https://github.com/iconjar/IJSVG)--><g fill="none"><path d="M0,0h24v24h-24v-24Z"></path><path stroke="#323232" stroke-linecap="round" stroke-linejoin="round" stroke-width="1.5" d="M7.415,20.415l-3.829,-3.829c-0.375,-0.375 -0.586,-0.884 -0.586,-1.414v-6.344c0,-0.53 0.211,-1.039 0.585,-1.413l3.829,-3.829c0.375,-0.375 0.884,-0.586 1.414,-0.586h6.342c0.531,0 1.04,0.211 1.415,0.586l3.828,3.828c0.376,0.376 0.587,0.886 0.587,1.417v6.34c0,0.53 -0.211,1.038 -0.585,1.413l-3.829,3.83c-0.375,0.375 -0.884,0.586 -1.415,0.586h-6.343c-0.53,0 -1.039,-0.211 -1.413,-0.585Z"></path><path stroke="#323232" stroke-linecap="round" stroke-linejoin="round" stroke-width="1.5" d="M10,10.697h4c0.55,0 1,0.45 1,1v3.053c0,0.552 -0.448,1 -1,1h-4c-0.552,0 -1,-0.448 -1,-1v-3.053c0,-0.552 0.448,-1 1,-1Z"></path><path stroke="#323232" stroke-linecap="round" stroke-linejoin="round" stroke-width="1.5" d="M10.316,10.697v-1.263c0,-0.93 0.754,-1.684 1.684,-1.684c0.93,0 1.684,0.754 1.684,1.684v1.261"></path></g></svg>