<?xml version="1.0" encoding="utf-8"?>
<!-- Generator: Adobe Illustrator 24.0.2, SVG Export Plug-In . SVG Version: 6.00 Build 0)  -->
<svg version="1.1" id="Layer_3" xmlns="http://www.w3.org/2000/svg" xmlns:xlink="http://www.w3.org/1999/xlink" x="0px" y="0px"
	 width="24px" height="24px" viewBox="0 0 24 24" enable-background="new 0 0 24 24" xml:space="preserve">
<g>
	<g>
		
			<path fill="none" stroke="#323232" stroke-width="1.4655" stroke-linecap="round" stroke-linejoin="round" stroke-miterlimit="10" d="
			M17,21H7c-1.105,0-2-0.895-2-2v-8c0-1.105,0.895-2,2-2h10c1.105,0,2,0.895,2,2v8C19,20.105,18.105,21,17,21z"/>
		
			<path fill="none" stroke="#323232" stroke-width="1.4031" stroke-linecap="round" stroke-linejoin="round" stroke-miterlimit="10" d="
			M16,9V7c0-2.209-1.791-4-4-4l0,0C9.791,3,8,4.791,8,7v2"/>
		<path fill="none" stroke="#323232" stroke-width="1.5" stroke-linecap="round" stroke-linejoin="round" d="M11.998,14.5
			c-0.276,0-0.5,0.224-0.498,0.5c0,0.276,0.224,0.5,0.5,0.5s0.5-0.224,0.5-0.5S12.276,14.5,11.998,14.5"/>
	</g>
	<path fill="none" d="M0,0h24v24H0V0z"/>
</g>
</svg>
