<?xml version="1.0" encoding="utf-8"?>
<!-- Generator: Adobe Illustrator 23.1.0, SVG Export Plug-In . SVG Version: 6.00 Build 0)  -->
<svg version="1.1" id="icons" xmlns="http://www.w3.org/2000/svg" xmlns:xlink="http://www.w3.org/1999/xlink" x="0px" y="0px"
	 width="24px" height="24px" viewBox="0 0 24 24" enable-background="new 0 0 24 24" xml:space="preserve">
<g>
	<g>
		<path fill="none" stroke="#323232" stroke-width="1.5" stroke-linecap="round" stroke-linejoin="round" d="M10.316,11V9.684
			C10.316,8.754,11.07,8,12,8s1.684,0.754,1.684,1.684V11"/>
		<path fill="none" stroke="#323232" stroke-width="1.5" stroke-linecap="round" stroke-linejoin="round" d="M14,16h-4
			c-0.552,0-1-0.448-1-1v-3c0-0.552,0.448-1,1-1h4c0.552,0,1,0.448,1,1v3C15,15.552,14.552,16,14,16z"/>
		<path fill="none" stroke="#323232" stroke-width="1.5" stroke-linecap="round" stroke-linejoin="round" d="M7.5,3H5.25
			C4.007,3,3,4.007,3,5.25V7.5"/>
		<path fill="none" stroke="#323232" stroke-width="1.5" stroke-linecap="round" stroke-linejoin="round" d="M3,16.5v2.25
			C3,19.993,4.007,21,5.25,21H7.5"/>
		<path fill="none" stroke="#323232" stroke-width="1.5" stroke-linecap="round" stroke-linejoin="round" d="M16.5,21h2.25
			c1.243,0,2.25-1.007,2.25-2.25V16.5"/>
		<path fill="none" stroke="#323232" stroke-width="1.5" stroke-linecap="round" stroke-linejoin="round" d="M21,7.5V5.25
			C21,4.007,19.993,3,18.75,3H16.5"/>
	</g>
	<polyline fill="none" points="24,0 24,24 0,24 	"/>
</g>
</svg>
