<svg id="Layer_3" data-name="Layer 3" xmlns="http://www.w3.org/2000/svg" viewBox="0 0 24 24"><title>lock-shield-prote</title><path d="M13,21H7a2,2,0,0,1-2-2V12a2,2,0,0,1,2-2H17a2,2,0,0,1,2,2v1" fill="none" stroke="#323232" stroke-linecap="round" stroke-linejoin="round" stroke-width="1.5"/><path d="M15,17.91812V16.58594a.625.625,0,0,1,.43858-.59655l1.875-.58594a.625.625,0,0,1,.37284,0l1.875.58594A.625.625,0,0,1,20,16.58594v1.33218a3.125,3.125,0,0,1-2.02774,2.926l-.36253.136a.31252.31252,0,0,1-.21946,0l-.36253-.136A3.125,3.125,0,0,1,15,17.91812Z" fill="none" stroke="#323232" stroke-linecap="round" stroke-linejoin="round" stroke-width="1.5"/><path d="M8,10V7H8a4,4,0,0,1,4-4h0a4,4,0,0,1,4,4h0v3" fill="none" stroke="#323232" stroke-linecap="round" stroke-linejoin="round" stroke-width="1.5"/><path d="M0,0H24V24H0Z" fill="none"/></svg>