<?xml version="1.0" encoding="utf-8"?>
<!-- Generator: Adobe Illustrator 23.1.0, SVG Export Plug-In . SVG Version: 6.00 Build 0)  -->
<svg version="1.1" id="icons" xmlns="http://www.w3.org/2000/svg" xmlns:xlink="http://www.w3.org/1999/xlink" x="0px" y="0px"
	 width="24px" height="24px" viewBox="0 0 24 24" enable-background="new 0 0 24 24" xml:space="preserve">
<g>
	<g>
		<path fill="none" d="M0,0h24v24H0V0z"/>
	</g>
	<g>
		<path fill="none" stroke="#323232" stroke-width="1.5" stroke-linecap="round" stroke-linejoin="round" d="M7.849,7.735
			c0.146,0.146,0.146,0.384,0,0.53c-0.146,0.146-0.384,0.146-0.53,0s-0.146-0.384,0-0.53C7.465,7.588,7.702,7.588,7.849,7.735"/>
		<path fill="none" stroke="#323232" stroke-width="1.5" stroke-linecap="round" stroke-linejoin="round" d="M12.265,7.735
			c0.146,0.146,0.146,0.384,0,0.53c-0.146,0.146-0.384,0.146-0.53,0s-0.146-0.384,0-0.53C11.881,7.588,12.119,7.588,12.265,7.735"/>
		<path fill="none" stroke="#323232" stroke-width="1.5" stroke-linecap="round" stroke-linejoin="round" d="M16.682,7.735
			c0.146,0.146,0.146,0.384,0,0.53c-0.146,0.146-0.384,0.146-0.53,0c-0.146-0.146-0.146-0.384,0-0.53
			C16.298,7.588,16.535,7.588,16.682,7.735"/>
		<path fill="none" stroke="#323232" stroke-width="1.5" stroke-linecap="round" stroke-linejoin="round" d="M11,13H5
			c-1.105,0-2-0.895-2-2V5c0-1.105,0.895-2,2-2h14c1.105,0,2,0.895,2,2v3"/>
		<g>
			<path fill="none" stroke="#323232" stroke-width="1.5" stroke-linecap="round" stroke-linejoin="round" d="M19.393,15.696v-1.734
				c0-1.084-0.879-1.963-1.963-1.963h0c-1.084,0-1.963,0.879-1.963,1.963v1.734"/>
		</g>
		<path fill="none" stroke="#323232" stroke-width="1.5" stroke-linecap="round" stroke-linejoin="round" d="M20,15.698h-5
			c-0.552,0-1,0.448-1,1V20c0,0.552,0.448,1,1,1h5c0.552,0,1-0.448,1-1v-3.302C21,16.145,20.552,15.698,20,15.698z"/>
	</g>
</g>
</svg>
