<svg id="Layer_3" data-name="Layer 3" xmlns="http://www.w3.org/2000/svg" viewBox="0 0 24 24"><title>lock-protection-checkmark</title><path d="M17,21H7a2,2,0,0,1-2-2V12a2,2,0,0,1,2-2H17a2,2,0,0,1,2,2v7A2,2,0,0,1,17,21Z" fill="none" stroke="#323232" stroke-linecap="round" stroke-linejoin="round" stroke-width="1.5"/><path d="M14,14.411l-2.31,2.309L10.3,15.335" fill="none" stroke="#323232" stroke-linecap="round" stroke-linejoin="round" stroke-width="1.5"/><path d="M8,10V7H8a4,4,0,0,1,4-4h0a4,4,0,0,1,4,4h0v3" fill="none" stroke="#323232" stroke-linecap="round" stroke-linejoin="round" stroke-width="1.5"/><path d="M0,0H24V24H0Z" fill="none"/></svg>