<?xml version="1.0" encoding="utf-8"?>
<!-- Generator: Adobe Illustrator 24.0.2, SVG Export Plug-In . SVG Version: 6.00 Build 0)  -->
<svg version="1.1" id="Layer_3" xmlns="http://www.w3.org/2000/svg" xmlns:xlink="http://www.w3.org/1999/xlink" x="0px" y="0px"
	 width="24px" height="24px" viewBox="0 0 24 24" enable-background="new 0 0 24 24" xml:space="preserve">
<g>
	<g>
		<path fill="none" d="M0,24V0h24v24"/>
	</g>
	<g>
		<path fill="none" stroke="#323232" stroke-width="1.5" stroke-linecap="round" stroke-linejoin="round" d="M13.969,6.429V4.969
			C13.969,3.936,13.088,3,12,3s-1.969,0.881-1.969,1.969v1.459"/>
		<path fill="none" stroke="#323232" stroke-width="1.5" stroke-linecap="round" stroke-linejoin="round" d="M14.315,11H9.685
			c-0.615,0-1.113-0.498-1.113-1.113V7.542c0-0.615,0.498-1.113,1.113-1.113h4.631c0.615,0,1.113,0.498,1.113,1.113v2.345
			C15.429,10.502,14.93,11,14.315,11z"/>
		<path fill="none" stroke="#323232" stroke-width="1.5" stroke-linecap="round" stroke-linejoin="round" d="M18.5,21h-13
			C3.567,21,2,19.433,2,17.5v0C2,15.567,3.567,14,5.5,14h13c1.933,0,3.5,1.567,3.5,3.5v0C22,19.433,20.433,21,18.5,21z"/>
		<path fill="none" stroke="#323232" stroke-width="1.625" stroke-linecap="round" stroke-linejoin="round" d="M18.244,17.499
			c0-0.135-0.109-0.244-0.244-0.243c-0.135,0-0.244,0.109-0.244,0.244s0.109,0.244,0.244,0.244S18.244,17.635,18.244,17.499"/>
		<path fill="none" stroke="#323232" stroke-width="1.625" stroke-linecap="round" stroke-linejoin="round" d="M14.244,17.499
			c0-0.135-0.109-0.244-0.244-0.243c-0.135,0-0.244,0.109-0.244,0.244s0.109,0.244,0.244,0.244
			C14.134,17.744,14.244,17.635,14.244,17.499"/>
		<path fill="none" stroke="#323232" stroke-width="1.625" stroke-linecap="round" stroke-linejoin="round" d="M10.244,17.499
			c0-0.135-0.109-0.244-0.244-0.243c-0.135,0-0.244,0.109-0.244,0.244S9.865,17.744,10,17.744
			C10.134,17.744,10.244,17.635,10.244,17.499"/>
		<path fill="none" stroke="#323232" stroke-width="1.625" stroke-linecap="round" stroke-linejoin="round" d="M6.244,17.499
			c0-0.135-0.109-0.244-0.244-0.243c-0.135,0-0.244,0.109-0.244,0.244S5.865,17.744,6,17.744
			C6.134,17.744,6.244,17.635,6.244,17.499"/>
	</g>
</g>
</svg>
