<?xml version="1.0" encoding="utf-8"?>
<!-- Generator: Adobe Illustrator 24.0.2, SVG Export Plug-In . SVG Version: 6.00 Build 0)  -->
<svg version="1.1" id="Layer_3" xmlns="http://www.w3.org/2000/svg" xmlns:xlink="http://www.w3.org/1999/xlink" x="0px" y="0px"
	 width="24px" height="24px" viewBox="0 0 24 24" enable-background="new 0 0 24 24" xml:space="preserve">
<g>
	<path fill="none" d="M0,0h24v24H0V0z"/>
	<g>
		<path fill="none" stroke="#323232" stroke-width="1.5" stroke-linecap="round" stroke-linejoin="round" d="M13.723,11.5v-1.277
			C13.723,9.319,12.952,8.5,12,8.5s-1.723,0.771-1.723,1.723V11.5"/>
		<path fill="none" stroke="#323232" stroke-width="1.5" stroke-linecap="round" stroke-linejoin="round" d="M14.026,15.5H9.974
			C9.436,15.5,9,15.064,9,14.526v-2.052C9,11.936,9.436,11.5,9.974,11.5h4.052c0.538,0,0.974,0.436,0.974,0.974v2.052
			C15,15.064,14.564,15.5,14.026,15.5z"/>
		<path fill="none" stroke="#323232" stroke-width="1.5" stroke-linecap="round" stroke-linejoin="round" d="M7.415,20.415
			l-3.829-3.829C3.211,16.211,3,15.702,3,15.171V8.829c0-0.531,0.211-1.04,0.586-1.415l3.828-3.828C7.789,3.211,8.298,3,8.829,3
			h6.342c0.53,0,1.039,0.211,1.413,0.585l3.831,3.831C20.79,7.791,21,8.298,21,8.828v6.343c0,0.53-0.211,1.038-0.585,1.413
			l-3.829,3.83C16.211,20.789,15.702,21,15.171,21H8.828C8.298,21,7.789,20.789,7.415,20.415z"/>
	</g>
</g>
</svg>
