<?xml version="1.0" encoding="utf-8"?>
<!-- Generator: Adobe Illustrator 23.1.0, SVG Export Plug-In . SVG Version: 6.00 Build 0)  -->
<svg version="1.1" id="icons" xmlns="http://www.w3.org/2000/svg" xmlns:xlink="http://www.w3.org/1999/xlink" x="0px" y="0px"
	 width="24px" height="24px" viewBox="0 0 24 24" enable-background="new 0 0 24 24" xml:space="preserve">
<g>
	<path fill="none" d="M0,0h24v24H0V0z"/>
	<g>
		<path fill="none" stroke="#323232" stroke-width="1.5" stroke-linecap="round" stroke-linejoin="round" d="M13.083,10V7.5
			c0-2.393,1.94-4.333,4.333-4.333h0c2.393,0,4.333,1.94,4.333,4.333v2.167"/>
		<path fill="none" stroke="#323232" stroke-width="1.5" stroke-linecap="round" stroke-linejoin="round" d="M14.292,21h-10
			c-1.105,0-2-0.895-2-2v-7c0-1.105,0.895-2,2-2h10c1.105,0,2,0.895,2,2v7C16.292,20.105,15.397,21,14.292,21z"/>
		
			<line fill="none" stroke="#323232" stroke-width="1.5" stroke-linecap="round" stroke-linejoin="round" x1="9.292" y1="14" x2="9.292" y2="17"/>
	</g>
</g>
</svg>
