<?xml version="1.0" encoding="utf-8"?>
<!-- Generator: Adobe Illustrator 24.0.2, SVG Export Plug-In . SVG Version: 6.00 Build 0)  -->
<svg version="1.1" id="Layer_3" xmlns="http://www.w3.org/2000/svg" xmlns:xlink="http://www.w3.org/1999/xlink" x="0px" y="0px"
	 width="24px" height="24px" viewBox="0 0 24 24" enable-background="new 0 0 24 24" xml:space="preserve">
<g>
	<g>
		<g>
			<rect id="_Transparent_Rectangle__37_" fill="none" width="24" height="24"/>
		</g>
	</g>
	<g>
		<path fill="none" stroke="#323232" stroke-width="1.5" stroke-linecap="round" stroke-linejoin="round" d="M19.723,17v-1.277
			C19.723,14.819,18.952,14,18,14s-1.723,0.771-1.723,1.723V17"/>
		<path fill="none" stroke="#323232" stroke-width="1.5" stroke-linecap="round" stroke-linejoin="round" d="M13.236,9.755
			c1.104,1.104,0.951,2.991-0.461,3.878c-0.779,0.49-1.81,0.49-2.589,0C8.774,12.746,8.62,10.86,9.725,9.755
			C10.694,8.786,12.266,8.786,13.236,9.755"/>
		<path fill="none" stroke="#323232" stroke-width="1.5" stroke-linecap="round" stroke-linejoin="round" d="M20.026,21h-4.052
			C15.436,21,15,20.564,15,20.026v-2.052C15,17.436,15.436,17,15.974,17h4.052C20.564,17,21,17.436,21,17.974v2.052
			C21,20.564,20.564,21,20.026,21z"/>
		<g>
			
				<path fill-rule="evenodd" clip-rule="evenodd" fill="none" stroke="#323232" stroke-width="1.5" stroke-linecap="round" stroke-linejoin="round" stroke-miterlimit="10" d="
				M11.5,20C6.806,20,3,16.194,3,11.5S6.806,3,11.5,3S20,6.806,20,11.5"/>
		</g>
	</g>
</g>
</svg>
