<?xml version="1.0" encoding="utf-8"?>
<!-- Generator: Adobe Illustrator 24.0.2, SVG Export Plug-In . SVG Version: 6.00 Build 0)  -->
<svg version="1.1" id="Layer_3" xmlns="http://www.w3.org/2000/svg" xmlns:xlink="http://www.w3.org/1999/xlink" x="0px" y="0px"
	 width="24px" height="24px" viewBox="0 0 24 24" enable-background="new 0 0 24 24" xml:space="preserve">
<g>
	<path fill="none" d="M0,0h24v24H0V0z"/>
	<g>
		<path fill="none" stroke="#323232" stroke-width="1.5" stroke-linecap="round" stroke-linejoin="round" d="M8.07,8.07
			c2.171-2.171,5.69-2.171,7.86,0"/>
		<path fill="none" stroke="#323232" stroke-width="1.5" stroke-linecap="round" stroke-linejoin="round" d="M3.795,8.795
			c-1.232,3.159-0.577,6.884,1.974,9.435c3.441,3.441,9.02,3.441,12.461,0c2.551-2.551,3.206-6.276,1.974-9.435"/>
		<path fill="none" stroke="#323232" stroke-width="1.5" stroke-linecap="round" stroke-linejoin="round" d="M5.77,5.77
			c3.441-3.441,9.02-3.441,12.461,0"/>
		<path fill="none" stroke="#323232" stroke-width="1.5" stroke-linecap="round" stroke-linejoin="round" d="M13.723,13v-1.277
			C13.723,10.819,12.952,10,12,10s-1.723,0.771-1.723,1.723V13"/>
		<path fill="none" stroke="#323232" stroke-width="1.5" stroke-linecap="round" stroke-linejoin="round" d="M14.026,17H9.974
			C9.436,17,9,16.564,9,16.026v-2.052C9,13.436,9.436,13,9.974,13h4.052C14.564,13,15,13.436,15,13.974v2.052
			C15,16.564,14.564,17,14.026,17z"/>
	</g>
</g>
</svg>
