<svg id="Layer_3" data-name="Layer 3" xmlns="http://www.w3.org/2000/svg" viewBox="0 0 24 24"><path d="M12,18.99758a1.99974,1.99974,0,0,1-3.06,1.695l-4-2.5a1.99833,1.99833,0,0,1-.94-1.696V5.003A2.00015,2.00015,0,0,1,7.06,3.307l4,2.5A1.99833,1.99833,0,0,1,12,7.503Z" fill="none" stroke="#323232" stroke-linecap="round" stroke-linejoin="round" stroke-width="1.5"/><line x1="20" y1="9.543" x2="17.086" y2="12.457" fill="none" stroke="#323232" stroke-linecap="round" stroke-linejoin="round" stroke-width="1.5"/><line x1="20" y1="12.457" x2="17.086" y2="9.543" fill="none" stroke="#323232" stroke-linecap="round" stroke-linejoin="round" stroke-width="1.5"/><path d="M19,6V5a1.99945,1.99945,0,0,0-2-2H6" fill="none" stroke="#323232" stroke-linecap="round" stroke-linejoin="round" stroke-width="1.5"/><path d="M12,19h5a1.99945,1.99945,0,0,0,2-2V16" fill="none" stroke="#323232" stroke-linecap="round" stroke-linejoin="round" stroke-width="1.5"/><path d="M0,0H24V24H0Z" fill="none"/></svg>