<svg id="Layer_3" data-name="Layer 3" xmlns="http://www.w3.org/2000/svg" viewBox="0 0 24 24"><title>long-light-dashboard</title><path d="M14.048,16.075h0A2.188,2.188,0,0,1,11.5,13.917V10.083a2.188,2.188,0,0,1,2.548-2.158h0A4.131,4.131,0,0,1,17.5,12h0A4.131,4.131,0,0,1,14.048,16.075Z" fill="none" stroke="#323232" stroke-linecap="round" stroke-linejoin="round" stroke-width="1.5"/><line x1="7" y1="9.5" x2="9" y2="9.5" fill="none" stroke="#323232" stroke-linecap="round" stroke-linejoin="round" stroke-width="1.5"/><line x1="7" y1="12" x2="9" y2="12" fill="none" stroke="#323232" stroke-linecap="round" stroke-linejoin="round" stroke-width="1.5"/><line x1="7" y1="14.5" x2="9" y2="14.5" fill="none" stroke="#323232" stroke-linecap="round" stroke-linejoin="round" stroke-width="1.5"/><path d="M12,21h0a9,9,0,0,1-9-9H3a9,9,0,0,1,9-9h0a9,9,0,0,1,9,9h0A9,9,0,0,1,12,21Z" fill="none" stroke="#323232" stroke-linecap="round" stroke-linejoin="round" stroke-width="1.5"/><path d="M0,0H24V24H0Z" fill="none"/></svg>