<?xml version="1.0" encoding="utf-8"?>
<!-- Generator: Adobe Illustrator 23.1.0, SVG Export Plug-In . SVG Version: 6.00 Build 0)  -->
<svg version="1.1" id="icons" xmlns="http://www.w3.org/2000/svg" xmlns:xlink="http://www.w3.org/1999/xlink" x="0px" y="0px"
	 width="24px" height="24px" viewBox="0 0 24 24" enable-background="new 0 0 24 24" xml:space="preserve">
<g>
	<g>
		<path fill="none" stroke="#323232" stroke-width="1.5" stroke-linecap="round" stroke-linejoin="round" d="M10,9.056
			C9.094,7.818,7.652,7,6,7h0c-2.761,0-5,2.239-5,5v0c0,2.761,2.239,5,5,5h0h0c1.861,0,3.586-0.977,4.543-2.572L12,12l1.457-2.428
			C14.414,7.977,16.139,7,18,7h0h0c2.761,0,5,2.239,5,5v0c0,2.761-2.239,5-5,5h0c-1.652,0-3.094-0.818-4-2.056"/>
		<polyline fill="none" stroke="#323232" stroke-width="1.5" stroke-linecap="round" stroke-linejoin="round" points="9.93,6.028 
			10.451,8.982 7.497,9.503 		"/>
	</g>
	<rect fill="none" width="24" height="24"/>
</g>
</svg>
