<svg id="Layer_3" data-name="Layer 3" xmlns="http://www.w3.org/2000/svg" viewBox="0 0 24 24"><title>lunar-north-node </title><path d="M0,0H24V24H0Z" fill="none"/><path d="M24,0H0V24H24Z" fill="none"/><path d="M12,4h0A5.8,5.8,0,0,0,6,9.586H6a6.379,6.379,0,0,0,1.029,3.459l1.2,1.861A4.783,4.783,0,0,1,9,17.5H9" fill="none" stroke="#323232" stroke-linecap="round" stroke-linejoin="round" stroke-width="1.5"/><path d="M9,17.5H9A2.5,2.5,0,0,0,6.5,15h0A2.5,2.5,0,0,0,4,17.5H4A2.5,2.5,0,0,0,6.5,20h0A2.5,2.5,0,0,0,9,17.5Z" fill="none" stroke="#323232" stroke-linecap="round" stroke-linejoin="round" stroke-width="1.5"/><path d="M12,4h0a5.8,5.8,0,0,1,6,5.586h0a6.379,6.379,0,0,1-1.029,3.459l-1.2,1.861A4.783,4.783,0,0,0,15,17.5h0" fill="none" stroke="#323232" stroke-linecap="round" stroke-linejoin="round" stroke-width="1.5"/><path d="M15,17.5h0A2.5,2.5,0,0,1,17.5,15h0A2.5,2.5,0,0,1,20,17.5h0A2.5,2.5,0,0,1,17.5,20h0A2.5,2.5,0,0,1,15,17.5Z" fill="none" stroke="#323232" stroke-linecap="round" stroke-linejoin="round" stroke-width="1.5"/></svg>