<?xml version="1.0" encoding="utf-8"?>
<!-- Generator: Adobe Illustrator 24.0.2, SVG Export Plug-In . SVG Version: 6.00 Build 0)  -->
<svg version="1.1" id="Layer_1" xmlns="http://www.w3.org/2000/svg" xmlns:xlink="http://www.w3.org/1999/xlink" x="0px" y="0px"
	 width="24px" height="24px" viewBox="0 0 24 24" enable-background="new 0 0 24 24" xml:space="preserve">
<g>
	<g>
		
			<line fill="none" stroke="#323232" stroke-width="1.5" stroke-linecap="round" stroke-linejoin="round" x1="13.6" y1="7.6" x2="13.6" y2="3"/>
		<path fill="none" stroke="#323232" stroke-width="1.5" stroke-linecap="round" stroke-linejoin="round" d="M10.4,3v4.6
			C10.4,8.925,9.325,10,8,10h0"/>
		<path fill="none" stroke="#323232" stroke-width="1.5" stroke-linecap="round" stroke-linejoin="round" d="M16,10
			c-1.325,0-2.4-1.075-2.4-2.4"/>
		<path fill="none" stroke="#323232" stroke-width="1.5" stroke-linecap="round" stroke-linejoin="round" d="M16,13
			c-1.594,0-3.012-0.703-4-1.802"/>
		<path fill="none" stroke="#323232" stroke-width="1.5" stroke-linecap="round" stroke-linejoin="round" d="M8,13
			c1.594,0,3.012-0.703,4-1.802"/>
		<path fill="none" stroke="#323232" stroke-width="1.5" stroke-linecap="round" stroke-linejoin="round" d="M13.5,15.996v1.368
			c0,1.136,0.642,2.174,1.658,2.682l1.053,0.526C18.871,21.902,22,19.969,22,16.996v-6.145c0-0.908-0.309-1.789-0.877-2.498
			l-1.781-2.225C18.454,5.017,17.115,4.783,16,5.181"/>
		<path fill="none" stroke="#323232" stroke-width="1.5" stroke-linecap="round" stroke-linejoin="round" d="M10.5,15.996v1.368
			c0,1.136-0.642,2.174-1.658,2.682l-1.053,0.526C5.129,21.902,2,19.969,2,16.996v-6.145c0-0.908,0.309-1.789,0.877-2.498
			l1.781-2.225C5.546,5.017,6.885,4.783,8,5.181"/>
	</g>
	<g>
		<path fill="none" d="M0,0h24v24H0V0z"/>
	</g>
</g>
</svg>
