<svg id="Layer_3" data-name="Layer 3" xmlns="http://www.w3.org/2000/svg" viewBox="0 0 24 24"><title>Artboard 83</title><path d="M0,0H24V24H0Z" fill="none"/><path d="M11,6a1.415,1.415,0,0,1,2,0,1.415,1.415,0,0,1,0-2,1.415,1.415,0,0,1-2,0A1.415,1.415,0,0,1,11,6Z" fill="none" stroke="#323232" stroke-linecap="round" stroke-linejoin="round" stroke-width="1.5"/><path d="M18,6a1.415,1.415,0,0,1,2,0,1.415,1.415,0,0,1,0-2,1.415,1.415,0,0,1-2,0A1.415,1.415,0,0,1,18,6Z" fill="none" stroke="#323232" stroke-linecap="round" stroke-linejoin="round" stroke-width="1.5"/><rect x="7.78" y="7.873" width="3" height="13.692" rx="1.5" transform="translate(13.127 -2.251) rotate(45)" stroke-width="1.5" stroke="#323232" stroke-linecap="round" stroke-linejoin="round" fill="none"/><path d="M18,13a1.415,1.415,0,0,1,2,0,1.415,1.415,0,0,1,0-2,1.415,1.415,0,0,1-2,0A1.415,1.415,0,0,1,18,13Z" fill="none" stroke="#323232" stroke-linecap="round" stroke-linejoin="round" stroke-width="1.5"/></svg>