<svg id="Layer_3" data-name="Layer 3" xmlns="http://www.w3.org/2000/svg" viewBox="0 0 24 24"><rect x="3" y="3" width="18" height="18" rx="4" stroke-width="1.5" stroke="#323232" stroke-linecap="round" stroke-linejoin="round" fill="none"/><path d="M9.5,14.49175,7,17" fill="none" stroke="#323232" stroke-linecap="round" stroke-linejoin="round" stroke-width="1.5"/><path d="M12.131,14.65789l-.66133-2.12752L9.34211,11.869a.48631.48631,0,0,1-.13644-.86144l1.819-1.2864-.02848-2.22776a.48631.48631,0,0,1,.77712-.396L13.55889,8.43l2.10992-.7155a.48632.48632,0,0,1,.61673.61673L15.57,10.44111l1.33248,1.78555a.48631.48631,0,0,1-.396.77712L14.2788,12.9753l-1.2864,1.819A.48631.48631,0,0,1,12.131,14.65789Z" fill="none" stroke="#323232" stroke-linecap="round" stroke-linejoin="round" stroke-width="1.5"/><path d="M0,0H24V24H0Z" fill="none"/></svg>