<svg id="Layer_3" data-name="Layer 3" xmlns="http://www.w3.org/2000/svg" viewBox="0 0 24 24"><title>magic-wand-circle</title><circle cx="12" cy="12" r="9" fill="none" stroke="#323232" stroke-linecap="round" stroke-linejoin="round" stroke-width="1.5"/><path d="M10,17a1.415,1.415,0,0,0-2,0,1.415,1.415,0,0,0,0-2,1.415,1.415,0,0,0,2,0A1.415,1.415,0,0,0,10,17Z" fill="none" stroke="#323232" stroke-linecap="round" stroke-linejoin="round" stroke-width="1.5"/><path d="M17,10a1.415,1.415,0,0,0-2,0,1.415,1.415,0,0,0,0-2,1.415,1.415,0,0,0,2,0A1.415,1.415,0,0,0,17,10Z" fill="none" stroke="#323232" stroke-linecap="round" stroke-linejoin="round" stroke-width="1.5"/><path d="M10,10a1.415,1.415,0,0,0-2,0A1.415,1.415,0,0,0,8,8a1.415,1.415,0,0,0,2,0A1.415,1.415,0,0,0,10,10Z" fill="none" stroke="#323232" stroke-linecap="round" stroke-linejoin="round" stroke-width="1.5"/><path d="M19.33,17.21,16,13.879A1.5,1.5,0,1,0,13.879,16l3.33,3.331" fill="none" stroke="#323232" stroke-linecap="round" stroke-linejoin="round" stroke-width="1.5"/><path d="M0,0H24V24H0Z" fill="none"/></svg>