<svg id="Layer_3" data-name="Layer 3" xmlns="http://www.w3.org/2000/svg" viewBox="0 0 24 24"><title>magnet-item</title><path d="M5.5,7h-2a1,1,0,0,1-1-1V4a1,1,0,0,1,1-1h2a1,1,0,0,1,1,1V6A1,1,0,0,1,5.5,7Z" fill="none" stroke="#323232" stroke-linecap="round" stroke-linejoin="round" stroke-width="1.5"/><path d="M5.9285,21H3.0715A.57167.57167,0,0,1,2.5,20.4285v-2.857A.57167.57167,0,0,1,3.0715,17h2.857a.57167.57167,0,0,1,.5715.5715v2.857A.57167.57167,0,0,1,5.9285,21Z" fill="none" stroke="#323232" stroke-linecap="round" stroke-linejoin="round" stroke-width="1.5"/><path d="M5.5,21h-2a1,1,0,0,1-1-1V18a1,1,0,0,1,1-1h2a1,1,0,0,1,1,1v2A1,1,0,0,1,5.5,21Z" fill="none" stroke="#323232" stroke-linecap="round" stroke-linejoin="round" stroke-width="1.5"/><path d="M5.5,14h-2a1,1,0,0,1-1-1V11a1,1,0,0,1,1-1h2a1,1,0,0,1,1,1v2A1,1,0,0,1,5.5,14Z" fill="none" stroke="#323232" stroke-linecap="round" stroke-linejoin="round" stroke-width="1.5"/><path d="M9.5,15v2a1,1,0,0,0,1,1h5a6,6,0,0,0,6-6v0a6,6,0,0,0-6-6h-5a1,1,0,0,0-1,1V9a1,1,0,0,0,1,1h5a2,2,0,0,1,2,2h0a2,2,0,0,1-2,2h-5A1,1,0,0,0,9.5,15Z" fill="none" stroke="#323232" stroke-linecap="round" stroke-linejoin="round" stroke-width="1.5"/><line x1="13.5" y1="10" x2="13.5" y2="6" fill="none" stroke="#323232" stroke-linecap="round" stroke-linejoin="round" stroke-width="1.5"/><line x1="13.5" y1="14" x2="13.5" y2="18" fill="none" stroke="#323232" stroke-linecap="round" stroke-linejoin="round" stroke-width="1.5"/><path d="M0,0H24V24H0Z" fill="none"/></svg>