<svg id="Layer_3" data-name="Layer 3" xmlns="http://www.w3.org/2000/svg" viewBox="0 0 24 24"><title>Artboard 275</title><path d="M14,12V8a1,1,0,0,1,1-1h1a1,1,0,0,1,1,1v4a5,5,0,0,1-5,5h0a5,5,0,0,1-5-5V8A1,1,0,0,1,8,7H9a1,1,0,0,1,1,1v4a2,2,0,0,0,2,2h0A2,2,0,0,0,14,12Z" fill="none" stroke="#323232" stroke-linecap="round" stroke-linejoin="round" stroke-width="1.5"/><line x1="17" y1="10.5" x2="14" y2="10.5" fill="none" stroke="#323232" stroke-linecap="round" stroke-linejoin="round" stroke-width="1.5"/><line x1="10" y1="10.5" x2="7" y2="10.5" fill="none" stroke="#323232" stroke-linecap="round" stroke-linejoin="round" stroke-width="1.5"/><rect x="3" y="3" width="18" height="18" rx="4" stroke-width="1.5" stroke="#323232" stroke-linecap="round" stroke-linejoin="round" fill="none"/><rect width="24" height="24" fill="none"/></svg>