<svg id="Layer_3" data-name="Layer 3" xmlns="http://www.w3.org/2000/svg" viewBox="0 0 24 24"><title>magnet</title><line x1="18.145" y1="16.344" x2="14.833" y2="13.031" fill="none" stroke="#323232" stroke-miterlimit="10" stroke-width="1.5"/><line x1="10.969" y1="9.167" x2="7.656" y2="5.855" fill="none" stroke="#323232" stroke-miterlimit="10" stroke-width="1.5"/><path d="M11.749,3.323,13.5,5.074a1.105,1.105,0,0,1,0,1.562L8.484,11.651a2.733,2.733,0,0,0,0,3.865h0a2.733,2.733,0,0,0,3.865,0L17.364,10.5a1.105,1.105,0,0,1,1.562,0l1.751,1.751a1.1,1.1,0,0,1,0,1.561l-5.016,5.016a7.418,7.418,0,0,1-10.489,0h0a7.418,7.418,0,0,1,0-10.489l5.016-5.016A1.1,1.1,0,0,1,11.749,3.323Z" fill="none" stroke="#323232" stroke-miterlimit="10" stroke-width="1.5"/><path d="M0,0H24V24H0Z" fill="none"/></svg>