<svg id="Layer_3" data-name="Layer 3" xmlns="http://www.w3.org/2000/svg" viewBox="0 0 24 24"><title>magnet-sqaure</title><path d="M11.847,6.7l1.07,1.07a.675.675,0,0,1,0,.954L9.852,11.787a1.669,1.669,0,0,0,0,2.361h0a1.669,1.669,0,0,0,2.361,0l3.065-3.065a.675.675,0,0,1,.954,0l1.07,1.07a.674.674,0,0,1,0,.954l-3.065,3.065a4.53,4.53,0,0,1-6.409,0h0a4.53,4.53,0,0,1,0-6.409L10.893,6.7A.674.674,0,0,1,11.847,6.7Z" fill="none" stroke="#323232" stroke-miterlimit="10" stroke-width="1.5"/><rect x="3" y="3" width="18" height="18" rx="5" stroke-width="1.5" stroke="#323232" stroke-linecap="round" stroke-linejoin="round" fill="none"/><rect width="24" height="24" fill="none"/></svg>