<?xml version="1.0" encoding="utf-8"?>
<!-- Generator: Adobe Illustrator 24.0.2, SVG Export Plug-In . SVG Version: 6.00 Build 0)  -->
<svg version="1.1" id="Layer_3" xmlns="http://www.w3.org/2000/svg" xmlns:xlink="http://www.w3.org/1999/xlink" x="0px" y="0px"
	 width="24px" height="24px" viewBox="0 0 24 24" enable-background="new 0 0 24 24" xml:space="preserve">
<g>
	<g>
		<path fill="none" d="M0,0h24v24H0V0z"/>
	</g>
	<g>
		<path fill="none" d="M0,0h24v24H0V0z"/>
	</g>
	<g>
		<path fill="none" stroke="#323232" stroke-width="1.5" stroke-linecap="round" stroke-linejoin="round" d="M20,13.507V6.033"/>
		<path fill="none" stroke="#323232" stroke-width="1.5" stroke-linecap="round" stroke-linejoin="round" d="M13,18H5
			c-1.657,0-3-1.343-3-3V6.033"/>
		<path fill="none" stroke="#323232" stroke-width="1.5" stroke-linecap="round" stroke-linejoin="round" d="M9.136,11.018
			L3.085,7.831C2.418,7.479,2,6.787,2,6.033V6c0-1.105,0.895-2,2-2h13.967C19.09,4,20,4.91,20,6.033v0.02
			c0,0.742-0.411,1.424-1.068,1.77l-6.068,3.196C11.697,11.633,10.303,11.633,9.136,11.018z"/>
		<g>
			<g>
				<g>
					<path fill="none" stroke="#323232" stroke-width="1.5" stroke-linecap="round" stroke-linejoin="round" d="M14.914,21.414
						l-1.328-1.328C13.211,19.711,13,19.202,13,18.672v-2.343c0-0.53,0.211-1.039,0.586-1.414l1.328-1.328
						C15.289,13.211,15.798,13,16.328,13h2.343c0.53,0,1.039,0.211,1.414,0.586l1.329,1.329C21.789,15.29,22,15.798,22,16.329v2.342
						c0,0.53-0.211,1.039-0.586,1.414l-1.329,1.329C19.711,21.789,19.202,22,18.671,22h-2.343
						C15.798,22,15.289,21.789,14.914,21.414z"/>
				</g>
			</g>
		</g>
		<path fill="none" stroke="#323232" stroke-width="1.5" stroke-linecap="round" stroke-linejoin="round" d="M17.501,17.323v-1.754"
			/>
		<path fill="none" stroke="#323232" stroke-width="1.5" stroke-linecap="round" stroke-linejoin="round" d="M17.5,19.257
			c-0.048,0-0.087,0.039-0.086,0.087c0,0.048,0.039,0.087,0.087,0.087s0.086-0.039,0.086-0.087S17.548,19.257,17.5,19.257"/>
	</g>
</g>
</svg>
