<svg id="Layer_3" data-name="Layer 3" xmlns="http://www.w3.org/2000/svg" viewBox="0 0 24 24"><circle cx="17.5" cy="6.5" r="4" fill="none" stroke="#323232" stroke-linecap="round" stroke-linejoin="round" stroke-width="1.5"/><path d="M18.83332,5.83337,17.16753,7.5l-1.00088-1" fill="none" stroke="#323232" stroke-linecap="round" stroke-linejoin="round" stroke-width="1.5"/><path d="M20.5,12.5v6a3,3,0,0,1-3,3H5.5a3,3,0,0,1-3-3V6.5a3,3,0,0,1,3-3h6" fill="none" stroke="#323232" stroke-linecap="round" stroke-linejoin="round" stroke-width="1.5"/><path d="M2.5,15.5H6.882a1,1,0,0,1,.894.552l.447.895a1,1,0,0,0,.895.553h4.763a1,1,0,0,0,.895-.553l.447-.894a1,1,0,0,1,.895-.553H20.5" fill="none" stroke="#323232" stroke-linecap="round" stroke-linejoin="round" stroke-width="1.5"/><path d="M0,0H24V24H0Z" fill="none"/></svg>