<svg id="Layer_3" data-name="Layer 3" xmlns="http://www.w3.org/2000/svg" viewBox="0 0 24 24"><title>mailbox-collections-archive</title><path d="M21,13v5a3,3,0,0,1-3,3H6a3,3,0,0,1-3-3V6A3,3,0,0,1,6,3h7" fill="none" stroke="#323232" stroke-linecap="round" stroke-linejoin="round" stroke-width="1.5"/><rect x="15" y="5.94" width="6" height="4.2" rx="1.2" stroke-width="1.5" stroke="#323232" stroke-linecap="round" stroke-linejoin="round" fill="none"/><path d="M16.2,5.94V4.8A1.8,1.8,0,0,1,18,3h0a1.8,1.8,0,0,1,1.8,1.8h0V5.94" fill="none" stroke="#323232" stroke-linecap="round" stroke-linejoin="round" stroke-width="1.5"/><path d="M3,15H7.382a1,1,0,0,1,.894.552l.447.895A1,1,0,0,0,9.618,17h4.763a1,1,0,0,0,.895-.553l.447-.894A1,1,0,0,1,16.618,15H21" fill="none" stroke="#323232" stroke-linecap="round" stroke-linejoin="round" stroke-width="1.5"/><path d="M0,0H24V24H0Z" fill="none"/></svg>