<?xml version="1.0" encoding="utf-8"?>
<!-- Generator: Adobe Illustrator 24.0.2, SVG Export Plug-In . SVG Version: 6.00 Build 0)  -->
<svg version="1.1" id="Layer_3" xmlns="http://www.w3.org/2000/svg" xmlns:xlink="http://www.w3.org/1999/xlink" x="0px" y="0px"
	 width="24px" height="24px" viewBox="0 0 24 24" enable-background="new 0 0 24 24" xml:space="preserve">
<g>
	<g>
		<path fill="none" stroke="#323232" stroke-width="1.5" stroke-linecap="round" stroke-linejoin="round" d="M20,13.759V6.033"/>
		<path fill="none" stroke="#323232" stroke-width="1.5" stroke-linecap="round" stroke-linejoin="round" d="M13,18H5
			c-1.657,0-3-1.343-3-3V6.033"/>
		<path fill="none" stroke="#323232" stroke-width="1.5" stroke-linecap="round" stroke-linejoin="round" d="M9.136,11.018
			L3.085,7.831C2.418,7.479,2,6.787,2,6.033V6c0-1.105,0.895-2,2-2h13.967C19.09,4,20,4.91,20,6.033v0.02
			c0,0.742-0.411,1.424-1.068,1.77l-6.068,3.196C11.697,11.633,10.303,11.633,9.136,11.018z"/>
		<path fill="none" stroke="#323232" stroke-width="1.5" stroke-linecap="round" stroke-linejoin="round" d="M21.99,17.496
			c0,2.485-2.014,4.5-4.499,4.5c-2.433,0.001-4.502-2.068-4.501-4.501c0.001-2.485,2.015-4.499,4.5-4.499
			C19.975,12.996,21.99,15.011,21.99,17.496"/>
		<path fill="none" stroke="#323232" stroke-width="1.5" stroke-linecap="round" stroke-linejoin="round" d="M17.372,15.81v1.953
			l1.536,0.937"/>
	</g>
	<g>
		<path fill="none" d="M0,0h24v24H0V0z"/>
	</g>
</g>
</svg>
