<?xml version="1.0" encoding="utf-8"?>
<!-- Generator: Adobe Illustrator 24.0.2, SVG Export Plug-In . SVG Version: 6.00 Build 0)  -->
<svg version="1.1" id="Layer_3" xmlns="http://www.w3.org/2000/svg" xmlns:xlink="http://www.w3.org/1999/xlink" x="0px" y="0px"
	 width="24px" height="24px" viewBox="0 0 24 24" enable-background="new 0 0 24 24" xml:space="preserve">
<g>
	<path fill="none" d="M0,0h24v24H0V0z"/>
	<g>
		
			<circle fill="none" stroke="#323232" stroke-width="1.5882" stroke-linecap="round" stroke-linejoin="round" cx="12" cy="12" r="9"/>
		<path fill="none" stroke="#323232" stroke-width="1.5" stroke-linecap="round" stroke-linejoin="round" d="M7.503,8.781
			c0.638,0.584,2.136,1.954,3.375,3.083c0.636,0.58,1.609,0.581,2.245,0.001c1.283-1.17,2.749-2.511,3.375-3.084"/>
		<path id="XMLID_36_" fill="none" stroke="#323232" stroke-width="1.5" stroke-linecap="round" stroke-linejoin="round" d="
			M15.333,15.696H8.667C7.746,15.696,7,14.949,7,14.029V9.971c0-0.92,0.746-1.667,1.667-1.667h6.667c0.92,0,1.667,0.746,1.667,1.667
			v4.058C17,14.949,16.254,15.696,15.333,15.696z"/>
		<path fill="none" stroke="#323232" stroke-width="1.5" stroke-linecap="round" stroke-linejoin="round" d="M12.977,11.983
			c1.06,0.893,2.825,2.561,3.528,3.23"/>
		<path fill="none" stroke="#323232" stroke-width="1.5" stroke-linecap="round" stroke-linejoin="round" d="M11.023,11.983
			c-1.06,0.893-2.825,2.561-3.528,3.23"/>
	</g>
</g>
</svg>
