<?xml version="1.0" encoding="utf-8"?>
<!-- Generator: Adobe Illustrator 24.0.2, SVG Export Plug-In . SVG Version: 6.00 Build 0)  -->
<svg version="1.1" id="Layer_3" xmlns="http://www.w3.org/2000/svg" xmlns:xlink="http://www.w3.org/1999/xlink" x="0px" y="0px"
	 width="24px" height="24px" viewBox="0 0 24 24" enable-background="new 0 0 24 24" xml:space="preserve">
<g>
	<path fill="none" d="M0,0h24v24H0V0z"/>
	<g>
		<path fill="none" stroke="#323232" stroke-width="1.5" stroke-linecap="round" stroke-linejoin="round" d="M17.001,7h1.645
			C19.946,7,21,8.054,21,9.355v0c0,0.781-0.387,1.511-1.033,1.949c-1.339,0.908-3.738,2.534-5.724,3.88
			c-1.355,0.919-3.132,0.918-4.487,0c-1.926-1.305-4.368-2.961-5.726-3.881C3.384,10.864,3,10.136,3,9.355v0
			C3,8.054,4.054,7,5.355,7H7"/>
		<g>
			<g>
				<path fill="none" stroke="#323232" stroke-width="1.5" stroke-linecap="round" stroke-linejoin="round" d="M3,9.355V18
					c0,1.657,1.343,3,3,3h12c1.657,0,3-1.343,3-3V9.355"/>
			</g>
		</g>
		<path fill="none" stroke="#323232" stroke-width="1.5" stroke-linecap="round" stroke-linejoin="round" d="M13.555,6.222
			L11.61,8.167L10.443,7"/>
		<path fill="none" stroke="#323232" stroke-width="1.5" stroke-linecap="round" stroke-linejoin="round" d="M7.274,7.813
			l0.664,0.869l0.144,1.081c0.08,0.6,0.551,1.072,1.151,1.152l1.084,0.145l0.868,0.664c0.48,0.367,1.147,0.367,1.627,0l0.869-0.664
			H13.68l1.082-0.144c0.6-0.08,1.072-0.551,1.152-1.151l0.145-1.084c0,0.001,0.336-0.439,0.664-0.868
			c0.367-0.48,0.367-1.147,0-1.627l-0.664-0.869l-0.144-1.081c-0.08-0.6-0.551-1.072-1.151-1.152L13.68,2.939l-0.868-0.664
			c-0.48-0.367-1.147-0.367-1.627,0l-0.869,0.664h0.001L9.234,3.083c-0.6,0.08-1.072,0.551-1.152,1.151L7.938,5.318
			c0-0.001-0.336,0.439-0.664,0.868C6.907,6.667,6.907,7.333,7.274,7.813z"/>
	</g>
</g>
</svg>
