<?xml version="1.0" encoding="utf-8"?>
<!-- Generator: Adobe Illustrator 24.0.2, SVG Export Plug-In . SVG Version: 6.00 Build 0)  -->
<svg version="1.1" id="Layer_3" xmlns="http://www.w3.org/2000/svg" xmlns:xlink="http://www.w3.org/1999/xlink" x="0px" y="0px"
	 width="24px" height="24px" viewBox="0 0 24 24" enable-background="new 0 0 24 24" xml:space="preserve">
<g>
	<g>
		<g>
			<path id="XMLID_37_" fill="none" stroke="#323232" stroke-width="1.5" stroke-linecap="round" stroke-linejoin="round" d="
				M15,15.696H9c-1.105,0-2-0.895-2-2v-3.391c0-1.105,0.895-2,2-2h6c1.105,0,2,0.895,2,2v3.391C17,14.8,16.105,15.696,15,15.696z"/>
		</g>
		
			<circle fill="none" stroke="#323232" stroke-width="1.5882" stroke-linecap="round" stroke-linejoin="round" cx="12" cy="12" r="9"/>
		<path fill="none" stroke="#323232" stroke-width="1.5" stroke-linecap="round" stroke-linejoin="round" d="M7.605,8.874
			c0.639,0.585,1.918,1.754,3.049,2.786c0.764,0.696,1.929,0.696,2.692-0.001c1.164-1.062,2.419-2.21,3.048-2.786"/>
	</g>
	<g>
		<path fill="none" d="M0,0h24v24H0V0z"/>
	</g>
</g>
</svg>
