<svg id="Layer_3" data-name="Layer 3" xmlns="http://www.w3.org/2000/svg" viewBox="0 0 24 24"><title>mailbox-archive-new-one-click</title><line x1="6.329" y1="9.499" x2="4.929" y2="9.5" fill="none" stroke="#323232" stroke-linecap="round" stroke-linejoin="round" stroke-width="1.5"/><line x1="16.829" y1="4.6" x2="15.839" y2="5.59" fill="none" stroke="#323232" stroke-linecap="round" stroke-linejoin="round" stroke-width="1.5"/><line x1="11.929" y1="2.5" x2="11.929" y2="3.9" fill="none" stroke="#323232" stroke-linecap="round" stroke-linejoin="round" stroke-width="1.5"/><line x1="7.029" y1="4.6" x2="8.018" y2="5.59" fill="none" stroke="#323232" stroke-linecap="round" stroke-linejoin="round" stroke-width="1.5"/><line x1="18.929" y1="9.5" x2="17.529" y2="9.499" fill="none" stroke="#323232" stroke-linecap="round" stroke-linejoin="round" stroke-width="1.5"/><path d="M21,13v5.5a3,3,0,0,1-3,3H6a3,3,0,0,1-3-3V13" fill="none" stroke="#323232" stroke-linecap="round" stroke-linejoin="round" stroke-width="1.5"/><path d="M3,15.5H7.382a1,1,0,0,1,.894.552l.447.895a1,1,0,0,0,.895.553h4.763a1,1,0,0,0,.895-.553l.447-.894a1,1,0,0,1,.895-.553H21" fill="none" stroke="#323232" stroke-linecap="round" stroke-linejoin="round" stroke-width="1.5"/><path d="M10.834,9.334,12,8.166v4.668" fill="none" stroke="#323232" stroke-linecap="round" stroke-linejoin="round" stroke-width="1.5"/><path d="M10.837,12.837h2.326" fill="none" stroke="#323232" stroke-linecap="round" stroke-linejoin="round" stroke-width="1.5"/><path d="M0,0H24V24H0Z" fill="none"/></svg>