<?xml version="1.0" encoding="utf-8"?>
<!-- Generator: Adobe Illustrator 24.0.2, SVG Export Plug-In . SVG Version: 6.00 Build 0)  -->
<svg version="1.1" id="Layer_3" xmlns="http://www.w3.org/2000/svg" xmlns:xlink="http://www.w3.org/1999/xlink" x="0px" y="0px"
	 width="24px" height="24px" viewBox="0 0 24 24" enable-background="new 0 0 24 24" xml:space="preserve">
<g>
	<path fill="none" d="M0,0h24v24H0V0z"/>
	<g>
		<g>
			
				<path fill="none" stroke="#323232" stroke-width="1.5" stroke-linecap="round" stroke-linejoin="round" stroke-miterlimit="4.0001" d="
				M3,9v9c0,1.657,1.343,3,3,3h12c1.657,0,3-1.343,3-3V9.235"/>
		</g>
		
			<path fill="none" stroke="#323232" stroke-width="1.5" stroke-linecap="round" stroke-linejoin="round" stroke-miterlimit="4.0001" d="
			M4.399,6.766l5.863-4.204c1.046-0.75,2.453-0.749,3.498,0.001l5.838,4.192c1.869,1.342,1.869,3.538-0.002,4.879l-5.852,4.196
			c-1.046,0.75-2.453,0.749-3.498-0.001l-5.849-4.201C2.534,10.291,2.534,8.103,4.399,6.766z"/>
		
			<polyline fill="none" stroke="#323232" stroke-width="1.5" stroke-linecap="round" stroke-linejoin="round" stroke-miterlimit="4.0001" points="
			9.216,8 12.005,6 14.784,7.996 		"/>
		
			<line fill="none" stroke="#323232" stroke-width="1.5" stroke-linecap="round" stroke-linejoin="round" stroke-miterlimit="4.0001" x1="12" y1="6" x2="12" y2="12"/>
	</g>
</g>
</svg>
