<?xml version="1.0" encoding="utf-8"?>
<!-- Generator: Adobe Illustrator 24.0.2, SVG Export Plug-In . SVG Version: 6.00 Build 0)  -->
<svg version="1.1" id="Layer_3" xmlns="http://www.w3.org/2000/svg" xmlns:xlink="http://www.w3.org/1999/xlink" x="0px" y="0px"
	 width="24px" height="24px" viewBox="0 0 24 24" enable-background="new 0 0 24 24" xml:space="preserve">
<g>
	<g>
		<g>
			<path fill="none" d="M0,0h24v24H0V0z"/>
		</g>
	</g>
	<g>
		<path fill="none" stroke="#323232" stroke-width="1.5" stroke-linecap="round" stroke-linejoin="round" d="M18.84,13.975
			l2.912,5.175c0.717,1.274-0.204,2.85-1.666,2.85h-5.823c-1.463,0-2.383-1.574-1.666-2.85l2.912-5.175
			C16.238,12.675,18.109,12.675,18.84,13.975z"/>
		<g>
			<path fill="none" stroke="#323232" stroke-width="1.5" stroke-linecap="round" stroke-linejoin="round" d="M20,11V6.033"/>
			<path fill="none" stroke="#323232" stroke-width="1.5" stroke-linecap="round" stroke-linejoin="round" d="M10,18H5
				c-1.657,0-3-1.343-3-3V6.033"/>
			<path fill="none" stroke="#323232" stroke-width="1.5" stroke-linecap="round" stroke-linejoin="round" d="M9.602,11.264
				L3.085,7.831C2.418,7.479,2,6.787,2,6.033V6c0-1.105,0.895-2,2-2h13.967C19.09,4,20,4.91,20,6.033v0.02
				c0,0.742-0.411,1.424-1.068,1.77l-6.534,3.442C11.523,11.724,10.477,11.724,9.602,11.264z"/>
		</g>
		<path fill="none" stroke="#323232" stroke-width="1.5" stroke-linecap="round" stroke-linejoin="round" d="M17.174,17.622v-1.754"
			/>
		<path fill="none" stroke="#323232" stroke-width="1.5" stroke-linecap="round" stroke-linejoin="round" d="M17.173,19.557
			c-0.048,0-0.087,0.039-0.086,0.087c0,0.048,0.039,0.087,0.087,0.087s0.086-0.039,0.086-0.087S17.221,19.557,17.173,19.557"/>
	</g>
</g>
</svg>
