<svg id="Layer_3" data-name="Layer 3" xmlns="http://www.w3.org/2000/svg" viewBox="0 0 24 24"><title>mailbox-collections-archive-share</title><path d="M0,0H24V24H0Z" fill="none"/><path d="M21,11v7a3,3,0,0,1-3,3H6a3,3,0,0,1-3-3V6A3,3,0,0,1,6,3h6" fill="none" stroke="#323232" stroke-linecap="round" stroke-linejoin="round" stroke-width="1.5"/><path d="M3,15H7.382a1,1,0,0,1,.894.552l.447.895A1,1,0,0,0,9.618,17h4.763a1,1,0,0,0,.895-.553l.447-.894A1,1,0,0,1,16.618,15H21" fill="none" stroke="#323232" stroke-linecap="round" stroke-linejoin="round" stroke-width="1.5"/><path d="M16.138,5.077a4.514,4.514,0,0,0-4.006,4.482v.285a5.322,5.322,0,0,1,4.006-1.922V9.428a.571.571,0,0,0,.924.449L20.79,6.932a.55.55,0,0,0,.092-.773.572.572,0,0,0-.092-.092L17.062,3.123a.57.57,0,0,0-.924.448Z" fill="none" stroke="#323232" stroke-linecap="round" stroke-linejoin="round" stroke-width="1.5"/></svg>