<?xml version="1.0" encoding="utf-8"?>
<!-- Generator: Adobe Illustrator 24.0.2, SVG Export Plug-In . SVG Version: 6.00 Build 0)  -->
<svg version="1.1" id="Layer_3" xmlns="http://www.w3.org/2000/svg" xmlns:xlink="http://www.w3.org/1999/xlink" x="0px" y="0px"
	 width="24px" height="24px" viewBox="0 0 24 24" enable-background="new 0 0 24 24" xml:space="preserve">
<g>
	<g>
		<g>
			<path fill="none" stroke="#323232" stroke-width="1.5" stroke-linecap="round" stroke-linejoin="round" d="M18.746,10.441
				l1.141-0.773c0.701-0.475,1.121-1.267,1.121-2.114v0c0-1.41-1.143-2.554-2.554-2.554H5.561c-1.41,0-2.554,1.143-2.554,2.554v0
				c0,0.847,0.42,1.639,1.121,2.114l1.141,0.773C9.338,13.199,14.677,13.199,18.746,10.441z"/>
		</g>
		<g>
			<path fill="none" stroke="#323232" stroke-width="1.5" stroke-linecap="round" stroke-linejoin="round" d="M3,7.554V17
				c0,1.657,1.343,3,3,3h12c1.657,0,3-1.343,3-3V7.554"/>
		</g>
	</g>
	<path fill="none" d="M0,0h24v24H0V0z"/>
</g>
</svg>
