<?xml version="1.0" encoding="utf-8"?>
<!-- Generator: Adobe Illustrator 23.1.0, SVG Export Plug-In . SVG Version: 6.00 Build 0)  -->
<svg version="1.1" id="icons" xmlns="http://www.w3.org/2000/svg" xmlns:xlink="http://www.w3.org/1999/xlink" x="0px" y="0px"
	 width="24px" height="24px" viewBox="0 0 24 24" enable-background="new 0 0 24 24" xml:space="preserve">
<g>
	<path fill="none" d="M0,0h24v24H0V0z"/>
	<g>
		<g>
			<path fill="none" stroke="#323232" stroke-width="1.5" stroke-linecap="round" stroke-linejoin="round" d="M19,3
				c1.105,0,2,0.895,2,2v14c0,1.105-0.895,2-2,2H5c-1.105,0-2-0.895-2-2V5c0-1.105,0.895-2,2-2H19z"/>
		</g>
		<path fill="none" stroke="#323232" stroke-width="1.5" stroke-linecap="round" stroke-linejoin="round" d="M3,15h4.382
			c0.379,0,0.725,0.214,0.894,0.553l0.447,0.894C8.893,16.786,9.239,17,9.618,17h4.764c0.379,0,0.725-0.214,0.894-0.553l0.447-0.894
			C15.893,15.214,16.239,15,16.618,15H21"/>
		<path fill="none" stroke="#323232" stroke-width="1.5" stroke-linecap="round" stroke-linejoin="round" d="M3,9h4.382
			c0.379,0,0.725,0.214,0.894,0.553l0.447,0.894C8.893,10.786,9.239,11,9.618,11h4.764c0.379,0,0.725-0.214,0.894-0.553l0.447-0.894
			C15.893,9.214,16.239,9,16.618,9H21"/>
	</g>
</g>
</svg>
