<?xml version="1.0" encoding="utf-8"?>
<!-- Generator: Adobe Illustrator 24.0.2, SVG Export Plug-In . SVG Version: 6.00 Build 0)  -->
<svg version="1.1" id="Layer_3" xmlns="http://www.w3.org/2000/svg" xmlns:xlink="http://www.w3.org/1999/xlink" x="0px" y="0px"
	 width="24px" height="24px" viewBox="0 0 24 24" enable-background="new 0 0 24 24" xml:space="preserve">
<g>
	<path fill="none" d="M0,0h24v24H0V0z"/>
	<path fill="none" stroke="#323232" stroke-width="1.5" stroke-linecap="round" stroke-linejoin="round" d="M17,21H7
		c-2.209,0-4-1.791-4-4V7c0-2.209,1.791-4,4-4h10c2.209,0,4,1.791,4,4v10C21,19.209,19.209,21,17,21z"/>
	<path fill="none" stroke="#323232" stroke-width="1.5" stroke-linecap="round" stroke-linejoin="round" d="M8,9.934h8"/>
	<path fill="none" stroke="#323232" stroke-width="1.5" stroke-linecap="round" stroke-linejoin="round" d="M10.25,9.934v-1.5
		c0-0.552,0.392-1,0.875-1h1.75c0.483,0,0.875,0.448,0.875,1v1.5"/>
	<path fill="none" stroke="#323232" stroke-width="1.5" stroke-linecap="round" stroke-linejoin="round" d="M8.875,9.934v5.75
		c0,0.552,0.448,1,1,1h4.25c0.552,0,1-0.448,1-1v-5.75"/>
</g>
</svg>
