<?xml version="1.0" encoding="utf-8"?>
<!-- Generator: Adobe Illustrator 24.0.2, SVG Export Plug-In . SVG Version: 6.00 Build 0)  -->
<svg version="1.1" id="Layer_3" xmlns="http://www.w3.org/2000/svg" xmlns:xlink="http://www.w3.org/1999/xlink" x="0px" y="0px"
	 width="24px" height="24px" viewBox="0 0 24 24" enable-background="new 0 0 24 24" xml:space="preserve">
<g>
	<g>
		<g>
			<path fill="none" stroke="#323232" stroke-width="1.5" stroke-linecap="round" stroke-linejoin="round" d="M15.374,12.718
				l4.506-3.055C20.581,9.189,21,8.398,21,7.552v0C21,6.142,19.858,5,18.449,5H5.566C4.157,5,3.015,6.142,3.015,7.551v0
				c0,0.846,0.419,1.637,1.12,2.112l4.506,3.055C10.674,14.096,13.341,14.096,15.374,12.718z"/>
		</g>
		<g>
			<path fill="none" stroke="#323232" stroke-width="1.5" stroke-linecap="round" stroke-linejoin="round" d="M3,7.551V17
				c0,1.657,1.343,3,3,3h12c1.657,0,3-1.343,3-3V7.552"/>
		</g>
	</g>
	<path fill="none" d="M0,0h24v24H0V0z"/>
</g>
</svg>
