<?xml version="1.0" encoding="utf-8"?>
<!-- Generator: Adobe Illustrator 24.0.2, SVG Export Plug-In . SVG Version: 6.00 Build 0)  -->
<svg version="1.1" id="Layer_3" xmlns="http://www.w3.org/2000/svg" xmlns:xlink="http://www.w3.org/1999/xlink" x="0px" y="0px"
	 width="24px" height="24px" viewBox="0 0 24 24" enable-background="new 0 0 24 24" xml:space="preserve">
<g>
	<path fill="none" d="M0,0h24v24H0V0z"/>
	<g>
		<g>
			<g>
				<path fill="none" stroke="#323232" stroke-width="1.5" stroke-linecap="round" stroke-linejoin="round" d="M3,9.355V18.4
					C3,19.836,4.164,21,5.6,21h12.8c1.436,0,2.6-1.164,2.6-2.6V9.355"/>
			</g>
		</g>
		<path fill="none" stroke="#323232" stroke-width="1.5" stroke-linecap="round" stroke-linejoin="round" d="M12.001,2
			c2.485,0,4.5,2.015,4.5,4.499C16.501,8.932,14.433,11,12,11c-2.485,0-4.499-2.015-4.499-4.5C7.501,4.015,9.516,2,12.001,2"/>
		<path fill="none" stroke="#323232" stroke-width="1.5" stroke-linecap="round" stroke-linejoin="round" d="M13.741,5.628
			l-2.188,2.188l-1.312-1.313"/>
		<path fill="none" stroke="#323232" stroke-width="1.5" stroke-linecap="round" stroke-linejoin="round" d="M16.471,7h2.174
			C19.946,7,21,8.054,21,9.355v0c0,0.781-0.387,1.511-1.033,1.949c-1.339,0.908-3.739,2.535-5.725,3.881
			c-1.355,0.919-3.13,0.917-4.485-0.001c-1.926-1.305-4.368-2.961-5.726-3.881C3.384,10.864,3,10.136,3,9.355v0
			C3,8.054,4.054,7,5.355,7h2.174"/>
	</g>
</g>
</svg>
