<?xml version="1.0" encoding="utf-8"?>
<!-- Generator: Adobe Illustrator 24.0.2, SVG Export Plug-In . SVG Version: 6.00 Build 0)  -->
<svg version="1.1" id="Layer_3" xmlns="http://www.w3.org/2000/svg" xmlns:xlink="http://www.w3.org/1999/xlink" x="0px" y="0px"
	 width="24px" height="24px" viewBox="0 0 24 24" enable-background="new 0 0 24 24" xml:space="preserve">
<g>
	<g>
		<g>
			
				<path fill="none" stroke="#323232" stroke-width="1.5" stroke-linecap="round" stroke-linejoin="round" stroke-miterlimit="4.0001" d="
				M2.999,9v9c0,1.657,1.343,3,3,3h12c1.657,0,3-1.343,3-3V9"/>
		</g>
		
			<path fill="none" stroke="#323232" stroke-width="1.5" stroke-linecap="round" stroke-linejoin="round" stroke-miterlimit="4.0001" d="
			M4.398,6.765l5.861-4.203c1.045-0.75,2.452-0.749,3.497,0.001l5.836,4.191c1.869,1.342,1.868,3.537-0.002,4.877l-5.85,4.195
			c-1.045,0.75-2.452,0.749-3.497-0.001l-5.847-4.199C2.534,10.288,2.535,8.101,4.398,6.765z"/>
		<g>
			<g id="XMLID_28_">
				
					<path id="XMLID_29_" fill="none" stroke="#323232" stroke-width="1.5" stroke-linecap="round" stroke-linejoin="round" stroke-miterlimit="4.0001" d="
					M18.002,12.77V11c0-1.105-0.895-2-2-2h-8c-1.105,0-2,0.895-2,2v1.725"/>
			</g>
		</g>
	</g>
	<path fill="none" d="M0,0h24v24H0V0z"/>
</g>
</svg>
