<svg id="Layer_3" data-name="Layer 3" xmlns="http://www.w3.org/2000/svg" viewBox="0 0 24 24"><title>mailbox-archive-circle</title><rect width="24" height="24" fill="none"/><path d="M13.268,12.291l.434-.434a1.047,1.047,0,0,1,.741-.307h1.533a.523.523,0,0,1,.524.524V14.1a1.047,1.047,0,0,1-1.047,1.047H8.547A1.047,1.047,0,0,1,7.5,14.1V12.074a.523.523,0,0,1,.524-.524H9.386a1.047,1.047,0,0,1,.741.307l.433.434a1.05,1.05,0,0,0,.741.306h1.227A1.046,1.046,0,0,0,13.268,12.291Z" fill="none" stroke="#323232" stroke-linecap="round" stroke-linejoin="round" stroke-width="1.5"/><circle cx="12" cy="12" r="9" fill="none" stroke="#323232" stroke-linecap="round" stroke-linejoin="round" stroke-width="1.5"/><line x1="16.5" y1="8.85" x2="7.5" y2="8.85" fill="none" stroke="#323232" stroke-linecap="round" stroke-linejoin="round" stroke-width="1.5"/></svg>