<svg id="Layer_3" data-name="Layer 3" xmlns="http://www.w3.org/2000/svg" viewBox="0 0 24 24"><title>make-up-lipstick</title><path d="M0,0H24V24H0Z" fill="none"/><path d="M5.822,10.747h4.5a2.007,2.007,0,0,1,2.007,2.007V17.1a3.01,3.01,0,0,1-3.01,3.01H6.826a3.01,3.01,0,0,1-3.01-3.01V12.754a2.007,2.007,0,0,1,2.007-2.007Z" transform="translate(13.273 -1.19) rotate(45)" fill="none" stroke="#323232" stroke-linecap="round" stroke-linejoin="round" stroke-width="1.5"/><path d="M11.957,7.984l3.9-3.9A2.005,2.005,0,0,1,17.907,3.6l2.406.8a1,1,0,0,1,.393,1.662l-5.289,5.288" fill="none" stroke="#323232" stroke-linecap="round" stroke-linejoin="round" stroke-width="1.5"/><path d="M8.33,9.943,9.963,8.311a1.741,1.741,0,0,1,2.464,0l2.762,2.762a1.741,1.741,0,0,1,0,2.464L13.557,15.17" fill="none" stroke="#323232" stroke-linecap="round" stroke-linejoin="round" stroke-width="1.5"/></svg>