<svg id="Layer_3" data-name="Layer 3" xmlns="http://www.w3.org/2000/svg" viewBox="0 0 24 24"><title>make-up-lipstick-open</title><path d="M5,10.383H9a1,1,0,0,1,1,1V19a2,2,0,0,1-2,2H6a2,2,0,0,1-2-2V11.383A1,1,0,0,1,5,10.383Z" fill="none" stroke="#323232" stroke-linecap="round" stroke-linejoin="round" stroke-width="1.5"/><path d="M5,10.383V5a1,1,0,0,1,.553-.894l2-1A1,1,0,0,1,9,4v6.382" fill="none" stroke="#323232" stroke-linecap="round" stroke-linejoin="round" stroke-width="1.5"/><path d="M16,12h2a2,2,0,0,1,2,2v6a1,1,0,0,1-1,1H15a1,1,0,0,1-1-1V14A2,2,0,0,1,16,12Z" fill="none" stroke="#323232" stroke-linecap="round" stroke-linejoin="round" stroke-width="1.5"/><line x1="10" y1="15" x2="4" y2="15" fill="none" stroke="#323232" stroke-linecap="round" stroke-linejoin="round" stroke-width="1.5"/><path d="M0,0H24V24H0Z" fill="none"/></svg>