<svg id="Layer_3" data-name="Layer 3" xmlns="http://www.w3.org/2000/svg" viewBox="0 0 24 24"><title>make-up-mirror</title><path d="M0,0H24V24H0Z" fill="none"/><path d="M20,16.556H16.979a1,1,0,0,0-.832.445l-.517.775a1,1,0,0,1-.832.445H9.2a1,1,0,0,1-.832-.445L7.852,17a1,1,0,0,0-.832-.445H4a1,1,0,0,0-1,1V18a3,3,0,0,0,3,3H18a3,3,0,0,0,3-3v-.444A1,1,0,0,0,20,16.556Z" fill="none" stroke="#323232" stroke-linecap="round" stroke-linejoin="round" stroke-width="1.5"/><path d="M18.821,16.556a8.5,8.5,0,1,0-13.642,0" fill="none" stroke="#323232" stroke-linecap="round" stroke-linejoin="round" stroke-width="1.5"/></svg>