<svg id="Layer_3" data-name="Layer 3" xmlns="http://www.w3.org/2000/svg" viewBox="0 0 24 24"><title>make-up-brush</title><path d="M5.1,13.019H13.9a0,0,0,0,1,0,0v5.918a0,0,0,0,1,0,0H5.1a2.959,2.959,0,0,1-2.959-2.959v0A2.959,2.959,0,0,1,5.1,13.019Z" transform="translate(-8.948 10.352) rotate(-45)" fill="none" stroke="#323232" stroke-linecap="round" stroke-linejoin="round" stroke-width="1.5"/><path d="M19.414,12.886,14.27,13.915,10.085,9.73l1.029-5.144A1.972,1.972,0,0,1,13.327,3.02l.106.015a8.88,8.88,0,0,1,5.021,2.511h0a8.88,8.88,0,0,1,2.511,5.021l.015.106A1.972,1.972,0,0,1,19.414,12.886Z" fill="none" stroke="#323232" stroke-linecap="round" stroke-linejoin="round" stroke-width="1.5"/><line x1="6" y1="18" x2="8" y2="16" fill="none" stroke="#323232" stroke-linecap="round" stroke-linejoin="round" stroke-width="1.5"/><path d="M0,0H24V24H0Z" fill="none"/></svg>