<svg id="Layer_3" data-name="Layer 3" xmlns="http://www.w3.org/2000/svg" viewBox="0 0 24 24"><title>make-up-star</title><rect width="24" height="24" fill="none"/><rect width="24" height="24" fill="none"/><path d="M21,12a9,9,0,1,1-9-9" fill="none" stroke="#323232" stroke-linecap="round" stroke-linejoin="round" stroke-width="1.5"/><path d="M18.34,2.392a.752.752,0,0,1,1.32,0l.583,1.065a.753.753,0,0,0,.3.3l1.065.582a.752.752,0,0,1,0,1.321l-1.065.583a.744.744,0,0,0-.3.3L19.66,7.607a.752.752,0,0,1-1.32,0l-.583-1.065a.744.744,0,0,0-.3-.3L16.392,5.66a.752.752,0,0,1,0-1.321l1.065-.582a.753.753,0,0,0,.3-.3Z" fill="none" stroke="#323232" stroke-miterlimit="10" stroke-width="1.5"/><path d="M9,9.33v1" fill="none" stroke="#323232" stroke-linecap="round" stroke-linejoin="round" stroke-width="1.5"/><path d="M15,9.33v1" fill="none" stroke="#323232" stroke-linecap="round" stroke-linejoin="round" stroke-width="1.5"/><path d="M15.242,14.658a4.586,4.586,0,0,1-6.483,0" fill="none" stroke="#323232" stroke-linecap="round" stroke-linejoin="round" stroke-width="1.5"/></svg>