<svg id="Layer_3" data-name="Layer 3" xmlns="http://www.w3.org/2000/svg" viewBox="0 0 24 24"><path d="M18.65789,2.38978,19.208,3.39509a.99944.99944,0,0,0,.39707.397l1.00516.54994a.7496.7496,0,0,1,0,1.3152l-1.00406.54939a.99952.99952,0,0,0-.39685.39669l-.55157,1.00709a.74959.74959,0,0,1-1.315-.00028l-.54981-1.00485a.99945.99945,0,0,0-.3967-.39686l-1.00666-.55132a.74959.74959,0,0,1,.00025-1.315l1.00611-.55051a.9994.9994,0,0,0,.397-.397l.54977-1.00477A.7496.7496,0,0,1,18.65789,2.38978Z" fill="none" stroke="#323232" stroke-linecap="round" stroke-linejoin="round" stroke-width="1.5"/><path d="M3,18v-.5a1,1,0,0,1,1-1H7.02a1,1,0,0,1,.832.445l.516.776a1,1,0,0,0,.832.445h5.598a1,1,0,0,0,.832-.445l.517-.775a1,1,0,0,1,.832-.445H20a1,1,0,0,1,1,1V18a3,3,0,0,1-3,3H6A3,3,0,0,1,3,18Z" fill="none" stroke="#323232" stroke-linecap="round" stroke-linejoin="round" stroke-width="1.5"/><path d="M20.5,11.5a8.44471,8.44471,0,0,1-1.63586,5" fill="none" stroke="#323232" stroke-linecap="round" stroke-linejoin="round" stroke-width="1.5"/><path d="M12,3A8.48994,8.48994,0,0,0,5.13586,16.5" fill="none" stroke="#323232" stroke-linecap="round" stroke-linejoin="round" stroke-width="1.5"/><rect width="24" height="24" fill="none"/></svg>