<svg id="Layer_3" data-name="Layer 3" xmlns="http://www.w3.org/2000/svg" viewBox="0 0 24 24"><title>map-package-box</title><path d="M15,3.01V10" fill="none" stroke="#323232" stroke-linecap="round" stroke-linejoin="round" stroke-width="1.5"/><path d="M9,4.78V19" fill="none" stroke="#323232" stroke-linecap="round" stroke-linejoin="round" stroke-width="1.5"/><path d="M21,11V5.613a1,1,0,0,0-.684-.949L15.632,3.1a2.005,2.005,0,0,0-1.265,0L9.632,4.68a2,2,0,0,1-1.265,0L4.316,3.33A1,1,0,0,0,3,4.279V15.618a1,1,0,0,0,.553.9l4.553,2.276a2,2,0,0,0,1.789,0L11,18.236" fill="none" stroke="#323232" stroke-linecap="round" stroke-linejoin="round" stroke-width="1.5"/><path d="M14,19.26V16.076a1.128,1.128,0,0,1,.573-.981l2.875-1.617a1.13,1.13,0,0,1,1.1,0L21.427,15.1a1.126,1.126,0,0,1,.573.981V19.26a1.126,1.126,0,0,1-.573.98L18.55,21.856a1.128,1.128,0,0,1-1.1,0l-2.875-1.617A1.123,1.123,0,0,1,14,19.26Z" fill="none" stroke="#323232" stroke-linecap="round" stroke-linejoin="round" stroke-width="1.5"/><path d="M18,17.667V22" fill="none" stroke="#323232" stroke-linecap="round" stroke-linejoin="round" stroke-width="1.5"/><path d="M14.154,15.508,18,17.667l3.847-2.159" fill="none" stroke="#323232" stroke-linecap="round" stroke-linejoin="round" stroke-width="1.5"/><path d="M0,0H24V24H0Z" fill="none"/></svg>