<?xml version="1.0" encoding="utf-8"?>
<!-- Generator: Adobe Illustrator 24.0.2, SVG Export Plug-In . SVG Version: 6.00 Build 0)  -->
<svg version="1.1" id="Layer_1" xmlns="http://www.w3.org/2000/svg" xmlns:xlink="http://www.w3.org/1999/xlink" x="0px" y="0px"
	 width="24px" height="24px" viewBox="0 0 24 24" enable-background="new 0 0 24 24" xml:space="preserve">
<g>
	<g>
		<path fill="none" stroke="#323232" stroke-width="1.5" stroke-linecap="round" stroke-linejoin="round" d="M15,3.01V10"/>
		<path fill="none" stroke="#323232" stroke-width="1.5" stroke-linecap="round" stroke-linejoin="round" d="M9,4.78V19"/>
		<path fill="none" stroke="#323232" stroke-width="1.5" stroke-linecap="round" stroke-linejoin="round" d="M21,11V5.613
			c0-0.431-0.275-0.813-0.684-0.949l-4.684-1.561c-0.41-0.137-0.854-0.137-1.265-0.001L9.632,4.68c-0.411,0.137-0.854,0.137-1.265,0
			L4.316,3.33C3.669,3.114,3,3.596,3,4.279v11.339c0,0.379,0.214,0.725,0.553,0.895l4.553,2.276c0.563,0.282,1.226,0.282,1.789,0
			L11,18.236"/>
		<g>
			<path fill="none" stroke="#323232" stroke-width="1.5" stroke-linecap="round" stroke-linejoin="round" d="M18,13
				c2.209,0,4,1.791,4,4s-1.791,4-4,4s-4-1.791-4-4S15.791,13,18,13"/>
			<path fill="none" stroke="#323232" stroke-width="1.5" stroke-linecap="round" stroke-linejoin="round" d="M19.556,16.028
				l-1.945,1.945l-1.167-1.167"/>
		</g>
	</g>
	<path fill="none" d="M0,0h24v24H0V0z"/>
</g>
</svg>
