<?xml version="1.0" encoding="utf-8"?>
<!-- Generator: Adobe Illustrator 23.1.0, SVG Export Plug-In . SVG Version: 6.00 Build 0)  -->
<svg version="1.1" id="icons" xmlns="http://www.w3.org/2000/svg" xmlns:xlink="http://www.w3.org/1999/xlink" x="0px" y="0px"
	 width="24px" height="24px" viewBox="0 0 24 24" enable-background="new 0 0 24 24" xml:space="preserve">
<g>
	<rect fill="none" width="24" height="24"/>
	<g>
		<polyline fill="none" stroke="#323232" stroke-width="1.5" stroke-linecap="round" stroke-linejoin="round" points="13.821,9.273 
			10.188,7.451 6.545,9.273 6.545,16.545 10.188,14.724 13.821,16.545 17.455,14.724 17.455,7.451 13.821,9.273 		"/>
		
			<line fill="none" stroke="#323232" stroke-width="1.5" stroke-linecap="round" stroke-linejoin="round" x1="13.821" y1="16.545" x2="10.188" y2="14.724"/>
		
			<line fill="none" stroke="#323232" stroke-width="1.5" stroke-linecap="round" stroke-linejoin="round" x1="10.188" y1="7.451" x2="10.188" y2="14.724"/>
		
			<line fill="none" stroke="#323232" stroke-width="1.5" stroke-linecap="round" stroke-linejoin="round" x1="13.821" y1="16.545" x2="13.821" y2="9.273"/>
		<path fill="none" stroke="#323232" stroke-width="1.5" stroke-linecap="round" stroke-linejoin="round" d="M19.071,4.929
			c3.905,3.905,3.905,10.237,0,14.142c-3.905,3.905-10.237,3.905-14.142,0c-3.905-3.905-3.905-10.237,0-14.142
			C8.834,1.024,15.166,1.024,19.071,4.929"/>
	</g>
</g>
</svg>
