<svg id="Layer_3" data-name="Layer 3" xmlns="http://www.w3.org/2000/svg" viewBox="0 0 24 24"><title>Artboard 347</title><rect width="24" height="24" fill="none"/><path d="M12,3h0a7.77,7.77,0,0,1,7.77,7.77v5.939a1.831,1.831,0,0,1-1.831,1.831H12a7.77,7.77,0,0,1-7.77-7.77v0A7.77,7.77,0,0,1,12,3Z" transform="translate(11.13 -5.331) rotate(45)" fill="none" stroke="#323232" stroke-linecap="round" stroke-linejoin="round" stroke-width="1.5"/><path d="M12.29,13.707l3.417-3.417a1,1,0,0,0,0-1.412L14.122,7.293a1,1,0,0,0-1.412,0L9.293,10.71A1,1,0,0,0,9,11.416V14h2.584A1,1,0,0,0,12.29,13.707Z" fill="none" stroke="#323232" stroke-linecap="round" stroke-linejoin="round" stroke-width="1.5"/></svg>