<svg id="Layer_3" data-name="Layer 3" xmlns="http://www.w3.org/2000/svg" viewBox="0 0 24 24"><title>marker-line</title><path d="M0,0H24V24H0Z" fill="none"/><path d="M9.78,15.919l-.616.616a1.742,1.742,0,0,1-2.465,0L5.466,15.3a1.742,1.742,0,0,1,0-2.465l.616-.616" fill="none" stroke="#323232" stroke-linecap="round" stroke-linejoin="round" stroke-width="1.5"/><path d="M18.49,6.135,15.865,3.511a1.743,1.743,0,0,0-2.381-.08L6.252,9.76a1.743,1.743,0,0,0-.085,2.545L9.7,15.833a1.743,1.743,0,0,0,2.544-.084l6.329-7.233A1.745,1.745,0,0,0,18.49,6.135Z" fill="none" stroke="#323232" stroke-linecap="round" stroke-linejoin="round" stroke-width="1.5"/><line x1="3" y1="21" x2="21" y2="21" fill="none" stroke="#323232" stroke-linecap="round" stroke-linejoin="round" stroke-width="1.5"/><polyline points="7.484 16.982 6.427 18 4.234 18 3 16.535 5.02 14.514" fill="none" stroke="#323232" stroke-linecap="round" stroke-linejoin="round" stroke-width="1.5"/></svg>