<svg id="Layer_3" data-name="Layer 3" xmlns="http://www.w3.org/2000/svg" viewBox="0 0 24 24"><title>Artboard 312</title><path d="M12,3h0a7.77,7.77,0,0,1,7.77,7.77v5.939a1.831,1.831,0,0,1-1.831,1.831H12a7.77,7.77,0,0,1-7.77-7.77v0A7.77,7.77,0,0,1,12,3Z" transform="translate(11.13 -5.331) rotate(45)" fill="none" stroke="#323232" stroke-linecap="round" stroke-linejoin="round" stroke-width="1.5"/><path d="M12,13.693a.05.05,0,1,0,.05.05.051.051,0,0,0-.05-.05h0" fill="none" stroke="#323232" stroke-linecap="round" stroke-linejoin="round" stroke-width="1.5"/><path d="M12,11.668a1.563,1.563,0,1,0-1.556-1.626" fill="none" stroke="#323232" stroke-linecap="round" stroke-linejoin="round" stroke-width="1.5"/><rect width="24" height="24" fill="none"/></svg>