<svg id="Layer_3" data-name="Layer 3" xmlns="http://www.w3.org/2000/svg" viewBox="0 0 24 24"><title>marker-pin-off-sqaure</title><path d="M16,21H8a5,5,0,0,1-5-5V8A5,5,0,0,1,8,3h8a5,5,0,0,1,5,5v8A5,5,0,0,1,16,21Z" fill="none" stroke="#323232" stroke-linecap="round" stroke-linejoin="round" stroke-width="1.5"/><line x1="19.53553" y1="4.46447" x2="4.46447" y2="19.53553" fill="none" stroke="#323232" stroke-linecap="round" stroke-linejoin="round" stroke-width="1.5"/><path d="M9.17389,14.82611a28.23115,28.23115,0,0,0,1.8548,2.49487,1.24742,1.24742,0,0,0,1.94262,0C14.29419,15.729,16.5,12.76691,16.5,10.71429" fill="none" stroke="#323232" stroke-linecap="round" stroke-linejoin="round" stroke-width="1.5"/><path d="M8.09613,12.90387A5.54055,5.54055,0,0,1,7.5,10.71429" fill="none" stroke="#323232" stroke-linecap="round" stroke-linejoin="round" stroke-width="1.5"/><path d="M15.75616,8.24384A4.47384,4.47384,0,0,1,16.5,10.71429" fill="none" stroke="#323232" stroke-linecap="round" stroke-linejoin="round" stroke-width="1.5"/><path d="M14.19263,6.80737A4.45111,4.45111,0,0,0,12,6.21429a4.5,4.5,0,0,0-4.5,4.5" fill="none" stroke="#323232" stroke-linecap="round" stroke-linejoin="round" stroke-width="1.5"/><path d="M0,0H24V24H0Z" fill="none"/></svg>