<?xml version="1.0" encoding="utf-8"?>
<!-- Generator: Adobe Illustrator 24.0.2, SVG Export Plug-In . SVG Version: 6.00 Build 0)  -->
<svg version="1.1" id="Layer_1" xmlns="http://www.w3.org/2000/svg" xmlns:xlink="http://www.w3.org/1999/xlink" x="0px" y="0px"
	 width="24px" height="24px" viewBox="0 0 24 24" enable-background="new 0 0 24 24" xml:space="preserve">
<g>
	<path fill="none" d="M0,0h24v24H0V0z"/>
	<g>
		<path fill="none" stroke="#323232" stroke-width="1.5" stroke-linecap="round" stroke-linejoin="round" d="M13.061,9.67
			c0.586,0.586,0.586,1.536,0,2.121c-0.586,0.586-1.536,0.586-2.121,0c-0.586-0.586-0.586-1.536,0-2.121
			C11.525,9.085,12.475,9.085,13.061,9.67"/>
		<path fill="none" stroke="#323232" stroke-width="1.5" stroke-linecap="round" stroke-linejoin="round" d="M16.702,10.612
			L16.702,10.612c0,1.277-0.567,2.488-1.548,3.305l-1.541,1.285c-0.615,0.512-1.074,1.185-1.327,1.944L12,18l-0.285-0.854
			c-0.253-0.759-0.713-1.433-1.327-1.944l-1.542-1.285c-0.981-0.817-1.548-2.028-1.548-3.305l0,0v0.024C7.298,7.702,9.728,6,12,6
			s4.702,1.702,4.702,4.636"/>
		<g>
			<path fill="none" stroke="#323232" stroke-width="1.5" stroke-linecap="round" stroke-linejoin="round" d="M17,21H7
				c-2.209,0-4-1.791-4-4V7c0-2.209,1.791-4,4-4h10c2.209,0,4,1.791,4,4v10C21,19.209,19.209,21,17,21z"/>
		</g>
	</g>
</g>
</svg>
