<svg id="Layer_3" data-name="Layer 3" xmlns="http://www.w3.org/2000/svg" viewBox="0 0 24 24"><title>marker-pin-refresh-loading</title><path d="M14.629,10l.6-.6a3.495,3.495,0,0,1-3.815,4.816" fill="none" stroke="#323232" stroke-linecap="round" stroke-linejoin="round" stroke-width="1.5"/><path d="M9.371,11.538l-.6.6a3.494,3.494,0,0,1,4.013-4.775" fill="none" stroke="#323232" stroke-linecap="round" stroke-linejoin="round" stroke-width="1.5"/><path d="M10.705,20.464l-4.2-4.2a7.771,7.771,0,0,1,0-10.989h0a7.771,7.771,0,0,1,10.989,0h0a7.771,7.771,0,0,1,0,10.989l-4.2,4.2A1.833,1.833,0,0,1,10.705,20.464Z" fill="none" stroke="#323232" stroke-linecap="round" stroke-linejoin="round" stroke-width="1.5"/><rect width="24" height="24" fill="none"/></svg>