<svg id="Layer_3" data-name="Layer 3" xmlns="http://www.w3.org/2000/svg" viewBox="0 0 24 24"><title>measure-construction</title><path d="M8.5,3h0A5.5,5.5,0,0,1,14,8.5v4.333a2,2,0,0,1-2,2H5a2,2,0,0,1-2-2V8.5A5.5,5.5,0,0,1,8.5,3Z" fill="none" stroke="#323232" stroke-linecap="round" stroke-linejoin="round" stroke-width="1.5"/><path d="M8.5,6.667h0A1.833,1.833,0,0,1,10.333,8.5v1.833a.917.917,0,0,1-.917.917H7.583a.917.917,0,0,1-.917-.917V8.5A1.833,1.833,0,0,1,8.5,6.667Z" fill="none" stroke="#323232" stroke-linecap="round" stroke-linejoin="round" stroke-width="1.5"/><path d="M13.624,14H18.5A2.5,2.5,0,0,1,21,16.5h0A2.5,2.5,0,0,1,18.5,19H6v2" fill="none" stroke="#323232" stroke-linecap="round" stroke-linejoin="round" stroke-width="1.5"/><rect width="24" height="24" fill="none"/></svg>