<svg id="Layer_3" data-name="Layer 3" xmlns="http://www.w3.org/2000/svg" viewBox="0 0 24 24"><title>measure-ruler</title><rect width="24" height="24" fill="none"/><path d="M18.443,13.885A10.875,10.875,0,0,0,19.732,12.8" fill="none" stroke="#323232" stroke-linecap="round" stroke-linejoin="round" stroke-width="1.5"/><path d="M4.268,12.8a10.875,10.875,0,0,0,1.289,1.088" fill="none" stroke="#323232" stroke-linecap="round" stroke-linejoin="round" stroke-width="1.5"/><path d="M10.5,5.369V3.5A1.5,1.5,0,0,1,12,2h0a1.5,1.5,0,0,1,1.5,1.5V5.37" fill="none" stroke="#323232" stroke-linecap="round" stroke-linejoin="round" stroke-width="1.5"/><circle cx="12" cy="8" r="3" fill="none" stroke="#323232" stroke-linecap="round" stroke-linejoin="round" stroke-width="1.5"/><path d="M12.911,10.864,17.979,21H20V17L14.894,6.789A3.236,3.236,0,0,0,12,5h0A3.236,3.236,0,0,0,9.106,6.789L4,17v4H6l5.068-10.136" fill="none" stroke="#323232" stroke-linecap="round" stroke-linejoin="round" stroke-width="1.5"/><path d="M15.233,15.508A10.975,10.975,0,0,1,8.749,15.5" fill="none" stroke="#323232" stroke-linecap="round" stroke-linejoin="round" stroke-width="1.5"/><path d="M11.95,8A.05.05,0,1,0,12,7.95a.05.05,0,0,0-.05.05" fill="none" stroke="#323232" stroke-linecap="round" stroke-linejoin="round" stroke-width="1.5"/></svg>