<svg id="Layer_3" data-name="Layer 3" xmlns="http://www.w3.org/2000/svg" viewBox="0 0 24 24"><title>media-library-note</title><path d="M0,0H24V24H0Z" fill="none"/><path d="M9,21H5a2,2,0,0,1-2-2V8.5A1.5,1.5,0,0,1,4.5,7h14A1.5,1.5,0,0,1,20,8.5V10" fill="none" stroke="#323232" stroke-linecap="round" stroke-linejoin="round" stroke-width="1.5"/><path d="M4.5,7h14" fill="none" stroke="#323232" stroke-linecap="round" stroke-linejoin="round" stroke-width="1.5"/><path d="M6,4H17" fill="none" stroke="#323232" stroke-linecap="round" stroke-linejoin="round" stroke-width="1.5"/><path d="M14.873,19.358a1.548,1.548,0,1,1-2.189,0,1.549,1.549,0,0,1,2.189,0" fill="none" stroke="#323232" stroke-linecap="round" stroke-linejoin="round" stroke-width="1.5"/><path d="M20.547,18.326a1.548,1.548,0,1,1-2.189,0,1.549,1.549,0,0,1,2.189,0" fill="none" stroke="#323232" stroke-linecap="round" stroke-linejoin="round" stroke-width="1.5"/><path d="M15.326,20.452V15.476a1.029,1.029,0,0,1,.649-.957l3.611-1.444A1.031,1.031,0,0,1,21,14.032v5.389" fill="none" stroke="#323232" stroke-linecap="round" stroke-linejoin="round" stroke-width="1.5"/></svg>