<svg id="Layer_3" data-name="Layer 3" xmlns="http://www.w3.org/2000/svg" viewBox="0 0 24 24"><title>media-library-playlist-play-note</title><path d="M21,10V7.5A4.5,4.5,0,0,0,16.5,3h-9A4.5,4.5,0,0,0,3,7.5v9A4.5,4.5,0,0,0,7.5,21H10" fill="none" stroke="#323232" stroke-linecap="round" stroke-linejoin="round" stroke-width="1.5"/><line x1="12" y1="16" x2="11" y2="16" fill="none" stroke="#323232" stroke-linecap="round" stroke-linejoin="round" stroke-width="1.5"/><path d="M16.06,19.439a1.5,1.5,0,1,1-2.121,0,1.5,1.5,0,0,1,2.121,0" fill="none" stroke="#323232" stroke-linecap="round" stroke-linejoin="round" stroke-width="1.5"/><path d="M21.56,18.439a1.5,1.5,0,1,1-2.121,0,1.5,1.5,0,0,1,2.121,0" fill="none" stroke="#323232" stroke-linecap="round" stroke-linejoin="round" stroke-width="1.5"/><path d="M16.5,20.5V15.678a1,1,0,0,1,.629-.928l3.5-1.4A1,1,0,0,1,22,14.278V19.5" fill="none" stroke="#323232" stroke-linecap="round" stroke-linejoin="round" stroke-width="1.5"/><line x1="11" y1="12" x2="14" y2="12" fill="none" stroke="#323232" stroke-linecap="round" stroke-linejoin="round" stroke-width="1.5"/><line x1="11" y1="8" x2="17" y2="8" fill="none" stroke="#323232" stroke-linecap="round" stroke-linejoin="round" stroke-width="1.5"/><path d="M7,16.25A.247.247,0,0,1,6.75,16,.25.25,0,1,1,7,16.25" fill="none" stroke="#323232" stroke-linecap="round" stroke-linejoin="round" stroke-width="1.5"/><path d="M7,12.25A.247.247,0,0,1,6.75,12,.25.25,0,1,1,7,12.25" fill="none" stroke="#323232" stroke-linecap="round" stroke-linejoin="round" stroke-width="1.5"/><path d="M7,8.25A.247.247,0,0,1,6.75,8,.25.25,0,1,1,7,8.25" fill="none" stroke="#323232" stroke-linecap="round" stroke-linejoin="round" stroke-width="1.5"/><rect width="24" height="24" fill="none"/></svg>