<?xml version="1.0" encoding="utf-8"?>
<!-- Generator: Adobe Illustrator 24.0.2, SVG Export Plug-In . SVG Version: 6.00 Build 0)  -->
<svg version="1.1" id="Layer_1" xmlns="http://www.w3.org/2000/svg" xmlns:xlink="http://www.w3.org/1999/xlink" x="0px" y="0px"
	 width="24px" height="24px" viewBox="0 0 24 24" enable-background="new 0 0 24 24" xml:space="preserve">
<g>
	<path fill="none" stroke="#323232" stroke-width="1.5" stroke-linecap="round" stroke-linejoin="round" d="M16.984,8.589l0.5,0.866
		c0.276,0.478,0.112,1.09-0.366,1.366L15,12.044l2.118,1.223c0.478,0.276,0.642,0.888,0.366,1.366l-0.5,0.866
		c-0.276,0.478-0.888,0.642-1.366,0.366L13.5,14.642v2.446c0,0.552-0.448,1-1,1h-1c-0.552,0-1-0.448-1-1v-2.446l-2.118,1.223
		c-0.478,0.276-1.09,0.112-1.366-0.366l-0.5-0.866c-0.276-0.478-0.112-1.09,0.366-1.366L9,12.044l-2.118-1.223
		C6.403,10.545,6.24,9.933,6.516,9.455l0.5-0.866c0.276-0.478,0.888-0.642,1.366-0.366L10.5,9.446V7c0-0.552,0.448-1,1-1h1
		c0.552,0,1,0.448,1,1v2.446l2.118-1.223C16.097,7.947,16.708,8.111,16.984,8.589z"/>
</g>
<path fill="none" stroke="#323232" stroke-width="1.5" stroke-linecap="round" stroke-linejoin="round" d="M12,21
	c-4.972,0-9-4.031-9-9s4.028-9,9-9c4.969,0,9,4.031,9,9S16.969,21,12,21"/>
<path fill="none" d="M0,0h24v24H0V0z"/>
</svg>
