<svg id="Layer_3" data-name="Layer 3" xmlns="http://www.w3.org/2000/svg" viewBox="0 0 24 24"><title>media-library-playlist-play</title><path d="M14,21H5a2,2,0,0,1-2-2V10A2,2,0,0,1,5,8H18a2,2,0,0,1,2,2v3" fill="none" stroke="#323232" stroke-linecap="round" stroke-linejoin="round" stroke-width="1.5"/><path d="M22,17h0a5,5,0,0,1-5,5h0a5,5,0,0,1-5-5h0a5,5,0,0,1,5-5h0A5,5,0,0,1,22,17Z" fill="none" stroke="#323232" stroke-linecap="round" stroke-linejoin="round" stroke-width="1.5"/><path d="M16.353,15.2l2.372,1.4a.458.458,0,0,1,0,.789l-2.372,1.4a.458.458,0,0,1-.692-.395V15.6A.458.458,0,0,1,16.353,15.2Z" fill="none" stroke="#323232" stroke-linecap="round" stroke-linejoin="round" stroke-width="1.5"/><line x1="5.5" y1="5" x2="17.5" y2="5" fill="none" stroke="#323232" stroke-linecap="round" stroke-linejoin="round" stroke-width="1.5"/><line x1="7.5" y1="2" x2="16.5" y2="2" fill="none" stroke="#323232" stroke-linecap="round" stroke-linejoin="round" stroke-width="1.5"/><path d="M0,0H24V24H0Z" fill="none"/></svg>