<?xml version="1.0" encoding="utf-8"?>
<!-- Generator: Adobe Illustrator 24.0.2, SVG Export Plug-In . SVG Version: 6.00 Build 0)  -->
<svg version="1.1" id="Layer_1" xmlns="http://www.w3.org/2000/svg" xmlns:xlink="http://www.w3.org/1999/xlink" x="0px" y="0px"
	 width="24px" height="24px" viewBox="0 0 24 24" enable-background="new 0 0 24 24" xml:space="preserve">
<g>
	<g>
		<g>
			<g>
				<path fill="none" d="M24,24H0V0h24V24z"/>
			</g>
		</g>
	</g>
	<g>
		<g>
			<path fill="none" stroke="#323232" stroke-width="1.5" stroke-linecap="round" stroke-linejoin="round" d="M7.286,14.667H3"/>
			<path fill="none" stroke="#323232" stroke-width="1.5" stroke-linecap="round" stroke-linejoin="round" d="M9,9.333H3"/>
		</g>
		<path fill="none" stroke="#323232" stroke-width="1.5" stroke-linecap="round" stroke-linejoin="round" d="M21,20H3"/>
		<path fill="none" stroke="#323232" stroke-width="1.5" stroke-linecap="round" stroke-linejoin="round" d="M13.642,13.858
			c0.604,0.604,0.604,1.584,0,2.189c-0.604,0.604-1.584,0.604-2.189,0c-0.604-0.604-0.604-1.584,0-2.189
			C12.058,13.254,13.037,13.254,13.642,13.858"/>
		<path fill="none" stroke="#323232" stroke-width="1.5" stroke-linecap="round" stroke-linejoin="round" d="M19.316,12.827
			c0.604,0.604,0.604,1.584,0,2.189c-0.604,0.604-1.584,0.604-2.189,0c-0.604-0.604-0.604-1.584,0-2.189
			C17.732,12.222,18.712,12.222,19.316,12.827"/>
		<path fill="none" stroke="#323232" stroke-width="1.5" stroke-linecap="round" stroke-linejoin="round" d="M14.095,14.953V9.977
			c0-0.422,0.257-0.802,0.649-0.957l3.611-1.444c0.678-0.271,1.414,0.228,1.414,0.957v5.389"/>
		<path fill="none" stroke="#323232" stroke-width="1.5" stroke-linecap="round" stroke-linejoin="round" d="M20,4H3"/>
	</g>
</g>
</svg>
