<svg id="Layer_3" data-name="Layer 3" xmlns="http://www.w3.org/2000/svg" viewBox="0 0 24 24"><title>memory-ram_1</title><path d="M6.13365,20.7993a.47723.47723,0,0,1-.0869-.58566,1.63683,1.63683,0,0,0-2.26041-2.26032.47719.47719,0,0,1-.58559-.08692l-.90884-.90882a.99667.99667,0,0,1,0-1.4095L15.54808,2.29192a.99664.99664,0,0,1,1.40949,0l4.7505,4.7505a.99664.99664,0,0,1,0,1.40949L8.45191,21.70808a.99666.99666,0,0,1-1.40949,0Z" fill="none" stroke="#323232" stroke-linecap="round" stroke-linejoin="round" stroke-width="1.5"/><path d="M0,0H24V24H0Z" fill="none"/><rect x="5.9329" y="9.97192" width="13.29148" height="2.89899" rx="0.5" transform="translate(-4.39196 12.2397) rotate(-45)" stroke-width="1.5" stroke="#323232" stroke-linecap="round" stroke-linejoin="round" fill="none"/></svg>