<?xml version="1.0" encoding="utf-8"?>
<!-- Generator: Adobe Illustrator 24.0.2, SVG Export Plug-In . SVG Version: 6.00 Build 0)  -->
<svg version="1.1" id="Layer_3" xmlns="http://www.w3.org/2000/svg" xmlns:xlink="http://www.w3.org/1999/xlink" x="0px" y="0px"
	 width="24px" height="24px" viewBox="0 0 24 24" enable-background="new 0 0 24 24" xml:space="preserve">
<g>
	<g>
		<path fill="none" stroke="#323232" stroke-width="1.5" stroke-linecap="round" stroke-linejoin="round" d="M11.625,12.001
			c0,0.207,0.168,0.375,0.375,0.373c0.207,0,0.375-0.168,0.375-0.375S12.207,11.624,12,11.624
			C11.793,11.625,11.625,11.793,11.625,12.001"/>
		<path fill="none" stroke="#323232" stroke-width="1.5" stroke-linecap="round" stroke-linejoin="round" d="M11.625,8.001
			c0,0.207,0.168,0.375,0.375,0.373c0.207,0,0.375-0.168,0.375-0.375c0-0.207-0.168-0.375-0.375-0.375
			C11.793,7.625,11.625,7.793,11.625,8.001"/>
		<path fill="none" stroke="#323232" stroke-width="1.5" stroke-linecap="round" stroke-linejoin="round" d="M11.625,16.001
			c0,0.207,0.168,0.375,0.375,0.373c0.207,0,0.375-0.168,0.375-0.375c0-0.207-0.168-0.375-0.375-0.375
			C11.793,15.625,11.625,15.793,11.625,16.001"/>
		<g>
			<path fill="none" stroke="#323232" stroke-width="1.5" stroke-linecap="round" stroke-linejoin="round" d="M21,7v10
				c0,2.209-1.791,4-4,4H7c-2.209,0-4-1.791-4-4V7c0-2.209,1.791-4,4-4h10C19.209,3,21,4.791,21,7z"/>
		</g>
	</g>
	<path fill="none" d="M0,24V0h24v24H0z"/>
</g>
</svg>
