<?xml version="1.0" encoding="utf-8"?>
<!-- Generator: Adobe Illustrator 24.0.2, SVG Export Plug-In . SVG Version: 6.00 Build 0)  -->
<svg version="1.1" id="Layer_3" xmlns="http://www.w3.org/2000/svg" xmlns:xlink="http://www.w3.org/1999/xlink" x="0px" y="0px"
	 width="24px" height="24px" viewBox="0 0 24 24" enable-background="new 0 0 24 24" xml:space="preserve">
<g>
	<g>
		<path fill="none" d="M0,0h24v24H0V0z"/>
	</g>
	<g>
		<path fill="none" stroke="#323232" stroke-width="1.5" stroke-linecap="round" stroke-linejoin="round" d="M16,3H5
			C3.895,3,3,3.895,3,5v10"/>
		
			<path fill-rule="evenodd" clip-rule="evenodd" fill="none" stroke="#323232" stroke-width="1.5" stroke-linecap="round" stroke-linejoin="round" d="
			M19.444,21H8.556C7.696,21,7,20.304,7,19.444V8.556C7,7.696,7.696,7,8.556,7h10.889C20.304,7,21,7.696,21,8.556v10.889
			C21,20.304,20.304,21,19.444,21z"/>
		
			<line fill="none" stroke="#323232" stroke-width="1.5" stroke-linecap="round" stroke-linejoin="round" x1="17.889" y1="10.889" x2="13.222" y2="10.889"/>
		
			<line fill="none" stroke="#323232" stroke-width="1.5" stroke-linecap="round" stroke-linejoin="round" x1="13.222" y1="14" x2="17.889" y2="14"/>
		
			<line fill="none" stroke="#323232" stroke-width="1.5" stroke-linecap="round" stroke-linejoin="round" x1="13.222" y1="17.111" x2="17.889" y2="17.111"/>
		<path fill="none" stroke="#323232" stroke-width="1.5" stroke-linecap="round" stroke-linejoin="round" d="M10.11,16.917
			c-0.107,0-0.194,0.087-0.194,0.194c0,0.107,0.087,0.194,0.194,0.194c0.107,0,0.194-0.087,0.194-0.194S10.218,16.917,10.11,16.917"
			/>
		<path fill="none" stroke="#323232" stroke-width="1.5" stroke-linecap="round" stroke-linejoin="round" d="M10.11,13.806
			c-0.107,0-0.194,0.087-0.194,0.194c0,0.107,0.087,0.194,0.194,0.194c0.107,0,0.194-0.087,0.194-0.194S10.218,13.806,10.11,13.806"
			/>
		<path fill="none" stroke="#323232" stroke-width="1.5" stroke-linecap="round" stroke-linejoin="round" d="M10.11,10.694
			c-0.107,0-0.194,0.087-0.194,0.194c0,0.107,0.087,0.194,0.194,0.194c0.107,0,0.194-0.087,0.194-0.194
			C10.306,10.782,10.218,10.694,10.11,10.694"/>
	</g>
</g>
</svg>
