<?xml version="1.0" encoding="utf-8"?>
<!-- Generator: Adobe Illustrator 23.1.0, SVG Export Plug-In . SVG Version: 6.00 Build 0)  -->
<svg version="1.1" id="icons" xmlns="http://www.w3.org/2000/svg" xmlns:xlink="http://www.w3.org/1999/xlink" x="0px" y="0px"
	 width="24px" height="24px" viewBox="0 0 24 24" enable-background="new 0 0 24 24" xml:space="preserve">
<g>
	<g>
		<path fill="none" stroke="#323232" stroke-width="1.5" stroke-linecap="round" stroke-linejoin="round" d="M8,4l1.3-1.625
			C9.49,2.138,9.777,2,10.081,2h3.839c0.304,0,0.591,0.138,0.781,0.375L16,4l0,0v1c0,0.552-0.448,1-1,1H9C8.448,6,8,5.552,8,5V4L8,4
			z"/>
		<path fill="none" stroke="#323232" stroke-width="1.5" stroke-linecap="round" stroke-linejoin="round" d="M9.667,9.333L8,11l-1-1
			"/>
		<path fill="none" stroke="#323232" stroke-width="1.5" stroke-linecap="round" stroke-linejoin="round" d="M13,10h3"/>
		<path fill="none" stroke="#323232" stroke-width="1.5" stroke-linecap="round" stroke-linejoin="round" d="M9,20H6
			c-1.105,0-2-0.895-2-2V6c0-1.105,0.895-2,2-2h2"/>
		<path fill="none" stroke="#323232" stroke-width="1.5" stroke-linecap="round" stroke-linejoin="round" d="M16,4h2
			c1.105,0,2,0.895,2,2v2"/>
		<path fill="none" stroke="#323232" stroke-width="1.5" stroke-linecap="round" stroke-linejoin="round" d="M18.262,15.167h-1.167
			V14c0-1.105,0.895-2,2-2h1.167v1.167C20.262,14.271,19.366,15.167,18.262,15.167z"/>
		<path fill="none" stroke="#323232" stroke-width="1.5" stroke-linecap="round" stroke-linejoin="round" d="M16.999,22
			c-2.21,0-4.001-1.748-4.001-3.905"/>
		<path fill="none" stroke="#323232" stroke-width="1.5" stroke-linecap="round" stroke-linejoin="round" d="M12.998,18.095
			c0-1.704,0.8-2.929,2.401-2.929"/>
		<path fill="none" stroke="#323232" stroke-width="1.5" stroke-linecap="round" stroke-linejoin="round" d="M16.999,22
			C19.209,22,21,20.252,21,18.095"/>
		<path fill="none" stroke="#323232" stroke-width="1.5" stroke-linecap="round" stroke-linejoin="round" d="M21,18.095
			c0-1.704-0.8-2.929-2.401-2.929"/>
		<path fill="none" stroke="#323232" stroke-width="1.5" stroke-linecap="round" stroke-linejoin="round" d="M18.599,15.167
			c-0.8,0-1.254,0.25-1.6,0.25s-0.8-0.25-1.6-0.25"/>
		
			<line fill="none" stroke="#323232" stroke-width="1.5" stroke-linecap="round" stroke-linejoin="round" x1="7" y1="15" x2="10" y2="15"/>
	</g>
	<path fill="none" d="M0,0h24v24H0V0z"/>
</g>
</svg>
