<svg id="Layer_3" data-name="Layer 3" xmlns="http://www.w3.org/2000/svg" viewBox="0 0 24 24"><title>Artboard 175</title><rect width="24" height="24" fill="none"/><rect x="3" y="3" width="18" height="18" rx="5" stroke-width="1.5" stroke="#323232" stroke-linecap="round" stroke-linejoin="round" fill="none"/><path id="Shape_3077" data-name="Shape 3077" d="M9.5,9a.5.5,0,1,0-.5.5A.5.5,0,0,0,9.5,9" fill="none" stroke="#323232" stroke-linecap="round" stroke-linejoin="round" stroke-width="1.5"/><path id="Shape_3077-2" data-name="Shape 3077" d="M15.5,9a.5.5,0,1,0-.5.5.5.5,0,0,0,.5-.5" fill="none" stroke="#323232" stroke-linecap="round" stroke-linejoin="round" stroke-width="1.5"/><path id="Shape_3077-3" data-name="Shape 3077" d="M9.5,15a.5.5,0,1,0-.5.5.5.5,0,0,0,.5-.5" fill="none" stroke="#323232" stroke-linecap="round" stroke-linejoin="round" stroke-width="1.5"/><path id="Shape_3077-4" data-name="Shape 3077" d="M15.5,15a.5.5,0,1,0-.5.5.5.5,0,0,0,.5-.5" fill="none" stroke="#323232" stroke-linecap="round" stroke-linejoin="round" stroke-width="1.5"/><rect width="24" height="24" fill="none"/></svg>