<?xml version="1.0" encoding="utf-8"?>
<!-- Generator: Adobe Illustrator 24.0.2, SVG Export Plug-In . SVG Version: 6.00 Build 0)  -->
<svg version="1.1" id="Layer_3" xmlns="http://www.w3.org/2000/svg" xmlns:xlink="http://www.w3.org/1999/xlink" x="0px" y="0px"
	 width="24px" height="24px" viewBox="0 0 24 24" enable-background="new 0 0 24 24" xml:space="preserve">
<g>
	<path fill="none" d="M24,24.006H0v-24h24V24.006z"/>
	<g>
		<g>
			<path fill="none" stroke="#323232" stroke-width="1.5" stroke-linecap="round" stroke-linejoin="round" d="M9.188,18.006
				l1.912,2.55c0.45,0.6,1.35,0.6,1.8,0l1.912-2.55H18c1.657,0,3-1.343,3-3v-9c0-1.657-1.343-3-3-3H6c-1.657,0-3,1.343-3,3v9
				c0,1.657,1.343,3,3,3C6,18.006,9.188,18.006,9.188,18.006z"/>
		</g>
		<path fill="none" stroke="#323232" stroke-width="1.5" stroke-linecap="round" stroke-linejoin="round" d="M12,7.862
			c0.357-0.403,0.975-0.856,1.916-0.856c1.647,0,2.751,1.489,2.751,2.877c0,2.9-3.744,5.123-4.667,5.123
			c-0.923,0-4.667-2.223-4.667-5.123c0-1.388,1.104-2.877,2.751-2.877C11.025,7.006,11.643,7.459,12,7.862z"/>
	</g>
</g>
</svg>
