<svg id="Layer_3" data-name="Layer 3" xmlns="http://www.w3.org/2000/svg" viewBox="0 0 24 24"><title>message-circle</title><path d="M0,0H24V24H0Z" fill="none"/><path d="M10.889,14.722h-.278A3.611,3.611,0,0,1,7,11.111H7A3.611,3.611,0,0,1,10.611,7.5H13a4,4,0,0,1,4,4h0a4,4,0,0,1-1.9,3.409L10.889,17.5V14.722" fill="none" stroke="#323232" stroke-linecap="round" stroke-linejoin="round" stroke-width="1.5"/><path d="M21,12h0a8.99944,8.99944,0,0,1-9,9h0a8.99944,8.99944,0,0,1-9-9H3a8.99944,8.99944,0,0,1,9-9h0A8.99944,8.99944,0,0,1,21,12Z" fill="none" stroke="#323232" stroke-linecap="round" stroke-linejoin="round" stroke-width="1.5"/></svg>