<?xml version="1.0" encoding="utf-8"?>
<!-- Generator: Adobe Illustrator 24.0.2, SVG Export Plug-In . SVG Version: 6.00 Build 0)  -->
<svg version="1.1" id="Layer_3" xmlns="http://www.w3.org/2000/svg" xmlns:xlink="http://www.w3.org/1999/xlink" x="0px" y="0px"
	 width="24px" height="24px" viewBox="0 0 24 24" enable-background="new 0 0 24 24" xml:space="preserve">
<g>
	<path fill="none" d="M0,0h24v24H0V0z"/>
	<g>
		<path fill="none" stroke="#323232" stroke-width="1.5" stroke-linecap="round" stroke-linejoin="round" d="M21,9V6
			c0-1.657-1.343-3-3-3H6C4.343,3,3,4.343,3,6v11c0,1.657,1.343,3,3,3h2"/>
		<path fill="none" stroke="#323232" stroke-width="1.5" stroke-linecap="round" stroke-linejoin="round" d="M18.726,12.685
			l3.017,5.362C22.485,19.368,21.532,21,20.016,21h-6.033c-1.515,0-2.469-1.631-1.726-2.952l3.017-5.362
			C16.03,11.338,17.968,11.338,18.726,12.685z"/>
		<path fill="none" stroke="#323232" stroke-width="1.5" stroke-linecap="round" stroke-linejoin="round" d="M17,16.465v-1.817"/>
		<path fill="none" stroke="#323232" stroke-width="1.5" stroke-linecap="round" stroke-linejoin="round" d="M16.999,18.469
			c-0.05,0-0.09,0.041-0.089,0.09c0,0.05,0.041,0.09,0.09,0.09s0.089-0.041,0.089-0.09S17.049,18.469,16.999,18.469"/>
		
			<line fill="none" stroke="#323232" stroke-width="1.5" stroke-linecap="round" stroke-linejoin="round" x1="7" y1="7.5" x2="17" y2="7.5"/>
		
			<line fill="none" stroke="#323232" stroke-width="1.5" stroke-linecap="round" stroke-linejoin="round" x1="7" y1="12" x2="11" y2="12"/>
	</g>
</g>
</svg>
