<svg id="Layer_3" data-name="Layer 3" xmlns="http://www.w3.org/2000/svg" viewBox="0 0 24 24"><title>meteorite=comet</title><path d="M14.36206,5.9978l-.38639-1.93195a.858.858,0,0,0-1.225-.59914L8.0099,5.83708A10.57416,10.57416,0,0,0,5.2617,7.81787h0a7.72192,7.72192,0,0,0,0,10.92043h0a7.72192,7.72192,0,0,0,10.92043,0h0a10.57416,10.57416,0,0,0,1.98079-2.7482l2.37037-4.74074a.858.858,0,0,0-.59914-1.225l-1.932-.38639,2.89093-5.36886a.858.858,0,0,0-1.16221-1.16221Z" fill="none" stroke="#323232" stroke-linecap="round" stroke-linejoin="round" stroke-width="1.5"/><circle cx="10.5" cy="13.5" r="4" fill="none" stroke="#323232" stroke-linecap="round" stroke-linejoin="round" stroke-width="1.5"/><path d="M0,0H24V24H0Z" fill="none"/></svg>