<svg id="Layer_3" data-name="Layer 3" xmlns="http://www.w3.org/2000/svg" viewBox="0 0 24 24"><title>microbe-bacterium-search</title><path d="M0,0H24V24H0Z" fill="none"/><path d="M9,15.95a.05.05,0,1,1-.05.05A.05.05,0,0,1,9,15.95" fill="none" stroke="#323232" stroke-linecap="round" stroke-linejoin="round" stroke-width="1.5"/><path d="M10,7.45a.05.05,0,1,1-.05.05A.05.05,0,0,1,10,7.45" fill="none" stroke="#323232" stroke-linecap="round" stroke-linejoin="round" stroke-width="1.5"/><path d="M13,10a2,2,0,0,1,2-2" fill="none" stroke="#323232" stroke-linecap="round" stroke-linejoin="round" stroke-width="1.5"/><path d="M12,21H8a5,5,0,0,1-5-5V8A5,5,0,0,1,8,3h8a5,5,0,0,1,5,5v2" fill="none" stroke="#323232" stroke-linecap="round" stroke-linejoin="round" stroke-width="1.5"/><path d="M19,13.041a3.554,3.554,0,1,1-5.026,0,3.554,3.554,0,0,1,5.026,0" fill="none" stroke="#323232" stroke-linecap="round" stroke-linejoin="round" stroke-width="1.5"/><path d="M21,20.067l-2-2Z" fill="none" stroke="#323232" stroke-linecap="round" stroke-linejoin="round" stroke-width="1.5"/><path d="M7,11.067A1.561,1.561,0,0,1,9,12" fill="none" stroke="#323232" stroke-linecap="round" stroke-linejoin="round" stroke-width="1.5"/></svg>