<?xml version="1.0" encoding="utf-8"?>
<!-- Generator: Adobe Illustrator 23.1.0, SVG Export Plug-In . SVG Version: 6.00 Build 0)  -->
<svg version="1.1" id="icons" xmlns="http://www.w3.org/2000/svg" xmlns:xlink="http://www.w3.org/1999/xlink" x="0px" y="0px"
	 width="24px" height="24px" viewBox="0 0 24 24" enable-background="new 0 0 24 24" xml:space="preserve">
<g>
	<g>
		<path fill="none" stroke="#323232" stroke-width="1.5" stroke-linecap="round" stroke-linejoin="round" d="M6.051,13.101
			l4.051-4.051C10.101,6.814,8.288,5,6.051,5S2,6.814,2,9.051S3.814,13.101,6.051,13.101z"/>
		<path fill="none" stroke="#323232" stroke-width="1.5" stroke-linecap="round" stroke-linejoin="round" d="M9.865,9.287
			l5.061,6.694c0.278,0.368,0.242,0.884-0.084,1.21l-0.652,0.652c-0.326,0.326-0.842,0.361-1.21,0.084l-6.694-5.061"/>
		
			<path fill="none" stroke="#323232" stroke-width="1.5" stroke-linecap="round" stroke-linejoin="round" stroke-miterlimit="10" d="
			M22,11l-1.746-1.746c-0.951-0.951-2.492-0.951-3.443,0l0,0c-0.951,0.951-0.951,2.492,0,3.443l1.262,1.262l1.205,1.205
			c0.982,0.982,0.982,2.575,0,3.557l0,0c-0.982,0.982-2.575,0.982-3.557,0l-1.205-1.205"/>
	</g>
	<rect y="0" fill="none" width="24" height="24"/>
</g>
</svg>
