<svg id="Layer_3" data-name="Layer 3" xmlns="http://www.w3.org/2000/svg" viewBox="0 0 24 24"><title>microphone-mic-rec-square</title><path d="M17.39,9.117a3.4,3.4,0,0,0-6.7.572.51.51,0,0,0,.153.387l3.078,3.079a.506.506,0,0,0,.388.152A3.4,3.4,0,0,0,17.39,9.117Z" fill="none" stroke="#323232" stroke-linecap="round" stroke-linejoin="round" stroke-width="1.5"/><path d="M7.481,16.519l-.962.962" fill="none" stroke="#323232" stroke-linecap="round" stroke-linejoin="round" stroke-width="1.5"/><path d="M10.881,10.118,7.187,15.005a1,1,0,0,0,.091,1.311l.407.407A1,1,0,0,0,9,16.814l4.885-3.695" fill="none" stroke="#323232" stroke-linecap="round" stroke-linejoin="round" stroke-width="1.5"/><rect x="3" y="3" width="18" height="18" rx="5" transform="translate(24 24) rotate(180)" stroke-width="1.5" stroke="#323232" stroke-linecap="round" stroke-linejoin="round" fill="none"/><path d="M24,24H0V0H24Z" fill="none"/></svg>