<svg id="Layer_3" data-name="Layer 3" xmlns="http://www.w3.org/2000/svg" viewBox="0 0 24 24"><title>Artboard 52</title><path d="M0,0H24V24H0Z" fill="none"/><path d="M9,15H9a3,3,0,0,1-3-3V6A3,3,0,0,1,9,3H9a3,3,0,0,1,3,3v6A3,3,0,0,1,9,15Z" fill="none" stroke="#323232" stroke-linecap="round" stroke-linejoin="round" stroke-width="1.5"/><path d="M21,3,18,6,16.2,4.2" fill="none" stroke="#323232" stroke-linecap="round" stroke-linejoin="round" stroke-width="1.5"/><path d="M15,11v1a6,6,0,0,1-6,6H9a6,6,0,0,1-6-6V11" fill="none" stroke="#323232" stroke-linecap="round" stroke-linejoin="round" stroke-width="1.5"/><path d="M9,18v3" fill="none" stroke="#323232" stroke-linecap="round" stroke-linejoin="round" stroke-width="1.5"/><path d="M6,21h6" fill="none" stroke="#323232" stroke-linecap="round" stroke-linejoin="round" stroke-width="1.5"/></svg>