<svg id="Layer_3" data-name="Layer 3" xmlns="http://www.w3.org/2000/svg" viewBox="0 0 24 24"><title>microchip-processor-cpu</title><path d="M0,0H24V24H0Z" fill="none"/><rect x="3" y="3" width="18" height="18" rx="4" stroke-width="1.5" stroke="#323232" stroke-linecap="round" stroke-linejoin="round" fill="none"/><path d="M8,13V11L7,10V8.5A1.5,1.5,0,0,1,8.5,7H10l1,1h2l1-1h1.5A1.5,1.5,0,0,1,17,8.5V10l-1,1v2l1,1v1.5A1.5,1.5,0,0,1,15.5,17H14l-1-1H11l-1,1H8.5A1.5,1.5,0,0,1,7,15.5V14Z" fill="none" stroke="#323232" stroke-linecap="round" stroke-linejoin="round" stroke-width="1.5"/></svg>