<svg id="Layer_3" data-name="Layer 3" xmlns="http://www.w3.org/2000/svg" viewBox="0 0 24 24"><title>microphone-mic-rec</title><rect width="24" height="24" fill="none"/><path d="M20.883,7.092a5.215,5.215,0,0,0-10.29.67.979.979,0,0,0,.3.767l4.579,4.579a.977.977,0,0,0,.766.3A5.219,5.219,0,0,0,20.883,7.092Z" fill="none" stroke="#323232" stroke-linecap="round" stroke-linejoin="round" stroke-width="1.5"/><path d="M15.484,13.123,6.87,19.636a1.191,1.191,0,0,1-1.557-.108l-.84-.839a1.19,1.19,0,0,1-.107-1.558l6.512-8.614" fill="none" stroke="#323232" stroke-linecap="round" stroke-linejoin="round" stroke-width="1.5"/><line x1="4.892" y1="19.108" x2="3" y2="21" fill="none" stroke="#323232" stroke-linecap="round" stroke-linejoin="round" stroke-width="1.5"/></svg>