<?xml version="1.0" encoding="utf-8"?>
<!-- Generator: Adobe Illustrator 24.0.2, SVG Export Plug-In . SVG Version: 6.00 Build 0)  -->
<svg version="1.1" id="Layer_1" xmlns="http://www.w3.org/2000/svg" xmlns:xlink="http://www.w3.org/1999/xlink" x="0px" y="0px"
	 width="24px" height="24px" viewBox="0 0 24 24" enable-background="new 0 0 24 24" xml:space="preserve">
<g>
	<path fill="none" d="M0,0h24v24H0V0z"/>
	<g>
		<path fill="none" stroke="#323232" stroke-width="1.5" stroke-linecap="round" stroke-linejoin="round" d="M12,21
			c-4.972,0-9-4.031-9-9s4.028-9,9-9c4.969,0,9,4.031,9,9S16.969,21,12,21"/>
		<path fill="none" stroke="#323232" stroke-width="1.5" stroke-linecap="round" stroke-linejoin="round" d="M17,12
			c0,1.105-0.895,2-2,2h0c-1.105,0-2,0.895-2,2"/>
		<path fill="none" stroke="#323232" stroke-width="1.5" stroke-linecap="round" stroke-linejoin="round" d="M9,15.95
			c0.028,0,0.05,0.022,0.05,0.05S9.028,16.05,9,16.05S8.95,16.028,8.95,16S8.972,15.95,9,15.95"/>
		<path fill="none" stroke="#323232" stroke-width="1.5" stroke-linecap="round" stroke-linejoin="round" d="M10,7.45
			c0.028,0,0.05,0.022,0.05,0.05S10.028,7.55,10,7.55S9.95,7.528,9.95,7.5S9.972,7.45,10,7.45"/>
		<path fill="none" stroke="#323232" stroke-width="1.5" stroke-linecap="round" stroke-linejoin="round" d="M13,10
			c0-1.104,0.896-2,2-2"/>
		<path fill="none" stroke="#323232" stroke-width="1.5" stroke-linecap="round" stroke-linejoin="round" d="M7,11.067
			C7.81,10.773,8.705,11.19,9,12"/>
	</g>
</g>
</svg>
