<svg id="Layer_3" data-name="Layer 3" xmlns="http://www.w3.org/2000/svg" viewBox="0 0 24 24"><title>microphone-mic-rec-circle</title><path d="M12,14.573h0a3.089,3.089,0,0,1-3.088-3.088V6.338A3.089,3.089,0,0,1,12,3.25h0a3.089,3.089,0,0,1,3.088,3.088v5.147A3.087,3.087,0,0,1,12,14.573Z" fill="none" stroke="#323232" stroke-linecap="round" stroke-linejoin="round" stroke-width="1.5"/><path d="M19,11.65a7,7,0,0,1-7,7h0a7,7,0,0,1-7-7" fill="none" stroke="#323232" stroke-linecap="round" stroke-linejoin="round" stroke-width="1.5"/><line x1="12" y1="20.75" x2="12" y2="18.65" fill="none" stroke="#323232" stroke-linecap="round" stroke-linejoin="round" stroke-width="1.5"/><path d="M0,0H24V24H0Z" fill="none"/></svg>