<svg id="Layer_3" data-name="Layer 3" xmlns="http://www.w3.org/2000/svg" viewBox="0 0 24 24"><title>milk-package</title><path d="M8.5,3h7a1,1,0,0,1,1,1V6a0,0,0,0,1,0,0h-9a0,0,0,0,1,0,0V4A1,1,0,0,1,8.5,3Z" fill="none" stroke="#323232" stroke-linecap="round" stroke-linejoin="round" stroke-width="1.5"/><line x1="9" y1="10" x2="15" y2="10" fill="none" stroke="#323232" stroke-linecap="round" stroke-linejoin="round" stroke-width="1.5"/><circle cx="12" cy="15" r="2" fill="none" stroke="#323232" stroke-linecap="round" stroke-linejoin="round" stroke-width="1.5"/><path d="M7.5,6,5.8359,8.49615A2,2,0,0,0,5.5,9.60555V19a2,2,0,0,0,2,2h9a2,2,0,0,0,2-2V9.60555a2,2,0,0,0-.3359-1.1094L16.5,6" fill="none" stroke="#323232" stroke-linecap="round" stroke-linejoin="round" stroke-width="1.5"/><rect width="24" height="24" fill="none"/></svg>