<svg id="Layer_3" data-name="Layer 3" xmlns="http://www.w3.org/2000/svg" viewBox="0 0 24 24"><title>milk</title><line x1="19" y1="9.5" x2="5.00763" y2="9.5" fill="none" stroke="#323232" stroke-linecap="round" stroke-linejoin="round" stroke-width="1.5"/><path d="M13,22V9.66667a2,2,0,0,1,.4-1.2L16,5" fill="none" stroke="#323232" stroke-linecap="round" stroke-linejoin="round" stroke-width="1.5"/><path d="M16,5l2.6,3.46667a2,2,0,0,1,.4,1.2V20a2,2,0,0,1-2,2H7a2,2,0,0,1-2-2V9.66667a2,2,0,0,1,.4-1.2L8,5V3A1,1,0,0,1,9,2h6a1,1,0,0,1,1,1Z" fill="none" stroke="#323232" stroke-linecap="round" stroke-linejoin="round" stroke-width="1.5"/><line x1="16" y1="5" x2="8" y2="5" fill="none" stroke="#323232" stroke-linecap="round" stroke-linejoin="round" stroke-width="1.5"/><rect width="24" height="24" fill="none"/></svg>