<svg id="Layer_3" data-name="Layer 3" xmlns="http://www.w3.org/2000/svg" viewBox="0 0 24 24"><title>milk-bottle</title><path d="M10.5,2h3A1.5,1.5,0,0,1,15,3.5V4a1,1,0,0,1-1,1H10A1,1,0,0,1,9,4V3.5A1.5,1.5,0,0,1,10.5,2Z" fill="none" stroke="#323232" stroke-linecap="round" stroke-linejoin="round" stroke-width="1.5"/><path d="M17,12.49957A6.49741,6.49741,0,0,1,12,12.5a6.49741,6.49741,0,0,0-5,.00043" fill="none" stroke="#323232" stroke-linecap="round" stroke-linejoin="round" stroke-width="1.5"/><path d="M9.96967,4.9939A2.98966,2.98966,0,0,1,9.15845,6.764L8.12207,7.83759A4,4,0,0,0,7,10.6156V19a2,2,0,0,0,2,2h6a2,2,0,0,0,2-2V10.6156a4,4,0,0,0-1.12207-2.778L14.84155,6.764a2.98966,2.98966,0,0,1-.81122-1.77008" fill="none" stroke="#323232" stroke-linecap="round" stroke-linejoin="round" stroke-width="1.5"/><rect width="24" height="24" fill="none"/></svg>