<svg id="Layer_3" data-name="Layer 3" xmlns="http://www.w3.org/2000/svg" viewBox="0 0 24 24"><title>minus-hexagon</title><path d="M0,0H24V24H0Z" fill="none"/><path d="M6.8,19.8,4.1,17.1A3.928,3.928,0,0,1,3,14.3V9.7A3.631,3.631,0,0,1,4.2,6.9L6.9,4.2A3.631,3.631,0,0,1,9.7,3h4.7a3.631,3.631,0,0,1,2.8,1.2l2.7,2.7A3.928,3.928,0,0,1,21,9.7v4.7a3.631,3.631,0,0,1-1.2,2.8l-2.7,2.7a3.949,3.949,0,0,1-2.8,1.2H9.7A4.564,4.564,0,0,1,6.8,19.8Z" fill="none" stroke="#323232" stroke-linecap="round" stroke-linejoin="round" stroke-width="1.5"/><path d="M9,12h6" fill="none" stroke="#323232" stroke-linecap="round" stroke-linejoin="round" stroke-width="1.5"/></svg>