<svg id="Layer_3" data-name="Layer 3" xmlns="http://www.w3.org/2000/svg" viewBox="0 0 24 24"><rect width="24" height="24" fill="none"/><path d="M7,3H17a3,3,0,0,1,3,3v4a2,2,0,0,1-2,2H6a2,2,0,0,1-2-2V6A3,3,0,0,1,7,3Z" fill="none" stroke="#323232" stroke-linecap="round" stroke-linejoin="round" stroke-width="1.5"/><line x1="20" y1="9" x2="4" y2="9" fill="none" stroke="#323232" stroke-linecap="round" stroke-linejoin="round" stroke-width="1.5"/><line x1="17" y1="6" x2="15" y2="6" fill="none" stroke="#323232" stroke-linecap="round" stroke-linejoin="round" stroke-width="1.5"/><path d="M6.85592,15h3.49139a1,1,0,0,1,.96153.72528l.55653,1.94787A3.39435,3.39435,0,0,1,8.60162,22h0a3.39435,3.39435,0,0,1-3.26375-4.32685l.55653-1.94787A1,1,0,0,1,6.85592,15Z" fill="none" stroke="#323232" stroke-linecap="round" stroke-linejoin="round" stroke-width="1.5"/><line x1="8.60162" y1="12" x2="8.60162" y2="22" fill="none" stroke="#323232" stroke-linecap="round" stroke-linejoin="round" stroke-width="1.5"/></svg>