<svg id="Layer_3" data-name="Layer 3" xmlns="http://www.w3.org/2000/svg" viewBox="0 0 24 24"><title>mobile-iphone-camera-flash-square</title><path d="M10.039,21V12.022a2,2,0,0,1,2-2H21" fill="none" stroke="#323232" stroke-linecap="round" stroke-linejoin="round" stroke-width="1.5"/><path d="M12.079,10.022h2.774A1.147,1.147,0,0,1,16,11.17v2.64a1.147,1.147,0,0,1-1.147,1.147H11.226a1.147,1.147,0,0,1-1.147-1.147V12.022A2,2,0,0,1,12.079,10.022Z" fill="none" stroke="#323232" stroke-linecap="round" stroke-linejoin="round" stroke-width="1.5"/><rect x="3" y="3" width="18" height="18" rx="5" stroke-width="1.5" stroke="#323232" stroke-linecap="round" stroke-linejoin="round" fill="none"/><line x1="10.5" y1="6.5" x2="10.5" y2="7.5" fill="none" stroke="#323232" stroke-linecap="round" stroke-linejoin="round" stroke-width="1.5"/><line x1="6.5" y1="10.5" x2="7.5" y2="10.5" fill="none" stroke="#323232" stroke-linecap="round" stroke-linejoin="round" stroke-width="1.5"/><line x1="7.5" y1="7.5" x2="8.207" y2="8.207" fill="none" stroke="#323232" stroke-linecap="round" stroke-linejoin="round" stroke-width="1.5"/><path d="M0,0H24V24H0Z" fill="none"/></svg>