<svg id="Layer_3" data-name="Layer 3" xmlns="http://www.w3.org/2000/svg" viewBox="0 0 24 24"><title>mobile-devices-swipe-left</title><path d="M0,0H24V24H0Z" fill="none"/><path d="M7.5,3V4.8a.557.557,0,0,0,.5.6h4a.557.557,0,0,0,.5-.6V3" fill="none" stroke="#323232" stroke-linecap="round" stroke-linejoin="round" stroke-width="1.5"/><path d="M8,18h4" fill="none" stroke="#323232" stroke-linecap="round" stroke-linejoin="round" stroke-width="1.5"/><path d="M20.414,10.586a2,2,0,1,1-2.828,0,2,2,0,0,1,2.828,0" fill="none" stroke="#323232" stroke-linecap="round" stroke-linejoin="round" stroke-width="1.5"/><path d="M10.914,14.027,9,12.113l2.027-2.027" fill="none" stroke="#323232" stroke-linecap="round" stroke-linejoin="round" stroke-width="1.5"/><path d="M9,12.113h5" fill="none" stroke="#323232" stroke-linecap="round" stroke-linejoin="round" stroke-width="1.5"/><path d="M16,7V5a2,2,0,0,0-2-2H6A2,2,0,0,0,4,5V19a2,2,0,0,0,2,2h8a2,2,0,0,0,2-2V17" fill="none" stroke="#323232" stroke-linecap="round" stroke-linejoin="round" stroke-width="1.5"/></svg>