<svg id="Layer_3" data-name="Layer 3" xmlns="http://www.w3.org/2000/svg" viewBox="0 0 24 24"><title>mobile-iphone-camera-flash</title><path d="M24,24H0V0H24Z" fill="none"/><path d="M4,4,5,5" fill="none" stroke="#323232" stroke-linecap="round" stroke-linejoin="round" stroke-width="1.5"/><path d="M3,8H4" fill="none" stroke="#323232" stroke-linecap="round" stroke-linejoin="round" stroke-width="1.5"/><path d="M8,3V4" fill="none" stroke="#323232" stroke-linecap="round" stroke-linejoin="round" stroke-width="1.5"/><path d="M12,3h4a5,5,0,0,1,5,5v8a5,5,0,0,1-5,5H8a5,5,0,0,1-5-5V12" fill="none" stroke="#323232" stroke-linecap="round" stroke-linejoin="round" stroke-width="1.5"/><path d="M8,21V10a2,2,0,0,1,2-2H21" fill="none" stroke="#323232" stroke-linecap="round" stroke-linejoin="round" stroke-width="1.5"/><path d="M10,8h3.25A1.75,1.75,0,0,1,15,9.75v3.5A1.75,1.75,0,0,1,13.25,15H9.75A1.75,1.75,0,0,1,8,13.25V10A2,2,0,0,1,10,8Z" fill="none" stroke="#323232" stroke-linecap="round" stroke-linejoin="round" stroke-width="1.5"/></svg>