<svg id="Layer_3" data-name="Layer 3" xmlns="http://www.w3.org/2000/svg" viewBox="0 0 24 24"><path d="M0,0H24V24H0Z" fill="none"/><path d="M8.5,3V4.8a.557.557,0,0,0,.5.6h4a.557.557,0,0,0,.5-.6V3" fill="none" stroke="#323232" stroke-linecap="round" stroke-linejoin="round" stroke-width="1.5"/><path d="M10,21H7a2,2,0,0,1-2-2V5A2,2,0,0,1,7,3h8a2,2,0,0,1,2,2V9" fill="none" stroke="#323232" stroke-linecap="round" stroke-linejoin="round" stroke-width="1.5"/><path d="M15.50386,20.86824l-3-1.71428A1,1,0,0,1,12,18.28571V14.87493a1,1,0,0,1,.50386-.86824l3-1.71429a1,1,0,0,1,.99228,0l3,1.71429A1,1,0,0,1,20,14.87493v3.41078a1,1,0,0,1-.50386.86825l-3,1.71428A1,1,0,0,1,15.50386,20.86824Z" fill="none" stroke="#323232" stroke-linecap="round" stroke-linejoin="round" stroke-width="1.5"/><line x1="12.13645" y1="14.37261" x2="16" y2="16.58032" fill="none" stroke="#323232" stroke-linecap="round" stroke-linejoin="round" stroke-width="1.5"/><line x1="19.86399" y1="14.37236" x2="16" y2="16.58032" fill="none" stroke="#323232" stroke-linecap="round" stroke-linejoin="round" stroke-width="1.5"/><line x1="16" y1="16.58032" x2="16" y2="21" fill="none" stroke="#323232" stroke-linecap="round" stroke-linejoin="round" stroke-width="1.5"/></svg>