<svg id="Layer_3" data-name="Layer 3" xmlns="http://www.w3.org/2000/svg" viewBox="0 0 24 24"><title>mobile-devices-cross-delete</title><path d="M0,0H24V24H0Z" fill="none"/><path d="M13,20.938A8.16,8.16,0,0,1,12,21a9,9,0,1,1,9-9,8.16,8.16,0,0,1-.062,1" fill="none" stroke="#323232" stroke-linecap="round" stroke-linejoin="round" stroke-width="1.5"/><path d="M20,17.5,17.5,20" fill="none" stroke="#323232" stroke-linecap="round" stroke-linejoin="round" stroke-width="1.5"/><path d="M17.5,17.5,20,20" fill="none" stroke="#323232" stroke-linecap="round" stroke-linejoin="round" stroke-width="1.5"/><path d="M10.5,7h3a2.054,2.054,0,0,1,2,2.105V14.9A2.054,2.054,0,0,1,13.5,17h-3a2.054,2.054,0,0,1-2-2.105V9.105A2.054,2.054,0,0,1,10.5,7Z" fill="none" stroke="#323232" stroke-linecap="round" stroke-linejoin="round" stroke-width="1.5"/><path d="M11.25,14.5h1.5" fill="none" stroke="#323232" stroke-linecap="round" stroke-linejoin="round" stroke-width="1.5"/></svg>