<svg id="Layer_3" data-name="Layer 3" xmlns="http://www.w3.org/2000/svg" viewBox="0 0 24 24"><title>mobile-app-store</title><path d="M0,0H24V24H0Z" fill="none"/><path d="M8,18h4" fill="none" stroke="#323232" stroke-linecap="round" stroke-linejoin="round" stroke-width="1.5"/><path d="M16,15v4a2,2,0,0,1-2,2H6a2,2,0,0,1-2-2V5A2,2,0,0,1,6,3H9" fill="none" stroke="#323232" stroke-linecap="round" stroke-linejoin="round" stroke-width="1.5"/><path d="M12.1,7.178V12" fill="none" stroke="#323232" stroke-linecap="round" stroke-linejoin="round" stroke-width="1.5"/><path d="M20.1,12V7.108" fill="none" stroke="#323232" stroke-linecap="round" stroke-linejoin="round" stroke-width="1.5"/><line x1="16" y1="12" x2="16" y2="10" fill="none" stroke="#323232" stroke-linecap="round" stroke-linejoin="round" stroke-width="1.5"/><path d="M11.6,12h8.96" fill="none" stroke="#323232" stroke-linecap="round" stroke-linejoin="round" stroke-width="1.5"/><path d="M16,7.237a1.741,1.741,0,0,0,1.649-1.182.1.1,0,0,1,.183,0,1.742,1.742,0,0,0,1.65,1.182" fill="none" stroke="#323232" stroke-linecap="round" stroke-linejoin="round" stroke-width="1.5"/><path d="M12.518,7.237a1.743,1.743,0,0,0,1.65-1.182.1.1,0,0,1,.183,0A1.741,1.741,0,0,0,16,7.237" fill="none" stroke="#323232" stroke-linecap="round" stroke-linejoin="round" stroke-width="1.5"/><path d="M19.482,7.237a1.516,1.516,0,0,0,1.351-2.2l-.658-1.3A1.349,1.349,0,0,0,18.972,3H13.028a1.349,1.349,0,0,0-1.2.738l-.658,1.3a1.516,1.516,0,0,0,1.351,2.2h0" fill="none" stroke="#323232" stroke-linecap="round" stroke-linejoin="round" stroke-width="1.5"/></svg>