<svg id="Layer_3" data-name="Layer 3" xmlns="http://www.w3.org/2000/svg" viewBox="0 0 24 24"><title>modern-building</title><line x1="19.493" y1="18" x2="19.493" y2="21" fill="none" stroke="#323232" stroke-linecap="round" stroke-linejoin="round" stroke-width="1.5"/><rect x="17" y="11" width="5" height="7" rx="2.5" stroke-width="1.5" stroke="#323232" stroke-linecap="round" stroke-linejoin="round" fill="none"/><line x1="8.5" y1="19" x2="8.5" y2="21" fill="none" stroke="#323232" stroke-linecap="round" stroke-linejoin="round" stroke-width="1.5"/><line x1="5.5" y1="16" x2="11.5" y2="16" fill="none" stroke="#323232" stroke-linecap="round" stroke-linejoin="round" stroke-width="1.5"/><line x1="5.5" y1="13" x2="11.5" y2="13" fill="none" stroke="#323232" stroke-linecap="round" stroke-linejoin="round" stroke-width="1.5"/><line x1="5.5" y1="10" x2="11.5" y2="10" fill="none" stroke="#323232" stroke-linecap="round" stroke-linejoin="round" stroke-width="1.5"/><path d="M19.5,11V4a1,1,0,0,0-1-1H9A1,1,0,0,0,8,4V7" fill="none" stroke="#323232" stroke-linecap="round" stroke-linejoin="round" stroke-width="1.5"/><path d="M3,21V8A1,1,0,0,1,4,7h9a1,1,0,0,1,1,1V21" fill="none" stroke="#323232" stroke-linecap="round" stroke-linejoin="round" stroke-width="1.5"/><line x1="2" y1="21" x2="22" y2="21" fill="none" stroke="#323232" stroke-linecap="round" stroke-linejoin="round" stroke-width="1.5"/><rect width="24" height="24" fill="none"/></svg>