<svg id="Layer_3" data-name="Layer 3" xmlns="http://www.w3.org/2000/svg" viewBox="0 0 24 24"><title>molecules-circle</title><circle cx="12" cy="12" r="9" fill="none" stroke="#323232" stroke-linecap="round" stroke-linejoin="round" stroke-width="1.5"/><path d="M16.124,13.747l.739-1.25a.973.973,0,0,0,0-.994l-.739-1.25a1.039,1.039,0,0,0-.9-.5H13.764a1.039,1.039,0,0,0-.9.5L11.835,12l1.033,1.747a1.039,1.039,0,0,0,.9.5h1.464A1.039,1.039,0,0,0,16.124,13.747Z" fill="none" stroke="#323232" stroke-linecap="round" stroke-linejoin="round" stroke-width="1.5"/><path d="M12.132,16l.739-1.25a.973.973,0,0,0,0-.994l-.739-1.25a1.039,1.039,0,0,0-.9-.5H9.772a1.039,1.039,0,0,0-.9.5l-.739,1.25a.973.973,0,0,0,0,.994L8.876,16a1.039,1.039,0,0,0,.9.5h1.464A1.039,1.039,0,0,0,12.132,16Z" fill="none" stroke="#323232" stroke-linecap="round" stroke-linejoin="round" stroke-width="1.5"/><path d="M12.132,11.5l.739-1.25a.973.973,0,0,0,0-.994L12.132,8a1.039,1.039,0,0,0-.9-.5H9.772a1.039,1.039,0,0,0-.9.5l-.739,1.25a.973.973,0,0,0,0,.994l.739,1.25a1.039,1.039,0,0,0,.9.5h1.464A1.039,1.039,0,0,0,12.132,11.5Z" fill="none" stroke="#323232" stroke-linecap="round" stroke-linejoin="round" stroke-width="1.5"/><path d="M24,0V24H0V0Z" fill="none"/></svg>