<svg id="Layer_3" data-name="Layer 3" xmlns="http://www.w3.org/2000/svg" viewBox="0 0 24 24"><title>molecule-square</title><path d="M13.945,13.885C11.183,16.646,8.074,18.014,7,16.94c-.825-.825-.2-2.852,1.379-5" fill="none" stroke="#323232" stroke-linecap="round" stroke-linejoin="round" stroke-width="1.5"/><path d="M10.055,9.995C12.817,7.234,15.926,5.866,17,6.94c.825.825.2,2.852-1.379,5" fill="none" stroke="#323232" stroke-linecap="round" stroke-linejoin="round" stroke-width="1.5"/><path d="M13.945,9.995c2.761,2.762,4.129,5.871,3.055,6.945-.825.825-2.852.2-5-1.379" fill="none" stroke="#323232" stroke-linecap="round" stroke-linejoin="round" stroke-width="1.5"/><path d="M10.055,13.885C7.294,11.123,5.926,8.014,7,6.94c.825-.825,2.852-.2,5,1.379" fill="none" stroke="#323232" stroke-linecap="round" stroke-linejoin="round" stroke-width="1.5"/><rect x="3" y="3" width="18" height="18" rx="5" stroke-width="1.5" stroke="#323232" stroke-linecap="round" stroke-linejoin="round" fill="none"/><path d="M12.05,12a.05.05,0,1,1-.05-.05.05.05,0,0,1,.05.05h0" fill="none" stroke="#323232" stroke-linecap="round" stroke-linejoin="round" stroke-width="1.5"/><path d="M0,0H24V24H0Z" fill="none"/></svg>