<?xml version="1.0" encoding="utf-8"?>
<!-- Generator: Adobe Illustrator 24.0.2, SVG Export Plug-In . SVG Version: 6.00 Build 0)  -->
<svg version="1.1" id="Layer_3" xmlns="http://www.w3.org/2000/svg" xmlns:xlink="http://www.w3.org/1999/xlink" x="0px" y="0px"
	 width="24px" height="24px" viewBox="0 0 24 24" enable-background="new 0 0 24 24" xml:space="preserve">
<g>
	<path fill="none" d="M0,0h24v24H0V0z"/>
	<g>
		<path fill="none" stroke="#323232" stroke-width="1.5" stroke-linecap="round" stroke-linejoin="round" d="M18,8h1
			c1.105,0,2,0.895,2,2v7c0,1.105-0.895,2-2,2H8c-1.105,0-2-0.895-2-2v-1.583"/>
		<path fill="none" stroke="#323232" stroke-width="1.5" stroke-linecap="round" stroke-linejoin="round" d="M6.125,9.167v2.083"/>
		<path fill="none" stroke="#323232" stroke-width="1.5" stroke-linecap="round" stroke-linejoin="round" d="M14.979,9.167v2.083"/>
		<path fill="none" stroke="#323232" stroke-width="1.5" stroke-linecap="round" stroke-linejoin="round" d="M5.083,15.417h10.833
			c1.151,0,2.083-0.933,2.083-2.083v-6.25C18,5.933,17.067,5,15.917,5H5.083C3.933,5,3,5.933,3,7.083v6.25
			C3,14.484,3.933,15.417,5.083,15.417z"/>
		<g>
			<path fill="none" stroke="#323232" stroke-width="1.5" stroke-linecap="round" stroke-linejoin="round" d="M11.657,9.103
				c0.61,0.61,0.61,1.6,0,2.21c-0.61,0.61-1.6,0.61-2.21,0c-0.61-0.61-0.61-1.6,0-2.21C10.057,8.493,11.047,8.493,11.657,9.103"/>
		</g>
	</g>
</g>
</svg>
