<?xml version="1.0" encoding="utf-8"?>
<!-- Generator: Adobe Illustrator 24.0.2, SVG Export Plug-In . SVG Version: 6.00 Build 0)  -->
<svg version="1.1" id="Layer_3" xmlns="http://www.w3.org/2000/svg" xmlns:xlink="http://www.w3.org/1999/xlink" x="0px" y="0px"
	 width="24px" height="24px" viewBox="0 0 24 24" enable-background="new 0 0 24 24" xml:space="preserve">
<g>
	<g>
		<path fill="none" stroke="#323232" stroke-width="1.5" stroke-linecap="round" stroke-linejoin="round" d="M19,10.5h-3.94
			c-1.475,0-2.671-1.196-2.671-2.671l0,0c0-0.708,0.281-1.388,0.782-1.889l2.318-2.318"/>
		<path fill="none" stroke="#323232" stroke-width="1.5" stroke-linecap="round" stroke-linejoin="round" d="M4.558,16.58
			l1.678-2.517c0.304-0.456,0.815-0.73,1.363-0.73l0,0c0.621,0,1.187-0.35,1.465-0.906l0.126-0.251c0.23-0.461,0.23-1.004,0-1.465
			l-1.07-2.139C7.842,8.017,7.275,7.667,6.654,7.667H2.491"/>
		<path fill="none" stroke="#323232" stroke-width="1.5" stroke-linecap="round" stroke-linejoin="round" d="M10.5,2
			C5.795,2,2,5.795,2,10.5S5.795,19,10.5,19"/>
		<path fill="none" stroke="#323232" stroke-width="1.5" stroke-linecap="round" stroke-linejoin="round" d="M19,10.5
			C19,5.795,15.205,2,10.5,2"/>
		<g>
			<path fill="none" stroke="#323232" stroke-width="1.5" stroke-linecap="round" stroke-linejoin="round" d="M14.889,22h4.622
				c0.491,0,0.889-0.398,0.889-0.889v-2.667c0-0.491-0.398-0.889-0.889-0.889h-4.622c-0.491,0-0.889,0.398-0.889,0.889v2.667
				C14,21.602,14.398,22,14.889,22z"/>
		</g>
		<path fill="none" stroke="#323232" stroke-width="1.5" stroke-linecap="round" stroke-linejoin="round" d="M15.43,17.556
			l-0.335-1.247c-0.128-0.475,0.155-0.963,0.63-1.089l4.463-1.189c0.473-0.126,0.96,0.155,1.087,0.628l0.694,2.576
			c0.128,0.474-0.154,0.963-0.628,1.09L20.4,18.576"/>
	</g>
	<path fill="none" d="M0,0h24v24H0V0z"/>
	<path fill="none" d="M0,0h24v24H0V0z"/>
</g>
</svg>
