<?xml version="1.0" encoding="utf-8"?>
<!-- Generator: Adobe Illustrator 24.0.2, SVG Export Plug-In . SVG Version: 6.00 Build 0)  -->
<svg version="1.1" id="Layer_3" xmlns="http://www.w3.org/2000/svg" xmlns:xlink="http://www.w3.org/1999/xlink" x="0px" y="0px"
	 width="24px" height="24px" viewBox="0 0 24 24" enable-background="new 0 0 24 24" xml:space="preserve">
<g>
	<path fill="none" d="M24,0v24H0V0H24z"/>
	<g>
		<path fill="none" stroke="#323232" stroke-width="1.5" stroke-linecap="round" stroke-linejoin="round" d="M21,7.5V5.25
			C21,4.007,19.993,3,18.75,3H16.5"/>
		<path fill="none" stroke="#323232" stroke-width="1.5" stroke-linecap="round" stroke-linejoin="round" d="M7.5,3H5.25
			C4.007,3,3,4.007,3,5.25V7.5"/>
		<path fill="none" stroke="#323232" stroke-width="1.5" stroke-linecap="round" stroke-linejoin="round" d="M3,16.5v2.25
			C3,19.993,4.007,21,5.25,21H7.5"/>
		<path fill="none" stroke="#323232" stroke-width="1.5" stroke-linecap="round" stroke-linejoin="round" d="M16.5,21h2.25
			c1.243,0,2.25-1.007,2.25-2.25V16.5"/>
		<g>
			<path fill="none" stroke="#323232" stroke-width="1.5" stroke-linecap="round" stroke-linejoin="round" d="M7.667,16h8.667
				C17.254,16,18,15.254,18,14.333V9.667C18,8.746,17.254,8,16.333,8H7.667C6.746,8,6,8.746,6,9.667v4.667
				C6,15.254,6.746,16,7.667,16z"/>
		</g>
		<g>
			<path fill="none" stroke="#323232" stroke-width="1.5" stroke-linecap="round" stroke-linejoin="round" d="M13.061,10.939
				c0.586,0.586,0.586,1.537,0,2.122c-0.586,0.585-1.537,0.586-2.122,0c-0.586-0.586-0.586-1.537,0-2.122
				C11.525,10.354,12.475,10.354,13.061,10.939"/>
		</g>
	</g>
</g>
</svg>
