<?xml version="1.0" encoding="utf-8"?>
<!-- Generator: Adobe Illustrator 24.0.2, SVG Export Plug-In . SVG Version: 6.00 Build 0)  -->
<svg version="1.1" id="Layer_3" xmlns="http://www.w3.org/2000/svg" xmlns:xlink="http://www.w3.org/1999/xlink" x="0px" y="0px"
	 width="24px" height="24px" viewBox="0 0 24 24" enable-background="new 0 0 24 24" xml:space="preserve">
<g>
	<g>
		<path fill="none" d="M0,0h24v24H0V0z"/>
	</g>
	<g>
		<path fill="none" stroke="#323232" stroke-width="1.5" stroke-linecap="round" stroke-linejoin="round" d="M7.5,3H5.25
			C4.007,3,3,4.007,3,5.25V7.5"/>
		<path fill="none" stroke="#323232" stroke-width="1.5" stroke-linecap="round" stroke-linejoin="round" d="M3,16.5v2.25
			C3,19.993,4.007,21,5.25,21H7.5"/>
		<path fill="none" stroke="#323232" stroke-width="1.5" stroke-linecap="round" stroke-linejoin="round" d="M16.5,21h2.25
			c1.243,0,2.25-1.007,2.25-2.25V16.5"/>
		
			<line fill="none" stroke="#323232" stroke-width="1.5" stroke-linecap="round" stroke-linejoin="round" x1="6" y1="12" x2="18" y2="12"/>
		<g>
			<path fill="none" stroke="#323232" stroke-width="1.5" stroke-linecap="round" stroke-linejoin="round" d="M16,16.333V7.667
				C16,6.746,15.254,6,14.333,6H9.667C8.746,6,8,6.746,8,7.667v8.667C8,17.254,8.746,18,9.667,18h4.667
				C15.254,18,16,17.254,16,16.333z"/>
		</g>
		<path fill="none" stroke="#323232" stroke-width="1.5" stroke-linecap="round" stroke-linejoin="round" d="M21,7.5V5.25
			C21,4.007,19.993,3,18.75,3H16.5"/>
	</g>
</g>
</svg>
