<?xml version="1.0" encoding="utf-8"?>
<!-- Generator: Adobe Illustrator 24.0.2, SVG Export Plug-In . SVG Version: 6.00 Build 0)  -->
<svg version="1.1" id="Layer_3" xmlns="http://www.w3.org/2000/svg" xmlns:xlink="http://www.w3.org/1999/xlink" x="0px" y="0px"
	 width="24px" height="24px" viewBox="0 0 24 24" enable-background="new 0 0 24 24" xml:space="preserve">
<g>
	<path fill="none" d="M11.205,14.045c0.098,0.098,0.098,0.256,0,0.354c-0.098,0.098-0.256,0.098-0.354,0
		c-0.098-0.098-0.098-0.256,0-0.354C10.949,13.948,11.107,13.948,11.205,14.045"/>
</g>
<g>
	<g>
		<rect y="0" fill="none" width="24" height="24"/>
	</g>
	<g>
		<g>
			<path fill="none" stroke="#323232" stroke-width="1.5" stroke-linecap="round" stroke-linejoin="round" d="M8.111,17h5.778
				C14.503,17,15,16.503,15,15.889v-3.333c0-0.614-0.497-1.111-1.111-1.111H8.111C7.497,11.444,7,11.942,7,12.556v3.333
				C7,16.503,7.497,17,8.111,17z"/>
		</g>
		<g>
			<path fill="none" stroke="#323232" stroke-width="1.5" stroke-linecap="round" stroke-linejoin="round" d="M21,7v10
				c0,2.209-1.791,4-4,4H7c-2.209,0-4-1.791-4-4V7c0-2.209,1.791-4,4-4h10C19.209,3,21,4.791,21,7z"/>
		</g>
		<path fill="none" stroke="#323232" stroke-width="1.5" stroke-linecap="round" stroke-linejoin="round" d="M8.787,11.444
			L8.369,9.886C8.209,9.293,8.562,8.683,9.156,8.524l5.579-1.487c0.592-0.158,1.2,0.193,1.359,0.785l0.868,3.22
			c0.16,0.593-0.192,1.203-0.785,1.362L15,12.72"/>
	</g>
</g>
</svg>
