<?xml version="1.0" encoding="utf-8"?>
<!-- Generator: Adobe Illustrator 24.0.2, SVG Export Plug-In . SVG Version: 6.00 Build 0)  -->
<svg version="1.1" id="Layer_3" xmlns="http://www.w3.org/2000/svg" xmlns:xlink="http://www.w3.org/1999/xlink" x="0px" y="0px"
	 width="24px" height="24px" viewBox="0 0 24 24" enable-background="new 0 0 24 24" xml:space="preserve">
<g>
	<g>
		<path fill="none" d="M0,0h24v24H0V0z"/>
	</g>
	<g>
		<path fill="none" stroke="#323232" stroke-width="1.5" stroke-linecap="round" stroke-linejoin="round" d="M15.182,8.318
			c1.757,1.757,1.757,4.607,0,6.364s-4.607,1.757-6.364,0s-1.757-4.607,0-6.364S13.425,6.561,15.182,8.318"/>
		<path fill="none" stroke="#323232" stroke-width="1.5" stroke-linecap="round" stroke-linejoin="round" d="M8,16h8"/>
		<g>
			<path fill="none" stroke="#323232" stroke-width="1.5" stroke-linecap="round" stroke-linejoin="round" d="M12,21L12,21
				c-4.971,0-9-4.029-9-9v0c0-4.971,4.029-9,9-9h0c4.971,0,9,4.029,9,9v0C21,16.971,16.971,21,12,21z"/>
		</g>
	</g>
</g>
</svg>
