<?xml version="1.0" encoding="utf-8"?>
<!-- Generator: Adobe Illustrator 24.0.2, SVG Export Plug-In . SVG Version: 6.00 Build 0)  -->
<svg version="1.1" id="Layer_3" xmlns="http://www.w3.org/2000/svg" xmlns:xlink="http://www.w3.org/1999/xlink" x="0px" y="0px"
	 width="24px" height="24px" viewBox="0 0 24 24" enable-background="new 0 0 24 24" xml:space="preserve">
<g>
	<g>
		<rect fill="none" width="24" height="24"/>
	</g>
	<g>
		<path fill="none" stroke="#323232" stroke-width="1.5" stroke-linecap="round" stroke-linejoin="round" d="M6,15v2"/>
		<path fill="none" stroke="#323232" stroke-width="1.5" stroke-linecap="round" stroke-linejoin="round" d="M14.5,15v2"/>
		<path fill="none" stroke="#323232" stroke-width="1.5" stroke-linecap="round" stroke-linejoin="round" d="M5,21h10.4
			c1.105,0,2-0.895,2-2v-6c0-1.105-0.895-2-2-2H5c-1.105,0-2,0.895-2,2v6C3,20.105,3.895,21,5,21z"/>
		<g>
			<path fill="none" stroke="#323232" stroke-width="1.5" stroke-linecap="round" stroke-linejoin="round" d="M11.311,14.939
				c0.586,0.586,0.586,1.536,0,2.121s-1.536,0.586-2.121,0c-0.586-0.586-0.586-1.536,0-2.121S10.725,14.354,11.311,14.939"/>
		</g>
		<path fill="none" stroke="#323232" stroke-width="1.5" stroke-linecap="round" stroke-linejoin="round" d="M17.4,13.296
			l2.117-0.567c1.068-0.286,1.701-1.385,1.413-2.452L19.369,4.48c-0.287-1.064-1.381-1.696-2.446-1.412L6.88,5.744
			C5.811,6.029,5.177,7.127,5.464,8.195L6.217,11"/>
	</g>
</g>
</svg>
