<?xml version="1.0" encoding="utf-8"?>
<!-- Generator: Adobe Illustrator 24.0.2, SVG Export Plug-In . SVG Version: 6.00 Build 0)  -->
<svg version="1.1" id="Layer_3" xmlns="http://www.w3.org/2000/svg" xmlns:xlink="http://www.w3.org/1999/xlink" x="0px" y="0px"
	 width="24px" height="24px" viewBox="0 0 24 24" enable-background="new 0 0 24 24" xml:space="preserve">
<g>
	<g>
		<path fill="none" d="M0,0h24v24H0V0z"/>
	</g>
	<g>
		<path fill="none" stroke="#323232" stroke-width="1.5" stroke-linecap="round" stroke-linejoin="round" d="M13.999,5
			C14,3.895,11.76,3,9,3s-4.998,0.896-5,2c0,1.105,2.238,2,5,2s5-0.895,5-2"/>
		
			<line fill="none" stroke="#323232" stroke-width="1.5" stroke-linecap="round" stroke-linejoin="round" x1="14" y1="5" x2="14" y2="12.758"/>
		<path fill="none" stroke="#323232" stroke-width="1.5" stroke-linecap="round" stroke-linejoin="round" d="M4.001,9
			c0,1.105,2.238,2,5,2s5-0.895,5-2"/>
		<path fill="none" stroke="#323232" stroke-width="1.5" stroke-linecap="round" stroke-linejoin="round" d="M19.682,13.318
			c1.757,1.757,1.757,4.607,0,6.364c-1.757,1.757-4.607,1.757-6.364,0c-1.757-1.757-1.757-4.607,0-6.364
			C15.075,11.561,17.925,11.561,19.682,13.318"/>
		<path fill="none" stroke="#323232" stroke-width="1.5" stroke-linecap="round" stroke-linejoin="round" d="M12.505,14.425
			C11.603,14.78,10.366,15,9,15c-2.761,0-4.999-0.895-4.999-2"/>
		<path fill="none" stroke="#323232" stroke-width="1.5" stroke-linecap="round" stroke-linejoin="round" d="M12.445,18.444
			C11.548,18.787,10.339,19,9,19c-2.761,0-4.999-0.895-5-2V5"/>
	</g>
</g>
</svg>
