<?xml version="1.0" encoding="utf-8"?>
<!-- Generator: Adobe Illustrator 24.0.2, SVG Export Plug-In . SVG Version: 6.00 Build 0)  -->
<svg version="1.1" id="Layer_3" xmlns="http://www.w3.org/2000/svg" xmlns:xlink="http://www.w3.org/1999/xlink" x="0px" y="0px"
	 width="24px" height="24px" viewBox="0 0 24 24" enable-background="new 0 0 24 24" xml:space="preserve">
<g>
	<g>
		<g>
			<path fill="none" stroke="#323232" stroke-width="1.5" stroke-linecap="round" stroke-linejoin="round" d="M4,12.266V8.091
				c0-1.248,0.773-2.366,1.94-2.807l8.353-3.154C15.602,1.637,17,2.603,17,4.002v3.35"/>
		</g>
		<path fill="none" stroke="#323232" stroke-width="1.5" stroke-linecap="round" stroke-linejoin="round" d="M10.652,21H18
			c1.65,0,3-1.35,3-3v-7.649c0-1.657-1.343-3-3-3H6c-1.105,0-2,0.895-2,2"/>
		<path fill="none" stroke="#323232" stroke-width="1.5" stroke-linecap="round" stroke-linejoin="round" d="M17.249,14.101
			C17.111,14.102,17,14.214,17,14.352c0,0.138,0.112,0.25,0.25,0.249c0.138,0,0.25-0.112,0.25-0.25
			C17.5,14.213,17.388,14.101,17.249,14.101"/>
		<path fill="none" stroke="#323232" stroke-width="1.5" stroke-linecap="round" stroke-linejoin="round" d="M5.849,18.15l3.3-3.3"
			/>
		<path fill="none" stroke="#323232" stroke-width="1.5" stroke-linecap="round" stroke-linejoin="round" d="M9.299,18.034
			c0.074,0.074,0.074,0.193,0,0.266c-0.074,0.074-0.193,0.074-0.266,0c-0.074-0.074-0.074-0.193,0-0.266
			C9.105,17.96,9.225,17.96,9.299,18.034"/>
		<path fill="none" stroke="#323232" stroke-width="1.5" stroke-linecap="round" stroke-linejoin="round" d="M5.967,14.699
			c0.074,0.074,0.074,0.193,0,0.266c-0.074,0.074-0.193,0.074-0.266,0c-0.073-0.074-0.074-0.193,0-0.266
			C5.775,14.626,5.894,14.625,5.967,14.699"/>
		<path fill="none" stroke="#323232" stroke-width="1.5" stroke-linecap="round" stroke-linejoin="round" d="M7.5,22
			c3.025,0,5.5-2.475,5.5-5.5S10.525,11,7.5,11S2,13.475,2,16.5c0,1.234,0.417,2.373,1.11,3.292C4.115,21.129,5.709,22,7.5,22z"/>
	</g>
	<g>
		<path fill="none" d="M0,0h24v24H0V0z"/>
	</g>
</g>
</svg>
