<?xml version="1.0" encoding="utf-8"?>
<!-- Generator: Adobe Illustrator 24.0.2, SVG Export Plug-In . SVG Version: 6.00 Build 0)  -->
<svg version="1.1" id="Layer_3" xmlns="http://www.w3.org/2000/svg" xmlns:xlink="http://www.w3.org/1999/xlink" x="0px" y="0px"
	 width="24px" height="24px" viewBox="0 0 24 24" enable-background="new 0 0 24 24" xml:space="preserve">
<g>
	<g>
		<path fill="none" d="M0,0h24v24H0V0z"/>
	</g>
	<g>
		<g>
			<path fill="none" stroke="#323232" stroke-width="1.5" stroke-linecap="round" stroke-linejoin="round" d="M9.255,12.001h3.493"
				/>
			<path fill="none" stroke="#323232" stroke-width="1.5" stroke-linecap="round" stroke-linejoin="round" d="M13.891,14.655
				c-1.061,0.46-2.333,0.271-3.2-0.597c-1.137-1.137-1.137-2.98,0-4.117c0.868-0.868,2.14-1.057,3.2-0.597"/>
		</g>
		<path fill="none" stroke="#323232" stroke-width="1.5" stroke-linecap="round" stroke-linejoin="round" d="M19.804,18.213
			L19.804,18.213c-2.505-0.501-5.089-0.439-7.567,0.18L12,18.453c-2.634,0.658-5.381,0.724-8.043,0.191l-0.153-0.031
			C3.336,18.52,3,18.109,3,17.633V6.794C3,6.163,3.577,5.69,4.196,5.813l0,0c2.505,0.501,5.089,0.439,7.567-0.18l0.473-0.118
			c2.478-0.619,5.063-0.681,7.567-0.18l0.392,0.078C20.664,5.507,21,5.917,21,6.394v10.839C21,17.864,20.423,18.337,19.804,18.213z"
			/>
	</g>
</g>
</svg>
