<?xml version="1.0" encoding="utf-8"?>
<!-- Generator: Adobe Illustrator 24.0.2, SVG Export Plug-In . SVG Version: 6.00 Build 0)  -->
<svg version="1.1" id="Layer_3" xmlns="http://www.w3.org/2000/svg" xmlns:xlink="http://www.w3.org/1999/xlink" x="0px" y="0px"
	 width="24px" height="24px" viewBox="0 0 24 24" enable-background="new 0 0 24 24" xml:space="preserve">
<g>
	<g>
		<path fill="none" d="M0,0h24v24H0V0z"/>
	</g>
	<g>
		<path fill="none" stroke="#323232" stroke-width="1.5" stroke-linecap="round" stroke-linejoin="round" d="M11,15.9H3.9
			C2.85,15.9,2,15.05,2,14V4.9C2,3.85,2.85,3,3.9,3h15.2C20.15,3,21,3.85,21,4.9V10"/>
		<path fill="none" stroke="#323232" stroke-width="1.5" stroke-linecap="round" stroke-linejoin="round" d="M13.179,7.971
			c0.927,0.927,0.927,2.431,0,3.359c-0.927,0.927-2.431,0.927-3.359,0c-0.927-0.927-0.927-2.431,0-3.359
			C10.748,7.043,12.252,7.043,13.179,7.971"/>
		
			<line fill="none" stroke="#323232" stroke-width="1.5" stroke-linecap="round" stroke-linejoin="round" x1="6" y1="13" x2="5" y2="13"/>
		
			<line fill="none" stroke="#323232" stroke-width="1.5" stroke-linecap="round" stroke-linejoin="round" x1="18" y1="6" x2="17" y2="6"/>
		<path fill="none" stroke="#323232" stroke-width="1.5" stroke-linecap="round" stroke-linejoin="round" d="M18,21
			c-2.209,0-4-1.79-4-3.999c0-2.164,1.84-4.002,4.004-4.001C20.211,13.002,22,14.792,22,17C22,19.209,20.21,21,18,21"/>
		<path fill="none" stroke="#323232" stroke-width="1.5" stroke-linecap="round" stroke-linejoin="round" d="M19.2,17h-1.6v-1.6"/>
	</g>
</g>
</svg>
