<?xml version="1.0" encoding="utf-8"?>
<!-- Generator: Adobe Illustrator 24.0.2, SVG Export Plug-In . SVG Version: 6.00 Build 0)  -->
<svg version="1.1" id="Layer_3" xmlns="http://www.w3.org/2000/svg" xmlns:xlink="http://www.w3.org/1999/xlink" x="0px" y="0px"
	 width="24px" height="24px" viewBox="0 0 24 24" enable-background="new 0 0 24 24" xml:space="preserve">
<g>
	<g>
		<path fill="none" d="M0,0h24v24H0V0z"/>
	</g>
	<g>
		<path fill="none" stroke="#323232" stroke-width="1.5" stroke-linecap="round" stroke-linejoin="round" d="M9,15.9H3.9
			C2.85,15.9,2,15.05,2,14V4.9C2,3.85,2.85,3,3.9,3h15.2C20.15,3,21,3.85,21,4.9V10"/>
		
			<line fill="none" stroke="#323232" stroke-width="1.5" stroke-linecap="round" stroke-linejoin="round" x1="6" y1="13" x2="5" y2="13"/>
		
			<line fill="none" stroke="#323232" stroke-width="1.5" stroke-linecap="round" stroke-linejoin="round" x1="18" y1="6" x2="17" y2="6"/>
		<path fill="none" stroke="#323232" stroke-width="1.5" stroke-linecap="round" stroke-linejoin="round" d="M18.5,20
			c-1.933,0-3.5-1.567-3.5-3.5s1.567-3.5,3.5-3.5c1.934,0,3.5,1.567,3.5,3.5S20.434,20,18.5,20"/>
		<path fill="none" stroke="#323232" stroke-width="1.5" stroke-linecap="round" stroke-linejoin="round" d="M15.33,15.018
			C13.478,15.108,12,16.626,12,18.5c0,1.933,1.567,3.5,3.5,3.5c1.397,0,2.593-0.824,3.155-2.008"/>
		<path fill="none" stroke="#323232" stroke-width="1.5" stroke-linecap="round" stroke-linejoin="round" d="M13.179,7.971
			c0.927,0.927,0.927,2.431,0,3.359c-0.927,0.927-2.431,0.927-3.359,0c-0.927-0.927-0.927-2.431,0-3.359
			C10.748,7.043,12.252,7.043,13.179,7.971"/>
	</g>
</g>
</svg>
