<svg id="Layer_3" data-name="Layer 3" xmlns="http://www.w3.org/2000/svg" viewBox="0 0 24 24"><title>moneybag</title><path d="M0,0H24V24H0Z" fill="none"/><rect x="7" y="6" width="10" height="3" rx="1" stroke-width="1.5" stroke="#323232" stroke-linecap="round" stroke-linejoin="round" fill="none"/><path d="M8.08209,9,5.48462,11.96851a6,6,0,0,0-.85108,6.63427l.093.186A4,4,0,0,0,8.30426,21h7.40308A3.99985,3.99985,0,0,0,19.285,18.78882l.08143-.16284a5.99984,5.99984,0,0,0-.87464-6.661L15.86621,9" fill="none" stroke="#323232" stroke-linecap="round" stroke-linejoin="round" stroke-width="1.5"/><path d="M15.451,6l.79578-1.54126A1,1,0,0,0,15.35822,3H8.64172a1,1,0,0,0-.88855,1.45874L8.549,6" fill="none" stroke="#323232" stroke-linecap="round" stroke-linejoin="round" stroke-width="1.5"/></svg>