<svg id="Layer_3" data-name="Layer 3" xmlns="http://www.w3.org/2000/svg" viewBox="0 0 24 24"><title>monitor-laptop</title><line x1="7" y1="16" x2="6.5" y2="20" fill="none" stroke="#323232" stroke-linecap="round" stroke-linejoin="round" stroke-width="1.5"/><path d="M18.5,11V5.428A2.428,2.428,0,0,0,16.072,3H3.5A2.428,2.428,0,0,0,1.072,5.428v8.144A2.428,2.428,0,0,0,3.5,16H11" fill="none" stroke="#323232" stroke-linecap="round" stroke-linejoin="round" stroke-width="1.5"/><line x1="5" y1="20" x2="10" y2="20" fill="none" stroke="#323232" stroke-linecap="round" stroke-linejoin="round" stroke-width="1.5"/><path d="M22,18V13a2,2,0,0,0-2-2H12.778A1.684,1.684,0,0,0,11,12.571V18" fill="none" stroke="#323232" stroke-linecap="round" stroke-linejoin="round" stroke-width="1.5"/><path d="M22,18H19.535a1,1,0,0,0-.832.445l-.406.609a1,1,0,0,1-.832.445h-1.93a1,1,0,0,1-.832-.445l-.406-.609A1,1,0,0,0,13.464,18H11a1,1,0,0,0-1,1v1a2,2,0,0,0,2,2h9a2,2,0,0,0,2-2V19A1,1,0,0,0,22,18Z" fill="none" stroke="#323232" stroke-linecap="round" stroke-linejoin="round" stroke-width="1.5"/><rect width="24" height="24" fill="none"/></svg>