<svg id="Layer_3" data-name="Layer 3" xmlns="http://www.w3.org/2000/svg" viewBox="0 0 24 24"><rect width="24" height="24" fill="none"/><path d="M20.582,9.353A8.84326,8.84326,0,0,1,21,12a9,9,0,1,1-9-9,8.84326,8.84326,0,0,1,2.647.418" fill="none" stroke="#323232" stroke-linecap="round" stroke-linejoin="round" stroke-width="1.5"/><path d="M19.012,6.262,17.737,4.987" fill="none" stroke="#323232" stroke-linecap="round" stroke-linejoin="round" stroke-width="1.5"/><line x1="21" y1="4.27393" x2="19.01202" y2="6.26196" fill="none" stroke="#323232" stroke-linecap="round" stroke-linejoin="round" stroke-width="1.5"/><path d="M16.53285,12.81055a.31226.31226,0,0,1,.42161.373,5.154,5.154,0,0,1-1.34342,2.3538,5.02666,5.02666,0,0,1-7.29276-6.9199q.09078-.09565.18646-.18645a5.14762,5.14762,0,0,1,2.35379-1.34342.31227.31227,0,0,1,.373.42161,3.94583,3.94583,0,0,0,5.30135,5.30135Z" fill="none" stroke="#323232" stroke-linecap="round" stroke-linejoin="round" stroke-width="1.5"/></svg>