<svg id="Layer_3" data-name="Layer 3" xmlns="http://www.w3.org/2000/svg" viewBox="0 0 24 24"><title>moon-sleep-mode-off</title><path d="M24,24H0V0H24Z" fill="none"/><line x1="4" y1="4" x2="21" y2="21" fill="none" stroke="#323232" stroke-linecap="round" stroke-linejoin="round" stroke-width="1.5"/><path d="M11.504,11.50236a6.83522,6.83522,0,0,1-7.76935,1.24443.53146.53146,0,0,0-.71658.635,8.75615,8.75615,0,0,0,2.28451,4.00178,8.66177,8.66177,0,0,0,12.24489.16025" fill="none" stroke="#323232" stroke-linecap="round" stroke-linejoin="round" stroke-width="1.5"/><path d="M12.97521,9.19526a7.015,7.015,0,0,0-.2276-5.46087.53169.53169,0,0,1,.63522-.71635A8.812,8.812,0,0,1,19.12329,15.3413" fill="none" stroke="#323232" stroke-linecap="round" stroke-linejoin="round" stroke-width="1.5"/></svg>