<svg id="Layer_3" data-name="Layer 3" xmlns="http://www.w3.org/2000/svg" viewBox="0 0 24 24"><title>moon-off-circle</title><line x1="18.36396" y1="5.63604" x2="5.63644" y2="18.36356" fill="none" stroke="#323232" stroke-linecap="round" stroke-linejoin="round" stroke-width="1.5"/><path d="M8.39111,15.60889c.00714.0072.0116.016.0188.02319a5.09361,5.09361,0,0,0,7.20111-.09479,5.15417,5.15417,0,0,0,1.34345-2.35382.31225.31225,0,0,0-.42163-.37292,4.02349,4.02349,0,0,1-4.57038-.73224c-.00695-.007-.01184-.01508-.01873-.022" fill="none" stroke="#323232" stroke-linecap="round" stroke-linejoin="round" stroke-width="1.5"/><line x1="8.39111" y1="15.60889" x2="11.94373" y2="12.05627" fill="none" stroke="#323232" stroke-linecap="round" stroke-linejoin="round" stroke-width="1.5"/><path d="M10.91449,10.08551a4.18171,4.18171,0,0,1,.317-2.57635.31225.31225,0,0,0-.373-.42157,5.17568,5.17568,0,0,0-3.60638,6.66027" fill="none" stroke="#323232" stroke-linecap="round" stroke-linejoin="round" stroke-width="1.5"/><circle cx="12" cy="12" r="9" fill="none" stroke="#323232" stroke-linecap="round" stroke-linejoin="round" stroke-width="1.5"/><path d="M0,0H24V24H0Z" fill="none"/></svg>