<svg id="Layer_3" data-name="Layer 3" xmlns="http://www.w3.org/2000/svg" viewBox="0 0 24 24"><title>mouse-circle</title><path d="M0,0H24V24H0Z" fill="none"/><path d="M12,17h0a3.582,3.582,0,0,1-3.571-3.571V10.572A3.582,3.582,0,0,1,12,7h0a3.582,3.582,0,0,1,3.571,3.571v2.857A3.582,3.582,0,0,1,12,17Z" fill="none" stroke="#323232" stroke-linecap="round" stroke-linejoin="round" stroke-width="1.5"/><circle cx="12" cy="12" r="9" fill="none" stroke="#323232" stroke-linecap="round" stroke-linejoin="round" stroke-width="1.5"/><path d="M12,10.45a.05.05,0,0,0,0,.1.051.051,0,0,0,.05-.05A.052.052,0,0,0,12,10.45" fill="none" stroke="#323232" stroke-linecap="round" stroke-linejoin="round" stroke-width="1.5"/></svg>