<svg id="Layer_3" data-name="Layer 3" xmlns="http://www.w3.org/2000/svg" viewBox="0 0 24 24"><title>mouse-circle</title><line x1="15.571" y1="11" x2="8.429" y2="11" fill="none" stroke="#323232" stroke-linecap="round" stroke-linejoin="round" stroke-width="1.5"/><path d="M12,17h0a3.582,3.582,0,0,1-3.571-3.571V10.572A3.582,3.582,0,0,1,12,7h0a3.582,3.582,0,0,1,3.571,3.571v2.857A3.582,3.582,0,0,1,12,17Z" fill="none" stroke="#323232" stroke-linecap="round" stroke-linejoin="round" stroke-width="1.5"/><path d="M12,11V4.668A1.33,1.33,0,0,0,10.672,3.34h0A6.983,6.983,0,0,0,5.744,5.376h0A9.348,9.348,0,0,0,3,12,8.994,8.994,0,1,0,16,3.949" fill="none" stroke="#323232" stroke-linecap="round" stroke-linejoin="round" stroke-width="1.5"/><rect width="24" height="24" fill="none"/></svg>