<svg id="Layer_3" data-name="Layer 3" xmlns="http://www.w3.org/2000/svg" viewBox="0 0 24 24"><title>mouse-signal_1</title><path d="M0,0H24V24H0Z" fill="none"/><path d="M3.619,8.726a9,9,0,1,0,16.761,0" fill="none" stroke="#323232" stroke-linecap="round" stroke-linejoin="round" stroke-width="1.5"/><path d="M5.636,5.636a9,9,0,0,1,12.729,0" fill="none" stroke="#323232" stroke-linecap="round" stroke-linejoin="round" stroke-width="1.5"/><path d="M12,17h0a3.582,3.582,0,0,1-3.571-3.571V10.572A3.582,3.582,0,0,1,12,7h0a3.582,3.582,0,0,1,3.571,3.571v2.857A3.582,3.582,0,0,1,12,17Z" fill="none" stroke="#323232" stroke-linecap="round" stroke-linejoin="round" stroke-width="1.5"/><path d="M12,9.857v1.429" fill="none" stroke="#323232" stroke-linecap="round" stroke-linejoin="round" stroke-width="1.5"/></svg>