<svg id="Layer_3" data-name="Layer 3" xmlns="http://www.w3.org/2000/svg" viewBox="0 0 24 24"><title>mouse-signal</title><path d="M0,0H24V24H0Z" fill="none"/><path d="M12,22h0a4.3,4.3,0,0,1-4.286-4.286V14.286A4.3,4.3,0,0,1,12,10h0a4.3,4.3,0,0,1,4.286,4.286v3.428A4.3,4.3,0,0,1,12,22Z" fill="none" stroke="#323232" stroke-linecap="round" stroke-linejoin="round" stroke-width="1.5"/><path d="M17.543,8.929a7.207,7.207,0,0,0-11.086,0" fill="none" stroke="#323232" stroke-linecap="round" stroke-linejoin="round" stroke-width="1.5"/><path d="M4.466,6.323a10.2,10.2,0,0,1,15.068,0" fill="none" stroke="#323232" stroke-linecap="round" stroke-linejoin="round" stroke-width="1.5"/><path d="M12,13.692v.923" fill="none" stroke="#323232" stroke-linecap="round" stroke-linejoin="round" stroke-width="1.5"/><line x1="17.543" y1="9.315" x2="17.429" y2="9.429" fill="none"/></svg>