<?xml version="1.0" encoding="UTF-8"?><svg version="1.1" viewBox="0 0 24 24" xmlns="http://www.w3.org/2000/svg" xmlns:xlink="http://www.w3.org/1999/xlink"><!--Generated by IJSVG (https://github.com/iconjar/IJSVG)--><g stroke-linecap="round" stroke-width="1.5" stroke="#323232" fill="none" stroke-linejoin="round"><path d="M16.07,8h-5.581c-0.514,0 -0.93,0.416 -0.93,0.93v3.349c0,0.514 0.416,0.93 0.93,0.93h5.581c0.514,0 0.93,-0.416 0.93,-0.93v-3.349c0,-0.514 -0.416,-0.93 -0.93,-0.93Z"></path><path d="M14.443,13.209v1.861c0,0.514 -0.416,0.93 -0.93,0.93h-5.583c-0.514,0 -0.93,-0.416 -0.93,-0.93v-3.581c0,-0.514 0.416,-0.93 0.93,-0.93h1.628"></path><path d="M18,21h-12c-1.657,0 -3,-1.343 -3,-3v-12c0,-1.657 1.343,-3 3,-3h12c1.657,0 3,1.343 3,3v12c0,1.657 -1.343,3 -3,3Z"></path></g><path fill="none" d="M24,24h-24v-24h24v24Z"></path></svg>