<?xml version="1.0" encoding="utf-8"?>
<!-- Generator: Adobe Illustrator 24.0.2, SVG Export Plug-In . SVG Version: 6.00 Build 0)  -->
<svg version="1.1" id="Layer_1" xmlns="http://www.w3.org/2000/svg" xmlns:xlink="http://www.w3.org/1999/xlink" x="0px" y="0px"
	 width="24px" height="24px" viewBox="0 0 24 24" enable-background="new 0 0 24 24" xml:space="preserve">
<g>
	<path fill="none" d="M0,0h24v24H0V0z"/>
	<g>
		<g>
			<path fill="none" stroke="#323232" stroke-width="1.5" stroke-linecap="round" stroke-linejoin="round" d="M9,21H5
				c-1.105,0-2-0.895-2-2V8.5C3,7.672,3.672,7,4.5,7h13C18.328,7,19,7.672,19,8.5V10"/>
			<path fill="none" stroke="#323232" stroke-width="1.5" stroke-linecap="round" stroke-linejoin="round" d="M7,7V6.75l0,0
				C7,4.679,8.679,3,10.75,3h0.5C13.321,3,15,4.679,15,6.75l0,0V7"/>
		</g>
		<path fill="none" stroke="#323232" stroke-width="1.5" stroke-linecap="round" stroke-linejoin="round" d="M14.642,19.332
			c0.604,0.604,0.604,1.584,0,2.189c-0.604,0.604-1.584,0.604-2.189,0c-0.604-0.604-0.604-1.584,0-2.189
			C13.058,18.728,14.037,18.728,14.642,19.332"/>
		<path fill="none" stroke="#323232" stroke-width="1.5" stroke-linecap="round" stroke-linejoin="round" d="M20.316,18.3
			c0.604,0.604,0.604,1.584,0,2.189c-0.604,0.604-1.584,0.604-2.189,0c-0.604-0.604-0.604-1.584,0-2.189
			C18.732,17.696,19.712,17.696,20.316,18.3"/>
		<path fill="none" stroke="#323232" stroke-width="1.5" stroke-linecap="round" stroke-linejoin="round" d="M15.095,20.426V15.45
			c0-0.422,0.257-0.802,0.649-0.957l3.611-1.444c0.678-0.271,1.414,0.228,1.414,0.957v5.389"/>
	</g>
</g>
</svg>
