<?xml version="1.0" encoding="utf-8"?>
<!-- Generator: Adobe Illustrator 24.0.2, SVG Export Plug-In . SVG Version: 6.00 Build 0)  -->
<svg version="1.1" id="Layer_1" xmlns="http://www.w3.org/2000/svg" xmlns:xlink="http://www.w3.org/1999/xlink" x="0px" y="0px"
	 width="24px" height="24px" viewBox="0 0 24 24" enable-background="new 0 0 24 24" xml:space="preserve">
<g>
	<g>
		<path fill="none" stroke="#323232" stroke-width="1.5" stroke-linecap="round" stroke-linejoin="round" d="M9.926,12.074
			c0.669,0.669,0.669,1.755,0,2.424c-0.669,0.669-1.755,0.669-2.424,0c-0.669-0.669-0.669-1.755,0-2.424
			C8.172,11.404,9.257,11.404,9.926,12.074"/>
		<path fill="none" stroke="#323232" stroke-width="1.5" stroke-linecap="round" stroke-linejoin="round" d="M13,7.857L10.429,7
			v6.286"/>
		<path fill="none" stroke="#323232" stroke-width="1.5" stroke-linecap="round" stroke-linejoin="round" d="M13,21.16H6.84
			c-2.209,0-4-1.791-4-4V6.84c0-2.209,1.791-4,4-4h10.32c2.209,0,4,1.791,4,4V12"/>
		<g>
			<path fill="none" stroke="#323232" stroke-width="1.5" stroke-linecap="round" stroke-linejoin="round" d="M18.5,15.706
				c0.268-0.298,0.731-0.635,1.437-0.635c1.234,0,2.063,1.104,2.063,2.132C21.999,19.353,19.192,21,18.5,21S15,19.353,15,17.204
				c0-1.029,0.828-2.132,2.063-2.132C17.768,15.072,18.232,15.408,18.5,15.706z"/>
		</g>
	</g>
	<g>
		<g>
			<g>
				<path fill="none" d="M0,0h24v24H0V0z"/>
			</g>
		</g>
	</g>
</g>
</svg>
