<?xml version="1.0" encoding="utf-8"?>
<!-- Generator: Adobe Illustrator 24.0.2, SVG Export Plug-In . SVG Version: 6.00 Build 0)  -->
<svg version="1.1" id="Layer_1" xmlns="http://www.w3.org/2000/svg" xmlns:xlink="http://www.w3.org/1999/xlink" x="0px" y="0px"
	 width="24px" height="24px" viewBox="0 0 24 24" enable-background="new 0 0 24 24" xml:space="preserve">
<g>
	<g>
		<path id="a_3_" fill="none" d="M0,0h24v24H0V0z"/>
	</g>
	<g>
		<path id="a_2_" fill="none" d="M0,0h24v24H0V0z"/>
	</g>
	<g>
		<path fill="none" stroke="#323232" stroke-width="1.5" stroke-linecap="round" stroke-linejoin="round" d="M21,11V6
			c0-1.657-1.343-3-3-3h-3.478H6C4.343,3,3,4.343,3,6v12c0,1.657,1.343,3,3,3h6"/>
		<path fill="none" stroke="#323232" stroke-width="1.5" stroke-linecap="round" stroke-linejoin="round" d="M20.121,14.879
			c1.297,1.297,1.158,3.485-0.415,4.592c-1.001,0.705-2.401,0.707-3.405,0.005c-1.581-1.105-1.722-3.298-0.423-4.597
			C17.05,13.707,18.95,13.707,20.121,14.879"/>
		<path fill="none" stroke="#323232" stroke-width="1.5" stroke-linecap="round" stroke-linejoin="round" d="M22,21l-1.88-1.88"/>
		<path fill="none" stroke="#323232" stroke-width="1.5" stroke-linecap="round" stroke-linejoin="round" d="M9.813,11.965
			c0.694,0.694,0.694,1.82,0,2.514c-0.694,0.694-1.82,0.694-2.514,0c-0.694-0.694-0.694-1.82,0-2.514
			C7.993,11.271,9.118,11.271,9.813,11.965"/>
		<path fill="none" stroke="#323232" stroke-width="1.5" stroke-linecap="round" stroke-linejoin="round" d="M13,7.889L10.333,7
			v6.222"/>
	</g>
</g>
</svg>
