<svg id="Layer_3" data-name="Layer 3" xmlns="http://www.w3.org/2000/svg" viewBox="0 0 24 24"><title>mustache-square</title><path d="M0,0H24V24H0Z" fill="none"/><path d="M3,8v8a5,5,0,0,0,5,5h8a5,5,0,0,0,5-5V8a5,5,0,0,0-5-5H8A5,5,0,0,0,3,8Z" fill="none" stroke="#323232" stroke-linecap="round" stroke-linejoin="round" stroke-width="1.5"/><path d="M6,12.087C8.228,12.671,8.648,10,10.667,10c.8,0,.8.3,1.333.3s.533-.3,1.333-.3c2.019,0,2.439,2.671,4.667,2.087v-.016c0,1.579-2.667,4.735-6,1.579-3.333,3.156-6,0-6-1.579" fill="none" stroke="#323232" stroke-linecap="round" stroke-linejoin="round" stroke-width="1.5"/></svg>