<?xml version="1.0" encoding="utf-8"?>
<!-- Generator: Adobe Illustrator 23.1.0, SVG Export Plug-In . SVG Version: 6.00 Build 0)  -->
<svg version="1.1" id="Icons" xmlns="http://www.w3.org/2000/svg" xmlns:xlink="http://www.w3.org/1999/xlink" x="0px" y="0px"
	 width="24px" height="24px" viewBox="0 0 24 24" enable-background="new 0 0 24 24" xml:space="preserve">
<g>
	<g>
		<path fill="none" stroke="#323232" stroke-width="1.5" stroke-linecap="round" stroke-linejoin="round" d="M20,6.039v6.989"/>
		<path fill="none" stroke="#323232" stroke-width="1.5" stroke-linecap="round" stroke-linejoin="round" d="M21,19.028h-6"/>
		<path fill="none" stroke="#323232" stroke-width="1.5" stroke-linecap="round" stroke-linejoin="round" d="M19,17.028l2,2l-2,2"/>
		<path fill="none" stroke="#323232" stroke-width="1.5" stroke-linecap="round" stroke-linejoin="round" d="M11,17.028H5
			c-1.105,0-2-0.895-2-2V6.039"/>
		<path fill="none" stroke="#323232" stroke-width="1.5" stroke-linecap="round" stroke-linejoin="round" d="M5.011,4.028h12.979
			c1.11,0,2.011,0.9,2.011,2.011v0c0,0.667-0.331,1.29-0.883,1.664l-5.357,3.631c-1.365,0.925-3.157,0.925-4.522,0l-5.356-3.63
			C3.331,7.33,3,6.706,3,6.04V6.039C3,4.928,3.9,4.028,5.011,4.028z"/>
	</g>
	<path fill="none" d="M24,0.028l-24,0l0,24h24V0.028z"/>
</g>
</svg>
