<?xml version="1.0" encoding="utf-8"?>
<!-- Generator: Adobe Illustrator 23.1.0, SVG Export Plug-In . SVG Version: 6.00 Build 0)  -->
<svg version="1.1" id="Icons" xmlns="http://www.w3.org/2000/svg" xmlns:xlink="http://www.w3.org/1999/xlink" x="0px" y="0px"
	 width="24px" height="24px" viewBox="0 0 24 24" enable-background="new 0 0 24 24" xml:space="preserve">
<g>
	<g>
		<path fill="none" stroke="#323232" stroke-width="1.5" stroke-linecap="round" stroke-linejoin="round" d="M20.383,3.645
			c0.823,0.823,0.823,2.156,0,2.979c-0.823,0.823-2.156,0.823-2.979,0c-0.823-0.823-0.823-2.156,0-2.979
			C18.227,2.822,19.561,2.822,20.383,3.645"/>
		<path fill="none" stroke="#323232" stroke-width="1.5" stroke-linecap="round" stroke-linejoin="round" d="M19.969,11.483v7.424
			c0,1.172-0.949,2.121-2.121,2.121H5.121C3.949,21.028,3,20.079,3,18.907V6.18c0-1.172,0.949-2.121,2.121-2.121h7.424"/>
		<path fill="none" stroke="#323232" stroke-width="1.5" stroke-linecap="round" stroke-linejoin="round" d="M13.201,16.687
			c-0.562,0.232-1.144,0.341-1.717,0.341C9.008,17.028,7,15.02,7,12.543s2.008-4.485,4.485-4.485s4.485,2.008,4.485,4.485v0.747
			c0,0.774-0.628,1.401-1.401,1.401s-1.401-0.628-1.401-1.401v-0.747c0-0.929-0.753-1.682-1.682-1.682l0,0
			c-0.929,0-1.682,0.753-1.682,1.682c0,0.929,0.753,1.682,1.682,1.682c0.929,0,1.682-0.753,1.682-1.682"/>
	</g>
	<rect y="0.028" fill="none" width="24" height="24"/>
</g>
</svg>
