<?xml version="1.0" encoding="utf-8"?>
<!-- Generator: Adobe Illustrator 23.1.0, SVG Export Plug-In . SVG Version: 6.00 Build 0)  -->
<svg version="1.1" id="Icons" xmlns="http://www.w3.org/2000/svg" xmlns:xlink="http://www.w3.org/1999/xlink" x="0px" y="0px"
	 width="24px" height="24px" viewBox="0 0 24 24" enable-background="new 0 0 24 24" xml:space="preserve">
<g>
	<g>
		<path fill="none" stroke="#323232" stroke-width="1.5" stroke-linecap="round" stroke-linejoin="round" d="M8.75,4.528H7.002
			c-0.903,0-1.712,0.554-2.029,1.391L2.526,12.37c-0.182,0.481-0.276,0.991-0.276,1.505v3.51c0,1.183,0.97,2.143,2.167,2.143h15.167
			c1.197,0,2.167-0.959,2.167-2.143v-3.509c0-0.514-0.093-1.024-0.276-1.505l-2.447-6.453c-0.317-0.837-1.126-1.391-2.029-1.391
			L8.75,4.528"/>
		<path fill="none" stroke="#323232" stroke-width="1.5" stroke-linecap="round" stroke-linejoin="round" d="M2.322,13.099h4.674
			c0.41,0,0.786,0.229,0.969,0.592L8.45,14.65c0.184,0.363,0.559,0.593,0.97,0.593h5.161c0.41,0,0.785-0.229,0.968-0.592
			l0.485-0.958c0.184-0.363,0.559-0.593,0.97-0.593h4.675"/>
		<path fill="none" stroke="#323232" stroke-width="1.5" stroke-linecap="round" stroke-linejoin="round" d="M4.164,8.052h2.881
			c0.411,0,0.785,0.229,0.968,0.592l0.484,0.958c0.184,0.363,0.559,0.592,0.97,0.592h5.161c0.411,0,0.785-0.229,0.968-0.592
			l0.484-0.958c0.184-0.363,0.559-0.592,0.97-0.592h2.786"/>
	</g>
	<path fill="none" d="M0,0.028h24v24H0V0.028z"/>
</g>
</svg>
