<?xml version="1.0" encoding="utf-8"?>
<!-- Generator: Adobe Illustrator 23.1.0, SVG Export Plug-In . SVG Version: 6.00 Build 0)  -->
<svg version="1.1" id="Icons" xmlns="http://www.w3.org/2000/svg" xmlns:xlink="http://www.w3.org/1999/xlink" x="0px" y="0px"
	 width="24px" height="24px" viewBox="0 0 24 24" enable-background="new 0 0 24 24" xml:space="preserve">
<g>
	<g>
		<g>
			<g>
				<path fill="none" stroke="#323232" stroke-width="1.5" stroke-linecap="round" stroke-linejoin="round" d="M3,9.703V19
					c0,1.105,0.895,2,2,2h13.999c1.105,0,2-0.895,2-2V9.703"/>
			</g>
		</g>
		<path fill="none" stroke="#323232" stroke-width="1.5" stroke-linecap="round" stroke-linejoin="round" d="M3.886,8.044
			l6.994-4.705c0.677-0.455,1.562-0.455,2.239,0l6.994,4.705c1.178,0.793,1.178,2.526,0,3.319l-5.874,3.952
			c-1.354,0.911-3.124,0.911-4.478,0l-5.874-3.952C2.708,10.57,2.708,8.836,3.886,8.044z"/>
		
			<line fill="none" stroke="#323232" stroke-width="1.5" stroke-linecap="round" stroke-linejoin="round" x1="9.118" y1="14.882" x2="3.586" y2="20.414"/>
		
			<line fill="none" stroke="#323232" stroke-width="1.5" stroke-linecap="round" stroke-linejoin="round" x1="20.411" y1="20.411" x2="14.882" y2="14.882"/>
		<g>
			<g>
				<path fill="none" stroke="#323232" stroke-width="1.5" stroke-linecap="round" stroke-linejoin="round" d="M18,12.785V7.687
					c0-1.105-0.895-2-2-2H8c-1.105,0-2,0.895-2,2v5.098"/>
			</g>
		</g>
		
			<line fill="none" stroke="#323232" stroke-width="1.5" stroke-linecap="round" stroke-linejoin="round" x1="9" y1="9" x2="15" y2="9"/>
		
			<line fill="none" stroke="#323232" stroke-width="1.5" stroke-linecap="round" stroke-linejoin="round" x1="9.5" y1="12" x2="14.5" y2="12"/>
	</g>
	<rect fill="none" width="24" height="24"/>
</g>
</svg>
