<?xml version="1.0" encoding="utf-8"?>
<!-- Generator: Adobe Illustrator 23.1.0, SVG Export Plug-In . SVG Version: 6.00 Build 0)  -->
<svg version="1.1" id="Icons" xmlns="http://www.w3.org/2000/svg" xmlns:xlink="http://www.w3.org/1999/xlink" x="0px" y="0px"
	 width="24px" height="24px" viewBox="0 0 24 24" enable-background="new 0 0 24 24" xml:space="preserve">
<g>
	<g>
		<path fill="none" d="M0,0h24v24H0V0z"/>
	</g>
	<g>
		<path fill="none" stroke="#323232" stroke-width="1.5" stroke-linecap="round" stroke-linejoin="round" d="M2.347,16.153
			l5.269-5.269"/>
		<path fill="none" stroke="#323232" stroke-width="1.5" stroke-linecap="round" stroke-linejoin="round" d="M19,13.105V6.011"/>
		<path fill="none" stroke="#323232" stroke-width="1.5" stroke-linecap="round" stroke-linejoin="round" d="M2,6.011V15
			c0,1.105,0.846,2,1.889,2h10.11"/>
		<path fill="none" stroke="#323232" stroke-width="1.5" stroke-linecap="round" stroke-linejoin="round" d="M16.989,4H4.011
			C2.9,4,2,4.9,2,6.011l0,0c0,0.667,0.331,1.29,0.883,1.664l5.357,3.631c1.365,0.925,3.157,0.925,4.522,0l5.356-3.63
			C18.669,7.302,19,6.678,19,6.011l0,0C19,4.9,18.1,4,16.989,4z"/>
		
			<line fill="none" stroke="#323232" stroke-width="1.5" stroke-linecap="round" stroke-linejoin="round" x1="16.035" y1="13.535" x2="13.384" y2="10.884"/>
		<path fill="none" stroke="#323232" stroke-width="1.5" stroke-linecap="round" stroke-linejoin="round" d="M20.828,14.172
			c1.562,1.562,1.562,4.095,0,5.657s-4.095,1.562-5.657,0s-1.562-4.095,0-5.657S19.266,12.609,20.828,14.172"/>
		
			<line fill="none" stroke="#323232" stroke-width="1.5" stroke-linecap="round" stroke-linejoin="round" stroke-miterlimit="10" x1="19.6" y1="17" x2="16.4" y2="17"/>
		
			<polyline fill="none" stroke="#323232" stroke-width="1.5" stroke-linecap="round" stroke-linejoin="round" stroke-miterlimit="10" points="
			18,18.6 16.4,17 18,15.4 		"/>
	</g>
</g>
</svg>
