<?xml version="1.0" encoding="utf-8"?>
<!-- Generator: Adobe Illustrator 23.1.0, SVG Export Plug-In . SVG Version: 6.00 Build 0)  -->
<svg version="1.1" id="Icons" xmlns="http://www.w3.org/2000/svg" xmlns:xlink="http://www.w3.org/1999/xlink" x="0px" y="0px"
	 width="24px" height="24px" viewBox="0 0 24 24" enable-background="new 0 0 24 24" xml:space="preserve">
<g>
	<path fill="none" d="M0,0.028h24v24H0V0.028z"/>
	<g>
		<path fill="none" stroke="#323232" stroke-width="1.5" stroke-linecap="round" stroke-linejoin="round" d="M19,21.028H5
			c-1.105,0-2-0.895-2-2v-8c0-1.105,0.895-2,2-2h14c1.105,0,2,0.895,2,2v8C21,20.133,20.105,21.028,19,21.028z"/>
		<path fill="none" stroke="#323232" stroke-width="1.5" stroke-linecap="round" stroke-linejoin="round" d="M16,12.028h1
			c0.552,0,1,0.448,1,1v1c0,0.552-0.448,1-1,1h-1c-0.552,0-1-0.448-1-1v-1C15,12.476,15.448,12.028,16,12.028z"/>
		<path fill="none" stroke="#323232" stroke-width="1.5" stroke-linecap="round" stroke-linejoin="round" d="M6,9.028v-5
			c0-0.552,0.448-1,1-1h10c0.552,0,1,0.448,1,1v5"/>
		
			<line fill="none" stroke="#323232" stroke-width="1.5" stroke-linecap="round" stroke-linejoin="round" x1="9" y1="6.028" x2="15" y2="6.028"/>
		<path fill="none" stroke="#323232" stroke-width="1.5" stroke-linecap="round" stroke-linejoin="round" d="M9,15.028H6"/>
		<path fill="none" stroke="#323232" stroke-width="1.5" stroke-linecap="round" stroke-linejoin="round" d="M11,18.028H6"/>
	</g>
</g>
</svg>
