<?xml version="1.0" encoding="utf-8"?>
<!-- Generator: Adobe Illustrator 23.1.0, SVG Export Plug-In . SVG Version: 6.00 Build 0)  -->
<svg version="1.1" id="Icons" xmlns="http://www.w3.org/2000/svg" xmlns:xlink="http://www.w3.org/1999/xlink" x="0px" y="0px"
	 width="24px" height="24px" viewBox="0 0 24 24" enable-background="new 0 0 24 24" xml:space="preserve">
<g>
	<path fill="none" d="M0,0.028h24v24H0V0.028z"/>
	<g>
		<path fill="none" stroke="#323232" stroke-width="1.5" stroke-linecap="round" stroke-linejoin="round" d="M6,6.028h12"/>
		<path fill="none" stroke="#323232" stroke-width="1.5" stroke-linecap="round" stroke-linejoin="round" d="M19.211,9.028H4.789
			C3.801,9.028,3,9.829,3,10.817v0c0,0.593,0.294,1.148,0.785,1.481l5.957,4.037c1.364,0.924,3.153,0.924,4.517,0l5.955-4.036
			C20.706,11.966,21,11.411,21,10.818v-0.001C21,9.829,20.199,9.028,19.211,9.028z"/>
		
			<line fill="none" stroke="#323232" stroke-width="1.5" stroke-linecap="round" stroke-linejoin="round" x1="8.468" y1="15.56" x2="3.586" y2="20.442"/>
		
			<line fill="none" stroke="#323232" stroke-width="1.5" stroke-linecap="round" stroke-linejoin="round" x1="15.535" y1="15.563" x2="20.414" y2="20.442"/>
		<path fill="none" stroke="#323232" stroke-width="1.5" stroke-linecap="round" stroke-linejoin="round" d="M3,10.833v8.195
			c0,1.105,0.895,2,2,2h14c1.105,0,2-0.895,2-2v-8.195"/>
		<path fill="none" stroke="#323232" stroke-width="1.5" stroke-linecap="round" stroke-linejoin="round" d="M8,3.028h8"/>
	</g>
</g>
</svg>
