<?xml version="1.0" encoding="utf-8"?>
<!-- Generator: Adobe Illustrator 23.1.0, SVG Export Plug-In . SVG Version: 6.00 Build 0)  -->
<svg version="1.1" id="Icons" xmlns="http://www.w3.org/2000/svg" xmlns:xlink="http://www.w3.org/1999/xlink" x="0px" y="0px"
	 width="24px" height="24px" viewBox="0 0 24 24" enable-background="new 0 0 24 24" xml:space="preserve">
<g>
	<rect fill="none" width="24" height="24"/>
	<g>
		<path fill="none" stroke="#323232" stroke-width="1.5" stroke-linecap="round" stroke-linejoin="round" d="M3.689,3.689
			L3.689,3.689c-0.918,0.918-0.918,2.407,0,3.325l0,0c0.918,0.918,0.918,2.407,0,3.325l0,0c-0.918,0.918-0.918,2.407,0,3.325l0,0
			c0.918,0.918,0.918,2.407,0,3.325l0,0c-0.918,0.918-0.918,2.407,0,3.325l0,0c0.918,0.918,2.407,0.918,3.325,0l0,0
			c0.918-0.918,2.407-0.918,3.325,0l0,0c0.918,0.918,2.407,0.918,3.325,0l0,0c0.918-0.918,2.407-0.918,3.325,0l0,0
			c0.918,0.918,2.407,0.918,3.325,0l0,0c0.918-0.918,0.918-2.407,0-3.325l0,0c-0.918-0.918-0.918-2.407,0-3.325l0,0
			c0.918-0.918,0.918-2.407,0-3.325l0,0c-0.918-0.918-0.918-2.407,0-3.325l0,0c0.918-0.918,0.918-2.407,0-3.325l0,0
			c-0.918-0.918-2.407-0.918-3.325,0l0,0c-0.918,0.918-2.407,0.918-3.325,0l0,0c-0.918-0.918-2.407-0.918-3.325,0l0,0
			c-0.918,0.918-2.407,0.918-3.325,0l0,0C6.095,2.77,4.607,2.77,3.689,3.689z"/>
		<g>
			<path fill="none" stroke="#323232" stroke-width="1.5" stroke-linecap="round" stroke-linejoin="round" d="M15,16.028H9
				c-0.552,0-1-0.448-1-1v-6c0-0.552,0.448-1,1-1h6c0.552,0,1,0.448,1,1v6C16,15.58,15.552,16.028,15,16.028z"/>
		</g>
	</g>
</g>
</svg>
