<?xml version="1.0" encoding="utf-8"?>
<!-- Generator: Adobe Illustrator 23.1.0, SVG Export Plug-In . SVG Version: 6.00 Build 0)  -->
<svg version="1.1" id="Icons" xmlns="http://www.w3.org/2000/svg" xmlns:xlink="http://www.w3.org/1999/xlink" x="0px" y="0px"
	 width="24px" height="24px" viewBox="0 0 24 24" enable-background="new 0 0 24 24" xml:space="preserve">
<g>
	<g>
		<path fill="none" stroke="#323232" stroke-width="1.5" stroke-linecap="round" stroke-linejoin="round" d="M14,13.572
			c3.45,0,6.522,1.194,8,4.456v-1c0-4.968-3.63-7.955-8-7.955V6.915c0-0.755-0.885-1.164-1.462-0.675l-5.351,4.533
			c-0.409,0.345-0.42,0.972-0.022,1.331l5.351,4.841C13.087,17.46,14,17.057,14,16.289V13.572z"/>
		<path fill="none" stroke="#323232" stroke-width="1.5" stroke-linecap="round" stroke-linejoin="round" d="M7.362,16.624
			l-5.085-4.601c-0.378-0.342-0.368-0.937,0.021-1.265l5.085-4.308"/>
	</g>
	<path fill="none" d="M0,0.028h24v24H0V0.028z"/>
</g>
</svg>
