<?xml version="1.0" encoding="utf-8"?>
<!-- Generator: Adobe Illustrator 24.0.2, SVG Export Plug-In . SVG Version: 6.00 Build 0)  -->
<svg version="1.1" id="Icons" xmlns="http://www.w3.org/2000/svg" xmlns:xlink="http://www.w3.org/1999/xlink" x="0px" y="0px"
	 width="24px" height="24px" viewBox="0 0 24 24" style="enable-background:new 0 0 24 24;" xml:space="preserve">
<style type="text/css">
	.st0{fill:none;stroke:#323232;stroke-width:1.5;stroke-linecap:round;stroke-linejoin:round;}
	.st1{fill:none;}
</style>
<g>
	<g>
		<g>
			<path class="st0" d="M14.6,13.5H9.4c-0.9,0-1.7-0.8-1.7-1.7V9.2c0-0.9,0.8-1.7,1.7-1.7h5.1c0.9,0,1.7,0.8,1.7,1.7v2.6
				C16.3,12.7,15.5,13.5,14.6,13.5z"/>
		</g>
		<path class="st0" d="M16,8.3l-2.9,2.3c-0.6,0.5-1.5,0.5-2.1,0L8,8.2"/>
		<path class="st0" d="M20,16h-3.5c-0.3,0-0.6,0.2-0.8,0.4l-0.4,0.6c-0.2,0.3-0.5,0.4-0.8,0.4H9.5c-0.3,0-0.6-0.2-0.8-0.4l-0.4-0.6
			C8.1,16.2,7.8,16,7.5,16H4c-0.6,0-1,0.4-1,1v1c0,1.1,0.9,2,2,2h14c1.1,0,2-0.9,2-2v-1C21,16.4,20.6,16,20,16z"/>
		<path class="st0" d="M20,16V6c0-1.1-0.9-2-2-2H6C4.9,4,4,4.9,4,6v10"/>
	</g>
	<rect class="st1" width="24" height="24"/>
</g>
</svg>
