<?xml version="1.0" encoding="utf-8"?>
<!-- Generator: Adobe Illustrator 23.1.0, SVG Export Plug-In . SVG Version: 6.00 Build 0)  -->
<svg version="1.1" id="Icons" xmlns="http://www.w3.org/2000/svg" xmlns:xlink="http://www.w3.org/1999/xlink" x="0px" y="0px"
	 width="24px" height="24px" viewBox="0 0 24 24" enable-background="new 0 0 24 24" xml:space="preserve">
<g>
	<rect fill="none" width="24" height="24"/>
	<g>
		
			<polyline fill="none" stroke="#323232" stroke-width="1.5" stroke-linecap="round" stroke-linejoin="round" stroke-miterlimit="10" points="
			10,18 10,22 14,22 14,18 		"/>
		
			<line fill="none" stroke="#323232" stroke-width="1.5" stroke-linecap="round" stroke-linejoin="round" stroke-miterlimit="10" x1="6" y1="12" x2="7" y2="12"/>
		
			<path fill="none" stroke="#323232" stroke-width="1.5" stroke-linecap="round" stroke-linejoin="round" stroke-miterlimit="10" d="
			M17.5,8h-11C4.567,8,3,9.567,3,11.5c0,0,0,5.5,0,5.5c0,0.552,0.448,1,1,1h16c0.552,0,1-0.448,1-1c0,0,0-5.5,0-5.5
			C21,9.567,19.433,8,17.5,8z"/>
		
			<line fill="none" stroke="#323232" stroke-width="1.5" stroke-linecap="round" stroke-linejoin="round" stroke-miterlimit="10" x1="14" y1="5" x2="14" y2="12"/>
		
			<rect x="14" y="2" fill="none" stroke="#323232" stroke-width="1.5" stroke-linecap="round" stroke-linejoin="round" stroke-miterlimit="10" width="5" height="3"/>
		
			<path id="Shape_3077_211_" fill="none" stroke="#323232" stroke-width="1.5" stroke-linecap="round" stroke-linejoin="round" stroke-miterlimit="10" d="
			M13.999,11.625c-0.207,0.001-0.374,0.169-0.374,0.376c0,0.207,0.168,0.375,0.375,0.374c0.207,0,0.375-0.168,0.375-0.375
			C14.375,11.793,14.207,11.625,13.999,11.625"/>
		
			<path fill="none" stroke="#323232" stroke-width="1.5" stroke-linecap="round" stroke-linejoin="round" stroke-miterlimit="10" d="
			M6.5,8C8.433,8,10,9.567,10,11.5V18"/>
	</g>
</g>
</svg>
