<?xml version="1.0" encoding="utf-8"?>
<!-- Generator: Adobe Illustrator 23.1.0, SVG Export Plug-In . SVG Version: 6.00 Build 0)  -->
<svg version="1.1" id="Icons" xmlns="http://www.w3.org/2000/svg" xmlns:xlink="http://www.w3.org/1999/xlink" x="0px" y="0px"
	 width="24px" height="24px" viewBox="0 0 24 24" enable-background="new 0 0 24 24" xml:space="preserve">
<g>
	<g>
		<g>
			<path fill="none" stroke="#323232" stroke-width="1.5" stroke-linecap="round" stroke-linejoin="round" d="M14.105,17.11
				c-0.69,0.285-1.404,0.418-2.105,0.418c-3.037,0-5.5-2.463-5.5-5.5s2.463-5.5,5.5-5.5s5.5,2.463,5.5,5.5v0.916
				c0,0.949-0.77,1.718-1.718,1.718c-0.948,0-1.718-0.77-1.718-1.718v-0.916c0-1.14-0.923-2.062-2.062-2.062l0,0
				c-1.14,0-2.062,0.923-2.062,2.062s0.923,2.062,2.062,2.062"/>
			<path fill="none" stroke="#323232" stroke-width="1.5" stroke-linecap="round" stroke-linejoin="round" d="M12.001,14.091
				c1.14,0,2.062-0.923,2.062-2.062"/>
		</g>
		<path fill="none" stroke="#323232" stroke-width="1.5" stroke-linecap="round" stroke-linejoin="round" d="M12,3.028L12,3.028
			c4.971,0,9,4.029,9,9v0c0,4.971-4.029,9-9,9h0c-4.971,0-9-4.029-9-9v0C3,7.057,7.029,3.028,12,3.028z"/>
	</g>
	<rect y="0.028" fill="none" width="24" height="24"/>
</g>
</svg>
