<?xml version="1.0" encoding="utf-8"?>
<!-- Generator: Adobe Illustrator 24.0.2, SVG Export Plug-In . SVG Version: 6.00 Build 0)  -->
<svg version="1.1" id="Icons" xmlns="http://www.w3.org/2000/svg" xmlns:xlink="http://www.w3.org/1999/xlink" x="0px" y="0px"
	 width="24px" height="24px" viewBox="0 0 24 24" style="enable-background:new 0 0 24 24;" xml:space="preserve">
<style type="text/css">
	.st0{fill:none;stroke:#323232;stroke-width:1.5;stroke-linecap:round;stroke-linejoin:round;}
	.st1{fill:none;}
</style>
<g>
	<g>
		<path class="st0" d="M16.5,8h2.7c1,0,1.8,0.8,1.8,1.8v0c0,0.6-0.3,1.1-0.8,1.5l-6,4c-1.4,0.9-3.1,0.9-4.5,0l-6-4.1
			C3.3,10.9,3,10.4,3,9.8l0,0C3,8.8,3.8,8,4.8,8h2.7"/>
		<g>
			<path class="st0" d="M3,9.6V19c0,1.1,0.9,2,2,2h14c1.1,0,2-0.9,2-2V9.6"/>
		</g>
		<line class="st0" x1="9.1" y1="14.9" x2="3.6" y2="20.4"/>
		<line class="st0" x1="14.9" y1="14.9" x2="20.4" y2="20.4"/>
		<path class="st0" d="M12,12c-2.5,0-4.5-2-4.5-4.5S9.5,3,12,3c2.5,0,4.5,2,4.5,4.5S14.5,12,12,12"/>
		<path class="st0" d="M11.2,6.8L12,6v3"/>
		<path class="st0" d="M11.2,9h1.5"/>
	</g>
	<rect class="st1" width="24" height="24"/>
</g>
</svg>
