<?xml version="1.0" encoding="utf-8"?>
<!-- Generator: Adobe Illustrator 23.1.0, SVG Export Plug-In . SVG Version: 6.00 Build 0)  -->
<svg version="1.1" id="Icons" xmlns="http://www.w3.org/2000/svg" xmlns:xlink="http://www.w3.org/1999/xlink" x="0px" y="0px"
	 width="24px" height="24px" viewBox="0 0 24 24" enable-background="new 0 0 24 24" xml:space="preserve">
<g>
	<path fill="none" d="M0,0.028h24v24H0V0.028z"/>
	<g>
		<g>
			<path fill="none" stroke="#323232" stroke-width="1.5" stroke-linecap="round" stroke-linejoin="round" d="M3,9.703V19
				c0,1.105,0.895,2,2,2h13.999c1.105,0,2-0.895,2-2V9.703"/>
		</g>
	</g>
	
		<line fill="none" stroke="#323232" stroke-width="1.5" stroke-linecap="round" stroke-linejoin="round" x1="9.118" y1="14.882" x2="3.586" y2="20.414"/>
	
		<line fill="none" stroke="#323232" stroke-width="1.5" stroke-linecap="round" stroke-linejoin="round" x1="20.411" y1="20.411" x2="14.882" y2="14.882"/>
	<path fill="none" stroke="#323232" stroke-width="1.5" stroke-linecap="round" stroke-linejoin="round" d="M6,6.622L3.886,8.044
		c-1.178,0.792-1.178,2.526,0,3.319l5.874,3.952c1.354,0.911,3.124,0.911,4.478,0l5.874-3.952c1.178-0.793,1.178-2.526,0-3.319
		L18,6.622"/>
	<g>
		<g>
			<path fill="none" stroke="#323232" stroke-width="1.5" stroke-linecap="round" stroke-linejoin="round" d="M18,12.785V3.902
				c0-0.552-0.448-1-1-1H7c-0.552,0-1,0.448-1,1v8.883"/>
		</g>
	</g>
	
		<line fill="none" stroke="#323232" stroke-width="1.5" stroke-linecap="round" stroke-linejoin="round" x1="9" y1="6.5" x2="15" y2="6.5"/>
	
		<line fill="none" stroke="#323232" stroke-width="1.5" stroke-linecap="round" stroke-linejoin="round" x1="9" y1="10" x2="15" y2="10"/>
</g>
</svg>
