<?xml version="1.0" encoding="utf-8"?>
<!-- Generator: Adobe Illustrator 23.1.0, SVG Export Plug-In . SVG Version: 6.00 Build 0)  -->
<svg version="1.1" id="Icons" xmlns="http://www.w3.org/2000/svg" xmlns:xlink="http://www.w3.org/1999/xlink" x="0px" y="0px"
	 width="24px" height="24px" viewBox="0 0 24 24" enable-background="new 0 0 24 24" xml:space="preserve">
<g>
	<g>
		<g>
			<path fill="none" stroke="#323232" stroke-width="1.5" stroke-linecap="round" stroke-linejoin="round" d="M19.509,10H7.491
				C6.668,10,6,10.667,6,11.491v0c0,0.494,0.245,0.957,0.654,1.234l4.964,3.364c1.137,0.77,2.628,0.77,3.764,0l4.963-3.364
				C20.755,12.448,21,11.986,21,11.491v-0.001C21,10.667,20.333,10,19.509,10z"/>
			<path fill="none" stroke="#323232" stroke-width="1.5" stroke-linecap="round" stroke-linejoin="round" d="M6,11.504V19
				c0,1.105,0.895,2,2,2h11c1.105,0,2-0.895,2-2v-7.496"/>
		</g>
		<path fill="none" stroke="#323232" stroke-width="1.5" stroke-linecap="round" stroke-linejoin="round" d="M18.554,7.028
			c0,0-3.565-2.416-5.437-3.685c-0.678-0.459-1.562-0.456-2.24,0.003l-6.994,4.74C3.335,8.457,3.006,9.077,3.006,9.74L3,18"/>
	</g>
	<path fill="none" d="M0,0.028h24v24H0V0.028z"/>
</g>
</svg>
