<?xml version="1.0" encoding="utf-8"?>
<!-- Generator: Adobe Illustrator 23.1.0, SVG Export Plug-In . SVG Version: 6.00 Build 0)  -->
<svg version="1.1" id="Icons" xmlns="http://www.w3.org/2000/svg" xmlns:xlink="http://www.w3.org/1999/xlink" x="0px" y="0px"
	 width="24px" height="24px" viewBox="0 0 24 24" enable-background="new 0 0 24 24" xml:space="preserve">
<g>
	<g>
		<path fill="none" d="M0,0.028h24v24H0V0.028z"/>
	</g>
	<g>
		<path fill="none" stroke="#323232" stroke-width="1.5" stroke-linecap="round" stroke-linejoin="round" d="M19.994,11.002V6.013"
			/>
		<path fill="none" stroke="#323232" stroke-width="1.5" stroke-linecap="round" stroke-linejoin="round" d="M10.999,17.002H5.003
			c-1.104,0-1.999-0.895-1.999-2V5.985"/>
		<path fill="none" stroke="#323232" stroke-width="1.5" stroke-linecap="round" stroke-linejoin="round" d="M17.985,3.974H5.013
			c-1.11,0-2.01,0.9-2.01,2.011v0c0,0.667,0.33,1.29,0.882,1.664L9.24,11.28c1.365,0.925,3.155,0.925,4.52,0l5.353-3.63
			c0.552-0.374,0.882-0.998,0.882-1.664V5.985C19.994,4.874,19.095,3.974,17.985,3.974z"/>
		<g>
			
				<path fill="none" stroke="#323232" stroke-width="1.5" stroke-linecap="round" stroke-linejoin="round" stroke-miterlimit="10" d="
				M19.71,17v-1.29c0-0.897-0.765-1.71-1.71-1.71s-1.71,0.765-1.71,1.71V17"/>
		</g>
		
			<path fill="none" stroke="#323232" stroke-width="1.5" stroke-linecap="round" stroke-linejoin="round" stroke-miterlimit="10" d="
			M20.018,21h-4.036C15.44,21,15,20.56,15,20.018v-2.036C15,17.44,15.44,17,15.982,17h4.036C20.56,17,21,17.44,21,17.982v2.036
			C21,20.56,20.56,21,20.018,21z"/>
	</g>
</g>
</svg>
