<?xml version="1.0" encoding="utf-8"?>
<!-- Generator: Adobe Illustrator 24.0.2, SVG Export Plug-In . SVG Version: 6.00 Build 0)  -->
<svg version="1.1" id="Icons" xmlns="http://www.w3.org/2000/svg" xmlns:xlink="http://www.w3.org/1999/xlink" x="0px" y="0px"
	 width="24px" height="24px" viewBox="0 0 24 24" style="enable-background:new 0 0 24 24;" xml:space="preserve">
<style type="text/css">
	.st0{fill:none;stroke:#323232;stroke-width:1.5;stroke-linecap:round;stroke-linejoin:round;}
	.st1{fill:none;}
</style>
<g>
	<g>
		<path class="st0" d="M3,6.8L3,6.8c0,0.6,0.3,1.1,0.8,1.5l6,4.1c1.4,0.9,3.1,0.9,4.5,0l6-4C20.7,7.9,21,7.4,21,6.8v0
			c0-1-0.8-1.8-1.8-1.8H4.8C3.8,5,3,5.8,3,6.8z"/>
		<g>
			<path class="st0" d="M3,7v10c0,1.1,0.9,2,2,2h14c1.1,0,2-0.9,2-2V7"/>
		</g>
		<path class="st0" d="M3.6,18.4l6.1-6.1"/>
		<path class="st0" d="M14.3,12.3l6.1,6.1"/>
	</g>
	<rect class="st1" width="24" height="24"/>
</g>
</svg>
