<?xml version="1.0" encoding="utf-8"?>
<!-- Generator: Adobe Illustrator 23.1.0, SVG Export Plug-In . SVG Version: 6.00 Build 0)  -->
<svg version="1.1" id="Icons" xmlns="http://www.w3.org/2000/svg" xmlns:xlink="http://www.w3.org/1999/xlink" x="0px" y="0px"
	 width="24px" height="24px" viewBox="0 0 24 24" enable-background="new 0 0 24 24" xml:space="preserve">
<g>
	<g>
		<path fill="none" d="M0,0.028h24v24H0V0.028z"/>
	</g>
	<g>
		<path fill="none" stroke="#323232" stroke-width="1.5" stroke-linecap="round" stroke-linejoin="round" d="M15.007,20.974h2.827
			l3.877-3.877c0.391-0.391,0.391-1.023,0-1.413l-1.413-1.413c-0.391-0.391-1.023-0.391-1.413,0l-3.877,3.877V20.974z"/>
		<path fill="none" stroke="#323232" stroke-width="1.5" stroke-linecap="round" stroke-linejoin="round" d="M19.994,11.002V6.013"
			/>
		<path fill="none" stroke="#323232" stroke-width="1.5" stroke-linecap="round" stroke-linejoin="round" d="M10.999,17.002H5.003
			c-1.104,0-1.999-0.895-1.999-2V5.985"/>
		<path fill="none" stroke="#323232" stroke-width="1.5" stroke-linecap="round" stroke-linejoin="round" d="M17.985,3.974H5.013
			c-1.11,0-2.01,0.9-2.01,2.011v0c0,0.667,0.33,1.29,0.882,1.664L9.24,11.28c1.365,0.925,3.155,0.925,4.52,0l5.353-3.63
			c0.552-0.374,0.882-0.998,0.882-1.664V5.985C19.994,4.874,19.095,3.974,17.985,3.974z"/>
	</g>
</g>
</svg>
