<?xml version="1.0" encoding="utf-8"?>
<!-- Generator: Adobe Illustrator 23.1.0, SVG Export Plug-In . SVG Version: 6.00 Build 0)  -->
<svg version="1.1" id="Icons" xmlns="http://www.w3.org/2000/svg" xmlns:xlink="http://www.w3.org/1999/xlink" x="0px" y="0px"
	 width="24px" height="24px" viewBox="0 0 24 24" enable-background="new 0 0 24 24" xml:space="preserve">
<g>
	<path fill="none" d="M0,0.028h24v24H0V0.028z"/>
	<g>
		<g>
			<path fill="none" stroke="#323232" stroke-width="1.5" stroke-linecap="round" stroke-linejoin="round" d="M19,8.028V5.833"/>
			<path fill="none" stroke="#323232" stroke-width="1.5" stroke-linecap="round" stroke-linejoin="round" d="M2,5.833v9.195
				c0,1.105,0.846,2,1.889,2h1.047"/>
			<path fill="none" stroke="#323232" stroke-width="1.5" stroke-linecap="round" stroke-linejoin="round" d="M19,6.04L19,6.04
				c0-1.111-0.9-2.011-2.011-2.011H4.011C2.9,4.028,2,4.928,2,6.039v0"/>
		</g>
		<path fill="none" stroke="#323232" stroke-width="1.5" stroke-linecap="round" stroke-linejoin="round" d="M20,21.028H7
			c-1.105,0-2-0.895-2-2v-9c0-1.105,0.895-2,2-2h13c1.105,0,2,0.895,2,2v9C22,20.133,21.105,21.028,20,21.028z"/>
		<path fill="none" stroke="#323232" stroke-width="1.5" stroke-linecap="round" stroke-linejoin="round" d="M8.6,13.54l2.685,1.82
			c1.338,0.907,3.094,0.907,4.432,0L18.4,13.54"/>
	</g>
</g>
</svg>
