<?xml version="1.0" encoding="utf-8"?>
<!-- Generator: Adobe Illustrator 23.1.0, SVG Export Plug-In . SVG Version: 6.00 Build 0)  -->
<svg version="1.1" id="Icons" xmlns="http://www.w3.org/2000/svg" xmlns:xlink="http://www.w3.org/1999/xlink" x="0px" y="0px"
	 width="24px" height="24px" viewBox="0 0 24 24" enable-background="new 0 0 24 24" xml:space="preserve">
<g>
	<g>
		<path fill="none" stroke="#323232" stroke-width="1.5" stroke-linecap="round" stroke-linejoin="round" d="M14.625,15.53H9.375
			c-0.966,0-1.749-0.783-1.749-1.749v-3.502c0-0.966,0.783-1.749,1.749-1.749h5.252c0.966,0,1.749,0.783,1.749,1.749v3.502
			C16.375,14.746,15.592,15.53,14.625,15.53z"/>
		<path fill="none" stroke="#323232" stroke-width="1.5" stroke-linecap="round" stroke-linejoin="round" d="M7.696,9.812
			l3.231,2.311c0.638,0.457,1.496,0.457,2.135,0.002l3.242-2.312"/>
		<path fill="none" stroke="#323232" stroke-width="1.5" stroke-linecap="round" stroke-linejoin="round" d="M5.16,6.188
			c0.461-0.54,0.986-1.021,1.562-1.438"/>
		<path fill="none" stroke="#323232" stroke-width="1.5" stroke-linecap="round" stroke-linejoin="round" d="M17,19.51
			c-1.43,0.958-3.149,1.518-5,1.518c-0.912,0-1.791-0.138-2.62-0.39"/>
		<path fill="none" stroke="#323232" stroke-width="1.5" stroke-linecap="round" stroke-linejoin="round" d="M6.349,19.028
			c-1.281-1.035-2.265-2.417-2.826-4"/>
		<path fill="none" stroke="#323232" stroke-width="1.5" stroke-linecap="round" stroke-linejoin="round" d="M3.523,9.028
			C3.19,9.968,3,10.974,3,12.028"/>
		<path fill="none" stroke="#323232" stroke-width="1.5" stroke-linecap="round" stroke-linejoin="round" d="M19.463,17.028
			c0.964-1.431,1.537-3.145,1.537-5c0-4.971-4.029-9-9-9"/>
	</g>
	<path fill="none" d="M0,0.028h24v24H0V0.028z"/>
</g>
</svg>
