<?xml version="1.0" encoding="utf-8"?>
<!-- Generator: Adobe Illustrator 23.1.0, SVG Export Plug-In . SVG Version: 6.00 Build 0)  -->
<svg version="1.1" id="Icons" xmlns="http://www.w3.org/2000/svg" xmlns:xlink="http://www.w3.org/1999/xlink" x="0px" y="0px"
	 width="24px" height="24px" viewBox="0 0 24 24" enable-background="new 0 0 24 24" xml:space="preserve">
<g>
	<g>
		<path fill="none" stroke="#323232" stroke-width="1.5" stroke-linecap="round" stroke-linejoin="round" d="M19,13.028V6.039"/>
		<path fill="none" stroke="#323232" stroke-width="1.5" stroke-linecap="round" stroke-linejoin="round" d="M14,17.028H4
			c-1.105,0-2-0.895-2-2v-9"/>
		<path fill="none" stroke="#323232" stroke-width="1.5" stroke-linecap="round" stroke-linejoin="round" d="M16.989,4.028H4.011
			C2.9,4.028,2,4.928,2,6.039v0c0,0.667,0.331,1.29,0.883,1.664l5.357,3.631c1.365,0.925,3.157,0.925,4.522,0l5.356-3.63
			C18.669,7.33,19,6.706,19,6.04V6.039C19,4.928,18.1,4.028,16.989,4.028z"/>
		<path fill="none" stroke="#323232" stroke-width="1.5" stroke-linecap="round" stroke-linejoin="round" d="M20.828,14.2
			c1.562,1.562,1.562,4.095,0,5.657c-1.562,1.562-4.095,1.562-5.657,0c-1.562-1.562-1.562-4.095,0-5.657S19.266,12.638,20.828,14.2"
			/>
		<path fill="none" stroke="#323232" stroke-width="1.5" stroke-linecap="round" stroke-linejoin="round" d="M19.555,16.25
			l-1.945,1.945l-1.166-1.167"/>
	</g>
	<g>
		<path fill="none" d="M0,0.028h24v24H0V0.028z"/>
	</g>
</g>
</svg>
