<?xml version="1.0" encoding="utf-8"?>
<!-- Generator: Adobe Illustrator 23.1.0, SVG Export Plug-In . SVG Version: 6.00 Build 0)  -->
<svg version="1.1" id="Icons" xmlns="http://www.w3.org/2000/svg" xmlns:xlink="http://www.w3.org/1999/xlink" x="0px" y="0px"
	 width="24px" height="24px" viewBox="0 0 24 24" enable-background="new 0 0 24 24" xml:space="preserve">
<g>
	<path fill="none" stroke="#323232" stroke-width="1.5" stroke-linecap="round" stroke-linejoin="round" d="M16,12
		c0,2.209-1.791,4-4,4s-4-1.791-4-4s1.791-4,4-4h0C14.209,8,16,9.791,16,12v1.5c0,1.381,1.119,2.5,2.5,2.5s2.5-1.119,2.5-2.5V12
		c0-4.971-4.029-9-9-9s-9,4.029-9,9s4.029,9,9,9c1.149,0,2.317-0.218,3.444-0.685c0.608-0.252,1.17-0.568,1.689-0.929"/>
	<rect fill="none" width="24" height="24"/>
</g>
</svg>
