<?xml version="1.0" encoding="utf-8"?>
<!-- Generator: Adobe Illustrator 23.1.0, SVG Export Plug-In . SVG Version: 6.00 Build 0)  -->
<svg version="1.1" id="Icons" xmlns="http://www.w3.org/2000/svg" xmlns:xlink="http://www.w3.org/1999/xlink" x="0px" y="0px"
	 width="24px" height="24px" viewBox="0 0 24 24" enable-background="new 0 0 24 24" xml:space="preserve">
<g>
	<g>
		<g>
			
				<path fill="none" stroke="#323232" stroke-width="1.5" stroke-linecap="round" stroke-linejoin="round" stroke-miterlimit="10" d="
				M15.002,16.004H8.998c-1.105,0-2-0.895-2-2V10c0-1.105,0.895-2,2-2h6.005c1.105,0,2,0.895,2,2v4.004
				C17.002,15.108,16.107,16.004,15.002,16.004z"/>
		</g>
		
			<path fill="none" stroke="#323232" stroke-width="1.5" stroke-linecap="round" stroke-linejoin="round" stroke-miterlimit="10" d="
			M17.923,20.044c0.81-0.597,1.524-1.312,2.121-2.121"/>
		
			<path fill="none" stroke="#323232" stroke-width="1.5" stroke-linecap="round" stroke-linejoin="round" stroke-miterlimit="10" d="
			M3.956,6.077c0.597-0.81,1.312-1.524,2.121-2.121"/>
		
			<path fill="none" stroke="#323232" stroke-width="1.5" stroke-linecap="round" stroke-linejoin="round" stroke-miterlimit="10" d="
			M10.5,21.876c0.995,0.15,2.005,0.15,3,0"/>
		
			<path fill="none" stroke="#323232" stroke-width="1.5" stroke-linecap="round" stroke-linejoin="round" stroke-miterlimit="10" d="
			M10.5,2.124c0.995-0.15,2.005-0.15,3,0"/>
		
			<path fill="none" stroke="#323232" stroke-width="1.5" stroke-linecap="round" stroke-linejoin="round" stroke-miterlimit="10" d="
			M3.956,17.923c0.597,0.81,1.312,1.524,2.121,2.121"/>
		
			<path fill="none" stroke="#323232" stroke-width="1.5" stroke-linecap="round" stroke-linejoin="round" stroke-miterlimit="10" d="
			M17.923,3.956c0.81,0.597,1.524,1.312,2.121,2.121"/>
		
			<path fill="none" stroke="#323232" stroke-width="1.5" stroke-linecap="round" stroke-linejoin="round" stroke-miterlimit="10" d="
			M2.124,10.5c-0.15,0.995-0.15,2.005,0,3"/>
		
			<path fill="none" stroke="#323232" stroke-width="1.5" stroke-linecap="round" stroke-linejoin="round" stroke-miterlimit="10" d="
			M21.876,10.5c0.15,0.995,0.15,2.005,0,3"/>
		
			<path fill="none" stroke="#323232" stroke-width="1.5" stroke-linecap="round" stroke-linejoin="round" stroke-miterlimit="10" d="
			M7.079,9.466l3.694,2.642c0.73,0.522,1.711,0.523,2.441,0.002l3.707-2.644"/>
	</g>
	<rect fill="none" width="24" height="24"/>
</g>
</svg>
