<?xml version="1.0" encoding="utf-8"?>
<!-- Generator: Adobe Illustrator 23.1.0, SVG Export Plug-In . SVG Version: 6.00 Build 0)  -->
<svg version="1.1" id="Icons" xmlns="http://www.w3.org/2000/svg" xmlns:xlink="http://www.w3.org/1999/xlink" x="0px" y="0px"
	 width="24px" height="24px" viewBox="0 0 24 24" enable-background="new 0 0 24 24" xml:space="preserve">
<g>
	<rect fill="none" width="24" height="24"/>
	<g>
		
			<line fill="none" stroke="#323232" stroke-width="1.5" stroke-linecap="round" stroke-linejoin="round" stroke-miterlimit="10" x1="12" y1="3" x2="12" y2="12"/>
		
			<polyline fill="none" stroke="#323232" stroke-width="1.5" stroke-linecap="round" stroke-linejoin="round" stroke-miterlimit="10" points="
			9,9 12,12 15,9 		"/>
		
			<path fill="none" stroke="#323232" stroke-width="1.5" stroke-linecap="round" stroke-linejoin="round" stroke-miterlimit="10" d="
			M9,6H7.386c-0.834,0-1.58,0.517-1.873,1.298L3.127,13.66C3.043,13.885,3,14.123,3,14.363V18c0,1.105,0.895,2,2,2h14
			c1.105,0,2-0.895,2-2v-3.637c0-0.24-0.043-0.478-0.127-0.702l-2.386-6.363C18.194,6.517,17.448,6,16.614,6H15"/>
		
			<path fill="none" stroke="#323232" stroke-width="1.5" stroke-linecap="round" stroke-linejoin="round" stroke-miterlimit="10" d="
			M3.034,14h4.348c0.379,0,0.725,0.214,0.894,0.553l0.447,0.894C8.893,15.786,9.239,16,9.618,16h4.764
			c0.379,0,0.725-0.214,0.894-0.553l0.447-0.894C15.893,14.214,16.239,14,16.618,14h4.348"/>
	</g>
</g>
</svg>
