<?xml version="1.0" encoding="utf-8"?>
<!-- Generator: Adobe Illustrator 23.1.0, SVG Export Plug-In . SVG Version: 6.00 Build 0)  -->
<svg version="1.1" id="Icons" xmlns="http://www.w3.org/2000/svg" xmlns:xlink="http://www.w3.org/1999/xlink" x="0px" y="0px"
	 width="24px" height="24px" viewBox="0 0 24 24" enable-background="new 0 0 24 24" xml:space="preserve">
<g>
	<g>
		<path fill="none" d="M0,0.028h24v24H0V0.028z"/>
	</g>
	<g>
		<path fill="none" stroke="#323232" stroke-width="1.5" stroke-linecap="round" stroke-linejoin="round" d="M17.998,21.024
			c0,0,2.995-1.431,2.995-3.578L21,14.947l-2.184-0.782c-0.525-0.188-1.099-0.188-1.623,0l-2.183,0.782l-0.007,2.498
			C15.003,19.592,17.998,21.024,17.998,21.024z"/>
		<path fill="none" stroke="#323232" stroke-width="1.5" stroke-linecap="round" stroke-linejoin="round" d="M19.991,11.052V6.062"
			/>
		<path fill="none" stroke="#323232" stroke-width="1.5" stroke-linecap="round" stroke-linejoin="round" d="M10.996,17.052H4.999
			c-1.104,0-1.999-0.895-1.999-2V6.034"/>
		<path fill="none" stroke="#323232" stroke-width="1.5" stroke-linecap="round" stroke-linejoin="round" d="M17.981,4.024H5.01
			C3.9,4.024,3,4.924,3,6.034v0c0,0.667,0.33,1.29,0.882,1.664l5.354,3.631c1.365,0.925,3.155,0.925,4.52,0l5.353-3.63
			c0.552-0.374,0.882-0.998,0.882-1.664V6.034C19.991,4.924,19.091,4.024,17.981,4.024z"/>
	</g>
</g>
</svg>
