<?xml version="1.0" encoding="utf-8"?>
<!-- Generator: Adobe Illustrator 23.1.0, SVG Export Plug-In . SVG Version: 6.00 Build 0)  -->
<svg version="1.1" id="Icons" xmlns="http://www.w3.org/2000/svg" xmlns:xlink="http://www.w3.org/1999/xlink" x="0px" y="0px"
	 width="24px" height="24px" viewBox="0 0 24 24" enable-background="new 0 0 24 24" xml:space="preserve">
<g>
	<rect fill="none" width="24" height="24"/>
	<g>
		<g>
			<path fill="none" stroke="#323232" stroke-width="1.5" stroke-linecap="round" stroke-linejoin="round" d="M13.914,16.62
				C13.287,16.879,12.638,17,12,17c-2.761,0-5-2.239-5-5s2.239-5,5-5s5,2.239,5,5v0.833c0,0.767-0.622,1.389-1.389,1.389
				c-0.767,0-1.389-0.622-1.389-1.389V12c0-1.227-0.995-2.222-2.222-2.222h0c-1.227,0-2.222,0.995-2.222,2.222
				s0.995,2.222,2.222,2.222s2.222-0.995,2.222-2.222"/>
		</g>
		<path fill="none" stroke="#323232" stroke-width="1.5" stroke-linecap="round" stroke-linejoin="round" d="M3.689,3.689
			L3.689,3.689c-0.918,0.918-0.918,2.407,0,3.325l0,0c0.918,0.918,0.918,2.407,0,3.325l0,0c-0.918,0.918-0.918,2.407,0,3.325l0,0
			c0.918,0.918,0.918,2.407,0,3.325l0,0c-0.918,0.918-0.918,2.407,0,3.325l0,0c0.918,0.918,2.407,0.918,3.325,0l0,0
			c0.918-0.918,2.407-0.918,3.325,0l0,0c0.918,0.918,2.407,0.918,3.325,0l0,0c0.918-0.918,2.407-0.918,3.325,0l0,0
			c0.918,0.918,2.407,0.918,3.325,0l0,0c0.918-0.918,0.918-2.407,0-3.325l0,0c-0.918-0.918-0.918-2.407,0-3.325l0,0
			c0.918-0.918,0.918-2.407,0-3.325l0,0c-0.918-0.918-0.918-2.407,0-3.325l0,0c0.918-0.918,0.918-2.407,0-3.325l0,0
			c-0.918-0.918-2.407-0.918-3.325,0l0,0c-0.918,0.918-2.407,0.918-3.325,0l0,0c-0.918-0.918-2.407-0.918-3.325,0l0,0
			c-0.918,0.918-2.407,0.918-3.325,0l0,0C6.095,2.77,4.607,2.77,3.689,3.689z"/>
	</g>
</g>
</svg>
