<svg id="Layer_3" data-name="Layer 3" xmlns="http://www.w3.org/2000/svg" viewBox="0 0 24 24"><title>nail-polisher</title><path d="M13.828,11H10.172A1,1,0,0,1,9.18,9.878l.686-5.562A1.5,1.5,0,0,1,11.354,3h1.292a1.5,1.5,0,0,1,1.488,1.316l.686,5.562A1,1,0,0,1,13.828,11Z" fill="none" stroke="#323232" stroke-linecap="round" stroke-linejoin="round" stroke-width="1.5"/><path d="M14.264,22H9.736a3,3,0,0,1-2.949-2.446L6.07,15.739A4,4,0,0,1,10,11h4a4,4,0,0,1,3.931,4.739l-.717,3.815A3,3,0,0,1,14.264,22Z" fill="none" stroke="#323232" stroke-linecap="round" stroke-linejoin="round" stroke-width="1.5"/><path d="M13.412,19H10.588a1,1,0,0,1-.983-.815L9.264,16.37A2,2,0,0,1,11.229,14h1.542a2,2,0,0,1,1.965,2.37L14.4,18.185A1,1,0,0,1,13.412,19Z" fill="none" stroke="#323232" stroke-linecap="round" stroke-linejoin="round" stroke-width="1.5"/><path d="M0,0H24V24H0Z" fill="none"/></svg>