<svg id="Layer_3" data-name="Layer 3" xmlns="http://www.w3.org/2000/svg" viewBox="0 0 24 24"><path d="M21,12a9.00013,9.00013,0,0,1-9.25515,8.99647,9.0989,9.0989,0,0,1-8.74132-8.74132A9.00014,9.00014,0,0,1,12,3" fill="none" stroke="#323232" stroke-linecap="round" stroke-linejoin="round" stroke-width="1.5"/><path d="M19.65789,2.38978,20.208,3.39509a.99944.99944,0,0,0,.39707.397l1.00516.54994a.7496.7496,0,0,1,0,1.3152l-1.00406.54939a.99952.99952,0,0,0-.39685.39669l-.55157,1.00709a.74959.74959,0,0,1-1.315-.00028l-.54981-1.00485a.99945.99945,0,0,0-.3967-.39686l-1.00666-.55132a.74959.74959,0,0,1,.00025-1.315l1.00611-.55051a.9994.9994,0,0,0,.397-.397l.54977-1.00477A.7496.7496,0,0,1,19.65789,2.38978Z" fill="none" stroke="#323232" stroke-linecap="round" stroke-linejoin="round" stroke-width="1.5"/><path d="M11.1,7.5h1.8a1.85,1.85,0,0,1,1.85,1.85v4.9a2.5,2.5,0,0,1-2.5,2.5h-.5a2.5,2.5,0,0,1-2.5-2.5V9.35A1.85,1.85,0,0,1,11.1,7.5Z" fill="none" stroke="#323232" stroke-linecap="round" stroke-linejoin="round" stroke-width="1.5"/><path d="M14.75,11.91a3.76915,3.76915,0,0,1,.48.26,2.96024,2.96024,0,0,1,1.4,2.54l-.01,5.01" fill="none" stroke="#323232" stroke-linecap="round" stroke-linejoin="round" stroke-width="1.5"/><path d="M7.38,19.69l-.01-4.98a2.96024,2.96024,0,0,1,1.4-2.54,3.76915,3.76915,0,0,1,.48-.26" fill="none" stroke="#323232" stroke-linecap="round" stroke-linejoin="round" stroke-width="1.5"/><path d="M0,0H24V24H0Z" fill="none"/></svg>