<svg id="Layer_3" data-name="Layer 3" xmlns="http://www.w3.org/2000/svg" viewBox="0 0 24 24"><title>night-mode-add</title><path d="M0,0H24V24H0Z" fill="none"/><path d="M0,0H24V24H0Z" fill="none"/><path d="M18.249,16.5V20" fill="none" stroke="#323232" stroke-linecap="round" stroke-linejoin="round" stroke-width="1.5"/><path d="M16.5,18.249H20" fill="none" stroke="#323232" stroke-linecap="round" stroke-linejoin="round" stroke-width="1.5"/><path d="M13,20.938A8.16,8.16,0,0,1,12,21a9,9,0,1,1,9-9,8.16,8.16,0,0,1-.062,1" fill="none" stroke="#323232" stroke-linecap="round" stroke-linejoin="round" stroke-width="1.5"/><path d="M15.627,12.665a.25.25,0,0,1,.338.3,4.132,4.132,0,0,1-1.077,1.887,4.03,4.03,0,1,1-5.7-5.7,4.127,4.127,0,0,1,1.887-1.077.25.25,0,0,1,.3.338,3.163,3.163,0,0,0,4.25,4.25Z" fill="none" stroke="#323232" stroke-linecap="round" stroke-linejoin="round" stroke-width="1.5"/></svg>