<svg id="Layer_3" data-name="Layer 3" xmlns="http://www.w3.org/2000/svg" viewBox="0 0 24 24"><title>Artboard 207</title><path d="M13.229,12.582a.219.219,0,0,1,.3.261,3.616,3.616,0,0,1-.941,1.648A3.519,3.519,0,1,1,7.61,9.516a3.6,3.6,0,0,1,1.647-.94.218.218,0,0,1,.261.295,2.762,2.762,0,0,0,3.711,3.711Z" fill="none" stroke="#323232" stroke-linecap="round" stroke-linejoin="round" stroke-width="1.5"/><path d="M14,19A7,7,0,0,0,14,5H10a7,7,0,0,0,0,14Z" fill="none" stroke="#323232" stroke-linecap="round" stroke-linejoin="round" stroke-width="1.5"/><path d="M0,0H24V24H0Z" fill="none"/></svg>