<?xml version="1.0" encoding="utf-8"?>
<!-- Generator: Adobe Illustrator 24.0.2, SVG Export Plug-In . SVG Version: 6.00 Build 0)  -->
<svg version="1.1" id="Layer_1" xmlns="http://www.w3.org/2000/svg" xmlns:xlink="http://www.w3.org/1999/xlink" x="0px" y="0px"
	 width="24px" height="24px" viewBox="0 0 24 24" enable-background="new 0 0 24 24" xml:space="preserve">
<g>
	<path fill="none" d="M0,0h24v24H0V0z"/>
	<g>
		<path fill="none" stroke="#323232" stroke-width="1.5" stroke-linecap="round" stroke-linejoin="round" d="M21,12L21,12
			c0,4.971-4.029,9-9,9l0,0c-4.971,0-9-4.029-9-9l0,0c0-4.971,4.029-9,9-9l0,0C16.971,3,21,7.029,21,12z"/>
		<path fill="none" stroke="#323232" stroke-width="1.5" stroke-linecap="round" stroke-linejoin="round" d="M11.924,12.965
			c0.694,0.694,0.694,1.82,0,2.514c-0.694,0.694-1.82,0.694-2.514,0s-0.694-1.82,0-2.514C10.104,12.271,11.229,12.271,11.924,12.965
			"/>
		<path fill="none" stroke="#323232" stroke-width="1.5" stroke-linecap="round" stroke-linejoin="round" d="M15.111,8.889L12.444,8
			v6.222"/>
	</g>
</g>
</svg>
