<svg id="Layer_3" data-name="Layer 3" xmlns="http://www.w3.org/2000/svg" viewBox="0 0 24 24"><title>notebook-credit-card-transfer-send</title><path d="M19,16H15.535a1,1,0,0,0-.832.445l-.406.609a1,1,0,0,1-.832.445H8.535a1,1,0,0,1-.832-.445L7.3,16.445A1,1,0,0,0,6.464,16H3a1,1,0,0,0-1,1v1a2,2,0,0,0,2,2H18a2,2,0,0,0,2-2V17A1,1,0,0,0,19,16Z" fill="none" stroke="#323232" stroke-linecap="round" stroke-linejoin="round" stroke-width="1.5"/><path d="M19,16V13" fill="none" stroke="#323232" stroke-linecap="round" stroke-linejoin="round" stroke-width="1.5"/><path d="M8.958,8l2,2-2,2" fill="none" stroke="#323232" stroke-linecap="round" stroke-linejoin="round" stroke-width="1.5"/><path d="M10.96,10H7.26" fill="none" stroke="#323232" stroke-linecap="round" stroke-linejoin="round" stroke-width="1.5"/><path d="M19,7V6a2,2,0,0,0-2-2H5A2,2,0,0,0,3,6V16" fill="none" stroke="#323232" stroke-linecap="round" stroke-linejoin="round" stroke-width="1.5"/><path d="M14,8.5v3A1.5,1.5,0,0,0,15.5,13h5A1.5,1.5,0,0,0,22,11.5v-3A1.5,1.5,0,0,0,20.5,7h-5A1.5,1.5,0,0,0,14,8.5Z" fill="none" stroke="#323232" stroke-linecap="round" stroke-linejoin="round" stroke-width="1.5"/><path d="M22,9.5H14" fill="none" stroke="#323232" stroke-linecap="round" stroke-linejoin="round" stroke-width="1.5"/><path d="M0,0H24V24H0Z" fill="none"/></svg>