<svg id="Layer_3" data-name="Layer 3" xmlns="http://www.w3.org/2000/svg" viewBox="0 0 24 24"><title>notebook-laptop-checkmark-circle</title><path d="M24,24H0V0H24Z" fill="none"/><circle cx="5.75" cy="17.25" r="3.75" fill="none" stroke="#323232" stroke-linecap="round" stroke-linejoin="round" stroke-width="1.5"/><path d="M5.25013,13.54738a8.49933,8.49933,0,1,1,3.912,5.26268" fill="none" stroke="#323232" stroke-linecap="round" stroke-linejoin="round" stroke-width="1.5"/><line x1="17.64901" y1="15.50609" x2="9.07057" y2="15.50609" fill="none" stroke="#323232" stroke-linecap="round" stroke-linejoin="round" stroke-width="1.5"/><path d="M10.85261,7.48257H16.1387A1.13273,1.13273,0,0,1,17.27144,8.6153h0v3.77578a.75516.75516,0,0,1-.75516.75515H10.475a.75516.75516,0,0,1-.75516-.75515h0V8.6153A1.13273,1.13273,0,0,1,10.85261,7.48257Z" fill="none" stroke="#323232" stroke-linecap="round" stroke-linejoin="round" stroke-width="1.5"/><path d="M6.917,16.66725l-1.458,1.458L4.583,17.25" fill="none" stroke="#323232" stroke-linecap="round" stroke-linejoin="round" stroke-width="1.5"/></svg>