<?xml version="1.0" encoding="utf-8"?>
<!-- Generator: Adobe Illustrator 24.0.2, SVG Export Plug-In . SVG Version: 6.00 Build 0)  -->
<svg version="1.1" id="Layer_1" xmlns="http://www.w3.org/2000/svg" xmlns:xlink="http://www.w3.org/1999/xlink" x="0px" y="0px"
	 width="24px" height="24px" viewBox="0 0 24 24" enable-background="new 0 0 24 24" xml:space="preserve">
<g>
	<g>
		<path fill="none" stroke="#323232" stroke-width="1.5" stroke-linecap="round" stroke-linejoin="round" d="M9,21H6
			c-1.105,0-2-0.895-2-2V5c0-1.105,0.895-2,2-2h11c1.105,0,2,0.895,2,2v4"/>
		<path fill="none" stroke="#323232" stroke-width="1.5" stroke-linecap="round" stroke-linejoin="round" d="M21,17
			c-0.108,0.979-0.515,1.931-1.266,2.682c-1.757,1.757-4.607,1.757-6.364,0c-0.313-0.313-0.567-0.661-0.768-1.03"/>
		<path fill="none" stroke="#323232" stroke-width="1.5" stroke-linecap="round" stroke-linejoin="round" d="M20.502,14.348
			c-0.201-0.369-0.456-0.717-0.768-1.03c-1.757-1.757-4.607-1.757-6.364,0c-0.751,0.751-1.16,1.703-1.269,2.682"/>
		<polyline fill="none" stroke="#323232" stroke-width="1.5" stroke-linecap="round" stroke-linejoin="round" points="
			18.776,14.348 20.764,14.348 20.764,12.359 		"/>
		<polyline fill="none" stroke="#323232" stroke-width="1.5" stroke-linecap="round" stroke-linejoin="round" points="
			14.328,18.652 12.34,18.652 12.34,20.641 		"/>
		
			<line fill="none" stroke="#323232" stroke-width="1.5" stroke-linecap="round" stroke-linejoin="round" x1="2.5" y1="7" x2="5.5" y2="7"/>
		
			<line fill="none" stroke="#323232" stroke-width="1.5" stroke-linecap="round" stroke-linejoin="round" x1="2.5" y1="17" x2="5.3" y2="17"/>
		
			<line fill="none" stroke="#323232" stroke-width="1.5" stroke-linecap="round" stroke-linejoin="round" x1="2.5" y1="12" x2="5.3" y2="12"/>
	</g>
	<rect fill="none" width="24" height="24"/>
</g>
</svg>
