<?xml version="1.0" encoding="utf-8"?>
<!-- Generator: Adobe Illustrator 24.0.2, SVG Export Plug-In . SVG Version: 6.00 Build 0)  -->
<svg version="1.1" id="Layer_1" xmlns="http://www.w3.org/2000/svg" xmlns:xlink="http://www.w3.org/1999/xlink" x="0px" y="0px"
	 width="24px" height="24px" viewBox="0 0 24 24" enable-background="new 0 0 24 24" xml:space="preserve">
<g>
	<g>
		<path fill="none" stroke="#323232" stroke-width="1.5" stroke-linecap="round" stroke-linejoin="round" d="M17.07,21H6.93
			C4.76,21,3,19.24,3,17.07V6.93C3,4.76,4.76,3,6.93,3h10.14C19.24,3,21,4.76,21,6.93v10.14C21,19.24,19.24,21,17.07,21z"/>
		<path fill="none" stroke="#323232" stroke-width="1.5" stroke-linecap="round" stroke-linejoin="round" d="M9.756,13.858
			c0.604,0.604,0.604,1.584,0,2.189c-0.604,0.604-1.584,0.604-2.189,0c-0.604-0.604-0.604-1.584,0-2.189
			C8.172,13.254,9.152,13.254,9.756,13.858"/>
		<path fill="none" stroke="#323232" stroke-width="1.5" stroke-linecap="round" stroke-linejoin="round" d="M15.43,12.827
			c0.604,0.604,0.604,1.584,0,2.189c-0.604,0.604-1.584,0.604-2.189,0c-0.604-0.604-0.604-1.584,0-2.189
			C13.846,12.222,14.826,12.222,15.43,12.827"/>
		<path fill="none" stroke="#323232" stroke-width="1.5" stroke-linecap="round" stroke-linejoin="round" d="M10.209,14.953V9.977
			c0-0.422,0.257-0.802,0.649-0.957l3.611-1.444c0.678-0.271,1.414,0.228,1.414,0.957v5.389"/>
	</g>
	<g>
		<g>
			<g>
				<path fill="none" d="M0,0h24v24H0V0z"/>
			</g>
		</g>
	</g>
</g>
</svg>
