<svg id="Layer_3" data-name="Layer 3" xmlns="http://www.w3.org/2000/svg" viewBox="0 0 24 24"><title>Notion</title><line x1="7" y1="7.907" x2="7" y2="20.721" fill="none" stroke="#323232" stroke-linecap="round" stroke-linejoin="round" stroke-width="1.5"/><line x1="3.219" y1="4.814" x2="7" y2="7.907" fill="none" stroke="#323232" stroke-linecap="round" stroke-linejoin="round" stroke-width="1.5"/><line x1="20.955" y1="7.092" x2="7" y2="7.907" fill="none" stroke="#323232" stroke-linecap="round" stroke-linejoin="round" stroke-width="1.5"/><line x1="11.865" y1="10.951" x2="11.865" y2="17.327" fill="none" stroke="#323232" stroke-linecap="round" stroke-linejoin="round" stroke-width="1.5"/><path d="M16.635,10.673v6.234a.172.172,0,0,1-.316.093l-3.926-6.079" fill="none" stroke="#323232" stroke-linecap="round" stroke-linejoin="round" stroke-width="1.5"/><line x1="12.393" y1="10.921" x2="11.25" y2="10.987" fill="none" stroke="#323232" stroke-linecap="round" stroke-linejoin="round" stroke-width="1.5"/><path d="M19.132,20.305a2,2,0,0,0,1.868-2V7.46a2,2,0,0,0-.85-1.637l-2.982-2.1a4,4,0,0,0-2.592-.716l-9.722.71A2,2,0,0,0,3,5.716V15.784A1.989,1.989,0,0,0,3.412,17L5.3,19.439a3.993,3.993,0,0,0,3.427,1.552Z" fill="none" stroke="#323232" stroke-linecap="round" stroke-linejoin="round" stroke-width="1.5"/><line x1="16.019" y1="10.709" x2="17.25" y2="10.637" fill="none" stroke="#323232" stroke-linecap="round" stroke-linejoin="round" stroke-width="1.5"/><path d="M11.25,17.363l1.134-.075" fill="none" stroke="#323232" stroke-linecap="round" stroke-linejoin="round" stroke-width="1.5"/><path d="M0,24V0H24V24Z" fill="none"/></svg>