<svg id="Layer_3" data-name="Layer 3" xmlns="http://www.w3.org/2000/svg" viewBox="0 0 24 24"><title>Artboard 102</title><path d="M0,0H24V24H0Z" fill="none"/><rect x="3" y="3" width="18" height="18" rx="5" stroke-width="1.5" stroke="#323232" stroke-linecap="round" stroke-linejoin="round" fill="none"/><path d="M10,14.479H8.5a1.5,1.5,0,0,1-1.5-1.5V8.623a1.5,1.5,0,0,1,1.5-1.5H10a1.5,1.5,0,0,1,1.5,1.5v4.356A1.5,1.5,0,0,1,10,14.479Z" fill="none" stroke="#323232" stroke-linecap="round" stroke-linejoin="round" stroke-width="1.5"/><path d="M14.472,13.314a1.275,1.275,0,1,1,2.55,0c0,1.592-2.548,1.592-2.548,3.479h2.548" fill="none" stroke="#323232" stroke-linecap="round" stroke-linejoin="round" stroke-width="1.5"/></svg>