<svg id="Layer_3" data-name="Layer 3" xmlns="http://www.w3.org/2000/svg" viewBox="0 0 24 24"><title>object-copy-more-dots</title><rect x="7" y="7" width="14" height="14" rx="3" stroke-width="1.5" stroke="#323232" stroke-linecap="round" stroke-linejoin="round" fill="none"/><path d="M7,17H6a3,3,0,0,1-3-3V6A3,3,0,0,1,6,3h8a3,3,0,0,1,3,3V7" fill="none" stroke="#323232" stroke-linecap="round" stroke-linejoin="round" stroke-width="1.5"/><path d="M14,13.931a.068.068,0,0,0-.068.069A.069.069,0,1,0,14,13.931" fill="none" stroke="#323232" stroke-linecap="round" stroke-linejoin="round" stroke-width="1.5"/><path d="M17.368,13.931a.069.069,0,1,0,.069.069.069.069,0,0,0-.069-.069" fill="none" stroke="#323232" stroke-linecap="round" stroke-linejoin="round" stroke-width="1.5"/><path d="M10.631,13.931a.068.068,0,0,0-.068.069.069.069,0,1,0,.068-.069" fill="none" stroke="#323232" stroke-linecap="round" stroke-linejoin="round" stroke-width="1.5"/><rect width="24" height="24" fill="none"/></svg>