<svg id="Layer_3" data-name="Layer 3" xmlns="http://www.w3.org/2000/svg" viewBox="0 0 24 24"><title>object-checkmark</title><path d="M0,24V0H24V24Z" fill="none"/><path d="M21,10V7.235A4.235,4.235,0,0,0,16.765,3H7.235A4.235,4.235,0,0,0,3,7.235v9.53A4.235,4.235,0,0,0,7.235,21H10" fill="none" stroke="#323232" stroke-linecap="round" stroke-linejoin="round" stroke-width="1.5"/><polyline points="21 14 16.966 17.948 15.641 16.623" fill="none" stroke="#323232" stroke-linecap="round" stroke-linejoin="round" stroke-width="1.5"/><path d="M18,13H15a2,2,0,0,0-2,2v4a2,2,0,0,0,2,2h4a2,2,0,0,0,2-2V18" fill="none" stroke="#323232" stroke-linecap="round" stroke-linejoin="round" stroke-width="1.5"/></svg>