<svg id="Layer_3" data-name="Layer 3" xmlns="http://www.w3.org/2000/svg" viewBox="0 0 24 24"><title>object-wifi-more-dots</title><path d="M20.775,20.55a.225.225,0,1,0,.224.225.223.223,0,0,0-.224-.225" fill="none" stroke="#323232" stroke-linecap="round" stroke-linejoin="round" stroke-width="1.5"/><path d="M21,18a2.926,2.926,0,0,0-3,3" fill="none" stroke="#323232" stroke-linecap="round" stroke-linejoin="round" stroke-width="1.5"/><path d="M15,21a6.58,6.58,0,0,1,.367-2.121,5.687,5.687,0,0,1,3.513-3.513A6.6,6.6,0,0,1,21,15" fill="none" stroke="#323232" stroke-linecap="round" stroke-linejoin="round" stroke-width="1.5"/><path d="M12,11.931a.068.068,0,0,0-.068.069A.069.069,0,1,0,12,11.931" fill="none" stroke="#323232" stroke-linecap="round" stroke-linejoin="round" stroke-width="1.5"/><path d="M15.368,11.931a.069.069,0,1,0,.069.069.069.069,0,0,0-.069-.069" fill="none" stroke="#323232" stroke-linecap="round" stroke-linejoin="round" stroke-width="1.5"/><path d="M8.631,11.931A.068.068,0,0,0,8.563,12a.069.069,0,1,0,.068-.069" fill="none" stroke="#323232" stroke-linecap="round" stroke-linejoin="round" stroke-width="1.5"/><path d="M11,21H6a3,3,0,0,1-3-3V6A3,3,0,0,1,6,3H18a3,3,0,0,1,3,3v5" fill="none" stroke="#323232" stroke-linecap="round" stroke-linejoin="round" stroke-width="1.5"/><rect id="_Transparent_Rectangle_" data-name=" Transparent Rectangle " width="24" height="24" fill="none"/></svg>