<svg id="Layer_3" data-name="Layer 3" xmlns="http://www.w3.org/2000/svg" viewBox="0 0 24 24"><title>object-search-more</title><path d="M0,0H24V24H0Z" fill="none"/><path d="M17.086,5.956A.044.044,0,1,0,17.131,6a.044.044,0,0,0-.045-.044" fill="none" stroke="#323232" stroke-linecap="round" stroke-linejoin="round" stroke-width="1.5"/><circle cx="16" cy="6" r="4" fill="none" stroke="#323232" stroke-linecap="round" stroke-linejoin="round" stroke-width="1.5"/><line x1="21" y1="11" x2="18.828" y2="8.828" fill="none" stroke="#323232" stroke-linecap="round" stroke-linejoin="round" stroke-width="1.5"/><path d="M19,14v3a4,4,0,0,1-4,4H7a4,4,0,0,1-4-4V9A4,4,0,0,1,7,5H8" fill="none" stroke="#323232" stroke-linecap="round" stroke-linejoin="round" stroke-width="1.5"/><path d="M14.913,5.956A.044.044,0,1,0,14.958,6a.044.044,0,0,0-.045-.044" fill="none" stroke="#323232" stroke-linecap="round" stroke-linejoin="round" stroke-width="1.5"/></svg>