<?xml version="1.0" encoding="utf-8"?>
<!-- Generator: Adobe Illustrator 24.0.2, SVG Export Plug-In . SVG Version: 6.00 Build 0)  -->
<svg version="1.1" id="Layer_1" xmlns="http://www.w3.org/2000/svg" xmlns:xlink="http://www.w3.org/1999/xlink" x="0px" y="0px"
	 width="24px" height="24px" viewBox="0 0 24 24" enable-background="new 0 0 24 24" xml:space="preserve">
<g>
	<path fill="none" d="M0,0h24v24H0V0z"/>
	<g>
		
			<line fill="none" stroke="#323232" stroke-width="1.5" stroke-linecap="round" stroke-linejoin="round" x1="21" y1="8.053" x2="3" y2="8.053"/>
		
			<line fill="none" stroke="#323232" stroke-width="1.5" stroke-linecap="round" stroke-linejoin="round" x1="8" y1="13.053" x2="3" y2="13.053"/>
		<path fill="none" stroke="#323232" stroke-width="1.5" stroke-linecap="round" stroke-linejoin="round" d="M17.225,13.856
			C17.59,13.453,18.222,13,19.185,13C20.87,13,22,14.489,22,15.877c0,2.9-3.831,5.123-4.775,5.123s-4.775-2.223-4.775-5.123
			c0-1.388,1.13-2.877,2.815-2.877C16.227,13,16.859,13.453,17.225,13.856z"/>
		
			<line fill="none" stroke="#323232" stroke-width="1.5" stroke-linecap="round" stroke-linejoin="round" x1="8" y1="18.053" x2="3" y2="18.053"/>
		
			<line fill="none" stroke="#323232" stroke-width="1.5" stroke-linecap="round" stroke-linejoin="round" x1="21" y1="3" x2="3" y2="3"/>
	</g>
</g>
</svg>
