<svg id="Layer_3" data-name="Layer 3" xmlns="http://www.w3.org/2000/svg" viewBox="0 0 24 24"><title>Artboard 18</title><path d="M24,24H0V0H24Z" fill="none"/><path d="M20.75,20H3.25" fill="none" stroke="#323232" stroke-linecap="round" stroke-linejoin="round" stroke-width="1.507"/><path d="M15.25,12h5.5" fill="none" stroke="#323232" stroke-linecap="round" stroke-linejoin="round" stroke-width="1.511"/><path d="M3.25,16h17.5" fill="none" stroke="#323232" stroke-linecap="round" stroke-linejoin="round" stroke-width="1.507"/><path d="M20.75,8h-5.5" fill="none" stroke="#323232" stroke-linecap="round" stroke-linejoin="round" stroke-width="1.511"/><path d="M20.75,4h-5.5" fill="none" stroke="#323232" stroke-linecap="round" stroke-linejoin="round" stroke-width="1.511"/><path d="M8.166,9.532,6.634,8,8.166,6.468" fill="none" stroke="#323232" stroke-linecap="round" stroke-linejoin="round" stroke-width="1.5"/><path d="M5.25,12.25h4.5a2,2,0,0,0,2-2V5.75a2,2,0,0,0-2-2H5.25a2,2,0,0,0-2,2v4.5A2,2,0,0,0,5.25,12.25Z" fill="none" stroke="#323232" stroke-linecap="round" stroke-linejoin="round" stroke-width="1.471"/></svg>