<svg id="Layer_3" data-name="Layer 3" xmlns="http://www.w3.org/2000/svg" viewBox="0 0 24 24"><title>object-more-dots_1</title><rect width="24" height="24" fill="none"/><path d="M21,14v2a5,5,0,0,1-5,5H8a5,5,0,0,1-5-5V8A5,5,0,0,1,8,3h2" fill="none" stroke="#323232" stroke-linecap="round" stroke-linejoin="round" stroke-width="1.5"/><path d="M16,3a5,5,0,1,1-5,5,5,5,0,0,1,5-5" fill="none" stroke="#323232" stroke-linecap="round" stroke-linejoin="round" stroke-width="1.5"/><path d="M17.358,7.944A.054.054,0,0,0,17.3,8a.056.056,0,1,0,.055-.056" fill="none" stroke="#323232" stroke-linecap="round" stroke-linejoin="round" stroke-width="1.5"/><path d="M14.642,7.944A.056.056,0,1,0,14.7,8a.056.056,0,0,0-.055-.056" fill="none" stroke="#323232" stroke-linecap="round" stroke-linejoin="round" stroke-width="1.5"/></svg>