<svg id="Layer_3" data-name="Layer 3" xmlns="http://www.w3.org/2000/svg" viewBox="0 0 24 24"><title>objects-target-dots</title><rect width="24" height="24" fill="none"/><rect x="7" y="7" width="14" height="14" rx="3" stroke-width="1.5" stroke="#323232" stroke-linecap="round" stroke-linejoin="round" fill="none"/><path d="M3,14V6A3,3,0,0,1,6,3h8" fill="none" stroke="#323232" stroke-linecap="round" stroke-linejoin="round" stroke-width="1.5"/><path d="M17.368,13.931a.069.069,0,1,0,.069.069.069.069,0,0,0-.069-.069" fill="none" stroke="#323232" stroke-linecap="round" stroke-linejoin="round" stroke-width="1.5"/><path d="M10.631,13.931a.068.068,0,0,0-.068.069.069.069,0,1,0,.068-.069" fill="none" stroke="#323232" stroke-linecap="round" stroke-linejoin="round" stroke-width="1.5"/><path d="M13.931,14a.068.068,0,0,0,.069.068A.069.069,0,1,0,13.931,14" fill="none" stroke="#323232" stroke-linecap="round" stroke-linejoin="round" stroke-width="1.5"/><path d="M13.931,10.632A.069.069,0,1,0,14,10.563a.069.069,0,0,0-.069.069" fill="none" stroke="#323232" stroke-linecap="round" stroke-linejoin="round" stroke-width="1.5"/><path d="M13.931,17.369a.068.068,0,0,0,.069.068.069.069,0,1,0-.069-.068" fill="none" stroke="#323232" stroke-linecap="round" stroke-linejoin="round" stroke-width="1.5"/></svg>