<?xml version="1.0" encoding="utf-8"?>
<!-- Generator: Adobe Illustrator 24.0.2, SVG Export Plug-In . SVG Version: 6.00 Build 0)  -->
<svg version="1.1" id="Layer_1" xmlns="http://www.w3.org/2000/svg" xmlns:xlink="http://www.w3.org/1999/xlink" x="0px" y="0px"
	 width="24px" height="24px" viewBox="0 0 24 24" style="enable-background:new 0 0 24 24;" xml:space="preserve">
<style type="text/css">
	.st0{fill:none;}
	.st1{fill:none;stroke:#323232;stroke-width:1.5;stroke-linecap:round;stroke-linejoin:round;}
</style>
<g>
	<path class="st0" d="M24,24H0V0h24V24z"/>
	<g>
		<path class="st1" d="M10,3.5H5c-1.1,0-2,0.9-2,2v5c0,1.1,0.9,2,2,2h5c1.1,0,2-0.9,2-2v-5C12,4.4,11.1,3.5,10,3.5z"/>
		<line class="st1" x1="21" y1="12" x2="15" y2="12"/>
		<line class="st1" x1="21" y1="8" x2="15" y2="8"/>
		<line class="st1" x1="21" y1="4" x2="15" y2="4"/>
		<line class="st1" x1="21" y1="20" x2="3" y2="20"/>
		<line class="st1" x1="21" y1="16" x2="3" y2="16"/>
		<g>
			<path class="st1" d="M6.8,6.5L8.4,8L6.8,9.5"/>
		</g>
	</g>
</g>
</svg>
