<svg id="Layer_3" data-name="Layer 3" xmlns="http://www.w3.org/2000/svg" viewBox="0 0 24 24"><title>object-circle-more-dots</title><path d="M20.389,12.611a5.5,5.5,0,1,1-7.778,0,5.5,5.5,0,0,1,7.778,0" fill="none" stroke="#323232" stroke-linecap="round" stroke-linejoin="round" stroke-width="1.5"/><path d="M16.5,16.45a.05.05,0,0,0-.05.05.05.05,0,0,0,.05.05.05.05,0,0,0,.05-.05.051.051,0,0,0-.05-.05" fill="none" stroke="#323232" stroke-linecap="round" stroke-linejoin="round" stroke-width="1.5"/><path d="M18.945,16.45a.05.05,0,0,0-.05.05.05.05,0,0,0,.05.05A.05.05,0,0,0,19,16.5a.051.051,0,0,0-.05-.05" fill="none" stroke="#323232" stroke-linecap="round" stroke-linejoin="round" stroke-width="1.5"/><path d="M14.056,16.45a.05.05,0,0,0,0,.1.05.05,0,0,0,.05-.05.05.05,0,0,0-.05-.05" fill="none" stroke="#323232" stroke-linecap="round" stroke-linejoin="round" stroke-width="1.5"/><path d="M20.477,9A9,9,0,1,0,9,20.477" fill="none" stroke="#323232" stroke-linecap="round" stroke-linejoin="round" stroke-width="1.5"/><path d="M0,0H24V24H0Z" fill="none"/></svg>