<svg id="Layer_3" data-name="Layer 3" xmlns="http://www.w3.org/2000/svg" viewBox="0 0 24 24"><title>office-building-shine</title><rect width="24" height="24" fill="none"/><rect width="24" height="24" fill="none"/><path d="M21,12a9,9,0,1,1-9-9" fill="none" stroke="#323232" stroke-linecap="round" stroke-linejoin="round" stroke-width="1.5"/><path d="M18.34,2.392a.752.752,0,0,1,1.32,0l.583,1.065a.747.747,0,0,0,.3.3l1.064.582a.753.753,0,0,1,0,1.322l-1.064.583a.741.741,0,0,0-.3.3L19.66,7.608a.752.752,0,0,1-1.32,0l-.583-1.065a.741.741,0,0,0-.3-.3l-1.064-.582a.753.753,0,0,1,0-1.322l1.064-.582a.747.747,0,0,0,.3-.3Z" fill="none" stroke="#323232" stroke-linecap="round" stroke-linejoin="round" stroke-width="1.5"/><line x1="12" y1="6.5" x2="12" y2="9" fill="none" stroke="#323232" stroke-linecap="round" stroke-linejoin="round" stroke-width="1.5"/><path d="M9.5,12V10a1,1,0,0,1,1-1h3a1,1,0,0,1,1,1v2" fill="none" stroke="#323232" stroke-linecap="round" stroke-linejoin="round" stroke-width="1.5"/><path d="M7,19.483V13a1,1,0,0,1,1-1h8a1,1,0,0,1,1,1v6.483" fill="none" stroke="#323232" stroke-linecap="round" stroke-linejoin="round" stroke-width="1.5"/><line x1="9.5" y1="15.25" x2="14.5" y2="15.25" fill="none" stroke="#323232" stroke-linecap="round" stroke-linejoin="round" stroke-width="1.5"/><line x1="9.5" y1="17.75" x2="14.5" y2="17.75" fill="none" stroke="#323232" stroke-linecap="round" stroke-linejoin="round" stroke-width="1.5"/></svg>