<svg id="Layer_3" data-name="Layer 3" xmlns="http://www.w3.org/2000/svg" viewBox="0 0 24 24"><title>opera-circle</title><path d="M0,0H24V24H0Z" fill="none"/><path d="M16.243,7.757a6,6,0,1,1-8.486,0,6,6,0,0,1,8.486,0" fill="none" stroke="#323232" stroke-linecap="round" stroke-linejoin="round" stroke-width="1.5"/><path d="M16.731,8.607a5.171,5.171,0,0,1,0,6.786,4.044,4.044,0,0,1-6.128,0,5.171,5.171,0,0,1,0-6.786,4.044,4.044,0,0,1,6.128,0" fill="none" stroke="#323232" stroke-linecap="round" stroke-linejoin="round" stroke-width="1.5"/><path d="M13.886,9.548a4.241,4.241,0,0,1,0,4.9,2.26,2.26,0,0,1-3.772,0,4.241,4.241,0,0,1,0-4.9,2.26,2.26,0,0,1,3.772,0" fill="none" stroke="#323232" stroke-linecap="round" stroke-linejoin="round" stroke-width="1.5"/><circle cx="12" cy="12" r="9" fill="none" stroke="#323232" stroke-linecap="round" stroke-linejoin="round" stroke-width="1.5"/></svg>