<svg id="Layer_3" data-name="Layer 3" xmlns="http://www.w3.org/2000/svg" viewBox="0 0 24 24"><title>orange</title><line x1="12.206" y1="12.206" x2="15.996" y2="15.996" fill="none" stroke="#323232" stroke-linecap="round" stroke-linejoin="round" stroke-width="1.5"/><line x1="10.5" y1="13.041" x2="10.5" y2="17.684" fill="none" stroke="#323232" stroke-linecap="round" stroke-linejoin="round" stroke-width="1.5"/><path d="M3.716,16.662a.983.983,0,0,1,1.311-.084A8.214,8.214,0,0,0,16.578,5.027a.983.983,0,0,1,.084-1.311l.423-.424a1.013,1.013,0,0,1,1.5.088A10.812,10.812,0,0,1,3.38,18.587a1.013,1.013,0,0,1-.088-1.5Z" fill="none" stroke="#323232" stroke-linecap="round" stroke-linejoin="round" stroke-width="1.5"/><path d="M8.172,12.206a2.852,2.852,0,0,0,4.034-4.034" fill="none" stroke="#323232" stroke-linecap="round" stroke-linejoin="round" stroke-width="1.5"/><line x1="16.662" y1="3.716" x2="3.716" y2="16.662" fill="none" stroke="#323232" stroke-linecap="round" stroke-linejoin="round" stroke-width="1.5"/><line x1="13.041" y1="10.5" x2="17.684" y2="10.5" fill="none" stroke="#323232" stroke-linecap="round" stroke-linejoin="round" stroke-width="1.5"/><rect width="24" height="24" transform="translate(24 24) rotate(-180)" fill="none"/></svg>