<svg id="Layer_3" data-name="Layer 3" xmlns="http://www.w3.org/2000/svg" viewBox="0 0 24 24"><title>pacifier</title><rect width="24" height="24" fill="none"/><path d="M13.554,15.541l-.41.149a3.774,3.774,0,0,1-3.957-.879h0a3.775,3.775,0,0,1-.879-3.957l.149-.409L6.079,8.067a1.8,1.8,0,0,1,0-2.548h0a1.8,1.8,0,0,1,2.548,0l9.853,9.852a1.8,1.8,0,0,1,0,2.549h0a1.8,1.8,0,0,1-2.548,0Z" fill="none" stroke="#323232" stroke-linecap="round" stroke-linejoin="round" stroke-width="1.5"/><path d="M15.411,12.3l4.251-3.224a3.382,3.382,0,1,0-4.738-4.738L11.7,8.591" fill="none" stroke="#323232" stroke-linecap="round" stroke-linejoin="round" stroke-width="1.5"/><path d="M4.428,12.678a4.875,4.875,0,1,0,8.292,3.133" fill="none" stroke="#323232" stroke-linecap="round" stroke-linejoin="round" stroke-width="1.5"/><path d="M8.188,11.28a4.842,4.842,0,0,0-3.76,1.4" fill="none" stroke="#323232" stroke-linecap="round" stroke-linejoin="round" stroke-width="1.5"/></svg>