<svg id="Layer_3" data-name="Layer 3" xmlns="http://www.w3.org/2000/svg" viewBox="0 0 24 24"><title>package-box-pin-location</title><path d="M0,0H24V24H0Z" fill="none"/><circle cx="10.456" cy="10.384" r="2.483" fill="none" stroke="#323232" stroke-linecap="round" stroke-linejoin="round" stroke-width="1.5"/><path d="M17.889,10.924a7.452,7.452,0,1,0-12.7,4.8L10.456,21" fill="none" stroke="#323232" stroke-linecap="round" stroke-linejoin="round" stroke-width="1.5"/><path d="M17.5,14v3" fill="none" stroke="#323232" stroke-linecap="round" stroke-linejoin="round" stroke-width="1.5"/><path d="M21,17.778A.778.778,0,0,0,20.222,17H14.778a.778.778,0,0,0-.778.778" fill="none" stroke="#323232" stroke-linecap="round" stroke-linejoin="round" stroke-width="1.5"/><path d="M15,21h5a1,1,0,0,0,1-1V16.435a3.007,3.007,0,0,0-.241-1.179l-.278-.649A1,1,0,0,0,19.562,14H15.438a1,1,0,0,0-.92.607l-.277.648A3.007,3.007,0,0,0,14,16.434V20A1,1,0,0,0,15,21Z" fill="none" stroke="#323232" stroke-linecap="round" stroke-linejoin="round" stroke-width="1.5"/></svg>