<svg id="Layer_3" data-name="Layer 3" xmlns="http://www.w3.org/2000/svg" viewBox="0 0 24 24"><title>package-box-refresh_1</title><path d="M1.5,11.25,3,9.75l1.5,1.5" fill="none" stroke="#323232" stroke-linecap="round" stroke-linejoin="round" stroke-width="1.5"/><path d="M22.5,12.75l-1.5,1.5-1.5-1.5" fill="none" stroke="#323232" stroke-linecap="round" stroke-linejoin="round" stroke-width="1.5"/><path d="M4.678,6.789a8.987,8.987,0,0,1,16.1,7.2" fill="none" stroke="#323232" stroke-linecap="round" stroke-linejoin="round" stroke-width="1.5"/><path d="M19.318,17.207a8.987,8.987,0,0,1-16.1-7.2" fill="none" stroke="#323232" stroke-linecap="round" stroke-linejoin="round" stroke-width="1.5"/><path d="M12,8.5v3" fill="none" stroke="#323232" stroke-linecap="round" stroke-linejoin="round" stroke-width="1.5"/><path d="M15.5,12.278a.778.778,0,0,0-.778-.778H9.278a.778.778,0,0,0-.778.778" fill="none" stroke="#323232" stroke-linecap="round" stroke-linejoin="round" stroke-width="1.5"/><path d="M9.5,15.5h5a1,1,0,0,0,1-1V10.935a3.007,3.007,0,0,0-.241-1.179l-.278-.649a1,1,0,0,0-.919-.607H9.938a1,1,0,0,0-.92.607l-.277.648A3.007,3.007,0,0,0,8.5,10.934V14.5A1,1,0,0,0,9.5,15.5Z" fill="none" stroke="#323232" stroke-linecap="round" stroke-linejoin="round" stroke-width="1.5"/><rect width="24" height="24" fill="none"/></svg>