<svg id="Layer_3" data-name="Layer 3" xmlns="http://www.w3.org/2000/svg" viewBox="0 0 24 24"><title>package-box-certificate</title><path d="M0,0H24V24H0Z" fill="none"/><path d="M13.086,19.768l-.144-1.085h0l-.665-.87a1.337,1.337,0,0,1,0-1.623l.665-.87h0l.145-1.086a1.335,1.335,0,0,1,1.148-1.148l1.085-.144h0l.87-.665a1.337,1.337,0,0,1,1.623,0l.87.665h0l1.086.145a1.337,1.337,0,0,1,1.148,1.148l.144,1.085h0l.665.87a1.34,1.34,0,0,1,0,1.623l-.665.87h0l-.145,1.086a1.339,1.339,0,0,1-1.148,1.148l-1.085.144h0l-.87.665a1.34,1.34,0,0,1-1.623,0l-.87-.665h0l-1.086-.145A1.336,1.336,0,0,1,13.086,19.768Z" fill="none" stroke="#323232" stroke-linecap="round" stroke-linejoin="round" stroke-width="1.5"/><path d="M18.559,16.223l-1.945,1.945L15.447,17" fill="none" stroke="#323232" stroke-linecap="round" stroke-linejoin="round" stroke-width="1.5"/><path d="M15,3.077V6.566a1,1,0,0,1-1,1H10a1,1,0,0,1-1-1V3" fill="none" stroke="#323232" stroke-linecap="round" stroke-linejoin="round" stroke-width="1.5"/><path d="M21,10V5a2,2,0,0,0-2-2H5A2,2,0,0,0,3,5V18a2,2,0,0,0,2,2h5" fill="none" stroke="#323232" stroke-linecap="round" stroke-linejoin="round" stroke-width="1.5"/></svg>