<svg id="Layer_3" data-name="Layer 3" xmlns="http://www.w3.org/2000/svg" viewBox="0 0 24 24"><title>package-box-heart-favorite</title><path d="M15,3.077V6.566a1,1,0,0,1-1,1H10a1,1,0,0,1-1-1V3" fill="none" stroke="#323232" stroke-linecap="round" stroke-linejoin="round" stroke-width="1.5"/><path d="M21,12V5a2,2,0,0,0-2-2H5A2,2,0,0,0,3,5V18a2,2,0,0,0,2,2h6" fill="none" stroke="#323232" stroke-linecap="round" stroke-linejoin="round" stroke-width="1.5"/><path d="M18.428,20.516a1.654,1.654,0,0,1-1.17.484h0a1.658,1.658,0,0,1-1.17-.484L14.1,18.532a2.082,2.082,0,0,1,2.944-2.944l.21.209.21-.209a2.082,2.082,0,0,1,2.944,2.944Z" fill="none" stroke="#323232" stroke-linecap="round" stroke-linejoin="round" stroke-width="1.5"/><path d="M0,0H24V24H0Z" fill="none"/></svg>