<svg id="Layer_3" data-name="Layer 3" xmlns="http://www.w3.org/2000/svg" viewBox="0 0 24 24"><title>package-delivery-return</title><path d="M13,21H5.25A2.25,2.25,0,0,1,3,18.75V8.14a2.255,2.255,0,0,1,.181-.884l1.235-2.89A2.252,2.252,0,0,1,6.485,3H17.514a2.251,2.251,0,0,1,2.069,1.366l1.235,2.89A2.242,2.242,0,0,1,21,8.14V12" fill="none" stroke="#323232" stroke-linecap="round" stroke-linejoin="round" stroke-width="1.5"/><path d="M12,3V8" fill="none" stroke="#323232" stroke-linecap="round" stroke-linejoin="round" stroke-width="1.5"/><path d="M7,17H9" fill="none" stroke="#323232" stroke-linecap="round" stroke-linejoin="round" stroke-width="1.5"/><path d="M21,13V10a2,2,0,0,0-2-2H5a2,2,0,0,0-2,2v7" fill="none" stroke="#323232" stroke-linecap="round" stroke-linejoin="round" stroke-width="1.5"/><path d="M17,21h1.5A2.5,2.5,0,0,0,21,18.5h0A2.5,2.5,0,0,0,18.5,16H14" fill="none" stroke="#323232" stroke-linecap="round" stroke-linejoin="round" stroke-width="1.5"/><polyline points="16 18 14 16 16 14" fill="none" stroke="#323232" stroke-linecap="round" stroke-linejoin="round" stroke-width="1.5"/><path d="M0,0H24V24H0Z" fill="none"/></svg>