<svg id="Layer_3" data-name="Layer 3" xmlns="http://www.w3.org/2000/svg" viewBox="0 0 24 24"><title>package-box-home_2</title><path d="M9,21H4.714A1.714,1.714,0,0,1,3,19.286V15" fill="none" stroke="#323232" stroke-linecap="round" stroke-linejoin="round" stroke-width="1.5"/><path d="M3,4.355V9.5a.5.5,0,0,0,.5.5H9.553a.5.5,0,0,0,.5-.5V4.355" fill="none" stroke="#323232" stroke-linecap="round" stroke-linejoin="round" stroke-width="1.5"/><path d="M2,5,6.592,2,11,5" fill="none" stroke="#323232" stroke-linecap="round" stroke-linejoin="round" stroke-width="1.5"/><path d="M16,3h3.286A1.714,1.714,0,0,1,21,4.714V8" fill="none" stroke="#323232" stroke-linecap="round" stroke-linejoin="round" stroke-width="1.5"/><path d="M17,13v2.22" fill="none" stroke="#323232" stroke-linecap="round" stroke-linejoin="round" stroke-width="1.5"/><path d="M21,16.717a.889.889,0,0,0-.889-.889H13.889a.889.889,0,0,0-.889.889" fill="none" stroke="#323232" stroke-linecap="round" stroke-linejoin="round" stroke-width="1.5"/><path d="M20.111,21H14a1,1,0,0,1-1-1V15.444a1.787,1.787,0,0,1,.143-.7l.486-1.138a1,1,0,0,1,.92-.607h4.9a1,1,0,0,1,.919.607l.487,1.139a1.787,1.787,0,0,1,.143.7v4.666A.889.889,0,0,1,20.111,21Z" fill="none" stroke="#323232" stroke-linecap="round" stroke-linejoin="round" stroke-width="1.5"/><path d="M0,0H24V24H0Z" fill="none"/></svg>