<svg id="Layer_3" data-name="Layer 3" xmlns="http://www.w3.org/2000/svg" viewBox="0 0 24 24"><title>package-box-thumbs-up</title><path d="M21,15v4.286A1.715,1.715,0,0,1,19.286,21H15" fill="none" stroke="#323232" stroke-linecap="round" stroke-linejoin="round" stroke-width="1.5"/><path d="M3,9V4.714A1.715,1.715,0,0,1,4.714,3H9" fill="none" stroke="#323232" stroke-linecap="round" stroke-linejoin="round" stroke-width="1.5"/><path d="M3.941,19.984H2.559A.559.559,0,0,1,2,19.425V15.043a.559.559,0,0,1,.559-.559H3.941a.569.569,0,0,1,.559.6v4.382A.552.552,0,0,1,3.941,19.984Z" fill="none" stroke="#323232" stroke-linecap="round" stroke-linejoin="round" stroke-width="1.5"/><path d="M4.5,18.8l1.082.9a1.251,1.251,0,0,0,.8.288H9.963a1.008,1.008,0,0,0,.968-.73l.732-2.562a1.374,1.374,0,0,0-.177-1.139,1.354,1.354,0,0,0-1.128-.606H8.848" fill="none" stroke="#323232" stroke-linecap="round" stroke-linejoin="round" stroke-width="1.5"/><path d="M8.848,14.947V13.352a1.35,1.35,0,0,0-2.5-.7L4.5,15.669" fill="none" stroke="#323232" stroke-linecap="round" stroke-linejoin="round" stroke-width="1.5"/><path d="M17,3V6" fill="none" stroke="#323232" stroke-linecap="round" stroke-linejoin="round" stroke-width="1.5"/><path d="M21,6.889A.889.889,0,0,0,20.111,6H13.889A.889.889,0,0,0,13,6.889" fill="none" stroke="#323232" stroke-linecap="round" stroke-linejoin="round" stroke-width="1.5"/><path d="M14.143,11h5.714A1.143,1.143,0,0,0,21,9.857V5.783a3.433,3.433,0,0,0-.276-1.348l-.317-.741A1.143,1.143,0,0,0,19.356,3H14.643a1.144,1.144,0,0,0-1.051.694l-.316.74A3.433,3.433,0,0,0,13,5.782V9.857A1.143,1.143,0,0,0,14.143,11Z" fill="none" stroke="#323232" stroke-linecap="round" stroke-linejoin="round" stroke-width="1.5"/><path d="M0,0H24V24H0Z" fill="none"/></svg>