<svg id="Layer_3" data-name="Layer 3" xmlns="http://www.w3.org/2000/svg" viewBox="0 0 24 24"><title>package-box-checkmark</title><path d="M0,0H24V24H0Z" fill="none"/><path d="M5,3A2,2,0,0,0,3,5" fill="none" stroke="#323232" stroke-linecap="round" stroke-linejoin="round" stroke-width="1.5"/><path d="M3,8.33v2" fill="none" stroke="#323232" stroke-linecap="round" stroke-linejoin="round" stroke-width="1.5"/><path d="M8.33,3h2" fill="none" stroke="#323232" stroke-linecap="round" stroke-linejoin="round" stroke-width="1.5"/><path d="M19,21a2,2,0,0,0,2-2" fill="none" stroke="#323232" stroke-linecap="round" stroke-linejoin="round" stroke-width="1.5"/><path d="M21,15.67v-2" fill="none" stroke="#323232" stroke-linecap="round" stroke-linejoin="round" stroke-width="1.5"/><path d="M15.67,21h-2" fill="none" stroke="#323232" stroke-linecap="round" stroke-linejoin="round" stroke-width="1.5"/><path d="M8.778,16.111,6.556,18.333,5.222,17" fill="none" stroke="#323232" stroke-linecap="round" stroke-linejoin="round" stroke-width="1.5"/><path d="M9,21H5a2,2,0,0,1-2-2V15a2,2,0,0,1,2-2H9a2,2,0,0,1,2,2v4A2,2,0,0,1,9,21Z" fill="none" stroke="#323232" stroke-linecap="round" stroke-linejoin="round" stroke-width="1.5"/><path d="M17,3V6" fill="none" stroke="#323232" stroke-linecap="round" stroke-linejoin="round" stroke-width="1.5"/><path d="M21,6.889A.889.889,0,0,0,20.111,6H13.889A.889.889,0,0,0,13,6.889" fill="none" stroke="#323232" stroke-linecap="round" stroke-linejoin="round" stroke-width="1.5"/><path d="M14.143,11h5.714A1.143,1.143,0,0,0,21,9.857V5.783a3.433,3.433,0,0,0-.276-1.348l-.317-.741A1.143,1.143,0,0,0,19.356,3H14.643a1.144,1.144,0,0,0-1.051.694l-.316.74A3.433,3.433,0,0,0,13,5.782V9.857A1.143,1.143,0,0,0,14.143,11Z" fill="none" stroke="#323232" stroke-linecap="round" stroke-linejoin="round" stroke-width="1.5"/></svg>