<svg id="Layer_3" data-name="Layer 3" xmlns="http://www.w3.org/2000/svg" viewBox="0 0 24 24"><title>package-box-checkmark-square</title><path d="M0,0H24V24H0Z" fill="none"/><path d="M20,15.126V7a4,4,0,0,0-4-4H7A4,4,0,0,0,3,7v9a4,4,0,0,0,4,4h8.126" fill="none" stroke="#323232" stroke-linecap="round" stroke-linejoin="round" stroke-width="1.5"/><path d="M19,23a4,4,0,1,1,4-4,4,4,0,0,1-4,4" fill="none" stroke="#323232" stroke-linecap="round" stroke-linejoin="round" stroke-width="1.5"/><path d="M8.269,12.786V10.215a.909.909,0,0,1,.464-.792l2.322-1.306a.912.912,0,0,1,.891,0l2.321,1.306a.907.907,0,0,1,.464.792v2.571a.909.909,0,0,1-.464.792l-2.323,1.3a.91.91,0,0,1-.89,0L8.732,13.577A.906.906,0,0,1,8.269,12.786Z" fill="none" stroke="#323232" stroke-linecap="round" stroke-linejoin="round" stroke-width="1.5"/><path d="M11.5,11.5V15" fill="none" stroke="#323232" stroke-linecap="round" stroke-linejoin="round" stroke-width="1.5"/><path d="M8.393,9.756,11.5,11.5l3.108-1.744" fill="none" stroke="#323232" stroke-linecap="round" stroke-linejoin="round" stroke-width="1.5"/><path d="M20.333,18.333,18.667,20l-1-1" fill="none" stroke="#323232" stroke-linecap="round" stroke-linejoin="round" stroke-width="1.5"/></svg>