<svg id="Layer_3" data-name="Layer 3" xmlns="http://www.w3.org/2000/svg" viewBox="0 0 24 24"><title>package-delivery-Discount-</title><path d="M0,0H24V24H0Z" fill="none"/><path d="M15,3.077V6.566a1,1,0,0,1-1,1H10a1,1,0,0,1-1-1V3" fill="none" stroke="#323232" stroke-linecap="round" stroke-linejoin="round" stroke-width="1.5"/><path d="M21,10V5a2,2,0,0,0-2-2H5A2,2,0,0,0,3,5V18a2,2,0,0,0,2,2H9" fill="none" stroke="#323232" stroke-linecap="round" stroke-linejoin="round" stroke-width="1.5"/><path d="M15.707,18.25l2.5-2.5" fill="none" stroke="#323232" stroke-linecap="round" stroke-linejoin="round" stroke-width="1.5"/><path d="M18.586,18.559a.05.05,0,1,1-.071,0h0a.051.051,0,0,1,.071,0" fill="none" stroke="#323232" stroke-linecap="round" stroke-linejoin="round" stroke-width="1.5"/><path d="M21.958,17a4.992,4.992,0,1,1,0-.016Z" fill="none" stroke="#323232" stroke-linecap="round" stroke-linejoin="round" stroke-width="1.5"/><path d="M15.33,15.441a.05.05,0,1,1,.071,0h0a.051.051,0,0,1-.071,0" fill="none" stroke="#323232" stroke-linecap="round" stroke-linejoin="round" stroke-width="1.5"/></svg>