<svg id="Layer_3" data-name="Layer 3" xmlns="http://www.w3.org/2000/svg" viewBox="0 0 24 24"><title>package-box-message-chat</title><path d="M0,0H24V24H0Z" fill="none"/><path d="M12,6.5v3" fill="none" stroke="#323232" stroke-linecap="round" stroke-linejoin="round" stroke-width="1.5"/><path d="M15.5,10.278a.778.778,0,0,0-.778-.778H9.278a.778.778,0,0,0-.778.778" fill="none" stroke="#323232" stroke-linecap="round" stroke-linejoin="round" stroke-width="1.5"/><path d="M9.5,13.5h5a1,1,0,0,0,1-1V8.935a3.007,3.007,0,0,0-.241-1.179l-.278-.649a1,1,0,0,0-.919-.607H9.938a1,1,0,0,0-.92.607l-.277.648A3.007,3.007,0,0,0,8.5,8.934V12.5A1,1,0,0,0,9.5,13.5Z" fill="none" stroke="#323232" stroke-linecap="round" stroke-linejoin="round" stroke-width="1.5"/><path d="M20.993,6.162v7.647a3.176,3.176,0,0,1-3.175,3.177H12.994l-5,4v-4H6.169A3.176,3.176,0,0,1,2.993,13.81h0V6.162A3.176,3.176,0,0,1,6.169,2.986H17.817a3.176,3.176,0,0,1,3.176,3.176Z" fill="none" stroke="#323232" stroke-linecap="round" stroke-linejoin="round" stroke-width="1.5"/></svg>