<svg id="Layer_3" data-name="Layer 3" xmlns="http://www.w3.org/2000/svg" viewBox="0 0 24 24"><title>package-delivery-customer</title><path d="M20.5,21H14a.5.5,0,0,1-.5-.5v-.406A2.1,2.1,0,0,1,15.594,18h3.312A2.1,2.1,0,0,1,21,20.094V20.5A.5.5,0,0,1,20.5,21Z" fill="none" stroke="#323232" stroke-linecap="round" stroke-linejoin="round" stroke-width="1.5"/><path d="M17.25,15.5a2,2,0,1,1,.008,0Z" fill="none" stroke="#323232" stroke-linecap="round" stroke-linejoin="round" stroke-width="1.5"/><path d="M15,3.077V6.566a1,1,0,0,1-1,1H10a1,1,0,0,1-1-1V3" fill="none" stroke="#323232" stroke-linecap="round" stroke-linejoin="round" stroke-width="1.5"/><path d="M21,9V5a2,2,0,0,0-2-2H5A2,2,0,0,0,3,5V18a2,2,0,0,0,2,2h5" fill="none" stroke="#323232" stroke-linecap="round" stroke-linejoin="round" stroke-width="1.5"/><path d="M0,0H24V24H0Z" fill="none"/></svg>