<svg id="Layer_3" data-name="Layer 3" xmlns="http://www.w3.org/2000/svg" viewBox="0 0 24 24"><title>package-box-home</title><path d="M0,0H24V24H0Z" fill="none"/><path d="M12,10v3.222" fill="none" stroke="#323232" stroke-linecap="round" stroke-linejoin="round" stroke-width="1.5"/><path d="M15.5,15.975V14a.778.778,0,0,0-.778-.778H9.278A.778.778,0,0,0,8.5,14v1.975" fill="none" stroke="#323232" stroke-linecap="round" stroke-linejoin="round" stroke-width="1.5"/><path d="M9.5,17h5a1,1,0,0,0,1-1V12.435a3.007,3.007,0,0,0-.241-1.179l-.278-.649A1,1,0,0,0,14.062,10H9.938a1,1,0,0,0-.92.607l-.277.648A3.007,3.007,0,0,0,8.5,12.434V16A1,1,0,0,0,9.5,17Z" fill="none" stroke="#323232" stroke-linecap="round" stroke-linejoin="round" stroke-width="1.5"/><path d="M3,18H3a3,3,0,0,0,3,3H18a3,3,0,0,0,3-3h0V10.666A3,3,0,0,0,19.842,8.3l-6-4.667a3,3,0,0,0-3.684,0l-6,4.667A3,3,0,0,0,3,10.666Z" fill="none" stroke="#323232" stroke-linecap="round" stroke-linejoin="round" stroke-width="1.5"/></svg>