<svg id="Layer_3" data-name="Layer 3" xmlns="http://www.w3.org/2000/svg" viewBox="0 0 24 24"><title>package-box-warning</title><path d="M9,21H5.25A2.25,2.25,0,0,1,3,18.75V8.14a2.255,2.255,0,0,1,.181-.884l1.235-2.89A2.252,2.252,0,0,1,6.485,3H17.514a2.251,2.251,0,0,1,2.069,1.366l1.235,2.89A2.242,2.242,0,0,1,21,8.14V12" fill="none" stroke="#323232" stroke-linecap="round" stroke-linejoin="round" stroke-width="1.5"/><path d="M12,3V8" fill="none" stroke="#323232" stroke-linecap="round" stroke-linejoin="round" stroke-width="1.5"/><path d="M7,17H9" fill="none" stroke="#323232" stroke-linecap="round" stroke-linejoin="round" stroke-width="1.5"/><path d="M21,10a2,2,0,0,0-2-2H5a2,2,0,0,0-2,2" fill="none" stroke="#323232" stroke-linecap="round" stroke-linejoin="round" stroke-width="1.5"/><path d="M18.694,13.605l3.046,5.413A2,2,0,0,1,20,22H13.905a2,2,0,0,1-1.743-2.981l3.046-5.414A2,2,0,0,1,18.694,13.605Z" fill="none" stroke="#323232" stroke-linecap="round" stroke-linejoin="round" stroke-width="1.5"/><path d="M16.951,17.42V15.585" fill="none" stroke="#323232" stroke-linecap="round" stroke-linejoin="round" stroke-width="1.5"/><path d="M16.95,19.445a.09.09,0,0,0-.09.091.091.091,0,1,0,.09-.091" fill="none" stroke="#323232" stroke-linecap="round" stroke-linejoin="round" stroke-width="1.5"/><path d="M0,0H24V24H0Z" fill="none"/></svg>