<svg id="Layer_3" data-name="Layer 3" xmlns="http://www.w3.org/2000/svg" viewBox="0 0 24 24"><title>package-box-rotate</title><path d="M10.667,21,12,19.667l-1.333-1.333" fill="none" stroke="#323232" stroke-linecap="round" stroke-linejoin="round" stroke-width="1.5"/><path d="M20.889,14.006A2.335,2.335,0,0,1,22,15.778c0,1.636-2.6,3.033-6.278,3.608" fill="none" stroke="#323232" stroke-linecap="round" stroke-linejoin="round" stroke-width="1.5"/><path d="M3.111,14.006A2.335,2.335,0,0,0,2,15.778c0,2.148,4.477,3.889,10,3.889" fill="none" stroke="#323232" stroke-linecap="round" stroke-linejoin="round" stroke-width="1.5"/><path d="M6.768,11.521V7.48A1.432,1.432,0,0,1,7.5,6.235l3.649-2.052a1.432,1.432,0,0,1,1.4,0L16.2,6.235a1.427,1.427,0,0,1,.728,1.245v4.041a1.429,1.429,0,0,1-.728,1.245l-3.651,2.051a1.43,1.43,0,0,1-1.4,0l-3.65-2.052A1.427,1.427,0,0,1,6.768,11.521Z" fill="none" stroke="#323232" stroke-linecap="round" stroke-linejoin="round" stroke-width="1.5"/><path d="M11.846,9.5V15" fill="none" stroke="#323232" stroke-linecap="round" stroke-linejoin="round" stroke-width="1.5"/><path d="M6.963,6.759,11.846,9.5,16.73,6.759" fill="none" stroke="#323232" stroke-linecap="round" stroke-linejoin="round" stroke-width="1.5"/><path d="M0,0H24V24H0Z" fill="none"/></svg>