<svg id="Layer_3" data-name="Layer 3" xmlns="http://www.w3.org/2000/svg" viewBox="0 0 24 24"><title>package-thumbs-up-delivery</title><path d="M3,12V8.14a2.242,2.242,0,0,1,.182-.884l1.235-2.89A2.251,2.251,0,0,1,6.486,3H17.515a2.252,2.252,0,0,1,2.069,1.366l1.235,2.89A2.255,2.255,0,0,1,21,8.14V18.75A2.25,2.25,0,0,1,18.75,21H15" fill="none" stroke="#323232" stroke-linecap="round" stroke-linejoin="round" stroke-width="1.5"/><path d="M5.5,16.685l1.846-3.021a1.35,1.35,0,0,1,2.5.7v1.595h1.51a1.354,1.354,0,0,1,1.128.606,1.374,1.374,0,0,1,.177,1.139l-.732,2.562a1.008,1.008,0,0,1-.968.73H7.382a1.251,1.251,0,0,1-.8-.288l-1.082-.9" fill="none" stroke="#323232" stroke-linecap="round" stroke-linejoin="round" stroke-width="1.5"/><path d="M5,21H3.5a.5.5,0,0,1-.5-.5V16a.5.5,0,0,1,.5-.5H5a.5.5,0,0,1,.5.5v4.5A.5.5,0,0,1,5,21Z" fill="none" stroke="#323232" stroke-linecap="round" stroke-linejoin="round" stroke-width="1.5"/><path d="M12,8V3" fill="none" stroke="#323232" stroke-linecap="round" stroke-linejoin="round" stroke-width="1.5"/><path d="M16,17h1" fill="none" stroke="#323232" stroke-linecap="round" stroke-linejoin="round" stroke-width="1.5"/><path d="M3,12V10A2,2,0,0,1,5,8H19a2,2,0,0,1,2,2v7" fill="none" stroke="#323232" stroke-linecap="round" stroke-linejoin="round" stroke-width="1.5"/><path d="M24,24H0V0H24Z" fill="none"/></svg>