<svg id="Layer_3" data-name="Layer 3" xmlns="http://www.w3.org/2000/svg" viewBox="0 0 24 24"><title>package-box</title><path d="M21,8.089V19a2,2,0,0,1-2,2H5a2,2,0,0,1-2-2V8.089A2,2,0,0,1,3.161,7.3l1.32-3.089A2,2,0,0,1,6.32,3H17.68a2,2,0,0,1,1.839,1.214L20.839,7.3A2.006,2.006,0,0,1,21,8.089Z" fill="none" stroke="#323232" stroke-linecap="round" stroke-linejoin="round" stroke-width="1.5"/><path d="M3,8H20.99" fill="none" stroke="#323232" stroke-linecap="round" stroke-linejoin="round" stroke-width="1.5"/><path d="M14,3l1,5v3.225a.821.821,0,0,1-.86.775H9.86A.821.821,0,0,1,9,11.225V8l1-5" fill="none" stroke="#323232" stroke-linecap="round" stroke-linejoin="round" stroke-width="1.5"/><path d="M6,18H8" fill="none" stroke="#323232" stroke-linecap="round" stroke-linejoin="round" stroke-width="1.5"/><path d="M0,0H24V24H0Z" fill="none"/></svg>