<svg id="Layer_3" data-name="Layer 3" xmlns="http://www.w3.org/2000/svg" viewBox="0 0 24 24"><title>package-box-home_1</title><path d="M0,0H24V24H0Z" fill="none"/><path d="M19.714,9.612V4a1,1,0,0,0-1-1H16.857a1,1,0,0,0-1,1V6.306" fill="none" stroke="#323232" stroke-linecap="round" stroke-linejoin="round" stroke-width="1.5"/><path d="M17.5,14v3.222" fill="none" stroke="#323232" stroke-linecap="round" stroke-linejoin="round" stroke-width="1.5"/><path d="M21,18a.778.778,0,0,0-.778-.778H14.778A.778.778,0,0,0,14,18" fill="none" stroke="#323232" stroke-linecap="round" stroke-linejoin="round" stroke-width="1.5"/><path d="M15,21h5a1,1,0,0,0,1-1V16.435a3.007,3.007,0,0,0-.241-1.179l-.278-.649A1,1,0,0,0,19.562,14H15.438a1,1,0,0,0-.92.607l-.277.648A3.007,3.007,0,0,0,14,16.434V20A1,1,0,0,0,15,21Z" fill="none" stroke="#323232" stroke-linecap="round" stroke-linejoin="round" stroke-width="1.5"/><path d="M3,10.714l7.7-6.6a2,2,0,0,1,2.6,0l7.7,6.6" fill="none" stroke="#323232" stroke-linecap="round" stroke-linejoin="round" stroke-width="1.5"/><path d="M4.286,9.612V19a2,2,0,0,0,2,2H11" fill="none" stroke="#323232" stroke-linecap="round" stroke-linejoin="round" stroke-width="1.5"/></svg>