<svg id="Layer_3" data-name="Layer 3" xmlns="http://www.w3.org/2000/svg" viewBox="0 0 24 24"><title>package-box-refresh</title><path d="M21,18.866a3.086,3.086,0,0,1-.735,1.2,3.2,3.2,0,0,1-5.073-.733" fill="none" stroke="#323232" stroke-linecap="round" stroke-linejoin="round" stroke-width="1.5"/><path d="M20.812,16.268a3.2,3.2,0,0,0-5.073-.733,3.1,3.1,0,0,0-.738,1.2" fill="none" stroke="#323232" stroke-linecap="round" stroke-linejoin="round" stroke-width="1.5"/><path d="M15,3.077V6.566a1,1,0,0,1-1,1H10a1,1,0,0,1-1-1V3" fill="none" stroke="#323232" stroke-linecap="round" stroke-linejoin="round" stroke-width="1.5"/><path d="M21,12V5a2,2,0,0,0-2-2H5A2,2,0,0,0,3,5V18a2,2,0,0,0,2,2h7" fill="none" stroke="#323232" stroke-linecap="round" stroke-linejoin="round" stroke-width="1.5"/><path d="M19.583,16.269H21V14.854" fill="none" stroke="#323232" stroke-linecap="round" stroke-linejoin="round" stroke-width="1.5"/><path d="M16.42,19.33H15.006v1.415" fill="none" stroke="#323232" stroke-linecap="round" stroke-linejoin="round" stroke-width="1.5"/><path d="M0,0H24V24H0Z" fill="none"/></svg>