<svg id="Layer_3" data-name="Layer 3" xmlns="http://www.w3.org/2000/svg" viewBox="0 0 24 24"><title>package-box-search-checkmark</title><path d="M21,21l-1.9-1.9" fill="none" stroke="#323232" stroke-linecap="round" stroke-linejoin="round" stroke-width="1.5"/><path d="M16.167,12a4.167,4.167,0,0,1,4.167,4.167,4.23,4.23,0,0,1-4.167,4.167,4.167,4.167,0,0,1,0-8.334" fill="none" stroke="#323232" stroke-linecap="round" stroke-linejoin="round" stroke-width="1.5"/><path d="M17.307,15.6l-1.425,1.425-.856-.855" fill="none" stroke="#323232" stroke-linecap="round" stroke-linejoin="round" stroke-width="1.5"/><path d="M3,16v2a2,2,0,0,0,2,2H9" fill="none" stroke="#323232" stroke-linecap="round" stroke-linejoin="round" stroke-width="1.5"/><path d="M21,10V5a2,2,0,0,0-2-2H15" fill="none" stroke="#323232" stroke-linecap="round" stroke-linejoin="round" stroke-width="1.5"/><path d="M7.5,3V6.182" fill="none" stroke="#323232" stroke-linecap="round" stroke-linejoin="round" stroke-width="1.5"/><path d="M9,12H4.125A1.125,1.125,0,0,1,3,10.875V5.749a2.006,2.006,0,0,1,.161-.786l.547-1.28A1.126,1.126,0,0,1,4.743,3h5.514a1.125,1.125,0,0,1,1.034.683l.548,1.281A2.006,2.006,0,0,1,12,5.75V9" fill="none" stroke="#323232" stroke-linecap="round" stroke-linejoin="round" stroke-width="1.5"/><path d="M12,7.182a1,1,0,0,0-1-1H4a1,1,0,0,0-1,1" fill="none" stroke="#323232" stroke-linecap="round" stroke-linejoin="round" stroke-width="1.5"/><path d="M0,0H24V24H0Z" fill="none"/></svg>