<svg id="Layer_3" data-name="Layer 3" xmlns="http://www.w3.org/2000/svg" viewBox="0 0 24 24"><title>package-box-loading</title><polyline points="18 15.75 21 15.75 21 18.75" fill="none" stroke="#323232" stroke-linecap="round" stroke-linejoin="round" stroke-width="1.5"/><path d="M16.533,4.076A9,9,0,0,0,13.574,3" fill="none" stroke="#323232" stroke-linecap="round" stroke-linejoin="round" stroke-width="1.5"/><path d="M20.518,8.827a9.072,9.072,0,0,0-1.57-2.73" fill="none" stroke="#323232" stroke-linecap="round" stroke-linejoin="round" stroke-width="1.5"/><path d="M10.426,3A9,9,0,0,0,7.467,4.076" fill="none" stroke="#323232" stroke-linecap="round" stroke-linejoin="round" stroke-width="1.5"/><path d="M5.052,6.1a9.072,9.072,0,0,0-1.57,2.73" fill="none" stroke="#323232" stroke-linecap="round" stroke-linejoin="round" stroke-width="1.5"/><path d="M3,12a9,9,0,0,0,17.174,3.75" fill="none" stroke="#323232" stroke-linecap="round" stroke-linejoin="round" stroke-width="1.5"/><path d="M3,12a9,9,0,0,0,9,9" fill="none" stroke="#323232" stroke-linecap="round" stroke-linejoin="round" stroke-width="1.5"/><path d="M8.307,13.471V10.532a1.044,1.044,0,0,1,.529-.906l2.655-1.492a1.037,1.037,0,0,1,1.018,0l2.655,1.492a1.041,1.041,0,0,1,.529.906v2.939a1.041,1.041,0,0,1-.529.9l-2.656,1.492a1.042,1.042,0,0,1-1.018,0L8.835,14.375A1.039,1.039,0,0,1,8.307,13.471Z" fill="none" stroke="#323232" stroke-linecap="round" stroke-linejoin="round" stroke-width="1.5"/><path d="M12,12v4" fill="none" stroke="#323232" stroke-linecap="round" stroke-linejoin="round" stroke-width="1.5"/><path d="M8.449,10.007,12,12l3.551-1.994" fill="none" stroke="#323232" stroke-linecap="round" stroke-linejoin="round" stroke-width="1.5"/><rect id="_Transparent_Rectangle_" data-name=" Transparent Rectangle " width="24" height="24" fill="none"/></svg>