<svg id="Layer_3" data-name="Layer 3" xmlns="http://www.w3.org/2000/svg" viewBox="0 0 24 24"><title>package-box-chat-message_1</title><path d="M20,22H14a2,2,0,0,1-2-2V14a2,2,0,0,1,2-2h6a2,2,0,0,1,2,2v6A2,2,0,0,1,20,22Z" fill="none" stroke="#323232" stroke-linecap="round" stroke-linejoin="round" stroke-width="1.5"/><line x1="18.5" y1="15.333" x2="15.5" y2="15.333" fill="none" stroke="#323232" stroke-linecap="round" stroke-linejoin="round" stroke-width="1.5"/><path d="M12,16.239a8.725,8.725,0,0,1-2,.241,8.809,8.809,0,0,1-1.661-.159L5.2,17.867c0-1.07,0-2.089,0-2.845A7.011,7.011,0,0,1,2,9.24C2,5.223,5.6,2,10,2s8,3.223,8,7.24A6.636,6.636,0,0,1,17.394,12" fill="none" stroke="#323232" stroke-linecap="round" stroke-linejoin="round" stroke-width="1.5"/><path d="M10.177,9.21a.25.25,0,1,1-.354,0,.25.25,0,0,1,.354,0" fill="none" stroke="#323232" stroke-linecap="round" stroke-linejoin="round" stroke-width="1.5"/><path d="M13.732,9.21a.25.25,0,1,1-.354,0,.25.25,0,0,1,.354,0" fill="none" stroke="#323232" stroke-linecap="round" stroke-linejoin="round" stroke-width="1.5"/><path d="M6.621,9.21a.25.25,0,1,1-.354,0,.25.25,0,0,1,.354,0" fill="none" stroke="#323232" stroke-linecap="round" stroke-linejoin="round" stroke-width="1.5"/><path d="M0,0H24V24H0Z" fill="none"/></svg>