<svg id="Layer_3" data-name="Layer 3" xmlns="http://www.w3.org/2000/svg" viewBox="0 0 24 24"><title>package-box-backward</title><path d="M8.718,14.307V11.7a.925.925,0,0,1,.47-.8l2.359-1.327a.93.93,0,0,1,.906,0l2.359,1.327a.923.923,0,0,1,.47.8v2.612a.924.924,0,0,1-.47.8l-2.36,1.326a.93.93,0,0,1-.906,0L9.187,15.111A.921.921,0,0,1,8.718,14.307Z" fill="none" stroke="#323232" stroke-linecap="round" stroke-linejoin="round" stroke-width="1.5"/><path d="M12,13v3.554" fill="none" stroke="#323232" stroke-linecap="round" stroke-linejoin="round" stroke-width="1.5"/><path d="M4,13a8,8,0,1,0,8-8H5" fill="none" stroke="#323232" stroke-linecap="round" stroke-linejoin="round" stroke-width="1.5"/><line x1="7.5" y1="2.5" x2="5" y2="5" fill="none" stroke="#323232" stroke-linecap="round" stroke-linejoin="round" stroke-width="1.5"/><line x1="7.5" y1="7.5" x2="5" y2="5" fill="none" stroke="#323232" stroke-linecap="round" stroke-linejoin="round" stroke-width="1.5"/><path d="M8.844,11.228,12,13l3.157-1.773" fill="none" stroke="#323232" stroke-linecap="round" stroke-linejoin="round" stroke-width="1.5"/><path d="M0,0H24V24H0Z" fill="none"/></svg>