<svg id="Layer_3" data-name="Layer 3" xmlns="http://www.w3.org/2000/svg" viewBox="0 0 24 24"><title>package-box-lock-protection</title><path d="M15,3.077V6.566a1,1,0,0,1-1,1H10a1,1,0,0,1-1-1V3" fill="none" stroke="#323232" stroke-linecap="round" stroke-linejoin="round" stroke-width="1.5"/><path d="M21,10.434V5a2,2,0,0,0-2-2H5A2,2,0,0,0,3,5V18a2,2,0,0,0,2,2h6" fill="none" stroke="#323232" stroke-linecap="round" stroke-linejoin="round" stroke-width="1.5"/><path d="M19.428,15.7V13.963A1.963,1.963,0,0,0,17.465,12h0A1.963,1.963,0,0,0,15.5,13.963V15.7" fill="none" stroke="#323232" stroke-linecap="round" stroke-linejoin="round" stroke-width="1.5"/><path d="M19.714,15.7h-4.5a1.286,1.286,0,0,0-1.286,1.286v2.731A1.286,1.286,0,0,0,15.214,21h4.5A1.288,1.288,0,0,0,21,19.714V16.983A1.286,1.286,0,0,0,19.714,15.7Z" fill="none" stroke="#323232" stroke-linecap="round" stroke-linejoin="round" stroke-width="1.5"/><path d="M0,0H24V24H0Z" fill="none"/></svg>