<svg id="Layer_3" data-name="Layer 3" xmlns="http://www.w3.org/2000/svg" viewBox="0 0 24 24"><title>package-box-chat-message</title><path d="M0,0H24V24H0Z" fill="none"/><path d="M4.151,16.4A9.011,9.011,0,1,1,7.6,19.849L3,21Z" fill="none" stroke="#323232" stroke-linecap="round" stroke-linejoin="round" stroke-width="1.5"/><path d="M8.307,13.471V10.532a1.044,1.044,0,0,1,.529-.906l2.655-1.492a1.037,1.037,0,0,1,1.018,0l2.655,1.492a1.041,1.041,0,0,1,.529.906v2.939a1.041,1.041,0,0,1-.529.9l-2.656,1.492a1.042,1.042,0,0,1-1.018,0L8.835,14.375A1.039,1.039,0,0,1,8.307,13.471Z" fill="none" stroke="#323232" stroke-linecap="round" stroke-linejoin="round" stroke-width="1.5"/><path d="M12,12v4" fill="none" stroke="#323232" stroke-linecap="round" stroke-linejoin="round" stroke-width="1.5"/><path d="M8.449,10.007,12,12l3.551-1.994" fill="none" stroke="#323232" stroke-linecap="round" stroke-linejoin="round" stroke-width="1.5"/></svg>