<svg id="Layer_3" data-name="Layer 3" xmlns="http://www.w3.org/2000/svg" viewBox="0 0 24 24"><title>package-delivery-circle</title><path d="M12,7.5V10" fill="none" stroke="#323232" stroke-linecap="round" stroke-linejoin="round" stroke-width="1.5"/><path d="M16.5,15.182v-3.5a1,1,0,0,0-1-1h-7a1,1,0,0,0-1,1v3.5" fill="none" stroke="#323232" stroke-linecap="round" stroke-linejoin="round" stroke-width="1.5"/><path d="M15.5,16.5H8.625A1.125,1.125,0,0,1,7.5,15.375V10.249a2.006,2.006,0,0,1,.161-.786l.547-1.28A1.126,1.126,0,0,1,9.243,7.5h5.514a1.125,1.125,0,0,1,1.034.683l.548,1.281a2.006,2.006,0,0,1,.161.786V15.5A1,1,0,0,1,15.5,16.5Z" fill="none" stroke="#323232" stroke-linecap="round" stroke-linejoin="round" stroke-width="1.5"/><circle cx="12" cy="12" r="9" fill="none" stroke="#323232" stroke-linecap="round" stroke-linejoin="round" stroke-width="1.5"/><path d="M0,0H24V24H0Z" fill="none"/></svg>