<svg id="Layer_3" data-name="Layer 3" xmlns="http://www.w3.org/2000/svg" viewBox="0 0 24 24"><title>package-box-open</title><path d="M9.143,3.223,21.2,9.446a1,1,0,0,1,.012,1.771l-4.5,2.4a2,2,0,0,1-1.858.013L2.8,7.405a1,1,0,0,1-.012-1.771l4.5-2.4A2,2,0,0,1,9.143,3.223Z" fill="none" stroke="#323232" stroke-linecap="round" stroke-linejoin="round" stroke-width="1.5"/><path d="M14.857,3.223,2.8,9.446a1,1,0,0,0-.012,1.771l4.5,2.4a2,2,0,0,0,1.858.013L21.2,7.405a1,1,0,0,0,.012-1.771l-4.5-2.4A2,2,0,0,0,14.857,3.223Z" fill="none" stroke="#323232" stroke-linecap="round" stroke-linejoin="round" stroke-width="1.5"/><path d="M19.105,12.341v3.936a2,2,0,0,1-1.059,1.765l-5.1,2.723a2,2,0,0,1-1.882,0l-5.1-2.723a2,2,0,0,1-1.059-1.765V12.341" fill="none" stroke="#323232" stroke-linecap="round" stroke-linejoin="round" stroke-width="1.5"/><line x1="12" y1="21" x2="12" y2="12.154" fill="none" stroke="#323232" stroke-linecap="round" stroke-linejoin="round" stroke-width="1.5"/><path d="M0,0H24V24H0Z" fill="none"/></svg>