<svg id="Layer_3" data-name="Layer 3" xmlns="http://www.w3.org/2000/svg" viewBox="0 0 24 24"><title>package-box-label</title><path d="M12,3V8" fill="none" stroke="#323232" stroke-linecap="round" stroke-linejoin="round" stroke-width="1.5"/><path d="M21,17V10a2,2,0,0,0-2-2H5a2,2,0,0,0-2,2v7" fill="none" stroke="#323232" stroke-linecap="round" stroke-linejoin="round" stroke-width="1.5"/><rect x="7" y="14" width="5" height="3" stroke-width="1.5" stroke="#323232" stroke-linecap="round" stroke-linejoin="round" fill="none"/><path d="M19,21H5.25A2.25,2.25,0,0,1,3,18.75V8.5a3.982,3.982,0,0,1,.322-1.571L4.416,4.366A2.249,2.249,0,0,1,6.485,3H17.514a2.249,2.249,0,0,1,2.069,1.366l1.1,2.563A3.987,3.987,0,0,1,21,8.5V19A2,2,0,0,1,19,21Z" fill="none" stroke="#323232" stroke-linecap="round" stroke-linejoin="round" stroke-width="1.5"/><path d="M0,0H24V24H0Z" fill="none"/></svg>