<svg id="Layer_3" data-name="Layer 3" xmlns="http://www.w3.org/2000/svg" viewBox="0 0 24 24"><title>package-box-arrow-square</title><path d="M7.5,10,12,7l4.5,3" fill="none" stroke="#323232" stroke-linecap="round" stroke-linejoin="round" stroke-width="1.5"/><path d="M8.769,15.787V13.215a.908.908,0,0,1,.463-.792l2.322-1.306a.907.907,0,0,1,.891,0l2.322,1.306a.909.909,0,0,1,.463.792v2.571a.906.906,0,0,1-.464.792l-2.322,1.3a.909.909,0,0,1-.891,0L9.231,16.577A.907.907,0,0,1,8.769,15.787Z" fill="none" stroke="#323232" stroke-linecap="round" stroke-linejoin="round" stroke-width="1.5"/><path d="M12,14.5V18" fill="none" stroke="#323232" stroke-linecap="round" stroke-linejoin="round" stroke-width="1.5"/><path d="M8.893,12.756,12,14.5l3.107-1.744" fill="none" stroke="#323232" stroke-linecap="round" stroke-linejoin="round" stroke-width="1.5"/><path d="M16,21H8a5,5,0,0,1-5-5V8A5,5,0,0,1,8,3h8a5,5,0,0,1,5,5v8A5,5,0,0,1,16,21Z" fill="none" stroke="#323232" stroke-linecap="round" stroke-linejoin="round" stroke-width="1.5"/><rect width="24" height="24" fill="none"/></svg>