<svg id="Layer_3" data-name="Layer 3" xmlns="http://www.w3.org/2000/svg" viewBox="0 0 24 24"><title>package-box-label_2</title><path d="M0,0H24V24H0Z" fill="none"/><path d="M10.8,3h2.4a1.2,1.2,0,0,1,1.2,1.2V9L12,7.8,9.6,9V4.2A1.2,1.2,0,0,1,10.8,3Z" fill="none" stroke="#323232" stroke-linecap="round" stroke-linejoin="round" stroke-width="1.5"/><rect x="7" y="14" width="5" height="3" stroke-width="1.5" stroke="#323232" stroke-linecap="round" stroke-linejoin="round" fill="none"/><path d="M14.4,4H19a2,2,0,0,1,2,2V19a2,2,0,0,1-2,2H5a2,2,0,0,1-2-2V6A2,2,0,0,1,5,4H9.6" fill="none" stroke="#323232" stroke-linecap="round" stroke-linejoin="round" stroke-width="1.5"/></svg>