<svg id="Layer_3" data-name="Layer 3" xmlns="http://www.w3.org/2000/svg" viewBox="0 0 24 24"><title>Artboard 133</title><path d="M0,0H24V24H0Z" fill="none"/><path d="M4.875,3V6a1,1,0,0,0,1,1h12a1,1,0,0,0,1-1V3" fill="none" stroke="#323232" stroke-linecap="round" stroke-linejoin="round" stroke-width="1.5"/><path d="M18.875,21V18a1,1,0,0,0-1-1h-12a1,1,0,0,0-1,1v3" fill="none" stroke="#323232" stroke-linecap="round" stroke-linejoin="round" stroke-width="1.5"/><path d="M2,10.536v2.928a1,1,0,0,0,1.6.8L5.552,12.8a1,1,0,0,0,0-1.6L3.6,9.736A1,1,0,0,0,2,10.536Z" fill="none" stroke="#323232" stroke-linecap="round" stroke-linejoin="round" stroke-width="1.5"/><path d="M22,13.464V10.536a1,1,0,0,0-1.6-.8L18.448,11.2a1,1,0,0,0,0,1.6L20.4,14.264A1,1,0,0,0,22,13.464Z" fill="none" stroke="#323232" stroke-linecap="round" stroke-linejoin="round" stroke-width="1.5"/></svg>