<svg id="Layer_3" data-name="Layer 3" xmlns="http://www.w3.org/2000/svg" viewBox="0 0 24 24"><path d="M14,6.86486H7a.5.5,0,0,0-.5.5v3.05406a.5.5,0,0,0,.5.5h7a.5.5,0,0,0,.5-.5V7.36486A.5.5,0,0,0,14,6.86486Z" fill="none" stroke="#323232" stroke-linecap="round" stroke-linejoin="round" stroke-width="1.5"/><rect x="3" y="3" width="18" height="18" rx="4" stroke-width="1.5" stroke="#323232" stroke-linecap="round" stroke-linejoin="round" fill="none"/><path d="M14.5,9h2a1,1,0,0,1,1,1v3a1,1,0,0,1-1,1H12a1,1,0,0,0-1,1v2" fill="none" stroke="#323232" stroke-linecap="round" stroke-linejoin="round" stroke-width="1.5"/><path d="M0,0H24V24H0Z" fill="none"/></svg>