<svg id="Layer_3" data-name="Layer 3" xmlns="http://www.w3.org/2000/svg" viewBox="0 0 24 24"><title>painting-palette</title><path d="M10.648,21a2,2,0,0,1-1.921-2.549l.258-.9A1.977,1.977,0,0,0,9.063,17a2,2,0,0,0-2-2H5a2,2,0,0,1-2-2V12c0-.086,0-.173,0-.259A9,9,0,0,1,12.253,3,9.094,9.094,0,0,1,21,11.747c0,.086,0,.172,0,.258A9,9,0,0,1,12,21Z" fill="none" stroke="#323232" stroke-linecap="round" stroke-linejoin="round" stroke-width="1.5"/><path d="M17,11.723a.253.253,0,1,0,.254.253A.252.252,0,0,0,17,11.723" fill="none" stroke="#323232" stroke-linecap="round" stroke-linejoin="round" stroke-width="1.5"/><path d="M12.024,6.75A.253.253,0,1,0,12.278,7a.252.252,0,0,0-.254-.253" fill="none" stroke="#323232" stroke-linecap="round" stroke-linejoin="round" stroke-width="1.5"/><path d="M8.508,8.2a.253.253,0,1,0,.255.253A.252.252,0,0,0,8.508,8.2" fill="none" stroke="#323232" stroke-linecap="round" stroke-linejoin="round" stroke-width="1.5"/><path d="M15.543,15.238a.253.253,0,1,0,.254.253.251.251,0,0,0-.254-.253" fill="none" stroke="#323232" stroke-linecap="round" stroke-linejoin="round" stroke-width="1.5"/><path d="M15.543,8.2a.253.253,0,1,0,.254.253.251.251,0,0,0-.254-.253" fill="none" stroke="#323232" stroke-linecap="round" stroke-linejoin="round" stroke-width="1.5"/><path d="M0,0H24V24H0Z" fill="none"/></svg>