<svg id="Layer_3" data-name="Layer 3" xmlns="http://www.w3.org/2000/svg" viewBox="0 0 24 24"><title>pantone-color-circle</title><path d="M9.25116,16.5H15.5a1,1,0,0,0,1-1V14.00024a1,1,0,0,0-1-1H13.47516" fill="none" stroke="#323232" stroke-linecap="round" stroke-linejoin="round" stroke-width="1.5"/><path d="M10.48712,15.98743l4.85533-4.85534a1,1,0,0,0,.00031-1.4139L14.28287,8.65738a1,1,0,0,0-1.41435-.00047l-1.86883,1.86793" fill="none" stroke="#323232" stroke-linecap="round" stroke-linejoin="round" stroke-width="1.5"/><path d="M8.5,7.5H9.99971a1,1,0,0,1,1,1v6.25014A1.74986,1.74986,0,0,1,9.24986,16.5h0A1.74986,1.74986,0,0,1,7.5,14.75014V8.5a1,1,0,0,1,1-1Z" fill="none" stroke="#323232" stroke-linecap="round" stroke-linejoin="round" stroke-width="1.5"/><circle cx="12" cy="12" r="9" fill="none" stroke="#323232" stroke-linecap="round" stroke-linejoin="round" stroke-width="1.5"/><rect width="24" height="24" fill="none"/></svg>