<svg id="Layer_3" data-name="Layer 3" xmlns="http://www.w3.org/2000/svg" viewBox="0 0 24 24"><title>pantone-color-square</title><path d="M8.792,17.25h0A2.042,2.042,0,0,1,6.75,15.208V7.917A1.166,1.166,0,0,1,7.917,6.75h1.75a1.166,1.166,0,0,1,1.166,1.167v7.291A2.041,2.041,0,0,1,8.792,17.25Z" fill="none" stroke="#323232" stroke-linecap="round" stroke-linejoin="round" stroke-width="1.5"/><path d="M10.235,16.652,15.9,10.987a1.165,1.165,0,0,0,0-1.649L14.663,8.1a1.168,1.168,0,0,0-1.65,0l-2.18,2.179" fill="none" stroke="#323232" stroke-linecap="round" stroke-linejoin="round" stroke-width="1.5"/><rect x="3" y="3" width="18" height="18" rx="5" stroke-width="1.5" stroke="#323232" stroke-linecap="round" stroke-linejoin="round" fill="none"/><path d="M13.721,13.167h2.362a1.166,1.166,0,0,1,1.167,1.166v1.75a1.166,1.166,0,0,1-1.167,1.167H8.792" fill="none" stroke="#323232" stroke-linecap="round" stroke-linejoin="round" stroke-width="1.5"/><rect width="24" height="24" fill="none"/></svg>