<svg id="Layer_3" data-name="Layer 3" xmlns="http://www.w3.org/2000/svg" viewBox="0 0 24 24"><title>pants</title><line x1="3.78812" y1="6" x2="20.21188" y2="6" fill="none" stroke="#323232" stroke-linecap="round" stroke-linejoin="round" stroke-width="1.5"/><path d="M8.16542,22a1,1,0,0,0,.98387-.82111l1.77606-9.76833A.5.5,0,0,1,11.41729,11h1.16542a.5.5,0,0,1,.49194.41056l1.77606,9.76833A1,1,0,0,0,15.83458,22H20a1,1,0,0,0,.99862-1.05256l-.89474-17A1,1,0,0,0,19.10523,3H4.89477a1,1,0,0,0-.99862.94744l-.89474,17A1,1,0,0,0,4,22Z" fill="none" stroke="#323232" stroke-linecap="round" stroke-linejoin="round" stroke-width="1.5"/><rect x="10" y="3" width="4" height="3" rx="1" transform="translate(24 9) rotate(-180)" stroke-width="1.5" stroke="#323232" stroke-linecap="round" stroke-linejoin="round" fill="none"/><rect width="24" height="24" transform="translate(24 24) rotate(-180)" fill="none"/></svg>