<svg id="Layer_3" data-name="Layer 3" xmlns="http://www.w3.org/2000/svg" viewBox="0 0 24 24"><title>paper-clip-attache</title><path d="M16.68,9.32l-6.387,6.387A1,1,0,0,1,9.586,16H8a1,1,0,0,1-1-1V13.414a1.015,1.015,0,0,1,.29-.71l7.03-7.19a3.884,3.884,0,0,1,5.524-.031l.072.072a3.945,3.945,0,0,1-.016,5.617c-2.358,2.309-5.588,5.523-7.438,7.369A5,5,0,0,1,8.931,20H6a3,3,0,0,1-3-3V14.071a5,5,0,0,1,1.464-3.535L10.68,4.32" fill="none" stroke="#323232" stroke-linecap="round" stroke-linejoin="round" stroke-width="1.5"/><path d="M0,0H24V24H0Z" fill="none"/></svg>