<svg id="Layer_3" data-name="Layer 3" xmlns="http://www.w3.org/2000/svg" viewBox="0 0 24 24"><title>parking-car-garage</title><path d="M8.611,7h3.778" fill="none" stroke="#323232" stroke-linecap="round" stroke-linejoin="round" stroke-width="1.5"/><path d="M9,12H6v7" fill="none" stroke="#323232" stroke-linecap="round" stroke-linejoin="round" stroke-width="1.5"/><path d="M6,19H2V7.562a1.888,1.888,0,0,1,.972-1.651L9.583,2.238a1.889,1.889,0,0,1,1.835,0l6.611,3.673A1.889,1.889,0,0,1,19,7.562V9" fill="none" stroke="#323232" stroke-linecap="round" stroke-linejoin="round" stroke-width="1.5"/><path d="M0,0H24V24H0Z" fill="none"/><path d="M22,17.8a2,2,0,0,0-2-2H12a2,2,0,0,0-2,2" fill="none" stroke="#323232" stroke-linecap="round" stroke-linejoin="round" stroke-width="1.5"/><path d="M10,17.8V21a1,1,0,0,0,1,1h.99a1,1,0,0,0,1-1v-.661h6.02V21a1,1,0,0,0,1,1H21a1,1,0,0,0,1-1V17.8" fill="none" stroke="#323232" stroke-linecap="round" stroke-linejoin="round" stroke-width="1.5"/><path d="M13.737,18.1H12.242" fill="none" stroke="#323232" stroke-linecap="round" stroke-linejoin="round" stroke-width="1.5"/><path d="M19.758,18.1H18.263" fill="none" stroke="#323232" stroke-linecap="round" stroke-linejoin="round" stroke-width="1.5"/><path d="M20.505,15.737,22,14.99" fill="none" stroke="#323232" stroke-linecap="round" stroke-linejoin="round" stroke-width="1.5"/><path d="M11.5,15.737,10,14.99" fill="none" stroke="#323232" stroke-linecap="round" stroke-linejoin="round" stroke-width="1.5"/><path d="M13.568,12a1.5,1.5,0,0,0-1.456,1.155l-.634,2.71.634-2.71A1.5,1.5,0,0,1,13.568,12h4.864a1.5,1.5,0,0,1,1.456,1.155l.634,2.71" fill="none" stroke="#323232" stroke-linecap="round" stroke-linejoin="round" stroke-width="1.5"/></svg>