<?xml version="1.0" encoding="utf-8"?>
<!-- Generator: Adobe Illustrator 24.0.2, SVG Export Plug-In . SVG Version: 6.00 Build 0)  -->
<svg version="1.1" id="Layer_1" xmlns="http://www.w3.org/2000/svg" xmlns:xlink="http://www.w3.org/1999/xlink" x="0px" y="0px"
	 width="24px" height="24px" viewBox="0 0 24 24" enable-background="new 0 0 24 24" xml:space="preserve">
<g>
	<g>
		<path fill="none" d="M0,24V0h24v24"/>
	</g>
	<g>
		<path fill="none" stroke="#323232" stroke-width="1.5" stroke-linecap="round" stroke-linejoin="round" d="M4,21
			c-1.105,0-2-0.895-2-2v-5c0-1.105,0.895-2,2-2h16c1.105,0,2,0.895,2,2v5c0,1.105-0.895,2-2,2H4"/>
		<g>
			<path fill="none" stroke="#323232" stroke-width="1.5" stroke-linecap="round" stroke-linejoin="round" d="M18.244,16.499
				c0-0.135-0.109-0.244-0.244-0.243c-0.135,0-0.244,0.109-0.244,0.244s0.109,0.244,0.244,0.244S18.244,16.635,18.244,16.499"/>
			<path fill="none" stroke="#323232" stroke-width="1.5" stroke-linecap="round" stroke-linejoin="round" d="M14.244,16.499
				c0-0.135-0.109-0.244-0.244-0.243c-0.135,0-0.244,0.109-0.244,0.244s0.109,0.244,0.244,0.244
				C14.134,16.744,14.244,16.635,14.244,16.499"/>
			<path fill="none" stroke="#323232" stroke-width="1.5" stroke-linecap="round" stroke-linejoin="round" d="M10.244,16.499
				c0-0.135-0.109-0.244-0.244-0.243c-0.135,0-0.244,0.109-0.244,0.244S9.865,16.744,10,16.744
				C10.134,16.744,10.244,16.635,10.244,16.499"/>
			<path fill="none" stroke="#323232" stroke-width="1.5" stroke-linecap="round" stroke-linejoin="round" d="M6.244,16.499
				c0-0.135-0.109-0.244-0.244-0.243c-0.135,0-0.244,0.109-0.244,0.244S5.865,16.744,6,16.744
				C6.134,16.744,6.244,16.635,6.244,16.499"/>
		</g>
		<path fill="none" stroke="#323232" stroke-width="1.5" stroke-linecap="round" stroke-linejoin="round" d="M14,3.778L9.778,8"/>
		<path fill="none" stroke="#323232" stroke-width="1.5" stroke-linecap="round" stroke-linejoin="round" d="M14,8L9.778,3.778"/>
	</g>
</g>
</svg>
