<?xml version="1.0" encoding="utf-8"?>
<!-- Generator: Adobe Illustrator 24.0.2, SVG Export Plug-In . SVG Version: 6.00 Build 0)  -->
<svg version="1.1" id="Layer_3" xmlns="http://www.w3.org/2000/svg" xmlns:xlink="http://www.w3.org/1999/xlink" x="0px" y="0px"
	 width="24px" height="24px" viewBox="0 0 24 24" enable-background="new 0 0 24 24" xml:space="preserve">
<g>
	<g>
		<path fill="none" stroke="#323232" stroke-width="1.5" stroke-linecap="round" stroke-linejoin="round" d="M17,17H7
			c-2.761,0-5-2.239-5-5v0c0-2.761,2.239-5,5-5h10c2.761,0,5,2.239,5,5v0C22,14.761,19.761,17,17,17z"/>
		<path fill="none" stroke="#323232" stroke-width="1.625" stroke-linecap="round" stroke-linejoin="round" d="M18.244,11.999
			c0-0.135-0.109-0.244-0.244-0.243c-0.135,0-0.244,0.109-0.244,0.244c0,0.135,0.109,0.244,0.244,0.244S18.244,12.135,18.244,11.999
			"/>
		<path fill="none" stroke="#323232" stroke-width="1.625" stroke-linecap="round" stroke-linejoin="round" d="M14.244,11.999
			c0-0.135-0.109-0.244-0.244-0.243c-0.135,0-0.244,0.109-0.244,0.244c0,0.135,0.109,0.244,0.244,0.244
			C14.134,12.244,14.244,12.135,14.244,11.999"/>
		<path fill="none" stroke="#323232" stroke-width="1.625" stroke-linecap="round" stroke-linejoin="round" d="M10.244,11.999
			c0-0.135-0.109-0.244-0.244-0.243c-0.135,0-0.244,0.109-0.244,0.244c0,0.135,0.109,0.244,0.244,0.244
			C10.134,12.244,10.244,12.135,10.244,11.999"/>
		<path fill="none" stroke="#323232" stroke-width="1.625" stroke-linecap="round" stroke-linejoin="round" d="M6.244,11.999
			c0-0.135-0.109-0.244-0.244-0.243c-0.135,0-0.244,0.109-0.244,0.244c0,0.135,0.109,0.244,0.244,0.244
			C6.134,12.244,6.244,12.135,6.244,11.999"/>
	</g>
	<path fill="none" d="M0,0h24v24H0V0z"/>
</g>
</svg>
