<?xml version="1.0" encoding="utf-8"?>
<!-- Generator: Adobe Illustrator 24.0.2, SVG Export Plug-In . SVG Version: 6.00 Build 0)  -->
<svg version="1.1" id="Layer_1" xmlns="http://www.w3.org/2000/svg" xmlns:xlink="http://www.w3.org/1999/xlink" x="0px" y="0px"
	 width="24px" height="24px" viewBox="0 0 24 24" enable-background="new 0 0 24 24" xml:space="preserve">
<g>
	<g>
		<path fill="none" stroke="#323232" stroke-width="1.5" stroke-linecap="round" stroke-linejoin="round" d="M7.849,11.735
			c0.146,0.146,0.146,0.384,0,0.53s-0.384,0.146-0.53,0s-0.146-0.384,0-0.53C7.465,11.588,7.702,11.588,7.849,11.735"/>
		<path fill="none" stroke="#323232" stroke-width="1.5" stroke-linecap="round" stroke-linejoin="round" d="M12.265,11.735
			c0.146,0.146,0.146,0.384,0,0.53s-0.384,0.146-0.53,0s-0.146-0.384,0-0.53C11.881,11.588,12.119,11.588,12.265,11.735"/>
		<path fill="none" stroke="#323232" stroke-width="1.5" stroke-linecap="round" stroke-linejoin="round" d="M16,14.5v-5"/>
		
			<path fill="none" stroke="#323232" stroke-width="1.5" stroke-linecap="round" stroke-linejoin="round" stroke-miterlimit="10" d="
			M16,21H8c-2.761,0-5-2.239-5-5V8c0-2.761,2.239-5,5-5h8c2.761,0,5,2.239,5,5v8C21,18.761,18.761,21,16,21z"/>
	</g>
	<path fill="none" d="M0,0h24v24H0V0z"/>
</g>
</svg>
