<svg id="Layer_3" data-name="Layer 3" xmlns="http://www.w3.org/2000/svg" viewBox="0 0 24 24"><title>pear</title><path d="M16.509,12.255h0a6.543,6.543,0,0,1,1.309,3.927h0A5.818,5.818,0,0,1,12,22h0a5.818,5.818,0,0,1-5.818-5.818h0a6.543,6.543,0,0,1,1.309-3.927h0a4.369,4.369,0,0,0,.873-2.619h0A3.636,3.636,0,0,1,12,6h0a3.636,3.636,0,0,1,3.636,3.636h0A4.369,4.369,0,0,0,16.509,12.255Z" fill="none" stroke="#323232" stroke-linecap="round" stroke-linejoin="round" stroke-width="1.5"/><path d="M13.474,6H12V4.526A2.525,2.525,0,0,1,14.526,2H16V3.474A2.527,2.527,0,0,1,13.474,6Z" fill="none" stroke="#323232" stroke-linecap="round" stroke-linejoin="round" stroke-width="1.5"/><path d="M12,6V5.5A2.5,2.5,0,0,0,9.5,3H9" fill="none" stroke="#323232" stroke-linecap="round" stroke-linejoin="round" stroke-width="1.5"/><rect width="24" height="24" fill="none"/></svg>