<?xml version="1.0" encoding="utf-8"?>
<!-- Generator: Adobe Illustrator 24.0.2, SVG Export Plug-In . SVG Version: 6.00 Build 0)  -->
<svg version="1.1" id="Layer_3" xmlns="http://www.w3.org/2000/svg" xmlns:xlink="http://www.w3.org/1999/xlink" x="0px" y="0px"
	 width="24px" height="24px" viewBox="0 0 24 24" enable-background="new 0 0 24 24" xml:space="preserve">
<g>
	<path fill="none" d="M0,0h24v24H0V0z"/>
	<g>
		<path fill="none" stroke="#323232" stroke-width="1.5" stroke-linecap="round" stroke-linejoin="round" d="M3,18.38l9.19-9.19
			c0.391-0.391,1.024-0.391,1.414,0l1.206,1.206c0.391,0.391,0.391,1.024,0,1.414L5.62,21H3L3,18.38z"/>
		<path fill="none" stroke="#323232" stroke-width="1.5" stroke-linecap="round" stroke-linejoin="round" d="M13.203,13.424
			l-2.62-2.63"/>
		<path fill="none" stroke="#323232" stroke-width="1.5" stroke-linecap="round" stroke-linejoin="round" d="M3,13V6.375
			C3,4.511,4.511,3,6.375,3h11.25C19.489,3,21,4.511,21,6.375v11.25C21,19.489,19.489,21,17.625,21H11"/>
	</g>
</g>
</svg>
