<?xml version="1.0" encoding="utf-8"?>
<!-- Generator: Adobe Illustrator 23.1.0, SVG Export Plug-In . SVG Version: 6.00 Build 0)  -->
<svg version="1.1" id="icons" xmlns="http://www.w3.org/2000/svg" xmlns:xlink="http://www.w3.org/1999/xlink" x="0px" y="0px"
	 width="24px" height="24px" viewBox="0 0 24 24" enable-background="new 0 0 24 24" xml:space="preserve">
<g>
	<rect y="0" fill="none" width="24" height="24"/>
	<g>
		<g>
			
				<path fill="none" stroke="#323232" stroke-width="1.5" stroke-linecap="round" stroke-linejoin="round" stroke-miterlimit="10" d="
				M5.636,18.364C7.265,19.993,9.515,21,12,21c4.971,0,9-4.029,9-9v0c0-4.971-4.029-9-9-9h0c-4.971,0-9,4.029-9,9"/>
		</g>
		
			<line fill="none" stroke="#323232" stroke-width="1.5" stroke-linecap="round" stroke-linejoin="round" stroke-miterlimit="10" x1="11" y1="10" x2="14" y2="13"/>
		<path fill="none" stroke="#323232" stroke-width="1.5" stroke-linecap="round" stroke-linejoin="round" d="M6.163,14.837
			l5.751-5.751c0.828-0.828,2.172-0.828,3,0l0,0c0.828,0.828,0.828,2.172,0,3l-5.751,5.751c-0.168,0.168-0.389,0.27-0.625,0.29
			l-2.902,0.238l0.238-2.902C5.893,15.226,5.996,15.004,6.163,14.837z"/>
	</g>
</g>
</svg>
