<svg id="Layer_3" data-name="Layer 3" xmlns="http://www.w3.org/2000/svg" viewBox="0 0 24 24"><title>pen-select</title><path d="M14.737,18.862,13.864,13.9a1.5,1.5,0,0,0-1.48-1.24l-3.712.006A1.5,1.5,0,0,0,7.2,13.892l-.936,4.97" fill="none" stroke="#323232" stroke-linecap="round" stroke-linejoin="round" stroke-width="1.5"/><circle cx="18.25" cy="17.25" r="3.75" fill="none" stroke="#323232" stroke-linecap="round" stroke-linejoin="round" stroke-width="1.5"/><path d="M14.84,18.8A8.495,8.495,0,1,1,19,11.5a8.569,8.569,0,0,1-.25,2.04" fill="none" stroke="#323232" stroke-linecap="round" stroke-linejoin="round" stroke-width="1.5"/><path d="M8.761,12.67v-.306C8.761,9.954,9.54,8,10.5,8s1.739,1.954,1.739,4.364v.3" fill="none" stroke="#323232" stroke-linecap="round" stroke-linejoin="round" stroke-width="1.5"/><path d="M0,0H24V24H0Z" fill="none"/></svg>