<svg id="Layer_3" data-name="Layer 3" xmlns="http://www.w3.org/2000/svg" viewBox="0 0 24 24"><title>pen-draw</title><path d="M12.419,12.4l1.867-.374A1.4,1.4,0,0,0,15,11.648L20.452,6.2a1.873,1.873,0,0,0,0-2.648h0a1.873,1.873,0,0,0-2.648,0L12.352,9a1.4,1.4,0,0,0-.382.714L11.6,11.581A.7.7,0,0,0,12.419,12.4Z" fill="none" stroke="#323232" stroke-linecap="round" stroke-linejoin="round" stroke-width="1.5"/><path d="M9.365,14.424c3.124,3.124,7.4,3.916,9.545,1.768,1.808-1.808,1.527-5.12-.468-7.986" fill="none" stroke="#323232" stroke-linecap="round" stroke-linejoin="round" stroke-width="1.5"/><path d="M15.84,5.512c-3.757-2.89-8.455-3.251-11.072-.634C1.839,7.807,2.631,13.347,6.536,17.252A14.768,14.768,0,0,0,12.688,21" fill="none" stroke="#323232" stroke-linecap="round" stroke-linejoin="round" stroke-width="1.5"/><path d="M0,0H24V24H0Z" fill="none"/></svg>