<svg id="Layer_3" data-name="Layer 3" xmlns="http://www.w3.org/2000/svg" viewBox="0 0 24 24"><title>pen-edit-checkmark-circle</title><path d="M0,0H24V24H0Z" fill="none"/><path d="M13,20.938A8.15936,8.15936,0,0,1,12,21a9,9,0,1,1,9-9,8.15936,8.15936,0,0,1-.062,1" fill="none" stroke="#323232" stroke-linecap="round" stroke-linejoin="round" stroke-width="1.5"/><path d="M20,17l-2.5,2.5L16,18" fill="none" stroke="#323232" stroke-linecap="round" stroke-linejoin="round" stroke-width="1.5"/><path d="M11.159,15.427H8.573V12.841a1,1,0,0,1,.293-.707l4-4a1,1,0,0,1,1.414,0L15.866,9.72a1,1,0,0,1,0,1.414l-4,4A1,1,0,0,1,11.159,15.427Z" fill="none" stroke="#323232" stroke-linecap="round" stroke-linejoin="round" stroke-width="1.5"/></svg>