<svg id="Layer_3" data-name="Layer 3" xmlns="http://www.w3.org/2000/svg" viewBox="0 0 24 24"><title>pen-loading</title><path d="M5.628,18.355A9,9,0,1,0,12,3" fill="none" stroke="#323232" stroke-linecap="round" stroke-linejoin="round" stroke-width="1.5"/><path d="M11.159,15.427H8.573V12.841a1,1,0,0,1,.293-.707l4-4a1,1,0,0,1,1.414,0L15.866,9.72a1,1,0,0,1,0,1.414l-4,4A1,1,0,0,1,11.159,15.427Z" fill="none" stroke="#323232" stroke-linecap="round" stroke-linejoin="round" stroke-width="1.5"/><path d="M8.525,3.731a.05.05,0,1,0,.1,0,.05.05,0,1,0-.1,0" fill="none" stroke="#323232" stroke-linecap="round" stroke-linejoin="round" stroke-width="1.5"/><path d="M5.621,5.672a.05.05,0,0,0,.1,0,.05.05,0,0,0-.05-.05.051.051,0,0,0-.05.051" fill="none" stroke="#323232" stroke-linecap="round" stroke-linejoin="round" stroke-width="1.5"/><path d="M3.681,8.575a.05.05,0,0,0,.05.05.05.05,0,1,0,0-.1.05.05,0,0,0-.05.05" fill="none" stroke="#323232" stroke-linecap="round" stroke-linejoin="round" stroke-width="1.5"/><path d="M3,12a.05.05,0,1,0,.05-.05A.05.05,0,0,0,3,12" fill="none" stroke="#323232" stroke-linecap="round" stroke-linejoin="round" stroke-width="1.5"/><path d="M3.681,15.425a.05.05,0,0,0,.05.05.05.05,0,1,0,0-.1.05.05,0,0,0-.05.05" fill="none" stroke="#323232" stroke-linecap="round" stroke-linejoin="round" stroke-width="1.5"/><rect width="24" height="24" fill="none"/></svg>