<svg id="Layer_3" data-name="Layer 3" xmlns="http://www.w3.org/2000/svg" viewBox="0 0 24 24"><title>pen-checkmark-circle_1</title><path d="M0,0H24V24H0Z" fill="none"/><path d="M0,0H24V24H0Z" fill="none"/><path d="M7.3,15.434,8.962,15.1a1.245,1.245,0,0,0,.637-.34l4.359-4.36a1.669,1.669,0,0,0,0-2.359h0a1.669,1.669,0,0,0-2.359,0L7.239,12.4a1.245,1.245,0,0,0-.34.637L6.566,14.7A.623.623,0,0,0,7.3,15.434Z" fill="none" stroke="#323232" stroke-linecap="round" stroke-linejoin="round" stroke-width="1.5"/><line x1="12.494" y1="11.866" x2="10.134" y2="9.506" fill="none" stroke="#323232" stroke-linecap="round" stroke-linejoin="round" stroke-width="1.5"/><circle cx="18.25" cy="17.25" r="3.75" fill="none" stroke="#323232" stroke-linecap="round" stroke-linejoin="round" stroke-width="1.5"/><path d="M14.84,18.8A8.495,8.495,0,1,1,19,11.5a8.569,8.569,0,0,1-.25,2.04" fill="none" stroke="#323232" stroke-linecap="round" stroke-linejoin="round" stroke-width="1.5"/><path d="M19.514,16.619,17.935,18.2l-.949-.948" fill="none" stroke="#323232" stroke-linecap="round" stroke-linejoin="round" stroke-width="1.5"/></svg>