<svg id="Layer_3" data-name="Layer 3" xmlns="http://www.w3.org/2000/svg" viewBox="0 0 24 24"><title>Artboard 45</title><path d="M0,24H24V0H0Z" fill="none"/><circle cx="18" cy="18" r="4" fill="none" stroke="#323232" stroke-linecap="round" stroke-linejoin="round" stroke-width="1.5"/><path d="M19.36,17.3,17.66,19l-1.022-1.019" fill="none" stroke="#323232" stroke-linecap="round" stroke-linejoin="round" stroke-width="1.5"/><path d="M10.706,14.737H8.263V12.294a.942.942,0,0,1,.277-.667l3.778-3.778a.943.943,0,0,1,1.335,0l1.5,1.5a.943.943,0,0,1,0,1.335L11.373,14.46A.942.942,0,0,1,10.706,14.737Z" fill="none" stroke="#323232" stroke-linecap="round" stroke-linejoin="round" stroke-width="1.5"/><path d="M19.517,14.3A8.527,8.527,0,1,0,14.3,19.517" fill="none" stroke="#323232" stroke-linecap="round" stroke-linejoin="round" stroke-width="1.5"/></svg>