<svg id="Layer_3" data-name="Layer 3" xmlns="http://www.w3.org/2000/svg" viewBox="0 0 24 24"><title>Artboard 41</title><path d="M17.379,4.621h0a2.122,2.122,0,0,1,0,3L7.392,17.608a2,2,0,0,1-.929.526L3,19l.866-3.463a2,2,0,0,1,.526-.929L14.38,4.621A2.121,2.121,0,0,1,17.379,4.621Z" fill="none" stroke="#323232" stroke-linecap="round" stroke-linejoin="round" stroke-width="1.5"/><path d="M15.5,9.5l-3-3" fill="none" stroke="#323232" stroke-linecap="round" stroke-linejoin="round" stroke-width="1.5"/><path d="M21,18l-1.094,1.094a3.094,3.094,0,0,1-4.375,0h0a3.1,3.1,0,0,0-4.376,0" fill="none" stroke="#323232" stroke-linecap="round" stroke-linejoin="round" stroke-width="1.5"/><rect width="24" height="24" fill="none"/></svg>