<svg id="Layer_3" data-name="Layer 3" xmlns="http://www.w3.org/2000/svg" viewBox="0 0 24 24"><title>pen-circle_1</title><line x1="14.395" y1="11.964" x2="12.036" y2="9.605" fill="none" stroke="#323232" stroke-linecap="round" stroke-linejoin="round" stroke-width="1.5"/><path d="M8.223,16.51l1.663-.333a1.245,1.245,0,0,0,.637-.34L16.057,10.3a1.667,1.667,0,0,0,0-2.359h0a1.667,1.667,0,0,0-2.359,0L8.163,13.477a1.245,1.245,0,0,0-.34.637L7.49,15.777A.623.623,0,0,0,8.223,16.51Z" fill="none" stroke="#323232" stroke-linecap="round" stroke-linejoin="round" stroke-width="1.5"/><path d="M18.364,5.636a9,9,0,1,1-12.728,0,9,9,0,0,1,12.728,0" fill="none" stroke="#323232" stroke-linecap="round" stroke-linejoin="round" stroke-width="1.5"/><path d="M0,0H24V24H0Z" fill="none"/></svg>