<svg id="Layer_3" data-name="Layer 3" xmlns="http://www.w3.org/2000/svg" viewBox="0 0 24 24"><path d="M24,24H0V0H24Z" fill="none"/><path d="M16,21.5l-2-2,2-2" fill="none" stroke="#323232" stroke-linecap="round" stroke-linejoin="round" stroke-width="1.5"/><path d="M20,19.5H14" fill="none" stroke="#323232" stroke-linecap="round" stroke-linejoin="round" stroke-width="1.5"/><path d="M11.159,14.8138H8.573v-2.586a1,1,0,0,1,.293-.707l4-4a1,1,0,0,1,1.414,0l1.586,1.586a1,1,0,0,1,0,1.414l-4,4A1,1,0,0,1,11.159,14.8138Z" fill="none" stroke="#323232" stroke-linecap="round" stroke-linejoin="round" stroke-width="1.5"/><path d="M20.05829,15.50347a8.998,8.998,0,1,0-10.0558,4.77" fill="none" stroke="#323232" stroke-linecap="round" stroke-linejoin="round" stroke-width="1.5"/></svg>