<svg id="Layer_3" data-name="Layer 3" xmlns="http://www.w3.org/2000/svg" viewBox="0 0 24 24"><title>Artboard 304</title><path d="M9,15l3.15-.389a1,1,0,0,0,.585-.285L20.366,6.7a2.165,2.165,0,0,0,0-3.061h0a2.165,2.165,0,0,0-3.061,0l-7.56,7.56a1,1,0,0,0-.283.566Z" fill="none" stroke="#323232" stroke-linecap="round" stroke-linejoin="round" stroke-width="1.5"/><path d="M13,4H7A4,4,0,0,0,3,8v9a4,4,0,0,0,4,4h9a4,4,0,0,0,4-4V11" fill="none" stroke="#323232" stroke-linecap="round" stroke-linejoin="round" stroke-width="1.5"/><rect width="24" height="24" fill="none"/></svg>