<svg id="Layer_3" data-name="Layer 3" xmlns="http://www.w3.org/2000/svg" viewBox="0 0 24 24"><rect x="3" y="3" width="8" height="18" rx="2" stroke-width="1.5" stroke="#323232" stroke-linecap="round" stroke-linejoin="round" fill="none"/><path d="M15,16.33333V6a3,3,0,0,1,3-3h0a3,3,0,0,1,3,3V16.33333a4,4,0,0,1-.8,2.4L18.8,20.6a1,1,0,0,1-1.6,0l-1.4-1.86667A4,4,0,0,1,15,16.33333Z" fill="none" stroke="#323232" stroke-linecap="round" stroke-linejoin="round" stroke-width="1.5"/><line x1="5.99996" y1="15.99988" x2="2.99996" y2="15.99988" fill="none" stroke="#323232" stroke-linecap="round" stroke-linejoin="round" stroke-width="1.5"/><line x1="5.99996" y1="11.99988" x2="2.99996" y2="11.99988" fill="none" stroke="#323232" stroke-linecap="round" stroke-linejoin="round" stroke-width="1.5"/><line x1="5.99996" y1="7.99988" x2="2.99996" y2="7.99988" fill="none" stroke="#323232" stroke-linecap="round" stroke-linejoin="round" stroke-width="1.5"/><path d="M0,0H24V24H0Z" fill="none"/></svg>