<svg id="Layer_3" data-name="Layer 3" xmlns="http://www.w3.org/2000/svg" viewBox="0 0 24 24"><title>pen-edit-create-circle</title><path d="M10.261,16.035a1,1,0,0,1-.708.292H8.039a.5.5,0,0,1-.5-.5V14.312a1,1,0,0,1,.292-.706l5.925-5.93a1.723,1.723,0,0,1,2.434,0h0a1.72,1.72,0,0,1,0,2.434Z" fill="none" stroke="#323232" stroke-linecap="round" stroke-linejoin="round" stroke-width="1.5"/><path d="M11.55,9.89l2.43,2.43" fill="none" stroke="#323232" stroke-linecap="round" stroke-linejoin="round" stroke-width="1.5"/><path d="M15.7,10.6l.9.9h0a1.216,1.216,0,0,1,0,1.718l-1.09,1.089" fill="none" stroke="#323232" stroke-linecap="round" stroke-linejoin="round" stroke-width="1.5"/><circle cx="12" cy="12" r="9" fill="none" stroke="#323232" stroke-linecap="round" stroke-linejoin="round" stroke-width="1.5"/><rect width="24" height="24" fill="none"/></svg>