<svg id="Layer_3" data-name="Layer 3" xmlns="http://www.w3.org/2000/svg" viewBox="0 0 24 24"><title>Artboard 274</title><path d="M21,13v4a4,4,0,0,1-4,4H7a4,4,0,0,1-4-4V7A4,4,0,0,1,7,3h7" fill="none" stroke="#323232" stroke-linecap="round" stroke-linejoin="round" stroke-width="1.5"/><path d="M13,13.111l3.152-.389a1,1,0,0,0,.583-.285l4.631-4.631a2.165,2.165,0,0,0,0-3.061h0a2.165,2.165,0,0,0-3.061,0l-4.56,4.56a1,1,0,0,0-.283.566Z" fill="none" stroke="#323232" stroke-linecap="round" stroke-linejoin="round" stroke-width="1.5"/><path d="M3,12.556,6.892,8.663a1.887,1.887,0,0,1,2.667,0h0a1.887,1.887,0,0,1,0,2.667L8.333,12.556l.108-.108L7.108,13.781a1.885,1.885,0,0,0,0,2.667h0a1.887,1.887,0,0,0,2.667,0L11,15.222" fill="none" stroke="#323232" stroke-linecap="round" stroke-linejoin="round" stroke-width="1.5"/><rect width="24" height="24" fill="none"/></svg>