<svg id="Layer_3" data-name="Layer 3" xmlns="http://www.w3.org/2000/svg" viewBox="0 0 24 24"><title>pencil-cross-delete</title><path d="M14.737,18.862,13.864,13.9a1.5,1.5,0,0,0-1.48-1.24l-3.712.006A1.5,1.5,0,0,0,7.2,13.892l-.936,4.97" fill="none" stroke="#323232" stroke-linecap="round" stroke-linejoin="round" stroke-width="1.5"/><path d="M14.84,18.8a3.66021,3.66021,0,0,1-.34-1.55,3.75137,3.75137,0,0,1,3.75-3.75,2.73705,2.73705,0,0,1,.5.04,3.74659,3.74659,0,1,1-3.91,5.26Z" fill="none" stroke="#323232" stroke-linecap="round" stroke-linejoin="round" stroke-width="1.5"/><path d="M8.761,12.66v-.296C8.761,9.954,9.54,8,10.5,8s1.739,1.954,1.739,4.364v.296" fill="none" stroke="#323232" stroke-linecap="round" stroke-linejoin="round" stroke-width="1.5"/><path d="M14.84,18.8A8.49457,8.49457,0,1,1,19,11.5a8.56892,8.56892,0,0,1-.25,2.04" fill="none" stroke="#323232" stroke-linecap="round" stroke-linejoin="round" stroke-width="1.5"/><path d="M18.99905,16.5,17.501,18" fill="none" stroke="#323232" stroke-linecap="round" stroke-linejoin="round" stroke-width="1.5"/><path d="M17.5,16.501l1.5,1.4981" fill="none" stroke="#323232" stroke-linecap="round" stroke-linejoin="round" stroke-width="1.5"/><path d="M24,0H0V24H24Z" fill="none"/></svg>