<svg id="Layer_3" data-name="Layer 3" xmlns="http://www.w3.org/2000/svg" viewBox="0 0 24 24"><title>pencil-ruler-square</title><path d="M6.9,8.165,8.115,6.951a1,1,0,0,1,1.413,0L17.1,14.516a1,1,0,0,1,0,1.413l-1.216,1.215a1,1,0,0,1-1.412,0L6.9,9.579A1,1,0,0,1,6.9,8.165Z" fill="none" stroke="#323232" stroke-linecap="round" stroke-linejoin="round" stroke-width="1.5"/><rect x="3" y="3" width="18" height="18" rx="5" stroke-width="1.5" stroke="#323232" stroke-linecap="round" stroke-linejoin="round" fill="none"/><path d="M12.218,9.639,15.13,6.728a1,1,0,0,1,1.413,0l.772.772a1,1,0,0,1,0,1.414L14.4,11.823" fill="none" stroke="#323232" stroke-linecap="round" stroke-linejoin="round" stroke-width="1.5"/><path d="M9.589,12.265l-2.412,2.41a1,1,0,0,0-.261.457L6.65,16.158a1.01,1.01,0,0,0,1.232,1.229l1.025-.267a1,1,0,0,0,.454-.26l2.414-2.412" fill="none" stroke="#323232" stroke-linecap="round" stroke-linejoin="round" stroke-width="1.5"/><rect width="24" height="24" fill="none"/></svg>