<svg id="Layer_3" data-name="Layer 3" xmlns="http://www.w3.org/2000/svg" viewBox="0 0 24 24"><title>pencil-ruler-grid</title><line x1="14.001" y1="12.081" x2="16.866" y2="12.081" fill="none" stroke="#323232" stroke-linecap="round" stroke-linejoin="round" stroke-width="1.5"/><line x1="14.001" y1="17.811" x2="16.82" y2="17.81" fill="none" stroke="#323232" stroke-linecap="round" stroke-linejoin="round" stroke-width="1.5"/><line x1="14.001" y1="14.946" x2="15.91" y2="14.945" fill="none" stroke="#323232" stroke-linecap="round" stroke-linejoin="round" stroke-width="1.5"/><line x1="14.001" y1="9.216" x2="15.91" y2="9.216" fill="none" stroke="#323232" stroke-linecap="round" stroke-linejoin="round" stroke-width="1.5"/><line x1="14.001" y1="6.423" x2="16.82" y2="6.423" fill="none" stroke="#323232" stroke-linecap="round" stroke-linejoin="round" stroke-width="1.5"/><rect x="14" y="3" width="6" height="18" rx="1" stroke-width="1.5" stroke="#323232" stroke-linecap="round" stroke-linejoin="round" fill="none"/><path d="M4,6.513H9.03a1.462,1.462,0,0,1,1.46,1.461V12" fill="none" stroke="#323232" stroke-linecap="round" stroke-linejoin="round" stroke-width="1.5"/><path d="M8,5.027,8,17.856a2,2,0,0,1-.229.929l-.881,1.68a1,1,0,0,1-1.772,0l-.881-1.68A2,2,0,0,1,4,17.856L4,5.034A2.006,2.006,0,0,1,6,3.027H6a2,2,0,0,1,2,2Z" fill="none" stroke="#323232" stroke-linecap="round" stroke-linejoin="round" stroke-width="1.5"/><path d="M0,0H24V24H0Z" fill="none"/></svg>