<svg id="Layer_3" data-name="Layer 3" xmlns="http://www.w3.org/2000/svg" viewBox="0 0 24 24"><title>pencil-sharpener</title><path d="M9,3h6a0,0,0,0,1,0,0V15a3,3,0,0,1-3,3h0a3,3,0,0,1-3-3V3A0,0,0,0,1,9,3Z" fill="none" stroke="#323232" stroke-linecap="round" stroke-linejoin="round" stroke-width="1.5"/><path d="M4,17.25V18a3,3,0,0,0,3,3H17a3,3,0,0,0,3-3v-.75A3.75,3.75,0,0,0,19.25,15h0a3.75,3.75,0,0,1-.75-2.25v-1.5A3.75,3.75,0,0,1,19.25,9h0A3.75,3.75,0,0,0,20,6.75V6a3,3,0,0,0-3-3H7A3,3,0,0,0,4,6v.75A3.75,3.75,0,0,0,4.75,9h0a3.75,3.75,0,0,1,.75,2.25v1.5A3.75,3.75,0,0,1,4.75,15h0A3.75,3.75,0,0,0,4,17.25Z" fill="none" stroke="#323232" stroke-linecap="round" stroke-linejoin="round" stroke-width="1.5"/><path d="M12.035,11.965a.049.049,0,1,1-.07,0h0a.048.048,0,0,1,.07,0" fill="none" stroke="#323232" stroke-linecap="round" stroke-linejoin="round" stroke-width="1.5"/><path d="M0,0H24V24H0Z" fill="none"/></svg>