<?xml version="1.0" encoding="utf-8"?>
<!-- Generator: Adobe Illustrator 23.0.2, SVG Export Plug-In . SVG Version: 6.00 Build 0)  -->
<svg version="1.1" xmlns="http://www.w3.org/2000/svg" xmlns:xlink="http://www.w3.org/1999/xlink" x="0px" y="0px" width="24px"
	 height="24px" viewBox="0 0 24 24" enable-background="new 0 0 24 24" xml:space="preserve">
<g id="Layer_2" display="none">
</g>
<g id="Layer_3" display="none">
</g>
<g id="Layer_4" display="none">
</g>
<g id="Layer_1" display="none">
</g>
<g id="Layer_5">
	<g>
		<g>
			
				<path fill="none" stroke="#323232" stroke-width="1.5" stroke-linecap="round" stroke-linejoin="round" stroke-miterlimit="10" d="
				M18.965,16.61l-1.173-1.173c-0.586-0.586-1.536-0.586-2.121,0l-0.922,0.922c-0.206,0.206-0.518,0.275-0.784,0.158
				c-1.336-0.585-2.656-1.472-3.833-2.649c-1.172-1.172-2.056-2.486-2.642-3.817C7.368,9.776,7.439,9.453,7.652,9.24l0.826-0.826
				c0.671-0.671,0.671-1.62,0.085-2.206L7.39,5.035c-0.781-0.781-2.047-0.781-2.828,0L3.91,5.686c-0.741,0.741-1.05,1.81-0.85,2.87
				c0.494,2.613,2.012,5.474,4.461,7.923s5.31,3.967,7.923,4.461c1.06,0.2,2.129-0.109,2.87-0.85l0.651-0.651
				C19.746,18.658,19.746,17.392,18.965,16.61z"/>
			
				<path fill="none" stroke="#323232" stroke-width="1.5" stroke-linecap="round" stroke-linejoin="round" stroke-miterlimit="10" d="
				M13,6.991c1.031-0.014,2.067,0.368,2.854,1.155"/>
			<g>
				
					<path fill="none" stroke="#323232" stroke-width="1.5" stroke-linecap="round" stroke-linejoin="round" stroke-miterlimit="10" d="
					M18.682,5.318C17.113,3.749,15.056,2.964,13,2.964"/>
			</g>
			
				<path fill="none" stroke="#323232" stroke-width="1.5" stroke-linecap="round" stroke-linejoin="round" stroke-miterlimit="10" d="
				M17.009,11c0.014-1.031-0.368-2.067-1.155-2.854"/>
			
				<path fill="none" stroke="#323232" stroke-width="1.5" stroke-linecap="round" stroke-linejoin="round" stroke-miterlimit="10" d="
				M18.682,5.318c1.569,1.569,2.354,3.626,2.354,5.682"/>
		</g>
		<rect fill="none" width="24" height="24"/>
	</g>
</g>
</svg>
