<?xml version="1.0" encoding="utf-8"?>
<!-- Generator: Adobe Illustrator 24.0.2, SVG Export Plug-In . SVG Version: 6.00 Build 0)  -->
<svg version="1.1" id="Layer_1" xmlns="http://www.w3.org/2000/svg" xmlns:xlink="http://www.w3.org/1999/xlink" x="0px" y="0px"
	 width="24px" height="24px" viewBox="0 0 24 24" enable-background="new 0 0 24 24" xml:space="preserve">
<g>
	<g>
		<path fill="none" stroke="#323232" stroke-width="1.5" stroke-linecap="round" stroke-linejoin="round" d="M6,19H5
			c-1.105,0-2-0.895-2-2V7.186c0-1.105,0.895-2,2-2h1"/>
		<path fill="none" stroke="#323232" stroke-width="1.5" stroke-linecap="round" stroke-linejoin="round" d="M12.263,19H19
			c1.105,0,2-0.895,2-2V7.186c0-1.105-0.895-2-2-2h-6.737"/>
		<path fill="none" stroke="#323232" stroke-width="1.5" stroke-linecap="round" stroke-linejoin="round" d="M10.263,21H8
			c-1.105,0-2-0.895-2-2V5c0-1.105,0.895-2,2-2h2.263c1.105,0,2,0.895,2,2v14C12.263,20.105,11.368,21,10.263,21z"/>
		
			<line fill="none" stroke="#323232" stroke-width="1.5" stroke-linecap="round" stroke-linejoin="round" x1="15" y1="9" x2="18" y2="9"/>
		<g>
			<path fill="none" stroke="#323232" stroke-width="1.5" stroke-linecap="round" stroke-linejoin="round" d="M15.05,12.4
				c0.028,0,0.05,0.022,0.05,0.05s-0.022,0.05-0.05,0.05S15,12.478,15,12.45C15,12.423,15.022,12.4,15.05,12.4"/>
			<g>
				<path fill="none" stroke="#323232" stroke-width="1.5" stroke-linecap="round" stroke-linejoin="round" d="M15.05,14.9
					c0.028,0,0.05,0.022,0.05,0.05S15.078,15,15.05,15S15,14.978,15,14.95C15,14.923,15.022,14.9,15.05,14.9"/>
			</g>
		</g>
		<path fill="none" stroke="#323232" stroke-width="1.5" stroke-linecap="round" stroke-linejoin="round" d="M17.95,12.4
			c0.028,0,0.05,0.022,0.05,0.05s-0.022,0.05-0.05,0.05s-0.05-0.022-0.05-0.05C17.899,12.422,17.922,12.4,17.95,12.4"/>
		<path fill="none" stroke="#323232" stroke-width="1.5" stroke-linecap="round" stroke-linejoin="round" d="M17.95,14.9
			c0.028,0,0.05,0.022,0.05,0.05S17.978,15,17.95,15s-0.05-0.022-0.05-0.05C17.899,14.922,17.922,14.9,17.95,14.9"/>
	</g>
	<rect fill="none" width="24" height="24"/>
</g>
</svg>
