<?xml version="1.0" encoding="utf-8"?>
<!-- Generator: Adobe Illustrator 23.1.0, SVG Export Plug-In . SVG Version: 6.00 Build 0)  -->
<svg version="1.1" id="icons" xmlns="http://www.w3.org/2000/svg" xmlns:xlink="http://www.w3.org/1999/xlink" x="0px" y="0px"
	 width="24px" height="24px" viewBox="0 0 24 24" enable-background="new 0 0 24 24" xml:space="preserve">
<g>
	<rect fill="none" width="24" height="24"/>
	<g>
		
			<circle fill="none" stroke="#323232" stroke-width="1.5" stroke-linecap="round" stroke-linejoin="round" stroke-miterlimit="10" cx="12" cy="12" r="10"/>
		<g>
			<path fill="none" stroke="#323232" stroke-width="1.5" stroke-linecap="round" stroke-linejoin="round" d="M9.651,14.346
				c2.183,2.184,4.949,3.576,6.594,1.938c0,0,0.399-0.399,0.399-0.399c0.532-0.531,0.458-1.411-0.16-1.84
				c-0.389-0.271-0.807-0.562-1.269-0.887c-0.478-0.336-1.133-0.283-1.548,0.128l-0.451,0.448c-0.559-0.354-1.112-0.809-1.626-1.322
				l-0.002-0.002c-0.513-0.513-0.968-1.067-1.322-1.626l0.448-0.451c0.412-0.414,0.463-1.07,0.128-1.548
				c-0.326-0.462-0.617-0.88-0.887-1.269c-0.429-0.617-1.309-0.691-1.84-0.16c0,0-0.399,0.399-0.399,0.399
				C6.079,9.4,7.47,12.164,9.653,14.349"/>
		</g>
	</g>
</g>
</svg>
