<svg id="Layer_3" data-name="Layer 3" xmlns="http://www.w3.org/2000/svg" viewBox="0 0 24 24"><title>phone-wireless-payments</title><path d="M0,0H24V24H0Z" fill="none"/><path d="M10.111,11h3.778a2,2,0,0,1,2,2v7a2,2,0,0,1-2,2H10.111a2,2,0,0,1-2-2V13A2,2,0,0,1,10.111,11Z" fill="none" stroke="#323232" stroke-linecap="round" stroke-linejoin="round" stroke-width="1.5"/><path d="M11.25,19.75h1.5" fill="none" stroke="#323232" stroke-linecap="round" stroke-linejoin="round" stroke-width="1.5"/><path d="M9,6.243a4.242,4.242,0,0,1,6,0" fill="none" stroke="#323232" stroke-linecap="round" stroke-linejoin="round" stroke-width="1.5"/><path d="M10.5,8.243a2.122,2.122,0,0,1,3,0" fill="none" stroke="#323232" stroke-linecap="round" stroke-linejoin="round" stroke-width="1.5"/><path d="M8.111,13.5H7a2,2,0,0,1-2-2v-8a2,2,0,0,1,2-2H17a2,2,0,0,1,2,2v8a2,2,0,0,1-2,2H15.889" fill="none" stroke="#323232" stroke-linecap="round" stroke-linejoin="round" stroke-width="1.5"/></svg>