<svg id="Layer_3" data-name="Layer 3" xmlns="http://www.w3.org/2000/svg" viewBox="0 0 24 24"><title>phone-mobile-book</title><path d="M8.5,3V4.8a.557.557,0,0,0,.5.6h4a.557.557,0,0,0,.5-.6V3" fill="none" stroke="#323232" stroke-linecap="round" stroke-linejoin="round" stroke-width="1.5"/><path d="M12,21H7a2,2,0,0,1-2-2V5A2,2,0,0,1,7,3h8a2,2,0,0,1,2,2V9" fill="none" stroke="#323232" stroke-linecap="round" stroke-linejoin="round" stroke-width="1.5"/><path d="M16,13.024a7.039,7.039,0,0,0-3.243-.933A.709.709,0,0,0,12,12.8V17.69a.718.718,0,0,0,.682.708A6.564,6.564,0,0,1,16,19.346a6.564,6.564,0,0,1,3.318-.948A.718.718,0,0,0,20,17.69V12.8a.709.709,0,0,0-.757-.712A7.039,7.039,0,0,0,16,13.024Z" fill="none" stroke="#323232" stroke-linecap="round" stroke-linejoin="round" stroke-width="1.5"/><path d="M16,13.024v6.322" fill="none" stroke="#323232" stroke-linecap="round" stroke-linejoin="round" stroke-width="1.5"/><path d="M0,0H24V24H0Z" fill="none"/></svg>