<?xml version="1.0" encoding="utf-8"?>
<!-- Generator: Adobe Illustrator 24.0.2, SVG Export Plug-In . SVG Version: 6.00 Build 0)  -->
<svg version="1.1" id="Layer_1" xmlns="http://www.w3.org/2000/svg" xmlns:xlink="http://www.w3.org/1999/xlink" x="0px" y="0px"
	 width="24px" height="24px" viewBox="0 0 24 24" style="enable-background:new 0 0 24 24;" xml:space="preserve">
<style type="text/css">
	.st0{fill:none;stroke:#323232;stroke-width:1.5;stroke-linecap:round;stroke-linejoin:round;}
	.st1{fill:none;}
</style>
<path class="st0" d="M13.6,10.4c0.9,0.9,0.9,2.3,0,3.2s-2.3,0.9-3.2,0s-0.9-2.3,0-3.2S12.7,9.5,13.6,10.4"/>
<path class="st1" d="M0,0h24v24H0V0z"/>
<path class="st0" d="M13.6,3.1C13.1,3.1,12.5,3,12,3s-1.1,0.1-1.6,0.1"/>
<path class="st0" d="M20.5,9c0.4,1,0.6,2,0.6,3.1"/>
<path class="st0" d="M18.9,6.2c-0.7-0.8-1.5-1.5-2.4-2"/>
<path class="st0" d="M7.5,4.2c-0.9,0.5-1.7,1.2-2.4,2"/>
<path class="st0" d="M2.9,12.1C2.9,11,3.1,9.9,3.5,9"/>
<path class="st0" d="M7.5,19.9c0.9,0.5,1.9,0.9,3,1.1"/>
<path class="st0" d="M3.5,15.2c0.4,1,0.9,1.9,1.6,2.7"/>
<path class="st0" d="M13.6,21c1.1-0.2,2.1-0.6,3-1.1"/>
<path class="st0" d="M18.9,17.9c0.7-0.8,1.2-1.7,1.6-2.7"/>
</svg>
