<svg id="Layer_3" data-name="Layer 3" xmlns="http://www.w3.org/2000/svg" viewBox="0 0 24 24"><title>Artboard 10</title><path d="M3,16V8A5,5,0,0,1,8,3h8a5,5,0,0,1,5,5v8a5,5,0,0,1-5,5H8A5,5,0,0,1,3,16Z" fill="none" stroke="#323232" stroke-linecap="round" stroke-linejoin="round" stroke-width="1.5"/><path d="M15.854,8.854a.5.5,0,1,1,0-.708.5.5,0,0,1,0,.708" fill="none" stroke="#323232" stroke-linecap="round" stroke-linejoin="round" stroke-width="1.5"/><path d="M13.89,21A9.725,9.725,0,0,0,14,19.624,9.624,9.624,0,0,0,4.376,10,9.483,9.483,0,0,0,3,10.11" fill="none" stroke="#323232" stroke-linecap="round" stroke-linejoin="round" stroke-width="1.5"/><path d="M24,24H0V0H24Z" fill="none"/></svg>