<svg id="Layer_3" data-name="Layer 3" xmlns="http://www.w3.org/2000/svg" viewBox="0 0 24 24"><line x1="5.84353" y1="9.80476" x2="4.75" y2="15.3065" fill="none" stroke="#323232" stroke-linecap="round" stroke-linejoin="round" stroke-width="1.5"/><path d="M16.57765,9.78765l1.9542.0329a1,1,0,0,1,.96056,1.21128l-.31162,1.44057a1,1,0,0,1-.99423.78843l-2.35166-.03958" fill="none" stroke="#323232" stroke-linecap="round" stroke-linejoin="round" stroke-width="1.5"/><line x1="16.57765" y1="9.78765" x2="15.39168" y2="15.27021" fill="none" stroke="#323232" stroke-linecap="round" stroke-linejoin="round" stroke-width="1.5"/><line x1="11.32816" y1="9.80476" x2="10.6433" y2="13.25037" fill="none" stroke="#323232" stroke-linecap="round" stroke-linejoin="round" stroke-width="1.5"/><line x1="11.74778" y1="7.6935" x2="11.32816" y2="9.80476" fill="none" stroke="#323232" stroke-linecap="round" stroke-linejoin="round" stroke-width="1.5"/><path d="M5.84353,9.80476H7.798a1,1,0,0,1,.98082,1.195l-.28734,1.44561a1,1,0,0,1-.98081.805h-2.352" fill="none" stroke="#323232" stroke-linecap="round" stroke-linejoin="round" stroke-width="1.5"/><path d="M13.4997,13.25037l.44735-2.25066a1,1,0,0,0-.98082-1.195H11.32816" fill="none" stroke="#323232" stroke-linecap="round" stroke-linejoin="round" stroke-width="1.5"/><ellipse cx="12" cy="12" rx="10.67851" ry="9" fill="none" stroke="#323232" stroke-linecap="round" stroke-linejoin="round" stroke-width="1.5"/><path d="M0,24V0H24V24Z" fill="none"/></svg>