<svg id="Layer_3" data-name="Layer 3" xmlns="http://www.w3.org/2000/svg" viewBox="0 0 24 24"><title>physics</title><path d="M14.728,14.728c.208-.588.4-1.2.571-1.844,1.326-4.946.922-9.352-.9-9.84a2.366,2.366,0,0,0-2.145.929" fill="none" stroke="#323232" stroke-linecap="round" stroke-linejoin="round" stroke-width="1.5"/><path d="M11.745,20.027a2.367,2.367,0,0,1-2.145.929c-1.822-.488-2.225-4.894-.9-9.84.17-.64.363-1.256.571-1.844" fill="none" stroke="#323232" stroke-linecap="round" stroke-linejoin="round" stroke-width="1.5"/><path d="M11,15.726c.614-.114,1.244-.255,1.883-.426,4.946-1.326,8.56-3.878,8.072-5.7-.174-.651-.856-1.118-1.877-1.392" fill="none" stroke="#323232" stroke-linecap="round" stroke-linejoin="round" stroke-width="1.5"/><path d="M4.921,15.793c-1.021-.275-1.7-.742-1.877-1.393-.488-1.822,3.126-4.374,8.072-5.7.639-.171,1.268-.312,1.883-.426" fill="none" stroke="#323232" stroke-linecap="round" stroke-linejoin="round" stroke-width="1.5"/><path d="M8.274,13c.406.475.843.949,1.311,1.417,3.621,3.621,7.637,5.475,8.971,4.141a2.367,2.367,0,0,0,.267-2.323" fill="none" stroke="#323232" stroke-linecap="round" stroke-linejoin="round" stroke-width="1.5"/><path d="M5.177,7.766a2.367,2.367,0,0,1,.267-2.323c1.334-1.334,5.35.52,8.971,4.141.468.468.905.943,1.311,1.417" fill="none" stroke="#323232" stroke-linecap="round" stroke-linejoin="round" stroke-width="1.5"/><path d="M12.25,12a.25.25,0,1,1-.25-.25.25.25,0,0,1,.25.25v0" fill="none" stroke="#323232" stroke-linecap="round" stroke-linejoin="round" stroke-width="1.5"/><path d="M0,0H24V24H0Z" fill="none"/></svg>