<svg id="Layer_3" data-name="Layer 3" xmlns="http://www.w3.org/2000/svg" viewBox="0 0 24 24"><title>physics-circle</title><ellipse cx="12" cy="12" rx="2.641" ry="6.163" transform="translate(-4.392 16.392) rotate(-60)" stroke-width="1.5" stroke="#323232" stroke-linecap="round" stroke-linejoin="round" fill="none"/><ellipse cx="12" cy="12" rx="6.163" ry="2.641" transform="translate(-4.392 7.608) rotate(-30)" stroke-width="1.5" stroke="#323232" stroke-linecap="round" stroke-linejoin="round" fill="none"/><path d="M14.119,15.67c-.482,1.51-1.25,2.493-2.119,2.493s-1.637-.983-2.119-2.493" fill="none" stroke="#323232" stroke-linecap="round" stroke-linejoin="round" stroke-width="1.5"/><path d="M9.881,8.33c.482-1.51,1.25-2.493,2.119-2.493s1.637.983,2.119,2.493" fill="none" stroke="#323232" stroke-linecap="round" stroke-linejoin="round" stroke-width="1.5"/><circle cx="12" cy="12" r="9" fill="none" stroke="#323232" stroke-linecap="round" stroke-linejoin="round" stroke-width="1.5"/><path d="M12.05,12a.05.05,0,1,1-.05-.05.05.05,0,0,1,.05.05h0" fill="none" stroke="#323232" stroke-linecap="round" stroke-linejoin="round" stroke-width="1.5"/><path d="M0,0H24V24H0Z" fill="none"/></svg>