<svg id="Layer_3" data-name="Layer 3" xmlns="http://www.w3.org/2000/svg" viewBox="0 0 24 24"><path d="M24,24H0V0H24Z" fill="none"/><path d="M21,17a4,4,0,0,1-4,4H7a4,4,0,0,1-4-4V7A4,4,0,0,1,7,3H17a4,4,0,0,1,4,4Z" fill="none" stroke="#323232" stroke-linecap="round" stroke-linejoin="round" stroke-width="1.5"/><path d="M3,13l1.29516-1.29517a2.411,2.411,0,0,1,3.40967,0L12,16" fill="none" stroke="#323232" stroke-linecap="round" stroke-linejoin="round" stroke-width="1.5"/><path d="M7.003,21l6.29517-6.29517a2.411,2.411,0,0,1,3.40966,0L20.647,18.644" fill="none" stroke="#323232" stroke-linecap="round" stroke-linejoin="round" stroke-width="1.5"/></svg>