<?xml version="1.0" encoding="utf-8"?>
<!-- Generator: Adobe Illustrator 24.0.2, SVG Export Plug-In . SVG Version: 6.00 Build 0)  -->
<svg version="1.1" id="Layer_3" xmlns="http://www.w3.org/2000/svg" xmlns:xlink="http://www.w3.org/1999/xlink" x="0px" y="0px"
	 width="24px" height="24px" viewBox="0 0 24 24" enable-background="new 0 0 24 24" xml:space="preserve">
<g>
	<g>
		<g>
			<path fill="none" d="M0,0h24v24H0V0z"/>
		</g>
	</g>
	<g>
		<path fill="none" stroke="#323232" stroke-width="1.5" stroke-linecap="round" stroke-linejoin="round" d="M17.032,12.467
			c0.018,0.018,0.018,0.047,0,0.065s-0.047,0.018-0.065,0s-0.018-0.047,0-0.065S17.015,12.45,17.032,12.467"/>
		<path fill="none" stroke="#323232" stroke-width="1.5" stroke-linecap="round" stroke-linejoin="round" d="M14.662,7.478
			C14.873,7.027,15,6.53,15,6c0-1.933-1.567-3.5-3.5-3.5C9.567,2.5,8,4.067,8,6c0,0.623,0.176,1.2,0.462,1.706"/>
		<path fill="none" stroke="#323232" stroke-width="1.5" stroke-linecap="round" stroke-linejoin="round" d="M2.288,10.5
			C1.819,10.773,1.5,11.276,1.5,11.858c0,0.871,0.706,1.577,1.577,1.577H4"/>
		<path fill="none" stroke="#323232" stroke-width="1.5" stroke-linecap="round" stroke-linejoin="round" d="M18.5,6.5v2.554
			c0.718,0.648,1.288,1.456,1.626,2.381H21c0.552,0,1,0.448,1,1V15.5c0,0.552-0.448,1-1,1h-1.311
			c-0.525,0.908-1.283,1.664-2.189,2.191V20.5c0,0.552-0.448,1-1,1h-2c-0.552,0-1-0.448-1-1v-1H10v0.868c0,0.552-0.448,1-1,1H7
			c-0.552,0-1-0.448-1-1v-2.405c-1.225-1.099-2-2.688-2-4.463c0-3.314,2.686-6,6-6h4.526c0.429,0,0.845-0.141,1.187-0.399
			C16.212,6.725,16.828,6.5,17.5,6.5H18.5z"/>
	</g>
</g>
</svg>
