<svg id="Layer_3" data-name="Layer 3" xmlns="http://www.w3.org/2000/svg" viewBox="0 0 24 24"><title>pill-clock-square</title><path d="M3,10V8A5,5,0,0,1,8,3h8a5,5,0,0,1,5,5v8a5,5,0,0,1-5,5H13" fill="none" stroke="#323232" stroke-linecap="round" stroke-linejoin="round" stroke-width="1.5"/><rect x="10.544" y="7.102" width="7.913" height="4.796" rx="2.398" transform="translate(10.964 -7.471) rotate(45)" stroke-width="1.5" stroke="#323232" stroke-linecap="round" stroke-linejoin="round" fill="none"/><line x1="16.196" y1="7.804" x2="12.804" y2="11.196" fill="none" stroke="#323232" stroke-linecap="round" stroke-linejoin="round" stroke-width="1.5"/><path d="M6.5,21A4.5,4.5,0,1,1,11,16.5,4.5,4.5,0,0,1,6.5,21" fill="none" stroke="#323232" stroke-linecap="round" stroke-linejoin="round" stroke-width="1.5"/><path d="M6.393,14.983v1.758l1.382.843" fill="none" stroke="#323232" stroke-linecap="round" stroke-linejoin="round" stroke-width="1.5"/><path d="M0,0H24V24H0Z" fill="none"/></svg>