<?xml version="1.0" encoding="utf-8"?>
<!-- Generator: Adobe Illustrator 24.0.2, SVG Export Plug-In . SVG Version: 6.00 Build 0)  -->
<svg version="1.1" id="Layer_1" xmlns="http://www.w3.org/2000/svg" xmlns:xlink="http://www.w3.org/1999/xlink" x="0px" y="0px"
	 width="24px" height="24px" viewBox="0 0 24 24" enable-background="new 0 0 24 24" xml:space="preserve">
<g>
	<g>
		
			<line fill="none" stroke="#323232" stroke-width="1.5" stroke-linecap="round" stroke-linejoin="round" x1="10.5" y1="18.5" x2="13.5" y2="21.5"/>
		
			<line fill="none" stroke="#323232" stroke-width="1.5" stroke-linecap="round" stroke-linejoin="round" x1="10.5" y1="21.5" x2="13.5" y2="18.5"/>
		<path fill="none" stroke="#323232" stroke-width="1.5" stroke-linecap="round" stroke-linejoin="round" d="M16,20h4"/>
		<path fill="none" stroke="#323232" stroke-width="1.5" stroke-linecap="round" stroke-linejoin="round" d="M4,20h4"/>
		<path fill="none" stroke="#323232" stroke-width="1.5" stroke-linecap="round" stroke-linejoin="round" d="M13.061,6.814
			c0.586,0.586,0.586,1.536,0,2.121s-1.536,0.586-2.121,0c-0.586-0.586-0.586-1.536,0-2.121C11.525,6.228,12.475,6.228,13.061,6.814
			"/>
		<path fill="none" stroke="#323232" stroke-width="1.5" stroke-linecap="round" stroke-linejoin="round" d="M17.093,7.996
			L17.093,7.996c0,1.384-0.615,2.695-1.677,3.581l-1.67,1.392c-0.666,0.555-1.163,1.284-1.437,2.107L12,16l-0.308-0.925
			c-0.274-0.822-0.772-1.552-1.437-2.107l-1.67-1.392C7.521,10.69,6.907,9.379,6.907,7.996l0,0v0.026C6.907,4.844,9.538,3,12,3
			s5.093,1.844,5.093,5.022"/>
	</g>
	<path fill="none" d="M0,0h24v24H0V0z"/>
</g>
</svg>
