<svg id="Layer_3" data-name="Layer 3" xmlns="http://www.w3.org/2000/svg" viewBox="0 0 24 24"><title>Artboard 16</title><path d="M15.029,7.5a.5.5,0,0,1,.5.5v.624a.5.5,0,0,1-.225.42l-1.653,1.1V11.92l1.653,1.1a.506.506,0,0,1,.225.42v.624a.5.5,0,0,1-.5.5H8.971a.5.5,0,0,1-.5-.5v-.624a.5.5,0,0,1,.225-.42l1.653-1.1V10.149l-1.653-1.1a.506.506,0,0,1-.225-.42V8a.5.5,0,0,1,.5-.5h6.058" fill="none" stroke="#323232" stroke-linecap="round" stroke-linejoin="round" stroke-width="1.5"/><path d="M12,17.5V14.571" fill="none" stroke="#323232" stroke-linecap="round" stroke-linejoin="round" stroke-width="1.5"/><rect x="3" y="3" width="18" height="18" rx="5" stroke-width="1.5" stroke="#323232" stroke-linecap="round" stroke-linejoin="round" fill="none"/><rect width="24" height="24" fill="none"/></svg>