<?xml version="1.0" encoding="utf-8"?>
<!-- Generator: Adobe Illustrator 24.0.2, SVG Export Plug-In . SVG Version: 6.00 Build 0)  -->
<svg version="1.1" id="Layer_1" xmlns="http://www.w3.org/2000/svg" xmlns:xlink="http://www.w3.org/1999/xlink" x="0px" y="0px"
	 width="24px" height="24px" viewBox="0 0 24 24" enable-background="new 0 0 24 24" xml:space="preserve">
<g>
	<g>
		<path fill="none" stroke="#323232" stroke-width="1.5" stroke-linecap="round" stroke-linejoin="round" d="M12.354,6.771
			c0.195,0.195,0.195,0.512,0,0.707c-0.195,0.195-0.512,0.195-0.707,0c-0.195-0.195-0.195-0.512,0-0.707
			C11.842,6.576,12.158,6.576,12.354,6.771"/>
		<path fill="none" stroke="#323232" stroke-width="1.5" stroke-linecap="round" stroke-linejoin="round" d="M16.31,7.227
			L16.31,7.227c0,1.171-0.52,2.28-1.419,3.03l-1.413,1.178c-0.563,0.47-0.984,1.087-1.216,1.783L12,14l-0.261-0.783
			c-0.232-0.695-0.653-1.313-1.216-1.783l-1.413-1.178c-0.9-0.75-1.419-1.859-1.419-3.03l0,0v0.022C7.69,4.56,9.917,3,12,3
			s4.31,1.56,4.31,4.249"/>
		<g>
			<path fill="none" stroke="#323232" stroke-width="1.5" stroke-linecap="round" stroke-linejoin="round" d="M6.001,12
				c-0.953,0-1.774,0.673-1.961,1.608l-1,5C2.792,19.845,3.739,21,5.001,21H19c1.262,0,2.209-1.155,1.961-2.392l-1-5
				C19.774,12.673,18.953,12,18,12"/>
		</g>
	</g>
	<g>
		<path id="a_13_" fill="none" d="M0,0h24v24H0V0z"/>
	</g>
</g>
</svg>
