<svg id="Layer_3" data-name="Layer 3" xmlns="http://www.w3.org/2000/svg" viewBox="0 0 24 24"><title>pin-location</title><path d="M6,13.153c-1.837.824-3,2.016-3,3.347C3,18.985,7.029,21,12,21s9-2.015,9-4.5c0-1.331-1.163-2.523-3-3.347" fill="none" stroke="#323232" stroke-linecap="round" stroke-linejoin="round" stroke-width="1.5"/><path d="M15.652,17A6.214,6.214,0,0,1,12,18a6.214,6.214,0,0,1-3.652-1" fill="none" stroke="#323232" stroke-linecap="round" stroke-linejoin="round" stroke-width="1.5"/><path d="M14.2,3.913a3.117,3.117,0,1,1-4.408,0,3.116,3.116,0,0,1,4.408,0" fill="none" stroke="#323232" stroke-linecap="round" stroke-linejoin="round" stroke-width="1.5"/><path d="M12,9.232V15" fill="none" stroke="#323232" stroke-linecap="round" stroke-linejoin="round" stroke-width="1.5"/><path d="M24,0V24H0V0Z" fill="none"/></svg>