<svg id="Layer_3" data-name="Layer 3" xmlns="http://www.w3.org/2000/svg" viewBox="0 0 24 24"><title>pin-circle</title><path d="M0,0H24V24H0Z" fill="none"/><line x1="12" y1="18" x2="12" y2="14.724" fill="none" stroke="#323232" stroke-linecap="round" stroke-linejoin="round" stroke-width="1.5"/><path d="M15.071,14.724H8.929a1.25,1.25,0,0,1-1.215-1.546L7.8,12.83a2.25,2.25,0,0,1,2.186-1.717h4.03A2.25,2.25,0,0,1,16.2,12.83l.085.348A1.25,1.25,0,0,1,15.071,14.724Z" fill="none" stroke="#323232" stroke-linecap="round" stroke-linejoin="round" stroke-width="1.5"/><path d="M13.852,11.116l-.408-2.449L14.6,7.8a.722.722,0,0,0-.433-1.3H9.834A.722.722,0,0,0,9.4,7.8l1.155.867-.408,2.449" fill="none" stroke="#323232" stroke-linecap="round" stroke-linejoin="round" stroke-width="1.5"/><circle cx="12" cy="12" r="9" fill="none" stroke="#323232" stroke-linecap="round" stroke-linejoin="round" stroke-width="1.5"/></svg>