<svg id="Layer_3" data-name="Layer 3" xmlns="http://www.w3.org/2000/svg" viewBox="0 0 24 24"><title>pin-location-sqaure</title><path d="M12.3,10.648a.416.416,0,1,1-.589,0,.416.416,0,0,1,.589,0" fill="none" stroke="#323232" stroke-linecap="round" stroke-linejoin="round" stroke-width="1.5"/><path d="M15.918,10.843h0a3.585,3.585,0,0,1-1.29,2.755l-1.284,1.07a3.59,3.59,0,0,0-1.106,1.62L12,17l-.237-.712a3.593,3.593,0,0,0-1.106-1.62L9.372,13.6a3.581,3.581,0,0,1-1.29-2.754h0v.02A3.857,3.857,0,0,1,12,7a3.857,3.857,0,0,1,3.918,3.863" fill="none" stroke="#323232" stroke-linecap="round" stroke-linejoin="round" stroke-width="1.5"/><path d="M17,21H7a4,4,0,0,1-4-4V7A4,4,0,0,1,7,3H17a4,4,0,0,1,4,4V17A4,4,0,0,1,17,21Z" fill="none" stroke="#323232" stroke-linecap="round" stroke-linejoin="round" stroke-width="1.5"/><path d="M0,24V0H24V24Z" fill="none"/></svg>