<svg id="Layer_3" data-name="Layer 3" xmlns="http://www.w3.org/2000/svg" viewBox="0 0 24 24"><title>pin-location-add-circle</title><path d="M6,14a4,4,0,1,1-4,4,4,4,0,0,1,4-4" fill="none" stroke="#323232" stroke-linecap="round" stroke-linejoin="round" stroke-width="1.5"/><path d="M4.822,18H7.178" fill="none" stroke="#323232" stroke-linecap="round" stroke-linejoin="round" stroke-width="1.5"/><path d="M6,19.178V16.822" fill="none" stroke="#323232" stroke-linecap="round" stroke-linejoin="round" stroke-width="1.5"/><path d="M5.76,14.01A8.411,8.411,0,0,1,5,10.5,8.5,8.5,0,1,1,13.5,19a8.411,8.411,0,0,1-3.51-.76" fill="none" stroke="#323232" stroke-linecap="round" stroke-linejoin="round" stroke-width="1.5"/><path d="M14.454,14.6l2.5-6.756a.618.618,0,0,0-.795-.795L9.4,9.552a.618.618,0,0,0,.064,1.179l3.045.766.76,3.035A.619.619,0,0,0,14.454,14.6Z" fill="none" stroke="#323232" stroke-linecap="round" stroke-linejoin="round" stroke-width="1.5"/><path d="M0,0H24V24H0Z" fill="none"/></svg>