<?xml version="1.0" encoding="utf-8"?>
<!-- Generator: Adobe Illustrator 24.0.2, SVG Export Plug-In . SVG Version: 6.00 Build 0)  -->
<svg version="1.1" id="Layer_1" xmlns="http://www.w3.org/2000/svg" xmlns:xlink="http://www.w3.org/1999/xlink" x="0px" y="0px"
	 width="24px" height="24px" viewBox="0 0 24 24" enable-background="new 0 0 24 24" xml:space="preserve">
<g>
	<g>
		
			<polyline fill="none" stroke="#323232" stroke-width="1.5" stroke-linecap="round" stroke-linejoin="round" stroke-miterlimit="10" points="
			18,15.75 21,15.75 21,18.75 		"/>
		<path fill="none" stroke="#323232" stroke-width="1.5" stroke-linecap="round" stroke-linejoin="round" d="M16.533,4.076
			c-0.9-0.521-1.897-0.89-2.959-1.076"/>
		<path fill="none" stroke="#323232" stroke-width="1.5" stroke-linecap="round" stroke-linejoin="round" d="M20.518,8.827
			c-0.366-1.004-0.896-1.927-1.57-2.73"/>
		<path fill="none" stroke="#323232" stroke-width="1.5" stroke-linecap="round" stroke-linejoin="round" d="M10.426,3
			C9.364,3.186,8.368,3.555,7.467,4.076"/>
		<path fill="none" stroke="#323232" stroke-width="1.5" stroke-linecap="round" stroke-linejoin="round" d="M5.052,6.097
			C4.378,6.9,3.848,7.823,3.482,8.827"/>
		<path fill="none" stroke="#323232" stroke-width="1.5" stroke-linecap="round" stroke-linejoin="round" d="M3,12
			c0,4.971,4.029,9,9,9c3.63,0,6.751-2.154,8.174-5.25"/>
		<path fill="none" stroke="#323232" stroke-width="1.5" stroke-linecap="round" stroke-linejoin="round" d="M12.692,15.724
			c-0.386,0.368-0.997,0.368-1.383,0c-1.02-0.973-2.808-2.942-2.808-4.785C8.5,9.039,10.067,7.5,12,7.5s3.5,1.539,3.5,3.438
			C15.5,12.782,13.712,14.751,12.692,15.724z"/>
		<path fill="none" stroke="#323232" stroke-width="1.5" stroke-linecap="round" stroke-linejoin="round" d="M11.999,10.85
			c-0.138,0-0.25,0.112-0.249,0.25c0,0.138,0.112,0.25,0.25,0.25s0.25-0.112,0.25-0.25S12.138,10.85,11.999,10.85"/>
		<path fill="none" stroke="#323232" stroke-width="1.5" stroke-linecap="round" stroke-linejoin="round" d="M3,12
			c0,4.971,4.029,9,9,9"/>
	</g>
	<rect id="_Transparent_Rectangle__3_" y="0" fill="none" width="24" height="24"/>
</g>
</svg>
