<?xml version="1.0" encoding="utf-8"?>
<!-- Generator: Adobe Illustrator 24.0.2, SVG Export Plug-In . SVG Version: 6.00 Build 0)  -->
<svg version="1.1" id="Layer_1" xmlns="http://www.w3.org/2000/svg" xmlns:xlink="http://www.w3.org/1999/xlink" x="0px" y="0px"
	 width="24px" height="24px" viewBox="0 0 24 24" enable-background="new 0 0 24 24" xml:space="preserve">
<g>
	<g>
		<g transform="matrix(-1,-4.48687e-11,4.48687e-11,-1,24,24)">
			<path id="a" fill="none" d="M24,24H0V0h24V24z"/>
		</g>
		<g>
			<path id="a_1_" fill="none" d="M0,0h24v24H0V0z"/>
		</g>
	</g>
	<g>
		<path fill="none" stroke="#323232" stroke-width="1.5" stroke-linecap="round" stroke-linejoin="round" d="M15,3.01V9"/>
		<path fill="none" stroke="#323232" stroke-width="1.5" stroke-linecap="round" stroke-linejoin="round" d="M9,4.78V19"/>
		<path fill="none" stroke="#323232" stroke-width="1.5" stroke-linecap="round" stroke-linejoin="round" d="M21,10V5.613
			c0-0.431-0.276-0.813-0.684-0.949l-4.684-1.561c-0.412-0.137-0.856-0.137-1.268,0L9.632,4.68c-0.411,0.137-0.854,0.137-1.265,0
			L4.316,3.33C3.669,3.114,3,3.596,3,4.279v11.339c0,0.379,0.214,0.726,0.553,0.895l4.553,2.276c0.563,0.282,1.226,0.281,1.789,0
			L12,17.736"/>
		<path fill="none" stroke="#323232" stroke-width="1.5" stroke-linecap="round" stroke-linejoin="round" d="M19.192,20.719
			c-0.386,0.375-0.997,0.375-1.383,0C16.788,19.728,15,17.724,15,15.848c0-1.933,1.567-3.5,3.5-3.5s3.5,1.567,3.5,3.5
			C22,17.724,20.212,19.728,19.192,20.719z"/>
		<path fill="none" stroke="#323232" stroke-width="1.5" stroke-linecap="round" stroke-linejoin="round" d="M18.499,15.485
			c-0.144,0-0.26,0.117-0.259,0.26c0,0.144,0.117,0.26,0.26,0.26s0.26-0.117,0.26-0.26C18.76,15.601,18.644,15.485,18.499,15.485"/>
	</g>
</g>
</svg>
