<?xml version="1.0" encoding="utf-8"?>
<!-- Generator: Adobe Illustrator 24.0.2, SVG Export Plug-In . SVG Version: 6.00 Build 0)  -->
<svg version="1.1" id="Layer_1" xmlns="http://www.w3.org/2000/svg" xmlns:xlink="http://www.w3.org/1999/xlink" x="0px" y="0px"
	 width="24px" height="24px" viewBox="0 0 24 24" enable-background="new 0 0 24 24" xml:space="preserve">
<g>
	<path fill="none" d="M0,0h24v24H0V0z"/>
	<g>
		<path fill="none" stroke="#323232" stroke-width="1.5" stroke-linecap="round" stroke-linejoin="round" d="M18,21H6
			c-1.657,0-3-1.343-3-3V6c0-1.657,1.343-3,3-3h12c1.657,0,3,1.343,3,3v12C21,19.657,19.657,21,18,21z"/>
		<path fill="none" stroke="#323232" stroke-width="1.5" stroke-linecap="round" stroke-linejoin="round" d="M17.352,10.931
			c0.197,0.197,0.197,0.516,0,0.713l-0.441,0.441c-0.12,0.12-0.29,0.171-0.456,0.138l-1.947-0.39l-1.606,1.606l0.39,1.947
			c0.033,0.165-0.019,0.337-0.138,0.456l-0.441,0.441c-0.197,0.197-0.516,0.197-0.713,0l-4.283-4.283
			c-0.197-0.197-0.197-0.516,0-0.713l0.441-0.441c0.12-0.12,0.29-0.171,0.456-0.138l1.947,0.39l1.606-1.606l-0.39-1.947
			c-0.033-0.165,0.019-0.337,0.138-0.456l0.441-0.441c0.197-0.197,0.516-0.197,0.713,0L17.352,10.931"/>
		<path fill="none" stroke="#323232" stroke-width="1.5" stroke-linecap="round" stroke-linejoin="round" d="M7.5,16.5l2.357-2.357"
			/>
	</g>
</g>
</svg>
