<?xml version="1.0" encoding="utf-8"?>
<!-- Generator: Adobe Illustrator 24.0.2, SVG Export Plug-In . SVG Version: 6.00 Build 0)  -->
<svg version="1.1" id="Layer_1" xmlns="http://www.w3.org/2000/svg" xmlns:xlink="http://www.w3.org/1999/xlink" x="0px" y="0px"
	 width="24px" height="24px" viewBox="0 0 24 24" enable-background="new 0 0 24 24" xml:space="preserve">
<g>
	<path fill="none" d="M0,0h24v24H0V0z"/>
	<g>
		<g>
			
				<circle fill="none" stroke="#323232" stroke-width="1.5" stroke-linecap="round" stroke-linejoin="round" cx="12" cy="12" r="9"/>
		</g>
		<path fill="none" stroke="#323232" stroke-width="1.5" stroke-linecap="round" stroke-linejoin="round" d="M15,7.5
			c0.276,0,0.5,0.223,0.5,0.499v0.618c0,0.168-0.083,0.323-0.223,0.416l-1.637,1.091v1.755l1.637,1.091
			c0.139,0.092,0.223,0.249,0.223,0.416l0,0.618c0,0.276-0.223,0.499-0.499,0.499H8.999c-0.276,0-0.499-0.223-0.499-0.499v-0.618
			c0-0.168,0.083-0.323,0.223-0.416l1.637-1.091v-1.755L8.723,9.034C8.584,8.941,8.5,8.784,8.5,8.617V8C8.5,7.723,8.723,7.5,9,7.5
			L15,7.5"/>
		<path fill="none" stroke="#323232" stroke-width="1.5" stroke-linecap="round" stroke-linejoin="round" d="M12,17.5v-2.994"/>
	</g>
</g>
</svg>
