<svg id="Layer_3" data-name="Layer 3" xmlns="http://www.w3.org/2000/svg" viewBox="0 0 24 24"><title>pin-basket</title><path d="M17.494,5.276h0a7.77,7.77,0,0,1,0,10.988h0l-4.2,4.2a1.831,1.831,0,0,1-2.589,0l-4.2-4.2a7.768,7.768,0,0,1,0-10.988h0A7.768,7.768,0,0,1,17.494,5.276Z" fill="none" stroke="#323232" stroke-linecap="round" stroke-linejoin="round" stroke-width="1.5"/><rect width="24" height="24" fill="none"/><path d="M14.13,14H9.869a.7.7,0,0,1-.675-.516l-.668-2.45a.7.7,0,0,1,.491-.859A.662.662,0,0,1,9.2,10.15h5.6a.7.7,0,0,1,.7.7.715.715,0,0,1-.024.184l-.668,2.45A.7.7,0,0,1,14.13,14Z" fill="none" stroke="#323232" stroke-linecap="round" stroke-linejoin="round" stroke-width="1.5"/><path d="M9.129,10.167l1.979-2.715a1.1,1.1,0,0,1,1.537-.238,1.119,1.119,0,0,1,.238.238l1.987,2.717" fill="none" stroke="#323232" stroke-linecap="round" stroke-linejoin="round" stroke-width="1.5"/></svg>