<?xml version="1.0" encoding="utf-8"?>
<!-- Generator: Adobe Illustrator 24.0.2, SVG Export Plug-In . SVG Version: 6.00 Build 0)  -->
<svg version="1.1" id="Layer_1" xmlns="http://www.w3.org/2000/svg" xmlns:xlink="http://www.w3.org/1999/xlink" x="0px" y="0px"
	 width="24px" height="24px" viewBox="0 0 24 24" enable-background="new 0 0 24 24" xml:space="preserve">
<g>
	<path fill="none" d="M0,0h24v24H0V0z"/>
	<g>
		<path fill="none" stroke="#323232" stroke-width="1.5" stroke-linecap="round" stroke-linejoin="round" d="M4.5,10
			c0,4.411,5.014,9.166,6.843,10.754c0.379,0.329,0.936,0.329,1.315,0C14.486,19.166,19.5,14.411,19.5,10c0-3.866-3.358-7-7.5-7
			S4.5,6.134,4.5,10z"/>
		
			<line fill="none" stroke="#323232" stroke-width="1.5" stroke-linecap="round" stroke-linejoin="round" x1="9.386" y1="12.8" x2="14.584" y2="7.602"/>
		<path fill="none" stroke="#323232" stroke-width="1.5" stroke-linecap="round" stroke-linejoin="round" d="M11.985,14
			c-2.098,0-3.799-1.701-3.799-3.799s1.701-3.799,3.799-3.799s3.799,1.701,3.799,3.799S14.082,14,11.985,14"/>
	</g>
</g>
</svg>
