<svg id="Layer_3" data-name="Layer 3" xmlns="http://www.w3.org/2000/svg" viewBox="0 0 24 24"><title>pin-square</title><rect width="24" height="24" fill="none"/><path d="M11.79161,9.8683,13.128,8.53193a.66191.66191,0,0,0,.18981-.54111l-.0947-.85225A.33094.33094,0,0,1,13.786,6.868l3.346,3.346a.33094.33094,0,0,1-.27056.56293l-.85225-.0947a.66191.66191,0,0,0-.54111.18981L14.1317,12.20839a.66187.66187,0,0,0-.19386.468V15.0165a.66188.66188,0,0,1-1.1299.468L8.51548,11.19206a.66188.66188,0,0,1,.468-1.1299h2.34009A.66187.66187,0,0,0,11.79161,9.8683Z" fill="none" stroke="#323232" stroke-linecap="round" stroke-linejoin="round" stroke-width="1.5"/><line x1="8.22991" y1="15.77009" x2="10.66171" y2="13.33829" fill="none" stroke="#323232" stroke-linecap="round" stroke-linejoin="round" stroke-width="1.5"/><rect x="3" y="3" width="18" height="18" rx="5" stroke-width="1.5" stroke="#323232" stroke-linecap="round" stroke-linejoin="round" fill="none"/></svg>