<svg id="Layer_3" data-name="Layer 3" xmlns="http://www.w3.org/2000/svg" viewBox="0 0 24 24"><title>pin-location-more-dots</title><rect width="24" height="24" fill="none"/><path d="M12,11.069A.068.068,0,0,0,12.068,11a.069.069,0,1,0-.068.069" fill="none" stroke="#323232" stroke-linecap="round" stroke-linejoin="round" stroke-width="1.5"/><path d="M17.494,5.276h0a7.77,7.77,0,0,1,0,10.988h0l-4.2,4.2a1.831,1.831,0,0,1-2.589,0l-4.2-4.2a7.768,7.768,0,0,1,0-10.988h0A7.768,7.768,0,0,1,17.494,5.276Z" fill="none" stroke="#323232" stroke-linecap="round" stroke-linejoin="round" stroke-width="1.5"/><path d="M8.632,11.069A.069.069,0,1,0,8.563,11a.069.069,0,0,0,.069.069" fill="none" stroke="#323232" stroke-linecap="round" stroke-linejoin="round" stroke-width="1.5"/><path d="M15.369,11.069A.068.068,0,0,0,15.437,11a.069.069,0,1,0-.068.069" fill="none" stroke="#323232" stroke-linecap="round" stroke-linejoin="round" stroke-width="1.5"/></svg>