<?xml version="1.0" encoding="utf-8"?>
<!-- Generator: Adobe Illustrator 24.0.2, SVG Export Plug-In . SVG Version: 6.00 Build 0)  -->
<svg version="1.1" id="Layer_1" xmlns="http://www.w3.org/2000/svg" xmlns:xlink="http://www.w3.org/1999/xlink" x="0px" y="0px"
	 width="24px" height="24px" viewBox="0 0 24 24" enable-background="new 0 0 24 24" xml:space="preserve">
<g>
	<path fill="none" d="M0,0h24v24H0V0z"/>
	<g>
		<path fill="none" stroke="#323232" stroke-width="1.5" stroke-linecap="round" stroke-linejoin="round" d="M20,15V7
			c0-2.209-1.791-4-4-4H7C4.791,3,3,4.791,3,7v9c0,2.209,1.791,4,4,4h8"/>
		
			<line fill="none" stroke="#323232" stroke-width="1.5" stroke-linecap="round" stroke-linejoin="round" x1="20" y1="19" x2="18" y2="19"/>
		<path fill="none" stroke="#323232" stroke-width="1.5" stroke-linecap="round" stroke-linejoin="round" d="M19,15
			c2.209,0,4,1.791,4,4s-1.791,4-4,4s-4-1.791-4-4S16.791,15,19,15"/>
		<path fill="none" stroke="#323232" stroke-width="1.5" stroke-linecap="round" stroke-linejoin="round" d="M12.2,14.717
			c-0.39,0.383-1.009,0.383-1.399,0c-0.955-0.938-2.55-2.759-2.55-4.467C8.25,8.455,9.705,7,11.5,7s3.25,1.455,3.25,3.25
			C14.75,11.958,13.155,13.779,12.2,14.717z"/>
		<path fill="none" stroke="#323232" stroke-width="1.5" stroke-linecap="round" stroke-linejoin="round" d="M11.499,10.111
			c-0.128,0-0.232,0.104-0.231,0.232c0,0.128,0.104,0.232,0.232,0.232s0.232-0.104,0.232-0.232S11.628,10.111,11.499,10.111"/>
	</g>
</g>
</svg>
