<?xml version="1.0" encoding="utf-8"?>
<!-- Generator: Adobe Illustrator 24.0.2, SVG Export Plug-In . SVG Version: 6.00 Build 0)  -->
<svg version="1.1" id="Layer_1" xmlns="http://www.w3.org/2000/svg" xmlns:xlink="http://www.w3.org/1999/xlink" x="0px" y="0px"
	 width="24px" height="24px" viewBox="0 0 24 24" enable-background="new 0 0 24 24" xml:space="preserve">
<g>
	<g>
		<path id="a_15_" fill="none" d="M0,0h24v24H0V0z"/>
	</g>
	<g>
		<path id="a_14_" fill="none" d="M0,0h24v24H0V0z"/>
	</g>
	<g>
		<path fill="none" stroke="#323232" stroke-width="1.5" stroke-linecap="round" stroke-linejoin="round" d="M13.061,5.814
			c0.586,0.586,0.586,1.536,0,2.121s-1.536,0.586-2.121,0s-0.586-1.536,0-2.121C11.525,5.228,12.475,5.228,13.061,5.814"/>
		<path fill="none" stroke="#323232" stroke-width="1.5" stroke-linecap="round" stroke-linejoin="round" d="M17.093,6.996
			L17.093,6.996c0,1.384-0.615,2.695-1.677,3.581l-1.67,1.392c-0.666,0.555-1.163,1.284-1.437,2.107L12,15l-0.308-0.925
			c-0.274-0.822-0.772-1.552-1.437-2.107l-1.67-1.392C7.521,9.69,6.907,8.379,6.907,6.996l0,0v0.026C6.907,3.844,9.538,2,12,2
			s5.093,1.844,5.093,5.022"/>
		<path fill="none" stroke="#323232" stroke-width="1.5" stroke-linecap="round" stroke-linejoin="round" d="M10.8,21l1.2-1.2
			l-1.2-1.2"/>
		<path fill="none" stroke="#323232" stroke-width="1.5" stroke-linecap="round" stroke-linejoin="round" d="M18,13.704
			c1.836,0.639,3,1.562,3,2.596c0,1.472-2.34,2.73-5.65,3.247"/>
		<path fill="none" stroke="#323232" stroke-width="1.5" stroke-linecap="round" stroke-linejoin="round" d="M6,13.704
			c-1.836,0.639-3,1.562-3,2.596c0,1.933,4.029,3.5,9,3.5"/>
	</g>
</g>
</svg>
