<svg id="Layer_3" data-name="Layer 3" xmlns="http://www.w3.org/2000/svg" viewBox="0 0 24 24"><title>pin-location-signal-square</title><path d="M16,3a5.00054,5.00054,0,0,1,5,5" fill="none" stroke="#323232" stroke-linecap="round" stroke-linejoin="round" stroke-width="1.5"/><path d="M16,6a1.99945,1.99945,0,0,1,2,2" fill="none" stroke="#323232" stroke-linecap="round" stroke-linejoin="round" stroke-width="1.5"/><path d="M14.44187,9.01146h0a3.45332,3.45332,0,0,1,0,4.88374h0l-1.86644,1.86645a.81378.81378,0,0,1-1.15086,0L9.55813,13.8952a3.45332,3.45332,0,0,1,0-4.88374h0A3.45332,3.45332,0,0,1,14.44187,9.01146Z" fill="none" stroke="#323232" stroke-linecap="round" stroke-linejoin="round" stroke-width="1.5"/><path d="M12,3H7A4.00018,4.00018,0,0,0,3,7v9a5.00054,5.00054,0,0,0,5,5h9a4.00018,4.00018,0,0,0,4-4V12" fill="none" stroke="#323232" stroke-linecap="round" stroke-linejoin="round" stroke-width="1.5"/><path d="M0,0H24V24H0Z" fill="none"/></svg>