<svg id="Layer_3" data-name="Layer 3" xmlns="http://www.w3.org/2000/svg" viewBox="0 0 24 24"><title>pin-square</title><rect x="3" y="3" width="18" height="18" rx="5" stroke-width="1.5" stroke="#323232" stroke-linecap="round" stroke-linejoin="round" fill="none"/><path d="M0,0H24V24H0Z" fill="none"/><line x1="12" y1="18" x2="12" y2="14.724" fill="none" stroke="#323232" stroke-linecap="round" stroke-linejoin="round" stroke-width="1.5"/><path d="M15.071,14.724H8.929a1.25,1.25,0,0,1-1.215-1.546l.039-.158a2.5,2.5,0,0,1,2.429-1.907h3.636a2.5,2.5,0,0,1,2.429,1.907l.039.158A1.25,1.25,0,0,1,15.071,14.724Z" fill="none" stroke="#323232" stroke-linecap="round" stroke-linejoin="round" stroke-width="1.5"/><path d="M13.852,11.116l-.408-2.449L14.6,7.8a.722.722,0,0,0-.433-1.3H9.834A.722.722,0,0,0,9.4,7.8l1.155.867-.408,2.449" fill="none" stroke="#323232" stroke-linecap="round" stroke-linejoin="round" stroke-width="1.5"/><rect width="24" height="24" fill="none"/></svg>