<?xml version="1.0" encoding="utf-8"?>
<!-- Generator: Adobe Illustrator 24.0.2, SVG Export Plug-In . SVG Version: 6.00 Build 0)  -->
<svg version="1.1" id="Layer_1" xmlns="http://www.w3.org/2000/svg" xmlns:xlink="http://www.w3.org/1999/xlink" x="0px" y="0px"
	 width="24px" height="24px" viewBox="0 0 24 24" enable-background="new 0 0 24 24" xml:space="preserve">
<g>
	<path fill="none" d="M0,0h24v24H0V0z"/>
	<g>
		<path fill="none" stroke="#323232" stroke-width="1.5" stroke-linecap="round" stroke-linejoin="round" d="M15,7.5
			c0.276,0,0.5,0.226,0.5,0.504v0.624c0,0.17-0.083,0.326-0.223,0.42l-1.637,1.101v1.771l1.637,1.101
			c0.139,0.093,0.223,0.252,0.223,0.42l0,0.624c0,0.279-0.223,0.504-0.499,0.504H8.999c-0.276,0-0.499-0.226-0.499-0.504v-0.624
			c0-0.17,0.083-0.326,0.223-0.42l1.637-1.101v-1.771L8.723,9.048C8.584,8.955,8.5,8.796,8.5,8.628V8.004C8.5,7.726,8.723,7.5,9,7.5
			L15,7.5"/>
		<path fill="none" stroke="#323232" stroke-width="1.5" stroke-linecap="round" stroke-linejoin="round" d="M12,17.5v-2.929"/>
		<path fill="none" stroke="#323232" stroke-width="1.5" stroke-linecap="round" stroke-linejoin="round" d="M18,21H6
			c-1.657,0-3-1.343-3-3V6c0-1.657,1.343-3,3-3h12c1.657,0,3,1.343,3,3v12C21,19.657,19.657,21,18,21z"/>
	</g>
</g>
</svg>
