<svg id="Layer_3" data-name="Layer 3" xmlns="http://www.w3.org/2000/svg" viewBox="0 0 24 24"><title>pin</title><line x1="12" y1="21" x2="12" y2="15.5" fill="none" stroke="#323232" stroke-linecap="round" stroke-linejoin="round" stroke-width="1.5"/><path d="M14.9,10.5H9.1a3,3,0,0,0-2.914,2.289l-.133.546a1.75,1.75,0,0,0,1.7,2.165h8.5a1.75,1.75,0,0,0,1.7-2.165l-.133-.546A3,3,0,0,0,14.9,10.5Z" fill="none" stroke="#323232" stroke-linecap="round" stroke-linejoin="round" stroke-width="1.5"/><path d="M14.75,10.5,14.1,6.6a1,1,0,0,1,.386-.965L15.6,4.8A1,1,0,0,0,15,3H9a1,1,0,0,0-.6,1.8l1.114.835A1,1,0,0,1,9.9,6.6l-.65,3.9" fill="none" stroke="#323232" stroke-linecap="round" stroke-linejoin="round" stroke-width="1.5"/><path d="M0,0H24V24H0Z" fill="none"/></svg>