<svg id="Layer_3" data-name="Layer 3" xmlns="http://www.w3.org/2000/svg" viewBox="0 0 24 24"><path d="M10,13,6.42747,19.25193A.5.5,0,0,0,6.86159,20H8.54623a1,1,0,0,0,.75258-.3415L15.125,13" fill="none" stroke="#323232" stroke-linecap="round" stroke-linejoin="round" stroke-width="1.5"/><path d="M8.85714,15H6.66667a5,5,0,0,1-3-1L1,12l1-1L1,7H4l2,3H20a3,3,0,0,1,3,3h0a2,2,0,0,1-2,2H13.375" fill="none" stroke="#323232" stroke-linecap="round" stroke-linejoin="round" stroke-width="1.5"/><path d="M15.125,10,10.17383,4.34155A1,1,0,0,0,9.4212,4H7.73657a.5.5,0,0,0-.43408.74805L10.30359,10" fill="none" stroke="#323232" stroke-linecap="round" stroke-linejoin="round" stroke-width="1.5"/><rect width="24" height="24" fill="none"/></svg>