<?xml version="1.0" encoding="utf-8"?>
<!-- Generator: Adobe Illustrator 24.0.2, SVG Export Plug-In . SVG Version: 6.00 Build 0)  -->
<svg version="1.1" id="Layer_1" xmlns="http://www.w3.org/2000/svg" xmlns:xlink="http://www.w3.org/1999/xlink" x="0px" y="0px"
	 width="24px" height="24px" viewBox="0 0 24 24" enable-background="new 0 0 24 24" xml:space="preserve">
<g>
	<path fill="none" d="M0,0h24v24H0V0z"/>
	<g>
		<path fill="none" stroke="#323232" stroke-width="1.5" stroke-linecap="round" stroke-linejoin="round" d="M18.954,21H5.046
			c-1.105,0-2-0.895-2-2v-8c0-1.105,0.895-2,2-2h13.908c1.105,0,2,0.895,2,2v8C20.954,20.105,20.058,21,18.954,21z"/>
		<g>
			<path fill="none" stroke="#323232" stroke-width="1.5" stroke-linecap="round" stroke-linejoin="round" d="M11.989,15.439
				c0.586,0.586,0.586,1.536,0,2.121s-1.536,0.586-2.121,0c-0.586-0.586-0.586-1.536,0-2.121
				C10.454,14.854,11.403,14.854,11.989,15.439"/>
		</g>
		<path fill="none" stroke="#323232" stroke-width="1.5" stroke-linecap="round" stroke-linejoin="round" d="M14.381,12.794
			l-1.952-0.651V16.5"/>
		<path fill="none" stroke="#323232" stroke-width="1.5" stroke-linecap="round" stroke-linejoin="round" d="M4.782,9V8
			c0-1.105,0.895-2,2-2h10.435c1.105,0,2,0.895,2,2v1"/>
		<path fill="none" stroke="#323232" stroke-width="1.5" stroke-linecap="round" stroke-linejoin="round" d="M6.516,6V5
			c0-1.105,0.895-2,2-2h6.969c1.105,0,2,0.895,2,2v1"/>
	</g>
</g>
</svg>
