<svg id="Layer_3" data-name="Layer 3" xmlns="http://www.w3.org/2000/svg" viewBox="0 0 24 24"><title>play-button-songs</title><path d="M24,24H0V0H24Z" fill="none"/><path d="M20.214,13.214a6.993,6.993,0,0,0-9.428-9.428" fill="none" stroke="#323232" stroke-linecap="round" stroke-linejoin="round" stroke-width="1.5"/><path d="M10,21a7,7,0,1,1,7-7,7,7,0,0,1-7,7" fill="none" stroke="#323232" stroke-linecap="round" stroke-linejoin="round" stroke-width="1.5"/><circle cx="10" cy="14" r="7" fill="none"/><path d="M9.176,11.712,12.2,13.5a.583.583,0,0,1,0,1l-3.02,1.785a.583.583,0,0,1-.88-.5V12.214A.583.583,0,0,1,9.176,11.712Z" fill="none" stroke="#323232" stroke-linecap="round" stroke-linejoin="round" stroke-width="1.5"/></svg>