<svg id="Layer_3" data-name="Layer 3" xmlns="http://www.w3.org/2000/svg" viewBox="0 0 24 24"><title>plum</title><path d="M17.066,6.645H15.355V4.934A2.932,2.932,0,0,1,18.288,2H20V3.712A2.934,2.934,0,0,1,17.066,6.645Z" fill="none" stroke="#323232" stroke-linecap="round" stroke-linejoin="round" stroke-width="1.5"/><path d="M8,3c4.5,0,8.15,2.964,8.15,6.62" fill="none" stroke="#323232" stroke-linecap="round" stroke-linejoin="round" stroke-width="1.5"/><path d="M9.8,9.914A7.062,7.062,0,0,0,8,3" fill="none" stroke="#323232" stroke-linecap="round" stroke-linejoin="round" stroke-width="1.5"/><path d="M11.94,18.62a5.056,5.056,0,0,1-5.36,2.19c-2.67-.72-4.17-3.76-3.36-6.8s3.64-4.92,6.3-4.2a4.58,4.58,0,0,1,2.61,1.88" fill="none" stroke="#323232" stroke-linecap="round" stroke-linejoin="round" stroke-width="1.5"/><ellipse cx="16" cy="15.306" rx="5" ry="5.694" fill="none" stroke="#323232" stroke-linecap="round" stroke-linejoin="round" stroke-width="1.5"/><rect width="24" height="24" fill="none"/></svg>