<?xml version="1.0" encoding="utf-8"?>
<!-- Generator: Adobe Illustrator 24.0.2, SVG Export Plug-In . SVG Version: 6.00 Build 0)  -->
<svg version="1.1" id="Layer_3" xmlns="http://www.w3.org/2000/svg" xmlns:xlink="http://www.w3.org/1999/xlink" x="0px" y="0px"
	 width="24px" height="24px" viewBox="0 0 24 24" enable-background="new 0 0 24 24" xml:space="preserve">
<g>
	<g>
		<path fill="none" stroke="#323232" stroke-width="1.5" stroke-linecap="round" stroke-linejoin="round" d="M14.198,10.791
			c0-1.214-0.984-2.198-2.198-2.198s-2.198,0.984-2.198,2.198s0.984,2.198,2.198,2.198S14.198,12.005,14.198,10.791z"/>
		<path fill="none" stroke="#323232" stroke-width="1.5" stroke-linecap="round" stroke-linejoin="round" d="M12,22L12,22
			c-0.967,0-1.75-0.784-1.75-1.75v-2.698c0-0.966,0.784-1.75,1.75-1.75h0c0.966,0,1.75,0.784,1.75,1.75v2.698
			C13.75,21.216,12.966,22,12,22z"/>
		<path fill="none" stroke="#323232" stroke-width="1.5" stroke-linecap="round" stroke-linejoin="round" d="M17,18.011
			c2.289-1.586,3.791-4.225,3.791-7.22C20.791,5.936,16.855,2,12,2s-8.791,3.936-8.791,8.791c0,2.995,1.502,5.634,3.791,7.22"/>
		<path fill="none" stroke="#323232" stroke-width="1.5" stroke-linecap="round" stroke-linejoin="round" d="M8,14.549
			c-0.924-0.983-1.494-2.303-1.494-3.758c0-3.034,2.46-5.494,5.494-5.494s5.494,2.46,5.494,5.494c0,1.456-0.57,2.775-1.494,3.758"/>
	</g>
	<path fill="none" d="M0,0h24v24H0V0z"/>
</g>
</svg>
