<?xml version="1.0" encoding="utf-8"?>
<!-- Generator: Adobe Illustrator 24.0.2, SVG Export Plug-In . SVG Version: 6.00 Build 0)  -->
<svg version="1.1" id="Layer_1" xmlns="http://www.w3.org/2000/svg" xmlns:xlink="http://www.w3.org/1999/xlink" x="0px" y="0px"
	 width="24px" height="24px" viewBox="0 0 24 24" enable-background="new 0 0 24 24" xml:space="preserve">
<g>
	<g>
		<path fill="none" stroke="#323232" stroke-width="1.5" stroke-linecap="round" stroke-linejoin="round" d="M7.196,10.703
			c-0.389,0.396-1.026,0.396-1.415,0C4.762,9.665,3,7.59,3,5.647C3,3.633,4.562,2,6.489,2s3.489,1.633,3.489,3.647
			C9.978,7.59,8.216,9.665,7.196,10.703z"/>
		<path fill="none" stroke="#323232" stroke-width="1.5" stroke-linecap="round" stroke-linejoin="round" d="M6.488,5.339
			c-0.138,0-0.249,0.112-0.249,0.25c0,0.137,0.112,0.249,0.249,0.249c0.138,0,0.249-0.112,0.249-0.249
			C6.738,5.451,6.626,5.339,6.488,5.339"/>
		<path fill="none" stroke="#323232" stroke-width="1.5" stroke-linecap="round" stroke-linejoin="round" d="M20.16,17.553
			l-2.889,1.709c-0.361,0.214-0.361,0.737,0,0.95l2.889,1.709c0.371,0.22,0.84-0.048,0.84-0.479v-3.41
			C21,17.601,20.531,17.333,20.16,17.553z"/>
		<path fill="none" stroke="#323232" stroke-width="1.5" stroke-linecap="round" stroke-linejoin="round" d="M13,19.698H8
			c-1.105,0-2-0.895-2-2v0c0-1.105,0.895-2,2-2h5.651c1.297,0,2.349-1.052,2.349-2.349v0C16,12.052,14.948,11,13.651,11H11"/>
	</g>
	<path fill="none" d="M0,0h24v24H0V0z"/>
</g>
</svg>
