<?xml version="1.0" encoding="utf-8"?>
<!-- Generator: Adobe Illustrator 24.0.2, SVG Export Plug-In . SVG Version: 6.00 Build 0)  -->
<svg version="1.1" id="Layer_1" xmlns="http://www.w3.org/2000/svg" xmlns:xlink="http://www.w3.org/1999/xlink" x="0px" y="0px"
	 width="24px" height="24px" viewBox="0 0 24 24" enable-background="new 0 0 24 24" xml:space="preserve">
<g>
	<g>
		<g>
			<path fill="none" stroke="#323232" stroke-width="1.5" stroke-linecap="round" stroke-linejoin="round" d="M20,11l-1.858,0.9"/>
			<path fill="none" stroke="#323232" stroke-width="1.5" stroke-linecap="round" stroke-linejoin="round" d="M5.867,11.9L4,11"/>
			<path fill="none" stroke="#323232" stroke-width="1.5" stroke-linecap="round" stroke-linejoin="round" d="M18.141,11.9
				l-0.755-3.61c-0.218-1.043-1.138-1.79-2.203-1.79H8.911c-1.045,0-1.953,0.72-2.191,1.738L5.864,11.9"/>
			<path fill="none" stroke="#323232" stroke-width="1.5" stroke-linecap="round" stroke-linejoin="round" d="M15.223,6.5
				l-0.349-1.671C14.772,4.346,14.347,4,13.853,4h-3.666C9.704,4,9.284,4.333,9.173,4.804L8.777,6.5"/>
			
				<line fill="none" stroke="#323232" stroke-width="1.5" stroke-linecap="round" stroke-linejoin="round" x1="12" y1="6.5" x2="12" y2="4"/>
			<path fill="none" stroke="#323232" stroke-width="1.5" stroke-linecap="round" stroke-linejoin="round" d="M8,18.278V20
				c0,0.552-0.448,1-1,1H5c-0.552,0-1-0.448-1-1v-2.402"/>
			<path fill="none" stroke="#323232" stroke-width="1.5" stroke-linecap="round" stroke-linejoin="round" d="M20,17.598V20
				c0,0.552-0.448,1-1,1h-2c-0.552,0-1-0.448-1-1v-1.722"/>
			<path fill="none" stroke="#323232" stroke-width="1.5" stroke-linecap="round" stroke-linejoin="round" d="M20.5,16.278V14.6
				c0-1.491-1.209-2.7-2.7-2.7H6.2c-1.491,0-2.7,1.209-2.7,2.7v1.678c0,1.105,0.895,2,2,2h13C19.605,18.278,20.5,17.382,20.5,16.278
				z"/>
			
				<line fill="none" stroke="#323232" stroke-width="1.5" stroke-linecap="round" stroke-linejoin="round" x1="6.333" y1="14.861" x2="8" y2="15.111"/>
			
				<line fill="none" stroke="#323232" stroke-width="1.5" stroke-linecap="round" stroke-linejoin="round" x1="16.075" y1="15.111" x2="17.667" y2="14.861"/>
		</g>
	</g>
	<path fill="none" d="M0,0h24v24H0V0z"/>
</g>
</svg>
