<svg id="Layer_3" data-name="Layer 3" xmlns="http://www.w3.org/2000/svg" viewBox="0 0 24 24"><title>polo-shirt</title><path d="M17,5l2.21242.68092A2,2,0,0,1,20.54715,7.043l1.41407,4.94924a1,1,0,0,1-.73224,1.24808L18.00389,14" fill="none" stroke="#323232" stroke-linecap="round" stroke-linejoin="round" stroke-width="1.5"/><path d="M12.66669,6.88892l2.38463.79485a1,1,0,0,0,1.26491-.63245L17,5" fill="none" stroke="#323232" stroke-linecap="round" stroke-linejoin="round" stroke-width="1.5"/><path d="M11.33331,6.88892l-2.38463.79485a1,1,0,0,1-1.26491-.63245L7,5" fill="none" stroke="#323232" stroke-linecap="round" stroke-linejoin="round" stroke-width="1.5"/><path d="M17,5,15.58579,3.58579A2,2,0,0,0,14.17157,3H9.82843a2,2,0,0,0-1.41422.58579L7,5" fill="none" stroke="#323232" stroke-linecap="round" stroke-linejoin="round" stroke-width="1.5"/><path d="M7,5l-2.21242.68092A2,2,0,0,0,3.45285,7.043L2.03878,11.99223A1,1,0,0,0,2.771,13.24031L5.99611,14" fill="none" stroke="#323232" stroke-linecap="round" stroke-linejoin="round" stroke-width="1.5"/><line x1="12" y1="8" x2="12" y2="9" fill="none" stroke="#323232" stroke-linecap="round" stroke-linejoin="round" stroke-width="1.5"/><path d="M17.9875,12l.00006,7.54307a1.97446,1.97446,0,0,1-1.45374,1.92638,19.74392,19.74392,0,0,1-9.09262,0,1.97447,1.97447,0,0,1-1.45376-1.92638L5.9875,12" fill="none" stroke="#323232" stroke-linecap="round" stroke-linejoin="round" stroke-width="1.5"/><polyline points="9.079 3.131 12 8 14.921 3.131" fill="none" stroke="#323232" stroke-linecap="round" stroke-linejoin="round" stroke-width="1.5"/><rect width="24" height="24" fill="none"/></svg>