<svg id="Layer_3" data-name="Layer 3" xmlns="http://www.w3.org/2000/svg" viewBox="0 0 24 24"><title>porridge</title><rect width="24" height="24" fill="none"/><path d="M4.6641,20.1094l.39445.263A3.737,3.737,0,0,0,7.13148,21h9.737a3.737,3.737,0,0,0,2.07293-.62763l.39445-.263A3.737,3.737,0,0,0,21,17h0a1,1,0,0,0-1-1H4a1,1,0,0,0-1,1H3A3.737,3.737,0,0,0,4.6641,20.1094Z" fill="none" stroke="#323232" stroke-linecap="round" stroke-linejoin="round" stroke-width="1.5"/><path d="M19.8043,16a2.152,2.152,0,0,0-1.31113-2.2694l-.04532-.01874a2.15187,2.15187,0,0,1-1.166-1.166l-.01886-.0456a2.15165,2.15165,0,0,0-2.269-1.31089l-.05239.00689a2.157,2.157,0,0,1-1.595-.42769l-.036-.02766a2.15118,2.15118,0,0,0-2.62012,0l-.04076.03129A2.14986,2.14986,0,0,1,9.06,11.19846l-.054-.00711A2.15082,2.15082,0,0,0,6.73733,12.503l-.01812.04388a2.15022,2.15022,0,0,1-1.167,1.167l-.04388.01812a2.15081,2.15081,0,0,0-1.31168,2.26863" fill="none" stroke="#323232" stroke-linecap="round" stroke-linejoin="round" stroke-width="1.5"/><path d="M7.4625,11.58l-4.02-4.02a1.49907,1.49907,0,1,1,2.12-2.12l5.23,5.23" fill="none" stroke="#323232" stroke-linecap="round" stroke-linejoin="round" stroke-width="1.5"/></svg>