<?xml version="1.0" encoding="utf-8"?>
<!-- Generator: Adobe Illustrator 24.0.2, SVG Export Plug-In . SVG Version: 6.00 Build 0)  -->
<svg version="1.1" id="Layer_1" xmlns="http://www.w3.org/2000/svg" xmlns:xlink="http://www.w3.org/1999/xlink" x="0px" y="0px"
	 width="24px" height="24px" viewBox="0 0 24 24" enable-background="new 0 0 24 24" xml:space="preserve">
<g>
	<g>
		
			<line fill="none" stroke="#323232" stroke-width="1.5" stroke-linecap="round" stroke-linejoin="round" x1="12.9" y1="11.086" x2="5.7" y2="18.286"/>
		<polyline fill="none" stroke="#323232" stroke-width="1.5" stroke-linecap="round" stroke-linejoin="round" points="10.2,11.086 
			12.9,11.086 12.9,13.786 		"/>
		<path fill="none" stroke="#323232" stroke-width="1.5" stroke-linecap="round" stroke-linejoin="round" d="M8.4,20.232
			c1.103,0.482,2.319,0.754,3.6,0.754c4.971,0,9-4.029,9-9c0-4.971-4.029-9-9-9s-9,4.029-9,9c0,1.294,0.278,2.521,0.77,3.633"/>
		<path fill="none" stroke="#323232" stroke-width="1.5" stroke-linecap="round" stroke-linejoin="round" d="M11.1,17.306
			c0.293,0.051,0.593,0.08,0.9,0.08c2.982,0,5.4-2.418,5.4-5.4s-2.418-5.4-5.4-5.4s-5.4,2.418-5.4,5.4c0,0.307,0.029,0.607,0.08,0.9
			"/>
	</g>
	<path fill="none" d="M0,0h24v24H0V0z"/>
</g>
</svg>
