<?xml version="1.0" encoding="utf-8"?>
<!-- Generator: Adobe Illustrator 24.0.2, SVG Export Plug-In . SVG Version: 6.00 Build 0)  -->
<svg version="1.1" id="icons" xmlns="http://www.w3.org/2000/svg" xmlns:xlink="http://www.w3.org/1999/xlink" x="0px" y="0px"
	 width="24px" height="24px" viewBox="0 0 24 24" style="enable-background:new 0 0 24 24;" xml:space="preserve">
<style type="text/css">
	.st0{fill:none;stroke:#323232;stroke-width:1.5;stroke-linecap:round;stroke-linejoin:round;}
	.st1{fill:none;}
</style>
<g>
	<g>
		<line class="st0" x1="5" y1="11" x2="13" y2="19"/>
		<g>
			<path class="st0" d="M3.6,12.4L5,11V7.5C5,6.1,6.1,5,7.5,5l0,0C8.9,5,10,6.1,10,7.5V8l2.6-2.6c1.9-1.9,5.1-1.9,7,0l0,0
				c1.9,1.9,1.9,5.1,0,7l-8,8c-0.8,0.8-2,0.8-2.8,0l-5.2-5.2C2.8,14.4,2.8,13.2,3.6,12.4z"/>
		</g>
	</g>
	<rect class="st1" width="24" height="24"/>
</g>
</svg>
