<svg id="Layer_3" data-name="Layer 3" xmlns="http://www.w3.org/2000/svg" viewBox="0 0 24 24"><rect width="24" height="24" fill="none"/><path d="M11,7H7V4.5A.5.5,0,0,1,7.5,4H9.63962a.5.5,0,0,1,.47434.34189Z" fill="none" stroke="#323232" stroke-linecap="round" stroke-linejoin="round" stroke-width="1.5"/><path d="M3,17H3a4.5075,4.5075,0,0,1,3.6,0h0a4.5075,4.5075,0,0,0,3.6,0h0a4.5075,4.5075,0,0,1,3.6,0h0a4.5075,4.5075,0,0,0,3.6,0h0A4.5075,4.5075,0,0,1,21,17h0" fill="none" stroke="#323232" stroke-linecap="round" stroke-linejoin="round" stroke-width="1.5"/><path d="M6.6,20h0a4.5075,4.5075,0,0,0,3.6,0h0a4.5075,4.5075,0,0,1,3.6,0h0a4.5075,4.5075,0,0,0,3.6,0h0" fill="none" stroke="#323232" stroke-linecap="round" stroke-linejoin="round" stroke-width="1.5"/><path d="M5,11l.81063-3.24254A1,1,0,0,1,6.78078,7h6.98315a2,2,0,0,1,1.78886,1.10557L17,11" fill="none" stroke="#323232" stroke-linecap="round" stroke-linejoin="round" stroke-width="1.5"/><path d="M3.92237,16.70917l-.90261-4.513A1,1,0,0,1,4.00034,11H19.99846a1,1,0,0,1,.85749,1.5145l-2.51439,4.19064" fill="none" stroke="#323232" stroke-linecap="round" stroke-linejoin="round" stroke-width="1.5"/></svg>