<svg id="Layer_3" data-name="Layer 3" xmlns="http://www.w3.org/2000/svg" viewBox="0 0 24 24"><rect width="24" height="24" fill="none"/><path d="M19,7.25871V18.97542A2.02459,2.02459,0,0,1,16.97542,21H7.02458A2.02459,2.02459,0,0,1,5,18.97542V7.25871" fill="none" stroke="#323232" stroke-linecap="round" stroke-linejoin="round" stroke-width="1.5"/><path d="M17.94418,8.271H6.05582a1.05481,1.05481,0,0,1-.83818-1.6885L7.28272,3.8402A2.11165,2.11165,0,0,1,8.96312,3h6.07376a2.11162,2.11162,0,0,1,1.68445.8402l2.061,2.7423a1.0548,1.0548,0,0,1-.83818,1.6885Z" fill="none" stroke="#323232" stroke-linecap="round" stroke-linejoin="round" stroke-width="1.5"/><path d="M10.25,11.53637A2.47488,2.47488,0,0,1,12,14.56746" fill="none" stroke="#323232" stroke-linecap="round" stroke-linejoin="round" stroke-width="1.5"/><path d="M13.75,17.59855A2.47488,2.47488,0,0,1,12,14.56746" fill="none" stroke="#323232" stroke-linecap="round" stroke-linejoin="round" stroke-width="1.5"/><path d="M15.03109,12.81746A2.47488,2.47488,0,0,1,12,14.56746" fill="none" stroke="#323232" stroke-linecap="round" stroke-linejoin="round" stroke-width="1.5"/><circle cx="12" cy="14.56746" r="3.5" fill="none" stroke="#323232" stroke-linecap="round" stroke-linejoin="round" stroke-width="1.5"/><path d="M8.96891,16.31746A2.47488,2.47488,0,0,1,12,14.56746" fill="none" stroke="#323232" stroke-linecap="round" stroke-linejoin="round" stroke-width="1.5"/></svg>