<svg id="Layer_3" data-name="Layer 3" xmlns="http://www.w3.org/2000/svg" viewBox="0 0 24 24"><title>power-source</title><path d="M0,0H24V24H0Z" fill="none"/><path d="M7.75,11.96891A2.47488,2.47488,0,0,1,9.5,15" fill="none" stroke="#323232" stroke-linecap="round" stroke-linejoin="round" stroke-width="1.5"/><path d="M11.25,18.03109A2.47488,2.47488,0,0,1,9.5,15" fill="none" stroke="#323232" stroke-linecap="round" stroke-linejoin="round" stroke-width="1.5"/><path d="M12.53109,13.25A2.47488,2.47488,0,0,1,9.5,15" fill="none" stroke="#323232" stroke-linecap="round" stroke-linejoin="round" stroke-width="1.5"/><circle cx="9.5" cy="15" r="3.5" fill="none" stroke="#323232" stroke-linecap="round" stroke-linejoin="round" stroke-width="1.5"/><line x1="16" y1="17" x2="18" y2="17" fill="none" stroke="#323232" stroke-linecap="round" stroke-linejoin="round" stroke-width="1.5"/><path d="M21,11a2,2,0,0,0-2-2H5a2,2,0,0,0-2,2v8a2,2,0,0,0,2,2H19a2,2,0,0,0,2-2Z" fill="none" stroke="#323232" stroke-linecap="round" stroke-linejoin="round" stroke-width="1.5"/><path d="M3,12V10.56854a8.0008,8.0008,0,0,1,.0804-1.13137l.67429-4.72A2,2,0,0,1,5.73459,3H18.26541a2,2,0,0,1,1.9799,1.71716l.67429,4.72A8.0008,8.0008,0,0,1,21,10.56854V12" fill="none" stroke="#323232" stroke-linecap="round" stroke-linejoin="round" stroke-width="1.5"/><path d="M6.46891,16.75A2.47488,2.47488,0,0,1,9.5,15" fill="none" stroke="#323232" stroke-linecap="round" stroke-linejoin="round" stroke-width="1.5"/></svg>