<svg id="Layer_3" data-name="Layer 3" xmlns="http://www.w3.org/2000/svg" viewBox="0 0 24 24"><title>power-tools-electric-saw</title><circle cx="15.37" cy="8.63" r="5.63" fill="none" stroke="#323232" stroke-linecap="round" stroke-linejoin="round" stroke-width="1.5"/><path d="M7.694,19.377,6.37,20.7a1.022,1.022,0,0,1-1.447,0L3.3,19.077a1.022,1.022,0,0,1,0-1.447l1.323-1.324" fill="none" stroke="#323232" stroke-linecap="round" stroke-linejoin="round" stroke-width="1.5"/><line x1="8.206" y1="13.747" x2="7.182" y2="14.771" fill="none" stroke="#323232" stroke-linecap="round" stroke-linejoin="round" stroke-width="1.5"/><line x1="10.253" y1="15.794" x2="9.229" y2="16.818" fill="none" stroke="#323232" stroke-linecap="round" stroke-linejoin="round" stroke-width="1.5"/><path d="M7.429,10.429,7,10H7A3.535,3.535,0,0,1,7,5L9,3" fill="none" stroke="#323232" stroke-linecap="round" stroke-linejoin="round" stroke-width="1.5"/><path d="M15.9,14.239l-5.225,5.226a2.048,2.048,0,0,1-2.895,0L4.535,16.218a2.048,2.048,0,0,1,0-2.895L9.762,8.1" fill="none" stroke="#323232" stroke-linecap="round" stroke-linejoin="round" stroke-width="1.5"/><path d="M15.369,8.38a.25.25,0,1,0,.251.25.249.249,0,0,0-.251-.25" fill="none" stroke="#323232" stroke-linecap="round" stroke-linejoin="round" stroke-width="1.5"/><rect width="24" height="24" fill="none"/></svg>