<svg id="Layer_3" data-name="Layer 3" xmlns="http://www.w3.org/2000/svg" viewBox="0 0 24 24"><path d="M0,0H24V24H0Z" fill="none"/><rect x="2" y="3" width="18" height="3" rx="1" stroke-width="1.5" stroke="#323232" stroke-linecap="round" stroke-linejoin="round" fill="none"/><path d="M12,18H5a2,2,0,0,1-2-2V6H19" fill="none" stroke="#323232" stroke-linecap="round" stroke-linejoin="round" stroke-width="1.5"/><line x1="7" y1="10" x2="12" y2="10" fill="none" stroke="#323232" stroke-linecap="round" stroke-linejoin="round" stroke-width="1.5"/><line x1="7" y1="13" x2="9" y2="13" fill="none" stroke="#323232" stroke-linecap="round" stroke-linejoin="round" stroke-width="1.5"/><circle cx="17.9" cy="10" r="1.5" fill="none" stroke="#323232" stroke-linecap="round" stroke-linejoin="round" stroke-width="1.5"/><path d="M17.2,22h1.6a.94477.94477,0,0,0,1-1V18.7l1-1.2a1.42132,1.42132,0,0,0,.2-.6V15a.94477.94477,0,0,0-1-1H16a.94477.94477,0,0,0-1,1v1.9a1.42132,1.42132,0,0,0,.2.6l1,1.2V21A.94477.94477,0,0,0,17.2,22Z" fill="none" stroke="#323232" stroke-linecap="round" stroke-linejoin="round" stroke-width="1.5"/></svg>