<?xml version="1.0" encoding="UTF-8"?><svg version="1.1" viewBox="0 0 24 24" xmlns="http://www.w3.org/2000/svg" xmlns:xlink="http://www.w3.org/1999/xlink"><!--Generated by IJSVG (https://github.com/iconjar/IJSVG)--><g fill="none"><path d="M0,0h24v24h-24v-24Z"></path><path stroke="#323232" stroke-linecap="round" stroke-linejoin="round" stroke-width="1.5" d="M7,8v-4c0,-0.552 0.448,-1 1,-1h8c0.552,0 1,0.448 1,1v4"></path><path stroke="#323232" stroke-linecap="round" stroke-linejoin="round" stroke-width="1.5" d="M7,17h-2c-1.105,0 -2,-0.895 -2,-2v-5c0,-1.105 0.895,-2 2,-2h14c1.105,0 2,0.895 2,2v1"></path><path stroke="#323232" stroke-linecap="round" stroke-linejoin="round" stroke-width="1.5" d="M7,11h1"></path><path stroke="#323232" stroke-linecap="round" stroke-linejoin="round" stroke-width="1.5" d="M11,21h-3c-0.552,0 -1,-0.436 -1,-0.972v-6.028h4"></path><path stroke="#323232" stroke-linecap="round" stroke-linejoin="round" stroke-width="1.5" d="M18.56,16.44l-2.12,2.12"></path><path stroke="#323232" stroke-linecap="round" stroke-linejoin="round" stroke-width="1.5" d="M16.44,16.44l2.12,2.12"></path><path stroke="#323232" stroke-linecap="round" stroke-linejoin="round" stroke-width="1.5" d="M14.318,20.682c-1.758,-1.758 -1.757,-4.607 0,-6.364c1.757,-1.757 4.606,-1.758 6.364,0c1.757,1.757 1.757,4.607 0,6.364c-1.757,1.757 -4.607,1.757 -6.364,0"></path></g></svg>