<?xml version="1.0" encoding="UTF-8"?><svg version="1.1" viewBox="0 0 24 24" xmlns="http://www.w3.org/2000/svg" xmlns:xlink="http://www.w3.org/1999/xlink"><!--Generated by IJSVG (https://github.com/iconjar/IJSVG)--><g fill="none"><path d="M0,0h24v24h-24v-24Z"></path><path stroke="#323232" stroke-linecap="round" stroke-linejoin="round" stroke-width="1.5" d="M7,8v-4c0,-0.552 0.448,-1 1,-1h8c0.552,0 1,0.448 1,1v4"></path><path stroke="#323232" stroke-linecap="round" stroke-linejoin="round" stroke-width="1.5" d="M7,17h-2c-1.105,0 -2,-0.895 -2,-2v-5c0,-1.105 0.895,-2 2,-2h14c1.105,0 2,0.895 2,2v2"></path><path stroke="#323232" stroke-linecap="round" stroke-linejoin="round" stroke-width="1.5" d="M20.121,14.907c1.172,1.172 1.172,3.071 0,4.243c-1.172,1.172 -3.071,1.172 -4.243,0c-1.172,-1.172 -1.172,-3.071 0,-4.243c1.172,-1.172 3.072,-1.172 4.243,1.77636e-15"></path><path stroke="#323232" stroke-linecap="round" stroke-linejoin="round" stroke-width="1.5" d="M22,21.03l-1.88,-1.88"></path><path stroke="#323232" stroke-linecap="round" stroke-linejoin="round" stroke-width="1.5" d="M13,21h-5c-0.552,0 -1,-0.448 -1,-1v-6.2h6"></path><path stroke="#323232" stroke-linecap="round" stroke-linejoin="round" stroke-width="1.5" d="M7,11h1"></path></g></svg>