<svg id="Layer_3" data-name="Layer 3" xmlns="http://www.w3.org/2000/svg" viewBox="0 0 24 24"><path d="M0,0H24V24H0Z" fill="none"/><path d="M20.582,9.353A8.84326,8.84326,0,0,1,21,12a9,9,0,1,1-9-9,8.84326,8.84326,0,0,1,2.647.418" fill="none" stroke="#323232" stroke-linecap="round" stroke-linejoin="round" stroke-width="1.5"/><polyline points="21 4.274 19.012 6.262 17.737 4.987" fill="none" stroke="#323232" stroke-linecap="round" stroke-linejoin="round" stroke-width="1.5"/><path d="M9.5,10V8a1.00036,1.00036,0,0,1,1-1h3a1.00036,1.00036,0,0,1,1,1v2" fill="none" stroke="#323232" stroke-linecap="round" stroke-linejoin="round" stroke-width="1.5"/><path d="M9.5,15H8a1,1,0,0,1-1-1V11a1,1,0,0,1,1-1h8a1,1,0,0,1,1,1v3a1,1,0,0,1-1,1H14.5" fill="none" stroke="#323232" stroke-linecap="round" stroke-linejoin="round" stroke-width="1.5"/><path d="M9.5,13h5v3a1.00036,1.00036,0,0,1-1,1h-3a1.00036,1.00036,0,0,1-1-1Z" fill="none" stroke="#323232" stroke-linecap="round" stroke-linejoin="round" stroke-width="1.5"/></svg>