<svg id="Layer_3" data-name="Layer 3" xmlns="http://www.w3.org/2000/svg" viewBox="0 0 24 24"><title>printer-more-dots</title><path d="M0,0H24V24H0Z" fill="none"/><path d="M7,8V4A1,1,0,0,1,8,3h8a1,1,0,0,1,1,1V8" fill="none" stroke="#323232" stroke-linecap="round" stroke-linejoin="round" stroke-width="1.5"/><path d="M7,17H5a2,2,0,0,1-2-2V10A2,2,0,0,1,5,8H19a2,2,0,0,1,2,2v1" fill="none" stroke="#323232" stroke-linecap="round" stroke-linejoin="round" stroke-width="1.5"/><path d="M7,11H8" fill="none" stroke="#323232" stroke-linecap="round" stroke-linejoin="round" stroke-width="1.5"/><path d="M11,21H8a1,1,0,0,1-1-1V14h4" fill="none" stroke="#323232" stroke-linecap="round" stroke-linejoin="round" stroke-width="1.5"/><path d="M14.318,20.682a4.5,4.5,0,1,1,6.364,0,4.5,4.5,0,0,1-6.364,0" fill="none" stroke="#323232" stroke-linecap="round" stroke-linejoin="round" stroke-width="1.5"/><path d="M19,17.45a.049.049,0,0,0-.049.05.05.05,0,0,0,.05.05.05.05,0,0,0,.05-.05A.051.051,0,0,0,19,17.45" fill="none" stroke="#323232" stroke-linecap="round" stroke-linejoin="round" stroke-width="1.5"/><path d="M16,17.45a.05.05,0,0,0,0,.1.05.05,0,0,0,0-.1" fill="none" stroke="#323232" stroke-linecap="round" stroke-linejoin="round" stroke-width="1.5"/></svg>