<?xml version="1.0" encoding="utf-8"?>
<!-- Generator: Adobe Illustrator 24.0.2, SVG Export Plug-In . SVG Version: 6.00 Build 0)  -->
<svg version="1.1" id="Layer_3" xmlns="http://www.w3.org/2000/svg" xmlns:xlink="http://www.w3.org/1999/xlink" x="0px" y="0px"
	 width="24px" height="24px" viewBox="0 0 24 24" enable-background="new 0 0 24 24" xml:space="preserve">
<g>
	<g>
		<path fill="none" stroke="#323232" stroke-width="1.5" stroke-linecap="round" stroke-linejoin="round" d="M9.5,10V8
			c0-0.552,0.448-1,1-1h3c0.552,0,1,0.448,1,1v2"/>
		<path fill="none" stroke="#323232" stroke-width="1.5" stroke-linecap="round" stroke-linejoin="round" d="M9.5,14.778H8.037
			C7.464,14.778,7,14.314,7,13.741v-2.704C7,10.464,7.464,10,8.037,10h7.926C16.536,10,17,10.464,17,11.037v2.704
			c0,0.573-0.464,1.037-1.037,1.037h-1.489"/>
		<path fill="none" stroke="#323232" stroke-width="1.5" stroke-linecap="round" stroke-linejoin="round" d="M9.5,13h5v3
			c0,0.552-0.448,1-1,1h-3c-0.552,0-1-0.448-1-1V13z"/>
		<path fill="none" stroke="#323232" stroke-width="1.5" stroke-linecap="round" stroke-linejoin="round" d="M19,21H5
			c-1.105,0-2-0.895-2-2V5c0-1.105,0.895-2,2-2h14c1.105,0,2,0.895,2,2v14C21,20.105,20.105,21,19,21z"/>
	</g>
	<path fill="none" d="M0,0h24v24H0V0z"/>
</g>
</svg>
