<?xml version="1.0" encoding="utf-8"?>
<!-- Generator: Adobe Illustrator 24.0.2, SVG Export Plug-In . SVG Version: 6.00 Build 0)  -->
<svg version="1.1" id="Layer_3" xmlns="http://www.w3.org/2000/svg" xmlns:xlink="http://www.w3.org/1999/xlink" x="0px" y="0px"
	 width="24px" height="24px" viewBox="0 0 24 24" enable-background="new 0 0 24 24" xml:space="preserve">
<g>
	<path fill="none" d="M0,0h24v24H0V0z"/>
	<g>
		<path fill="none" stroke="#323232" stroke-width="1.5" stroke-linecap="round" stroke-linejoin="round" d="M7,8V4
			c0-0.552,0.448-1,1-1h8c0.552,0,1,0.448,1,1v4"/>
		<path fill="none" stroke="#323232" stroke-width="1.5" stroke-linecap="round" stroke-linejoin="round" d="M7,17H5
			c-1.105,0-2-0.895-2-2v-5c0-1.105,0.895-2,2-2h14c1.105,0,2,0.895,2,2v1"/>
		<path fill="none" stroke="#323232" stroke-width="1.5" stroke-linecap="round" stroke-linejoin="round" d="M7,11h1"/>
		<path fill="none" stroke="#323232" stroke-width="1.5" stroke-linecap="round" stroke-linejoin="round" d="M11,21H8
			c-0.552,0-1-0.436-1-0.972V14h4"/>
		<path fill="none" stroke="#323232" stroke-width="1.5" stroke-linecap="round" stroke-linejoin="round" d="M20.738,20.475
			c-0.145,0-0.262,0.119-0.262,0.263S20.594,21,20.738,21c0.144,0,0.262-0.118,0.261-0.263C21,20.593,20.883,20.475,20.738,20.475"
			/>
		<path fill="none" stroke="#323232" stroke-width="1.5" stroke-linecap="round" stroke-linejoin="round" d="M21,17.5
			c-2.049,0.045-3.455,1.451-3.5,3.5"/>
		<path fill="none" stroke="#323232" stroke-width="1.5" stroke-linecap="round" stroke-linejoin="round" d="M14,21
			c0.01-0.885,0.16-1.715,0.428-2.474c0.686-1.943,2.155-3.411,4.098-4.098C19.285,14.16,20.115,14.01,21,14"/>
	</g>
</g>
</svg>
