<svg id="Layer_3" data-name="Layer 3" xmlns="http://www.w3.org/2000/svg" viewBox="0 0 24 24"><title>Artboard 281</title><path d="M0,0H24V24H0Z" fill="none"/><path d="M9.5,8h5a2,2,0,0,1,1.98,2.278l-.549,3.916a2,2,0,0,1-1.093,1.514l-2.4,1.189a.981.981,0,0,1-.874,0l-2.4-1.189a2,2,0,0,1-1.094-1.515L7.52,10.278A2,2,0,0,1,9.5,8Z" fill="none" stroke="#323232" stroke-linecap="round" stroke-linejoin="round" stroke-width="1.5"/><line x1="7.628" y1="11" x2="16.382" y2="11" fill="none" stroke="#323232" stroke-linecap="round" stroke-linejoin="round" stroke-width="1.5"/><circle cx="12" cy="12" r="9" fill="none" stroke="#323232" stroke-linecap="round" stroke-linejoin="round" stroke-width="1.5"/><line x1="12" y1="17" x2="12" y2="11" fill="none" stroke="#323232" stroke-linecap="round" stroke-linejoin="round" stroke-width="1.5"/></svg>