<svg id="Layer_3" data-name="Layer 3" xmlns="http://www.w3.org/2000/svg" viewBox="0 0 24 24"><title>Artboard 282</title><rect x="3" y="3" width="18" height="18" rx="2" stroke-width="1.5" stroke="#323232" stroke-linecap="round" stroke-linejoin="round" fill="none"/><path d="M15.778,10.667a1.111,1.111,0,0,1,1.111,1.111v1.111a1.1,1.1,0,0,0,.611.978v.266a1.1,1.1,0,0,0-.611.978v1.111a1.111,1.111,0,0,1-1.111,1.111" fill="none" stroke="#323232" stroke-linecap="round" stroke-linejoin="round" stroke-width="1.5"/><path d="M8.222,17.333a1.111,1.111,0,0,1-1.111-1.111V15.111a1.1,1.1,0,0,0-.611-.978v-.266a1.1,1.1,0,0,0,.611-.978V11.778a1.111,1.111,0,0,1,1.111-1.111" fill="none" stroke="#323232" stroke-linecap="round" stroke-linejoin="round" stroke-width="1.5"/><line x1="21" y1="7" x2="3" y2="7" fill="none" stroke="#323232" stroke-linecap="round" stroke-linejoin="round" stroke-width="1.5"/><circle cx="14.242" cy="14" r="0.05" fill="none" stroke="#323232" stroke-linecap="round" stroke-linejoin="round" stroke-width="1.5"/><path id="Shape_3077" data-name="Shape 3077" d="M14.292,14a.05.05,0,0,0-.05-.05.05.05,0,0,0-.05.05.05.05,0,1,0,.1,0" fill="none" stroke="#323232" stroke-linecap="round" stroke-linejoin="round" stroke-width="1.5"/><path id="Shape_3077-2" data-name="Shape 3077" d="M9.808,14a.05.05,0,0,0-.05-.05.05.05,0,0,0-.05.05.05.05,0,0,0,.1,0" fill="none" stroke="#323232" stroke-linecap="round" stroke-linejoin="round" stroke-width="1.5"/><path id="Shape_3077-3" data-name="Shape 3077" d="M12.05,14a.05.05,0,0,0-.05-.05.05.05,0,0,0-.05.05.05.05,0,0,0,.1,0" fill="none" stroke="#323232" stroke-linecap="round" stroke-linejoin="round" stroke-width="1.5"/><rect width="24" height="24" fill="none"/></svg>