<?xml version="1.0" encoding="utf-8"?>
<!-- Generator: Adobe Illustrator 24.0.2, SVG Export Plug-In . SVG Version: 6.00 Build 0)  -->
<svg version="1.1" id="Layer_3" xmlns="http://www.w3.org/2000/svg" xmlns:xlink="http://www.w3.org/1999/xlink" x="0px" y="0px"
	 width="24px" height="24px" viewBox="0 0 24 24" enable-background="new 0 0 24 24" xml:space="preserve">
<g>
	<g>
		
			<line fill="none" stroke="#323232" stroke-width="1.5" stroke-linecap="round" stroke-linejoin="round" stroke-miterlimit="10" x1="8" y1="5" x2="3" y2="5"/>
		
			<path fill="none" stroke="#323232" stroke-width="1.5" stroke-linecap="round" stroke-linejoin="round" stroke-miterlimit="10" d="
			M20,7H9C8.448,7,8,6.552,8,6V4c0-0.552,0.448-1,1-1h11c0.552,0,1,0.448,1,1v2C21,6.552,20.552,7,20,7z"/>
		
			<line fill="none" stroke="#323232" stroke-width="1.5" stroke-linecap="round" stroke-linejoin="round" stroke-miterlimit="10" x1="8" y1="12" x2="3" y2="12"/>
		
			<path fill="none" stroke="#323232" stroke-width="1.5" stroke-linecap="round" stroke-linejoin="round" stroke-miterlimit="10" d="
			M20,14H9c-0.552,0-1-0.448-1-1v-2c0-0.552,0.448-1,1-1h11c0.552,0,1,0.448,1,1v2C21,13.552,20.552,14,20,14z"/>
		
			<path fill="none" stroke="#323232" stroke-width="1.5" stroke-linecap="round" stroke-linejoin="round" stroke-miterlimit="10" d="
			M20,21H9c-0.552,0-1-0.448-1-1v-2c0-0.552,0.448-1,1-1h11c0.552,0,1,0.448,1,1v2C21,20.552,20.552,21,20,21z"/>
		
			<path fill="none" stroke="#323232" stroke-width="1.5" stroke-linecap="round" stroke-linejoin="round" stroke-miterlimit="10" d="
			M8,19H4c-0.552,0-1-0.448-1-1V3"/>
	</g>
	<rect fill="none" width="24" height="24"/>
</g>
</svg>
