<?xml version="1.0" encoding="utf-8"?>
<!-- Generator: Adobe Illustrator 24.0.2, SVG Export Plug-In . SVG Version: 6.00 Build 0)  -->
<svg version="1.1" id="Layer_3" xmlns="http://www.w3.org/2000/svg" xmlns:xlink="http://www.w3.org/1999/xlink" x="0px" y="0px"
	 width="24px" height="24px" viewBox="0 0 24 24" enable-background="new 0 0 24 24" xml:space="preserve">
<g>
	<g>
		
			<path fill="none" stroke="#323232" stroke-width="1.5" stroke-linecap="round" stroke-linejoin="round" stroke-miterlimit="10" d="
			M18,9H6C4.895,9,4,8.105,4,7V5c0-1.105,0.895-2,2-2h12c1.105,0,2,0.895,2,2v2C20,8.105,19.105,9,18,9z"/>
		
			<line fill="none" stroke="#323232" stroke-width="1.5" stroke-linecap="round" stroke-linejoin="round" stroke-miterlimit="10" x1="12" y1="9" x2="12" y2="17"/>
		
			<path fill="none" stroke="#323232" stroke-width="1.5" stroke-linecap="round" stroke-linejoin="round" stroke-miterlimit="10" d="
			M13.037,21h-2.074C10.431,21,10,20.569,10,20.037v-2.074C10,17.431,10.431,17,10.963,17h2.074C13.569,17,14,17.431,14,17.963
			v2.074C14,20.569,13.569,21,13.037,21z"/>
		
			<path fill="none" stroke="#323232" stroke-width="1.5" stroke-linecap="round" stroke-linejoin="round" stroke-miterlimit="10" d="
			M19,16.846V15c0-1.105-0.895-2-2-2H7c-1.105,0-2,0.895-2,2v1.846"/>
		
			<path fill="none" stroke="#323232" stroke-width="1.5" stroke-linecap="round" stroke-linejoin="round" stroke-miterlimit="10" d="
			M20.037,21h-2.074C17.431,21,17,20.569,17,20.037v-2.074C17,17.431,17.431,17,17.963,17h2.074C20.569,17,21,17.431,21,17.963
			v2.074C21,20.569,20.569,21,20.037,21z"/>
		
			<path fill="none" stroke="#323232" stroke-width="1.5" stroke-linecap="round" stroke-linejoin="round" stroke-miterlimit="10" d="
			M6.037,21H3.963C3.431,21,3,20.569,3,20.037v-2.074C3,17.431,3.431,17,3.963,17h2.074C6.569,17,7,17.431,7,17.963v2.074
			C7,20.569,6.569,21,6.037,21z"/>
	</g>
	<rect fill="none" width="24" height="24"/>
</g>
</svg>
