<?xml version="1.0" encoding="utf-8"?>
<!-- Generator: Adobe Illustrator 24.0.2, SVG Export Plug-In . SVG Version: 6.00 Build 0)  -->
<svg version="1.1" id="Layer_3" xmlns="http://www.w3.org/2000/svg" xmlns:xlink="http://www.w3.org/1999/xlink" x="0px" y="0px"
	 width="24px" height="24px" viewBox="0 0 24 24" enable-background="new 0 0 24 24" xml:space="preserve">
<g>
	<g>
		
			<path fill="none" stroke="#323232" stroke-width="1.5" stroke-linecap="round" stroke-linejoin="round" stroke-miterlimit="10" d="
			M18,17h2c0.552,0,1,0.448,1,1v2c0,0.552-0.448,1-1,1h-2c-0.552,0-1-0.448-1-1v-2C17,17.448,17.448,17,18,17z"/>
		
			<path fill="none" stroke="#323232" stroke-width="1.5" stroke-linecap="round" stroke-linejoin="round" stroke-miterlimit="10" d="
			M4,3h2c0.552,0,1,0.448,1,1v2c0,0.552-0.448,1-1,1H4C3.448,7,3,6.552,3,6V4C3,3.448,3.448,3,4,3z"/>
		
			<path fill="none" stroke="#323232" stroke-width="1.5" stroke-linecap="round" stroke-linejoin="round" stroke-miterlimit="10" d="
			M11,10h2c0.552,0,1,0.448,1,1v2c0,0.552-0.448,1-1,1h-2c-0.552,0-1-0.448-1-1v-2C10,10.448,10.448,10,11,10z"/>
		
			<path fill="none" stroke="#323232" stroke-width="1.5" stroke-linecap="round" stroke-linejoin="round" stroke-miterlimit="10" d="
			M11,5h8c1.105,0,2,0.895,2,2v3c0,1.105-0.895,2-2,2h-2"/>
		
			<path fill="none" stroke="#323232" stroke-width="1.5" stroke-linecap="round" stroke-linejoin="round" stroke-miterlimit="10" d="
			M13,19H5c-1.105,0-2-0.895-2-2v-3c0-1.105,0.895-2,2-2h2"/>
	</g>
	<rect transform="matrix(-1 -1.224647e-16 1.224647e-16 -1 24 24)" fill="none" width="24" height="24"/>
</g>
</svg>
