<?xml version="1.0" encoding="utf-8"?>
<!-- Generator: Adobe Illustrator 24.0.2, SVG Export Plug-In . SVG Version: 6.00 Build 0)  -->
<svg version="1.1" id="Layer_3" xmlns="http://www.w3.org/2000/svg" xmlns:xlink="http://www.w3.org/1999/xlink" x="0px" y="0px"
	 width="24px" height="24px" viewBox="0 0 24 24" enable-background="new 0 0 24 24" xml:space="preserve">
<g>
	<g>
		<path fill="none" stroke="#323232" stroke-width="1.5" stroke-linecap="round" stroke-linejoin="round" d="M7,6V4
			c0-0.552-0.448-1-1-1H4C3.448,3,3,3.448,3,4v2c0,0.552,0.448,1,1,1h2C6.552,7,7,6.552,7,6z"/>
		<path fill="none" stroke="#323232" stroke-width="1.5" stroke-linecap="round" stroke-linejoin="round" d="M7.846,14v-1.846
			c0-0.552-0.448-1-1-1H5c-0.552,0-1,0.448-1,1V14c0,0.552,0.448,1,1,1h1.846C7.398,15,7.846,14.552,7.846,14z"/>
		<path fill="none" stroke="#323232" stroke-width="1.5" stroke-linecap="round" stroke-linejoin="round" d="M14,9V7
			c0-0.552-0.448-1-1-1h-2c-0.552,0-1,0.448-1,1v2c0,0.552,0.448,1,1,1h2C13.552,10,14,9.552,14,9z"/>
		<path fill="none" stroke="#323232" stroke-width="1.5" stroke-linecap="round" stroke-linejoin="round" d="M13,17v-3
			c0-0.552,0.448-1,1-1h3v-3c0-0.552,0.448-1,1-1h2c0.552,0,1,0.448,1,1v10c0,0.552-0.448,1-1,1H10c-0.552,0-1-0.448-1-1v-2
			c0-0.552,0.448-1,1-1H13z"/>
	</g>
	<rect fill="none" width="24" height="24"/>
</g>
</svg>
