<svg id="Layer_3" data-name="Layer 3" xmlns="http://www.w3.org/2000/svg" viewBox="0 0 24 24"><title>Artboard 298</title><polyline points="8.5 11.5 6.5 9.5 8.5 7.5" fill="none" stroke="#323232" stroke-linecap="round" stroke-linejoin="round" stroke-width="1.5"/><polyline points="11.5 7.5 13.5 9.5 11.5 11.5" fill="none" stroke="#323232" stroke-linecap="round" stroke-linejoin="round" stroke-width="1.5"/><path d="M17,8h2a2,2,0,0,1,2,2v9a2,2,0,0,1-2,2H8a2,2,0,0,1-2-2V16" fill="none" stroke="#323232" stroke-linecap="round" stroke-linejoin="round" stroke-width="1.5"/><path d="M15,16H5a2,2,0,0,1-2-2V5A2,2,0,0,1,5,3H15a2,2,0,0,1,2,2v9A2,2,0,0,1,15,16Z" fill="none" stroke="#323232" stroke-linecap="round" stroke-linejoin="round" stroke-width="1.5"/><path d="M0,0H24V24H0Z" fill="none"/></svg>