<?xml version="1.0" encoding="utf-8"?>
<!-- Generator: Adobe Illustrator 24.0.2, SVG Export Plug-In . SVG Version: 6.00 Build 0)  -->
<svg version="1.1" id="Layer_3" xmlns="http://www.w3.org/2000/svg" xmlns:xlink="http://www.w3.org/1999/xlink" x="0px" y="0px"
	 width="24px" height="24px" viewBox="0 0 24 24" enable-background="new 0 0 24 24" xml:space="preserve">
<g>
	<g>
		
			<path fill="none" stroke="#323232" stroke-width="1.5" stroke-linecap="round" stroke-linejoin="round" stroke-miterlimit="10" d="
			M7.5,9h-3C3.672,9,3,8.328,3,7.5v-3C3,3.672,3.672,3,4.5,3h3C8.328,3,9,3.672,9,4.5v3C9,8.328,8.328,9,7.5,9z"/>
		
			<path fill="none" stroke="#323232" stroke-width="1.5" stroke-linecap="round" stroke-linejoin="round" stroke-miterlimit="10" d="
			M19.5,9h-6C12.672,9,12,8.328,12,7.5v-3C12,3.672,12.672,3,13.5,3h6C20.328,3,21,3.672,21,4.5v3C21,8.328,20.328,9,19.5,9z"/>
		
			<path fill="none" stroke="#323232" stroke-width="1.5" stroke-linecap="round" stroke-linejoin="round" stroke-miterlimit="10" d="
			M19.5,18h-3c-0.828,0-1.5-0.672-1.5-1.5v-3c0-0.828,0.672-1.5,1.5-1.5h3c0.828,0,1.5,0.672,1.5,1.5v3C21,17.328,20.328,18,19.5,18
			z"/>
		
			<line fill="none" stroke="#323232" stroke-width="1.5" stroke-linecap="round" stroke-linejoin="round" stroke-miterlimit="10" x1="6" y1="16.714" x2="9" y2="16.714"/>
		
			<line fill="none" stroke="#323232" stroke-width="1.5" stroke-linecap="round" stroke-linejoin="round" stroke-miterlimit="10" x1="7.5" y1="18.214" x2="7.5" y2="15.214"/>
		
			<path fill="none" stroke="#323232" stroke-width="1.5" stroke-linecap="round" stroke-linejoin="round" stroke-miterlimit="10" d="
			M10,21H5c-1.105,0-2-0.895-2-2v-4.571c0-1.105,0.895-2,2-2h5c1.105,0,2,0.895,2,2V19C12,20.105,11.105,21,10,21z"/>
	</g>
	<rect fill="none" width="24" height="24"/>
</g>
</svg>
