<?xml version="1.0" encoding="utf-8"?>
<!-- Generator: Adobe Illustrator 24.0.2, SVG Export Plug-In . SVG Version: 6.00 Build 0)  -->
<svg version="1.1" id="Layer_3" xmlns="http://www.w3.org/2000/svg" xmlns:xlink="http://www.w3.org/1999/xlink" x="0px" y="0px"
	 width="24px" height="24px" viewBox="0 0 24 24" enable-background="new 0 0 24 24" xml:space="preserve">
<g>
	<g>
		<path fill="none" stroke="#323232" stroke-width="1.5" stroke-linecap="round" stroke-linejoin="round" d="M19.414,6.414
			l-2.828-2.828C16.211,3.211,15.702,3,15.172,3H6C4.895,3,4,3.895,4,5v14c0,1.105,0.895,2,2,2h12c1.105,0,2-0.895,2-2V7.828
			C20,7.298,19.789,6.789,19.414,6.414z"/>
		<path fill="none" stroke="#323232" stroke-width="1.5" stroke-linecap="round" stroke-linejoin="round" d="M20,8h-4
			c-0.552,0-1-0.448-1-1V3"/>
		<polyline fill="none" stroke="#323232" stroke-width="1.5" stroke-linecap="round" stroke-linejoin="round" points="13.6,12 
			16,14.4 13.6,16.8 		"/>
		<polyline fill="none" stroke="#323232" stroke-width="1.5" stroke-linecap="round" stroke-linejoin="round" points="10.4,12 
			8,14.4 10.4,16.8 		"/>
	</g>
	<path fill="none" d="M0,0h24v24H0V0z"/>
</g>
</svg>
