<?xml version="1.0" encoding="utf-8"?>
<!-- Generator: Adobe Illustrator 24.0.2, SVG Export Plug-In . SVG Version: 6.00 Build 0)  -->
<svg version="1.1" id="Layer_3" xmlns="http://www.w3.org/2000/svg" xmlns:xlink="http://www.w3.org/1999/xlink" x="0px" y="0px"
	 width="24px" height="24px" viewBox="0 0 24 24" enable-background="new 0 0 24 24" xml:space="preserve">
<g>
	<g>
		
			<path fill="none" stroke="#323232" stroke-width="1.5" stroke-linecap="round" stroke-linejoin="round" stroke-miterlimit="10" d="
			M7.091,12V8.091c0-0.552,0.448-1,1-1H11c0.552,0,1,0.448,1,1V12"/>
		
			<path fill="none" stroke="#323232" stroke-width="1.5" stroke-linecap="round" stroke-linejoin="round" stroke-miterlimit="10" d="
			M7.091,12H12v4.909H8.091c-0.552,0-1-0.448-1-1V12z"/>
		
			<path fill="none" stroke="#323232" stroke-width="1.5" stroke-linecap="round" stroke-linejoin="round" stroke-miterlimit="10" d="
			M12,12h3.909c0.552,0,1,0.448,1,1v2.909c0,0.552-0.448,1-1,1H12"/>
		
			<path fill="none" stroke="#323232" stroke-width="1.5" stroke-linecap="round" stroke-linejoin="round" stroke-miterlimit="10" d="
			M20,3h-2.909c-0.552,0-1,0.448-1,1v2.909c0,0.552,0.448,1,1,1H20c0.552,0,1-0.448,1-1V4C21,3.448,20.552,3,20,3z"/>
		
			<path fill="none" stroke="#323232" stroke-width="1.5" stroke-linecap="round" stroke-linejoin="round" stroke-miterlimit="10" d="
			M21,12v7.364C21,20.267,20.267,21,19.364,21H4.636C3.733,21,3,20.267,3,19.364V4.636C3,3.733,3.733,3,4.636,3H12"/>
	</g>
	<path fill="none" d="M0,0h24v24H0V0z"/>
</g>
</svg>
