<?xml version="1.0" encoding="utf-8"?>
<!-- Generator: Adobe Illustrator 24.0.2, SVG Export Plug-In . SVG Version: 6.00 Build 0)  -->
<svg version="1.1" id="Layer_1" xmlns="http://www.w3.org/2000/svg" xmlns:xlink="http://www.w3.org/1999/xlink" x="0px" y="0px"
	 width="24px" height="24px" viewBox="0 0 24 24" style="enable-background:new 0 0 24 24;" xml:space="preserve">
<style type="text/css">
	.st0{fill:none;stroke:#323232;stroke-width:1.5;stroke-linecap:round;stroke-linejoin:round;}
	.st1{fill:none;}
</style>
<g>
	<g>
		<path class="st0" d="M13.7,13v-1.3c0-0.9-0.8-1.7-1.7-1.7s-1.7,0.8-1.7,1.7V13"/>
		<path class="st0" d="M14,17h-4c-0.5,0-1-0.4-1-1v-2c0-0.5,0.4-1,1-1h4c0.5,0,1,0.4,1,1v2C15,16.6,14.6,17,14,17z"/>
		<path class="st0" d="M19,4h-5"/>
		<path class="st0" d="M19.2,20H4.8c-1,0-1.8-0.8-1.8-1.8V5.8C3,4.8,3.8,4,4.8,4h4c0.5,0,1,0.2,1.3,0.6l1.4,1.5
			c0.3,0.4,0.8,0.6,1.3,0.6h6.4c1,0,1.8,0.8,1.8,1.8v9.8C21,19.2,20.2,20,19.2,20z"/>
	</g>
	<rect class="st1" width="24" height="24"/>
</g>
</svg>
