<svg id="Layer_3" data-name="Layer 3" xmlns="http://www.w3.org/2000/svg" viewBox="0 0 24 24"><title>protective-mask</title><line x1="9.222" y1="13.667" x2="14.778" y2="13.667" fill="none" stroke="#323232" stroke-linecap="round" stroke-linejoin="round" stroke-width="1.5"/><line x1="9.222" y1="10.333" x2="14.778" y2="10.333" fill="none" stroke="#323232" stroke-linecap="round" stroke-linejoin="round" stroke-width="1.5"/><path d="M13.21,4.688l4.395,1.4A2,2,0,0,1,19,7.989v8.022a2,2,0,0,1-1.395,1.906L13.21,19.312a3.983,3.983,0,0,1-2.42,0L6.4,17.917A2,2,0,0,1,5,16.011V7.989A2,2,0,0,1,6.4,6.083l4.395-1.4A3.983,3.983,0,0,1,13.21,4.688Z" fill="none" stroke="#323232" stroke-linecap="round" stroke-linejoin="round" stroke-width="1.5"/><path d="M19,9.222h.222a2.778,2.778,0,1,1,0,5.556H19" fill="none" stroke="#323232" stroke-linecap="round" stroke-linejoin="round" stroke-width="1.5"/><path d="M5,14.778H4.778a2.778,2.778,0,0,1,0-5.556H5" fill="none" stroke="#323232" stroke-linecap="round" stroke-linejoin="round" stroke-width="1.5"/><line x1="9.222" y1="13.667" x2="14.778" y2="13.667" fill="none" stroke="#323232" stroke-linecap="round" stroke-linejoin="round" stroke-width="1.5"/><line x1="9.222" y1="10.333" x2="14.778" y2="10.333" fill="none" stroke="#323232" stroke-linecap="round" stroke-linejoin="round" stroke-width="1.5"/><rect x="-0.002" width="24.002" height="24" fill="none"/><rect x="-0.002" width="24.002" height="24" transform="translate(23.998 24) rotate(180)" fill="none"/></svg>