<svg id="Layer_3" data-name="Layer 3" xmlns="http://www.w3.org/2000/svg" viewBox="0 0 24 24"><title>protein</title><path d="M15.889,8H8.111A2.111,2.111,0,0,1,6,5.889V5.111A2.111,2.111,0,0,1,8.111,3h7.778A2.111,2.111,0,0,1,18,5.111v.778A2.111,2.111,0,0,1,15.889,8Z" fill="none" stroke="#323232" stroke-linecap="round" stroke-linejoin="round" stroke-width="1.5"/><path d="M16.833,21H7.167A3.167,3.167,0,0,1,4,17.833V11.166A3.167,3.167,0,0,1,7.167,8h9.667A3.167,3.167,0,0,1,20,11.167v6.667A3.167,3.167,0,0,1,16.833,21Z" fill="none" stroke="#323232" stroke-linecap="round" stroke-linejoin="round" stroke-width="1.5"/><path d="M12.227,16.789,13.375,14.5h-2.75l1.148-2.289" fill="none" stroke="#323232" stroke-linecap="round" stroke-linejoin="round" stroke-width="1.5"/><line x1="12" y1="5.296" x2="12" y2="5.806" fill="none" stroke="#323232" stroke-linecap="round" stroke-linejoin="round" stroke-width="1.5"/><line x1="9.25" y1="5.296" x2="9.25" y2="5.806" fill="none" stroke="#323232" stroke-linecap="round" stroke-linejoin="round" stroke-width="1.5"/><line x1="14.75" y1="5.296" x2="14.75" y2="5.806" fill="none" stroke="#323232" stroke-linecap="round" stroke-linejoin="round" stroke-width="1.5"/><path d="M0,0H24V24H0Z" fill="none"/></svg>