<svg id="Layer_3" data-name="Layer 3" xmlns="http://www.w3.org/2000/svg" viewBox="0 0 24 24"><title>puzzle_2</title><path d="M15.92364,8.46889l-3.3862,3.38638a2.4595,2.4595,0,0,0,0,3.47813l.053.053a2.45921,2.45921,0,0,0,3.478,0l3.38816-3.3883a5.27014,5.27014,0,0,0,0-7.45287L19.455,4.5437a5.27164,5.27164,0,0,0-7.45549,0L4.54408,11.99955a5.27225,5.27225,0,0,0,0,7.45583h0a5.27162,5.27162,0,0,0,7.45546,0h0" fill="none" stroke="#323232" stroke-linecap="round" stroke-linejoin="round" stroke-width="1.5"/><path d="M0,0H24V24H0Z" fill="none"/></svg>