<?xml version="1.0" encoding="utf-8"?>
<!-- Generator: Adobe Illustrator 24.0.2, SVG Export Plug-In . SVG Version: 6.00 Build 0)  -->
<svg version="1.1" id="Layer_1" xmlns="http://www.w3.org/2000/svg" xmlns:xlink="http://www.w3.org/1999/xlink" x="0px" y="0px"
	 width="24px" height="24px" viewBox="0 0 24 24" enable-background="new 0 0 24 24" xml:space="preserve">
<g>
	<g>
		<g>
			
				<path fill="none" stroke="#323232" stroke-width="1.5" stroke-linecap="round" stroke-linejoin="round" stroke-miterlimit="10" d="
				M5.167,10.498c-0.437-0.089-0.911-0.072-1.4,0.091c-0.827,0.276-1.482,0.987-1.687,1.835c-0.422,1.743,0.887,3.299,2.559,3.299
				c0.181,0,0.357-0.019,0.528-0.053v3.22C5.167,20.055,6.112,21,7.278,21h11.611C20.055,21,21,20.055,21,18.889V7.278
				c0-1.166-0.945-2.111-2.111-2.111h-3.22c0.089-0.437,0.072-0.911-0.091-1.4C15.301,2.94,14.59,2.285,13.743,2.08
				C12,1.658,10.444,2.967,10.444,4.639c0,0.181,0.019,0.357,0.053,0.528h-3.22c-1.166,0-2.111,0.945-2.111,2.111V10.498z"/>
		</g>
		<path fill="none" stroke="#323232" stroke-width="1.5" stroke-linecap="round" stroke-linejoin="round" d="M15.501,11.093
			l-2.813,2.813L11,12.219"/>
	</g>
	<path fill="none" d="M0,0h24v24H0V0z"/>
</g>
</svg>
