<svg id="Layer_3" data-name="Layer 3" xmlns="http://www.w3.org/2000/svg" viewBox="0 0 24 24"><title>puzzle-plug-in</title><path d="M21,9.49569h-.75a2.5,2.5,0,0,0-2.5,2.5h0a2.5,2.5,0,0,0,2.5,2.5H21v2.5a2,2,0,0,1-2,2H16v.5a2.5,2.5,0,0,1-2.5,2.5h0a2.5,2.5,0,0,1-2.5-2.5v-.5H8a2,2,0,0,1-2-2v-2.5H5.5a2.5,2.5,0,0,1-2.5-2.5H3a2.5,2.5,0,0,1,2.5-2.5H6v-2.5a2,2,0,0,1,2-2h3v-.5a2.5,2.5,0,0,1,2.5-2.5h0a2.5,2.5,0,0,1,2.5,2.5v.5h3a2,2,0,0,1,2,2Z" fill="none" stroke="#323232" stroke-linecap="round" stroke-linejoin="round" stroke-width="1.5"/><rect width="24" height="24" fill="none"/></svg>