<svg id="Layer_3" data-name="Layer 3" xmlns="http://www.w3.org/2000/svg" viewBox="0 0 24 24"><title>puzzle</title><path d="M0,0H24V24H0Z" fill="none"/><path d="M21,19V14.31348a.5.5,0,0,0-.72361-.44721l-.76451.38225a2.42423,2.42423,0,0,1-1.08418.25594h-.00341A2.42429,2.42429,0,0,1,16,12.08017v-.15311a2.4243,2.4243,0,0,1,2.43151-2.42429h0a2.42448,2.42448,0,0,1,1.077.25593l.91263.45632A.4.4,0,0,0,21,9.85725V5a2,2,0,0,0-2-2H14.31348a.5.5,0,0,0-.44721.72361l.38225.76451a2.42423,2.42423,0,0,1,.25594,1.08418v.00341A2.42429,2.42429,0,0,1,12.08017,8h-.15311A2.4243,2.4243,0,0,1,9.50277,5.56849h0a2.42427,2.42427,0,0,1,.25593-1.077l.45632-.91264A.4.4,0,0,0,9.85725,3H5A2,2,0,0,0,3,5V9.68652a.5.5,0,0,0,.72361.44721l.76451-.38225A2.42423,2.42423,0,0,1,5.5723,9.49554h.00341A2.42429,2.42429,0,0,1,8,11.91983v.15311a2.4243,2.4243,0,0,1-2.43151,2.42429h0a2.42435,2.42435,0,0,1-1.077-.25593L3.57889,13.785A.4.4,0,0,0,3,14.14275V19a2,2,0,0,0,2,2H9.68652a.5.5,0,0,0,.44721-.72361l-.38225-.76451a2.42423,2.42423,0,0,1-.25594-1.08418v-.0034A2.42429,2.42429,0,0,1,11.91983,16h.15311a2.4243,2.4243,0,0,1,2.42429,2.43151h0a2.42435,2.42435,0,0,1-.25593,1.077l-.45632.91264A.4.4,0,0,0,14.14275,21H19A2,2,0,0,0,21,19Z" fill="none" stroke="#323232" stroke-linecap="round" stroke-linejoin="round" stroke-width="1.5"/><path d="M0,0H24V24H0Z" fill="none"/></svg>