<svg id="Layer_3" data-name="Layer 3" xmlns="http://www.w3.org/2000/svg" viewBox="0 0 24 24"><title>puzzle_1</title><path d="M21,15.669v3.22" fill="none" stroke="#323232" stroke-linecap="round" stroke-linejoin="round" stroke-width="1.5"/><path d="M20.999,7.277v3.22H21a2.68763,2.68763,0,0,0-1.4.091,2.60933,2.60933,0,0,0-1.687,1.835,2.64417,2.64417,0,0,0,2.559,3.299A2.70132,2.70132,0,0,0,21,15.669v3.22A2.11084,2.11084,0,0,1,18.889,21h-3.22v.001a2.68763,2.68763,0,0,0-.091-1.4,2.60933,2.60933,0,0,0-1.835-1.687,2.64417,2.64417,0,0,0-3.299,2.559,2.70132,2.70132,0,0,0,.053.528L7.278,21a2.11062,2.11062,0,0,1-2.111-2.11V15.67a2.70132,2.70132,0,0,1-.528.053A2.64417,2.64417,0,0,1,2.08,12.424a2.60933,2.60933,0,0,1,1.687-1.835,2.68763,2.68763,0,0,1,1.4-.091H5.166V7.278A2.11084,2.11084,0,0,1,7.277,5.167h3.22a2.70132,2.70132,0,0,1-.053-.528A2.64417,2.64417,0,0,1,13.743,2.08a2.613,2.613,0,0,1,1.835,1.687,2.68763,2.68763,0,0,1,.091,1.4h3.22A2.11084,2.11084,0,0,1,21,7.278" fill="none" stroke="#323232" stroke-linecap="round" stroke-linejoin="round" stroke-width="1.5"/><path d="M0,0H24V24H0Z" fill="none"/></svg>