<svg id="Layer_3" data-name="Layer 3" xmlns="http://www.w3.org/2000/svg" viewBox="0 0 24 24"><title>puzzle-plug-in-square</title><rect x="3" y="3" width="18" height="18" rx="4" stroke-width="1.5" stroke="#323232" stroke-linecap="round" stroke-linejoin="round" fill="none"/><path d="M10.75,16H9a1,1,0,0,1-1-1V13.75H7.75A1.75,1.75,0,0,1,6,12H6a1.75,1.75,0,0,1,1.75-1.75H8V9A1,1,0,0,1,9,8h1.75V7.75A1.75,1.75,0,0,1,12.5,6h0a1.75,1.75,0,0,1,1.75,1.75V8H16a1,1,0,0,1,1,1v1.5h-.5A1.5,1.5,0,0,0,15,12h0a1.5,1.5,0,0,0,1.5,1.5H17V15a1,1,0,0,1-1,1H14.25v.25A1.75,1.75,0,0,1,12.5,18h0a1.75,1.75,0,0,1-1.75-1.75Z" fill="none" stroke="#323232" stroke-linecap="round" stroke-linejoin="round" stroke-width="1.5"/><path d="M24,24H0V0H24Z" fill="none"/></svg>