<svg id="Layer_3" data-name="Layer 3" xmlns="http://www.w3.org/2000/svg" viewBox="0 0 24 24"><rect width="24" height="24" fill="none"/><path d="M8,8,8,4.69522A1.51248,1.51248,0,0,1,9.28122,3.20959a17.73849,17.73849,0,0,1,5.43755,0A1.51248,1.51248,0,0,1,16,4.69522l0,5.30472a2,2,0,0,1-2,2H10a2,2,0,0,0-2,2l0,5.30488a1.5125,1.5125,0,0,0,1.28125,1.48563,17.73867,17.73867,0,0,0,5.43748,0A1.51252,1.51252,0,0,0,16,19.30477L16,16" fill="none" stroke="#323232" stroke-linecap="round" stroke-linejoin="round" stroke-width="1.5"/><path d="M16,8l3.30478,0a1.51248,1.51248,0,0,1,1.48563,1.28123,17.73843,17.73843,0,0,1,0,5.43754A1.51247,1.51247,0,0,1,19.30478,16l-7.30486,0" fill="none" stroke="#323232" stroke-linecap="round" stroke-linejoin="round" stroke-width="1.5"/><path d="M12,8H4.69522A1.51249,1.51249,0,0,0,3.20959,9.28127a17.7386,17.7386,0,0,0,0,5.43747A1.51251,1.51251,0,0,0,4.69523,16L8,16" fill="none" stroke="#323232" stroke-linecap="round" stroke-linejoin="round" stroke-width="1.5"/><path d="M10.55006,5.50006A.05.05,0,1,1,10.5,5.45a.05.05,0,0,1,.05006.05006" fill="none" stroke="#323232" stroke-linecap="round" stroke-linejoin="round" stroke-width="1.5"/><path d="M13.55006,18.50023A.05.05,0,1,1,13.5,18.45016a.05.05,0,0,1,.05006.05007" fill="none" stroke="#323232" stroke-linecap="round" stroke-linejoin="round" stroke-width="1.5"/></svg>