<?xml version="1.0" encoding="utf-8"?>
<!-- Generator: Adobe Illustrator 23.1.0, SVG Export Plug-In . SVG Version: 6.00 Build 0)  -->
<svg version="1.1" id="icons" xmlns="http://www.w3.org/2000/svg" xmlns:xlink="http://www.w3.org/1999/xlink" x="0px" y="0px"
	 width="24px" height="24px" viewBox="0 0 24 24" enable-background="new 0 0 24 24" xml:space="preserve">
<g>
	<g>
		<path fill="none" stroke="#323232" stroke-width="1.5" stroke-linecap="round" stroke-linejoin="round" d="M12,13.042V12.84
			c0-0.66,0.408-1.018,0.817-1.292c0.399-0.269,0.799-0.619,0.799-1.266c0-0.892-0.723-1.615-1.615-1.615s-1.615,0.723-1.615,1.615"
			/>
		<path fill="none" stroke="#323232" stroke-width="1.5" stroke-linecap="round" stroke-linejoin="round" d="M11.999,15.315
			c-0.083,0-0.15,0.067-0.149,0.15c0,0.083,0.067,0.15,0.15,0.15s0.15-0.067,0.15-0.15S12.083,15.315,11.999,15.315"/>
		<path fill="none" stroke="#323232" stroke-width="1.5" stroke-linecap="round" stroke-linejoin="round" d="M10.586,20.87
			L3.13,13.414c-0.781-0.781-0.781-2.047,0-2.828l7.455-7.455c0.781-0.781,2.047-0.781,2.828,0l7.455,7.455
			c0.781,0.781,0.781,2.047,0,2.828l-7.455,7.455C12.633,21.651,11.367,21.651,10.586,20.87z"/>
	</g>
	<rect y="0" fill="none" width="24" height="24"/>
</g>
</svg>
