<svg id="Layer_3" data-name="Layer 3" xmlns="http://www.w3.org/2000/svg" viewBox="0 0 24 24"><title>quote-circle</title><path d="M13.25,12h2.5a.5.5,0,0,1,.5.5v2a.5.5,0,0,1-.5.5h-2a.5.5,0,0,1-.5-.5V12" fill="none" stroke="#323232" stroke-linecap="round" stroke-linejoin="round" stroke-width="1.5"/><path d="M13.25,12c0-2,.375-2.333,1.5-3" fill="none" stroke="#323232" stroke-linecap="round" stroke-linejoin="round" stroke-width="1.5"/><path d="M7.75,12h2.5a.5.5,0,0,1,.5.5v2a.5.5,0,0,1-.5.5h-2a.5.5,0,0,1-.5-.5V12" fill="none" stroke="#323232" stroke-linecap="round" stroke-linejoin="round" stroke-width="1.5"/><path d="M7.75,12c0-2,.375-2.333,1.5-3" fill="none" stroke="#323232" stroke-linecap="round" stroke-linejoin="round" stroke-width="1.5"/><circle cx="12" cy="12" r="9" fill="none" stroke="#323232" stroke-linecap="round" stroke-linejoin="round" stroke-width="1.5"/><rect width="24" height="24" fill="none"/></svg>