<svg id="Layer_3" data-name="Layer 3" xmlns="http://www.w3.org/2000/svg" viewBox="0 0 24 24"><title>radio-antenna</title><rect width="24" height="24" fill="none"/><rect x="3" y="7" width="18" height="14" rx="3" stroke-width="1.5" stroke="#323232" stroke-linecap="round" stroke-linejoin="round" fill="none"/><path d="M9.777,13.7a.177.177,0,0,0-.178.179.18.18,0,1,0,.178-.179" fill="none" stroke="#323232" stroke-linecap="round" stroke-linejoin="round" stroke-width="1.5"/><path d="M9.777,10.821A.177.177,0,0,0,9.6,11a.18.18,0,1,0,.178-.179" fill="none" stroke="#323232" stroke-linecap="round" stroke-linejoin="round" stroke-width="1.5"/><path d="M9.777,16.821A.177.177,0,0,0,9.6,17a.18.18,0,1,0,.178-.179" fill="none" stroke="#323232" stroke-linecap="round" stroke-linejoin="round" stroke-width="1.5"/><path d="M7.024,12.411a.179.179,0,1,0,.246-.066.178.178,0,0,0-.246.066" fill="none" stroke="#323232" stroke-linecap="round" stroke-linejoin="round" stroke-width="1.5"/><path d="M12.22,15.412a.177.177,0,0,0,.067.243.179.179,0,1,0-.067-.243" fill="none" stroke="#323232" stroke-linecap="round" stroke-linejoin="round" stroke-width="1.5"/><path d="M7.025,15.591a.179.179,0,1,0,.065-.246.18.18,0,0,0-.065.246" fill="none" stroke="#323232" stroke-linecap="round" stroke-linejoin="round" stroke-width="1.5"/><path d="M12.222,12.591a.176.176,0,0,0,.244.064.179.179,0,1,0-.244-.064" fill="none" stroke="#323232" stroke-linecap="round" stroke-linejoin="round" stroke-width="1.5"/><line x1="15.75" y1="10.934" x2="17.75" y2="10.934" fill="none" stroke="#323232" stroke-linecap="round" stroke-linejoin="round" stroke-width="1.5"/><line x1="15.75" y1="13.934" x2="17.75" y2="13.934" fill="none" stroke="#323232" stroke-linecap="round" stroke-linejoin="round" stroke-width="1.5"/><path d="M21,18V10.009a3.249,3.249,0,0,0-2.222-3.083L7,3" fill="none" stroke="#323232" stroke-linecap="round" stroke-linejoin="round" stroke-width="1.5"/></svg>