<svg id="Layer_3" data-name="Layer 3" xmlns="http://www.w3.org/2000/svg" viewBox="0 0 24 24"><title>Artboard 37</title><path d="M24,23.96H0v-24H24Z" fill="none"/><path d="M14.734,7.046,13.611,8.992a.247.247,0,0,0,.081.328,2.988,2.988,0,0,1,1.3,2.232.236.236,0,0,0,.232.23H17.3c.467,0,.7-.239.679-.523a5.99,5.99,0,0,0-2.536-4.386A.5.5,0,0,0,14.734,7.046Z" fill="none" stroke="#323232" stroke-linecap="round" stroke-linejoin="round" stroke-width="1.5"/><path d="M9.266,7.046,10.506,9.2A2.987,2.987,0,0,0,9,11.782H6.523a.5.5,0,0,1-.5-.523A5.993,5.993,0,0,1,8.558,6.874.5.5,0,0,1,9.266,7.046Z" fill="none" stroke="#323232" stroke-linecap="round" stroke-linejoin="round" stroke-width="1.5"/><path d="M14.735,16.519l-1.009-1.747a.487.487,0,0,0-.6-.22,2.871,2.871,0,0,1-2.252,0,.487.487,0,0,0-.6.22L9.265,16.519a.5.5,0,0,0,.2.7,5.956,5.956,0,0,0,5.064,0A.5.5,0,0,0,14.735,16.519Z" fill="none" stroke="#323232" stroke-linecap="round" stroke-linejoin="round" stroke-width="1.5"/><rect x="3" y="3.04" width="18" height="18" rx="5" stroke-width="1.5" stroke="#323232" stroke-linecap="round" stroke-linejoin="round" fill="none"/><path d="M12.25,11.782a.25.25,0,1,1-.25-.25.249.249,0,0,1,.25.25" fill="none" stroke="#323232" stroke-linecap="round" stroke-linejoin="round" stroke-width="1.5"/><rect width="24" height="24" fill="none"/><path d="M24,23.96H0v-24H24Z" fill="none"/></svg>