<svg id="Layer_3" data-name="Layer 3" xmlns="http://www.w3.org/2000/svg" viewBox="0 0 24 24"><title>radioactive-radiation-circle</title><path d="M14.734,7.262,13.611,9.208a.247.247,0,0,0,.081.328,2.989,2.989,0,0,1,1.3,2.232.236.236,0,0,0,.232.23H17.3c.467,0,.7-.239.679-.523a5.992,5.992,0,0,0-2.536-4.386.5.5,0,0,0-.692.145Z" fill="none" stroke="#323232" stroke-linecap="round" stroke-linejoin="round" stroke-width="1.5"/><path d="M9.266,7.262l1.24,2.154A2.986,2.986,0,0,0,9,12H6.523a.5.5,0,0,1-.5-.5c0-.008,0-.016,0-.024A5.994,5.994,0,0,1,8.558,7.09a.5.5,0,0,1,.692.146Z" fill="none" stroke="#323232" stroke-linecap="round" stroke-linejoin="round" stroke-width="1.5"/><path d="M14.735,16.735l-1.009-1.747a.487.487,0,0,0-.6-.22,2.868,2.868,0,0,1-2.252,0,.487.487,0,0,0-.6.22L9.265,16.735a.5.5,0,0,0,.174.685l.026.015a5.958,5.958,0,0,0,5.064,0,.5.5,0,0,0,.222-.672Z" fill="none" stroke="#323232" stroke-linecap="round" stroke-linejoin="round" stroke-width="1.5"/><path d="M12.25,12a.25.25,0,1,1-.25-.25.25.25,0,0,1,.25.25v0" fill="none" stroke="#323232" stroke-linecap="round" stroke-linejoin="round" stroke-width="1.5"/><path d="M12,21h0a9,9,0,0,1-9-9H3a9,9,0,0,1,9-9h0a9,9,0,0,1,9,9h0A9,9,0,0,1,12,21Z" fill="none" stroke="#323232" stroke-linecap="round" stroke-linejoin="round" stroke-width="1.5"/><path d="M0,0H24V24H0Z" fill="none"/></svg>