<svg id="Layer_3" data-name="Layer 3" xmlns="http://www.w3.org/2000/svg" viewBox="0 0 24 24"><path d="M7.1907,10.64929,2.29192,15.54808a.99666.99666,0,0,0,0,1.4095l4.7505,4.7505a.99664.99664,0,0,0,1.40949,0L21.70807,8.45191a.99664.99664,0,0,0,0-1.40949l-4.7505-4.7505a.99664.99664,0,0,0-1.40949,0L10.64929,7.1907a.95043.95043,0,0,0-.23569,1.046A1.64268,1.64268,0,0,1,8.23671,10.4136.95043.95043,0,0,0,7.1907,10.64929Z" fill="none" stroke="#323232" stroke-linecap="round" stroke-linejoin="round" stroke-width="1.5"/><line x1="12.10198" y1="5.73802" x2="13.06066" y2="6.6967" fill="none" stroke="#323232" stroke-linecap="round" stroke-linejoin="round" stroke-width="1.5"/><line x1="14.2233" y1="3.61669" x2="15.18198" y2="4.57538" fill="none" stroke="#323232" stroke-linecap="round" stroke-linejoin="round" stroke-width="1.5"/><line x1="5.73802" y1="12.10198" x2="6.6967" y2="13.06066" fill="none" stroke="#323232" stroke-linecap="round" stroke-linejoin="round" stroke-width="1.5"/><line x1="3.61669" y1="14.2233" x2="4.57538" y2="15.18198" fill="none" stroke="#323232" stroke-linecap="round" stroke-linejoin="round" stroke-width="1.5"/><polyline points="13.059 10.938 13.767 11.645 18.01 7.404 17.303 6.697" fill="none" stroke="#323232" stroke-linecap="round" stroke-linejoin="round" stroke-width="1.5"/><polyline points="10.938 13.059 11.645 13.767 7.403 18.009 6.695 17.302" fill="none" stroke="#323232" stroke-linecap="round" stroke-linejoin="round" stroke-width="1.5"/><path d="M0,0H24V24H0Z" fill="none"/></svg>