<svg id="Layer_3" data-name="Layer 3" xmlns="http://www.w3.org/2000/svg" viewBox="0 0 24 24"><path d="M0,0H24V24H0Z" fill="none"/><path d="M6.13365,20.7993a.4773.4773,0,0,1-.0869-.58574,1.63678,1.63678,0,0,0-2.26033-2.26024.47726.47726,0,0,1-.58567-.08692l-.90884-.90882a.99667.99667,0,0,1,0-1.4095L15.54808,2.29192a.99664.99664,0,0,1,1.40949,0l4.7505,4.7505a.99664.99664,0,0,1,0,1.40949L8.45191,21.70808a.99666.99666,0,0,1-1.40949,0Z" fill="none" stroke="#323232" stroke-linecap="round" stroke-linejoin="round" stroke-width="1.5"/><path d="M7.619,12.83527h4.19262a.5.5,0,0,1,.5.5v1.899a.5.5,0,0,1-.5.5H7.619a.5.5,0,0,1-.5-.5v-1.899a.5.5,0,0,1,.5-.5Z" transform="translate(-7.25533 11.05366) rotate(-45)" fill="none" stroke="#323232" stroke-linecap="round" stroke-linejoin="round" stroke-width="1.5"/><path d="M13.34568,7.10857h4.19269a.5.5,0,0,1,.5.5V9.50751a.5.5,0,0,1-.5.5H13.34568a.5.5,0,0,1-.5-.5v-1.899a.5.5,0,0,1,.5-.5Z" transform="translate(-1.52852 13.42601) rotate(-45.00085)" fill="none" stroke="#323232" stroke-linecap="round" stroke-linejoin="round" stroke-width="1.5"/></svg>