<svg id="Layer_3" data-name="Layer 3" xmlns="http://www.w3.org/2000/svg" viewBox="0 0 24 24"><rect width="24" height="24" fill="none"/><path d="M5.86334,21h0A2.86332,2.86332,0,0,1,3,18.13667H3A2.86333,2.86333,0,0,1,6.12367,15.2852l.1132.01034a9.82326,9.82326,0,0,0,10.21394-6.681h0a2.33329,2.33329,0,0,1,2.21393-1.59658h0A2.33328,2.33328,0,0,1,20.86209,10.136l-.14037.393A15.77755,15.77755,0,0,1,5.86334,21Z" fill="none" stroke="#323232" stroke-linecap="round" stroke-linejoin="round" stroke-width="1.5"/><path d="M16.79507,7.92858,6.59875,2.13093A1,1,0,0,0,5.21,2.553l-1.1043,2.2086a1,1,0,0,0,.40014,1.31651l5.82929,3.32153a.81567.81567,0,0,0,1.12976-.33842l.2246-.44033,3.75194,2.12964" fill="none" stroke="#323232" stroke-linecap="round" stroke-linejoin="round" stroke-width="1.5"/></svg>