<svg id="Layer_3" data-name="Layer 3" xmlns="http://www.w3.org/2000/svg" viewBox="0 0 24 24"><rect width="24" height="24" fill="none"/><path d="M6.34238,8.72846c-2.7023.70813-4.48,1.90906-4.48,3.27156,0,2.17733,4.53877,3.94243,10.13767,3.94243.76347,0,1.50454-.03554,2.21975-.09776" fill="none" stroke="#323232" stroke-linecap="round" stroke-linejoin="round" stroke-width="1.5"/><path d="M9.78025,15.84469c-.41147-.5883-.81277-1.21228-1.19447-1.87345C5.78633,9.12247,5.04554,4.30918,6.93116,3.22051,8.11023,2.53975,10.0371,3.47675,12,5.45986" fill="none" stroke="#323232" stroke-linecap="round" stroke-linejoin="round" stroke-width="1.5"/><path d="M6.33606,15.27007c-.736,2.69145-.584,4.82862.5951,5.50939,1.88562,1.08873,5.68368-1.95946,8.48306-6.80822.38177-.66118.72147-1.3207,1.02521-1.97122" fill="none" stroke="#323232" stroke-linecap="round" stroke-linejoin="round" stroke-width="1.5"/><path d="M12,18.54019c1.9629,1.98311,3.88977,2.92,5.06884,2.23927,1.88562-1.08866,1.14483-5.90189-1.65462-10.75065-.3817-.66118-.783-1.28516-1.19447-1.87345" fill="none" stroke="#323232" stroke-linecap="round" stroke-linejoin="round" stroke-width="1.5"/><path d="M17.66394,15.27007c2.69887-.70834,4.47373-1.90858,4.47373-3.27005,0-2.17733-4.53877-3.94243-10.13767-3.94243-.76347,0-1.50454.03555-2.21975.09777" fill="none" stroke="#323232" stroke-linecap="round" stroke-linejoin="round" stroke-width="1.5"/><path d="M7.56057,12c.30374-.65052.64344-1.31,1.02521-1.97121,2.79938-4.84877,6.59744-7.897,8.48306-6.8083,1.17907.68077,1.33108,2.818.5951,5.50946" fill="none" stroke="#323232" stroke-linecap="round" stroke-linejoin="round" stroke-width="1.5"/><path d="M12.25032,12.00032A.25.25,0,1,1,12,11.75a.25.25,0,0,1,.25032.25032" fill="none" stroke="#323232" stroke-linecap="round" stroke-linejoin="round" stroke-width="1.5"/></svg>