<?xml version="1.0" encoding="utf-8"?>
<!-- Generator: Adobe Illustrator 24.0.2, SVG Export Plug-In . SVG Version: 6.00 Build 0)  -->
<svg version="1.1" id="Layer_3" xmlns="http://www.w3.org/2000/svg" xmlns:xlink="http://www.w3.org/1999/xlink" x="0px" y="0px"
	 width="24px" height="24px" viewBox="0 0 24 24" enable-background="new 0 0 24 24" xml:space="preserve">
<g>
	<path fill="none" d="M0,0h24v24H0V0z"/>
	<g>
		<path fill="none" stroke="#323232" stroke-width="1.5" stroke-linecap="round" stroke-linejoin="round" d="M16,8H8"/>
		<path fill="none" stroke="#323232" stroke-width="1.5" stroke-linecap="round" stroke-linejoin="round" d="M16,12H8"/>
		<path fill="none" stroke="#323232" stroke-width="1.5" stroke-linecap="round" stroke-linejoin="round" d="M16,16H8"/>
	</g>
	<path fill="none" stroke="#323232" stroke-width="1.5" stroke-linecap="round" stroke-linejoin="round" d="M12.447,3.992
		l1.773-0.886c0.281-0.141,0.613-0.141,0.894,0l1.773,0.886c0.282,0.141,0.613,0.141,0.894,0l0.771-0.386
		C19.218,3.273,20,3.756,20,4.5v15c0,0.743-0.782,1.227-1.447,0.894l-0.772-0.386c-0.282-0.141-0.613-0.141-0.895,0l-1.771,0.886
		c-0.282,0.141-0.613,0.141-0.895,0l-1.773-0.886c-0.281-0.141-0.613-0.141-0.894,0L9.78,20.894c-0.281,0.141-0.613,0.141-0.894,0
		l-1.773-0.886c-0.282-0.141-0.613-0.141-0.894,0l-0.771,0.386C4.782,20.727,4,20.244,4,19.5v-15c0-0.743,0.782-1.227,1.447-0.894
		L6.22,3.992c0.282,0.141,0.613,0.141,0.895,0l1.771-0.886c0.282-0.141,0.613-0.141,0.895,0l1.773,0.886
		C11.834,4.132,12.166,4.132,12.447,3.992z"/>
</g>
</svg>
