<?xml version="1.0" encoding="utf-8"?>
<!-- Generator: Adobe Illustrator 24.0.2, SVG Export Plug-In . SVG Version: 6.00 Build 0)  -->
<svg version="1.1" id="Layer_3" xmlns="http://www.w3.org/2000/svg" xmlns:xlink="http://www.w3.org/1999/xlink" x="0px" y="0px"
	 width="24px" height="24px" viewBox="0 0 24 24" enable-background="new 0 0 24 24" xml:space="preserve">
<g>
	<g>
		<g>
			<path fill="none" stroke="#323232" stroke-width="1.5" stroke-linecap="round" stroke-linejoin="round" d="M11.5,11L10,9.5"/>
			<path fill="none" stroke="#323232" stroke-width="1.5" stroke-linecap="round" stroke-linejoin="round" d="M14,8.5L11.5,11"/>
		</g>
		<g>
			<path fill="none" stroke="#323232" stroke-width="1.5" stroke-linecap="round" stroke-linejoin="round" d="M8,15h8"/>
		</g>
		<path fill="none" stroke="#323232" stroke-width="1.5" stroke-linecap="round" stroke-linejoin="round" d="M18,3H6
			C4.895,3,4,3.895,4,5v14.5c0,0.743,0.782,1.227,1.447,0.894l0.771-0.386c0.282-0.141,0.613-0.141,0.894,0l1.773,0.886
			c0.281,0.141,0.613,0.141,0.894,0l1.773-0.886c0.281-0.141,0.613-0.141,0.894,0l1.773,0.886c0.282,0.141,0.613,0.141,0.895,0
			l1.771-0.886c0.282-0.141,0.613-0.141,0.895,0l0.772,0.386C19.218,20.727,20,20.243,20,19.5V5C20,3.895,19.105,3,18,3z"/>
	</g>
	<path fill="none" d="M0,0h24v24H0V0z"/>
</g>
</svg>
