<?xml version="1.0" encoding="utf-8"?>
<!-- Generator: Adobe Illustrator 24.0.2, SVG Export Plug-In . SVG Version: 6.00 Build 0)  -->
<svg version="1.1" id="Layer_3" xmlns="http://www.w3.org/2000/svg" xmlns:xlink="http://www.w3.org/1999/xlink" x="0px" y="0px"
	 width="24px" height="24px" viewBox="0 0 24 24" enable-background="new 0 0 24 24" xml:space="preserve">
<g>
	<path fill="none" d="M0,0h24v24H0V0z"/>
	<g>
		<path fill="none" stroke="#323232" stroke-width="1.5" stroke-linecap="round" stroke-linejoin="round" d="M8,15h8"/>
		<path fill="none" stroke="#323232" stroke-width="1.5" stroke-linecap="round" stroke-linejoin="round" d="M13.25,8.5l-2.5,2.5"/>
		<path fill="none" stroke="#323232" stroke-width="1.5" stroke-linecap="round" stroke-linejoin="round" d="M13.25,11l-2.5-2.5"/>
		<path fill="none" stroke="#323232" stroke-width="1.5" stroke-linecap="round" stroke-linejoin="round" d="M4,4.778V19.5
			c0,0.743,0.782,1.227,1.447,0.894l0.771-0.386c0.282-0.141,0.613-0.141,0.894,0l1.773,0.886c0.281,0.141,0.613,0.141,0.894,0
			l1.773-0.886c0.281-0.141,0.613-0.141,0.894,0l1.773,0.886c0.282,0.141,0.613,0.141,0.895,0l1.771-0.886
			c0.282-0.141,0.613-0.141,0.895,0l0.772,0.386C19.218,20.727,20,20.243,20,19.5V4.778C20,3.796,19.204,3,18.222,3H5.778
			C4.796,3,4,3.796,4,4.778z"/>
	</g>
</g>
</svg>
