<?xml version="1.0" encoding="utf-8"?>
<!-- Generator: Adobe Illustrator 24.0.2, SVG Export Plug-In . SVG Version: 6.00 Build 0)  -->
<svg version="1.1" id="Layer_3" xmlns="http://www.w3.org/2000/svg" xmlns:xlink="http://www.w3.org/1999/xlink" x="0px" y="0px"
	 width="24px" height="24px" viewBox="0 0 24 24" enable-background="new 0 0 24 24" xml:space="preserve">
<g>
	<path fill="none" d="M0,0h24v24H0V0z"/>
	<g>
		<path fill="none" stroke="#323232" stroke-width="1.5" stroke-linecap="round" stroke-linejoin="round" d="M10.5,12L8,9.5L10.5,7"
			/>
		<path fill="none" stroke="#323232" stroke-width="1.5" stroke-linecap="round" stroke-linejoin="round" d="M14.174,20.851
			l-1.681-1.12c-0.299-0.199-0.688-0.199-0.986,0l-1.681,1.12c-0.299,0.199-0.688,0.199-0.986,0L7.16,19.73
			c-0.299-0.199-0.688-0.199-0.986,0l-0.792,0.528C4.791,20.652,4,20.228,4,19.519V4.778C4,3.796,4.796,3,5.778,3h12.444
			C19.204,3,20,3.796,20,4.778v14.741c0,0.71-0.791,1.133-1.382,0.74l-0.792-0.528c-0.299-0.199-0.688-0.199-0.986,0l-1.681,1.12
			C14.861,21.05,14.472,21.05,14.174,20.851z"/>
		<path fill="none" stroke="#323232" stroke-width="1.5" stroke-linecap="round" stroke-linejoin="round" d="M8,9.5h5.25
			c1.519,0,2.75,1.231,2.75,2.75v0c0,1.519-1.231,2.75-2.75,2.75H12"/>
	</g>
</g>
</svg>
