<?xml version="1.0" encoding="UTF-8"?><svg version="1.1" viewBox="0 0 24 24" xmlns="http://www.w3.org/2000/svg" xmlns:xlink="http://www.w3.org/1999/xlink"><!--Generated by IJSVG (https://github.com/iconjar/IJSVG)--><g stroke-linecap="round" stroke-width="1.5" stroke="#323232" fill="none" stroke-linejoin="round"><path d="M9.91421,10.5858c0.781049,0.781049 0.781049,2.04738 0,2.82843c-0.781049,0.781049 -2.04738,0.781049 -2.82843,0c-0.781049,-0.781049 -0.781049,-2.04738 -8.88178e-16,-2.82843c0.781049,-0.781049 2.04738,-0.781049 2.82843,0"></path><path d="M16.9142,10.5858c0.781049,0.781049 0.781049,2.04738 0,2.82843c-0.781049,0.781049 -2.04738,0.781049 -2.82843,0c-0.781049,-0.781049 -0.781049,-2.04738 0,-2.82843c0.781049,-0.781049 2.04738,-0.781049 2.82843,0"></path><path d="M8.5,14h7"></path></g><path fill="none" d="M0,0h24v24h-24v-24Z"></path><path d="M12,21v0c-4.971,0 -9,-4.029 -9,-9v0c0,-4.971 4.029,-9 9,-9v0c4.971,0 9,4.029 9,9v0c0,4.971 -4.029,9 -9,9Z" stroke-linecap="round" stroke-width="1.5" stroke="#323232" fill="none" stroke-linejoin="round"></path></svg>