<?xml version="1.0" encoding="UTF-8"?><svg version="1.1" viewBox="0 0 24 24" xmlns="http://www.w3.org/2000/svg" xmlns:xlink="http://www.w3.org/1999/xlink"><!--Generated by IJSVG (https://github.com/iconjar/IJSVG)--><g fill="none"><path d="M0,0h24v24h-24v-24Z"></path><path stroke="#323232" stroke-linecap="round" stroke-linejoin="round" stroke-width="1.5" d="M12.833,18h-4.175l-2.674,2.651c-0.735,0.729 -1.984,0.208 -1.984,-0.827v-10.657c0,-1.037 1.254,-1.557 1.988,-0.823l7.669,7.669c0.733,0.733 0.214,1.987 -0.824,1.987Z"></path><path stroke="#323232" stroke-linecap="round" stroke-linejoin="round" stroke-width="1.5" d="M20.5355,3.46447c1.95262,1.95262 1.95262,5.11845 0,7.07107c-1.95262,1.95262 -5.11845,1.95262 -7.07107,0c-1.95262,-1.95262 -1.95262,-5.11845 0,-7.07107c1.95262,-1.95262 5.11845,-1.95262 7.07107,-8.88178e-16"></path><path stroke="#323232" stroke-linecap="round" stroke-linejoin="round" stroke-width="1.5" d="M12.67,9.5v0c-0.626,-1.085 -0.308,-2.468 0.729,-3.17l0.001,-0.001c0.833,-0.563 1.929,-0.544 2.742,0.047l1.716,1.248c0.813,0.591 1.909,0.61 2.742,0.047l0.001,-0.001c1.037,-0.702 1.356,-2.086 0.729,-3.17v0"></path><path stroke="#323232" stroke-linecap="round" stroke-linejoin="round" stroke-width="1.5" d="M19.501,11.33v0c-1.085,0.626 -2.468,0.308 -3.17,-0.729l-0.001,-0.001c-0.563,-0.833 -0.544,-1.929 0.047,-2.742l1.248,-1.716c0.591,-0.813 0.61,-1.909 0.047,-2.742l-0.002,-0.001c-0.702,-1.037 -2.086,-1.356 -3.17,-0.729v0"></path></g></svg>