<svg id="Layer_3" data-name="Layer 3" xmlns="http://www.w3.org/2000/svg" viewBox="0 0 24 24"><title>refresh-loading-circle</title><path d="M24,0V24H0V0Z" fill="none"/><path d="M14.218,15.218A3.868,3.868,0,0,1,11.9,16,3.916,3.916,0,0,1,7.99,12.1L8,10.5,6.667,11.834" fill="none" stroke="#323232" stroke-linecap="round" stroke-linejoin="round" stroke-width="1.5"/><path d="M12,21a9,9,0,1,1,9-9,9,9,0,0,1-9,9" fill="none" stroke="#323232" stroke-linecap="round" stroke-linejoin="round" stroke-width="1.5"/><path d="M17.333,12.166,16,13.5l.014-1.6A3.917,3.917,0,0,0,12.1,8a3.874,3.874,0,0,0-2.32.782" fill="none" stroke="#323232" stroke-linecap="round" stroke-linejoin="round" stroke-width="1.5"/></svg>