<?xml version="1.0" encoding="utf-8"?>
<!-- Generator: Adobe Illustrator 24.0.2, SVG Export Plug-In . SVG Version: 6.00 Build 0)  -->
<svg version="1.1" id="Layer_3" xmlns="http://www.w3.org/2000/svg" xmlns:xlink="http://www.w3.org/1999/xlink" x="0px" y="0px"
	 width="24px" height="24px" viewBox="0 0 24 24" enable-background="new 0 0 24 24" xml:space="preserve">
<g>
	<g>
		<g>
			<g>
				<path fill="none" stroke="#323232" stroke-width="1.5" stroke-linecap="round" stroke-linejoin="round" d="M7.457,13.982
					l1.956-1.956c0.336-0.336,0.912-0.098,0.912,0.378v7.007c0,0.295-0.239,0.534-0.534,0.534H2.783
					c-0.475,0-0.713-0.575-0.378-0.912c0,0,1.778-1.778,1.778-1.778c-0.811-1.246-1.286-2.731-1.286-4.328
					c0-4.214,3.281-7.654,7.427-7.927c-2.595,0.264-4.619,2.455-4.619,5.119c0,1.541,0.681,2.918,1.752,3.861"/>
			</g>
		</g>
		<g>
			<g>
				<path fill="none" stroke="#323232" stroke-width="1.5" stroke-linecap="round" stroke-linejoin="round" d="M16.791,10.962
					l-1.956,1.956c-0.336,0.336-0.912,0.098-0.912-0.378V5.534C13.923,5.239,14.162,5,14.457,5h7.008
					c0.475,0,0.713,0.575,0.378,0.912c0,0-1.778,1.778-1.778,1.778c0.811,1.246,1.286,2.731,1.286,4.328
					c0,4.214-3.281,7.654-7.427,7.927c2.595-0.264,4.619-2.455,4.619-5.119c0-1.541-0.681-2.918-1.752-3.861"/>
			</g>
		</g>
	</g>
	<path fill="none" d="M0,0h24v24H0V0z"/>
</g>
</svg>
