<?xml version="1.0" encoding="UTF-8"?><svg version="1.1" viewBox="0 0 24 24" xmlns="http://www.w3.org/2000/svg" xmlns:xlink="http://www.w3.org/1999/xlink"><!--Generated by IJSVG (https://github.com/iconjar/IJSVG)--><defs><path d="M19.139,4.829c0.622,0.622 0.622,1.632 0,2.254c-0.622,0.622 -1.632,0.622 -2.254,0c-0.622,-0.622 -0.622,-1.632 0,-2.254c0.622,-0.623 1.632,-0.623 2.254,-8.88178e-16" id="a"></path></defs><g stroke-linecap="round" stroke-width="1.5" stroke="#323232" fill="none" stroke-linejoin="round"><use xlink:href="#a"></use><use xlink:href="#a"></use><path d="M9.523,20.133c0.783,0.238 1.613,0.368 2.474,0.368h0.002c2.176,0 4.352,-0.83 6.012,-2.49c2.044,-2.043 2.824,-4.867 2.352,-7.512"></path><path d="M5.538,6.486c0.435,-0.51 0.931,-0.964 1.475,-1.358"></path><path d="M3.992,9.168c-0.314,0.888 -0.494,1.838 -0.494,2.833"></path><path d="M7.013,18.876c-1.379,-1.001 -2.439,-2.407 -3.019,-4.041"></path><path d="M14.121,9.879c1.172,1.172 1.172,3.071 0,4.243c-1.172,1.172 -3.071,1.172 -4.243,0c-1.172,-1.172 -1.172,-3.071 0,-4.243c1.172,-1.172 3.072,-1.172 4.243,0"></path><path d="M9.523,3.87c0.783,-0.238 1.613,-0.368 2.474,-0.368l0.003,0.001c1.667,0.001 3.335,0.488 4.77,1.464"></path></g><path fill="none" d="M0,0h24v24h-24v-24Z"></path></svg>