<?xml version="1.0" encoding="utf-8"?>
<!-- Generator: Adobe Illustrator 24.0.2, SVG Export Plug-In . SVG Version: 6.00 Build 0)  -->
<svg version="1.1" id="Layer_3" xmlns="http://www.w3.org/2000/svg" xmlns:xlink="http://www.w3.org/1999/xlink" x="0px" y="0px"
	 width="24px" height="24px" viewBox="0 0 24 24" enable-background="new 0 0 24 24" xml:space="preserve">
<g>
	<path fill="none" d="M24,0v24H0V0H24z"/>
	<g>
		<path fill="none" stroke="#323232" stroke-width="1.5" stroke-linecap="round" stroke-linejoin="round" d="M10,10.321v3.358
			c0,0.982-0.796,1.778-1.778,1.778H4.457C2.548,15.457,1,13.909,1,12v0c0-1.909,1.548-3.457,3.457-3.457h3.765
			C9.204,8.543,10,9.339,10,10.321z"/>
		<path fill="none" stroke="#323232" stroke-width="1.5" stroke-linecap="round" stroke-linejoin="round" d="M15.757,9
			c1.657,1.657,1.657,4.343,0,6"/>
		<path fill="none" stroke="#323232" stroke-width="1.5" stroke-linecap="round" stroke-linejoin="round" d="M13.379,10.5
			c0.828,0.828,0.828,2.172,0,3"/>
		<path fill="none" stroke="#323232" stroke-width="1.5" stroke-linecap="round" stroke-linejoin="round" d="M5,5
			c0-1.105,0.895-2,2-2h12c1.105,0,2,0.895,2,2v14c0,1.105-0.895,2-2,2H7c-1.105,0-2-0.895-2-2"/>
	</g>
</g>
</svg>
