<?xml version="1.0" encoding="utf-8"?>
<!-- Generator: Adobe Illustrator 24.0.2, SVG Export Plug-In . SVG Version: 6.00 Build 0)  -->
<svg version="1.1" id="Layer_3" xmlns="http://www.w3.org/2000/svg" xmlns:xlink="http://www.w3.org/1999/xlink" x="0px" y="0px"
	 width="24px" height="24px" viewBox="0 0 24 24" enable-background="new 0 0 24 24" xml:space="preserve">
<g>
	<g>
		<g>
			<path fill="none" stroke="#323232" stroke-width="1.5" stroke-linecap="round" stroke-linejoin="round" d="M5.636,5.636
				C2.349,8.924,2.137,14.121,5,17.656"/>
			<path fill="none" stroke="#323232" stroke-width="1.5" stroke-linecap="round" stroke-linejoin="round" d="M18.364,5.636
				c-3.515-3.515-9.213-3.515-12.728,0"/>
			<path fill="none" stroke="#323232" stroke-width="1.5" stroke-linecap="round" stroke-linejoin="round" d="M19,17.656
				c2.863-3.535,2.651-8.732-0.636-12.02"/>
		</g>
		<path fill="none" stroke="#323232" stroke-width="1.5" stroke-linecap="round" stroke-linejoin="round" d="M10.5,10.243
			c0.828-0.828,2.172-0.828,3,0"/>
		<g>
			<path id="a_14_" fill="none" stroke="#323232" stroke-width="1.5" stroke-linecap="round" stroke-linejoin="round" d="M9,8.243
				c1.657-1.657,4.343-1.657,6,0"/>
		</g>
		<path fill="none" stroke="#323232" stroke-width="1.5" stroke-linecap="round" stroke-linejoin="round" d="M12,22L12,22
			c-1.988,0-3.6-1.612-3.6-3.6v-2.7c0-1.491,1.209-2.7,2.7-2.7h1.8c1.491,0,2.7,1.209,2.7,2.7v2.7C15.6,20.388,13.988,22,12,22z"/>
	</g>
	<rect id="_Transparent_Rectangle__50_" y="0" fill="none" width="24" height="24"/>
</g>
</svg>
