<svg id="Layer_3" data-name="Layer 3" xmlns="http://www.w3.org/2000/svg" viewBox="0 0 24 24"><title>Artboard 115</title><path d="M1.5,11.248,3,9.747l1.5,1.5" fill="none" stroke="#323232" stroke-linecap="round" stroke-linejoin="round" stroke-width="1.5"/><path d="M22.5,12.748l-1.5,1.5-1.5-1.5" fill="none" stroke="#323232" stroke-linecap="round" stroke-linejoin="round" stroke-width="1.5"/><path d="M4.678,6.787a8.987,8.987,0,0,1,16.1,7.2" fill="none" stroke="#323232" stroke-linecap="round" stroke-linejoin="round" stroke-width="1.5"/><path d="M7.67,14.5h0a2.386,2.386,0,0,1,.73-3.17h0a2.385,2.385,0,0,1,2.741.046l1.715,1.249a2.385,2.385,0,0,0,2.741.046h0a2.387,2.387,0,0,0,.73-3.17h0" fill="none" stroke="#323232" stroke-linecap="round" stroke-linejoin="round" stroke-width="1.5"/><circle cx="12" cy="12" r="5" fill="none" stroke="#323232" stroke-linecap="round" stroke-linejoin="round" stroke-width="1.5"/><path d="M19.318,17.2a8.987,8.987,0,0,1-16.1-7.2" fill="none" stroke="#323232" stroke-linecap="round" stroke-linejoin="round" stroke-width="1.5"/><rect width="24" height="24" fill="none"/></svg>