<?xml version="1.0" encoding="utf-8"?>
<!-- Generator: Adobe Illustrator 24.0.2, SVG Export Plug-In . SVG Version: 6.00 Build 0)  -->
<svg version="1.1" id="Layer_3" xmlns="http://www.w3.org/2000/svg" xmlns:xlink="http://www.w3.org/1999/xlink" x="0px" y="0px"
	 width="24px" height="24px" viewBox="0 0 24 24" enable-background="new 0 0 24 24" xml:space="preserve">
<g>
	<g>
		<path fill="none" d="M24,24H0L0,0l24,0V24z"/>
		<path fill="none" d="M24,24H0L0,0l24,0V24z"/>
	</g>
	<g>
		<path fill="none" stroke="#323232" stroke-width="1.5" stroke-linecap="round" stroke-linejoin="round" d="M16.75,14.861
			c0-3.448-2.297-4.924-5.064-4.924V8.05c0-0.524-0.613-0.808-1.013-0.469c0,0-3.932,3.337-3.932,3.337
			c-0.281,0.238-0.288,0.67-0.015,0.917l3.932,3.564c0.395,0.358,1.028,0.078,1.028-0.456v-1.885c2.185,0,4.128,0.231,5.064,2.495
			V14.861z"/>
		<path fill="none" stroke="#323232" stroke-width="1.5" stroke-linecap="round" stroke-linejoin="round" d="M5.636,5.636
			c3.575-3.575,9.408-3.514,12.906,0.183c3.229,3.413,3.229,8.949,0,12.362c-3.498,3.697-9.331,3.758-12.906,0.183
			C2.121,14.849,2.121,9.151,5.636,5.636"/>
	</g>
</g>
</svg>
