<?xml version="1.0" encoding="utf-8"?>
<!-- Generator: Adobe Illustrator 24.0.2, SVG Export Plug-In . SVG Version: 6.00 Build 0)  -->
<svg version="1.1" id="Layer_3" xmlns="http://www.w3.org/2000/svg" xmlns:xlink="http://www.w3.org/1999/xlink" x="0px" y="0px"
	 width="24px" height="24px" viewBox="0 0 24 24" enable-background="new 0 0 24 24" xml:space="preserve">
<g>
	<path fill="none" d="M0,0h24v24H0V0z"/>
	<g>
		<g>
			<g>
				<path fill="none" stroke="#323232" stroke-width="1.5" stroke-linecap="round" stroke-linejoin="round" d="M15.52,10.452
					l1.309-1.309C17.077,8.896,17.5,9.071,17.5,9.421v5.158c0,0.217-0.176,0.393-0.393,0.393h-5.158
					c-0.35,0-0.525-0.423-0.278-0.671c0,0,1.44-1.44,1.44-1.44c-0.694-0.789-1.709-1.29-2.842-1.29c-1.961,0-3.574,1.49-3.768,3.4
					c0.2-3.052,2.732-5.467,5.835-5.467C13.51,9.506,14.603,9.856,15.52,10.452z"/>
			</g>
		</g>
		<g>
			<path fill="none" stroke="#323232" stroke-width="1.5" stroke-linecap="round" stroke-linejoin="round" d="M17,21H7
				c-2.209,0-4-1.791-4-4V7c0-2.209,1.791-4,4-4h10c2.209,0,4,1.791,4,4v10C21,19.209,19.209,21,17,21z"/>
		</g>
	</g>
</g>
</svg>
