<?xml version="1.0" encoding="utf-8"?>
<!-- Generator: Adobe Illustrator 24.0.2, SVG Export Plug-In . SVG Version: 6.00 Build 0)  -->
<svg version="1.1" id="Layer_3" xmlns="http://www.w3.org/2000/svg" xmlns:xlink="http://www.w3.org/1999/xlink" x="0px" y="0px"
	 width="24px" height="24px" viewBox="0 0 24 24" enable-background="new 0 0 24 24" xml:space="preserve">
<g>
	<g>
		<path fill="none" d="M24,24H0V0h24V24z"/>
		<path fill="none" d="M24,24H0V0h24V24z"/>
	</g>
	<g>
		<path fill="none" stroke="#323232" stroke-width="1.5" stroke-linecap="round" stroke-linejoin="round" d="M16.75,14.861
			c0-3.448-2.297-4.924-5.064-4.924V8.05c0-0.524-0.613-0.808-1.013-0.469l-3.932,3.337c-0.281,0.238-0.288,0.67-0.015,0.917
			l3.932,3.564c0.395,0.358,1.028,0.078,1.028-0.456v-1.885c2.185,0,4.128,0.231,5.064,2.495V14.861z"/>
		<path fill="none" stroke="#323232" stroke-width="1.5" stroke-linecap="round" stroke-linejoin="round" d="M18,21.014H6
			c-1.657,0-3-1.343-3-3v-12c0-1.657,1.343-3,3-3h12c1.657,0,3,1.343,3,3v12C21,19.671,19.657,21.014,18,21.014z"/>
	</g>
</g>
</svg>
