<svg id="Layer_3" data-name="Layer 3" xmlns="http://www.w3.org/2000/svg" viewBox="0 0 24 24"><title>reply-loading-arrow</title><path d="M0,0H24V24H0Z" fill="none"/><path d="M5.16,6.16A8.955,8.955,0,0,1,6.722,4.722" fill="none" stroke="#323232" stroke-linecap="round" stroke-linejoin="round" stroke-width="1.5"/><path d="M17,19.482A8.994,8.994,0,0,1,9.38,20.61" fill="none" stroke="#323232" stroke-linecap="round" stroke-linejoin="round" stroke-width="1.5"/><path d="M12.483,9.9A5.087,5.087,0,0,1,17,14.95v.322a6,6,0,0,0-4.517-2.167v1.7a.644.644,0,0,1-1.042.5L7.236,11.987a.62.62,0,0,1-.1-.871.627.627,0,0,1,.1-.1l4.205-3.321a.644.644,0,0,1,1.042.5Z" fill="none" stroke="#323232" stroke-linecap="round" stroke-linejoin="round" stroke-width="1.5"/><path d="M3.523,9A8.956,8.956,0,0,0,3,12" fill="none" stroke="#323232" stroke-linecap="round" stroke-linejoin="round" stroke-width="1.5"/><path d="M9.38,3.39A8.982,8.982,0,0,1,19.463,17" fill="none" stroke="#323232" stroke-linecap="round" stroke-linejoin="round" stroke-width="1.5"/><path d="M6.722,19.279A9.024,9.024,0,0,1,3.525,15" fill="none" stroke="#323232" stroke-linecap="round" stroke-linejoin="round" stroke-width="1.5"/></svg>