<?xml version="1.0" encoding="utf-8"?>
<!-- Generator: Adobe Illustrator 23.1.0, SVG Export Plug-In . SVG Version: 6.00 Build 0)  -->
<svg version="1.1" id="icons" xmlns="http://www.w3.org/2000/svg" xmlns:xlink="http://www.w3.org/1999/xlink" x="0px" y="0px"
	 width="24px" height="24px" viewBox="0 0 24 24" enable-background="new 0 0 24 24" xml:space="preserve">
<g>
	<g>
		<path fill="none" stroke="#323232" stroke-width="1.5" stroke-linecap="round" stroke-linejoin="round" d="M19.121,14.879
			c1.297,1.297,1.158,3.488-0.418,4.593c-1.003,0.703-2.403,0.703-3.406,0c-1.576-1.106-1.716-3.296-0.418-4.593
			C16.05,13.707,17.95,13.707,19.121,14.879"/>
		<path fill="none" stroke="#323232" stroke-width="1.5" stroke-linecap="round" stroke-linejoin="round" d="M19.121,19.121L21,21"
			/>
		<path fill="none" stroke="#323232" stroke-width="1.5" stroke-linecap="round" stroke-linejoin="round" d="M8,10H5
			c-1.105,0-2-0.895-2-2V5c0-1.105,0.895-2,2-2h3c1.105,0,2,0.895,2,2v3C10,9.105,9.105,10,8,10z"/>
		<path fill="none" stroke="#323232" stroke-width="1.5" stroke-linecap="round" stroke-linejoin="round" d="M19,10h-3
			c-1.105,0-2-0.895-2-2V5c0-1.105,0.895-2,2-2h3c1.105,0,2,0.895,2,2v3C21,9.105,20.105,10,19,10z"/>
		<path fill="none" stroke="#323232" stroke-width="1.5" stroke-linecap="round" stroke-linejoin="round" d="M8,21H5
			c-1.105,0-2-0.895-2-2v-3c0-1.105,0.895-2,2-2h3c1.105,0,2,0.895,2,2v3C10,20.105,9.105,21,8,21z"/>
	</g>
	<rect y="0" transform="matrix(-1 -1.224647e-16 1.224647e-16 -1 24 24)" fill="none" width="24" height="24"/>
</g>
</svg>
