<?xml version="1.0" encoding="utf-8"?>
<!-- Generator: Adobe Illustrator 23.1.0, SVG Export Plug-In . SVG Version: 6.00 Build 0)  -->
<svg version="1.1" id="icons" xmlns="http://www.w3.org/2000/svg" xmlns:xlink="http://www.w3.org/1999/xlink" x="0px" y="0px"
	 width="24px" height="24px" viewBox="0 0 24 24" enable-background="new 0 0 24 24" xml:space="preserve">
<g>
	<g>
		<g>
			
				<path fill="none" stroke="#323232" stroke-width="1.5" stroke-linecap="round" stroke-linejoin="round" stroke-miterlimit="10" d="
				M5.402,18.763c-1.463-1.283-2.51-3.028-2.902-5.013"/>
			
				<path fill="none" stroke="#323232" stroke-width="1.5" stroke-linecap="round" stroke-linejoin="round" stroke-miterlimit="10" d="
				M14.222,20.515C13.313,20.825,12.341,21,11.327,21c-1.014,0-1.986-0.175-2.896-0.485"/>
			
				<path fill="none" stroke="#323232" stroke-width="1.5" stroke-linecap="round" stroke-linejoin="round" stroke-miterlimit="10" d="
				M14.222,3.485C13.313,3.175,12.341,3,11.327,3c-1.014,0-1.986,0.175-2.896,0.485"/>
			
				<path fill="none" stroke="#323232" stroke-width="1.5" stroke-linecap="round" stroke-linejoin="round" stroke-miterlimit="10" d="
				M17.252,18.763c1.463-1.283,2.51-3.028,2.902-5.013"/>
			
				<path fill="none" stroke="#323232" stroke-width="1.5" stroke-linecap="round" stroke-linejoin="round" stroke-miterlimit="10" d="
				M2.5,10.25c0.391-1.985,1.438-3.729,2.902-5.013"/>
		</g>
		<g>
			
				<path fill="none" stroke="#323232" stroke-width="1.5" stroke-linecap="round" stroke-linejoin="round" stroke-miterlimit="10" d="
				M16.044,10.25h4.469c0.758,0,1.233-0.821,0.853-1.478l-2.235-3.87c-0.379-0.657-1.327-0.657-1.707,0l-2.235,3.87
				C14.812,9.429,15.286,10.25,16.044,10.25z"/>
		</g>
	</g>
	<path fill="none" d="M0,0h24v24H0V0z"/>
</g>
</svg>
