<svg id="Layer_3" data-name="Layer 3" xmlns="http://www.w3.org/2000/svg" viewBox="0 0 24 24"><title>ribbon-tie</title><rect width="24" height="24" fill="none"/><path d="M9.95026,14.61768,5.57068,16.80754a1.83317,1.83317,0,0,1-2.3621-.656,7.73457,7.73457,0,0,1,0-8.303,1.83328,1.83328,0,0,1,2.3621-.65611L9.95026,9.38232" fill="none" stroke="#323232" stroke-linecap="round" stroke-linejoin="round" stroke-width="1.5"/><line x1="7.08825" y1="12" x2="9.00737" y2="12" fill="none" stroke="#323232" stroke-linecap="round" stroke-linejoin="round" stroke-width="1.5"/><path d="M9.72678,14.365a4.24718,4.24718,0,0,1,0-4.73007A1.48228,1.48228,0,0,1,10.9597,9h2.0806a1.4823,1.4823,0,0,1,1.23292.635,4.2472,4.2472,0,0,1,0,4.73007A1.48231,1.48231,0,0,1,13.04031,15H10.9597A1.48231,1.48231,0,0,1,9.72678,14.365Z" fill="none" stroke="#323232" stroke-linecap="round" stroke-linejoin="round" stroke-width="1.5"/><path d="M14.04974,9.38232l4.37958-2.18986a1.83317,1.83317,0,0,1,2.3621.656,7.73457,7.73457,0,0,1,0,8.303,1.83328,1.83328,0,0,1-2.3621.65611l-4.37958-2.18994" fill="none" stroke="#323232" stroke-linecap="round" stroke-linejoin="round" stroke-width="1.5"/><line x1="16.91175" y1="12" x2="14.99263" y2="12" fill="none" stroke="#323232" stroke-linecap="round" stroke-linejoin="round" stroke-width="1.5"/></svg>