<?xml version="1.0" encoding="utf-8"?>
<!-- Generator: Adobe Illustrator 23.1.0, SVG Export Plug-In . SVG Version: 6.00 Build 0)  -->
<svg version="1.1" id="icons" xmlns="http://www.w3.org/2000/svg" xmlns:xlink="http://www.w3.org/1999/xlink" x="0px" y="0px"
	 width="24px" height="24px" viewBox="0 0 24 24" enable-background="new 0 0 24 24" xml:space="preserve">
<g>
	<g>
		
			<path fill="none" stroke="#323232" stroke-width="1.5" stroke-linecap="round" stroke-linejoin="round" stroke-miterlimit="10" d="
			M8.194,17.761l-1.955-1.955c-0.781-0.781-0.781-2.047,0-2.828l6.738-6.738c0.781-0.781,2.047-0.781,2.828,0l1.955,1.955
			c0.781,0.781,0.781,2.047,0,2.828l-6.738,6.738C10.242,18.542,8.975,18.542,8.194,17.761z"/>
		
			<path fill="none" stroke="#323232" stroke-width="1.5" stroke-linecap="round" stroke-linejoin="round" stroke-miterlimit="10" d="
			M15.587,6.021L17.102,3.9c0.772-1.081,2.329-1.209,3.268-0.27l0,0c0.939,0.939,0.81,2.496-0.27,3.268l-2.121,1.515"/>
		
			<path fill="none" stroke="#323232" stroke-width="1.5" stroke-linecap="round" stroke-linejoin="round" stroke-miterlimit="10" d="
			M8.413,17.979L6.898,20.1c-0.772,1.081-2.329,1.209-3.268,0.27l0,0c-0.939-0.939-0.81-2.496,0.27-3.268l2.121-1.515"/>
	</g>
	<rect fill="none" width="24" height="24"/>
</g>
</svg>
