<svg id="Layer_3" data-name="Layer 3" xmlns="http://www.w3.org/2000/svg" viewBox="0 0 24 24"><title>room-service-sign-clean</title><path d="M8.88,12.825,13.728,9.8A2.708,2.708,0,0,0,15,7.5h0A2.5,2.5,0,0,0,12.5,5h0A2.5,2.5,0,0,0,10,7.5h0A1.5,1.5,0,0,1,8.5,9h0A1.5,1.5,0,0,1,7,7.5H7A5.5,5.5,0,0,1,12.5,2h0A5.5,5.5,0,0,1,18,7.5V20a2,2,0,0,1-2,2H9a2,2,0,0,1-2-2V16.217A4,4,0,0,1,8.88,12.825Z" fill="none" stroke="#323232" stroke-linecap="round" stroke-linejoin="round" stroke-width="1.5"/><path d="M14.172,16.111l-1.778,1.778-1.066-1.067" fill="none" stroke="#323232" stroke-linecap="round" stroke-linejoin="round" stroke-width="1.5"/><path d="M0,0H24V24H0Z" fill="none"/></svg>