<svg id="Layer_3" data-name="Layer 3" xmlns="http://www.w3.org/2000/svg" viewBox="0 0 24 24"><title>rotate-arrows-circle-arrows_1</title><path d="M6.5,10.667,8.855,8.312A4.479,4.479,0,0,1,12.023,7h0a4.478,4.478,0,0,1,4.159,2.816l.1.24" fill="none" stroke="#323232" stroke-linecap="round" stroke-linejoin="round" stroke-width="1.5"/><polyline points="8.944 10.667 6.5 10.667 6.5 8.222" fill="none" stroke="#323232" stroke-linecap="round" stroke-linejoin="round" stroke-width="1.5"/><path d="M17.5,13.333l-2.355,2.355A4.479,4.479,0,0,1,11.977,17h0a4.478,4.478,0,0,1-4.159-2.816l-.1-.24" fill="none" stroke="#323232" stroke-linecap="round" stroke-linejoin="round" stroke-width="1.5"/><polyline points="15.056 13.333 17.5 13.333 17.5 15.778" fill="none" stroke="#323232" stroke-linecap="round" stroke-linejoin="round" stroke-width="1.5"/><path d="M16,21H8a5,5,0,0,1-5-5V8A5,5,0,0,1,8,3h8a5,5,0,0,1,5,5v8A5,5,0,0,1,16,21Z" fill="none" stroke="#323232" stroke-linecap="round" stroke-linejoin="round" stroke-width="1.5"/><path d="M24,24H0V0H24Z" fill="none"/></svg>