<svg id="Layer_3" data-name="Layer 3" xmlns="http://www.w3.org/2000/svg" viewBox="0 0 24 24"><title>Artboard 11</title><path d="M0,0H24V24H0Z" fill="none"/><path d="M24,0V24H0V0Z" fill="none"/><polyline points="21 7.5 19.2 9.3 17.4 7.5" fill="none" stroke="#323232" stroke-linecap="round" stroke-linejoin="round" stroke-width="1.5"/><path d="M19.2,9.3V6.15A2.25,2.25,0,0,0,16.95,3.9H14.7" fill="none" stroke="#323232" stroke-linecap="round" stroke-linejoin="round" stroke-width="1.5"/><polyline points="3 16.5 4.8 14.7 6.6 16.5" fill="none" stroke="#323232" stroke-linecap="round" stroke-linejoin="round" stroke-width="1.5"/><path d="M4.8,14.7v3.15A2.25,2.25,0,0,0,7.05,20.1H9.3" fill="none" stroke="#323232" stroke-linecap="round" stroke-linejoin="round" stroke-width="1.5"/><polyline points="16.5 21 14.7 19.2 16.5 17.4" fill="none" stroke="#323232" stroke-linecap="round" stroke-linejoin="round" stroke-width="1.5"/><path d="M14.7,19.2h3.15a2.25,2.25,0,0,0,2.25-2.25V14.7" fill="none" stroke="#323232" stroke-linecap="round" stroke-linejoin="round" stroke-width="1.5"/><polyline points="7.5 3 9.3 4.8 7.5 6.6" fill="none" stroke="#323232" stroke-linecap="round" stroke-linejoin="round" stroke-width="1.5"/><path d="M9.3,4.8H6.15A2.25,2.25,0,0,0,3.9,7.05V9.3" fill="none" stroke="#323232" stroke-linecap="round" stroke-linejoin="round" stroke-width="1.5"/><path d="M12,14.7A2.7,2.7,0,1,1,14.7,12,2.7,2.7,0,0,1,12,14.7" fill="none" stroke="#323232" stroke-linecap="round" stroke-linejoin="round" stroke-width="1.5"/></svg>