<svg id="Layer_3" data-name="Layer 3" xmlns="http://www.w3.org/2000/svg" viewBox="0 0 24 24"><title>rotate-arrows-circle-arrows</title><polyline points="17 9.201 16.167 10.868 14.5 10.035" fill="none" stroke="#323232" stroke-linecap="round" stroke-linejoin="round" stroke-width="1.5"/><path d="M8.622,8.3a4.439,4.439,0,0,1,7.545,2.566" fill="none" stroke="#323232" stroke-linecap="round" stroke-linejoin="round" stroke-width="1.5"/><polyline points="7 14.799 7.833 13.132 9.5 13.965" fill="none" stroke="#323232" stroke-linecap="round" stroke-linejoin="round" stroke-width="1.5"/><path d="M15.378,15.7a4.439,4.439,0,0,1-7.545-2.566" fill="none" stroke="#323232" stroke-linecap="round" stroke-linejoin="round" stroke-width="1.5"/><path d="M3,16V8A5,5,0,0,1,8,3h8a5,5,0,0,1,5,5v8a5,5,0,0,1-5,5H8A5,5,0,0,1,3,16Z" fill="none" stroke="#323232" stroke-linecap="round" stroke-linejoin="round" stroke-width="1.5"/><path d="M24,24H0V0H24Z" fill="none"/></svg>