<?xml version="1.0" encoding="utf-8"?>
<!-- Generator: Adobe Illustrator 23.1.0, SVG Export Plug-In . SVG Version: 6.00 Build 0)  -->
<svg version="1.1" id="icons" xmlns="http://www.w3.org/2000/svg" xmlns:xlink="http://www.w3.org/1999/xlink" x="0px" y="0px"
	 width="24px" height="24px" viewBox="0 0 24 24" enable-background="new 0 0 24 24" xml:space="preserve">
<g>
	<g>
		<path fill="none" stroke="#323232" stroke-width="1.5" stroke-linecap="round" stroke-linejoin="round" d="M2,11.471l1.578-1.577
			l1.577,1.577"/>
		<path fill="none" stroke="#323232" stroke-width="1.5" stroke-linecap="round" stroke-linejoin="round" d="M22,12.529
			l-1.578,1.577l-1.577-1.577"/>
		<path fill="none" stroke="#323232" stroke-width="1.5" stroke-linecap="round" stroke-linejoin="round" d="M17.957,6.047
			c1.523,1.524,2.466,3.629,2.466,5.955c0,0.64-0.078,1.26-0.212,1.859"/>
		<path fill="none" stroke="#323232" stroke-width="1.5" stroke-linecap="round" stroke-linejoin="round" d="M11.471,22
			l-1.577-1.578l1.577-1.577"/>
		<path fill="none" stroke="#323232" stroke-width="1.5" stroke-linecap="round" stroke-linejoin="round" d="M10.139,20.21
			c0.599,0.135,1.219,0.212,1.859,0.212c2.326,0,4.431-0.943,5.955-2.466"/>
		<path fill="none" stroke="#323232" stroke-width="1.5" stroke-linecap="round" stroke-linejoin="round" d="M12.529,2l1.577,1.578
			l-1.577,1.577"/>
		<path fill="none" stroke="#323232" stroke-width="1.5" stroke-linecap="round" stroke-linejoin="round" d="M13.861,3.79
			c-0.599-0.135-1.219-0.212-1.859-0.212c-2.326,0-4.431,0.943-5.955,2.466"/>
		<path fill="none" stroke="#323232" stroke-width="1.5" stroke-linecap="round" stroke-linejoin="round" d="M6.043,17.957
			c-1.523-1.524-2.466-3.629-2.466-5.955v-0.004c0-0.64,0.078-1.26,0.212-1.859"/>
	</g>
	<rect y="0" fill="none" width="24" height="24"/>
</g>
</svg>
