<?xml version="1.0" encoding="utf-8"?>
<!-- Generator: Adobe Illustrator 23.1.0, SVG Export Plug-In . SVG Version: 6.00 Build 0)  -->
<svg version="1.1" id="icons" xmlns="http://www.w3.org/2000/svg" xmlns:xlink="http://www.w3.org/1999/xlink" x="0px" y="0px"
	 width="24px" height="24px" viewBox="0 0 24 24" enable-background="new 0 0 24 24" xml:space="preserve">
<g>
	<g>
		<path fill="none" stroke="#323232" stroke-width="1.5" stroke-linecap="round" stroke-linejoin="round" d="M20.991,12.036
			c-0.009,2.292-0.879,4.58-2.627,6.328c-3.515,3.515-9.214,3.515-12.728,0c-0.625-0.625-1.134-1.322-1.537-2.06"/>
		<path fill="none" stroke="#323232" stroke-width="1.5" stroke-linecap="round" stroke-linejoin="round" d="M3.005,11.854
			c0.036-2.255,0.911-4.498,2.631-6.218c3.515-3.514,9.214-3.514,12.728,0c0.625,0.626,1.134,1.322,1.537,2.06"/>
		<path fill="none" stroke="#323232" stroke-width="1.5" stroke-linecap="round" stroke-linejoin="round" d="M17.612,7.697h2.812
			V4.884"/>
		<path fill="none" stroke="#323232" stroke-width="1.5" stroke-linecap="round" stroke-linejoin="round" d="M6.388,16.303H3.576
			v2.812"/>
		<path fill="none" stroke="#323232" stroke-width="1.5" stroke-linecap="round" stroke-linejoin="round" d="M14.475,9.525
			c1.367,1.367,1.367,3.583,0,4.95s-3.583,1.367-4.95,0s-1.367-3.583,0-4.95S13.108,8.158,14.475,9.525"/>
	</g>
	<path fill="none" d="M0,0h24v24H0V0z"/>
</g>
</svg>
