<?xml version="1.0" encoding="utf-8"?>
<!-- Generator: Adobe Illustrator 23.1.0, SVG Export Plug-In . SVG Version: 6.00 Build 0)  -->
<svg version="1.1" id="icons" xmlns="http://www.w3.org/2000/svg" xmlns:xlink="http://www.w3.org/1999/xlink" x="0px" y="0px"
	 width="24px" height="24px" viewBox="0 0 24 24" enable-background="new 0 0 24 24" xml:space="preserve">
<g>
	<rect transform="matrix(6.123234e-17 -1 1 6.123234e-17 0 24)" fill="none" width="24" height="24"/>
	<g>
		
			<rect x="9.525" y="9.525" transform="matrix(0.7071 -0.7071 0.7071 0.7071 -4.9706 11.9999)" fill="none" stroke="#323232" stroke-width="1.5" stroke-linecap="round" stroke-linejoin="round" width="4.95" height="4.951"/>
		<polyline fill="none" stroke="#323232" stroke-width="1.5" stroke-linecap="round" stroke-linejoin="round" points="5,12.25 
			3,14.25 1,12.25 		"/>
		<polyline fill="none" stroke="#323232" stroke-width="1.5" stroke-linecap="round" stroke-linejoin="round" points="19,11.75 
			21,9.75 23,11.75 		"/>
		<path fill="none" stroke="#323232" stroke-width="1.5" stroke-linecap="round" stroke-linejoin="round" d="M19.371,6.845
			C17.744,4.522,15.052,3,12,3c-4.971,0-9,4.029-9,9c0,0.694,0.086,1.366,0.235,2.015"/>
		<path fill="none" stroke="#323232" stroke-width="1.5" stroke-linecap="round" stroke-linejoin="round" d="M4.629,17.155
			C6.256,19.478,8.948,21,12,21c4.971,0,9-4.029,9-9c0-0.694-0.086-1.366-0.235-2.015"/>
	</g>
</g>
</svg>
