<?xml version="1.0" encoding="utf-8"?>
<!-- Generator: Adobe Illustrator 23.1.0, SVG Export Plug-In . SVG Version: 6.00 Build 0)  -->
<svg version="1.1" id="icons" xmlns="http://www.w3.org/2000/svg" xmlns:xlink="http://www.w3.org/1999/xlink" x="0px" y="0px"
	 width="24px" height="24px" viewBox="0 0 24 24" enable-background="new 0 0 24 24" xml:space="preserve">
<rect y="0" fill="none" width="24" height="24"/>
<g>
	<g>
		<path fill="none" stroke="#323232" stroke-width="1.5" stroke-linecap="round" stroke-linejoin="round" d="M3.125,4
			C3.125,3.93,3.07,3.875,3,3.875C2.93,3.875,2.875,3.93,2.875,4S2.93,4.125,3,4.125C3.07,4.125,3.125,4.07,3.125,4"/>
	</g>
	<g>
		<path fill="none" stroke="#323232" stroke-width="1.5" stroke-linecap="round" stroke-linejoin="round" d="M7.125,4
			C7.125,3.93,7.07,3.875,7,3.875C6.93,3.875,6.875,3.93,6.875,4S6.93,4.125,7,4.125C7.07,4.125,7.125,4.07,7.125,4"/>
	</g>
	<path fill="none" stroke="#323232" stroke-width="1.5" stroke-linecap="round" stroke-linejoin="round" d="M5,9v3
		c0,4.418,3.582,8,8,8s8-3.582,8-8s-3.582-8-8-8h-2"/>
	<polyline fill="none" stroke="#323232" stroke-width="1.5" stroke-linecap="round" stroke-linejoin="round" points="3,11 5,9 7,11 
			"/>
</g>
</svg>
