<svg id="Layer_3" data-name="Layer 3" xmlns="http://www.w3.org/2000/svg" viewBox="0 0 24 24"><title>ruler</title><line x1="12.617" y1="14.15" x2="14.137" y2="15.67" fill="none" stroke="#323232" stroke-linecap="round" stroke-linejoin="round" stroke-width="1.5"/><line x1="15.15" y1="11.617" x2="16.67" y2="13.137" fill="none" stroke="#323232" stroke-linecap="round" stroke-linejoin="round" stroke-width="1.5"/><line x1="17.684" y1="9.083" x2="19.204" y2="10.603" fill="none" stroke="#323232" stroke-linecap="round" stroke-linejoin="round" stroke-width="1.5"/><line x1="10.083" y1="16.684" x2="11.603" y2="18.204" fill="none" stroke="#323232" stroke-linecap="round" stroke-linejoin="round" stroke-width="1.5"/><path d="M14.291,7.915,8.915,13.291a3.8,3.8,0,0,1,5.376-5.376Z" fill="none" stroke="#323232" stroke-linecap="round" stroke-linejoin="round" stroke-width="1.5"/><path d="M6.227,15.979l-.958.958a.9.9,0,0,0,0,1.267L7.8,20.738a.9.9,0,0,0,1.266,0L21.738,8.069a.9.9,0,0,0,0-1.266L19.2,4.269a.9.9,0,0,0-1.267,0l-.958.958A7.6,7.6,0,0,0,6.227,15.979Z" fill="none" stroke="#323232" stroke-linecap="round" stroke-linejoin="round" stroke-width="1.5"/><rect width="24" height="24" fill="none"/></svg>