<svg id="Layer_3" data-name="Layer 3" xmlns="http://www.w3.org/2000/svg" viewBox="0 0 24 24"><title>safety-helmet-mine</title><path d="M3.5,19h.7a5.954,5.954,0,0,1,3.3,1h0a5.954,5.954,0,0,0,3.3,1H13.2a5.954,5.954,0,0,0,3.3-1h0a5.954,5.954,0,0,1,3.3-1h.7A1.5,1.5,0,0,0,22,17.5h0A1.5,1.5,0,0,0,20.5,16H3.5A1.5,1.5,0,0,0,2,17.5H2A1.5,1.5,0,0,0,3.5,19Z" fill="none" stroke="#323232" stroke-linecap="round" stroke-linejoin="round" stroke-width="1.5"/><path d="M7,5.8V8A1.5,1.5,0,0,0,8.5,9.5h0A1.5,1.5,0,0,0,10,8V6a2,2,0,0,1,2-2h0a2,2,0,0,1,2,2V8a1.5,1.5,0,0,0,1.5,1.5h0A1.5,1.5,0,0,0,17,8V5.8" fill="none" stroke="#323232" stroke-linecap="round" stroke-linejoin="round" stroke-width="1.5"/><path d="M13.732,5H14a6,6,0,0,1,6,6v5" fill="none" stroke="#323232" stroke-linecap="round" stroke-linejoin="round" stroke-width="1.5"/><path d="M10.268,5H10a6,6,0,0,0-6,6v5" fill="none" stroke="#323232" stroke-linecap="round" stroke-linejoin="round" stroke-width="1.5"/><rect width="24" height="24" fill="none"/></svg>