<svg id="Layer_3" data-name="Layer 3" xmlns="http://www.w3.org/2000/svg" viewBox="0 0 24 24"><title>salad</title><path d="M13.105,18.543l2.422-.692a3.439,3.439,0,0,0,2.3-4.45l-.079-.222.754-1.241A3.439,3.439,0,0,0,17.747,7.5h0V6.626a4.023,4.023,0,0,0-2.694-3.8l-1.724-.6a4.025,4.025,0,0,0-2.658,0l-1.724.6a4.023,4.023,0,0,0-2.694,3.8V7.5h0A3.439,3.439,0,0,0,5.5,11.938l.754,1.241-.079.222a3.439,3.439,0,0,0,2.3,4.45l2.422.692A4.029,4.029,0,0,0,13.105,18.543Z" fill="none" stroke="#323232" stroke-linecap="round" stroke-linejoin="round" stroke-width="1.5"/><path d="M12,21a12.494,12.494,0,0,0,0-7,12.494,12.494,0,0,1,0-7" fill="none" stroke="#323232" stroke-linecap="round" stroke-linejoin="round" stroke-width="1.5"/><rect width="24" height="24" fill="none"/></svg>