<svg id="Layer_3" data-name="Layer 3" xmlns="http://www.w3.org/2000/svg" viewBox="0 0 24 24"><title>sale-basket</title><path d="M3.521,13.463l1.2,1.564.258,1.945a2.408,2.408,0,0,0,2.067,2.073l1.948.26,1.559,1.2a2.4,2.4,0,0,0,2.924,0l1.561-1.2h0l1.944-.258a2.409,2.409,0,0,0,2.07-2.071l.259-1.951,1.2-1.562a2.412,2.412,0,0,0,0-2.926l-1.2-1.564-.257-1.945a2.409,2.409,0,0,0-2.068-2.073L15.035,4.7,13.476,3.5a2.4,2.4,0,0,0-2.924,0L8.991,4.7h0l-1.944.258A2.409,2.409,0,0,0,4.978,7.024l-.26,1.951-1.2,1.562A2.315,2.315,0,0,0,3.521,13.463Z" fill="none" stroke="#323232" stroke-linecap="round" stroke-linejoin="round" stroke-width="1.5"/><path d="M14.564,15.725H9.436a.843.843,0,0,1-.813-.62l-.8-2.948a.842.842,0,0,1,.814-1.063h6.735a.842.842,0,0,1,.813,1.063l-.8,2.948A.843.843,0,0,1,14.564,15.725Z" fill="none" stroke="#323232" stroke-linecap="round" stroke-linejoin="round" stroke-width="1.5"/><path d="M8.675,11.094l2.688-3.08a.842.842,0,0,1,1.268,0l2.7,3.081" fill="none" stroke="#323232" stroke-linecap="round" stroke-linejoin="round" stroke-width="1.5"/><path d="M0,0H24V24H0Z" fill="none"/></svg>