<?xml version="1.0" encoding="utf-8"?>
<!-- Generator: Adobe Illustrator 24.0.2, SVG Export Plug-In . SVG Version: 6.00 Build 0)  -->
<svg version="1.1" id="Layer_3" xmlns="http://www.w3.org/2000/svg" xmlns:xlink="http://www.w3.org/1999/xlink" x="0px" y="0px"
	 width="24px" height="24px" viewBox="0 0 24 24" enable-background="new 0 0 24 24" xml:space="preserve">
<g>
	<g>
		<path fill="none" stroke="#323232" stroke-width="1.5" stroke-linecap="round" stroke-linejoin="round" d="M11.875,10.194
			c0-0.069,0.056-0.125,0.125-0.125c0.069,0,0.125,0.056,0.125,0.125c0,0.069-0.056,0.125-0.125,0.125
			C11.931,10.319,11.875,10.263,11.875,10.194"/>
		<path fill="none" stroke="#323232" stroke-width="1.5" stroke-linecap="round" stroke-linejoin="round" d="M9.032,9.085
			l2.006-2.006c0.532-0.532,1.393-0.532,1.924-0.001l2.006,2.006c0.255,0.255,0.398,0.602,0.398,0.962v5.094
			c0,0.751-0.609,1.36-1.36,1.36H9.993c-0.751,0-1.36-0.609-1.36-1.36l0.001-5.093C8.633,9.687,8.776,9.341,9.032,9.085z"/>
		
			<path fill-rule="evenodd" clip-rule="evenodd" fill="none" stroke="#323232" stroke-width="1.5" stroke-linecap="round" stroke-linejoin="round" d="
			M18,21H6c-1.657,0-3-1.343-3-3V6c0-1.657,1.343-3,3-3h12c1.657,0,3,1.343,3,3v12C21,19.657,19.657,21,18,21z"/>
	</g>
	<path fill="none" d="M0,0h24v24H0V0z"/>
</g>
</svg>
