<?xml version="1.0" encoding="utf-8"?>
<!-- Generator: Adobe Illustrator 24.0.2, SVG Export Plug-In . SVG Version: 6.00 Build 0)  -->
<svg version="1.1" id="Layer_3" xmlns="http://www.w3.org/2000/svg" xmlns:xlink="http://www.w3.org/1999/xlink" x="0px" y="0px"
	 width="24px" height="24px" viewBox="0 0 24 24" enable-background="new 0 0 24 24" xml:space="preserve">
<g>
	<g>
		<path fill="none" stroke="#323232" stroke-width="1.5" stroke-linecap="round" stroke-linejoin="round" d="M8.699,17.244l3.6-3.6"
			/>
		<path fill="none" stroke="#323232" stroke-width="1.5" stroke-linecap="round" stroke-linejoin="round" d="M12.462,17.118
			c0.081,0.081,0.081,0.211,0,0.291c-0.081,0.081-0.211,0.081-0.291,0c-0.081-0.081-0.081-0.211,0-0.291
			C12.251,17.038,12.382,17.038,12.462,17.118"/>
		<path fill="none" stroke="#323232" stroke-width="1.5" stroke-linecap="round" stroke-linejoin="round" d="M8.828,13.48
			c0.081,0.081,0.081,0.211,0,0.291c-0.081,0.081-0.211,0.081-0.291,0c-0.08-0.081-0.081-0.211,0-0.291
			C8.618,13.4,8.748,13.399,8.828,13.48"/>
		<path fill="none" stroke="#323232" stroke-width="1.5" stroke-linecap="round" stroke-linejoin="round" d="M16,21H5
			c-1.105,0-2-0.895-2-2v-7c0-1.105,0.895-2,2-2h11c1.105,0,2,0.895,2,2v7C18,20.105,17.105,21,16,21z"/>
		<path fill="none" stroke="#323232" stroke-width="1.5" stroke-linecap="round" stroke-linejoin="round" d="M6,10V6
			c0-1.105,0.895-2,2-2h11c1.105,0,2,0.895,2,2v7c0,1.105-0.895,2-2,2h-1"/>
	</g>
	<path fill="none" d="M0,0h24v24H0V0z"/>
</g>
</svg>
