<?xml version="1.0" encoding="utf-8"?>
<!-- Generator: Adobe Illustrator 24.0.2, SVG Export Plug-In . SVG Version: 6.00 Build 0)  -->
<svg version="1.1" id="Layer_3" xmlns="http://www.w3.org/2000/svg" xmlns:xlink="http://www.w3.org/1999/xlink" x="0px" y="0px"
	 width="24px" height="24px" viewBox="0 0 24 24" enable-background="new 0 0 24 24" xml:space="preserve">
<g>
	<g>
		<path fill="none" stroke="#323232" stroke-width="1.5" stroke-linecap="round" stroke-linejoin="round" d="M13.415,10.635
			c0.049,0.049,0.049,0.128,0,0.177s-0.128,0.049-0.177,0c-0.049-0.049-0.049-0.128,0-0.177
			C13.287,10.586,13.367,10.586,13.415,10.635"/>
		<path fill="none" stroke="#323232" stroke-width="1.5" stroke-linecap="round" stroke-linejoin="round" d="M11.962,7.84h2.837
			c0.752,0,1.361,0.609,1.361,1.36v2.837c0,0.361-0.144,0.707-0.399,0.962l-3.602,3.602c-0.531,0.531-1.392,0.531-1.924,0
			l-2.837-2.837c-0.531-0.531-0.531-1.392,0-1.924L11,8.239C11.255,7.984,11.601,7.84,11.962,7.84z"/>
		<circle fill="none" stroke="#323232" stroke-width="1.5" stroke-linecap="round" stroke-linejoin="round" cx="12" cy="12" r="9"/>
	</g>
	<path fill="none" d="M0,0h24v24H0V0z"/>
</g>
</svg>
