<svg id="Layer_3" data-name="Layer 3" xmlns="http://www.w3.org/2000/svg" viewBox="0 0 24 24"><title>sale-discount-promotion-label</title><path d="M13.415,10.635a.125.125,0,1,1-.177,0,.125.125,0,0,1,.177,0" fill="none" stroke="#323232" stroke-linecap="round" stroke-linejoin="round" stroke-width="1.5"/><path d="M11.962,7.84H14.8A1.36,1.36,0,0,1,16.16,9.2v2.837a1.361,1.361,0,0,1-.4.962l-3.6,3.6a1.361,1.361,0,0,1-1.924,0L7.4,13.764a1.361,1.361,0,0,1,0-1.924l3.6-3.6A1.361,1.361,0,0,1,11.962,7.84Z" fill="none" stroke="#323232" stroke-linecap="round" stroke-linejoin="round" stroke-width="1.5"/><path d="M3.5,13.464l1.2,1.565.258,1.946A2.413,2.413,0,0,0,7.023,19.05l1.952.26L10.537,20.5a2.412,2.412,0,0,0,2.93,0l1.564-1.194h0l1.948-.258a2.413,2.413,0,0,0,2.074-2.073l.26-1.952,1.2-1.563a2.412,2.412,0,0,0,0-2.928l-1.2-1.565-.258-1.946A2.413,2.413,0,0,0,16.979,4.95l-1.952-.26L13.465,3.5a2.412,2.412,0,0,0-2.93,0L8.971,4.69h0l-1.948.258A2.413,2.413,0,0,0,4.951,7.021l-.26,1.952L3.5,10.536A2.41,2.41,0,0,0,3.5,13.464Z" fill="none" stroke="#323232" stroke-linecap="round" stroke-linejoin="round" stroke-width="1.5"/><path d="M0,0H24V24H0Z" fill="none"/></svg>