<?xml version="1.0" encoding="utf-8"?>
<!-- Generator: Adobe Illustrator 24.0.2, SVG Export Plug-In . SVG Version: 6.00 Build 0)  -->
<svg version="1.1" id="Layer_3" xmlns="http://www.w3.org/2000/svg" xmlns:xlink="http://www.w3.org/1999/xlink" x="0px" y="0px"
	 width="24px" height="24px" viewBox="0 0 24 24" enable-background="new 0 0 24 24" xml:space="preserve">
<g>
	<g>
		<path fill="none" stroke="#323232" stroke-width="1.5" stroke-linecap="round" stroke-linejoin="round" d="M15.722,7.278
			c0.098,0.098,0.098,0.256,0,0.354c-0.098,0.098-0.256,0.098-0.354,0c-0.098-0.098-0.098-0.256,0-0.354
			C15.466,7.181,15.624,7.181,15.722,7.278"/>
		<path fill="none" stroke="#323232" stroke-width="1.5" stroke-linecap="round" stroke-linejoin="round" d="M13.512,3h4.385
			C19.059,3,20,3.941,20,5.102v4.385c0,0.558-0.222,1.092-0.616,1.487l-8.41,8.41c-0.821,0.821-2.152,0.821-2.973,0l-4.385-4.385
			c-0.821-0.821-0.821-2.152,0-2.973l8.41-8.41C12.42,3.222,12.955,3,13.512,3z"/>
		<path fill="none" stroke="#323232" stroke-width="1.5" stroke-linecap="round" stroke-linejoin="round" d="M14,21h4
			c1.105,0,2-0.895,2-2v-4"/>
	</g>
	<path fill="none" d="M0,0h24v24H0V0z"/>
</g>
</svg>
