<svg id="Layer_3" data-name="Layer 3" xmlns="http://www.w3.org/2000/svg" viewBox="0 0 24 24"><title>sale-discount-promotion-lable-square</title><path d="M13.415,10.635a.125.125,0,1,1-.177,0,.125.125,0,0,1,.177,0" fill="none" stroke="#323232" stroke-linecap="round" stroke-linejoin="round" stroke-width="1.5"/><path d="M11.962,7.84H14.8A1.36,1.36,0,0,1,16.16,9.2v2.837a1.361,1.361,0,0,1-.4.962l-3.6,3.6a1.361,1.361,0,0,1-1.924,0L7.4,13.764a1.361,1.361,0,0,1,0-1.924l3.6-3.6A1.361,1.361,0,0,1,11.962,7.84Z" fill="none" stroke="#323232" stroke-linecap="round" stroke-linejoin="round" stroke-width="1.5"/><rect x="3" y="3" width="18" height="18" rx="5" stroke-width="1.5" stroke="#323232" stroke-linecap="round" stroke-linejoin="round" fill="none"/><path d="M0,0H24V24H0Z" fill="none"/></svg>