<svg id="Layer_3" data-name="Layer 3" xmlns="http://www.w3.org/2000/svg" viewBox="0 0 24 24"><title>sata-cable</title><path d="M15,12v5a4,4,0,0,1-4,4H8a4,4,0,0,1-4-4V10" fill="none" stroke="#323232" stroke-linecap="round" stroke-linejoin="round" stroke-width="1.5"/><path d="M20,12v5a4,4,0,0,1-4,4H13a4,4,0,0,1-4-4V10" fill="none" stroke="#323232" stroke-linecap="round" stroke-linejoin="round" stroke-width="1.5"/><rect x="3" y="6" width="7" height="4" rx="1" stroke-width="1.5" stroke="#323232" stroke-linecap="round" stroke-linejoin="round" fill="none"/><path d="M5,3H8A1,1,0,0,1,9,4V6A0,0,0,0,1,9,6H4A0,0,0,0,1,4,6V4A1,1,0,0,1,5,3Z" fill="none" stroke="#323232" stroke-linecap="round" stroke-linejoin="round" stroke-width="1.5"/><rect x="14" y="8" width="7" height="4" rx="1" stroke-width="1.5" stroke="#323232" stroke-linecap="round" stroke-linejoin="round" fill="none"/><path d="M16,5h3a1,1,0,0,1,1,1V8a0,0,0,0,1,0,0H15a0,0,0,0,1,0,0V6A1,1,0,0,1,16,5Z" fill="none" stroke="#323232" stroke-linecap="round" stroke-linejoin="round" stroke-width="1.5"/><path d="M0,0H24V24H0Z" fill="none"/></svg>