<svg id="Layer_3" data-name="Layer 3" xmlns="http://www.w3.org/2000/svg" viewBox="0 0 24 24"><title>satchel-bag</title><path d="M6.182,7H17.818A3.182,3.182,0,0,1,21,10.182V18a3,3,0,0,1-3,3H6a3,3,0,0,1-3-3V10.182A3.182,3.182,0,0,1,6.182,7Z" fill="none" stroke="#323232" stroke-linecap="round" stroke-linejoin="round" stroke-width="1.5"/><path d="M21,11c-4.97056,2.66667-13.02944,2.66667-18,0" fill="none" stroke="#323232" stroke-linecap="round" stroke-linejoin="round" stroke-width="1.5" fill-rule="evenodd"/><path d="M8,9V5a2,2,0,0,1,2-2h4a2,2,0,0,1,2,2V9" fill="none" stroke="#323232" stroke-linecap="round" stroke-linejoin="round" stroke-width="1.5" fill-rule="evenodd"/><line x1="13.5" y1="17" x2="10.5" y2="17" fill="none" stroke="#323232" stroke-linecap="round" stroke-linejoin="round" stroke-width="1.5"/><rect width="24" height="24" fill="none"/></svg>