<svg id="Layer_3" data-name="Layer 3" xmlns="http://www.w3.org/2000/svg" viewBox="0 0 24 24"><path d="M12,2h0a3,3,0,0,1,3,3V5a0,0,0,0,1,0,0H9A0,0,0,0,1,9,5V5a3,3,0,0,1,3-3Z" fill="none" stroke="#323232" stroke-linecap="round" stroke-linejoin="round" stroke-width="1.5"/><path d="M20,8V19a2,2,0,0,1-2,2H6a2,2,0,0,1-2-2V8" fill="none" stroke="#323232" stroke-linecap="round" stroke-linejoin="round" stroke-width="1.5"/><line x1="4" y1="9" x2="20" y2="9" fill="none" stroke="#323232" stroke-linecap="round" stroke-linejoin="round" stroke-width="1.5"/><path d="M20,8h0a3,3,0,0,0-3-3H7A3,3,0,0,0,4,8H4" fill="none" stroke="#323232" stroke-linecap="round" stroke-linejoin="round" stroke-width="1.5"/><path d="M20,9h1.5A1.5,1.5,0,0,1,23,10.5v0A1.5,1.5,0,0,1,21.5,12H20a0,0,0,0,1,0,0V9A0,0,0,0,1,20,9Z" fill="none" stroke="#323232" stroke-linecap="round" stroke-linejoin="round" stroke-width="1.5"/><path d="M2.5,9H4A0,0,0,0,1,4,9v3a0,0,0,0,1,0,0H2.5A1.5,1.5,0,0,1,1,10.5v0A1.5,1.5,0,0,1,2.5,9Z" fill="none" stroke="#323232" stroke-linecap="round" stroke-linejoin="round" stroke-width="1.5"/><circle cx="12" cy="15" r="3" fill="none" stroke="#323232" stroke-linecap="round" stroke-linejoin="round" stroke-width="1.5"/><line x1="12" y1="12" x2="12" y2="15" fill="none" stroke="#323232" stroke-linecap="round" stroke-linejoin="round" stroke-width="1.5"/><path d="M24,24H0V0H24Z" fill="none"/></svg>