<svg id="Layer_3" data-name="Layer 3" xmlns="http://www.w3.org/2000/svg" viewBox="0 0 24 24"><circle cx="12" cy="16" r="2.07792" fill="none" stroke="#323232" stroke-linecap="round" stroke-linejoin="round" stroke-width="1.5"/><path d="M5,3H19a1,1,0,0,1,1,1V4a4.5,4.5,0,0,1-4.5,4.5h-7A4.5,4.5,0,0,1,4,4V4A1,1,0,0,1,5,3Z" fill="none" stroke="#323232" stroke-linecap="round" stroke-linejoin="round" stroke-width="1.5"/><path d="M8.14109,11a2.07792,2.07792,0,0,0-2.0444,1.70621L5.03412,18.55037A2.07792,2.07792,0,0,0,7.07852,21h9.843a2.07792,2.07792,0,0,0,2.0444-2.44963l-1.06257-5.84416A2.07792,2.07792,0,0,0,15.85891,11Z" fill="none" stroke="#323232" stroke-linecap="round" stroke-linejoin="round" stroke-width="1.5"/><rect x="9" y="8.5" width="6" height="2.5" stroke-width="1.5" stroke="#323232" stroke-linecap="round" stroke-linejoin="round" fill="none"/><path d="M24,24H0V0H24Z" fill="none"/></svg>