<svg id="Layer_3" data-name="Layer 3" xmlns="http://www.w3.org/2000/svg" viewBox="0 0 24 24"><title>scanner</title><path d="M17.251,10H6.749a1,1,0,0,1-.908-.581L4.187,5.839A2,2,0,0,1,6,3H18a2,2,0,0,1,1.815,2.839l-1.654,3.58A1,1,0,0,1,17.251,10Z" fill="none" stroke="#323232" stroke-linecap="round" stroke-linejoin="round" stroke-width="1.5"/><path d="M3,16.108V19a2,2,0,0,0,2,2H19a2,2,0,0,0,2-2V16.108a4,4,0,0,0-.57-2.058l-1.847-3.079A2,2,0,0,0,16.868,10H7.132a2,2,0,0,0-1.715.971L3.57,14.05A4,4,0,0,0,3,16.108Z" fill="none" stroke="#323232" stroke-linecap="round" stroke-linejoin="round" stroke-width="1.5"/><line x1="18" y1="18" x2="16" y2="18" fill="none" stroke="#323232" stroke-linecap="round" stroke-linejoin="round" stroke-width="1.5"/><path d="M3,19V17a2,2,0,0,1,2-2H19a2,2,0,0,1,2,2v2" fill="none" stroke="#323232" stroke-linecap="round" stroke-linejoin="round" stroke-width="1.5"/><path d="M0,0H24V24H0Z" fill="none"/></svg>