<svg id="Layer_3" data-name="Layer 3" xmlns="http://www.w3.org/2000/svg" viewBox="0 0 24 24"><title>scaner-barcode-select</title><path d="M0,0H24V24H0Z" fill="none"/><line x1="6.50001" y1="8.00002" x2="6.50001" y2="12.00001" fill="none" stroke="#323232" stroke-linecap="round" stroke-linejoin="round" stroke-width="1.5"/><line x1="10.16668" y1="8.00002" x2="10.16668" y2="12.00001" fill="none" stroke="#323232" stroke-linecap="round" stroke-linejoin="round" stroke-width="1.5"/><line x1="13.83334" y1="8.00002" x2="13.83334" y2="12.00001" fill="none" stroke="#323232" stroke-linecap="round" stroke-linejoin="round" stroke-width="1.5"/><path d="M7,21H6a3,3,0,0,1-3-3V17" fill="none" stroke="#323232" stroke-linecap="round" stroke-linejoin="round" stroke-width="1.5"/><path d="M17,3h1a3,3,0,0,1,3,3V7" fill="none" stroke="#323232" stroke-linecap="round" stroke-linejoin="round" stroke-width="1.5"/><path d="M3,7V6A3,3,0,0,1,6,3H7" fill="none" stroke="#323232" stroke-linecap="round" stroke-linejoin="round" stroke-width="1.5"/><path d="M21,17v1a3,3,0,0,1-3,3H17" fill="none" stroke="#323232" stroke-linecap="round" stroke-linejoin="round" stroke-width="1.5"/><line x1="6.50002" y1="15.00003" x2="6.50002" y2="17.00004" fill="none" stroke="#323232" stroke-linecap="round" stroke-linejoin="round" stroke-width="1.5"/><line x1="10.16668" y1="15.00003" x2="10.16668" y2="17.00004" fill="none" stroke="#323232" stroke-linecap="round" stroke-linejoin="round" stroke-width="1.5"/><line x1="13.83335" y1="15.12502" x2="13.83335" y2="17.00004" fill="none" stroke="#323232" stroke-linecap="round" stroke-linejoin="round" stroke-width="1.5"/><line x1="17.50001" y1="15.12502" x2="17.50001" y2="17.00004" fill="none" stroke="#323232" stroke-linecap="round" stroke-linejoin="round" stroke-width="1.5"/><line x1="17.5" y1="8.00002" x2="17.5" y2="12.00001" fill="none" stroke="#323232" stroke-linecap="round" stroke-linejoin="round" stroke-width="1.5"/><line x1="4" y1="12" x2="20" y2="12" fill="none" stroke="#323232" stroke-linecap="round" stroke-linejoin="round" stroke-width="1.5"/></svg>