<svg id="Layer_3" data-name="Layer 3" xmlns="http://www.w3.org/2000/svg" viewBox="0 0 24 24"><title>science-neurons</title><path d="M0,0H24V24H0Z" fill="none"/><path d="M12,21h0a9,9,0,0,1-9-9H3a9,9,0,0,1,9-9h0a9,9,0,0,1,9,9h0A9,9,0,0,1,12,21Z" fill="none" stroke="#323232" stroke-linecap="round" stroke-linejoin="round" stroke-width="1.5"/><path d="M10.333,7.667h0A1.667,1.667,0,0,1,12,6h0a1.667,1.667,0,0,1,1.667,1.667h0A1.667,1.667,0,0,1,12,9.334h0A1.668,1.668,0,0,1,10.333,7.667Z" fill="none" stroke="#323232" stroke-linecap="round" stroke-linejoin="round" stroke-width="1.5"/><path d="M6.293,14.333h0A1.667,1.667,0,0,1,7.96,12.666h0a1.667,1.667,0,0,1,1.667,1.667h0A1.668,1.668,0,0,1,7.96,16h0A1.667,1.667,0,0,1,6.293,14.333Z" fill="none" stroke="#323232" stroke-linecap="round" stroke-linejoin="round" stroke-width="1.5"/><path d="M14.373,14.333h0a1.667,1.667,0,0,1,1.667-1.667h0a1.667,1.667,0,0,1,1.667,1.667h0A1.667,1.667,0,0,1,16.04,16h0A1.667,1.667,0,0,1,14.373,14.333Z" fill="none" stroke="#323232" stroke-linecap="round" stroke-linejoin="round" stroke-width="1.5"/><path d="M12.9,9.07l2.419,3.759" fill="none" stroke="#323232" stroke-linecap="round" stroke-linejoin="round" stroke-width="1.5"/><path d="M11.094,9.07,8.687,12.829" fill="none" stroke="#323232" stroke-linecap="round" stroke-linejoin="round" stroke-width="1.5"/><path d="M14.37,14.33H9.627" fill="none" stroke="#323232" stroke-linecap="round" stroke-linejoin="round" stroke-width="1.5"/></svg>