<svg id="Layer_3" data-name="Layer 3" xmlns="http://www.w3.org/2000/svg" viewBox="0 0 24 24"><title>science-dna-circle</title><circle cx="12" cy="12" r="9" fill="none" stroke="#323232" stroke-linecap="round" stroke-linejoin="round" stroke-width="1.5"/><path d="M8.532,7.975h0A1.475,1.475,0,0,1,10.007,6.5h3.986a1.475,1.475,0,0,1,1.475,1.475h0A4.249,4.249,0,0,1,12,12h0a4.248,4.248,0,0,0-3.468,4.025h0A1.475,1.475,0,0,0,10.007,17.5h3.986a1.475,1.475,0,0,0,1.475-1.475h0A4.249,4.249,0,0,0,12,12h0A4.248,4.248,0,0,1,8.532,7.975Z" fill="none" stroke="#323232" stroke-linecap="round" stroke-linejoin="round" stroke-width="1.5"/><path d="M0,0H24V24H0Z" fill="none"/></svg>