<svg id="Layer_3" data-name="Layer 3" xmlns="http://www.w3.org/2000/svg" viewBox="0 0 24 24"><title>scorpio</title><path d="M20,13.5v4A2.5,2.5,0,0,1,17.5,20h0A2.5,2.5,0,0,1,15,17.5V7.75a2.5,2.5,0,0,0-2.5-2.5h0A2.5,2.5,0,0,0,10,7.75V19" fill="none" stroke="#323232" stroke-linecap="round" stroke-linejoin="round" stroke-width="1.5"/><polyline points="22 15.5 20 13.5 18 15.5" fill="none" stroke="#323232" stroke-linecap="round" stroke-linejoin="round" stroke-width="1.5"/><path d="M10,7.75a2.5,2.5,0,0,0-2.5-2.5h0A2.5,2.5,0,0,0,5,7.75V19" fill="none" stroke="#323232" stroke-linecap="round" stroke-linejoin="round" stroke-width="1.5"/><path d="M5,7.75V6A2,2,0,0,0,3,4" fill="none" stroke="#323232" stroke-linecap="round" stroke-linejoin="round" stroke-width="1.5"/><path d="M24,24H0V0H24Z" fill="none"/></svg>