<svg id="Layer_3" data-name="Layer 3" xmlns="http://www.w3.org/2000/svg" viewBox="0 0 24 24"><title>screwdriver</title><path d="M19.718,3.027l-2.126.708a1.051,1.051,0,0,0-.718,1V7.126h2.394a1.051,1.051,0,0,0,1-.718l.708-2.126a.523.523,0,0,0-.127-.537l-.591-.591A.523.523,0,0,0,19.718,3.027Z" fill="none" stroke="#323232" stroke-linecap="round" stroke-linejoin="round" stroke-width="1.5"/><line x1="12.903" y1="11.097" x2="16.874" y2="7.126" fill="none" stroke="#323232" stroke-linecap="round" stroke-linejoin="round" stroke-width="1.5"/><line x1="7.919" y1="16.081" x2="9.919" y2="14.081" fill="none" stroke="#323232" stroke-linecap="round" stroke-linejoin="round" stroke-width="1.5"/><path d="M9.186,11.659,5.353,15.492h-1.3l-.743.743a1.05,1.05,0,0,0,0,1.486L4.792,19.2l1.487,1.487a1.05,1.05,0,0,0,1.486,0l.743-.743V18.641l3.833-3.833v0h1.3l.743-.743a1.051,1.051,0,0,0,0-1.486L12.9,11.1,11.416,9.61a1.048,1.048,0,0,0-1.485,0l-.743.743v1.308" fill="none" stroke="#323232" stroke-linecap="round" stroke-linejoin="round" stroke-width="1.5"/><path d="M24,0V24H0V0Z" fill="none"/></svg>