<svg id="Layer_3" data-name="Layer 3" xmlns="http://www.w3.org/2000/svg" viewBox="0 0 24 24"><title>screwdriver-circle</title><path d="M24,0V24H0V0Z" fill="none"/><path d="M8.9,16.29l2.023-.674a1,1,0,0,0,.684-.949V12.388H9.331a1,1,0,0,0-.949.684L7.708,15.1a.5.5,0,0,0,.121.512l.562.562A.5.5,0,0,0,8.9,16.29Z" fill="none" stroke="#323232" stroke-linecap="round" stroke-linejoin="round" stroke-width="1.5"/><circle cx="12" cy="12" r="9" fill="none" stroke="#323232" stroke-linecap="round" stroke-linejoin="round" stroke-width="1.5"/><line x1="14.12" y1="9.877" x2="11.61" y2="12.388" fill="none" stroke="#323232" stroke-linecap="round" stroke-linejoin="round" stroke-width="1.5"/><polyline points="16.792 4.38 14.828 6.343 13.414 6.343 12 7.757 16.243 12 17.657 10.586 17.657 9.172 19.62 7.208" fill="none" stroke="#323232" stroke-linecap="round" stroke-linejoin="round" stroke-width="1.5"/></svg>