<svg id="Layer_3" data-name="Layer 3" xmlns="http://www.w3.org/2000/svg" viewBox="0 0 24 24"><title>seafood-sushi</title><rect width="24" height="24" fill="none"/><path d="M21,6v7c0,1.65685-2.68629,3-6,3" fill="none" stroke="#323232" stroke-linecap="round" stroke-linejoin="round" stroke-width="1.5"/><ellipse cx="9" cy="10.5" rx="6" ry="3.5" fill="none" stroke="#323232" stroke-linecap="round" stroke-linejoin="round" stroke-width="1.5"/><path d="M15,10.5V18c0,1.65685-2.68629,3-6,3s-6-1.34315-6-3V10.5" fill="none" stroke="#323232" stroke-linecap="round" stroke-linejoin="round" stroke-width="1.5"/><line x1="10.31934" y1="10.5" x2="7.68066" y2="10.5" fill="none" stroke="#323232" stroke-linecap="round" stroke-linejoin="round" stroke-width="1.5"/><path d="M9.36,7.01A1.62275,1.62275,0,0,1,9,6c0-1.66,2.69-3,6-3s6,1.34,6,3-2.69,3-6,3c-.2,0-.41-.01-.6-.02" fill="none" stroke="#323232" stroke-linecap="round" stroke-linejoin="round" stroke-width="1.5"/></svg>