<svg id="Layer_3" data-name="Layer 3" xmlns="http://www.w3.org/2000/svg" viewBox="0 0 24 24"><title>seafood-fish</title><rect width="24" height="24" fill="none"/><path d="M4.85714,3H7a9,9,0,0,1,9,9v3.342a.658.658,0,0,1-.658.658H12A9,9,0,0,1,3,7V4.85714A1.85714,1.85714,0,0,1,4.85714,3Z" fill="none" stroke="#323232" stroke-linecap="round" stroke-linejoin="round" stroke-width="1.5"/><path d="M6.14137,6.13425a.05959.05959,0,1,0,.05983.05959.05926.05926,0,0,0-.05983-.05959" fill="none" stroke="#323232" stroke-linecap="round" stroke-linejoin="round" stroke-width="1.5"/><path d="M9.5,6.493h0a3,3,0,0,1-3,3h0" fill="none" stroke="#323232" stroke-linecap="round" stroke-linejoin="round" stroke-width="1.5"/><path d="M12.28592,4.727h3.08535a1.61617,1.61617,0,0,1,1.14279.47336h0a1.61614,1.61614,0,0,1,0,2.28558L15.34913,8.65087" fill="none" stroke="#323232" stroke-linecap="round" stroke-linejoin="round" stroke-width="1.5"/><path d="M4.727,12.28592v3.08535a1.61617,1.61617,0,0,0,.47336,1.14279h0a1.61614,1.61614,0,0,0,2.28558,0l1.16493-1.16493" fill="none" stroke="#323232" stroke-linecap="round" stroke-linejoin="round" stroke-width="1.5"/><path d="M18.20924,18.20924h.54493A3.17608,3.17608,0,0,0,21,17.279h0a3.33232,3.33232,0,0,0-3.81484-2.21384h0a2.70249,2.70249,0,0,0-2.12,2.12h0A3.33232,3.33232,0,0,0,17.279,21h0a3.176,3.176,0,0,0,.93026-2.24583Z" fill="none" stroke="#323232" stroke-linecap="round" stroke-linejoin="round" stroke-width="1.5"/></svg>