<?xml version="1.0" encoding="utf-8"?>
<!-- Generator: Adobe Illustrator 24.0.2, SVG Export Plug-In . SVG Version: 6.00 Build 0)  -->
<svg version="1.1" id="Layer_1" xmlns="http://www.w3.org/2000/svg" xmlns:xlink="http://www.w3.org/1999/xlink" x="0px" y="0px"
	 width="24px" height="24px" viewBox="0 0 24 24" enable-background="new 0 0 24 24" xml:space="preserve">
<g>
	<g>
		<g>
			<path fill="none" stroke="#323232" stroke-width="1.5" stroke-linecap="round" stroke-linejoin="round" d="M12,3
				c4.971,0,9,4.029,9,9"/>
			<path fill="none" stroke="#323232" stroke-width="1.5" stroke-linecap="round" stroke-linejoin="round" d="M9,3.528
				C5.507,4.764,3,8.084,3,12c0,4.971,4.029,9,9,9c3.916,0,7.235-2.507,8.471-6"/>
			<path fill="none" stroke="#323232" stroke-width="1.5" stroke-linecap="round" stroke-linejoin="round" d="M12,6
				c3.314,0,6,2.686,6,6"/>
			<path fill="none" stroke="#323232" stroke-width="1.5" stroke-linecap="round" stroke-linejoin="round" d="M12,9
				c1.657,0,3,1.343,3,3"/>
			<path fill="none" stroke="#323232" stroke-width="1.5" stroke-linecap="round" stroke-linejoin="round" d="M12,11.95
				c-0.028,0-0.05,0.023-0.05,0.05c0,0.028,0.023,0.05,0.05,0.05c0.028,0,0.05-0.023,0.05-0.05C12.05,11.972,12.028,11.95,12,11.95"
				/>
		</g>
	</g>
	<rect y="0" fill="none" width="24" height="24"/>
</g>
</svg>
