<svg id="Layer_3" data-name="Layer 3" xmlns="http://www.w3.org/2000/svg" viewBox="0 0 24 24"><title>search-package-box</title><path d="M20,20l-3.25-3.25" fill="none" stroke="#323232" stroke-linecap="round" stroke-linejoin="round" stroke-width="1.5"/><path d="M16.747,6.187a7.467,7.467,0,1,1-10.56,0,7.467,7.467,0,0,1,10.56,0" fill="none" stroke="#323232" stroke-linecap="round" stroke-linejoin="round" stroke-width="1.5"/><path d="M11.47,7.97v3.222" fill="none" stroke="#323232" stroke-linecap="round" stroke-linejoin="round" stroke-width="1.5"/><path d="M14.97,11.97a.778.778,0,0,0-.778-.778H8.748a.778.778,0,0,0-.778.778" fill="none" stroke="#323232" stroke-linecap="round" stroke-linejoin="round" stroke-width="1.5"/><path d="M8.97,14.97h5a1,1,0,0,0,1-1V10.405a3.007,3.007,0,0,0-.241-1.179l-.278-.649a1,1,0,0,0-.919-.607H9.408a1,1,0,0,0-.92.607l-.277.648A3.007,3.007,0,0,0,7.97,10.4V13.97A1,1,0,0,0,8.97,14.97Z" fill="none" stroke="#323232" stroke-linecap="round" stroke-linejoin="round" stroke-width="1.5"/><path d="M24,0V24H0V0Z" fill="none"/></svg>