<?xml version="1.0" encoding="utf-8"?>
<!-- Generator: Adobe Illustrator 24.0.2, SVG Export Plug-In . SVG Version: 6.00 Build 0)  -->
<svg version="1.1" id="Layer_3" xmlns="http://www.w3.org/2000/svg" xmlns:xlink="http://www.w3.org/1999/xlink" x="0px" y="0px"
	 width="24px" height="24px" viewBox="0 0 24 24" enable-background="new 0 0 24 24" xml:space="preserve">
<g>
	<g>
		<path fill="none" stroke="#323232" stroke-width="1.5" stroke-linecap="round" stroke-linejoin="round" d="M13,17l-2.013-2.013"/>
		<path fill="none" stroke="#323232" stroke-width="1.5" stroke-linecap="round" stroke-linejoin="round" d="M10.983,11.683
			c0.911,0.911,0.911,2.389,0,3.3s-2.389,0.911-3.3,0s-0.911-2.389,0-3.3C8.595,10.772,10.072,10.772,10.983,11.683"/>
		<path fill="none" stroke="#323232" stroke-width="1.5" stroke-linecap="round" stroke-linejoin="round" d="M15,21H5
			c-1.105,0-2-0.895-2-2V9c0-1.105,0.895-2,2-2h10c1.105,0,2,0.895,2,2v10C17,20.105,16.105,21,15,21z"/>
		<path fill="none" stroke="#323232" stroke-width="1.5" stroke-linecap="round" stroke-linejoin="round" d="M7,7V5
			c0-1.105,0.895-2,2-2h10c1.105,0,2,0.895,2,2v10c0,1.105-0.895,2-2,2h-2"/>
	</g>
	<path fill="none" d="M0,0h24v24H0V0z"/>
</g>
</svg>
