<?xml version="1.0" encoding="utf-8"?>
<!-- Generator: Adobe Illustrator 24.0.2, SVG Export Plug-In . SVG Version: 6.00 Build 0)  -->
<svg version="1.1" id="Layer_3" xmlns="http://www.w3.org/2000/svg" xmlns:xlink="http://www.w3.org/1999/xlink" x="0px" y="0px"
	 width="24px" height="24px" viewBox="0 0 24 24" enable-background="new 0 0 24 24" xml:space="preserve">
<g>
	<g>
		<path fill="none" d="M0,0h24v24H0V0z"/>
	</g>
	<g>
		<path fill="none" stroke="#323232" stroke-width="1.5" stroke-linecap="round" stroke-linejoin="round" d="M18.934,11.467
			c0,4.123-3.344,7.467-7.467,7.467S4,15.59,4,11.467S7.344,4,11.467,4S18.934,7.344,18.934,11.467"/>
		<g>
			
				<line fill="none" stroke="#323232" stroke-width="1.5" stroke-linecap="round" stroke-linejoin="round" x1="20" y1="20" x2="16.747" y2="16.747"/>
		</g>
		<path fill="none" stroke="#323232" stroke-width="1.5" stroke-linecap="round" stroke-linejoin="round" d="M11.467,15.425
			c-0.04,0-0.075,0.034-0.075,0.075c0,0.04,0.034,0.075,0.075,0.075c0.04,0,0.075-0.034,0.075-0.075
			C11.542,15.459,11.507,15.425,11.467,15.425L11.467,15.425"/>
		<path fill="none" stroke="#323232" stroke-width="1.5" stroke-linecap="round" stroke-linejoin="round" d="M11.467,12.4
			c1.289,0,2.334-1.045,2.334-2.334c0-1.289-1.044-2.334-2.334-2.334c-1.257,0-2.274,0.995-2.324,2.24"/>
	</g>
</g>
</svg>
