<?xml version="1.0" encoding="utf-8"?>
<!-- Generator: Adobe Illustrator 23.1.0, SVG Export Plug-In . SVG Version: 6.00 Build 0)  -->
<svg version="1.1" id="icons" xmlns="http://www.w3.org/2000/svg" xmlns:xlink="http://www.w3.org/1999/xlink" x="0px" y="0px"
	 width="24px" height="24px" viewBox="0 0 24 24" enable-background="new 0 0 24 24" xml:space="preserve">
<g>
	<rect fill="none" width="24" height="24"/>
	<g>
		<path fill="none" stroke="#323232" stroke-width="1.5" stroke-linecap="round" stroke-linejoin="round" d="M18.223,10.169
			c0.086,0.434,0.133,0.883,0.133,1.343c0,3.781-3.064,6.845-6.845,6.845c-1.875,0-3.572-0.755-4.808-1.976"/>
		<path fill="none" stroke="#323232" stroke-width="1.5" stroke-linecap="round" stroke-linejoin="round" d="M16.38,6.703
			c-1.241-1.257-2.963-2.036-4.869-2.036c-3.781,0-6.845,3.064-6.845,6.845c0,0.494,0.055,0.975,0.154,1.439"/>
		<polyline fill="none" stroke="#323232" stroke-width="1.5" stroke-linecap="round" stroke-linejoin="round" points="
			16.334,12.189 18.292,10.094 20.25,12.189 		"/>
		
			<line fill="none" stroke="#323232" stroke-width="1.5" stroke-linecap="round" stroke-linejoin="round" x1="4.729" y1="13.049" x2="2.771" y2="10.955"/>
		
			<line fill="none" stroke="#323232" stroke-width="1.5" stroke-linecap="round" stroke-linejoin="round" x1="19.333" y1="19.333" x2="16.352" y2="16.352"/>
		
			<line fill="none" stroke="#323232" stroke-width="1.5" stroke-linecap="round" stroke-linejoin="round" x1="6.686" y1="10.955" x2="4.729" y2="13.049"/>
	</g>
</g>
</svg>
