<svg id="Layer_3" data-name="Layer 3" xmlns="http://www.w3.org/2000/svg" viewBox="0 0 24 24"><title>search-loap-loading-circle</title><path d="M0,0H24V24H0Z" fill="none"/><path d="M12,3a9,9,0,0,1,0,18h0" fill="none" stroke="#323232" stroke-linecap="round" stroke-linejoin="round" stroke-width="1.5"/><path d="M14,8.974a3.554,3.554,0,1,1-5.026,0,3.554,3.554,0,0,1,5.026,0" fill="none" stroke="#323232" stroke-linecap="round" stroke-linejoin="round" stroke-width="1.5"/><path d="M16,16l-2-2Z" fill="none" stroke="#323232" stroke-linecap="round" stroke-linejoin="round" stroke-width="1.5"/><path d="M8.925,20.449a8.988,8.988,0,0,1-2.708-1.557" fill="none" stroke="#323232" stroke-linecap="round" stroke-linejoin="round" stroke-width="1.5"/><path d="M6.217,5.108A8.946,8.946,0,0,1,8.925,3.551" fill="none" stroke="#323232" stroke-linecap="round" stroke-linejoin="round" stroke-width="1.5"/><path d="M3.144,10.438A8.967,8.967,0,0,1,4.211,7.5" fill="none" stroke="#323232" stroke-linecap="round" stroke-linejoin="round" stroke-width="1.5"/><path d="M3.144,13.561A8.972,8.972,0,0,0,4.211,16.5" fill="none" stroke="#323232" stroke-linecap="round" stroke-linejoin="round" stroke-width="1.5"/></svg>