<svg id="Layer_3" data-name="Layer 3" xmlns="http://www.w3.org/2000/svg" viewBox="0 0 24 24"><path d="M0,0H24V24H0Z" fill="none"/><path d="M4.5,21h15A1.5,1.5,0,0,0,21,19.5v-3A1.5,1.5,0,0,0,19.5,15H4.5A1.5,1.5,0,0,0,3,16.5v3A1.5,1.5,0,0,0,4.5,21Z" fill="none" stroke="#323232" stroke-linecap="round" stroke-linejoin="round" stroke-width="1.5"/><path d="M19.03113,6.05675l-1.9125,1.9125L15.96888,6.82287" fill="none" stroke="#323232" stroke-linecap="round" stroke-linejoin="round" stroke-width="1.5"/><path d="M11,4H4.5A1.5,1.5,0,0,0,3,5.5v3A1.5,1.5,0,0,0,4.5,10H11" fill="none" stroke="#323232" stroke-linecap="round" stroke-linejoin="round" stroke-width="1.5"/><circle cx="17.5" cy="7" r="4.5" fill="none" stroke="#323232" stroke-linecap="round" stroke-linejoin="round" stroke-width="1.5"/></svg>