<?xml version="1.0" encoding="utf-8"?>
<!-- Generator: Adobe Illustrator 24.0.2, SVG Export Plug-In . SVG Version: 6.00 Build 0)  -->
<svg version="1.1" id="Layer_1" xmlns="http://www.w3.org/2000/svg" xmlns:xlink="http://www.w3.org/1999/xlink" x="0px" y="0px"
	 width="24px" height="24px" viewBox="0 0 24 24" style="enable-background:new 0 0 24 24;" xml:space="preserve">
<style type="text/css">
	.st0{fill:none;}
	.st1{fill:none;stroke:#323232;stroke-width:1.5;stroke-linecap:round;stroke-linejoin:round;}
</style>
<g>
	<path class="st0" d="M24,24H0V0h24V24z"/>
	<path class="st1" d="M12,7H5C3.9,7,3,7.9,3,9v10c0,1.1,0.9,2,2,2h10c1.1,0,2-0.9,2-2v-7"/>
	<path class="st1" d="M16.5,12L16.5,12C14,12,12,10,12,7.5l0,0C12,5,14,3,16.5,3l0,0C19,3,21,5,21,7.5l0,0C21,10,19,12,16.5,12z"/>
	<path class="st1" d="M15,7.1h0.1C16.2,7.1,17,8,17,9l0,0"/>
	<path class="st1" d="M22,13l-2.3-2.3"/>
</g>
</svg>
