<?xml version="1.0" encoding="utf-8"?>
<!-- Generator: Adobe Illustrator 23.1.0, SVG Export Plug-In . SVG Version: 6.00 Build 0)  -->
<svg version="1.1" id="icons" xmlns="http://www.w3.org/2000/svg" xmlns:xlink="http://www.w3.org/1999/xlink" x="0px" y="0px"
	 width="24px" height="24px" viewBox="0 0 24 24" enable-background="new 0 0 24 24" xml:space="preserve">
<g>
	<path fill="none" d="M0,0h24v24H0V0z"/>
	<g>
		<path fill="none" stroke="#323232" stroke-width="1.5" stroke-linecap="round" stroke-linejoin="round" d="M11.467,18.934
			L11.467,18.934C7.343,18.934,4,15.591,4,11.467l0,0C4,7.343,7.343,4,11.467,4l0,0c4.124,0,7.467,3.343,7.467,7.467l0,0
			C18.934,15.591,15.591,18.934,11.467,18.934z"/>
		<path fill="none" stroke="#323232" stroke-width="1.5" stroke-linecap="round" stroke-linejoin="round" d="M11.467,12.504v-0.207
			c0-0.678,0.419-1.045,0.839-1.327c0.41-0.276,0.821-0.636,0.821-1.3c0-0.917-0.743-1.659-1.659-1.659S9.808,8.752,9.808,9.669"/>
		<path fill="none" stroke="#323232" stroke-width="1.5" stroke-linecap="round" stroke-linejoin="round" d="M11.466,14.843
			c-0.083,0-0.15,0.067-0.149,0.15c0,0.083,0.067,0.15,0.15,0.15c0.083,0,0.15-0.067,0.15-0.15
			C11.617,14.91,11.55,14.843,11.466,14.843"/>
		
			<line fill="none" stroke="#323232" stroke-width="1.5" stroke-linecap="round" stroke-linejoin="round" x1="20" y1="20" x2="16.747" y2="16.747"/>
	</g>
</g>
</svg>
