<svg id="Layer_3" data-name="Layer 3" xmlns="http://www.w3.org/2000/svg" viewBox="0 0 24 24"><path d="M0,0H24V24H0Z" fill="none"/><path d="M11,7H4A1.00036,1.00036,0,0,1,3,6V4A1.00036,1.00036,0,0,1,4,3h7" fill="none" stroke="#323232" stroke-linecap="round" stroke-linejoin="round" stroke-width="1.5"/><path d="M5.25,14.5H3.75A.75027.75027,0,0,1,3,13.75v-1.5a.75027.75027,0,0,1,.75-.75h1.5a.75027.75027,0,0,1,.75.75v1.5A.75027.75027,0,0,1,5.25,14.5Z" fill="none" stroke="#323232" stroke-linecap="round" stroke-linejoin="round" stroke-width="1.5"/><path d="M9.222,13H21" fill="none" stroke="#323232" stroke-linecap="round" stroke-linejoin="round" stroke-width="1.5"/><path d="M5.25,21H3.75A.75027.75027,0,0,1,3,20.25v-1.5A.75027.75027,0,0,1,3.75,18h1.5a.75027.75027,0,0,1,.75.75v1.5A.75027.75027,0,0,1,5.25,21Z" fill="none" stroke="#323232" stroke-linecap="round" stroke-linejoin="round" stroke-width="1.5"/><path d="M9.222,19.5H21" fill="none" stroke="#323232" stroke-linecap="round" stroke-linejoin="round" stroke-width="1.5"/><circle cx="17" cy="5" r="3" fill="none" stroke="#323232" stroke-linecap="round" stroke-linejoin="round" stroke-width="1.5"/><line x1="21" y1="9" x2="19.1208" y2="7.1208" fill="none" stroke="#323232" stroke-linecap="round" stroke-linejoin="round" stroke-width="1.5"/></svg>