<?xml version="1.0" encoding="utf-8"?>
<!-- Generator: Adobe Illustrator 24.0.2, SVG Export Plug-In . SVG Version: 6.00 Build 0)  -->
<svg version="1.1" id="Layer_3" xmlns="http://www.w3.org/2000/svg" xmlns:xlink="http://www.w3.org/1999/xlink" x="0px" y="0px"
	 width="24px" height="24px" viewBox="0 0 24 24" enable-background="new 0 0 24 24" xml:space="preserve">
<g>
	<rect id="_Transparent_Rectangle__13_" fill="none" width="24" height="24"/>
	<g>
		<path fill="none" stroke="#323232" stroke-width="1.5" stroke-linecap="round" stroke-linejoin="round" d="M13.883,6.294
			L11.53,8.647l-1.413-1.411"/>
		<path fill="none" stroke="#323232" stroke-width="1.5" stroke-linecap="round" stroke-linejoin="round" d="M16.235,7.235
			c0,2.339-1.896,4.236-4.235,4.236c-2.34,0-4.236-1.897-4.236-4.236S9.661,3,12,3S16.235,4.896,16.235,7.235L16.235,7.235
			L16.235,7.235z"/>
		<path fill="none" stroke="#323232" stroke-width="1.5" stroke-linecap="round" stroke-linejoin="round" d="M18.678,15.588
			l-2.353,2.353"/>
		<path fill="none" stroke="#323232" stroke-width="1.5" stroke-linecap="round" stroke-linejoin="round" d="M16.325,15.588
			l2.353,2.353"/>
		<path fill="none" stroke="#323232" stroke-width="1.5" stroke-linecap="round" stroke-linejoin="round" d="M17.502,12.529
			c-2.34,0-4.236,1.896-4.236,4.235S15.162,21,17.502,21c2.339,0,4.235-1.897,4.235-4.236S19.841,12.529,17.502,12.529z"/>
		<path fill="none" stroke="#323232" stroke-width="1.5" stroke-linecap="round" stroke-linejoin="round" d="M6.498,12.53
			c-2.339,0-4.235,1.896-4.235,4.235C2.263,19.103,4.159,21,6.498,21s4.235-1.896,4.235-4.235
			C10.734,14.425,8.838,12.53,6.498,12.53L6.498,12.53z"/>
		<path fill="none" stroke="#323232" stroke-width="1.5" stroke-linecap="round" stroke-linejoin="round" d="M6.496,16.264
			c-0.276,0.002-0.498,0.226-0.498,0.502c0,0.276,0.224,0.5,0.5,0.498c0.276,0,0.5-0.224,0.5-0.5S6.774,16.264,6.496,16.264"/>
	</g>
</g>
</svg>
