<?xml version="1.0" encoding="utf-8"?>
<!-- Generator: Adobe Illustrator 24.0.2, SVG Export Plug-In . SVG Version: 6.00 Build 0)  -->
<svg version="1.1" id="Layer_3" xmlns="http://www.w3.org/2000/svg" xmlns:xlink="http://www.w3.org/1999/xlink" x="0px" y="0px"
	 viewBox="0 0 24 24" style="enable-background:new 0 0 24 24;" xml:space="preserve">
<style type="text/css">
	.st0{fill:none;stroke:#323232;stroke-width:1.5;stroke-linecap:round;stroke-linejoin:round;}
	.st1{fill:none;}
</style>
<title>Artboard 58</title>
<path class="st0" d="M10.4,12l0.9,4.1c0.1,0.3,0.3,0.4,0.6,0.4c0.1,0,0.2-0.1,0.3-0.2l4.2-7c0.1-0.2,0.1-0.5-0.2-0.7
	c-0.1,0-0.2-0.1-0.3-0.1H8C7.7,8.5,7.5,8.7,7.5,9c0,0.1,0.1,0.3,0.1,0.3L10.4,12z"/>
<path class="st0" d="M21,8v8c0,2.8-2.2,5-5,5H8c-2.8,0-5-2.2-5-5V8c0-2.8,2.2-5,5-5h8C18.8,3,21,5.2,21,8z"/>
<path class="st1" d="M0,0h24v24H0V0z"/>
</svg>
