<svg id="Layer_3" data-name="Layer 3" xmlns="http://www.w3.org/2000/svg" viewBox="0 0 24 24"><path d="M0,0H24V24H0Z" fill="none"/><circle cx="16" cy="6" r="4" fill="none" stroke="#323232" stroke-linecap="round" stroke-linejoin="round" stroke-width="1.5"/><line x1="21" y1="11" x2="18.828" y2="8.828" fill="none" stroke="#323232" stroke-linecap="round" stroke-linejoin="round" stroke-width="1.5"/><path d="M15,21h3a3,3,0,0,0,3-3V15" fill="none" stroke="#323232" stroke-linecap="round" stroke-linejoin="round" stroke-width="1.5"/><path d="M3,10V7A3,3,0,0,1,6,4H8" fill="none" stroke="#323232" stroke-linecap="round" stroke-linejoin="round" stroke-width="1.5"/><path d="M3,18.81778H3A2.19551,2.19551,0,0,0,5.20838,21H9.78982A2.19688,2.19688,0,0,0,12,18.81867h0a2.19572,2.19572,0,0,0-2.20928-2.18223H5.20928A2.19554,2.19554,0,0,0,3,18.81778Z" fill="none" stroke="#323232" stroke-linecap="round" stroke-linejoin="round" stroke-width="1.5"/><path d="M9.46805,18.80882a.04621.04621,0,0,1,.0639,0,.04518.04518,0,1,1-.0639,0" fill="none" stroke="#323232" stroke-linecap="round" stroke-linejoin="round" stroke-width="1.5"/><path d="M9.46805,18.78594a.04621.04621,0,0,1,.0639,0,.04518.04518,0,1,1-.0639,0" fill="none" stroke="#323232" stroke-linecap="round" stroke-linejoin="round" stroke-width="1.5"/><path d="M11.9919,18.64089,11.67783,14.64A1.79093,1.79093,0,0,0,9.88341,13H5.11659a1.79186,1.79186,0,0,0-1.79532,1.64089L3.0072,18.64178" fill="none" stroke="#323232" stroke-linecap="round" stroke-linejoin="round" stroke-width="1.5"/></svg>