<svg id="Layer_3" data-name="Layer 3" xmlns="http://www.w3.org/2000/svg" viewBox="0 0 24 24"><path d="M9.499,10.5c0,1.105-1.567,2-3.5,2S2.5,11.604,2.5,10.5" fill="none" stroke="#323232" stroke-linecap="round" stroke-linejoin="round" stroke-width="1.5"/><path id="a" d="M9.499,13.5c0,1.105-1.567,2-3.5,2S2.5,14.604,2.5,13.5" fill="none" stroke="#323232" stroke-linecap="round" stroke-linejoin="round" stroke-width="1.5"/><path d="M2.5,7.5c0,1.105,1.567,2,3.5,2s3.5-.895,3.5-2" fill="none" stroke="#323232" stroke-linecap="round" stroke-linejoin="round" stroke-width="1.5"/><path d="M2.5,7.5c.001-1.104,1.568-2,3.5-2s3.5.895,3.499,2v9c0,1.105-1.567,2-3.5,2S2.5,17.604,2.5,16.5Z" fill="none" stroke="#323232" stroke-linecap="round" stroke-linejoin="round" stroke-width="1.5"/><path d="M16.999,17.875a.12355.12355,0,0,0-.124.12311V18A.125.125,0,1,0,17,17.875h-.001" fill="none" stroke="#323232" stroke-linecap="round" stroke-linejoin="round" stroke-width="1.5"/><rect x="12.5" y="3" width="9" height="18" rx="2" stroke-width="1.5" stroke="#323232" stroke-linecap="round" stroke-linejoin="round" fill="none"/><rect x="15.5" y="6" width="3" height="9" rx="1" stroke-width="1.5" stroke="#323232" stroke-linecap="round" stroke-linejoin="round" fill="none"/><line x1="12.5" y1="12" x2="9.5" y2="12" fill="none" stroke="#323232" stroke-linecap="round" stroke-linejoin="round" stroke-width="1.5"/><rect width="24" height="24" fill="none"/></svg>