<svg id="Layer_3" data-name="Layer 3" xmlns="http://www.w3.org/2000/svg" viewBox="0 0 24 24"><path d="M19,18.75V5.25A2.24954,2.24954,0,0,0,16.75,3H7.25A2.24954,2.24954,0,0,0,5,5.25v13.5A2.24954,2.24954,0,0,0,7.25,21h9.5A2.24954,2.24954,0,0,0,19,18.75Z" fill="none" stroke="#323232" stroke-linecap="round" stroke-linejoin="round" stroke-width="1.5"/><rect x="8" y="6" width="8" height="8" rx="0.5" stroke-width="1.5" stroke="#323232" stroke-linecap="round" stroke-linejoin="round" fill="none"/><line x1="16" y1="10" x2="8" y2="10" fill="none" stroke="#323232" stroke-linecap="round" stroke-linejoin="round" stroke-width="1.5"/><path d="M11.999,17.875a.12356.12356,0,0,0-.124.125.125.125,0,1,0,.124-.125" fill="none" stroke="#323232" stroke-linecap="round" stroke-linejoin="round" stroke-width="1.5"/><path d="M0,0H24V24H0Z" fill="none"/></svg>