<?xml version="1.0" encoding="utf-8"?>
<!-- Generator: Adobe Illustrator 24.0.2, SVG Export Plug-In . SVG Version: 6.00 Build 0)  -->
<svg version="1.1" id="Layer_3" xmlns="http://www.w3.org/2000/svg" xmlns:xlink="http://www.w3.org/1999/xlink" x="0px" y="0px"
	 width="24px" height="24px" viewBox="0 0 24 24" enable-background="new 0 0 24 24" xml:space="preserve">
<g>
	<g>
		<path fill="none" stroke="#323232" stroke-width="1.5" stroke-linecap="round" stroke-linejoin="round" d="M14.545,11.591H9.454
			c-1.356,0-2.455,1.099-2.455,2.455l0,0C7,15.401,8.099,16.5,9.455,16.5h5.091c1.355,0,2.454-1.099,2.454-2.455l0,0
			C17.001,12.69,15.901,11.591,14.545,11.591z"/>
		
			<circle fill="none" stroke="#323232" stroke-width="1.5" stroke-linecap="round" stroke-linejoin="round" stroke-miterlimit="10" cx="12" cy="12" r="9"/>
		<path fill="none" stroke="#323232" stroke-width="1.5" stroke-linecap="round" stroke-linejoin="round" d="M9.507,14.01
			c0.02,0.02,0.02,0.051,0,0.071c-0.02,0.02-0.051,0.02-0.071,0s-0.02-0.051,0-0.071C9.455,13.991,9.487,13.991,9.507,14.01"/>
		<path fill="none" stroke="#323232" stroke-width="1.5" stroke-linecap="round" stroke-linejoin="round" d="M16.992,13.847
			l-0.349-4.501C16.562,8.304,15.693,7.5,14.648,7.5H9.351c-1.045,0-1.913,0.804-1.994,1.845l-0.349,4.501"/>
	</g>
	<rect id="_Transparent_Rectangle__24_" y="0" fill="none" width="24" height="24"/>
</g>
</svg>
