<?xml version="1.0" encoding="utf-8"?>
<!-- Generator: Adobe Illustrator 24.0.2, SVG Export Plug-In . SVG Version: 6.00 Build 0)  -->
<svg version="1.1" id="Layer_3" xmlns="http://www.w3.org/2000/svg" xmlns:xlink="http://www.w3.org/1999/xlink" x="0px" y="0px"
	 width="24px" height="24px" viewBox="0 0 24 24" enable-background="new 0 0 24 24" xml:space="preserve">
<g>
	<path fill="none" d="M0,0h24v24H0V0z"/>
	<g>
		<path fill="none" stroke="#323232" stroke-width="1.5" stroke-linecap="round" stroke-linejoin="round" d="M15.997,3h3.286
			c0.946,0,1.714,0.768,1.714,1.714V8"/>
		<path fill="none" stroke="#323232" stroke-width="1.5" stroke-linecap="round" stroke-linejoin="round" d="M8,21H4.714
			C3.768,21,3,20.232,3,19.286V16"/>
		<path fill="none" stroke="#323232" stroke-width="1.5" stroke-linecap="round" stroke-linejoin="round" d="M9.546,6.091H4.455
			C3.099,6.091,2,7.19,2,8.546l0,0C2.001,9.901,3.1,11,4.456,11h5.091c1.355,0,2.454-1.099,2.454-2.455l0,0
			C12.001,7.19,10.902,6.091,9.546,6.091z"/>
		<path fill="none" stroke="#323232" stroke-width="1.5" stroke-linecap="round" stroke-linejoin="round" d="M4.508,8.51
			c0.02,0.02,0.02,0.051,0,0.071c-0.02,0.02-0.051,0.02-0.071,0s-0.02-0.051,0-0.071C4.456,8.491,4.488,8.491,4.508,8.51"/>
		<path fill="none" stroke="#323232" stroke-width="1.5" stroke-linecap="round" stroke-linejoin="round" d="M11.993,8.347
			l-0.349-4.501C11.563,2.804,10.694,2,9.649,2H4.352C3.307,2,2.439,2.804,2.358,3.845L2.009,8.346"/>
		<path fill="none" stroke="#323232" stroke-width="1.5" stroke-linecap="round" stroke-linejoin="round" d="M14.454,17.091l5.091,0
			c1.356,0,2.455,1.099,2.455,2.455l0,0C21.999,20.901,20.9,22,19.544,22l-5.091,0c-1.355,0-2.454-1.099-2.454-2.455l0,0
			C11.999,18.19,13.098,17.091,14.454,17.091z"/>
		<path fill="none" stroke="#323232" stroke-width="1.5" stroke-linecap="round" stroke-linejoin="round" d="M19.492,19.51
			c-0.02,0.02-0.02,0.051,0,0.071c0.02,0.02,0.051,0.02,0.071,0c0.02-0.02,0.02-0.051,0-0.071
			C19.544,19.491,19.512,19.491,19.492,19.51"/>
		<path fill="none" stroke="#323232" stroke-width="1.5" stroke-linecap="round" stroke-linejoin="round" d="M12.007,19.347
			l0.349-4.501C12.437,13.804,13.306,13,14.351,13h5.297c1.045,0,1.913,0.804,1.994,1.845l0.349,4.501"/>
	</g>
</g>
</svg>
