<svg id="Layer_3" data-name="Layer 3" xmlns="http://www.w3.org/2000/svg" viewBox="0 0 24 24"><line x1="6.4875" y1="14.4875" x2="6.4875" y2="15.4875" fill="none" stroke="#323232" stroke-linecap="round" stroke-linejoin="round" stroke-width="1.5"/><line x1="9.4875" y1="14.4875" x2="9.4875" y2="15.4875" fill="none" stroke="#323232" stroke-linecap="round" stroke-linejoin="round" stroke-width="1.5"/><path d="M13,7.0125h5.0125" fill="none" stroke="#323232" stroke-linecap="round" stroke-linejoin="round" stroke-width="1.5"/><line x1="6.5" y1="6.5125" x2="6.5" y2="7.5125" fill="none" stroke="#323232" stroke-linecap="round" stroke-linejoin="round" stroke-width="1.5"/><line x1="9.5" y1="6.5125" x2="9.5" y2="7.5125" fill="none" stroke="#323232" stroke-linecap="round" stroke-linejoin="round" stroke-width="1.5"/><rect x="3" y="3" width="18" height="8" rx="1.5" stroke-width="1.5" stroke="#323232" stroke-linecap="round" stroke-linejoin="round" fill="none"/><path d="M11,19H4.5A1.5,1.5,0,0,1,3,17.5v-5A1.5,1.5,0,0,1,4.5,11" fill="none" stroke="#323232" stroke-linecap="round" stroke-linejoin="round" stroke-width="1.5"/><path d="M15.29262,17.83873l3.542-3.5447a1.003,1.003,0,0,1,1.41846-.00053l0,0,1.45317,1.45232a1.002,1.002,0,0,1,.00038,1.417l-.00038.00038-3.5463,3.544A1,1,0,0,1,17.45313,21H15V18.54555A1,1,0,0,1,15.29262,17.83873Z" fill="none" stroke="#323232" stroke-linecap="round" stroke-linejoin="round" stroke-width="1.5"/><path d="M0,0H24V24H0Z" fill="none"/></svg>