<?xml version="1.0" encoding="utf-8"?>
<!-- Generator: Adobe Illustrator 24.0.2, SVG Export Plug-In . SVG Version: 6.00 Build 0)  -->
<svg version="1.1" id="Layer_3" xmlns="http://www.w3.org/2000/svg" xmlns:xlink="http://www.w3.org/1999/xlink" x="0px" y="0px"
	 width="24px" height="24px" viewBox="0 0 24 24" enable-background="new 0 0 24 24" xml:space="preserve">
<g>
	<g>
		<path fill="none" stroke="#323232" stroke-width="1.5" stroke-linecap="round" stroke-linejoin="round" d="M8,14H5
			c-1.105,0-2-0.895-2-2V5c0-1.105,0.895-2,2-2h13c1.105,0,2,0.895,2,2v4"/>
		
			<line fill="none" stroke="#323232" stroke-width="1.5" stroke-linecap="round" stroke-linejoin="round" x1="10" y1="10" x2="7" y2="7"/>
		<polyline fill="none" stroke="#323232" stroke-width="1.5" stroke-linecap="round" stroke-linejoin="round" points="7,10 10,10 
			10,7 		"/>
		<path fill="none" stroke="#323232" stroke-width="1.5" stroke-linecap="round" stroke-linejoin="round" d="M18.545,16.091h-5.091
			c-1.356,0-2.455,1.099-2.455,2.455l0,0C11,19.901,12.099,21,13.455,21h5.091C19.901,21,21,19.901,21,18.545l0,0
			C21,17.19,19.901,16.091,18.545,16.091z"/>
		<path fill="none" stroke="#323232" stroke-width="1.5" stroke-linecap="round" stroke-linejoin="round" d="M13.507,18.51
			c0.02,0.02,0.02,0.051,0,0.071c-0.02,0.02-0.051,0.02-0.071,0s-0.02-0.051,0-0.071C13.455,18.491,13.487,18.491,13.507,18.51"/>
		<path fill="none" stroke="#323232" stroke-width="1.5" stroke-linecap="round" stroke-linejoin="round" d="M20.992,18.347
			l-0.349-4.501C20.562,12.804,19.693,12,18.648,12h-5.297c-1.045,0-1.913,0.804-1.994,1.845l-0.349,4.501"/>
	</g>
	<rect id="_Transparent_Rectangle__22_" fill="none" width="24" height="24"/>
</g>
</svg>
