<svg id="Layer_3" data-name="Layer 3" xmlns="http://www.w3.org/2000/svg" viewBox="0 0 24 24"><title>server-computer-case</title><rect width="24" height="24" fill="none"/><path d="M19,7V18.97542A2.02459,2.02459,0,0,1,16.97542,21H7.02458A2.02459,2.02459,0,0,1,5,18.97542V7" fill="none" stroke="#323232" stroke-linecap="round" stroke-linejoin="round" stroke-width="1.5"/><line x1="8" y1="11" x2="16" y2="11" fill="none" stroke="#323232" stroke-linecap="round" stroke-linejoin="round" stroke-width="1.5"/><path d="M6.00182,8H17.99818a1,1,0,0,0,.7994-1.6008L16.84292,3.7984A2,2,0,0,0,15.24412,3H8.75972a2,2,0,0,0-1.59766.79689L5.203,6.39845A1,1,0,0,0,6.00182,8Z" fill="none" stroke="#323232" stroke-linecap="round" stroke-linejoin="round" stroke-width="1.5"/><line x1="8" y1="14" x2="16" y2="14" fill="none" stroke="#323232" stroke-linecap="round" stroke-linejoin="round" stroke-width="1.5"/><line x1="8" y1="17.6" x2="11" y2="17.6" fill="none" stroke="#323232" stroke-linecap="round" stroke-linejoin="round" stroke-width="1.5"/><path d="M15.55,17.55a.05.05,0,1,1-.05-.05" fill="none" stroke="#323232" stroke-linecap="round" stroke-linejoin="round" stroke-width="1.5"/><path d="M15.5,17.5a.05.05,0,0,1,.05.05" fill="none" stroke="#323232" stroke-linecap="round" stroke-linejoin="round" stroke-width="1.5"/></svg>