<?xml version="1.0" encoding="utf-8"?>
<!-- Generator: Adobe Illustrator 24.0.2, SVG Export Plug-In . SVG Version: 6.00 Build 0)  -->
<svg version="1.1" id="Layer_3" xmlns="http://www.w3.org/2000/svg" xmlns:xlink="http://www.w3.org/1999/xlink" x="0px" y="0px"
	 width="24px" height="24px" viewBox="0 0 24 24" enable-background="new 0 0 24 24" xml:space="preserve">
<g>
	<rect id="_Transparent_Rectangle__29_" fill="none" width="24" height="24"/>
	<g>
		
			<polyline fill="none" stroke="#323232" stroke-width="1.5" stroke-linecap="round" stroke-linejoin="round" stroke-miterlimit="10" points="
			6,8.25 3,8.25 3,5.25 		"/>
		<path fill="none" stroke="#323232" stroke-width="1.5" stroke-linecap="round" stroke-linejoin="round" d="M21,12
			c0-4.971-4.029-9-9-9C8.37,3,5.249,5.154,3.826,8.25"/>
		
			<polyline fill="none" stroke="#323232" stroke-width="1.5" stroke-linecap="round" stroke-linejoin="round" stroke-miterlimit="10" points="
			18,15.75 21,15.75 21,18.75 		"/>
		<path fill="none" stroke="#323232" stroke-width="1.5" stroke-linecap="round" stroke-linejoin="round" d="M3,12
			c0,4.971,4.029,9,9,9c3.63,0,6.751-2.154,8.174-5.25"/>
		<g>
			<path fill="none" stroke="#323232" stroke-width="1.5" stroke-linecap="round" stroke-linejoin="round" d="M14,15.5h-4
				c-1.105,0-2-0.895-2-2v0c0-1.105,0.895-2,2-2h4c1.105,0,2,0.895,2,2v0C16,14.605,15.105,15.5,14,15.5z"/>
		</g>
		<path fill="none" stroke="#323232" stroke-width="1.5" stroke-linecap="round" stroke-linejoin="round" d="M8.007,13.334
			l0.236-2.991C8.324,9.302,9.193,8.5,10.236,8.5h3.527c1.044,0,1.912,0.802,1.994,1.843l0.236,2.991"/>
	</g>
</g>
</svg>
