<?xml version="1.0" encoding="utf-8"?>
<!-- Generator: Adobe Illustrator 24.0.2, SVG Export Plug-In . SVG Version: 6.00 Build 0)  -->
<svg version="1.1" id="Layer_3" xmlns="http://www.w3.org/2000/svg" xmlns:xlink="http://www.w3.org/1999/xlink" x="0px" y="0px"
	 width="24px" height="24px" viewBox="0 0 24 24" enable-background="new 0 0 24 24" xml:space="preserve">
<g>
	<g>
		<path fill="none" stroke="#323232" stroke-width="1.5" stroke-linecap="round" stroke-linejoin="round" d="M15.5,16
			c0,1.105-1.567,2-3.5,2S8.5,17.104,8.5,16"/>
		<path fill="none" stroke="#323232" stroke-width="1.5" stroke-linecap="round" stroke-linejoin="round" d="M8.5,13
			c0,1.105,1.567,2,3.5,2s3.5-0.895,3.5-2"/>
		<path fill="none" stroke="#323232" stroke-width="1.5" stroke-linecap="round" stroke-linejoin="round" d="M8.5,13v6
			c0,1.104,1.566,2,3.499,2s3.5-0.895,3.5-2v-6c0.001-1.105-1.567-2-3.499-2S8.501,11.896,8.5,13z"/>
		<path fill="none" stroke="#323232" stroke-width="1.5" stroke-linecap="round" stroke-linejoin="round" d="M19,16.859
			c1.722-0.446,3-1.997,3-3.859c0-2.209-1.791-4-4-4c0-3.314-2.686-6-6-6C9.363,3,7.129,4.703,6.324,7.068C3.885,7.401,2,9.47,2,12
			c0,2.047,1.238,3.796,3,4.569"/>
	</g>
	<rect id="_Transparent_Rectangle__27_" fill="none" width="24" height="24"/>
</g>
</svg>
