<?xml version="1.0" encoding="utf-8"?>
<!-- Generator: Adobe Illustrator 24.0.2, SVG Export Plug-In . SVG Version: 6.00 Build 0)  -->
<svg version="1.1" id="Layer_3" xmlns="http://www.w3.org/2000/svg" xmlns:xlink="http://www.w3.org/1999/xlink" x="0px" y="0px"
	 width="24px" height="24px" viewBox="0 0 24 24" enable-background="new 0 0 24 24" xml:space="preserve">
<g>
	<path fill="none" d="M0,0h24v24H0V0z"/>
	<g>
		<path fill="none" stroke="#323232" stroke-width="1.5" stroke-linecap="round" stroke-linejoin="round" d="M15.997,3h3.286
			c0.946,0,1.714,0.768,1.714,1.714V8"/>
		<path fill="none" stroke="#323232" stroke-width="1.5" stroke-linecap="round" stroke-linejoin="round" d="M8,21H4.714
			C3.768,21,3,20.232,3,19.286V16"/>
		<path fill="none" stroke="#323232" stroke-width="1.5" stroke-linecap="round" stroke-linejoin="round" d="M18.695,12.605
			l3.046,5.414C22.49,19.353,21.527,21,19.997,21h-6.091c-1.53,0-2.493-1.647-1.743-2.981l3.046-5.414
			C15.973,11.246,17.93,11.246,18.695,12.605z"/>
		<path fill="none" stroke="#323232" stroke-width="1.5" stroke-linecap="round" stroke-linejoin="round" d="M16.952,16.42v-1.835"
			/>
		<path fill="none" stroke="#323232" stroke-width="1.5" stroke-linecap="round" stroke-linejoin="round" d="M16.951,18.445
			c-0.05,0-0.091,0.041-0.09,0.091c0,0.05,0.041,0.091,0.091,0.091s0.091-0.041,0.091-0.091S17.002,18.445,16.951,18.445"/>
		<path fill="none" stroke="#323232" stroke-width="1.5" stroke-linecap="round" stroke-linejoin="round" d="M9.546,7.091H4.455
			C3.099,7.091,2,8.19,2,9.546l0,0C2.001,10.901,3.1,12,4.456,12h5.091c1.355,0,2.454-1.099,2.454-2.455l0,0
			C12.001,8.19,10.902,7.091,9.546,7.091z"/>
		<path fill="none" stroke="#323232" stroke-width="1.5" stroke-linecap="round" stroke-linejoin="round" d="M4.508,9.51
			c0.02,0.02,0.02,0.051,0,0.071c-0.02,0.02-0.051,0.02-0.071,0s-0.02-0.051,0-0.071C4.456,9.491,4.488,9.491,4.508,9.51"/>
		<path fill="none" stroke="#323232" stroke-width="1.5" stroke-linecap="round" stroke-linejoin="round" d="M11.993,9.347
			l-0.349-4.501C11.563,3.804,10.694,3,9.649,3H4.352C3.307,3,2.439,3.804,2.358,4.845L2.009,9.346"/>
	</g>
</g>
</svg>
