<?xml version="1.0" encoding="utf-8"?>
<!-- Generator: Adobe Illustrator 24.0.2, SVG Export Plug-In . SVG Version: 6.00 Build 0)  -->
<svg version="1.1" id="Layer_3" xmlns="http://www.w3.org/2000/svg" xmlns:xlink="http://www.w3.org/1999/xlink" x="0px" y="0px"
	 width="24px" height="24px" viewBox="0 0 24 24" enable-background="new 0 0 24 24" xml:space="preserve">
<g>
	<rect fill="none" width="24" height="24"/>
	<g>
		<path fill="none" stroke="#323232" stroke-width="1.5" stroke-linecap="round" stroke-linejoin="round" d="M4,14.118
			c0,1.462,3.374,2.647,7.536,2.647"/>
		<path fill="none" stroke="#323232" stroke-width="1.5" stroke-linecap="round" stroke-linejoin="round" d="M19,5.647
			c0,1.462-3.358,2.647-7.5,2.647S4,7.109,4,5.647"/>
		<path fill="none" stroke="#323232" stroke-width="1.5" stroke-linecap="round" stroke-linejoin="round" d="M19,9.882
			c0,1.462-3.358,2.647-7.5,2.647S4,11.345,4,9.882"/>
		<path fill="none" stroke="#323232" stroke-width="1.5" stroke-linecap="round" stroke-linejoin="round" d="M19.723,18v-1.277
			C19.723,15.819,18.952,15,18,15s-1.723,0.771-1.723,1.723V18"/>
		<path fill="none" stroke="#323232" stroke-width="1.5" stroke-linecap="round" stroke-linejoin="round" d="M20.026,22h-4.052
			C15.436,22,15,21.564,15,21.026v-2.052C15,18.436,15.436,18,15.974,18h4.052C20.564,18,21,18.436,21,18.974v2.052
			C21,21.564,20.564,22,20.026,22z"/>
		<g>
			<g>
				<path fill="none" stroke="#323232" stroke-width="1.5" stroke-linecap="round" stroke-linejoin="round" d="M11.536,21
					C7.374,21,4,19.815,4,18.353V5.647C4,4.185,7.358,3,11.5,3S19,4.185,19,5.647V12"/>
			</g>
		</g>
	</g>
</g>
</svg>
