<?xml version="1.0" encoding="utf-8"?>
<!-- Generator: Adobe Illustrator 24.0.2, SVG Export Plug-In . SVG Version: 6.00 Build 0)  -->
<svg version="1.1" id="Layer_3" xmlns="http://www.w3.org/2000/svg" xmlns:xlink="http://www.w3.org/1999/xlink" x="0px" y="0px"
	 width="24px" height="24px" viewBox="0 0 24 24" enable-background="new 0 0 24 24" xml:space="preserve">
<g>
	<path fill="none" d="M0,0h24v24H0V0z"/>
	<g>
		<g>
			
				<line fill="none" stroke="#323232" stroke-width="1.5" stroke-linecap="round" stroke-linejoin="round" x1="14.527" y1="17.541" x2="9.888" y2="17.541"/>
		</g>
		
			<ellipse fill="none" stroke="#323232" stroke-width="1.5" stroke-linecap="round" stroke-linejoin="round" cx="18" cy="17.541" rx="3.473" ry="3.459"/>
		
			<line fill="none" stroke="#323232" stroke-width="1.5" stroke-linecap="round" stroke-linejoin="round" x1="18" y1="10" x2="18" y2="14.082"/>
		
			<ellipse fill="none" stroke="#323232" stroke-width="1.5" stroke-linecap="round" stroke-linejoin="round" cx="6" cy="6.459" rx="3.473" ry="3.459"/>
		
			<line fill="none" stroke="#323232" stroke-width="1.5" stroke-linecap="round" stroke-linejoin="round" x1="6" y1="14" x2="6" y2="10"/>
		<g>
			<path fill="none" stroke="#323232" stroke-width="1.5" stroke-linecap="round" stroke-linejoin="round" d="M8,21H4
				c-1.105,0-2-0.895-2-2v0c0-1.105,0.895-2,2-2h4c1.105,0,2,0.895,2,2v0C10,20.105,9.105,21,8,21z"/>
		</g>
		<path fill="none" stroke="#323232" stroke-width="1.5" stroke-linecap="round" stroke-linejoin="round" d="M2.007,18.834
			l0.236-2.991C2.324,14.802,3.193,14,4.236,14h3.527c1.044,0,1.912,0.802,1.994,1.843l0.236,2.991"/>
		<g>
			<path fill="none" stroke="#323232" stroke-width="1.5" stroke-linecap="round" stroke-linejoin="round" d="M20,10h-4
				c-1.105,0-2-0.895-2-2v0c0-1.105,0.895-2,2-2h4c1.105,0,2,0.895,2,2v0C22,9.105,21.105,10,20,10z"/>
		</g>
		<path fill="none" stroke="#323232" stroke-width="1.5" stroke-linecap="round" stroke-linejoin="round" d="M14.007,7.834
			l0.236-2.991C14.324,3.802,15.193,3,16.236,3h3.527c1.044,0,1.912,0.802,1.994,1.843l0.236,2.991"/>
	</g>
</g>
</svg>
