<?xml version="1.0" encoding="utf-8"?>
<!-- Generator: Adobe Illustrator 24.0.2, SVG Export Plug-In . SVG Version: 6.00 Build 0)  -->
<svg version="1.1" id="Layer_3" xmlns="http://www.w3.org/2000/svg" xmlns:xlink="http://www.w3.org/1999/xlink" x="0px" y="0px"
	 width="24px" height="24px" viewBox="0 0 24 24" enable-background="new 0 0 24 24" xml:space="preserve">
<g>
	<rect fill="none" width="24" height="24"/>
	<g>
		<path fill="none" stroke="#323232" stroke-width="1.5" stroke-linecap="round" stroke-linejoin="round" d="M20.999,10.154
			c0,1.36-2.015,2.462-4.5,2.462S12,11.513,12,10.154"/>
		<g>
			<path id="a_13_" fill="none" stroke="#323232" stroke-width="1.5" stroke-linecap="round" stroke-linejoin="round" d="
				M20.999,13.846c0,1.36-2.015,2.462-4.5,2.462S12,15.205,12,13.846"/>
		</g>
		<path fill="none" stroke="#323232" stroke-width="1.5" stroke-linecap="round" stroke-linejoin="round" d="M12,6.462
			c0,1.36,2.015,2.462,4.5,2.462S21,7.822,21,6.462"/>
		<path fill="none" stroke="#323232" stroke-width="1.5" stroke-linecap="round" stroke-linejoin="round" d="M7.5,16.5L9,18
			l-1.5,1.5"/>
		<path fill="none" stroke="#323232" stroke-width="1.5" stroke-linecap="round" stroke-linejoin="round" d="M7.5,8.5L9,10l-1.5,1.5
			"/>
		
			<line fill="none" stroke="#323232" stroke-width="1.5" stroke-linecap="round" stroke-linejoin="round" x1="3" y1="15" x2="3" y2="4"/>
		<path fill="none" stroke="#323232" stroke-width="1.5" stroke-linecap="round" stroke-linejoin="round" d="M3,5v3
			c0,1.105,0.895,2,2,2h3"/>
		<path fill="none" stroke="#323232" stroke-width="1.5" stroke-linecap="round" stroke-linejoin="round" d="M3,13v3
			c0,1.105,0.895,2,2,2h3"/>
		<path fill="none" stroke="#323232" stroke-width="1.5" stroke-linecap="round" stroke-linejoin="round" d="M12,6.462v11.077
			C12,18.897,14.013,20,16.499,20s4.5-1.102,4.5-2.462V6.462C21,5.102,18.984,4,16.5,4S12.001,5.103,12,6.462z"/>
	</g>
</g>
</svg>
