<?xml version="1.0" encoding="utf-8"?>
<!-- Generator: Adobe Illustrator 24.0.2, SVG Export Plug-In . SVG Version: 6.00 Build 0)  -->
<svg version="1.1" id="Layer_3" xmlns="http://www.w3.org/2000/svg" xmlns:xlink="http://www.w3.org/1999/xlink" x="0px" y="0px"
	 width="24px" height="24px" viewBox="0 0 24 24" enable-background="new 0 0 24 24" xml:space="preserve">
<g>
	<g>
		<path fill="none" d="M24,24H0L0,0l24,0V24z"/>
	</g>
	<g>
		<path fill="none" stroke="#323232" stroke-width="1.5" stroke-linecap="round" stroke-linejoin="round" d="M8,18H5
			c-1.105,0-2-0.895-2-2V5c0-1.105,0.895-2,2-2h12c1.105,0,2,0.895,2,2v5"/>
		<path fill="none" stroke="#323232" stroke-width="1.5" stroke-linecap="round" stroke-linejoin="round" d="M3,8h16"/>
		<path fill="none" stroke="#323232" stroke-width="1.5" stroke-linecap="round" stroke-linejoin="round" d="M10.999,19.545
			L10.999,19.545c0,1.356,1.099,2.455,2.454,2.455h5.091c1.356,0,2.455-1.099,2.456-2.454l0,0c0-1.356-1.099-2.455-2.455-2.455
			h-5.091C12.098,17.091,10.999,18.19,10.999,19.545z"/>
		<path fill="none" stroke="#323232" stroke-width="1.5" stroke-linecap="round" stroke-linejoin="round" d="M18.492,19.51
			c0.02-0.019,0.052-0.019,0.071,0c0.02,0.02,0.02,0.051,0,0.071s-0.051,0.02-0.071,0C18.472,19.561,18.472,19.53,18.492,19.51"/>
		<path fill="none" stroke="#323232" stroke-width="1.5" stroke-linecap="round" stroke-linejoin="round" d="M20.991,19.346
			l-0.349-4.501C20.561,13.804,19.693,13,18.648,13h-5.297c-1.045,0-1.914,0.804-1.995,1.846l-0.349,4.501"/>
	</g>
</g>
</svg>
