<?xml version="1.0" encoding="utf-8"?>
<!-- Generator: Adobe Illustrator 24.0.2, SVG Export Plug-In . SVG Version: 6.00 Build 0)  -->
<svg version="1.1" id="icons" xmlns="http://www.w3.org/2000/svg" xmlns:xlink="http://www.w3.org/1999/xlink" x="0px" y="0px"
	 width="24px" height="24px" viewBox="0 0 24 24" style="enable-background:new 0 0 24 24;" xml:space="preserve">
<style type="text/css">
	.st0{fill:none;stroke:#323232;stroke-width:1.5;stroke-linecap:round;stroke-linejoin:round;}
	.st1{fill:none;}
</style>
<g>
	<g>
		<path class="st0" d="M19.8,20.7H4.2c-0.4,0-0.8-0.3-0.9-0.7l-0.8-2.3h19L20.7,20C20.6,20.4,20.2,20.7,19.8,20.7z"/>
		<path class="st0" d="M3.1,17.7l0-1c-0.3-5.1,3.8-9.4,9-9.4l0,0c5.1,0,9.2,4.3,9,9.4l0,1"/>
		<path class="st0" d="M12,7.3L12,7.3c-1.1,0-2-0.9-2-2V5c0-1.1,0.9-2,2-2l0,0c1.1,0,2,0.9,2,2v0.3C14,6.4,13.1,7.3,12,7.3z"/>
	</g>
	<rect class="st1" width="24" height="24"/>
</g>
</svg>
