<?xml version="1.0" encoding="utf-8"?>
<!-- Generator: Adobe Illustrator 24.0.2, SVG Export Plug-In . SVG Version: 6.00 Build 0)  -->
<svg version="1.1" id="Layer_3" xmlns="http://www.w3.org/2000/svg" xmlns:xlink="http://www.w3.org/1999/xlink" x="0px" y="0px"
	 width="24px" height="24px" viewBox="0 0 24 24" enable-background="new 0 0 24 24" xml:space="preserve">
<g>
	<path fill="none" d="M0,0h24v24H0V0z"/>
	<g>
		<path fill="none" stroke="#323232" stroke-width="1.5" stroke-linecap="round" stroke-linejoin="round" d="M17,9.5v-4
			C17,4.119,13.866,3,10,3s-7,1.119-7,2.5v8c0,1.381,3.134,2.5,7,2.5c0.699,0,1.373-0.038,2.011-0.106"/>
		
			<line fill="none" stroke="#323232" stroke-width="1.5" stroke-linecap="round" stroke-linejoin="round" x1="15.126" y1="16" x2="18.876" y2="16"/>
		
			<line fill="none" stroke="#323232" stroke-width="1.5" stroke-linecap="round" stroke-linejoin="round" x1="17.001" y1="17.875" x2="17.001" y2="14.125"/>
		<path fill="none" stroke="#323232" stroke-width="1.5" stroke-linecap="round" stroke-linejoin="round" d="M17.001,11
			c-2.761,0-5,2.239-5,5s2.239,5,5,5c2.762,0,5-2.239,5-5S19.763,11,17.001,11"/>
		<path fill="none" stroke="#323232" stroke-width="1.5" stroke-linecap="round" stroke-linejoin="round" d="M17,5.5
			C17,6.881,13.866,8,10,8s-7-1.119-7-2.5"/>
		<path fill="none" stroke="#323232" stroke-width="1.5" stroke-linecap="round" stroke-linejoin="round" d="M17,9.5
			c0,1.381-3.134,2.5-7,2.5s-7-1.119-7-2.5"/>
	</g>
</g>
</svg>
