<?xml version="1.0" encoding="utf-8"?>
<!-- Generator: Adobe Illustrator 23.1.0, SVG Export Plug-In . SVG Version: 6.00 Build 0)  -->
<svg version="1.1" id="icons" xmlns="http://www.w3.org/2000/svg" xmlns:xlink="http://www.w3.org/1999/xlink" x="0px" y="0px"
	 width="24px" height="24px" viewBox="0 0 24 24" enable-background="new 0 0 24 24" xml:space="preserve">
<g>
	<rect fill="none" width="24" height="24"/>
	<g>
		
			<circle fill="none" stroke="#323232" stroke-width="1.5" stroke-linecap="round" stroke-linejoin="round" cx="13" cy="3.5" r="1.5"/>
		<path fill="none" stroke="#323232" stroke-width="1.5" stroke-linecap="round" stroke-linejoin="round" d="M5.625,22h-1.75
			C3.392,22,3,21.608,3,21.125v-5.25C3,15.392,3.392,15,3.875,15h1.75C6.108,15,6.5,15.392,6.5,15.875v5.25
			C6.5,21.608,6.108,22,5.625,22z"/>
		<path fill="none" stroke="#323232" stroke-width="1.5" stroke-linecap="round" stroke-linejoin="round" d="M11.75,18.5h2.041
			c0.379,0,0.747-0.122,1.05-0.35l2.114-1.586c0.528-0.396,1.266-0.343,1.733,0.123l0,0c0.518,0.518,0.518,1.357,0,1.874
			l-1.814,1.814c-0.488,0.488-1.111,0.822-1.788,0.957l-2.564,0.513c-0.508,0.101-1.033,0.089-1.536-0.037L8.667,21.23
			c-0.277-0.07-0.562-0.105-0.848-0.105H6.5"/>
		<path fill="none" stroke="#323232" stroke-width="1.5" stroke-linecap="round" stroke-linejoin="round" d="M11.75,18.5h1.299
			c0.732,0,1.326-0.593,1.326-1.326v-0.265c0-0.608-0.414-1.138-1.004-1.285l-2.005-0.501C11.04,15.041,10.705,15,10.369,15l0,0
			c-0.811,0-1.605,0.24-2.279,0.69L6.5,16.75"/>
		
			<line fill="none" stroke="#323232" stroke-width="1.5" stroke-linecap="round" stroke-linejoin="round" x1="21" y1="12" x2="5" y2="12"/>
		<path fill="none" stroke="#323232" stroke-width="1.5" stroke-linecap="round" stroke-linejoin="round" d="M20,12
			c0-3.866-3.134-7-7-7s-7,3.134-7,7"/>
	</g>
</g>
</svg>
