<svg id="Layer_3" data-name="Layer 3" xmlns="http://www.w3.org/2000/svg" viewBox="0 0 24 24"><path d="M0,0H24V24H0Z" fill="none"/><path d="M0,0H24V24H0Z" fill="none"/><path d="M12,3H7A4.00018,4.00018,0,0,0,3,7v9a5.00054,5.00054,0,0,0,5,5h9a4.00018,4.00018,0,0,0,4-4V12" fill="none" stroke="#323232" stroke-linecap="round" stroke-linejoin="round" stroke-width="1.5"/><path d="M16.55556,2h0A5.44444,5.44444,0,0,1,22,7.44444h0" fill="none" stroke="#323232" stroke-linecap="round" stroke-linejoin="round" stroke-width="1.5"/><path d="M16.55556,5h0A2.44444,2.44444,0,0,1,19,7.44444h0" fill="none" stroke="#323232" stroke-linecap="round" stroke-linejoin="round" stroke-width="1.5"/><path d="M6.9995,14.045h0A2.45448,2.45448,0,0,0,9.45326,16.5h5.09049a2.456,2.456,0,0,0,2.45575-2.454h0a2.4547,2.4547,0,0,0-2.45475-2.455H9.45425A2.45448,2.45448,0,0,0,6.9995,14.045Z" fill="none" stroke="#323232" stroke-linecap="round" stroke-linejoin="round" stroke-width="1.5"/><path d="M16.9905,13.846l-.349-4.501A1.99979,1.99979,0,0,0,14.64774,7.5H9.35127a2.00083,2.00083,0,0,0-1.9948,1.846l-.349,4.501" fill="none" stroke="#323232" stroke-linecap="round" stroke-linejoin="round" stroke-width="1.5"/><path d="M14.414,13.96421a.05143.05143,0,0,1,.071,0,.05014.05014,0,1,1-.071,0" fill="none" stroke="#323232" stroke-linecap="round" stroke-linejoin="round" stroke-width="1.5"/></svg>