<?xml version="1.0" encoding="utf-8"?>
<!-- Generator: Adobe Illustrator 24.0.2, SVG Export Plug-In . SVG Version: 6.00 Build 0)  -->
<svg version="1.1" id="Layer_3" xmlns="http://www.w3.org/2000/svg" xmlns:xlink="http://www.w3.org/1999/xlink" x="0px" y="0px"
	 width="24px" height="24px" viewBox="0 0 24 24" enable-background="new 0 0 24 24" xml:space="preserve">
<g>
	<path fill="none" d="M0,0h24v24H0V0z"/>
	<g>
		<path fill="none" stroke="#323232" stroke-width="1.5" stroke-linecap="round" stroke-linejoin="round" d="M9.999,7
			c0,1.105-1.567,2-3.5,2S3,8.104,3,7"/>
		<path fill="none" stroke="#323232" stroke-width="1.5" stroke-linecap="round" stroke-linejoin="round" d="M3,4
			c0,1.105,1.567,2,3.5,2S10,5.105,10,4"/>
		<path fill="none" stroke="#323232" stroke-width="1.5" stroke-linecap="round" stroke-linejoin="round" d="M9.999,4
			C10,2.895,8.432,2,6.5,2S3.001,2.896,3,4l0,6c0,1.104,1.566,2,3.499,2s3.5-0.895,3.5-2V4z"/>
		<path fill="none" stroke="#323232" stroke-width="1.5" stroke-linecap="round" stroke-linejoin="round" d="M19.545,16.091h-5.091
			c-1.356,0-2.455,1.099-2.455,2.455l0,0C12,19.901,13.099,21,14.455,21h5.091C20.901,21,22,19.901,22,18.545l0,0
			C22,17.19,20.901,16.091,19.545,16.091z"/>
		<path fill="none" stroke="#323232" stroke-width="1.5" stroke-linecap="round" stroke-linejoin="round" d="M14.507,18.51
			c0.02,0.02,0.02,0.051,0,0.071c-0.02,0.02-0.051,0.02-0.071,0s-0.02-0.051,0-0.071C14.455,18.491,14.487,18.491,14.507,18.51"/>
		<path fill="none" stroke="#323232" stroke-width="1.5" stroke-linecap="round" stroke-linejoin="round" d="M21.992,18.347
			l-0.349-4.501C21.562,12.804,20.693,12,19.648,12h-5.297c-1.045,0-1.913,0.804-1.994,1.845l-0.349,4.501"/>
		<path fill="none" stroke="#323232" stroke-width="1.5" stroke-linecap="round" stroke-linejoin="round" d="M15.997,3h3.286
			c0.946,0,1.714,0.768,1.714,1.714V8"/>
		<path fill="none" stroke="#323232" stroke-width="1.5" stroke-linecap="round" stroke-linejoin="round" d="M8,21H4.714
			C3.768,21,3,20.232,3,19.286V16"/>
	</g>
</g>
</svg>
