<svg id="Layer_3" data-name="Layer 3" xmlns="http://www.w3.org/2000/svg" viewBox="0 0 24 24"><rect width="24" height="24" fill="none"/><path d="M19,7V18.97542A2.02459,2.02459,0,0,1,16.97542,21H7.02458A2.02459,2.02459,0,0,1,5,18.97542V7" fill="none" stroke="#323232" stroke-linecap="round" stroke-linejoin="round" stroke-width="1.5"/><path d="M6.00182,8H17.99818a1,1,0,0,0,.7994-1.6008L16.84292,3.7984A2,2,0,0,0,15.24412,3H8.75972a2,2,0,0,0-1.59766.79689L5.203,6.39845A1,1,0,0,0,6.00182,8Z" fill="none" stroke="#323232" stroke-linecap="round" stroke-linejoin="round" stroke-width="1.5"/><line x1="16" y1="18" x2="15" y2="18" fill="none" stroke="#323232" stroke-linecap="round" stroke-linejoin="round" stroke-width="1.5"/><line x1="9" y1="18" x2="8" y2="18" fill="none" stroke="#323232" stroke-linecap="round" stroke-linejoin="round" stroke-width="1.5"/><line x1="5" y1="11.5" x2="19" y2="11.5" fill="none" stroke="#323232" stroke-linecap="round" stroke-linejoin="round" stroke-width="1.5"/><line x1="5" y1="15" x2="19" y2="15" fill="none" stroke="#323232" stroke-linecap="round" stroke-linejoin="round" stroke-width="1.5"/><line x1="12.5" y1="18" x2="11.5" y2="18" fill="none" stroke="#323232" stroke-linecap="round" stroke-linejoin="round" stroke-width="1.5"/></svg>