<svg id="Layer_3" data-name="Layer 3" xmlns="http://www.w3.org/2000/svg" viewBox="0 0 24 24"><title>setting-square_1</title><path d="M0,24V0H24V24Z" fill="none"/><line x1="7.5" y1="11" x2="10.5" y2="11" fill="none" stroke="#323232" stroke-linecap="round" stroke-linejoin="round" stroke-width="1.5"/><line x1="9" y1="11" x2="9" y2="17" fill="none" stroke="#323232" stroke-linecap="round" stroke-linejoin="round" stroke-width="1.5"/><line x1="9" y1="7" x2="9" y2="8.5" fill="none" stroke="#323232" stroke-linecap="round" stroke-linejoin="round" stroke-width="1.5"/><line x1="16.5" y1="13.07555" x2="13.5" y2="13.07555" fill="none" stroke="#323232" stroke-linecap="round" stroke-linejoin="round" stroke-width="1.5"/><line x1="15" y1="13" x2="15" y2="7" fill="none" stroke="#323232" stroke-linecap="round" stroke-linejoin="round" stroke-width="1.5"/><line x1="15" y1="17" x2="15" y2="15.5" fill="none" stroke="#323232" stroke-linecap="round" stroke-linejoin="round" stroke-width="1.5"/><path d="M21,8v8a5,5,0,0,1-5,5H8a5,5,0,0,1-5-5V8A5,5,0,0,1,8,3h8A5,5,0,0,1,21,8Z" fill="none" stroke="#323232" stroke-linecap="round" stroke-linejoin="round" stroke-width="1.5"/></svg>