<svg id="Layer_3" data-name="Layer 3" xmlns="http://www.w3.org/2000/svg" viewBox="0 0 24 24"><title>settings-round</title><path d="M9.654,18.634l.526,1.183A1.991,1.991,0,0,0,12,21h0a1.991,1.991,0,0,0,1.82-1.183l.526-1.183a2.183,2.183,0,0,1,.9-1h0a2.19,2.19,0,0,1,1.323-.281l1.287.137a1.991,1.991,0,0,0,1.934-.985h0a1.99,1.99,0,0,0-.114-2.167l-.762-1.047A2.186,2.186,0,0,1,18.5,12h0a2.186,2.186,0,0,1,.418-1.286l.762-1.047A1.99,1.99,0,0,0,19.794,7.5h0a1.991,1.991,0,0,0-1.934-.985l-1.287.137a2.19,2.19,0,0,1-1.323-.281h0a2.183,2.183,0,0,1-.9-1.005L13.82,4.183A1.991,1.991,0,0,0,12,3h0a1.991,1.991,0,0,0-1.82,1.183L9.654,5.366a2.183,2.183,0,0,1-.9,1.005h0a2.19,2.19,0,0,1-1.323.281L6.14,6.515A1.991,1.991,0,0,0,4.206,7.5h0A1.99,1.99,0,0,0,4.32,9.667l.762,1.047A2.186,2.186,0,0,1,5.5,12h0a2.186,2.186,0,0,1-.418,1.286L4.32,14.333A1.99,1.99,0,0,0,4.206,16.5h0a1.993,1.993,0,0,0,1.934.985l1.287-.137a2.19,2.19,0,0,1,1.323.281h0A2.183,2.183,0,0,1,9.654,18.634Z" fill="none" stroke="#323232" stroke-miterlimit="10" stroke-width="1.5"/><circle cx="12" cy="12" r="2.647" fill="none" stroke="#323232" stroke-linecap="round" stroke-linejoin="round" stroke-width="1.5"/><path d="M0,0H24V24H0Z" fill="none"/></svg>