<?xml version="1.0" encoding="utf-8"?>
<!-- Generator: Adobe Illustrator 24.0.2, SVG Export Plug-In . SVG Version: 6.00 Build 0)  -->
<svg version="1.1" id="Layer_1" xmlns="http://www.w3.org/2000/svg" xmlns:xlink="http://www.w3.org/1999/xlink" x="0px" y="0px"
	 width="24px" height="24px" viewBox="0 0 24 24" enable-background="new 0 0 24 24" xml:space="preserve">
<g>
	<path fill="none" d="M0,0h24v24H0V0z"/>
	<g>
		<path fill="none" stroke="#323232" stroke-width="1.5" stroke-linecap="round" stroke-linejoin="round" d="M12.944,9.697
			c0.996,0.996,0.996,2.61,0,3.606s-2.61,0.996-3.606,0s-0.996-2.61,0-3.606C10.333,8.701,11.948,8.701,12.944,9.697"/>
		<path fill="none" stroke="#323232" stroke-width="1.5" stroke-linecap="round" stroke-linejoin="round" d="M17.516,11.5
			c0-0.281-0.025-0.561-0.059-0.833l1.5-1.173c0.332-0.261,0.423-0.726,0.212-1.092l-1.334-2.307
			c-0.211-0.365-0.658-0.519-1.05-0.363l-1.34,0.538c-0.266,0.107-0.563,0.062-0.803-0.096C14.434,6.037,14.22,5.912,13.998,5.8
			c-0.256-0.128-0.443-0.362-0.484-0.645L13.31,3.727C13.251,3.31,12.893,3,12.471,3h-2.66C9.39,3,9.032,3.31,8.972,3.727
			l-0.206,1.43C8.726,5.439,8.54,5.672,8.286,5.801C8.063,5.915,7.847,6.042,7.64,6.179c-0.239,0.157-0.535,0.199-0.8,0.093
			L5.498,5.732c-0.392-0.157-0.84-0.003-1.05,0.363L3.114,8.402C2.902,8.768,2.993,9.234,3.325,9.494l1.5,1.173
			c-0.034,0.272-0.06,0.552-0.06,0.833c0,0.28,0.025,0.561,0.06,0.833l-1.5,1.173c-0.332,0.261-0.423,0.726-0.212,1.092l1.334,2.307
			c0.211,0.365,0.658,0.519,1.05,0.363l1.343-0.539c0.265-0.107,0.561-0.064,0.799,0.094c0.208,0.138,0.423,0.264,0.646,0.378
			c0.255,0.129,0.44,0.361,0.481,0.644l0.205,1.429C9.031,19.69,9.389,20,9.81,20h1.331"/>
		
			<line fill="none" stroke="#323232" stroke-width="1.5" stroke-linecap="round" stroke-linejoin="round" x1="15" y1="16" x2="21" y2="16"/>
		
			<line fill="none" stroke="#323232" stroke-width="1.5" stroke-linecap="round" stroke-linejoin="round" x1="15" y1="18.5" x2="21" y2="18.5"/>
		
			<line fill="none" stroke="#323232" stroke-width="1.5" stroke-linecap="round" stroke-linejoin="round" x1="15" y1="21" x2="21" y2="21"/>
	</g>
</g>
</svg>
