<?xml version="1.0" encoding="utf-8"?>
<!-- Generator: Adobe Illustrator 24.0.2, SVG Export Plug-In . SVG Version: 6.00 Build 0)  -->
<svg version="1.1" id="Layer_1" xmlns="http://www.w3.org/2000/svg" xmlns:xlink="http://www.w3.org/1999/xlink" x="0px" y="0px"
	 width="24px" height="24px" viewBox="0 0 24 24" enable-background="new 0 0 24 24" xml:space="preserve">
<g>
	<path fill="none" d="M24,24H0V0h24V24z"/>
	<g>
		<path fill="none" stroke="#323232" stroke-width="1.5" stroke-linecap="round" stroke-linejoin="round" d="M3,13V6
			c0-1.657,1.343-3,3-3h12c1.657,0,3,1.343,3,3v12c0,1.657-1.343,3-3,3h-6"/>
		<path fill="none" stroke="#323232" stroke-width="1.5" stroke-linecap="round" stroke-linejoin="round" d="M10.687,11.282
			l1.981,1.981l0,0l2.832-2.766c0.037-0.036,0.099-0.024,0.121,0.022c0.733,1.567,0.39,3.497-0.905,4.791
			c-1.254,1.254-3.037,1.584-4.556,0.99l-4.171,4.171c-0.684,0.683-1.793,0.683-2.476,0l0,0c-0.683-0.684-0.683-1.793,0-2.476
			l4.138-4.138c-0.595-1.518-0.264-3.301,0.99-4.556c1.292-1.292,3.218-1.573,4.786-0.902c0.047,0.021,0.059,0.085,0.023,0.122
			L10.687,11.282z"/>
	</g>
</g>
</svg>
