<svg id="Layer_3" data-name="Layer 3" xmlns="http://www.w3.org/2000/svg" viewBox="0 0 24 24"><title>Artboard 336</title><path d="M9.25,15H7m2.25,0a1.75,1.75,0,0,0,3.5,0m-3.5,0a1.75,1.75,0,0,1,3.5,0M17,15H12.75M16,21H8a5,5,0,0,1-5-5V8A5,5,0,0,1,8,3h8a5,5,0,0,1,5,5v8A5,5,0,0,1,16,21ZM11.25,9H7m4.25,0a1.75,1.75,0,0,0,3.5,0m-3.5,0a1.75,1.75,0,0,1,3.5,0M17,9H14.75" fill="none" stroke="#323232" stroke-linecap="round" stroke-linejoin="round" stroke-width="1.5"/><path d="M0,0H24V24H0Z" fill="none"/></svg>