<?xml version="1.0" encoding="utf-8"?>
<!-- Generator: Adobe Illustrator 24.0.2, SVG Export Plug-In . SVG Version: 6.00 Build 0)  -->
<svg version="1.1" id="Layer_3" xmlns="http://www.w3.org/2000/svg" xmlns:xlink="http://www.w3.org/1999/xlink" x="0px" y="0px"
	 width="24px" height="24px" viewBox="0 0 24 24" enable-background="new 0 0 24 24" xml:space="preserve">
<g>
	<g>
		<path fill="none" stroke="#323232" stroke-width="1.5" stroke-linecap="round" stroke-linejoin="round" d="M8.5,14.5
			c0-1.933,1.567-3.5,3.5-3.5l0,0c1.933,0,3.5,1.567,3.5,3.5"/>
		<path fill="none" stroke="#323232" stroke-width="1.5" stroke-linecap="round" stroke-linejoin="round" d="M15.5,9.5v5
			c0,1.933-1.567,3.5-3.5,3.5l0,0c-1.933,0-3.5-1.567-3.5-3.5v-5C8.5,7.567,10.067,6,12,6l0,0C13.933,6,15.5,7.567,15.5,9.5z"/>
		<path fill="none" stroke="#323232" stroke-width="1.5" stroke-linecap="round" stroke-linejoin="round" d="M21,8v8
			c0,2.761-2.239,5-5,5H8c-2.761,0-5-2.239-5-5V8c0-2.761,2.239-5,5-5h8C18.761,3,21,5.239,21,8z"/>
	</g>
	<path fill="none" d="M0,24V0h24v24H0z"/>
</g>
</svg>
