<svg id="Layer_3" data-name="Layer 3" xmlns="http://www.w3.org/2000/svg" viewBox="0 0 24 24"><title>setting-circle-small</title><rect width="24" height="24" fill="none"/><path d="M12.264,6.526a.923.923,0,0,1,.868.61l.236.656a.607.607,0,0,0,.267.319l.92.528a.616.616,0,0,0,.414.072l.682-.123a.921.921,0,0,1,.961.445l.264.457a.922.922,0,0,1-.1,1.06l-.452.53a.6.6,0,0,0-.144.389v1.06a.6.6,0,0,0,.144.392l.449.531a.922.922,0,0,1,.094,1.057l-.264.458a.922.922,0,0,1-.961.445l-.684-.123a.613.613,0,0,0-.411.071l-.922.529a.607.607,0,0,0-.267.319l-.236.656a.92.92,0,0,1-.867.61h-.524a.922.922,0,0,1-.867-.61l-.236-.656a.607.607,0,0,0-.267-.319l-.922-.529a.61.61,0,0,0-.41-.071l-.684.123a.922.922,0,0,1-.961-.446l-.264-.457a.922.922,0,0,1,.1-1.06l.451-.528a.6.6,0,0,0,.143-.389V11.47a.6.6,0,0,0-.142-.389l-.45-.532a.921.921,0,0,1-.094-1.056l.264-.458a.923.923,0,0,1,.962-.446l.683.123a.613.613,0,0,0,.411-.071l.922-.529a.607.607,0,0,0,.267-.319l.236-.657a.923.923,0,0,1,.866-.61Z" fill="none" stroke="#323232" stroke-linecap="round" stroke-linejoin="round" stroke-width="1.5"/><path d="M12,3h0a9,9,0,0,1,9,9h0a9,9,0,0,1-9,9h0a9,9,0,0,1-9-9H3A9,9,0,0,1,12,3Z" fill="none" stroke="#323232" stroke-linecap="round" stroke-linejoin="round" stroke-width="1.5"/><path d="M12,11.75a.25.25,0,1,0,.251.25A.249.249,0,0,0,12,11.75" fill="none" stroke="#323232" stroke-linecap="round" stroke-linejoin="round" stroke-width="1.5"/></svg>