<?xml version="1.0" encoding="UTF-8"?><svg version="1.1" viewBox="0 0 24 24" xmlns="http://www.w3.org/2000/svg" xmlns:xlink="http://www.w3.org/1999/xlink"><!--Generated by IJSVG (https://github.com/iconjar/IJSVG)--><g stroke-linecap="round" stroke-width="1.5" stroke="#323232" fill="none" stroke-linejoin="round"><path d="M13.7678,10.2322c0.976311,0.976311 0.976311,2.55922 0,3.53553c-0.976311,0.976311 -2.55922,0.976311 -3.53553,0c-0.976311,-0.976311 -0.976311,-2.55922 0,-3.53553c0.976311,-0.976311 2.55922,-0.976311 3.53553,0"></path><path d="M14.849,4.12l0.583,0.194c0.534,0.178 0.895,0.678 0.895,1.241v0.837c0,0.712 0.568,1.293 1.28,1.308l0.838,0.018c0.485,0.01 0.925,0.289 1.142,0.723l0.275,0.55c0.252,0.504 0.153,1.112 -0.245,1.51l-0.592,0.592c-0.503,0.503 -0.512,1.316 -0.02,1.83l0.58,0.606c0.336,0.351 0.45,0.858 0.296,1.319l-0.194,0.583c-0.178,0.534 -0.678,0.895 -1.241,0.895h-0.837c-0.712,0 -1.293,0.568 -1.308,1.28l-0.018,0.838c-0.01,0.485 -0.289,0.925 -0.723,1.142l-0.55,0.275c-0.504,0.252 -1.112,0.153 -1.51,-0.245l-0.592,-0.592c-0.503,-0.503 -1.316,-0.512 -1.83,-0.02l-0.606,0.58c-0.351,0.336 -0.858,0.45 -1.319,0.296l-0.583,-0.194c-0.534,-0.178 -0.895,-0.678 -0.895,-1.241v-0.837c0,-0.712 -0.568,-1.293 -1.28,-1.308l-0.838,-0.018c-0.485,-0.01 -0.925,-0.289 -1.142,-0.723l-0.275,-0.55c-0.252,-0.504 -0.153,-1.112 0.245,-1.51l0.592,-0.592c0.503,-0.503 0.512,-1.316 0.02,-1.83l-0.58,-0.606c-0.337,-0.352 -0.451,-0.86 -0.297,-1.32l0.194,-0.583c0.178,-0.534 0.678,-0.895 1.241,-0.895h0.837c0.712,0 1.293,-0.568 1.308,-1.28l0.018,-0.838c0.012,-0.485 0.29,-0.925 0.724,-1.142l0.55,-0.275c0.504,-0.252 1.112,-0.153 1.51,0.245l0.592,0.592c0.503,0.503 1.316,0.512 1.83,0.02l0.606,-0.58c0.351,-0.335 0.859,-0.449 1.319,-0.295Z"></path></g><path fill="none" d="M0,0h24v24h-24v-24Z"></path></svg>