<?xml version="1.0" encoding="UTF-8"?><svg version="1.1" viewBox="0 0 24 24" xmlns="http://www.w3.org/2000/svg" xmlns:xlink="http://www.w3.org/1999/xlink"><!--Generated by IJSVG (https://github.com/iconjar/IJSVG)--><defs><path d="M-0.057,0.086h24v24h-24v-24Z" id="a"></path></defs><g stroke-linecap="round" stroke-width="1.5" stroke="#323232" fill="none" stroke-linejoin="round"><path d="M10.047,13.982c0.530722,0.530722 0.530722,1.39119 0,1.92192c-0.530722,0.530722 -1.39119,0.530722 -1.92192,0c-0.530722,-0.530722 -0.530722,-1.39119 0,-1.92192c0.530722,-0.530722 1.39119,-0.530722 1.92192,0"></path><path d="M10.854,9.336l0.917,0.306c0.21,0.07 0.352,0.267 0.352,0.488v0.879c0,0.499 0.399,0.907 0.898,0.918l0.832,0.018c0.191,0.004 0.363,0.113 0.449,0.284l0.432,0.864c0.099,0.198 0.06,0.437 -0.096,0.594l-0.622,0.621c-0.353,0.353 -0.359,0.924 -0.014,1.284l0.575,0.601c0.132,0.138 0.177,0.337 0.116,0.518l-0.306,0.917c-0.07,0.21 -0.267,0.352 -0.488,0.352h-0.879c-0.499,0 -0.907,0.399 -0.918,0.898l-0.018,0.832c-0.004,0.191 -0.113,0.363 -0.284,0.449l-0.864,0.432c-0.198,0.099 -0.437,0.06 -0.594,-0.096l-0.621,-0.622c-0.353,-0.353 -0.924,-0.359 -1.284,-0.014l-0.601,0.575c-0.138,0.132 -0.337,0.177 -0.518,0.116l-0.917,-0.306c-0.21,-0.07 -0.352,-0.267 -0.352,-0.488v-0.879c0,-0.499 -0.399,-0.907 -0.898,-0.918l-0.831,-0.018c-0.191,-0.004 -0.363,-0.113 -0.449,-0.284l-0.432,-0.864c-0.099,-0.198 -0.06,-0.437 0.096,-0.594l0.622,-0.621c0.353,-0.353 0.359,-0.924 0.014,-1.284l-0.575,-0.601c-0.132,-0.138 -0.177,-0.337 -0.116,-0.518l0.306,-0.917c0.07,-0.21 0.267,-0.352 0.488,-0.352h0.879c0.499,0 0.907,-0.399 0.918,-0.898l0.018,-0.832c0.004,-0.191 0.113,-0.363 0.284,-0.449l0.864,-0.432c0.198,-0.099 0.437,-0.06 0.594,0.096l0.621,0.622c0.353,0.353 0.924,0.359 1.284,0.014l0.601,-0.575c0.136,-0.131 0.336,-0.176 0.517,-0.116Z"></path><path d="M18.105,10.408l0.796,-0.214c0.161,-0.043 0.282,-0.177 0.309,-0.342l0.151,-0.929c0.044,-0.269 0.255,-0.48 0.524,-0.524l0.928,-0.151c0.165,-0.027 0.299,-0.148 0.342,-0.309l0.214,-0.796c0.043,-0.162 -0.012,-0.333 -0.142,-0.439l-0.729,-0.596c-0.211,-0.173 -0.288,-0.461 -0.192,-0.716l0.335,-0.882c0.059,-0.156 0.022,-0.333 -0.097,-0.451l-0.583,-0.582c-0.118,-0.118 -0.295,-0.156 -0.451,-0.097l-1.308,0.496l-0.884,-1.082c-0.106,-0.13 -0.278,-0.185 -0.439,-0.142l-0.796,0.214c-0.161,0.043 -0.282,0.177 -0.309,0.342l-0.151,0.929c-0.044,0.269 -0.255,0.48 -0.524,0.524l-0.928,0.151c-0.165,0.027 -0.299,0.148 -0.342,0.309l-0.214,0.796c-0.043,0.161 0.012,0.333 0.141,0.439l0.728,0.595c0.211,0.173 0.288,0.461 0.191,0.716l-0.335,0.882c-0.059,0.156 -0.022,0.333 0.097,0.451l0.583,0.583c0.118,0.118 0.295,0.156 0.451,0.097l0.883,-0.335c0.255,-0.097 0.543,-0.019 0.715,0.192l0.596,0.729c0.107,0.13 0.279,0.185 0.44,0.142Z"></path></g><use fill="none" xlink:href="#a"></use><use xlink:href="#a" fill="none"></use></svg>