<?xml version="1.0" encoding="utf-8"?>
<!-- Generator: Adobe Illustrator 24.0.2, SVG Export Plug-In . SVG Version: 6.00 Build 0)  -->
<svg version="1.1" id="Layer_3" xmlns="http://www.w3.org/2000/svg" xmlns:xlink="http://www.w3.org/1999/xlink" x="0px" y="0px"
	 width="24px" height="24px" viewBox="0 0 24 24" enable-background="new 0 0 24 24" xml:space="preserve">
<g>
	<g>
		<path fill="none" stroke="#323232" stroke-width="1.5" stroke-linecap="round" stroke-linejoin="round" d="M13.273,10.727
			c0.703,0.703,0.703,1.843,0,2.546s-1.843,0.703-2.546,0s-0.703-1.843,0-2.546S12.57,10.024,13.273,10.727"/>
		<path fill="none" stroke="#323232" stroke-width="1.5" stroke-linecap="round" stroke-linejoin="round" d="M7.5,12
			c0,0.198,0.018,0.396,0.042,0.588l-0.784,0.613c-0.393,0.307-0.499,0.856-0.25,1.288l0.592,1.026
			c0.249,0.431,0.777,0.613,1.239,0.428l0.624-0.251c0.187-0.075,0.396-0.045,0.564,0.066c0.147,0.097,0.299,0.187,0.456,0.267
			c0.18,0.091,0.311,0.255,0.339,0.455l0.095,0.663C10.489,17.635,10.911,18,11.408,18h1.183c0.497,0,0.919-0.365,0.99-0.858
			l0.095-0.663c0.029-0.2,0.161-0.365,0.341-0.455c0.157-0.079,0.308-0.167,0.454-0.264c0.169-0.112,0.379-0.144,0.567-0.068
			l0.623,0.25c0.462,0.186,0.99,0.003,1.239-0.428l0.592-1.026c0.249-0.432,0.143-0.981-0.25-1.288l-0.784-0.613
			C16.482,12.396,16.5,12.198,16.5,12s-0.018-0.396-0.042-0.588l0.784-0.613c0.393-0.307,0.499-0.856,0.25-1.288l-0.592-1.026
			c-0.249-0.431-0.777-0.613-1.239-0.428l-0.623,0.25c-0.188,0.075-0.397,0.044-0.567-0.068c-0.146-0.097-0.297-0.185-0.454-0.264
			c-0.181-0.091-0.313-0.255-0.341-0.455l-0.095-0.662C13.511,6.366,13.089,6,12.591,6h-1.182c-0.497,0-0.919,0.365-0.99,0.858
			l-0.095,0.664c-0.029,0.199-0.16,0.363-0.339,0.455c-0.157,0.08-0.309,0.17-0.456,0.267C9.36,8.355,9.151,8.385,8.964,8.309
			L8.339,8.058C7.878,7.873,7.35,8.055,7.101,8.486L6.509,9.511c-0.249,0.432-0.143,0.981,0.25,1.288l0.784,0.613
			C7.518,11.604,7.5,11.802,7.5,12z"/>
		<path fill="none" stroke="#323232" stroke-width="1.5" stroke-linecap="round" stroke-linejoin="round" d="M17,21H7
			c-2.209,0-4-1.791-4-4V7c0-2.209,1.791-4,4-4h10c2.209,0,4,1.791,4,4v10C21,19.209,19.209,21,17,21z"/>
	</g>
	<path fill="none" d="M0,0h24v24H0V0z"/>
</g>
</svg>
