<?xml version="1.0" encoding="UTF-8"?><svg version="1.1" viewBox="0 0 24 24" xmlns="http://www.w3.org/2000/svg" xmlns:xlink="http://www.w3.org/1999/xlink"><!--Generated by IJSVG (https://github.com/iconjar/IJSVG)--><g stroke-linecap="round" stroke-width="1.5" stroke="#323232" fill="none" stroke-linejoin="round"><path d="M18.364,5.63604c3.51472,3.51472 3.51472,9.2132 0,12.7279c-3.51472,3.51472 -9.2132,3.51472 -12.7279,0c-3.51472,-3.51472 -3.51472,-9.2132 -1.77636e-15,-12.7279c3.51472,-3.51472 9.2132,-3.51472 12.7279,-1.77636e-15"></path><path d="M12.715,16.632l0.982,-0.264c0.183,-0.049 0.32,-0.201 0.351,-0.388l0.215,-1.32c0.033,-0.204 0.194,-0.365 0.398,-0.398l1.319,-0.215c0.187,-0.03 0.339,-0.168 0.388,-0.351l0.263,-0.982c0.049,-0.183 -0.014,-0.378 -0.161,-0.498l-1.036,-0.846c-0.161,-0.131 -0.219,-0.35 -0.146,-0.544l0.476,-1.253c0.067,-0.177 0.024,-0.378 -0.11,-0.512l-0.718,-0.718c-0.134,-0.134 -0.334,-0.177 -0.512,-0.11l-1.251,0.477c-0.194,0.074 -0.413,0.015 -0.544,-0.146l-0.846,-1.036c-0.12,-0.147 -0.315,-0.21 -0.498,-0.16l-0.982,0.264c-0.183,0.049 -0.32,0.201 -0.351,0.388l-0.215,1.32c-0.033,0.204 -0.193,0.364 -0.398,0.397l-1.319,0.215c-0.187,0.03 -0.339,0.168 -0.388,0.351l-0.263,0.982c-0.049,0.183 0.014,0.378 0.16,0.498l1.034,0.846c0.16,0.131 0.219,0.35 0.145,0.544l-0.476,1.253c-0.067,0.177 -0.024,0.378 0.11,0.512l0.718,0.718c0.134,0.134 0.334,0.177 0.511,0.11l1.254,-0.475c0.194,-0.073 0.413,-0.015 0.544,0.146l0.846,1.036c0.122,0.145 0.317,0.208 0.5,0.159Z"></path></g><path fill="none" d="M0,0h24v24h-24v-24Z"></path></svg>