<?xml version="1.0" encoding="utf-8"?>
<!-- Generator: Adobe Illustrator 24.0.2, SVG Export Plug-In . SVG Version: 6.00 Build 0)  -->
<svg version="1.1" id="Layer_3" xmlns="http://www.w3.org/2000/svg" xmlns:xlink="http://www.w3.org/1999/xlink" x="0px" y="0px"
	 width="24px" height="24px" viewBox="0 0 24 24" enable-background="new 0 0 24 24" xml:space="preserve">
<g>
	<g>
		<g>
			<path fill="none" stroke="#323232" stroke-width="1.5" stroke-linecap="round" stroke-linejoin="round" d="M6.5,3H17
				c1.933,0,3.5,1.567,3.5,3.5v0c0,1.933-1.567,3.5-3.5,3.5H6.5C4.567,10,3,8.433,3,6.5v0C3,4.567,4.567,3,6.5,3z"/>
		</g>
		<g>
			<path fill="none" stroke="#323232" stroke-width="1.5" stroke-linecap="round" stroke-linejoin="round" d="M17,21H6.5
				C4.567,21,3,19.433,3,17.5v0C3,15.567,4.567,14,6.5,14H17c1.933,0,3.5,1.567,3.5,3.5v0C20.5,19.433,18.933,21,17,21z"/>
		</g>
		<path fill="none" stroke="#323232" stroke-width="1.5" stroke-linecap="round" stroke-linejoin="round" d="M16.998,17
			c-0.276,0-0.5,0.224-0.498,0.5c0,0.276,0.224,0.5,0.5,0.5s0.5-0.224,0.5-0.5S17.276,17,16.998,17"/>
		<path fill="none" stroke="#323232" stroke-width="1.5" stroke-linecap="round" stroke-linejoin="round" d="M6.498,6
			C6.222,6,5.998,6.224,6,6.5C6,6.776,6.224,7,6.5,7S7,6.776,7,6.5S6.776,6,6.498,6"/>
	</g>
	<g>
		<path fill="none" d="M0,0h24v24H0V0z"/>
	</g>
</g>
</svg>
