<?xml version="1.0" encoding="utf-8"?>
<!-- Generator: Adobe Illustrator 23.1.0, SVG Export Plug-In . SVG Version: 6.00 Build 0)  -->
<svg version="1.1" id="icons" xmlns="http://www.w3.org/2000/svg" xmlns:xlink="http://www.w3.org/1999/xlink" x="0px" y="0px"
	 width="24px" height="24px" viewBox="0 0 24 24" enable-background="new 0 0 24 24" xml:space="preserve">
<path fill="none" d="M4,4h16v16H4V4z"/>
<g>
	<g>
		<path fill="none" stroke="#323232" stroke-width="1.5" stroke-linecap="round" stroke-linejoin="round" d="M13.273,10.727
			c0.703,0.703,0.703,1.843,0,2.546c-0.703,0.703-1.843,0.703-2.546,0s-0.703-1.843,0-2.546S12.57,10.024,13.273,10.727"/>
		<path fill="none" stroke="#323232" stroke-width="1.5" stroke-linecap="round" stroke-linejoin="round" d="M7.5,12
			c0,0.198,0.018,0.396,0.042,0.588l-1.059,0.828c-0.235,0.184-0.299,0.513-0.149,0.771l0.941,1.629
			c0.149,0.258,0.465,0.367,0.741,0.256l0.948-0.381c0.187-0.075,0.396-0.045,0.564,0.066c0.147,0.097,0.299,0.187,0.456,0.267
			c0.18,0.091,0.311,0.255,0.339,0.455l0.145,1.009C10.511,17.781,10.763,18,11.061,18h1.878c0.297,0,0.55-0.219,0.592-0.513
			l0.145-1.008c0.029-0.2,0.161-0.365,0.341-0.455c0.157-0.079,0.308-0.167,0.454-0.264c0.169-0.112,0.379-0.144,0.567-0.068
			l0.946,0.38c0.276,0.111,0.592,0.002,0.741-0.256l0.941-1.629c0.149-0.258,0.085-0.587-0.149-0.771l-1.059-0.828
			C16.482,12.396,16.5,12.198,16.5,12s-0.018-0.396-0.042-0.588l1.059-0.828c0.235-0.184,0.299-0.513,0.149-0.771l-0.941-1.629
			c-0.149-0.258-0.465-0.367-0.741-0.256l-0.946,0.38c-0.188,0.075-0.397,0.044-0.567-0.068c-0.146-0.097-0.297-0.185-0.454-0.264
			c-0.181-0.091-0.313-0.255-0.341-0.455l-0.144-1.008C13.489,6.219,13.237,6,12.939,6h-1.878c-0.297,0-0.55,0.219-0.592,0.513
			l-0.145,1.009c-0.029,0.199-0.16,0.363-0.339,0.455c-0.157,0.08-0.309,0.17-0.456,0.267C9.36,8.355,9.151,8.385,8.964,8.309
			L8.017,7.929C7.74,7.818,7.424,7.927,7.275,8.185L6.334,9.813c-0.149,0.258-0.085,0.587,0.149,0.771l1.059,0.828
			C7.518,11.604,7.5,11.802,7.5,12z"/>
		<circle fill="none" stroke="#323232" stroke-width="1.5" stroke-linecap="round" stroke-linejoin="round" cx="12" cy="12" r="9"/>
	</g>
	<path fill="none" d="M0,0h24v24H0V0z"/>
</g>
</svg>
