<svg id="Layer_3" data-name="Layer 3" xmlns="http://www.w3.org/2000/svg" viewBox="0 0 24 24"><title>setting-Hexagon</title><path d="M0,0H24V24H0Z" fill="none"/><path d="M10.545,16.115l.326.734A1.235,1.235,0,0,0,12,17.582h0a1.235,1.235,0,0,0,1.129-.733l.326-.734a1.349,1.349,0,0,1,.558-.62h0a1.355,1.355,0,0,1,.821-.175l.8.085a1.234,1.234,0,0,0,1.2-.611h0a1.235,1.235,0,0,0-.071-1.344l-.473-.649a1.355,1.355,0,0,1-.256-.8h0a1.354,1.354,0,0,1,.259-.8l.473-.649a1.233,1.233,0,0,0,.07-1.344h0a1.235,1.235,0,0,0-1.2-.611l-.8.085a1.357,1.357,0,0,1-.82-.174h0a1.352,1.352,0,0,1-.558-.624l-.329-.734A1.235,1.235,0,0,0,12,6.418h0a1.235,1.235,0,0,0-1.129.733l-.326.734a1.358,1.358,0,0,1-.558.624h0a1.362,1.362,0,0,1-.821.174l-.8-.085a1.235,1.235,0,0,0-1.2.611h0a1.233,1.233,0,0,0,.07,1.344l.473.649a1.354,1.354,0,0,1,.259.8h0a1.354,1.354,0,0,1-.259.8l-.473.649a1.233,1.233,0,0,0-.07,1.344h0a1.235,1.235,0,0,0,1.2.611l.8-.085a1.357,1.357,0,0,1,.82.174h0A1.359,1.359,0,0,1,10.545,16.115Z" fill="none" stroke="#323232" stroke-linecap="round" stroke-linejoin="round" stroke-width="1.5"/><path d="M6.536,19.536,4.464,17.464A5,5,0,0,1,3,13.929V10.071A5,5,0,0,1,4.464,6.536L6.536,4.464A5,5,0,0,1,10.071,3h3.857a5,5,0,0,1,3.535,1.464l2.073,2.073A5,5,0,0,1,21,10.072v3.856a5,5,0,0,1-1.464,3.535l-2.071,2.072A5,5,0,0,1,13.929,21H10.071A5,5,0,0,1,6.536,19.536Z" fill="none" stroke="#323232" stroke-linecap="round" stroke-linejoin="round" stroke-width="1.5"/><path d="M12,11.75a.25.25,0,1,0,.251.25A.249.249,0,0,0,12,11.75" fill="none" stroke="#323232" stroke-linecap="round" stroke-linejoin="round" stroke-width="1.5"/></svg>