<svg id="Layer_3" data-name="Layer 3" xmlns="http://www.w3.org/2000/svg" viewBox="0 0 24 24"><title>settings-switches-square</title><path d="M3,16V8A5,5,0,0,1,8,3h8a5,5,0,0,1,5,5v8a5,5,0,0,1-5,5H8A5,5,0,0,1,3,16Zm12-2.5V7m-1.75,9V14.5a1,1,0,0,1,1-1h1.5a1,1,0,0,1,1,1V16a1,1,0,0,1-1,1h-1.5A1,1,0,0,1,13.25,16ZM9,10.5V17m1.75-9V9.5a1,1,0,0,1-1,1H8.25a1,1,0,0,1-1-1V8a1,1,0,0,1,1-1h1.5A1,1,0,0,1,10.75,8Z" fill="none" stroke="#323232" stroke-linecap="round" stroke-linejoin="round" stroke-width="1.5"/><path d="M24,0V24H0V0Z" fill="none"/></svg>