<svg id="Layer_3" data-name="Layer 3" xmlns="http://www.w3.org/2000/svg" viewBox="0 0 24 24"><title>Artboard 9</title><path d="M24,24H0V0H24Z" fill="none"/><path d="M11.278,10.536l2.974-2.974a.081.081,0,0,0-.024-.131A4.7,4.7,0,0,0,9.074,8.4a4.561,4.561,0,0,0-1.066,4.906L3.552,17.765a1.887,1.887,0,0,0,0,2.667h0a1.887,1.887,0,0,0,2.667,0l4.492-4.492a4.65,4.65,0,0,0,5.88-6.226.082.082,0,0,0-.13-.023l-3.049,2.978h0L12.346,11.6Z" fill="none" stroke="#323232" stroke-linecap="round" stroke-linejoin="round" stroke-width="1.5"/><path d="M7.105,19.546a9.02,9.02,0,1,0-2.663-2.671" fill="none" stroke="#323232" stroke-linecap="round" stroke-linejoin="round" stroke-width="1.5"/></svg>