<svg id="Layer_3" data-name="Layer 3" xmlns="http://www.w3.org/2000/svg" viewBox="0 0 24 24"><title>settings-circle</title><path d="M10.436,16.423l.351.789A1.327,1.327,0,0,0,12,18h0a1.327,1.327,0,0,0,1.213-.788l.351-.789a1.453,1.453,0,0,1,.6-.67h0a1.45,1.45,0,0,1,.881-.187l.859.09A1.325,1.325,0,0,0,17.2,15h0a1.328,1.328,0,0,0-.076-1.445l-.508-.7A1.458,1.458,0,0,1,16.333,12h0a1.458,1.458,0,0,1,.279-.857l.508-.7A1.328,1.328,0,0,0,17.2,9h0a1.325,1.325,0,0,0-1.289-.656l-.858.09a1.451,1.451,0,0,1-.882-.187h0a1.453,1.453,0,0,1-.6-.67l-.351-.789A1.327,1.327,0,0,0,12,6h0a1.327,1.327,0,0,0-1.213.788l-.351.789a1.453,1.453,0,0,1-.6.67h0a1.451,1.451,0,0,1-.882.187l-.858-.09A1.325,1.325,0,0,0,6.8,9h0a1.328,1.328,0,0,0,.076,1.445l.508.7A1.458,1.458,0,0,1,7.667,12h0a1.458,1.458,0,0,1-.279.857l-.508.7A1.328,1.328,0,0,0,6.8,15h0a1.325,1.325,0,0,0,1.289.656l.859-.09a1.45,1.45,0,0,1,.881.187h0A1.453,1.453,0,0,1,10.436,16.423Z" fill="none" stroke="#323232" stroke-linecap="round" stroke-linejoin="round" stroke-width="1.5"/><circle cx="12" cy="12" r="9" fill="none" stroke="#323232" stroke-linecap="round" stroke-linejoin="round" stroke-width="1.5"/><circle cx="12" cy="12" r="1.5" fill="none" stroke="#323232" stroke-linecap="round" stroke-linejoin="round" stroke-width="1.5"/><rect width="24" height="24" fill="none"/></svg>