<svg id="Layer_3" data-name="Layer 3" xmlns="http://www.w3.org/2000/svg" viewBox="0 0 24 24"><title>setting-switches</title><path d="M8.27234,12a2.6351,2.6351,0,0,1,3.72659-.00107L12,12h0a2.63511,2.63511,0,0,1,.00107,3.7266L12,15.72766" fill="none" stroke="#323232" stroke-linecap="round" stroke-linejoin="round" stroke-width="1.5"/><path d="M15.72766,12,12,15.72766a2.6351,2.6351,0,0,1-3.7266.00107l-.00106-.00107h0a2.63509,2.63509,0,0,1-.00107-3.72659L8.27234,12,12,8.27234a2.6351,2.6351,0,0,1,3.7266-.00107l.00106.00107h0a2.63509,2.63509,0,0,1,.00107,3.72659Z" fill="none" stroke="#323232" stroke-linecap="round" stroke-linejoin="round" stroke-width="1.5"/><circle cx="12" cy="12" r="9" fill="none" stroke="#323232" stroke-linecap="round" stroke-linejoin="round" stroke-width="1.5"/><path d="M0,0H24V24H0Z" fill="none"/></svg>