<?xml version="1.0" encoding="utf-8"?>
<!-- Generator: Adobe Illustrator 24.0.2, SVG Export Plug-In . SVG Version: 6.00 Build 0)  -->
<svg version="1.1" id="Layer_1" xmlns="http://www.w3.org/2000/svg" xmlns:xlink="http://www.w3.org/1999/xlink" x="0px" y="0px"
	 width="24px" height="24px" viewBox="0 0 24 24" enable-background="new 0 0 24 24" xml:space="preserve">
<g>
	<path fill="none" d="M0,24h24V0L0,0L0,24z"/>
	<g>
		<path fill="none" stroke="#323232" stroke-width="1.5" stroke-linecap="round" stroke-linejoin="round" d="M12.944,14.303
			c0.996-0.996,0.996-2.61,0-3.606s-2.61-0.996-3.606,0s-0.996,2.61,0,3.606C10.333,15.299,11.948,15.299,12.944,14.303"/>
		<path fill="none" stroke="#323232" stroke-width="1.5" stroke-linecap="round" stroke-linejoin="round" d="M17.516,12.5
			c0,0.281-0.025,0.561-0.059,0.833l1.5,1.173c0.332,0.261,0.423,0.726,0.212,1.092l-1.334,2.307
			c-0.211,0.365-0.658,0.519-1.05,0.363l-1.34-0.538c-0.266-0.107-0.563-0.062-0.803,0.096c-0.207,0.137-0.421,0.263-0.643,0.374
			c-0.256,0.128-0.443,0.362-0.484,0.645l-0.204,1.428C13.251,20.69,12.893,21,12.471,21h-2.66c-0.421,0-0.779-0.31-0.839-0.727
			l-0.206-1.43c-0.041-0.282-0.227-0.515-0.481-0.644c-0.223-0.113-0.438-0.241-0.646-0.378c-0.239-0.157-0.535-0.199-0.8-0.093
			l-1.342,0.539c-0.392,0.157-0.84,0.003-1.05-0.363l-1.334-2.307c-0.212-0.366-0.121-0.832,0.212-1.092l1.5-1.173
			c-0.034-0.272-0.06-0.552-0.06-0.833c0-0.28,0.025-0.561,0.06-0.833l-1.5-1.173c-0.332-0.261-0.423-0.726-0.212-1.092l1.334-2.307
			c0.211-0.365,0.658-0.519,1.05-0.363l1.343,0.539C7.106,7.378,7.402,7.336,7.64,7.178C7.847,7.04,8.063,6.914,8.286,6.8
			c0.255-0.129,0.44-0.361,0.481-0.644l0.205-1.429C9.031,4.31,9.389,4,9.81,4h1.331"/>
		
			<line fill="none" stroke="#323232" stroke-width="1.5" stroke-linecap="round" stroke-linejoin="round" x1="15" y1="2.5" x2="15" y2="8"/>
		
			<line fill="none" stroke="#323232" stroke-width="1.5" stroke-linecap="round" stroke-linejoin="round" x1="18" y1="2.5" x2="18" y2="8"/>
		
			<line fill="none" stroke="#323232" stroke-width="1.5" stroke-linecap="round" stroke-linejoin="round" x1="21" y1="2.5" x2="21" y2="8"/>
	</g>
</g>
</svg>
