<?xml version="1.0" encoding="utf-8"?>
<!-- Generator: Adobe Illustrator 23.1.0, SVG Export Plug-In . SVG Version: 6.00 Build 0)  -->
<svg version="1.1" id="icons" xmlns="http://www.w3.org/2000/svg" xmlns:xlink="http://www.w3.org/1999/xlink" x="0px" y="0px"
	 width="24px" height="24px" viewBox="0 0 24 24" enable-background="new 0 0 24 24" xml:space="preserve">
<g>
	<g>
		<path fill="none" d="M0,0h24v24H0V0z"/>
	</g>
	<g>
		
			<circle fill="none" stroke="#323232" stroke-width="1.5" stroke-linecap="round" stroke-linejoin="round" stroke-miterlimit="10" cx="11.86" cy="12.001" r="3.5"/>
		
			<line fill="none" stroke="#323232" stroke-width="1.5" stroke-linecap="round" stroke-linejoin="round" stroke-miterlimit="10" x1="11.86" y1="12.001" x2="14.699" y2="14.03"/>
		
			<line fill="none" stroke="#323232" stroke-width="1.5" stroke-linecap="round" stroke-linejoin="round" stroke-miterlimit="10" x1="11.86" y1="12.001" x2="11.86" y2="8.501"/>
		<path fill="none" stroke="#323232" stroke-width="1.5" stroke-linecap="round" stroke-linejoin="round" d="M5.25,12
			c0,0.297,0.027,0.594,0.063,0.882l-1.588,1.242C3.373,14.4,3.277,14.893,3.501,15.28l1.412,2.443
			c0.223,0.387,0.697,0.55,1.112,0.384l1.422-0.571c0.281-0.113,0.594-0.068,0.846,0.099c0.22,0.146,0.448,0.28,0.684,0.4
			c0.27,0.137,0.466,0.382,0.509,0.682l0.217,1.513C9.766,20.672,10.145,21,10.591,21h2.817c0.446,0,0.825-0.328,0.888-0.77
			l0.217-1.512c0.043-0.3,0.241-0.547,0.512-0.683c0.235-0.118,0.462-0.251,0.681-0.396c0.254-0.168,0.568-0.216,0.85-0.102
			l1.419,0.57c0.414,0.166,0.888,0.003,1.112-0.384l1.412-2.443c0.224-0.387,0.128-0.881-0.224-1.156l-1.588-1.242
			c0.036-0.288,0.063-0.585,0.063-0.882s-0.027-0.594-0.063-0.882l1.588-1.242c0.352-0.276,0.448-0.769,0.224-1.156l-1.412-2.443
			c-0.223-0.387-0.697-0.55-1.112-0.384l-1.419,0.57c-0.282,0.113-0.596,0.066-0.85-0.102c-0.219-0.145-0.446-0.278-0.681-0.396
			c-0.271-0.136-0.469-0.383-0.512-0.683L14.297,3.77C14.234,3.328,13.855,3,13.409,3h-2.817c-0.446,0-0.825,0.328-0.888,0.77
			L9.486,5.284c-0.043,0.299-0.24,0.545-0.509,0.682c-0.236,0.12-0.464,0.255-0.684,0.4C8.04,6.532,7.727,6.577,7.446,6.464
			L6.025,5.893C5.61,5.727,5.136,5.89,4.913,6.277L3.501,8.72C3.277,9.107,3.373,9.601,3.725,9.876l1.588,1.242
			C5.277,11.406,5.25,11.703,5.25,12z"/>
		
			<line fill="none" stroke="#323232" stroke-width="1.5" stroke-linecap="round" stroke-linejoin="round" stroke-miterlimit="10" x1="11.86" y1="12.001" x2="9.02" y2="14.03"/>
	</g>
</g>
</svg>
