<svg id="Layer_3" data-name="Layer 3" xmlns="http://www.w3.org/2000/svg" viewBox="0 0 24 24"><title>settings-select</title><path d="M24,24H0V0H24Z" fill="none"/><path d="M8.466,16.536a5,5,0,1,1,7.071,0,5,5,0,0,1-7.071,0" fill="none" stroke="#323232" stroke-linecap="round" stroke-linejoin="round" stroke-width="1.5"/><path d="M15.541,9.461,12,13" fill="none" stroke="#323232" stroke-linecap="round" stroke-linejoin="round" stroke-width="1.5"/><path d="M5.283,6.283a.375.375,0,1,1,0,.53.374.374,0,0,1,0-.53" fill="none" stroke="#323232" stroke-linecap="round" stroke-linejoin="round" stroke-width="1.5"/><path d="M18.187,19.187a.375.375,0,1,1,0,.53.374.374,0,0,1,0-.53" fill="none" stroke="#323232" stroke-linecap="round" stroke-linejoin="round" stroke-width="1.5"/><path d="M2.61,12.735a.375.375,0,1,1,0,.53.374.374,0,0,1,0-.53" fill="none" stroke="#323232" stroke-linecap="round" stroke-linejoin="round" stroke-width="1.5"/><path d="M20.86,12.735a.375.375,0,1,1,0,.53.374.374,0,0,1,0-.53" fill="none" stroke="#323232" stroke-linecap="round" stroke-linejoin="round" stroke-width="1.5"/><path d="M5.283,19.187a.375.375,0,1,1,0,.53.374.374,0,0,1,0-.53" fill="none" stroke="#323232" stroke-linecap="round" stroke-linejoin="round" stroke-width="1.5"/><path d="M18.187,6.283a.375.375,0,1,1,0,.53.374.374,0,0,1,0-.53" fill="none" stroke="#323232" stroke-linecap="round" stroke-linejoin="round" stroke-width="1.5"/><path d="M11.735,3.61a.375.375,0,1,1,0,.53.374.374,0,0,1,0-.53" fill="none" stroke="#323232" stroke-linecap="round" stroke-linejoin="round" stroke-width="1.5"/></svg>