<svg id="Layer_3" data-name="Layer 3" xmlns="http://www.w3.org/2000/svg" viewBox="0 0 24 24"><title>settings-switches-square_1</title><path d="M16,21H8a5,5,0,0,1-5-5V8A5,5,0,0,1,8,3h8a5,5,0,0,1,5,5v8A5,5,0,0,1,16,21ZM9,7v6.5M7.25,16V14.5a1,1,0,0,1,1-1h1.5a1,1,0,0,1,1,1V16a1,1,0,0,1-1,1H8.25A1,1,0,0,1,7.25,16ZM15,17V10.5M16.75,8V9.5a1,1,0,0,1-1,1h-1.5a1,1,0,0,1-1-1V8a1,1,0,0,1,1-1h1.5A1,1,0,0,1,16.75,8Z" fill="none" stroke="#323232" stroke-linecap="round" stroke-linejoin="round" stroke-width="1.5"/><path d="M0,0V24H24V0Z" fill="none"/></svg>