<svg id="Layer_3" data-name="Layer 3" xmlns="http://www.w3.org/2000/svg" viewBox="0 0 24 24"><title>Artboard 100</title><path d="M9.668,20h4.663a4.85,4.85,0,0,0,4.2-2.424l1.819-3.151a4.847,4.847,0,0,0,0-4.85L18.53,6.424A4.851,4.851,0,0,0,14.331,4H9.669a4.849,4.849,0,0,0-4.2,2.424L3.65,9.576a4.843,4.843,0,0,0,0,4.848l1.819,3.151A4.849,4.849,0,0,0,9.668,20Z" fill="none" stroke="#323232" stroke-linecap="round" stroke-linejoin="round" stroke-width="1.5"/><ellipse cx="12" cy="12" rx="3.47" ry="3.368" fill="none" stroke="#323232" stroke-linecap="round" stroke-linejoin="round" stroke-width="1.5"/><path d="M0,0H24V24H0Z" fill="none"/></svg>