<svg id="Layer_3" data-name="Layer 3" xmlns="http://www.w3.org/2000/svg" viewBox="0 0 24 24"><title>setting-circle</title><path d="M12.526,6.055a.661.661,0,0,1,.622.437l.336.935a.662.662,0,0,0,.291.349l1,.574a.653.653,0,0,0,.447.078l.978-.176a.66.66,0,0,1,.689.32l.527.911a.661.661,0,0,1-.068.757L16.7,11a.658.658,0,0,0-.156.426v1.15A.658.658,0,0,0,16.7,13l.642.759a.661.661,0,0,1,.068.757l-.527.911a.66.66,0,0,1-.689.32l-.978-.176a.653.653,0,0,0-.447.078l-1,.574a.662.662,0,0,0-.291.349l-.336.935a.661.661,0,0,1-.622.437H11.474a.661.661,0,0,1-.622-.437l-.336-.935a.662.662,0,0,0-.291-.349l-1-.574a.653.653,0,0,0-.447-.078l-.978.176a.66.66,0,0,1-.689-.32l-.526-.911a.659.659,0,0,1,.067-.757L7.3,13a.658.658,0,0,0,.156-.426v-1.15A.658.658,0,0,0,7.3,11l-.642-.759a.659.659,0,0,1-.067-.757l.526-.911a.66.66,0,0,1,.689-.32l.978.176a.653.653,0,0,0,.447-.078l1-.574a.662.662,0,0,0,.291-.349l.336-.935a.661.661,0,0,1,.622-.437Z" fill="none" stroke="#323232" stroke-linecap="round" stroke-linejoin="round" stroke-width="1.5"/><rect x="3" y="3" width="18" height="18" rx="9" stroke-width="1.5" stroke="#323232" stroke-linecap="round" stroke-linejoin="round" fill="none"/><circle cx="12" cy="12" r="1.5" fill="none" stroke="#323232" stroke-linecap="round" stroke-linejoin="round" stroke-width="1.5"/><rect width="24" height="24" fill="none"/></svg>