<svg id="Layer_3" data-name="Layer 3" xmlns="http://www.w3.org/2000/svg" viewBox="0 0 24 24"><title>shape-split_2</title><path d="M14,8H9A1,1,0,0,0,8,9v5" fill="none" stroke="#323232" stroke-linecap="round" stroke-linejoin="round" stroke-width="1.5"/><path d="M18,8h2a1,1,0,0,1,1,1V20a1,1,0,0,1-1,1H9a1,1,0,0,1-1-1V18" fill="none" stroke="#323232" stroke-linecap="round" stroke-linejoin="round" stroke-width="1.5"/><path d="M10,16h5a1,1,0,0,0,1-1V10" fill="none" stroke="#323232" stroke-linecap="round" stroke-linejoin="round" stroke-width="1.5"/><path d="M6,16H4a1,1,0,0,1-1-1V4A1,1,0,0,1,4,3H15a1,1,0,0,1,1,1V6" fill="none" stroke="#323232" stroke-linecap="round" stroke-linejoin="round" stroke-width="1.5"/><rect width="24" height="24" transform="translate(24 24) rotate(180)" fill="none"/></svg>