<svg id="Layer_3" data-name="Layer 3" xmlns="http://www.w3.org/2000/svg" viewBox="0 0 24 24"><title>shape-subtract-bottom</title><path d="M5,8H4A1,1,0,0,0,3,9V20a1,1,0,0,0,1,1H15a1,1,0,0,0,1-1V19" fill="none" stroke="#323232" stroke-linecap="round" stroke-linejoin="round" stroke-width="1.5"/><path d="M16,16h4a1,1,0,0,0,1-1V4a1,1,0,0,0-1-1H9A1,1,0,0,0,8,4V8h7a1,1,0,0,1,1,1Z" fill="none" stroke="#323232" stroke-linecap="round" stroke-linejoin="round" stroke-width="1.5"/><rect width="24" height="24" transform="translate(24 24) rotate(180)" fill="none"/></svg>