<?xml version="1.0" encoding="utf-8"?>
<!-- Generator: Adobe Illustrator 24.0.2, SVG Export Plug-In . SVG Version: 6.00 Build 0)  -->
<svg version="1.1" id="Layer_1" xmlns="http://www.w3.org/2000/svg" xmlns:xlink="http://www.w3.org/1999/xlink" x="0px" y="0px"
	 width="24px" height="24px" viewBox="0 0 24 24" enable-background="new 0 0 24 24" xml:space="preserve">
<g>
	<path fill="none" d="M24,24H0L0,0l24,0V24z"/>
	<g>
		<g>
			<path fill="none" stroke="#323232" stroke-width="1.5" stroke-linecap="round" stroke-linejoin="round" d="M14,21c0,0,5,0,5,0
				c1.105,0,2-0.895,2-2v-4"/>
		</g>
		<path fill="none" stroke="#323232" stroke-width="1.5" stroke-linecap="round" stroke-linejoin="round" d="M10,3c0,0-5,0-5,0
			C3.895,3,3,3.895,3,5v5"/>
		<path fill="none" stroke="#323232" stroke-width="1.5" stroke-linecap="round" stroke-linejoin="round" d="M18.778,6.111
			l-2.222,2.222L15.222,7"/>
		<path fill="none" stroke="#323232" stroke-width="1.5" stroke-linecap="round" stroke-linejoin="round" d="M19,11h-4
			c-1.105,0-2-0.895-2-2V5c0-1.105,0.895-2,2-2h4c1.105,0,2,0.895,2,2v4C21,10.105,20.105,11,19,11z"/>
		
			<path fill="none" stroke="#323232" stroke-width="1.5" stroke-linecap="round" stroke-linejoin="round" stroke-miterlimit="10" d="
			M3.262,20.475c0.145,0,0.263,0.119,0.263,0.263C3.524,20.882,3.406,21,3.262,21C3.118,21,3,20.882,3.001,20.737
			C3,20.593,3.117,20.475,3.262,20.475"/>
		
			<path fill="none" stroke="#323232" stroke-width="1.5" stroke-linecap="round" stroke-linejoin="round" stroke-miterlimit="10" d="
			M3,17.5c2.049,0.045,3.455,1.451,3.5,3.5"/>
		
			<path fill="none" stroke="#323232" stroke-width="1.5" stroke-linecap="round" stroke-linejoin="round" stroke-miterlimit="10" d="
			M10,21c-0.01-0.886-0.16-1.715-0.428-2.475c-0.686-1.942-2.155-3.411-4.098-4.099C4.715,14.16,3.886,14.01,3,14"/>
	</g>
</g>
</svg>
