<svg id="Layer_3" data-name="Layer 3" xmlns="http://www.w3.org/2000/svg" viewBox="0 0 24 24"><title>share-arrows</title><path d="M16,10h2a2,2,0,0,1,2,2v7a2,2,0,0,1-2,2H10a2,2,0,0,1-2-2V17" fill="none" stroke="#323232" stroke-linecap="round" stroke-linejoin="round" stroke-width="1.5"/><polyline points="12.5 4.5 10 2 7.5 4.5" fill="none" stroke="#323232" stroke-linecap="round" stroke-linejoin="round" stroke-width="1.5"/><line x1="10" y1="11" x2="10" y2="2" fill="none" stroke="#323232" stroke-linecap="round" stroke-linejoin="round" stroke-width="1.5"/><path d="M13,7h1a2,2,0,0,1,2,2v6a2,2,0,0,1-2,2H6a2,2,0,0,1-2-2V9A2,2,0,0,1,6,7H7" fill="none" stroke="#323232" stroke-linecap="round" stroke-linejoin="round" stroke-width="1.5"/><path d="M0,0H24V24H0Z" fill="none"/></svg>