<?xml version="1.0" encoding="utf-8"?>
<!-- Generator: Adobe Illustrator 23.1.0, SVG Export Plug-In . SVG Version: 6.00 Build 0)  -->
<svg version="1.1" id="icons" xmlns="http://www.w3.org/2000/svg" xmlns:xlink="http://www.w3.org/1999/xlink" x="0px" y="0px"
	 width="24px" height="24px" viewBox="0 0 24 24" enable-background="new 0 0 24 24" xml:space="preserve">
<g>
	<path fill="none" d="M0,0h24v24H0V0z"/>
	<g>
		<path fill="none" stroke="#323232" stroke-width="1.5" stroke-linecap="round" stroke-linejoin="round" d="M14.888,10.544
			c-3.444,0-6.509,1.194-7.984,4.456v-1c0-4.968,3.622-7.955,7.984-7.955V3.887c0-0.755,0.883-1.164,1.459-0.675l5.34,4.533
			c0.408,0.345,0.419,0.972,0.022,1.331l-5.34,4.841c-0.569,0.515-1.481,0.112-1.481-0.656V10.544z"/>
		<path fill="none" stroke="#323232" stroke-width="1.5" stroke-linecap="round" stroke-linejoin="round" d="M10,3H5
			C3.895,3,3,3.895,3,5v14c0,1.105,0.895,2,2,2h14c1.105,0,2-0.895,2-2v-4"/>
	</g>
</g>
</svg>
