<?xml version="1.0" encoding="utf-8"?>
<!-- Generator: Adobe Illustrator 24.0.2, SVG Export Plug-In . SVG Version: 6.00 Build 0)  -->
<svg version="1.1" id="Layer_3" xmlns="http://www.w3.org/2000/svg" xmlns:xlink="http://www.w3.org/1999/xlink" x="0px" y="0px"
	 width="24px" height="24px" viewBox="0 0 24 24" enable-background="new 0 0 24 24" xml:space="preserve">
<g>
	<g>
		<g>
			<path fill="none" d="M0,0l24,0v24H0L0,0z"/>
			<path fill="none" d="M0,0l24,0v24H0L0,0z"/>
		</g>
	</g>
	<g>
		<path fill="none" stroke="#323232" stroke-width="1.5" stroke-linecap="round" stroke-linejoin="round" d="M17,3h1
			c1.657,0,3,1.343,3,3v12c0,1.657-1.343,3-3,3H6c-1.657,0-3-1.343-3-3v-1.014"/>
		<g>
			<path fill="none" stroke="#323232" stroke-width="1.5" stroke-linecap="round" stroke-linejoin="round" d="M10,5.637
				c-3.825,0-7,1.952-7,6.511v0.915c1.294-2.994,3.98-3.299,7-3.299v1.886c0,0.651,0.772,0.993,1.254,0.556l4.5-4.079
				c0.336-0.304,0.327-0.834-0.018-1.128l-4.5-3.819C10.748,2.766,10,3.112,10,3.751C10,3.751,10,5.637,10,5.637z"/>
		</g>
	</g>
</g>
</svg>
