<?xml version="1.0" encoding="utf-8"?>
<!-- Generator: Adobe Illustrator 24.0.2, SVG Export Plug-In . SVG Version: 6.00 Build 0)  -->
<svg version="1.1" id="Layer_1" xmlns="http://www.w3.org/2000/svg" xmlns:xlink="http://www.w3.org/1999/xlink" x="0px" y="0px"
	 width="24px" height="24px" viewBox="0 0 24 24" enable-background="new 0 0 24 24" xml:space="preserve">
<g>
	<path fill="none" d="M24,24H0V0h24V24z"/>
	<g>
		<path fill="none" stroke="#323232" stroke-width="1.5" stroke-linecap="round" stroke-linejoin="round" d="M9.311,10.939
			c0.586,0.586,0.586,1.536,0,2.122c-0.586,0.586-1.536,0.586-2.122,0c-0.586-0.586-0.586-1.536,0-2.122
			C7.775,10.353,8.725,10.353,9.311,10.939"/>
		<path fill="none" stroke="#323232" stroke-width="1.5" stroke-linecap="round" stroke-linejoin="round" d="M9.585,12.666
			l3.33,1.665"/>
		<path fill="none" stroke="#323232" stroke-width="1.5" stroke-linecap="round" stroke-linejoin="round" d="M12.915,9.669
			l-3.33,1.665"/>
		<path fill="none" stroke="#323232" stroke-width="1.5" stroke-linecap="round" stroke-linejoin="round" d="M15.311,7.939
			c0.586,0.586,0.586,1.536,0,2.122c-0.586,0.586-1.536,0.586-2.122,0c-0.586-0.586-0.586-1.536,0-2.122
			C13.775,7.354,14.725,7.354,15.311,7.939"/>
		<path fill="none" stroke="#323232" stroke-width="1.5" stroke-linecap="round" stroke-linejoin="round" d="M15.311,13.939
			c0.586,0.586,0.586,1.536,0,2.122c-0.586,0.586-1.536,0.586-2.122,0c-0.586-0.586-0.586-1.536,0-2.122
			C13.775,13.353,14.725,13.353,15.311,13.939"/>
		
			<circle fill="none" stroke="#323232" stroke-width="1.5" stroke-linecap="round" stroke-linejoin="round" stroke-miterlimit="10" cx="12" cy="12" r="9"/>
	</g>
</g>
</svg>
