<svg id="Layer_3" data-name="Layer 3" xmlns="http://www.w3.org/2000/svg" viewBox="0 0 24 24"><line x1="18.71557" y1="12.74279" x2="11.25721" y2="5.28443" fill="none" stroke="#323232" stroke-linecap="round" stroke-linejoin="round" stroke-width="1.5"/><line x1="16.85098" y1="3.41983" x2="15.35931" y2="4.9115" fill="none" stroke="#323232" stroke-linecap="round" stroke-linejoin="round" stroke-width="1.5"/><line x1="18.71557" y1="5.28442" x2="17.2239" y2="6.7761" fill="none" stroke="#323232" stroke-linecap="round" stroke-linejoin="round" stroke-width="1.5"/><line x1="20.58016" y1="7.14902" x2="19.08849" y2="8.64069" fill="none" stroke="#323232" stroke-linecap="round" stroke-linejoin="round" stroke-width="1.5"/><path d="M15.55737,3.61791l4.82472,4.82472a2.10954,2.10954,0,0,1-.19653,3.15684l-1.47,1.14332L11.25721,5.28443l1.14332-1.47A2.10954,2.10954,0,0,1,15.55737,3.61791Z" fill="none" stroke="#323232" stroke-linecap="round" stroke-linejoin="round" stroke-width="1.5"/><path d="M4.54468,19.45532h0a5.27386,5.27386,0,0,1,0-7.45836l6.71253-6.71253,7.45836,7.45836L12.003,19.45532A5.27386,5.27386,0,0,1,4.54468,19.45532Z" fill="none" stroke="#323232" stroke-linecap="round" stroke-linejoin="round" stroke-width="1.5"/><path d="M11.10274,10.78771h1.05478a1.58216,1.58216,0,0,1,1.58216,1.58216v0A1.58216,1.58216,0,0,1,12.15752,13.952H11.10274a1.58216,1.58216,0,0,1-1.58216-1.58216v0a1.58215,1.58215,0,0,1,1.58215-1.58215Z" transform="translate(11.10705 29.34044) rotate(-135)" fill="none" stroke="#323232" stroke-linecap="round" stroke-linejoin="round" stroke-width="1.5"/><line x1="9.17386" y1="16.62614" x2="7.37386" y2="14.82614" fill="none" stroke="#323232" stroke-linecap="round" stroke-linejoin="round" stroke-width="1.5"/><rect width="24" height="24" fill="none"/></svg>