<?xml version="1.0" encoding="utf-8"?>
<!-- Generator: Adobe Illustrator 23.1.0, SVG Export Plug-In . SVG Version: 6.00 Build 0)  -->
<svg version="1.1" id="icons" xmlns="http://www.w3.org/2000/svg" xmlns:xlink="http://www.w3.org/1999/xlink" x="0px" y="0px"
	 width="24px" height="24px" viewBox="0 0 24 24" enable-background="new 0 0 24 24" xml:space="preserve">
<g>
	<path fill="none" d="M0,0h24v24H0V0z"/>
	<g>
		<path fill="none" stroke="#323232" stroke-width="1.5" stroke-linecap="round" stroke-linejoin="round" d="M20,11.242
			c0,4.368-3.157,8.462-7.48,9.686c-0.338,0.096-0.702,0.096-1.04,0C7.157,19.705,4,15.61,4,11.242V7.214
			C4,6.402,4.491,5.67,5.243,5.363l4.864-1.99c1.214-0.497,2.574-0.497,3.787,0l4.864,1.99C19.509,5.67,20,6.402,20,7.214V11.242z"
			/>
		<g>
			<path fill="none" stroke="#323232" stroke-width="1.5" stroke-linecap="round" stroke-linejoin="round" d="M13.538,11.925
				c0.436-0.489,0.642-1.186,0.447-1.925c-0.181-0.688-0.745-1.249-1.433-1.428c-1.375-0.358-2.611,0.67-2.611,1.987
				c0,0.525,0.197,1.003,0.52,1.366c0.232,0.26,0.326,0.613,0.231,0.948l-0.386,1.353c-0.183,0.639,0.297,1.275,0.962,1.275h1.466
				c0.664,0,1.144-0.636,0.962-1.275l-0.386-1.353C13.212,12.538,13.307,12.185,13.538,11.925z"/>
		</g>
	</g>
</g>
</svg>
