<svg id="Layer_3" data-name="Layer 3" xmlns="http://www.w3.org/2000/svg" viewBox="0 0 24 24"><title>shield-protected-cross-delete</title><line x1="13.5" y1="13" x2="10.5" y2="10" fill="none" stroke="#323232" stroke-linecap="round" stroke-linejoin="round" stroke-width="1.5"/><line x1="13.5" y1="10" x2="10.5" y2="13" fill="none" stroke="#323232" stroke-linecap="round" stroke-linejoin="round" stroke-width="1.5"/><path d="M4,11.138V6.875A2,2,0,0,1,5.40345,4.966l6-1.875a2,2,0,0,1,1.1931,0l6,1.875A2,2,0,0,1,20,6.875v4.263a10,10,0,0,1-6.48877,9.36329l-1.16011.435a1,1,0,0,1-.70224,0l-1.16011-.435A10,10,0,0,1,4,11.138Z" fill="none" stroke="#323232" stroke-linecap="round" stroke-linejoin="round" stroke-width="1.5"/><path d="M0,0H24V24H0Z" fill="none"/></svg>