<svg id="Layer_3" data-name="Layer 3" xmlns="http://www.w3.org/2000/svg" viewBox="0 0 24 24"><title>shield-protected-checkmark</title><path d="M0,0H24V24H0Z" fill="none"/><path d="M13,20.938A8.15936,8.15936,0,0,1,12,21a9,9,0,1,1,9-9,8.15936,8.15936,0,0,1-.062,1" fill="none" stroke="#323232" stroke-linecap="round" stroke-linejoin="round" stroke-width="1.5"/><path d="M20,17l-2.5,2.5L16,18" fill="none" stroke="#323232" stroke-linecap="round" stroke-linejoin="round" stroke-width="1.5"/><path d="M7.99794,12.069V9.9375A1,1,0,0,1,8.69967,8.983l3-.9375a1.00005,1.00005,0,0,1,.59655,0l3,.9375a1,1,0,0,1,.70172.95448V12.069a5,5,0,0,1-3.24438,4.68164l-.58.21752a.5.5,0,0,1-.35113,0l-.58-.21752A5,5,0,0,1,7.99794,12.069Z" fill="none" stroke="#323232" stroke-linecap="round" stroke-linejoin="round" stroke-width="1.5"/></svg>