<?xml version="1.0" encoding="utf-8"?>
<!-- Generator: Adobe Illustrator 24.0.2, SVG Export Plug-In . SVG Version: 6.00 Build 0)  -->
<svg version="1.1" id="Layer_3" xmlns="http://www.w3.org/2000/svg" xmlns:xlink="http://www.w3.org/1999/xlink" x="0px" y="0px"
	 width="24px" height="24px" viewBox="0 0 24 24" enable-background="new 0 0 24 24" xml:space="preserve">
<g>
	<g>
		<path id="a_10_" fill="none" d="M0,0h24v24H0V0z"/>
	</g>
	<g>
		<path id="a_9_" fill="none" d="M0,0h24v24H0V0z"/>
	</g>
	<g>
		<path fill="none" stroke="#323232" stroke-width="1.5" stroke-linecap="round" stroke-linejoin="round" d="M20,9.478V6
			c0-1.105-0.895-2-2-2h-3"/>
		<path fill="none" stroke="#323232" stroke-width="1.5" stroke-linecap="round" stroke-linejoin="round" d="M3,9.108
			c0,1.853,2.595,3.23,3.787,3.765c0.376,0.169,0.795,0.169,1.171,0c1.192-0.535,3.787-1.912,3.787-3.765v-3.73
			c0-0.615-0.386-1.164-0.964-1.372l-2.225-0.8c-0.766-0.276-1.605-0.276-2.371,0l-2.222,0.8C3.386,4.215,3,4.764,3,5.378V9.108z"/>
		<path fill="none" stroke="#323232" stroke-width="1.5" stroke-linecap="round" stroke-linejoin="round" d="M3,15v3
			c0,1.105,0.895,2,2,2h6"/>
		<path fill="none" stroke="#323232" stroke-width="1.5" stroke-linecap="round" stroke-linejoin="round" d="M19.121,13.879
			c1.298,1.298,1.158,3.487-0.418,4.594c-1.003,0.704-2.404,0.704-3.407,0c-1.577-1.106-1.716-3.296-0.418-4.594
			C16.05,12.707,17.95,12.707,19.121,13.879"/>
		<path fill="none" stroke="#323232" stroke-width="1.5" stroke-linecap="round" stroke-linejoin="round" d="M21,20l-1.88-1.88"/>
	</g>
</g>
</svg>
