<?xml version="1.0" encoding="utf-8"?>
<!-- Generator: Adobe Illustrator 24.0.2, SVG Export Plug-In . SVG Version: 6.00 Build 0)  -->
<svg version="1.1" id="Layer_3" xmlns="http://www.w3.org/2000/svg" xmlns:xlink="http://www.w3.org/1999/xlink" x="0px" y="0px"
	 width="24px" height="24px" viewBox="0 0 24 24" enable-background="new 0 0 24 24" xml:space="preserve">
<g>
	<path fill="none" d="M0,0h24v24H0V0z"/>
	<g>
		<path fill="none" stroke="#323232" stroke-width="1.5" stroke-linecap="round" stroke-linejoin="round" d="M20,11.182
			c0,4.541-3.413,8.787-8,9.818c-4.587-1.031-8-5.277-8-9.818V7.238c0-0.812,0.491-1.544,1.156-1.815l5-2.046
			c1.213-0.497,2.475-0.497,3.601-0.036l5,2.046C19.509,5.695,20,6.426,20,7.238V11.182z"/>
		<path fill="none" stroke="#323232" stroke-width="1.5" stroke-linecap="round" stroke-linejoin="round" d="M12.177,11.323
			c0.098,0.098,0.098,0.256,0,0.354c-0.098,0.098-0.256,0.098-0.354,0c-0.098-0.098-0.098-0.256,0-0.354
			C11.921,11.225,12.079,11.226,12.177,11.323"/>
		<path fill="none" stroke="#323232" stroke-width="1.5" stroke-linecap="round" stroke-linejoin="round" d="M16.177,11.323
			c0.098,0.098,0.098,0.256,0,0.354c-0.098,0.098-0.256,0.098-0.354,0c-0.098-0.098-0.098-0.256,0-0.354
			C15.921,11.225,16.079,11.226,16.177,11.323"/>
		<path fill="none" stroke="#323232" stroke-width="1.5" stroke-linecap="round" stroke-linejoin="round" d="M8.177,11.323
			c0.098,0.098,0.098,0.256,0,0.354c-0.098,0.098-0.256,0.098-0.354,0s-0.098-0.256,0-0.354C7.921,11.225,8.079,11.226,8.177,11.323
			"/>
	</g>
</g>
</svg>
