<?xml version="1.0" encoding="utf-8"?>
<!-- Generator: Adobe Illustrator 24.0.2, SVG Export Plug-In . SVG Version: 6.00 Build 0)  -->
<svg version="1.1" id="Layer_3" xmlns="http://www.w3.org/2000/svg" xmlns:xlink="http://www.w3.org/1999/xlink" x="0px" y="0px"
	 width="24px" height="24px" viewBox="0 0 24 24" enable-background="new 0 0 24 24" xml:space="preserve">
<g>
	<g>
		<path fill="none" d="M0,0h24v24H0V0z"/>
	</g>
	<g>
		<path fill="none" stroke="#323232" stroke-width="1.5" stroke-linecap="round" stroke-linejoin="round" d="M7.627,12.873
			c0,1.853,2.595,3.23,3.787,3.765c0.376,0.169,0.795,0.169,1.171,0c1.192-0.535,3.787-1.912,3.787-3.765v-3.26
			c0-0.615-0.386-1.164-0.964-1.372l-2.225-0.8c-0.766-0.276-1.605-0.276-2.371,0l-2.222,0.8C8.013,8.45,7.627,8.999,7.627,9.614
			V12.873z"/>
		<path fill="none" stroke="#323232" stroke-width="1.5" stroke-linecap="round" stroke-linejoin="round" d="M21,7.235v9.529
			C21,19.104,19.104,21,16.765,21H7.235C4.896,21,3,19.104,3,16.765V7.235C3,4.896,4.896,3,7.235,3h9.529
			C19.104,3,21,4.896,21,7.235z"/>
	</g>
</g>
</svg>
