<svg id="Layer_3" data-name="Layer 3" xmlns="http://www.w3.org/2000/svg" viewBox="0 0 24 24"><title>shield-protected</title><path d="M4,11.138V6.875A2,2,0,0,1,5.40345,4.966l6-1.875a2,2,0,0,1,1.1931,0l6,1.875A2,2,0,0,1,20,6.875v4.263a10,10,0,0,1-6.48877,9.36329l-1.16011.435a1,1,0,0,1-.70224,0l-1.16011-.435A10,10,0,0,1,4,11.138Z" fill="none" stroke="#323232" stroke-linecap="round" stroke-linejoin="round" stroke-width="1.5"/><line x1="12" y1="7.97379" x2="12" y2="12" fill="none" stroke="#323232" stroke-linecap="round" stroke-linejoin="round" stroke-width="1.5"/><path d="M12.125,15.125A.125.125,0,1,1,12,15" fill="none" stroke="#323232" stroke-linecap="round" stroke-linejoin="round" stroke-width="1.5"/><path d="M12,15a.125.125,0,0,1,.125.125" fill="none" stroke="#323232" stroke-linecap="round" stroke-linejoin="round" stroke-width="1.5"/><path d="M0,0H24V24H0Z" fill="none"/></svg>