<svg id="Layer_3" data-name="Layer 3" xmlns="http://www.w3.org/2000/svg" viewBox="0 0 24 24"><title>shield-protected-add</title><path id="a" d="M0,0H24V24H0Z" fill="none"/><path id="a-2" data-name="a" d="M0,0H24V24H0Z" fill="none"/><path d="M4,11.243V6.912a.989.989,0,0,1,.9-.992,11.262,11.262,0,0,0,6.463-2.688.991.991,0,0,1,1.274,0A11.255,11.255,0,0,0,19.1,5.92a.99.99,0,0,1,.9.993v4.331a10.343,10.343,0,0,1-7.477,9.684,1.932,1.932,0,0,1-1.045,0A10.343,10.343,0,0,1,4,11.243Z" fill="none" stroke="#323232" stroke-linecap="round" stroke-linejoin="round" stroke-width="1.5"/><path d="M10,12h4" fill="none" stroke="#323232" stroke-linecap="round" stroke-linejoin="round" stroke-width="1.5"/><path d="M12,14V10" fill="none" stroke="#323232" stroke-linecap="round" stroke-linejoin="round" stroke-width="1.5"/></svg>