<?xml version="1.0" encoding="utf-8"?>
<!-- Generator: Adobe Illustrator 24.0.2, SVG Export Plug-In . SVG Version: 6.00 Build 0)  -->
<svg version="1.1" id="Layer_3" xmlns="http://www.w3.org/2000/svg" xmlns:xlink="http://www.w3.org/1999/xlink" x="0px" y="0px"
	 width="24px" height="24px" viewBox="0 0 24 24" enable-background="new 0 0 24 24" xml:space="preserve">
<g>
	<g>
		<path fill="none" d="M0,0h24v24H0V0z"/>
	</g>
	<g>
		<path fill="none" stroke="#323232" stroke-width="1.5" stroke-linecap="round" stroke-linejoin="round" d="M7.849,7.735
			c0.146,0.146,0.146,0.384,0,0.53s-0.384,0.146-0.53,0s-0.146-0.384,0-0.53C7.465,7.588,7.702,7.588,7.849,7.735"/>
		<path fill="none" stroke="#323232" stroke-width="1.5" stroke-linecap="round" stroke-linejoin="round" d="M12.265,7.735
			c0.146,0.146,0.146,0.384,0,0.53s-0.384,0.146-0.53,0s-0.146-0.384,0-0.53C11.881,7.588,12.119,7.588,12.265,7.735"/>
		<path fill="none" stroke="#323232" stroke-width="1.5" stroke-linecap="round" stroke-linejoin="round" d="M16.682,7.735
			c0.146,0.146,0.146,0.384,0,0.53s-0.384,0.146-0.53,0s-0.146-0.384,0-0.53C16.298,7.588,16.535,7.588,16.682,7.735"/>
		<path fill="none" stroke="#323232" stroke-width="1.5" stroke-linecap="round" stroke-linejoin="round" d="M9,13H5
			c-1.105,0-2-0.895-2-2V5c0-1.105,0.895-2,2-2h14c1.105,0,2,0.895,2,2v3"/>
		<path fill="none" stroke="#323232" stroke-width="1.5" stroke-linecap="round" stroke-linejoin="round" d="M12.435,17.189
			c0,1.815,2.542,3.163,3.709,3.687c0.368,0.165,0.779,0.165,1.147,0C18.458,20.352,21,19.004,21,17.189v-3.192
			c0-0.602-0.378-1.139-0.944-1.343l-2.179-0.784c-0.75-0.27-1.572-0.27-2.322,0l-2.176,0.783c-0.566,0.204-0.944,0.741-0.944,1.343
			V17.189z"/>
	</g>
</g>
</svg>
