<svg id="Layer_3" data-name="Layer 3" xmlns="http://www.w3.org/2000/svg" viewBox="0 0 24 24"><title>shield-protected-circle</title><path d="M8,12.069V9.9375A1,1,0,0,1,8.70173,8.983l3-.9375a1,1,0,0,1,.59654,0l3,.9375A1,1,0,0,1,16,9.9375V12.069a5,5,0,0,1-3.24438,4.68164l-.58006.21752a.5.5,0,0,1-.35112,0l-.58006-.21752A5,5,0,0,1,8,12.069Z" fill="none" stroke="#323232" stroke-linecap="round" stroke-linejoin="round" stroke-width="1.5"/><circle cx="12" cy="12" r="9" fill="none" stroke="#323232" stroke-linecap="round" stroke-linejoin="round" stroke-width="1.5"/><path d="M0,0H24V24H0Z" fill="none"/></svg>