<?xml version="1.0" encoding="utf-8"?>
<!-- Generator: Adobe Illustrator 24.0.2, SVG Export Plug-In . SVG Version: 6.00 Build 0)  -->
<svg version="1.1" id="Layer_3" xmlns="http://www.w3.org/2000/svg" xmlns:xlink="http://www.w3.org/1999/xlink" x="0px" y="0px"
	 width="24px" height="24px" viewBox="0 0 24 24" enable-background="new 0 0 24 24" xml:space="preserve">
<g>
	<path fill="none" d="M0,0h24v24H0V0z"/>
	<g>
		<path fill="none" stroke="#323232" stroke-width="1.5" stroke-linecap="round" stroke-linejoin="round" d="M13,21h4.714
			c1.105,0,2-0.895,2-2V4c0-0.552-0.448-1-1-1h-1.857c-0.552,0-1,0.448-1,1v2.306"/>
		<path fill="none" stroke="#323232" stroke-width="1.5" stroke-linecap="round" stroke-linejoin="round" d="M3,10.714l7.698-6.598
			c0.749-0.642,1.854-0.642,2.603,0L21,10.714"/>
		<path fill="none" stroke="#323232" stroke-width="1.5" stroke-linecap="round" stroke-linejoin="round" d="M3,18.949
			c0,1.453,2.035,2.533,2.969,2.952c0.295,0.132,0.623,0.132,0.918,0c0.934-0.419,2.969-1.499,2.969-2.952v-3.084
			c0-0.482-0.302-0.912-0.756-1.075l-1.745-0.627c-0.601-0.216-1.258-0.216-1.859,0l-1.742,0.627C3.302,14.953,3,15.383,3,15.865
			V18.949z"/>
	</g>
</g>
</svg>
