<svg id="Layer_3" data-name="Layer 3" xmlns="http://www.w3.org/2000/svg" viewBox="0 0 24 24"><title>shield-legal-law-circle</title><path d="M0,0H24V24H0Z" fill="none"/><path d="M8,13.19c0,1.7,2.374,2.955,3.465,3.444a1.292,1.292,0,0,0,1.071,0C13.626,16.145,16,14.885,16,13.19V9.926a1.335,1.335,0,0,0-.881-1.255l-2.036-.732a3.206,3.206,0,0,0-2.169,0L8.88,8.671A1.338,1.338,0,0,0,8,9.927Z" fill="none" stroke="#323232" stroke-linecap="round" stroke-linejoin="round" stroke-width="1.5"/><path d="M21,12h0a9,9,0,0,1-9,9h0a9,9,0,0,1-9-9v0a9,9,0,0,1,9-9h0A9,9,0,0,1,21,12Z" fill="none" stroke="#323232" stroke-linecap="round" stroke-linejoin="round" stroke-width="1.5"/></svg>