<?xml version="1.0" encoding="utf-8"?>
<!-- Generator: Adobe Illustrator 24.0.2, SVG Export Plug-In . SVG Version: 6.00 Build 0)  -->
<svg version="1.1" id="Layer_3" xmlns="http://www.w3.org/2000/svg" xmlns:xlink="http://www.w3.org/1999/xlink" x="0px" y="0px"
	 width="24px" height="24px" viewBox="0 0 24 24" enable-background="new 0 0 24 24" xml:space="preserve">
<g>
	<path fill="none" d="M0,0h24v24H0V0z"/>
	<g>
		
			<line fill="none" stroke="#323232" stroke-width="1.5" stroke-linecap="round" stroke-linejoin="round" x1="8.5" y1="9.5" x2="15.5" y2="9.5"/>
		
			<line fill="none" stroke="#323232" stroke-width="1.5" stroke-linecap="round" stroke-linejoin="round" x1="8.5" y1="13.5" x2="15.5" y2="13.5"/>
		<g>
			<path fill="none" stroke="#323232" stroke-width="1.5" stroke-linecap="round" stroke-linejoin="round" d="M20,11.242
				c0,4.368-3.157,8.462-7.48,9.686c-0.338,0.096-0.702,0.096-1.04,0C7.157,19.705,4,15.61,4,11.242V7.214
				C4,6.402,4.491,5.67,5.243,5.363l4.864-1.99c1.214-0.497,2.574-0.497,3.787,0l4.864,1.99C19.509,5.67,20,6.402,20,7.214V11.242z"
				/>
		</g>
	</g>
</g>
</svg>
