<?xml version="1.0" encoding="utf-8"?>
<!-- Generator: Adobe Illustrator 24.0.2, SVG Export Plug-In . SVG Version: 6.00 Build 0)  -->
<svg version="1.1" id="Layer_3" xmlns="http://www.w3.org/2000/svg" xmlns:xlink="http://www.w3.org/1999/xlink" x="0px" y="0px"
	 width="24px" height="24px" viewBox="0 0 24 24" enable-background="new 0 0 24 24" xml:space="preserve">
<g>
	<g>
		<path fill="none" stroke="#323232" stroke-width="1.5" stroke-linecap="round" stroke-linejoin="round" d="M6.722,19.278
			C6.146,18.861,5.621,18.38,5.16,17.84"/>
		<path fill="none" stroke="#323232" stroke-width="1.5" stroke-linecap="round" stroke-linejoin="round" d="M3.523,9
			c0.561-1.583,1.545-2.965,2.826-4"/>
		<path fill="none" stroke="#323232" stroke-width="1.5" stroke-linecap="round" stroke-linejoin="round" d="M3,12
			c0,1.054,0.19,2.06,0.523,3"/>
		<path fill="none" stroke="#323232" stroke-width="1.5" stroke-linecap="round" stroke-linejoin="round" d="M18.365,3.913
			c0.932,0,1.688,0.756,1.688,1.688s-0.756,1.688-1.688,1.688s-1.688-0.756-1.688-1.688C16.678,4.669,17.434,3.913,18.365,3.913"/>
		<path fill="none" stroke="#323232" stroke-width="1.5" stroke-linecap="round" stroke-linejoin="round" d="M17.053,4.553
			C15.612,3.573,13.873,3,12,3c-0.912,0-1.791,0.138-2.62,0.39"/>
		<path fill="none" stroke="#323232" stroke-width="1.5" stroke-linecap="round" stroke-linejoin="round" d="M9.38,20.61
			C10.209,20.862,11.088,21,12,21c4.971,0,9-4.029,9-9c0-0.543-0.056-1.072-0.148-1.588"/>
		<path fill="none" stroke="#323232" stroke-width="1.5" stroke-linecap="round" stroke-linejoin="round" d="M15,13.25
			C15,14.9,12,16,12,16s-3-1.1-3-2.75V9.929l2.186-0.787c0.526-0.189,1.1-0.189,1.626,0L15,9.929C15,9.929,15,13.25,15,13.25z"/>
	</g>
	<g>
		<path id="a_12_" fill="none" d="M0,0h24v24H0V0z"/>
	</g>
	<g>
		<path id="a_11_" fill="none" d="M0,0h24v24H0V0z"/>
	</g>
</g>
</svg>
