<?xml version="1.0" encoding="utf-8"?>
<!-- Generator: Adobe Illustrator 23.1.0, SVG Export Plug-In . SVG Version: 6.00 Build 0)  -->
<svg version="1.1" id="icons" xmlns="http://www.w3.org/2000/svg" xmlns:xlink="http://www.w3.org/1999/xlink" x="0px" y="0px"
	 width="24px" height="24px" viewBox="0 0 24 24" enable-background="new 0 0 24 24" xml:space="preserve">
<g>
	<g>
		<path fill="none" stroke="#323232" stroke-width="1.5" stroke-linecap="round" stroke-linejoin="round" d="M19.583,4.406
			c0.66,0.659,0.66,1.728,0,2.387c-0.66,0.659-1.729,0.659-2.389,0c-0.66-0.659-0.66-1.728,0-2.387
			C17.854,3.747,18.923,3.747,19.583,4.406"/>
	</g>
	<g>
		<path fill="none" stroke="#323232" stroke-width="1.5" stroke-linecap="round" stroke-linejoin="round" d="M4.431,19.594
			c-0.66-0.659-0.66-1.728,0-2.387c0.66-0.659,1.729-0.659,2.389,0c0.66,0.659,0.66,1.728,0,2.387
			C6.16,20.253,5.09,20.253,4.431,19.594"/>
	</g>
	<path fill="none" stroke="#323232" stroke-width="1.5" stroke-linecap="round" stroke-linejoin="round" d="M6.941,19.448
		c3.506,2.382,8.318,2.024,11.427-1.082c1.759-1.758,2.639-4.062,2.639-6.366c0-0.532-0.032-1.063-0.126-1.588"/>
	<path fill="none" stroke="#323232" stroke-width="1.5" stroke-linecap="round" stroke-linejoin="round" d="M3.133,13.588
		C3.039,13.063,3.007,12.532,3.007,12c0-2.304,0.88-4.608,2.639-6.366c3.108-3.106,7.921-3.464,11.427-1.082"/>
	<path fill="none" stroke="#323232" stroke-width="1.5" stroke-linecap="round" stroke-linejoin="round" d="M12,15.75
		c0,0,3-1.439,3-3.597V9.679l-2.188-0.787c-0.526-0.189-1.1-0.189-1.626,0L9,9.679v2.474C9,14.311,12,15.75,12,15.75z"/>
</g>
<path fill="none" d="M0,0h24v24H0V0z"/>
</svg>
