<svg id="Layer_3" data-name="Layer 3" xmlns="http://www.w3.org/2000/svg" viewBox="0 0 24 24"><title>shield-protected-square</title><path d="M24,24H0V0H24Z" fill="none"/><path d="M7.99794,11.569V9.4375A1,1,0,0,1,8.69967,8.483l3-.9375a1.00005,1.00005,0,0,1,.59655,0l3,.9375a1,1,0,0,1,.70172.95448V11.569a5,5,0,0,1-3.24438,4.68164l-.58.21752a.5.5,0,0,1-.35113,0l-.58-.21752A5,5,0,0,1,7.99794,11.569Z" fill="none" stroke="#323232" stroke-linecap="round" stroke-linejoin="round" stroke-width="1.5"/><rect x="2.9" y="3.00138" width="18" height="18" rx="5" stroke-width="1.5" stroke="#323232" stroke-linecap="round" stroke-linejoin="round" fill="none"/></svg>