<?xml version="1.0" encoding="utf-8"?>
<!-- Generator: Adobe Illustrator 24.0.2, SVG Export Plug-In . SVG Version: 6.00 Build 0)  -->
<svg version="1.1" id="Layer_3" xmlns="http://www.w3.org/2000/svg" xmlns:xlink="http://www.w3.org/1999/xlink" x="0px" y="0px"
	 width="24px" height="24px" viewBox="0 0 24 24" enable-background="new 0 0 24 24" xml:space="preserve">
<g>
	<path fill="none" d="M0,0h24v24H0V0z"/>
	<g>
		<g>
			<path fill="none" stroke="#323232" stroke-width="1.5" stroke-linecap="round" stroke-linejoin="round" d="M18.239,18.451
				L5.535,5.747"/>
			<path fill="none" stroke="#323232" stroke-width="1.5" stroke-linecap="round" stroke-linejoin="round" d="M15.031,15.243
				c-0.707,0.925-1.703,1.641-2.861,1.968c-0.179,0.051-0.374,0.051-0.553,0c-2.302-0.651-3.983-2.831-3.983-5.157V9.494
				c0-0.432,0.262-0.822,0.661-0.986"/>
		</g>
		<circle fill="none" stroke="#323232" stroke-width="1.5" stroke-linecap="round" stroke-linejoin="round" cx="12" cy="12" r="9"/>
		<path fill="none" stroke="#323232" stroke-width="1.5" stroke-linecap="round" stroke-linejoin="round" d="M16.153,12.055V9.494
			c0-0.432-0.262-0.822-0.661-0.986l-2.589-1.059c-0.646-0.264-1.37-0.264-2.017,0"/>
	</g>
</g>
</svg>
