<svg id="Layer_3" data-name="Layer 3" xmlns="http://www.w3.org/2000/svg" viewBox="0 0 24 24"><title>shirt_1</title><rect width="24" height="24" fill="none"/><path d="M12.66669,6.88892l2.38463.79485a1,1,0,0,0,1.26491-.63245L17,5,15.58579,3.58579A2,2,0,0,0,14.17157,3H9.82843a2,2,0,0,0-1.41422.58579L7,5l.68377,2.05132a1.00009,1.00009,0,0,0,1.2649.63252l2.38464-.79492" fill="none" stroke="#323232" stroke-linecap="round" stroke-linejoin="round" stroke-width="1.5"/><line x1="12" y1="8" x2="12" y2="22" fill="none" stroke="#323232" stroke-linecap="round" stroke-linejoin="round" stroke-width="1.5"/><path d="M17.9875,12l.00011,7.54307a1.97443,1.97443,0,0,1-1.45368,1.92634,19.7435,19.7435,0,0,1-9.09284,0,1.97444,1.97444,0,0,1-1.4537-1.92634L5.9875,12" fill="none" stroke="#323232" stroke-linecap="round" stroke-linejoin="round" stroke-width="1.5"/><path d="M6.99971,5l-2.01719.67239a2,2,0,0,0-1.2822,1.31938L2.17068,12.05892a3.99987,3.99987,0,0,0-.09961,1.90664l.80667,4.2221A1,1,0,0,0,3.86,19H5.99971" fill="none" stroke="#323232" stroke-linecap="round" stroke-linejoin="round" stroke-width="1.5"/><path d="M17.00029,5l2.01719.67239a2,2,0,0,1,1.2822,1.31938l1.52964,5.06715a3.99987,3.99987,0,0,1,.09961,1.90664l-.80667,4.2221A1,1,0,0,1,20.14,19H18.00029" fill="none" stroke="#323232" stroke-linecap="round" stroke-linejoin="round" stroke-width="1.5"/><polyline points="9.079 3.131 12 8 14.921 3.131" fill="none" stroke="#323232" stroke-linecap="round" stroke-linejoin="round" stroke-width="1.5"/><rect width="24" height="24" transform="translate(24 24) rotate(-180)" fill="none"/></svg>