<svg id="Layer_3" data-name="Layer 3" xmlns="http://www.w3.org/2000/svg" viewBox="0 0 24 24"><title>shirt</title><rect width="24" height="24" fill="none"/><path d="M12,9l-3.02986.75746a1,1,0,0,1-1.21268-.7276L7.14125,6.565a2,2,0,0,1,.04292-1.11752l.58791-1.76372A1,1,0,0,1,8.72076,3h6.55848a1,1,0,0,1,.94868.68377l.68,2.04a.99991.99991,0,0,1,.02146.55877l-.68683,2.74735a1,1,0,0,1-1.21268.7276Z" fill="none" stroke="#323232" stroke-linecap="round" stroke-linejoin="round" stroke-width="1.5"/><path d="M7.08232,6H6A3,3,0,0,0,3,9v9a3,3,0,0,0,3,3H18a3,3,0,0,0,3-3V9a3,3,0,0,0-3-3H16.95923" fill="none" stroke="#323232" stroke-linecap="round" stroke-linejoin="round" stroke-width="1.5"/><line x1="15.5" y1="14" x2="17.5" y2="14" fill="none" stroke="#323232" stroke-linecap="round" stroke-linejoin="round" stroke-width="1.5"/><polyline points="15.87 3.195 12 9 8.13 3.195" fill="none" stroke="#323232" stroke-linecap="round" stroke-linejoin="round" stroke-width="1.5"/><line x1="12.02038" y1="21" x2="12.02038" y2="9" fill="none" stroke="#323232" stroke-linecap="round" stroke-linejoin="round" stroke-width="1.5"/></svg>