<svg id="Layer_3" data-name="Layer 3" xmlns="http://www.w3.org/2000/svg" viewBox="0 0 24 24"><path d="M24,0H0V24H24Z" fill="none"/><path d="M6,10V8.625a2,2,0,0,1,2-2H19a2,2,0,0,1,2,2V19a2,2,0,0,1-2,2H12" fill="none" stroke="#323232" stroke-linecap="round" stroke-linejoin="round" stroke-width="1.5"/><path d="M6.73826,13.76208a.82128.82128,0,0,0-1.47326,0l-.6003,1.21708a.81688.81688,0,0,1-.61789.44858l-1.34462.2001a.82129.82129,0,0,0-.45407,1.40069l.97191.94773a.81578.81578,0,0,1,.23528.72673l-.22868,1.33693a.82018.82018,0,0,0,1.1907.86526l1.20059-.63108a.81688.81688,0,0,1,.76962,0l1.19949.63108a.82018.82018,0,0,0,1.1907-.86526L8.54905,18.703a.819.819,0,0,1,.23528-.72673l.96751-.94773a.82128.82128,0,0,0-.453-1.40069l-1.34352-.2001a.8169.8169,0,0,1-.61789-.44858Z" fill="none" stroke="#323232" stroke-linecap="round" stroke-linejoin="round" stroke-width="1.5"/><path d="M13.5,2.375h0a3.5,3.5,0,0,1,3.5,3.5h0v.75H10v-.75A3.5,3.5,0,0,1,13.5,2.375Z" fill="none" stroke="#323232" stroke-linecap="round" stroke-linejoin="round" stroke-width="1.5"/></svg>