<?xml version="1.0" encoding="utf-8"?>
<!-- Generator: Adobe Illustrator 23.0.3, SVG Export Plug-In . SVG Version: 6.00 Build 0)  -->
<svg version="1.1" id="Layer_1" xmlns="http://www.w3.org/2000/svg" xmlns:xlink="http://www.w3.org/1999/xlink" x="0px" y="0px"
	 width="24px" height="24px" viewBox="0 0 24 24" enable-background="new 0 0 24 24" xml:space="preserve">
<g>
	<g>
		<path fill="none" stroke="#323232" stroke-width="1.5" stroke-linecap="round" stroke-linejoin="round" d="M17.698,6.302
			l-0.633-2.72l-2.879,0.256L12.004,2L9.829,3.838L6.943,3.582l-0.641,2.72l-2.72,0.633l0.256,2.879L2,11.996l1.838,2.175
			l-0.256,2.886l2.72,0.641l0.633,2.72l2.879-0.256L11.996,22l2.175-1.838l2.886,0.256l0.641-2.72l2.72-0.633l-0.256-2.879
			L22,12.004l-1.838-2.175l0.256-2.886L17.698,6.302z"/>
		<path fill="none" stroke="#323232" stroke-width="1.5" stroke-linecap="round" stroke-linejoin="round" d="M9,15l6-6"/>
		<path fill="none" stroke="#323232" stroke-width="1.5" stroke-linecap="round" stroke-linejoin="round" d="M9.249,9
			C9.111,9,8.999,9.112,9,9.25C9,9.388,9.112,9.5,9.25,9.5S9.5,9.388,9.5,9.25S9.388,9,9.249,9"/>
		<path fill="none" stroke="#323232" stroke-width="1.5" stroke-linecap="round" stroke-linejoin="round" d="M14.749,14.5
			c-0.138,0-0.25,0.112-0.249,0.25c0,0.138,0.112,0.25,0.25,0.25S15,14.888,15,14.75S14.888,14.5,14.749,14.5"/>
	</g>
	<rect fill="none" width="24" height="24"/>
</g>
</svg>
