<svg id="Layer_3" data-name="Layer 3" xmlns="http://www.w3.org/2000/svg" viewBox="0 0 24 24"><path d="M6,11V8.625a2,2,0,0,1,2-2H19a2,2,0,0,1,2,2V19a2,2,0,0,1-2,2H13" fill="none" stroke="#323232" stroke-linecap="round" stroke-linejoin="round" stroke-width="1.5"/><path d="M13.5,2.375h0a3.5,3.5,0,0,1,3.5,3.5h0v.75H10v-.75A3.5,3.5,0,0,1,13.5,2.375Z" fill="none" stroke="#323232" stroke-linecap="round" stroke-linejoin="round" stroke-width="1.5"/><circle cx="7" cy="17.625" r="4" fill="none" stroke="#323232" stroke-linecap="round" stroke-linejoin="round" stroke-width="1.5"/><path d="M8.08622,17.58056a.04445.04445,0,1,0,.04445.04444h0a.04444.04444,0,0,0-.04445-.04444" fill="none" stroke="#323232" stroke-linecap="round" stroke-linejoin="round" stroke-width="1.5"/><path d="M5.91289,17.58056a.04355.04355,0,0,0-.04356.04355h0a.04445.04445,0,1,0,.04445-.04444h0" fill="none" stroke="#323232" stroke-linecap="round" stroke-linejoin="round" stroke-width="1.5"/><path d="M0,0H24V24H0Z" fill="none"/></svg>