<svg id="Layer_3" data-name="Layer 3" xmlns="http://www.w3.org/2000/svg" viewBox="0 0 24 24"><path d="M10.99994,21H6a2,2,0,0,1-2-2V8.625a2,2,0,0,1,2-2H17a2,2,0,0,1,2,2V11" fill="none" stroke="#323232" stroke-linecap="round" stroke-linejoin="round" stroke-width="1.5"/><path d="M15,5.875v.75H8v-.75H8a3.5,3.5,0,0,1,3.5-3.5h0A3.5,3.5,0,0,1,15,5.875Z" fill="none" stroke="#323232" stroke-linecap="round" stroke-linejoin="round" stroke-width="1.5"/><path d="M19.26762,18.26792a2.5,2.5,0,1,1,.0003-.0003l-.0003.0003" fill="none" stroke="#323232" stroke-linecap="round" stroke-linejoin="round" stroke-width="1.5"/><path d="M14,20l1.73223-1.73223" fill="none" stroke="#323232" stroke-linecap="round" stroke-linejoin="round" stroke-width="1.5"/><path d="M0,0H24V24H0Z" fill="none"/></svg>