<svg id="Layer_3" data-name="Layer 3" xmlns="http://www.w3.org/2000/svg" viewBox="0 0 24 24"><path d="M12,15.6v3.6A1.80014,1.80014,0,0,0,13.8,21h5.4A1.80014,1.80014,0,0,0,21,19.2V15.6a1.80014,1.80014,0,0,0-1.8-1.8H13.8A1.80014,1.80014,0,0,0,12,15.6Z" fill="none" stroke="#323232" stroke-linecap="round" stroke-linejoin="round" stroke-width="1.5"/><path d="M21,17H12" fill="none" stroke="#323232" stroke-linecap="round" stroke-linejoin="round" stroke-width="1.5"/><path d="M18,11V8.625a2,2,0,0,0-2-2H5a2,2,0,0,0-2,2V19a2,2,0,0,0,2,2H9" fill="none" stroke="#323232" stroke-linecap="round" stroke-linejoin="round" stroke-width="1.5"/><path d="M10.5,2.375h0A3.5,3.5,0,0,0,7,5.875H7v.75h7v-.75A3.5,3.5,0,0,0,10.5,2.375Z" fill="none" stroke="#323232" stroke-linecap="round" stroke-linejoin="round" stroke-width="1.5"/><path d="M24,0H0V24H24Z" fill="none"/></svg>