<svg id="Layer_3" data-name="Layer 3" xmlns="http://www.w3.org/2000/svg" viewBox="0 0 24 24"><title>shorts</title><line x1="10" y1="6.99994" x2="10" y2="9.99994" fill="none" stroke="#323232" stroke-linecap="round" stroke-linejoin="round" stroke-width="1.5"/><line x1="3.76301" y1="7" x2="20.23699" y2="7" fill="none" stroke="#323232" stroke-linecap="round" stroke-linejoin="round" stroke-width="1.5"/><path d="M9.15287,21H4a1,1,0,0,1-.99828-1.05872l.88235-15A1,1,0,0,1,4.88239,4H19.11761a1,1,0,0,1,.99828.94128l.88235,15A1,1,0,0,1,20,21H14.84708a.99531.99531,0,0,1-.98564-.83111c-.20273-1.216-.57917-3.47419-.79265-4.75581A.495.495,0,0,0,12.57638,15H11.42356a.5.5,0,0,0-.49319.4178l-.7911,4.74659A1,1,0,0,1,9.15287,21Z" fill="none" stroke="#323232" stroke-linecap="round" stroke-linejoin="round" stroke-width="1.5"/><line x1="14" y1="6.99994" x2="14" y2="9.99994" fill="none" stroke="#323232" stroke-linecap="round" stroke-linejoin="round" stroke-width="1.5"/><rect width="24" height="24" transform="translate(24 24) rotate(-180)" fill="none"/></svg>