<svg id="Layer_3" data-name="Layer 3" xmlns="http://www.w3.org/2000/svg" viewBox="0 0 24 24"><title>sign-checkmark</title><path d="M0,0H24V24H0Z" fill="none"/><path d="M19,21H5a2,2,0,0,1-2-2V13a2,2,0,0,1,2-2H19a2,2,0,0,1,2,2v6A2,2,0,0,1,19,21Z" fill="none" stroke="#323232" stroke-linecap="round" stroke-linejoin="round" stroke-width="1.5"/><path d="M12,3a2,2,0,1,1-2,2,2,2,0,0,1,2-2" fill="none" stroke="#323232" stroke-linecap="round" stroke-linejoin="round" stroke-width="1.5"/><line x1="10.577" y1="6.403" x2="5.98" y2="11" fill="none" stroke="#323232" stroke-linecap="round" stroke-linejoin="round" stroke-width="1.5"/><line x1="18" y1="10.98" x2="13.423" y2="6.403" fill="none" stroke="#323232" stroke-linecap="round" stroke-linejoin="round" stroke-width="1.5"/><path d="M13.681,15.01l-2.1,2.1L10.319,15.85" fill="none" stroke="#323232" stroke-linecap="round" stroke-linejoin="round" stroke-width="1.5"/></svg>