<?xml version="1.0" encoding="utf-8"?>
<!-- Generator: Adobe Illustrator 24.0.2, SVG Export Plug-In . SVG Version: 6.00 Build 0)  -->
<svg version="1.1" id="Layer_1" xmlns="http://www.w3.org/2000/svg" xmlns:xlink="http://www.w3.org/1999/xlink" x="0px" y="0px"
	 width="24px" height="24px" viewBox="0 0 24 24" enable-background="new 0 0 24 24" xml:space="preserve">
<g>
	<path fill="none" d="M0,0h24v24H0V0z"/>
	<g>
		<path fill="none" stroke="#323232" stroke-width="1.5" stroke-linecap="round" stroke-linejoin="round" d="M19,21H5
			c-1.105,0-2-0.895-2-2v-6c0-1.105,0.895-2,2-2h14c1.105,0,2,0.895,2,2v6.001C21,20.105,20.105,21,19,21z"/>
		<path fill="none" stroke="#323232" stroke-width="1.5" stroke-linecap="round" stroke-linejoin="round" d="M13.5,14.5l-3,3"/>
		<path fill="none" stroke="#323232" stroke-width="1.5" stroke-linecap="round" stroke-linejoin="round" d="M10.5,14.5l3,3"/>
		<path fill="none" stroke="#323232" stroke-width="1.5" stroke-linecap="round" stroke-linejoin="round" d="M12,3
			c1.105,0,2,0.895,2,2c0,1.105-0.895,2-2,2c-1.105,0-2-0.895-2-2C10,3.895,10.895,3,12,3"/>
		
			<line fill="none" stroke="#323232" stroke-width="1.5" stroke-linecap="round" stroke-linejoin="round" x1="10.577" y1="6.403" x2="5.98" y2="11"/>
		
			<line fill="none" stroke="#323232" stroke-width="1.5" stroke-linecap="round" stroke-linejoin="round" x1="18" y1="10.98" x2="13.423" y2="6.403"/>
	</g>
</g>
</svg>
