<svg id="Layer_3" data-name="Layer 3" xmlns="http://www.w3.org/2000/svg" viewBox="0 0 24 24"><path d="M12.06378,14.86935a.09722.09722,0,1,0,.09722.09722.09722.09722,0,0,0-.09722-.09722" fill="none" stroke="#323232" stroke-linecap="round" stroke-linejoin="round" stroke-width="1.5"/><path d="M13.736,10.49435c0,1.16667-1.67222,1.55555-1.67222,2.33333" fill="none" stroke="#323232" stroke-linecap="round" stroke-linejoin="round" stroke-width="1.5"/><path d="M10.264,10.49435A1.65323,1.65323,0,0,1,12,8.93879a1.65323,1.65323,0,0,1,1.736,1.55556" fill="none" stroke="#323232" stroke-linecap="round" stroke-linejoin="round" stroke-width="1.5"/><rect x="4.20664" y="4.20664" width="15.58671" height="15.58671" rx="5" transform="translate(-4.97056 12) rotate(-45)" stroke-width="1.5" stroke="#323232" stroke-linecap="round" stroke-linejoin="round" fill="none"/><rect x="4.20664" y="4.20664" width="15.58671" height="15.58671" rx="5" transform="translate(-4.97056 12) rotate(-45)" stroke-width="1.5" stroke="#323232" stroke-linecap="round" stroke-linejoin="round" fill="none"/><path d="M0,0H24V24H0Z" fill="none"/></svg>