<svg id="Layer_3" data-name="Layer 3" xmlns="http://www.w3.org/2000/svg" viewBox="0 0 24 24"><title>slides-windows-circle</title><path d="M14,8.77l1.606-.688A1,1,0,0,1,17,9v6a1,1,0,0,1-1.275.962L14,15.468" fill="none" stroke="#323232" stroke-linecap="round" stroke-linejoin="round" stroke-width="1.5"/><path d="M14,16V8a1,1,0,0,0-1.394-.919l-5,2.143A1,1,0,0,0,7,10.144v4.427a1,1,0,0,0,.725.962l5,1.429A1,1,0,0,0,14,16Z" fill="none" stroke="#323232" stroke-linecap="round" stroke-linejoin="round" stroke-width="1.5"/><path d="M18.285,5.7a8.888,8.888,0,1,1-12.57,0,8.887,8.887,0,0,1,12.57,0" fill="none" stroke="#323232" stroke-linecap="round" stroke-linejoin="round" stroke-width="1.5"/><path d="M0,0H24V24H0Z" fill="none"/></svg>