<svg id="Layer_3" data-name="Layer 3" xmlns="http://www.w3.org/2000/svg" viewBox="0 0 24 24"><title>slim-waist</title><path d="M13.111,18.111h0A3.8,3.8,0,0,0,12,20.794V22" fill="none" stroke="#323232" stroke-linecap="round" stroke-linejoin="round" stroke-width="1.5"/><path d="M10.889,18.111h0A3.8,3.8,0,0,1,12,20.794V22" fill="none" stroke="#323232" stroke-linecap="round" stroke-linejoin="round" stroke-width="1.5"/><path d="M17.25,12.111a14.285,14.285,0,0,1-10.5,0" fill="none" stroke="#323232" stroke-linecap="round" stroke-linejoin="round" stroke-width="1.5"/><line x1="12" y1="9.778" x2="12" y2="9.778" fill="none" stroke="#323232" stroke-linecap="round" stroke-linejoin="round" stroke-width="1.5"/><line x1="19" y1="8.5" x2="22" y2="8.5" fill="none" stroke="#323232" stroke-linecap="round" stroke-linejoin="round" stroke-width="1.5"/><polyline points="20.5 10 19 8.5 20.5 7" fill="none" stroke="#323232" stroke-linecap="round" stroke-linejoin="round" stroke-width="1.5"/><line x1="5" y1="8.5" x2="2" y2="8.5" fill="none" stroke="#323232" stroke-linecap="round" stroke-linejoin="round" stroke-width="1.5"/><polyline points="3.5 7 5 8.5 3.5 10" fill="none" stroke="#323232" stroke-linecap="round" stroke-linejoin="round" stroke-width="1.5"/><path d="M17.556,2l-.6,1.658a11.016,11.016,0,0,0,.5,8.692h0a11.017,11.017,0,0,1,.213,9.4l-.11.249" fill="none" stroke="#323232" stroke-linecap="round" stroke-linejoin="round" stroke-width="1.5"/><path d="M6.444,2l.6,1.658a11.016,11.016,0,0,1-.5,8.692h0a11.017,11.017,0,0,0-.213,9.4l.11.249" fill="none" stroke="#323232" stroke-linecap="round" stroke-linejoin="round" stroke-width="1.5"/><line x1="7.511" y1="5.333" x2="16.489" y2="5.333" fill="none" stroke="#323232" stroke-linecap="round" stroke-linejoin="round" stroke-width="1.5"/><rect width="24" height="24" fill="none"/></svg>