<?xml version="1.0" encoding="utf-8"?>
<!-- Generator: Adobe Illustrator 24.0.2, SVG Export Plug-In . SVG Version: 6.00 Build 0)  -->
<svg version="1.1" id="Layer_3" xmlns="http://www.w3.org/2000/svg" xmlns:xlink="http://www.w3.org/1999/xlink" x="0px" y="0px"
	 width="24px" height="24px" viewBox="0 0 24 24" enable-background="new 0 0 24 24" xml:space="preserve">
<g>
	<g>
		<path fill="none" stroke="#323232" stroke-width="1.5" stroke-linecap="round" stroke-linejoin="round" d="M12,21h6
			c1.657,0,3-1.343,3-3v-7.333c0-0.926-0.427-1.8-1.158-2.368l-6-4.667c-1.083-0.843-2.6-0.843-3.684,0l-6,4.667
			C3.427,8.867,3,9.741,3,10.667V12"/>
		<g>
			
				<path fill="none" stroke="#323232" stroke-width="1.5" stroke-linecap="round" stroke-linejoin="round" stroke-miterlimit="10" d="
				M3.225,20.55c0.124,0,0.225,0.102,0.225,0.225C3.449,20.899,3.348,21,3.225,21C3.101,21,3,20.899,3.001,20.775
				C3,20.651,3.1,20.55,3.225,20.55"/>
			
				<path fill="none" stroke="#323232" stroke-width="1.5" stroke-linecap="round" stroke-linejoin="round" stroke-miterlimit="10" d="
				M3,18c1.756,0.039,2.961,1.244,3,3"/>
			
				<path fill="none" stroke="#323232" stroke-width="1.5" stroke-linecap="round" stroke-linejoin="round" stroke-miterlimit="10" d="
				M9,21c-0.009-0.759-0.137-1.47-0.367-2.121c-0.588-1.665-1.847-2.924-3.513-3.513C4.47,15.137,3.759,15.009,3,15"/>
		</g>
	</g>
	<rect id="_Transparent_Rectangle__52_" y="0" fill="none" width="24" height="24"/>
</g>
</svg>
