<?xml version="1.0" encoding="utf-8"?>
<!-- Generator: Adobe Illustrator 24.0.2, SVG Export Plug-In . SVG Version: 6.00 Build 0)  -->
<svg version="1.1" id="Layer_3" xmlns="http://www.w3.org/2000/svg" xmlns:xlink="http://www.w3.org/1999/xlink" x="0px" y="0px"
	 width="24px" height="24px" viewBox="0 0 24 24" enable-background="new 0 0 24 24" xml:space="preserve">
<g>
	<g>
		<path fill="none" stroke="#323232" stroke-width="1.5" d="M19.842,8.299l-6-4.667c-1.083-0.843-2.6-0.843-3.684,0l-6,4.667
			C3.427,8.867,3,9.741,3,10.667V18c0,1.657,1.343,3,3,3h12c1.657,0,3-1.343,3-3v-7.333C21,9.741,20.573,8.867,19.842,8.299z"/>
		<path fill="none" stroke="#323232" stroke-width="1.5" stroke-linecap="round" stroke-linejoin="round" d="M12,16.912
			c0.168,0,0.305,0.132,0.305,0.294c0,0.162-0.137,0.294-0.305,0.294s-0.305-0.132-0.305-0.294
			C11.695,17.044,11.832,16.912,12,16.912"/>
		<path fill="none" stroke="#323232" stroke-width="1.5" stroke-linecap="round" stroke-linejoin="round" d="M16.875,11.581
			c-2.843-2.219-6.907-2.219-9.75,0"/>
		<path fill="none" stroke="#323232" stroke-width="1.5" stroke-linecap="round" stroke-linejoin="round" d="M9.157,14.42
			c1.658-1.293,4.028-1.293,5.687,0"/>
	</g>
	<path fill="none" d="M0,0h24v24H0V0z"/>
</g>
</svg>
