<?xml version="1.0" encoding="utf-8"?>
<!-- Generator: Adobe Illustrator 24.0.2, SVG Export Plug-In . SVG Version: 6.00 Build 0)  -->
<svg version="1.1" id="Layer_3" xmlns="http://www.w3.org/2000/svg" xmlns:xlink="http://www.w3.org/1999/xlink" x="0px" y="0px"
	 width="24px" height="24px" viewBox="0 0 24 24" enable-background="new 0 0 24 24" xml:space="preserve">
<g>
	<g>
		<path fill="none" stroke="#323232" stroke-width="1.5" stroke-linecap="round" stroke-linejoin="round" d="M13.574,3.145
			C13.062,3.056,12.538,3,12,3s-1.062,0.056-1.574,0.145"/>
		<path fill="none" stroke="#323232" stroke-width="1.5" stroke-linecap="round" stroke-linejoin="round" d="M20.518,8.973
			c0.353,0.969,0.555,2.01,0.555,3.1"/>
		<path fill="none" stroke="#323232" stroke-width="1.5" stroke-linecap="round" stroke-linejoin="round" d="M18.948,6.243
			c-0.678-0.807-1.497-1.49-2.415-2.021"/>
		<path fill="none" stroke="#323232" stroke-width="1.5" stroke-linecap="round" stroke-linejoin="round" d="M7.467,4.222
			C6.549,4.753,5.731,5.436,5.052,6.243"/>
		<path fill="none" stroke="#323232" stroke-width="1.5" stroke-linecap="round" stroke-linejoin="round" d="M2.927,12.073
			c0-1.091,0.202-2.132,0.555-3.1"/>
		<path fill="none" stroke="#323232" stroke-width="1.5" stroke-linecap="round" stroke-linejoin="round" d="M7.467,19.924
			c0.9,0.521,1.897,0.89,2.959,1.076"/>
		<path fill="none" stroke="#323232" stroke-width="1.5" stroke-linecap="round" stroke-linejoin="round" d="M3.482,15.173
			c0.366,1.004,0.896,1.927,1.57,2.73"/>
		<path fill="none" stroke="#323232" stroke-width="1.5" stroke-linecap="round" stroke-linejoin="round" d="M13.574,21
			c1.062-0.186,2.058-0.555,2.959-1.076"/>
		<path fill="none" stroke="#323232" stroke-width="1.5" stroke-linecap="round" stroke-linejoin="round" d="M18.948,17.903
			c0.674-0.803,1.204-1.726,1.57-2.73"/>
		<path fill="none" stroke="#323232" stroke-width="1.5" stroke-linecap="round" stroke-linejoin="round" d="M14.986,10.577
			l-2.519-1.763c-0.28-0.196-0.654-0.196-0.934,0l-2.518,1.762c-0.218,0.152-0.347,0.402-0.347,0.667v3.274
			c0,0.45,0.365,0.815,0.815,0.815h5.037c0.45,0,0.815-0.365,0.815-0.815v-3.274C15.333,10.978,15.204,10.729,14.986,10.577z"/>
	</g>
	<rect id="_Transparent_Rectangle__53_" fill="none" width="24" height="24"/>
</g>
</svg>
