<svg id="Layer_3" data-name="Layer 3" xmlns="http://www.w3.org/2000/svg" viewBox="0 0 24 24"><title>smart-watch-square-graph_1</title><path d="M0,0H24V24H0Z" fill="none"/><path d="M0,0H24V24H0Z" fill="none"/><path d="M7.289,17.435l.73,2.817a2,2,0,0,0,1.936,1.5h4.089a2,2,0,0,0,1.936-1.5l.732-2.819" fill="none" stroke="#323232" stroke-linecap="round" stroke-linejoin="round" stroke-width="1.5"/><path d="M7.834,17.5h8.333A2.256,2.256,0,0,0,18.5,15.331V8.669A2.257,2.257,0,0,0,16.166,6.5H7.834A2.256,2.256,0,0,0,5.5,8.669V15.33A2.253,2.253,0,0,0,7.834,17.5Z" fill="none" stroke="#323232" stroke-linecap="round" stroke-linejoin="round" stroke-width="1.5"/><path d="M16.711,6.565l-.73-2.817a2,2,0,0,0-1.936-1.5H9.956a2,2,0,0,0-1.936,1.5L7.288,6.566" fill="none" stroke="#323232" stroke-linecap="round" stroke-linejoin="round" stroke-width="1.5"/><path d="M8,12H9.778l1.333-2,1.778,4,1.333-2H16" fill="none" stroke="#323232" stroke-linecap="round" stroke-linejoin="round" stroke-width="1.5"/><rect width="24" height="24" fill="none"/></svg>