<?xml version="1.0" encoding="utf-8"?>
<!-- Generator: Adobe Illustrator 24.0.2, SVG Export Plug-In . SVG Version: 6.00 Build 0)  -->
<svg version="1.1" id="Layer_3" xmlns="http://www.w3.org/2000/svg" xmlns:xlink="http://www.w3.org/1999/xlink" x="0px" y="0px"
	 width="24px" height="24px" viewBox="0 0 24 24" enable-background="new 0 0 24 24" xml:space="preserve">
<g>
	<g>
		<path fill="none" d="M0,0h24v24H0V0z"/>
		<path fill="none" stroke="#323232" stroke-width="1.5" stroke-linecap="round" stroke-linejoin="round" d="M8.07,8.07
			c2.171-2.171,5.69-2.171,7.86,0"/>
		<path fill="none" stroke="#323232" stroke-width="1.5" stroke-linecap="round" stroke-linejoin="round" d="M3.795,8.795
			c-1.232,3.159-0.577,6.884,1.974,9.435c3.441,3.441,9.02,3.441,12.461,0c2.551-2.551,3.206-6.276,1.974-9.435"/>
		<path fill="none" stroke="#323232" stroke-width="1.5" stroke-linecap="round" stroke-linejoin="round" d="M14.686,12.221
			l-2.267-1.587c-0.252-0.176-0.589-0.176-0.841,0L9.312,12.22C9.116,12.357,9,12.582,9,12.82v2.946C9,16.172,9.328,16.5,9.733,16.5
			h4.533c0.405,0,0.733-0.328,0.733-0.733V12.82C14.998,12.582,14.882,12.358,14.686,12.221z"/>
		<path fill="none" stroke="#323232" stroke-width="1.5" stroke-linecap="round" stroke-linejoin="round" d="M5.77,5.77
			c3.441-3.441,9.02-3.441,12.461,0"/>
	</g>
</g>
</svg>
