<?xml version="1.0" encoding="utf-8"?>
<!-- Generator: Adobe Illustrator 23.1.0, SVG Export Plug-In . SVG Version: 6.00 Build 0)  -->
<svg version="1.1" id="icons" xmlns="http://www.w3.org/2000/svg" xmlns:xlink="http://www.w3.org/1999/xlink" x="0px" y="0px"
	 width="24px" height="24px" viewBox="0 0 24 24" enable-background="new 0 0 24 24" xml:space="preserve">
<g>
	<rect fill="none" width="24" height="24"/>
	<g>
		
			<circle fill="none" stroke="#323232" stroke-width="1.5" stroke-linecap="round" stroke-linejoin="round" stroke-miterlimit="10" cx="12" cy="12" r="10"/>
		<path fill="none" stroke="#323232" stroke-width="1.5" stroke-linecap="round" stroke-linejoin="round" d="M15.255,9.225
			c0-1.797-1.457-3.255-3.255-3.255S8.745,7.427,8.745,9.225c0,2.849-0.142,4.273-2.745,5.412c1.333,0.588,1.333,0.588,2,2
			c2,0,2.667,1.333,4,1.333s2-1.333,4-1.333c0.667-1.412,0.667-1.412,2-2C15.396,13.497,15.255,12.073,15.255,9.225z"/>
		<path fill="none" stroke="#323232" stroke-width="1.5" stroke-linecap="round" stroke-linejoin="round" d="M6,14.637
			c2.667-1.412,2.667-2.745,0.667-4.745"/>
		<path fill="none" stroke="#323232" stroke-width="1.5" stroke-linecap="round" stroke-linejoin="round" d="M18,14.637
			c-2.667-1.412-2.667-2.745-0.667-4.745"/>
	</g>
</g>
</svg>
