<svg id="Layer_3" data-name="Layer 3" xmlns="http://www.w3.org/2000/svg" viewBox="0 0 24 24"><title>sneakers</title><rect width="24" height="24" fill="none"/><path d="M9.911,7.345H12l1.628-.992a1,1,0,0,1,1.469.538L17.4,13.8l3.24,4.32A1.8,1.8,0,0,1,19.2,21h-3.93a3.994,3.994,0,0,1-2.929-1.276L3.8,10.531a3,3,0,0,1,.247-4.317L7.47,3.281a1.159,1.159,0,0,1,1.913.88V7.345H12" fill="none" stroke="#323232" stroke-linecap="round" stroke-linejoin="round" stroke-width="1.5"/><line x1="3" y1="17.5" x2="5" y2="17.5" fill="none" stroke="#323232" stroke-linecap="round" stroke-linejoin="round" stroke-width="1.5"/><line x1="8" y1="21" x2="3" y2="21" fill="none" stroke="#323232" stroke-linecap="round" stroke-linejoin="round" stroke-width="1.5"/><path d="M20.547,18H15.523a2.981,2.981,0,0,1-2.194-.954L3.655,6.628" fill="none" stroke="#323232" stroke-linecap="round" stroke-linejoin="round" stroke-width="1.5"/><line x1="13" y1="13" x2="16.905" y2="12.324" fill="none" stroke="#323232" stroke-linecap="round" stroke-linejoin="round" stroke-width="1.5"/><line x1="12" y1="10.5" x2="16.064" y2="9.797" fill="none" stroke="#323232" stroke-linecap="round" stroke-linejoin="round" stroke-width="1.5"/></svg>