<svg id="Layer_3" data-name="Layer 3" xmlns="http://www.w3.org/2000/svg" viewBox="0 0 24 24"><title>soap-drop</title><path d="M15,3H9.828a2,2,0,0,0-1.414.586L8,4" fill="none" stroke="#323232" stroke-linecap="round" stroke-linejoin="round" stroke-width="1.5"/><path d="M14.5,9h-5V7a1,1,0,0,1,1-1h3a1,1,0,0,1,1,1Z" fill="none" stroke="#323232" stroke-linecap="round" stroke-linejoin="round" stroke-width="1.5"/><path d="M18,12.714A3.714,3.714,0,0,0,14.286,9H9.714A3.714,3.714,0,0,0,6,12.714V19a2,2,0,0,0,2,2h5" fill="none" stroke="#323232" stroke-linecap="round" stroke-linejoin="round" stroke-width="1.5"/><line x1="12" y1="3" x2="12" y2="6" fill="none" stroke="#323232" stroke-linecap="round" stroke-linejoin="round" stroke-width="1.5"/><path d="M18.316,15.948l1.261,1.687A2.1,2.1,0,0,1,17.9,21h0a2.1,2.1,0,0,1-1.683-3.365l1.262-1.687A.526.526,0,0,1,18.316,15.948Z" fill="none" stroke="#323232" stroke-linecap="round" stroke-linejoin="round" stroke-width="1.5"/><path d="M0,0H24V24H0Z" fill="none"/></svg>