<?xml version="1.0" encoding="utf-8"?>
<!-- Generator: Adobe Illustrator 24.0.2, SVG Export Plug-In . SVG Version: 6.00 Build 0)  -->
<svg version="1.1" id="Layer_1" xmlns="http://www.w3.org/2000/svg" xmlns:xlink="http://www.w3.org/1999/xlink" x="0px" y="0px"
	 width="24px" height="24px" viewBox="0 0 24 24" style="enable-background:new 0 0 24 24;" xml:space="preserve">
<style type="text/css">
	.st0{fill:none;}
	.st1{fill:none;stroke:#323232;stroke-width:1.5;stroke-linecap:round;stroke-linejoin:round;}
</style>
<g>
	<path class="st0" d="M0,0h24v24H0V0z"/>
	<g>
		<path class="st1" d="M18.4,5.6c3.5,3.5,3.5,9.2,0,12.7c-3.5,3.5-9.2,3.5-12.7,0c-3.5-3.5-3.5-9.2,0-12.7
			C9.2,2.1,14.8,2.1,18.4,5.6"/>
		<path class="st1" d="M16.5,15h-9C7.2,15,7,14.8,7,14.5V10c0-0.4,0.5-0.7,0.8-0.4l2,1.6l1.8-1.9c0.2-0.2,0.5-0.2,0.7,0
			c0,0,1.8,1.9,1.8,1.9l2-1.6c0.3-0.3,0.8,0,0.8,0.4v4.5C17,14.8,16.8,15,16.5,15z"/>
	</g>
</g>
</svg>
