<?xml version="1.0" encoding="utf-8"?>
<!-- Generator: Adobe Illustrator 24.0.2, SVG Export Plug-In . SVG Version: 6.00 Build 0)  -->
<svg version="1.1" id="Layer_1" xmlns="http://www.w3.org/2000/svg" xmlns:xlink="http://www.w3.org/1999/xlink" x="0px" y="0px"
	 width="24px" height="24px" viewBox="0 0 24 24" style="enable-background:new 0 0 24 24;" xml:space="preserve">
<style type="text/css">
	.st0{fill:none;stroke:#323232;stroke-width:1.5;stroke-linecap:round;stroke-linejoin:round;}
	.st1{fill:none;}
</style>
<g>
	<g>
		<path class="st0" d="M17.6,15.8l0,1.9c0,0.4-0.2,0.7-0.5,0.9L13.2,21c-0.7,0.4-1.6,0.4-2.3,0L7,18.6c-0.3-0.2-0.5-0.6-0.5-0.9
			l0-1.9"/>
		<path class="st0" d="M17.4,9.2L12,12.7L6.6,9.2L12,5.8L17.4,9.2z"/>
		<path class="st0" d="M17.4,9.2l4.1,2.6c0.6,0.4,0.6,1.3,0,1.7l-3,1.9c-0.7,0.4-1.5,0.4-2.1,0L12,12.7l-4.4,2.8
			c-0.7,0.4-1.5,0.4-2.1,0l-3-1.9c-0.6-0.4-0.6-1.3,0-1.7l4.1-2.6L2.5,6.6c-0.6-0.4-0.6-1.3,0-1.7l3-1.9C6.2,2.6,7,2.6,7.6,3L12,5.8
			L16.4,3c0.7-0.4,1.5-0.4,2.1,0l3,1.9c0.6,0.4,0.6,1.3,0,1.7L17.4,9.2z"/>
	</g>
	<rect class="st1" width="24" height="24"/>
</g>
</svg>
