<svg id="Layer_3" data-name="Layer 3" xmlns="http://www.w3.org/2000/svg" viewBox="0 0 24 24"><title>socks</title><path d="M14,11l-3.96447,3.96447a3.53554,3.53554,0,0,0-.00741,4.99256h0a3.53552,3.53552,0,0,0,5.0074.00743l4.7929-4.7929A4,4,0,0,0,21,12.34315V4a1,1,0,0,0-1-1H15a1,1,0,0,0-1,1Z" fill="none" stroke="#323232" stroke-linecap="round" stroke-linejoin="round" stroke-width="1.5"/><line x1="21" y1="7" x2="14" y2="7" fill="none" stroke="#323232" stroke-linecap="round" stroke-linejoin="round" stroke-width="1.5"/><path d="M11,3H9A1,1,0,0,0,8,4v6.03553L4.03553,14a3.53554,3.53554,0,0,0-.00741,4.99256h0" fill="none" stroke="#323232" stroke-linecap="round" stroke-linejoin="round" stroke-width="1.5"/><line x1="11" y1="7" x2="8" y2="7" fill="none" stroke="#323232" stroke-linecap="round" stroke-linejoin="round" stroke-width="1.5"/><path d="M6.53185,20.03542a3.52456,3.52456,0,0,1-2.50372-1.04285" fill="none" stroke="#323232" stroke-linecap="round" stroke-linejoin="round" stroke-width="1.5"/><rect width="24" height="24" transform="translate(24 24) rotate(-180)" fill="none"/></svg>