<svg id="Layer_3" data-name="Layer 3" xmlns="http://www.w3.org/2000/svg" viewBox="0 0 24 24"><title>song-note-favorite</title><rect width="24" height="24" fill="none"/><path d="M19.416,20.517A1.65,1.65,0,0,1,18.25,21h0a1.65,1.65,0,0,1-1.166-.483l-1.976-1.976a2.074,2.074,0,0,1,2.933-2.933l.209.209.209-.209a2.074,2.074,0,1,1,2.934,2.933Z" fill="none" stroke="#323232" stroke-linecap="round" stroke-linejoin="round" stroke-width="1.5"/><path d="M9.926,12.074a1.714,1.714,0,1,1-2.424,0,1.715,1.715,0,0,1,2.424,0" fill="none" stroke="#323232" stroke-linecap="round" stroke-linejoin="round" stroke-width="1.5"/><path d="M13,7.857,10.429,7v6.286" fill="none" stroke="#323232" stroke-linecap="round" stroke-linejoin="round" stroke-width="1.5"/><path d="M21,12V8a5,5,0,0,0-5-5H8A5,5,0,0,0,3,8v8a5,5,0,0,0,5,5h5" fill="none" stroke="#323232" stroke-linecap="round" stroke-linejoin="round" stroke-width="1.5"/></svg>