<?xml version="1.0" encoding="utf-8"?>
<!-- Generator: Adobe Illustrator 24.0.2, SVG Export Plug-In . SVG Version: 6.00 Build 0)  -->
<svg version="1.1" id="Layer_1" xmlns="http://www.w3.org/2000/svg" xmlns:xlink="http://www.w3.org/1999/xlink" x="0px" y="0px"
	 width="24px" height="24px" viewBox="0 0 24 24" enable-background="new 0 0 24 24" xml:space="preserve">
<g>
	<g>
		<path fill="none" stroke="#323232" stroke-width="1.5" stroke-linecap="round" stroke-linejoin="round" d="M10.5,20.933
			c-2.711-0.459-5.009-2.134-6.321-4.455"/>
		<path fill="none" stroke="#323232" stroke-width="1.5" stroke-linecap="round" stroke-linejoin="round" d="M5.15,6.126
			C3.812,7.709,3,9.758,3,12.001c0,0.559,0.058,1.104,0.154,1.636"/>
		<path fill="none" stroke="#323232" stroke-width="1.5" stroke-linecap="round" stroke-linejoin="round" d="M13.5,20.933
			c2.711-0.459,5.009-2.134,6.321-4.455"/>
		<path fill="none" stroke="#323232" stroke-width="1.5" stroke-linecap="round" stroke-linejoin="round" d="M16.55,4.186
			C15.214,3.394,13.662,2.932,12,2.932S8.786,3.394,7.45,4.186"/>
		<path fill="none" stroke="#323232" stroke-width="1.5" stroke-linecap="round" stroke-linejoin="round" d="M18.85,6.126
			C20.188,7.709,21,9.758,21,12.001c0,0.559-0.058,1.104-0.154,1.636"/>
		<path fill="none" stroke="#323232" stroke-width="1.5" stroke-linecap="round" stroke-linejoin="round" d="M11.924,12.965
			c0.694,0.694,0.694,1.82,0,2.514c-0.694,0.694-1.82,0.694-2.514,0s-0.694-1.82,0-2.514C10.104,12.271,11.229,12.271,11.924,12.965
			"/>
		<path fill="none" stroke="#323232" stroke-width="1.5" stroke-linecap="round" stroke-linejoin="round" d="M15.111,8.889L12.444,8
			v6.222"/>
	</g>
	<path fill="none" d="M24,24H0V0h24V24z"/>
</g>
</svg>
