<?xml version="1.0" encoding="utf-8"?>
<!-- Generator: Adobe Illustrator 24.0.2, SVG Export Plug-In . SVG Version: 6.00 Build 0)  -->
<svg version="1.1" id="Layer_1" xmlns="http://www.w3.org/2000/svg" xmlns:xlink="http://www.w3.org/1999/xlink" x="0px" y="0px"
	 width="24px" height="24px" viewBox="0 0 24 24" enable-background="new 0 0 24 24" xml:space="preserve">
<g>
	<path fill="none" d="M0,0l24,0v24H0L0,0z"/>
	<g>
		<path fill="none" stroke="#323232" stroke-width="1.5" stroke-linecap="round" stroke-linejoin="round" d="M20,15.126V7
			c0-2.209-1.791-4-4-4H7C4.791,3,3,4.791,3,7v9c0,2.209,1.791,4,4,4h8.126"/>
		<path fill="none" stroke="#323232" stroke-width="1.5" stroke-linecap="round" stroke-linejoin="round" d="M19,23
			c-2.209,0-4-1.791-4-4s1.791-4,4-4c2.21,0,4,1.791,4,4S21.21,23,19,23"/>
		<path fill="none" stroke="#323232" stroke-width="1.5" stroke-linecap="round" stroke-linejoin="round" d="M20.333,18.333
			L18.667,20l-1-1"/>
		<g>
			<g>
				<path fill="none" stroke="#323232" stroke-width="1.5" stroke-linecap="round" stroke-linejoin="round" d="M11.426,12.431
					c0.669,0.669,0.669,1.755,0,2.424c-0.669,0.669-1.755,0.669-2.424,0c-0.669-0.669-0.669-1.755,0-2.424
					S10.757,11.761,11.426,12.431"/>
				<path fill="none" stroke="#323232" stroke-width="1.5" stroke-linecap="round" stroke-linejoin="round" d="M14.5,8.5
					l-2.571-0.857v6"/>
			</g>
		</g>
	</g>
</g>
</svg>
