<svg id="Layer_3" data-name="Layer 3" xmlns="http://www.w3.org/2000/svg" viewBox="0 0 24 24"><title>space-dish-science</title><path d="M7.94,13.90847a8.47606,8.47606,0,0,1-.23-10.5,1.03418,1.03418,0,0,1,1.56-.1l10.42,10.42a1.03418,1.03418,0,0,1-.1,1.56,8.428,8.428,0,0,1-5.8,1.68" fill="none" stroke="#323232" stroke-linecap="round" stroke-linejoin="round" stroke-width="1.5"/><path d="M6,21l2.27543-8.34332A2.24823,2.24823,0,0,1,10.44444,11h0a2.24821,2.24821,0,0,1,2.169,1.65668L14.88889,21" fill="none" stroke="#323232" stroke-linecap="round" stroke-linejoin="round" stroke-width="1.5"/><line x1="21" y1="21" x2="3" y2="21" fill="none" stroke="#323232" stroke-linecap="round" stroke-linejoin="round" stroke-width="1.5"/><path d="M17.54383,7.68088l-1.56006,2.33381-3-3,2.33381-1.56a1,1,0,0,1,1.26284.12425l.83916.83915A1,1,0,0,1,17.54383,7.68088Z" fill="none" stroke="#323232" stroke-linecap="round" stroke-linejoin="round" stroke-width="1.5"/><rect width="24" height="24" fill="none"/><path d="M0,0H24V24H0Z" fill="none"/></svg>