<svg id="Layer_3" data-name="Layer 3" xmlns="http://www.w3.org/2000/svg" viewBox="0 0 24 24"><title>space-shuttle</title><path d="M11.22267,8.40188a1.8525,1.8525,0,0,1,1.425,0" fill="none" stroke="#323232" stroke-linecap="round" stroke-linejoin="round" stroke-width="1.5"/><path d="M15.70039,19.38889h4.74405A1.05556,1.05556,0,0,0,21.5,18.33333v-1.284a1.05558,1.05558,0,0,0-.47642-.8825L15.8,12.73889" fill="none" stroke="#323232" stroke-linecap="round" stroke-linejoin="round" stroke-width="1.5"/><path d="M8.29961,19.38889h-4.744A1.05556,1.05556,0,0,1,2.5,18.33333v-1.284a1.05558,1.05558,0,0,1,.47642-.8825L8.2,12.73889" fill="none" stroke="#323232" stroke-linecap="round" stroke-linejoin="round" stroke-width="1.5"/><line x1="12" y1="15.41076" x2="12" y2="18.61701" fill="none" stroke="#323232" stroke-linecap="round" stroke-linejoin="round" stroke-width="1.5"/><path d="M9.51421,20.91421l-.72842-.72842A2,2,0,0,1,8.2,18.77157V8.4305a7.437,7.437,0,0,1,2.17825-5.25875h0A2.2935,2.2935,0,0,1,12,2.5h0a2.2935,2.2935,0,0,1,1.62175.67175h0A7.437,7.437,0,0,1,15.8,8.43051V18.77157a2,2,0,0,1-.58579,1.41422l-.72842.72842A2,2,0,0,1,13.07157,21.5H10.92843A2,2,0,0,1,9.51421,20.91421Z" fill="none" stroke="#323232" stroke-linecap="round" stroke-linejoin="round" stroke-width="1.5"/><path d="M15.8,13.9V12a5.7,5.7,0,0,1,1.14-3.42h0a.95.95,0,0,1,.76-.38h0a.95.95,0,0,1,.76.38h0A5.7,5.7,0,0,1,19.6,12v3.16667" fill="none" stroke="#323232" stroke-linecap="round" stroke-linejoin="round" stroke-width="1.5"/><path d="M8.2,13.9V12A5.7,5.7,0,0,0,7.06,8.58h0A.95.95,0,0,0,6.3,8.2h0a.95.95,0,0,0-.76.38h0A5.7,5.7,0,0,0,4.4,12v3.16667" fill="none" stroke="#323232" stroke-linecap="round" stroke-linejoin="round" stroke-width="1.5"/><rect width="24" height="24" transform="translate(24 24) rotate(180)" fill="none"/></svg>