<svg id="Layer_3" data-name="Layer 3" xmlns="http://www.w3.org/2000/svg" viewBox="0 0 24 24"><title>space-satellite-signal</title><path d="M13.68317,6.90616a2.4117,2.4117,0,0,1,3.41066,0h0a2.4117,2.4117,0,0,1,0,3.41066" fill="none" stroke="#323232" stroke-linecap="round" stroke-linejoin="round" stroke-width="1.5"/><rect width="24" height="24" fill="none"/><rect x="4.79623" y="9.5883" width="14.40754" height="4.82341" rx="2.4117" transform="translate(-4.97056 12) rotate(-45)" stroke-width="1.5" stroke="#323232" stroke-linecap="round" stroke-linejoin="round" fill="none"/><rect x="14.7636" y="14.1266" width="5.47279" height="6.7468" rx="1.98032" transform="translate(17.5 -7.24874) rotate(45)" stroke-width="1.5" stroke="#323232" stroke-linecap="round" stroke-linejoin="round" fill="none"/><line x1="19.88535" y1="15.11465" x2="15.11465" y2="19.88535" fill="none" stroke="#323232" stroke-linecap="round" stroke-linejoin="round" stroke-width="1.5"/><rect x="3.7636" y="3.1266" width="5.47279" height="6.7468" rx="1.98032" transform="translate(6.5 -2.69239) rotate(45)" stroke-width="1.5" stroke="#323232" stroke-linecap="round" stroke-linejoin="round" fill="none"/><line x1="8.88535" y1="4.11465" x2="4.11465" y2="8.88535" fill="none" stroke="#323232" stroke-linecap="round" stroke-linejoin="round" stroke-width="1.5"/><line x1="15.56508" y1="15.56508" x2="13.70533" y2="13.70533" fill="none" stroke="#323232" stroke-linecap="round" stroke-linejoin="round" stroke-width="1.5"/><line x1="10.29467" y1="10.29467" x2="8.43492" y2="8.43492" fill="none" stroke="#323232" stroke-linecap="round" stroke-linejoin="round" stroke-width="1.5"/><path d="M15.38851,3A5.61149,5.61149,0,0,1,21,8.61149" fill="none" stroke="#323232" stroke-linecap="round" stroke-linejoin="round" stroke-width="1.5"/><path d="M8.61149,21A5.61149,5.61149,0,0,1,3,15.38851" fill="none" stroke="#323232" stroke-linecap="round" stroke-linejoin="round" stroke-width="1.5"/><rect width="24" height="24" transform="translate(24 24) rotate(180)" fill="none"/></svg>