<svg id="Layer_3" data-name="Layer 3" xmlns="http://www.w3.org/2000/svg" viewBox="0 0 24 24"><title>space-stars</title><path d="M6.12056,3.52615a.99822.99822,0,0,1,1.75888,0l.77563,1.41949a.99835.99835,0,0,0,.39929.39929l1.41949.77563a.99822.99822,0,0,1,0,1.75888l-1.41949.77563a.99835.99835,0,0,0-.39929.39929l-.77563,1.41949a.99822.99822,0,0,1-1.75888,0L5.34493,9.05436a.99835.99835,0,0,0-.39929-.39929L3.52615,7.87944a.99822.99822,0,0,1,0-1.75888l1.41949-.77563a.99835.99835,0,0,0,.39929-.39929Z" fill="none" stroke="#323232" stroke-linecap="round" stroke-linejoin="round" stroke-width="1.5"/><path d="M17.34042,7.39461a.74867.74867,0,0,1,1.31916,0l.58172,1.06462a.74874.74874,0,0,0,.29947.29947l1.06462.58172a.74867.74867,0,0,1,0,1.31916l-1.06462.58172a.74874.74874,0,0,0-.29947.29947l-.58172,1.06462a.74867.74867,0,0,1-1.31916,0l-.58172-1.06462a.74874.74874,0,0,0-.29947-.29947l-1.06462-.58172a.74867.74867,0,0,1,0-1.31916l1.06462-.58172a.74874.74874,0,0,0,.29947-.29947Z" fill="none" stroke="#323232" stroke-linecap="round" stroke-linejoin="round" stroke-width="1.5"/><path d="M10.73049,14.46038a.87344.87344,0,0,1,1.539,0l.67868,1.242a.87336.87336,0,0,0,.34938.34938l1.242.67868a.87344.87344,0,0,1,0,1.539l-1.242.67868a.87336.87336,0,0,0-.34938.34938l-.67868,1.242a.87344.87344,0,0,1-1.539,0l-.67868-1.242a.87336.87336,0,0,0-.34938-.34938l-1.242-.67868a.87344.87344,0,0,1,0-1.539l1.242-.67868a.87336.87336,0,0,0,.34938-.34938Z" fill="none" stroke="#323232" stroke-linecap="round" stroke-linejoin="round" stroke-width="1.5"/><path d="M4.05013,15.05a.05.05,0,1,1-.05-.05" fill="none" stroke="#323232" stroke-linecap="round" stroke-linejoin="round" stroke-width="1.5"/><path d="M4.00013,15a.05.05,0,0,1,.05.05" fill="none" stroke="#323232" stroke-linecap="round" stroke-linejoin="round" stroke-width="1.5"/><path d="M19.05013,18a.05.05,0,1,1-.05-.05" fill="none" stroke="#323232" stroke-linecap="round" stroke-linejoin="round" stroke-width="1.5"/><path d="M19.00013,17.95a.05.05,0,0,1,.05.05" fill="none" stroke="#323232" stroke-linecap="round" stroke-linejoin="round" stroke-width="1.5"/><path d="M15.10013,4a.05.05,0,1,1-.05-.05" fill="none" stroke="#323232" stroke-linecap="round" stroke-linejoin="round" stroke-width="1.5"/><path d="M15.05013,3.95a.05.05,0,0,1,.05.05" fill="none" stroke="#323232" stroke-linecap="round" stroke-linejoin="round" stroke-width="1.5"/><rect width="24" height="24" fill="none"/></svg>