<svg id="Layer_3" data-name="Layer 3" xmlns="http://www.w3.org/2000/svg" viewBox="0 0 24 24"><title>space-stars-square</title><rect x="3" y="3" width="18" height="18" rx="5" stroke-width="1.5" stroke="#323232" stroke-linecap="round" stroke-linejoin="round" fill="none"/><path d="M7.95035,6.32884a.6239.6239,0,0,1,1.0993,0l.48477.88718a.62688.62688,0,0,0,.24956.24956l.88718.48477a.6239.6239,0,0,1,0,1.0993L9.784,9.53442a.62688.62688,0,0,0-.24956.24956l-.48477.88718a.6239.6239,0,0,1-1.0993,0L7.46558,9.784A.62688.62688,0,0,0,7.216,9.53442l-.88718-.48477a.6239.6239,0,0,1,0-1.0993L7.216,7.46558A.62688.62688,0,0,0,7.46558,7.216Z" fill="none" stroke="#323232" stroke-linecap="round" stroke-linejoin="round" stroke-width="1.5"/><path d="M15.56028,8.92974a.49911.49911,0,0,1,.87944,0l.38782.70974a.49911.49911,0,0,0,.19964.19965l.70975.38781a.49912.49912,0,0,1,0,.87945l-.70975.38781a.49911.49911,0,0,0-.19964.19965l-.38782.70974a.49911.49911,0,0,1-.87944,0l-.38782-.70974a.49911.49911,0,0,0-.19964-.19965l-.70975-.38781a.49913.49913,0,0,1,0-.87945l.70975-.38781a.49911.49911,0,0,0,.19964-.19965Z" fill="none" stroke="#323232" stroke-linecap="round" stroke-linejoin="round" stroke-width="1.5"/><path d="M10.95035,13.32884a.6239.6239,0,0,1,1.0993,0l.48477.88718a.62688.62688,0,0,0,.24956.24956l.88718.48477a.6239.6239,0,0,1,0,1.0993l-.88718.48477a.62688.62688,0,0,0-.24956.24956l-.48477.88718a.6239.6239,0,0,1-1.0993,0l-.48477-.88718a.62688.62688,0,0,0-.24956-.24956l-.88718-.48477a.6239.6239,0,0,1,0-1.0993l.88718-.48477a.62688.62688,0,0,0,.24956-.24956Z" fill="none" stroke="#323232" stroke-linecap="round" stroke-linejoin="round" stroke-width="1.5"/><path d="M6.08333,14.03333a.05.05,0,1,1-.05-.05" fill="none" stroke="#323232" stroke-linecap="round" stroke-linejoin="round" stroke-width="1.5"/><path d="M6.03333,13.98333a.05.05,0,0,1,.05.05" fill="none" stroke="#323232" stroke-linecap="round" stroke-linejoin="round" stroke-width="1.5"/><path d="M17.08333,16a.05.05,0,1,1-.05-.05" fill="none" stroke="#323232" stroke-linecap="round" stroke-linejoin="round" stroke-width="1.5"/><path d="M17.03333,15.95a.05.05,0,0,1,.05.05" fill="none" stroke="#323232" stroke-linecap="round" stroke-linejoin="round" stroke-width="1.5"/><path d="M14.08333,5.96667a.05.05,0,1,1-.05-.05" fill="none" stroke="#323232" stroke-linecap="round" stroke-linejoin="round" stroke-width="1.5"/><path d="M14.03333,5.91667a.05.05,0,0,1,.05.05" fill="none" stroke="#323232" stroke-linecap="round" stroke-linejoin="round" stroke-width="1.5"/><rect width="24" height="24" fill="none"/></svg>