<svg id="Layer_3" data-name="Layer 3" xmlns="http://www.w3.org/2000/svg" viewBox="0 0 24 24"><title>space-rocket-earth</title><path d="M16.73665,11.62565l-4.51076,3.6086a.83583.83583,0,0,1-1.11315-.06165L8.8274,12.88726a.83583.83583,0,0,1-.06165-1.11315l3.6086-4.51076A8.69523,8.69523,0,0,1,19.16417,4h0A.83583.83583,0,0,1,20,4.83583h0A8.69523,8.69523,0,0,1,16.73665,11.62565Z" fill="none" stroke="#323232" stroke-linecap="round" stroke-linejoin="round" stroke-width="1.5"/><rect width="24" height="24" fill="none"/><path d="M8.59867,12.45834,6.7052,11.8272a.83582.83582,0,0,1-.48328-1.16673l1.00965-2.0193a.83583.83583,0,0,1,.74759-.462h3.66257" fill="none" stroke="#323232" stroke-linecap="round" stroke-linejoin="round" stroke-width="1.5"/><path d="M11.54144,15.4007l.63136,1.8941a.83582.83582,0,0,0,1.16673.48328l2.0193-1.00965a.83583.83583,0,0,0,.462-.74759V12.35827" fill="none" stroke="#323232" stroke-linecap="round" stroke-linejoin="round" stroke-width="1.5"/><path d="M6.6075,19.60827,4,20l.39173-2.6075a1.948,1.948,0,0,1,1.637-1.637h0A1.948,1.948,0,0,1,8.24447,17.9713h0A1.948,1.948,0,0,1,6.6075,19.60827Z" fill="none" stroke="#323232" stroke-linecap="round" stroke-linejoin="round" stroke-width="1.5"/><path d="M19.65,7.27A8.90872,8.90872,0,0,1,21,12,9.00389,9.00389,0,0,1,7.02,19.5" fill="none" stroke="#323232" stroke-linecap="round" stroke-linejoin="round" stroke-width="1.5"/><path d="M4.5,16.98A8.99642,8.99642,0,0,1,16.73,4.35" fill="none" stroke="#323232" stroke-linecap="round" stroke-linejoin="round" stroke-width="1.5"/></svg>