<svg id="Layer_3" data-name="Layer 3" xmlns="http://www.w3.org/2000/svg" viewBox="0 0 24 24"><title>spade-circle</title><line x1="13.74491" y1="16" x2="10.25059" y2="16" fill="none" stroke="#323232" stroke-linecap="round" stroke-linejoin="round" stroke-width="1.5"/><line x1="11.99775" y1="12.63269" x2="11.99775" y2="16" fill="none" stroke="#323232" stroke-linecap="round" stroke-linejoin="round" stroke-width="1.5"/><path id="a" d="M18.364,5.636a9,9,0,1,1-12.72792,0,9,9,0,0,1,12.72792,0" fill="none" stroke="#323232" stroke-linecap="round" stroke-linejoin="round" stroke-width="1.5"/><path id="a-2" data-name="a" d="M18.364,5.636a9,9,0,1,1-12.72792,0,9,9,0,0,1,12.72792,0" fill="none" stroke="#323232" stroke-linecap="round" stroke-linejoin="round" stroke-width="1.5"/><path d="M12,12.63269l-.63994.63993a2.115,2.115,0,0,1-2.99109,0h0a2.115,2.115,0,0,1,0-2.99111l3.03-3.03a.85.85,0,0,1,1.20208,0l3.03,3.03a2.115,2.115,0,0,1,0,2.9911h0a2.115,2.115,0,0,1-2.99109,0Z" fill="none" stroke="#323232" stroke-linecap="round" stroke-linejoin="round" stroke-width="1.5"/><rect width="24" height="24" fill="none"/></svg>