<?xml version="1.0" encoding="utf-8"?>
<!-- Generator: Adobe Illustrator 23.1.0, SVG Export Plug-In . SVG Version: 6.00 Build 0)  -->
<svg version="1.1" id="icons" xmlns="http://www.w3.org/2000/svg" xmlns:xlink="http://www.w3.org/1999/xlink" x="0px" y="0px"
	 width="24px" height="24px" viewBox="0 0 24 24" enable-background="new 0 0 24 24" xml:space="preserve">
<g>
	<rect fill="none" width="24" height="24"/>
	<g>
		<g>
			<g>
				
					<line fill="none" stroke="#323232" stroke-width="1.5" stroke-linecap="round" stroke-linejoin="round" x1="15.512" y1="8.523" x2="13.515" y2="10.52"/>
				
					<line fill="none" stroke="#323232" stroke-width="1.5" stroke-linecap="round" stroke-linejoin="round" x1="13.394" y1="6.405" x2="11.397" y2="8.402"/>
				
					<line fill="none" stroke="#323232" stroke-width="1.5" stroke-linecap="round" stroke-linejoin="round" x1="17.63" y1="10.641" x2="15.633" y2="12.638"/>
			</g>
		</g>
		<path fill="none" stroke="#323232" stroke-width="1.5" stroke-linecap="round" stroke-linejoin="round" d="M7.954,9.456
			l-0.34,3.206c-0.064,0.6,0.147,1.196,0.574,1.623l1.628,1.628c0.437,0.437,1.052,0.647,1.665,0.569l3.139-0.4
			c1.316-0.168,2.54-0.768,3.478-1.706l2.304-2.304c0.78-0.78,0.78-2.044,0-2.824l-5.648-5.648c-0.78-0.78-2.044-0.78-2.824,0
			L9.675,5.853C8.706,6.822,8.099,8.094,7.954,9.456z"/>
		<path fill="none" stroke="#323232" stroke-width="1.5" stroke-linecap="round" stroke-linejoin="round" d="M10.14,16.213
			L5.74,20.614c-0.579,0.58-1.576,0.522-2.226-0.128l0,0c-0.65-0.65-0.707-1.647-0.128-2.226l4.442-4.442"/>
	</g>
</g>
</svg>
