<svg id="Layer_3" data-name="Layer 3" xmlns="http://www.w3.org/2000/svg" viewBox="0 0 24 24"><title>speed-dashboard</title><path d="M0,0H24V24H0Z" fill="none"/><circle cx="12" cy="12.5" r="1.75" fill="none" stroke="#323232" stroke-linecap="round" stroke-linejoin="round" stroke-width="1.5"/><line x1="12" y1="6.502" x2="12" y2="7.502" fill="none" stroke="#323232" stroke-linecap="round" stroke-linejoin="round" stroke-width="1.5"/><line x1="7.757" y1="8.26" x2="8.464" y2="8.967" fill="none" stroke="#323232" stroke-linecap="round" stroke-linejoin="round" stroke-width="1.5"/><line x1="13.239" y1="11.264" x2="16.243" y2="8.26" fill="none" stroke="#323232" stroke-linecap="round" stroke-linejoin="round" stroke-width="1.5"/><line x1="8.5" y1="17.002" x2="15.5" y2="17.002" fill="none" stroke="#323232" stroke-linecap="round" stroke-linejoin="round" stroke-width="1.5"/><line x1="18" y1="12.502" x2="17" y2="12.502" fill="none" stroke="#323232" stroke-linecap="round" stroke-linejoin="round" stroke-width="1.5"/><line x1="7" y1="12.502" x2="6" y2="12.502" fill="none" stroke="#323232" stroke-linecap="round" stroke-linejoin="round" stroke-width="1.5"/><path d="M11.719,3.5A9.1,9.1,0,0,0,3,12.481,8.979,8.979,0,0,0,6.739,19.8a3.886,3.886,0,0,0,2.276.7h5.978a3.814,3.814,0,0,0,2.227-.677A8.995,8.995,0,0,0,11.719,3.5Z" fill="none" stroke="#323232" stroke-linecap="round" stroke-linejoin="round" stroke-width="1.5"/></svg>