<svg id="Layer_3" data-name="Layer 3" xmlns="http://www.w3.org/2000/svg" viewBox="0 0 24 24"><title>Artboard 187</title><path d="M12,15.745h0" fill="none" stroke="#323232" stroke-linecap="round" stroke-linejoin="round" stroke-width="1.5"/><path d="M12,8.255h0" fill="none" stroke="#323232" stroke-linecap="round" stroke-linejoin="round" stroke-width="1.5"/><path d="M4.51,14.256A2.288,2.288,0,0,0,4.176,16.5c.8,1.381,4.125,1,7.823-.755" fill="none" stroke="#323232" stroke-linecap="round" stroke-linejoin="round" stroke-width="1.5"/><path d="M19.49,9.744A2.291,2.291,0,0,0,19.824,7.5c-.8-1.381-4.125-1-7.823.755" fill="none" stroke="#323232" stroke-linecap="round" stroke-linejoin="round" stroke-width="1.5"/><path d="M15.255,13.872C14.937,17.944,13.6,21,12,21c-.657,0-1.268-.522-1.784-1.411" fill="none" stroke="#323232" stroke-linecap="round" stroke-linejoin="round" stroke-width="1.5"/><path d="M6.294,6.666A2.309,2.309,0,0,0,4.176,7.5c-.8,1.381,1.189,4.062,4.569,6.372" fill="none" stroke="#323232" stroke-linecap="round" stroke-linejoin="round" stroke-width="1.5"/><path d="M17.706,17.334a2.309,2.309,0,0,0,2.118-.834c.8-1.381-1.189-4.062-4.569-6.372" fill="none" stroke="#323232" stroke-linecap="round" stroke-linejoin="round" stroke-width="1.5"/><path d="M8.745,10.128C9.063,6.056,10.4,3,12,3c.657,0,1.268.522,1.784,1.411" fill="none" stroke="#323232" stroke-linecap="round" stroke-linejoin="round" stroke-width="1.5"/><path d="M24,0V24H0V0Z" fill="none"/></svg>