<svg id="Layer_3" data-name="Layer 3" xmlns="http://www.w3.org/2000/svg" viewBox="0 0 24 24"><title>sprayer-square</title><path d="M11.641,11.5V8.973A.973.973,0,0,0,10.668,8H9.332a.973.973,0,0,0-.973.973V11.5" fill="none" stroke="#323232" stroke-linecap="round" stroke-linejoin="round" stroke-width="1.5"/><path d="M15,9.05A.05.05,0,1,1,15.05,9a.05.05,0,0,1-.05.05" fill="none" stroke="#323232" stroke-linecap="round" stroke-linejoin="round" stroke-width="1.5"/><path d="M17.121,7.043a.05.05,0,0,1-.05-.05.051.051,0,0,1,.05-.05.05.05,0,0,1,.05.05.05.05,0,0,1-.05.05" fill="none" stroke="#323232" stroke-linecap="round" stroke-linejoin="round" stroke-width="1.5"/><path d="M17.007,11.057a.05.05,0,0,1-.05-.05.05.05,0,0,1,.05-.05.05.05,0,0,1,.05.05.051.051,0,0,1-.05.05" fill="none" stroke="#323232" stroke-linecap="round" stroke-linejoin="round" stroke-width="1.5"/><rect x="3" y="3" width="18" height="18" rx="5" stroke-width="1.5" stroke="#323232" stroke-linecap="round" stroke-linejoin="round" fill="none"/><path d="M11.854,11.5H8.146a.893.893,0,0,0-.629.26l-1,1A1.776,1.776,0,0,0,6,14.014v2.158A1.833,1.833,0,0,0,7.828,18h4.344A1.827,1.827,0,0,0,14,16.172V14.014a1.776,1.776,0,0,0-.521-1.257l-1-1A.893.893,0,0,0,11.854,11.5Z" fill="none" stroke="#323232" stroke-linecap="round" stroke-linejoin="round" stroke-width="1.5"/><path d="M0,0H24V24H0Z" fill="none"/></svg>