<svg id="Layer_3" data-name="Layer 3" xmlns="http://www.w3.org/2000/svg" viewBox="0 0 24 24"><title>square</title><line x1="7.751" y1="7.765" x2="10.306" y2="10.312" fill="none" stroke="#323232" stroke-linecap="round" stroke-linejoin="round" stroke-width="1.5"/><line x1="13.691" y1="13.688" x2="16.247" y2="16.236" fill="none" stroke="#323232" stroke-linecap="round" stroke-linejoin="round" stroke-width="1.5"/><line x1="10.306" y1="13.687" x2="7.751" y2="16.235" fill="none" stroke="#323232" stroke-linecap="round" stroke-linejoin="round" stroke-width="1.5"/><line x1="16.246" y1="7.764" x2="13.69" y2="10.312" fill="none" stroke="#323232" stroke-linecap="round" stroke-linejoin="round" stroke-width="1.5"/><line x1="18.005" y1="12.004" x2="13.998" y2="12.004" fill="none" stroke="#323232" stroke-linecap="round" stroke-linejoin="round" stroke-width="1.5"/><line x1="9.998" y1="12.004" x2="6.005" y2="12.004" fill="none" stroke="#323232" stroke-linecap="round" stroke-linejoin="round" stroke-width="1.5"/><line x1="11.996" y1="6.009" x2="11.996" y2="10.006" fill="none" stroke="#323232" stroke-linecap="round" stroke-linejoin="round" stroke-width="1.5"/><line x1="11.996" y1="13.994" x2="11.996" y2="17.991" fill="none" stroke="#323232" stroke-linecap="round" stroke-linejoin="round" stroke-width="1.5"/><rect x="3" y="3" width="18" height="18" rx="5" stroke-width="1.5" stroke="#323232" stroke-linecap="round" stroke-linejoin="round" fill="none"/><path d="M13.691,13.688A4.761,4.761,0,0,0,14,12V12a4.757,4.757,0,0,0-.307-1.684A4.775,4.775,0,0,0,12,10.006H12a4.789,4.789,0,0,0-1.69.306A4.8,4.8,0,0,0,10,12V12a4.78,4.78,0,0,0,.308,1.684A4.779,4.779,0,0,0,12,13.994H12A4.775,4.775,0,0,0,13.691,13.688Z" fill="none" stroke="#323232" stroke-linecap="round" stroke-linejoin="round" stroke-width="1.5" fill-rule="evenodd"/><path d="M0,24V0H24V24Z" fill="none"/></svg>