<svg id="Layer_3" data-name="Layer 3" xmlns="http://www.w3.org/2000/svg" viewBox="0 0 24 24"><path d="M10.44057,13.807a1.13949,1.13949,0,0,0,.97977.568h.95021a.95028.95028,0,0,0,.95021-.95021v-.265a.94925.94925,0,0,0-.65036-.90165l-1.552-.51628a.94887.94887,0,0,1-.65037-.90165v-.265a.95028.95028,0,0,1,.95021-.95021h.95021a1.13591,1.13591,0,0,1,.97555.5659" fill="none" stroke="#323232" stroke-linecap="round" stroke-linejoin="round" stroke-width="1.5"/><path d="M5.27083,13.807a1.13949,1.13949,0,0,0,.97978.568h.95021a.95029.95029,0,0,0,.95021-.95021v-.265a.94926.94926,0,0,0-.65037-.90165l-1.552-.51628a.94887.94887,0,0,1-.65037-.90165v-.265A.95029.95029,0,0,1,6.24849,9.625H7.1987a1.1359,1.1359,0,0,1,.97555.5659" fill="none" stroke="#323232" stroke-linecap="round" stroke-linejoin="round" stroke-width="1.5"/><line x1="15.55757" y1="14.375" x2="15.55757" y2="9.625" fill="none" stroke="#323232" stroke-linecap="round" stroke-linejoin="round" stroke-width="1.5"/><line x1="18.72917" y1="14.375" x2="18.72917" y2="9.625" fill="none" stroke="#323232" stroke-linecap="round" stroke-linejoin="round" stroke-width="1.5"/><line x1="15.55757" y1="12" x2="18.72917" y2="12" fill="none" stroke="#323232" stroke-linecap="round" stroke-linejoin="round" stroke-width="1.5"/><rect x="2.5" y="2.5" width="19" height="19" rx="5.27778" stroke-width="1.5" stroke="#323232" stroke-linecap="round" stroke-linejoin="round" fill="none"/><rect width="24" height="24" fill="none"/></svg>