<svg id="Layer_3" data-name="Layer 3" xmlns="http://www.w3.org/2000/svg" viewBox="0 0 24 24"><path d="M8.00017,13a1,1,0,0,0-.99123,1.13216l.19119,1.43392A.5.5,0,0,0,7.69574,16h8.56091a.5.5,0,0,0,.4932-.4178l.2363-1.4178A1,1,0,0,0,15.99975,13Z" fill="none" stroke="#323232" stroke-linecap="round" stroke-linejoin="round" stroke-width="1.5"/><path d="M13.55554,13l.79364-3.57147a2.40649,2.40649,0,1,0-4.69836,0L10.44446,13" fill="none" stroke="#323232" stroke-linecap="round" stroke-linejoin="round" stroke-width="1.5"/><path d="M20.582,9.353A8.84321,8.84321,0,0,1,21,12a9,9,0,1,1-9-9,8.84316,8.84316,0,0,1,2.647.418" fill="none" stroke="#323232" stroke-linecap="round" stroke-linejoin="round" stroke-width="1.5"/><polyline points="21 4.274 19.012 6.262 17.737 4.987" fill="none" stroke="#323232" stroke-linecap="round" stroke-linejoin="round" stroke-width="1.5"/><path d="M0,0H24V24H0Z" fill="none"/></svg>