<svg id="Layer_3" data-name="Layer 3" xmlns="http://www.w3.org/2000/svg" viewBox="0 0 24 24"><title>stamp-tool-square</title><path d="M0,0H24V24H0Z" fill="none"/><path d="M16,14.743v-.769a.889.889,0,0,0-.608-.843l-2.059-.686V10.668l.619-.4A1.233,1.233,0,0,0,14.474,8.9h0A1.229,1.229,0,0,0,13.288,8H10.712a1.233,1.233,0,0,0-1.187.9h0a1.235,1.235,0,0,0,.522,1.371l.619.4v1.778l-2.059.686A.888.888,0,0,0,8,13.974v.769a.887.887,0,0,0,.261.629l.368.368A.889.889,0,0,0,9.258,16h5.486a.887.887,0,0,0,.629-.261l.368-.368A.892.892,0,0,0,16,14.743Z" fill="none" stroke="#323232" stroke-linecap="round" stroke-linejoin="round" stroke-width="1.5"/><path d="M8,3h8a5,5,0,0,1,5,5v9a4,4,0,0,1-4,4H8a5,5,0,0,1-5-5V8A5,5,0,0,1,8,3Z" fill="none" stroke="#323232" stroke-linecap="round" stroke-linejoin="round" stroke-width="1.5"/></svg>