<svg id="Layer_3" data-name="Layer 3" xmlns="http://www.w3.org/2000/svg" viewBox="0 0 24 24"><path d="M16,14a.99845.99845,0,0,1,.99,1.16l-.24,1.42a.503.503,0,0,1-.49.42H7.7a.50645.50645,0,0,1-.5-.43l-.19-1.44A.99964.99964,0,0,1,8,14h8Z" fill="none" stroke="#323232" stroke-linecap="round" stroke-linejoin="round" stroke-width="1.5"/><path d="M8.00017,14a1,1,0,0,0-.99123,1.13216l.19119,1.43392A.5.5,0,0,0,7.69574,17h8.56091a.5.5,0,0,0,.4932-.4178l.2363-1.4178A1,1,0,0,0,15.99975,14Z" fill="none" stroke="#323232" stroke-linecap="round" stroke-linejoin="round" stroke-width="1.5"/><rect x="3" y="3" width="18" height="18" rx="5" fill="none" stroke="#323232" stroke-miterlimit="10" stroke-width="1.5"/><path d="M13.44446,14l.90472-4.07147a2.40649,2.40649,0,1,0-4.69836,0L10.55554,14" fill="none" stroke="#323232" stroke-miterlimit="10" stroke-width="1.5"/><rect width="24" height="24" fill="none"/></svg>