<svg id="Layer_3" data-name="Layer 3" xmlns="http://www.w3.org/2000/svg" viewBox="0 0 24 24"><title>stapler</title><polyline points="20 9.357 20 13 10 13" fill="none" stroke="#323232" stroke-linecap="round" stroke-linejoin="round" stroke-width="1.5"/><path d="M5,14H6a2,2,0,0,1,2,2H20a1,1,0,0,1,1,1v2a1,1,0,0,1-1,1H5a2,2,0,0,1-2-2V16A2,2,0,0,1,5,14Z" fill="none" stroke="#323232" stroke-linecap="round" stroke-linejoin="round" stroke-width="1.5"/><path d="M3.664,9.763l13.173-4.7A1.015,1.015,0,0,1,17.173,5H20a1,1,0,0,1,1,1V8.3a1,1,0,0,1-.664.942L7,14H5a2,2,0,0,1-2-2V10.705A1,1,0,0,1,3.664,9.763Z" fill="none" stroke="#323232" stroke-linecap="round" stroke-linejoin="round" stroke-width="1.5"/><path d="M0,0H24V24H0Z" fill="none"/></svg>