<?xml version="1.0" encoding="utf-8"?>
<!-- Generator: Adobe Illustrator 24.0.2, SVG Export Plug-In . SVG Version: 6.00 Build 0)  -->
<svg version="1.1" id="Layer_1" xmlns="http://www.w3.org/2000/svg" xmlns:xlink="http://www.w3.org/1999/xlink" x="0px" y="0px"
	 width="24px" height="24px" viewBox="0 0 24 24" enable-background="new 0 0 24 24" xml:space="preserve">
<g>
	<g>
		<path fill="none" stroke="#323232" stroke-width="1.5" stroke-linecap="round" stroke-linejoin="round" d="M11.998,14.84
			l2.083,1.094c0.406,0.214,0.879-0.132,0.802-0.583l-0.398-2.319l1.685-1.641c0.329-0.319,0.147-0.877-0.306-0.942l-2.329-0.338
			l-1.041-2.111c-0.203-0.411-0.789-0.411-0.991,0l-1.041,2.111l-2.329,0.338c-0.453,0.066-0.635,0.623-0.306,0.942l1.685,1.641
			l-0.399,2.32c-0.077,0.451,0.396,0.795,0.802,0.583l2.083-1.094"/>
		<path fill="none" stroke="#323232" stroke-width="1.5" stroke-linecap="round" stroke-linejoin="round" d="M18.364,5.654
			c3.575,3.575,3.514,9.408-0.183,12.906c-3.413,3.229-8.949,3.229-12.362,0C2.122,15.062,2.061,9.229,5.636,5.654
			C9.151,2.139,14.849,2.139,18.364,5.654"/>
	</g>
	<path fill="none" d="M0,0h24v24H0V0z"/>
</g>
</svg>
