<svg id="Layer_3" data-name="Layer 3" xmlns="http://www.w3.org/2000/svg" viewBox="0 0 24 24"><title>Artboard 201</title><rect width="24" height="24" fill="none"/><circle cx="12" cy="12" r="9" fill="none" stroke="#323232" stroke-linecap="round" stroke-linejoin="round" stroke-width="1.5"/><path d="M17.333,12.833a1.5,1.5,0,0,1-1.5-1.5,1.5,1.5,0,0,1-1.5,1.5,1.5,1.5,0,0,1,1.5,1.5A1.5,1.5,0,0,1,17.333,12.833Z" fill="none" stroke="#323232" stroke-linecap="round" stroke-linejoin="round" stroke-width="1.5"/><path d="M13.333,8.167a1.5,1.5,0,0,1-1.5-1.5,1.5,1.5,0,0,1-1.5,1.5,1.5,1.5,0,0,1,1.5,1.5A1.5,1.5,0,0,1,13.333,8.167Z" fill="none" stroke="#323232" stroke-linecap="round" stroke-linejoin="round" stroke-width="1.5"/><path d="M10.667,14.833a1.5,1.5,0,0,1-1.5-1.5,1.5,1.5,0,0,1-1.5,1.5,1.5,1.5,0,0,1,1.5,1.5A1.5,1.5,0,0,1,10.667,14.833Z" fill="none" stroke="#323232" stroke-linecap="round" stroke-linejoin="round" stroke-width="1.5"/></svg>