<svg id="Layer_3" data-name="Layer 3" xmlns="http://www.w3.org/2000/svg" viewBox="0 0 24 24"><title>Artboard 122</title><path d="M11.377,17.952,7.682,19.868a1.143,1.143,0,0,1-1.663-1.192l.825-4.744L3.349,10.573a1.127,1.127,0,0,1,.634-1.93l4.83-.692,2.157-4.32a1.153,1.153,0,0,1,2.056,0l2.162,4.32,4.83.69a1.127,1.127,0,0,1,.635,1.929l-1.972,1.895" fill="none" stroke="#323232" stroke-linecap="round" stroke-linejoin="round" stroke-width="1.5"/><path d="M18.592,15.408a2.69,2.69,0,1,1-3.8,0,2.689,2.689,0,0,1,3.8,0" fill="none" stroke="#323232" stroke-linecap="round" stroke-linejoin="round" stroke-width="1.5"/><line x1="20.38" y1="21" x2="18.592" y2="19.212" fill="none" stroke="#323232" stroke-linecap="round" stroke-linejoin="round" stroke-width="1.5"/><path d="M0,0H24V24H0Z" fill="none"/></svg>