<svg id="Layer_3" data-name="Layer 3" xmlns="http://www.w3.org/2000/svg" viewBox="0 0 24 24"><title>Artboard 129</title><path d="M3,16.792a4,4,0,0,1,4,4,4,4,0,0,1,4-4,4,4,0,0,1-4-4A4,4,0,0,1,3,16.792Z" fill="none" stroke="#323232" stroke-linecap="round" stroke-linejoin="round" stroke-width="1.5"/><path d="M13,13.792a4,4,0,0,1,4,4,4,4,0,0,1,4-4,4,4,0,0,1-4-4A4,4,0,0,1,13,13.792Z" fill="none" stroke="#323232" stroke-linecap="round" stroke-linejoin="round" stroke-width="1.5"/><path d="M7,6.792a4,4,0,0,1,4,4,4,4,0,0,1,4-4,4,4,0,0,1-4-4A4,4,0,0,1,7,6.792Z" fill="none" stroke="#323232" stroke-linecap="round" stroke-linejoin="round" stroke-width="1.5"/><path d="M0,0H24V24H0Z" fill="none"/></svg>