<svg id="Layer_3" data-name="Layer 3" xmlns="http://www.w3.org/2000/svg" viewBox="0 0 24 24"><title>Artboard 217</title><path d="M0,0H24V24H0Z" fill="none"/><path d="M7.733,20.829a1.5,1.5,0,0,1-2.171-1.592L6.371,14.6,2.965,11.336a1.5,1.5,0,0,1,.827-2.571l4.729-.676L10.656,3.83a1.5,1.5,0,0,1,2.688,0l2.135,4.259,4.729.676a1.5,1.5,0,0,1,.827,2.571L17.629,14.6l.809,4.638a1.5,1.5,0,0,1-2.171,1.592L12,18.625Z" fill="none" stroke="#323232" stroke-linecap="round" stroke-linejoin="round" stroke-width="1.5"/></svg>