<?xml version="1.0" encoding="utf-8"?>
<!-- Generator: Adobe Illustrator 24.0.2, SVG Export Plug-In . SVG Version: 6.00 Build 0)  -->
<svg version="1.1" id="Layer_1" xmlns="http://www.w3.org/2000/svg" xmlns:xlink="http://www.w3.org/1999/xlink" x="0px" y="0px"
	 width="24px" height="24px" viewBox="0 0 24 24" enable-background="new 0 0 24 24" xml:space="preserve">
<g>
	<path fill="none" d="M0,0h24v24H0V0z"/>
	<g>
		<path fill="none" stroke="#323232" stroke-width="1.5" stroke-linecap="round" stroke-linejoin="round" d="M16,22
			c-2.761,0-5-2.239-5-5s2.239-5,5-5c2.762,0,5,2.239,5,5S18.762,22,16,22"/>
		<path fill="none" stroke="#323232" stroke-width="1.5" stroke-linecap="round" stroke-linejoin="round" d="M11.344,18.832
			L7.456,20.86c-0.884,0.461-1.919-0.283-1.75-1.262l0.868-5.023l-3.678-3.557c-0.718-0.693-0.322-1.901,0.668-2.043l5.082-0.733
			l2.27-4.574c0.441-0.891,1.721-0.891,2.164,0l2.274,4.574l5.082,0.731c0.99,0.142,1.384,1.35,0.668,2.043l-2.075,2.007"/>
		<g>
			<path fill="none" stroke="#323232" stroke-width="1.5" stroke-linecap="round" stroke-linejoin="round" d="M18.222,15.889
				l-2.778,2.778L13.778,17"/>
		</g>
	</g>
</g>
</svg>
