<svg id="Layer_3" data-name="Layer 3" xmlns="http://www.w3.org/2000/svg" viewBox="0 0 24 24"><title>Artboard 185</title><path d="M12,16a4,4,0,0,1,4-4,4,4,0,0,1-4-4,4,4,0,0,1-4,4A4,4,0,0,1,12,16Z" fill="none" stroke="#323232" stroke-linecap="round" stroke-linejoin="round" stroke-width="1.5"/><path d="M18.937,8.062a3,3,0,0,1,3-3,3,3,0,0,1-3-3,3,3,0,0,1-3,3A3,3,0,0,1,18.937,8.062Z" fill="none" stroke="#323232" stroke-linecap="round" stroke-linejoin="round" stroke-width="1.5"/><path d="M21,11v6a4,4,0,0,1-4,4H7a4,4,0,0,1-4-4V7A4,4,0,0,1,7,3h6" fill="none" stroke="#323232" stroke-linecap="round" stroke-linejoin="round" stroke-width="1.5"/><rect width="24" height="24" fill="none"/></svg>