<svg id="Layer_3" data-name="Layer 3" xmlns="http://www.w3.org/2000/svg" viewBox="0 0 24 24"><title>star-square</title><path d="M12,17h0a.317.317,0,0,0,.314-.275l.148-1.106a3.675,3.675,0,0,1,3.157-3.157l1.106-.148A.317.317,0,0,0,17,12h0a.317.317,0,0,0-.275-.314l-1.106-.148a3.675,3.675,0,0,1-3.157-3.157l-.148-1.106A.317.317,0,0,0,12,7h0a.317.317,0,0,0-.314.275l-.148,1.106a3.675,3.675,0,0,1-3.157,3.157l-1.106.148A.317.317,0,0,0,7,12H7a.317.317,0,0,0,.275.314l1.106.148a3.675,3.675,0,0,1,3.157,3.157l.148,1.106A.317.317,0,0,0,12,17Z" fill="none" stroke="#323232" stroke-linecap="round" stroke-linejoin="round" stroke-width="1.5"/><rect x="3" y="3" width="18" height="18" rx="5" stroke-width="1.5" stroke="#323232" stroke-linecap="round" stroke-linejoin="round" fill="none"/><path d="M0,0H24V24H0Z" fill="none"/></svg>