<svg id="Layer_3" data-name="Layer 3" xmlns="http://www.w3.org/2000/svg" viewBox="0 0 24 24"><title>star-favorite-circle</title><path d="M10.519,16.568l.744-.391a1.583,1.583,0,0,1,1.475,0l.744.391a1.587,1.587,0,0,0,1.67-.12h0a1.583,1.583,0,0,0,.63-1.549l-.142-.829a1.586,1.586,0,0,1,.456-1.4l.6-.586a1.584,1.584,0,0,0,.4-1.624h0a1.585,1.585,0,0,0-1.28-1.079l-.832-.121a1.584,1.584,0,0,1-1.194-.867l-.374-.756A1.583,1.583,0,0,0,12,6.75h0a1.583,1.583,0,0,0-1.42.883l-.372.754a1.586,1.586,0,0,1-1.194.868l-.832.12A1.587,1.587,0,0,0,6.9,10.454h0a1.584,1.584,0,0,0,.4,1.624l.6.587a1.585,1.585,0,0,1,.456,1.4l-.142.829a1.585,1.585,0,0,0,.631,1.551h0A1.585,1.585,0,0,0,10.519,16.568Z" fill="none" stroke="#323232" stroke-linecap="round" stroke-linejoin="round" stroke-width="1.5"/><circle cx="12" cy="12" r="9" fill="none" stroke="#323232" stroke-linecap="round" stroke-linejoin="round" stroke-width="1.5"/><path d="M0,0H24V24H0Z" fill="none"/></svg>