<svg id="Layer_3" data-name="Layer 3" xmlns="http://www.w3.org/2000/svg" viewBox="0 0 24 24"><title>Artboard 337</title><rect width="24" height="24" fill="none"/><path d="M12,16a4,4,0,0,1,4-4,4,4,0,0,1-4-4,4,4,0,0,1-4,4A4,4,0,0,1,12,16Z" fill="none" stroke="#323232" stroke-linecap="round" stroke-linejoin="round" stroke-width="1.5"/><path d="M21,12a9,9,0,1,1-9-9" fill="none" stroke="#323232" stroke-linecap="round" stroke-linejoin="round" stroke-width="1.5"/><path d="M19,8a3,3,0,0,1,3-3,3,3,0,0,1-3-3,3,3,0,0,1-3,3A3,3,0,0,1,19,8Z" fill="none" stroke="#323232" stroke-linecap="round" stroke-linejoin="round" stroke-width="1.5"/></svg>