<svg id="Layer_3" data-name="Layer 3" xmlns="http://www.w3.org/2000/svg" viewBox="0 0 24 24"><title>star-favorite-notification</title><path d="M10.718,8.9a.873.873,0,0,1,1.564,0l.635,1.293a.871.871,0,0,0,.661.477l1.427.207a.872.872,0,0,1,.482,1.487l-1.032,1.007a.873.873,0,0,0-.25.771l.244,1.417a.873.873,0,0,1-1.265.92l-1.277-.672a.872.872,0,0,0-.81,0L9.82,16.48a.873.873,0,0,1-1.265-.92L8.8,14.143a.876.876,0,0,0-.25-.771L7.514,12.365A.872.872,0,0,1,8,10.878l1.427-.207a.873.873,0,0,0,.661-.477Z" fill="none" stroke="#323232" stroke-linecap="round" stroke-linejoin="round" stroke-width="1.5"/><path d="M21.117,2.883a3.014,3.014,0,1,1-4.262,0,3.014,3.014,0,0,1,4.262,0" fill="none" stroke="#323232" stroke-linecap="round" stroke-linejoin="round" stroke-width="1.5"/><path d="M20,11v5.278A4.722,4.722,0,0,1,15.278,21H7.722A4.722,4.722,0,0,1,3,16.278V8.722A4.722,4.722,0,0,1,7.722,4H13" fill="none" stroke="#323232" stroke-linecap="round" stroke-linejoin="round" stroke-width="1.5"/><rect width="24" height="24" fill="none"/></svg>