<svg id="Layer_3" data-name="Layer 3" xmlns="http://www.w3.org/2000/svg" viewBox="0 0 24 24"><title>star-favorite-bookmark-square</title><path d="M11.172,8.189a.924.924,0,0,1,1.656,0L13.5,9.558a.922.922,0,0,0,.7.505l1.511.22a.923.923,0,0,1,.511,1.574l-1.093,1.066a.926.926,0,0,0-.265.817l.258,1.5a.924.924,0,0,1-1.339.974l-1.352-.711a.923.923,0,0,0-.858,0l-1.352.711a.924.924,0,0,1-1.339-.974l.258-1.5a.926.926,0,0,0-.265-.817L7.78,11.857a.923.923,0,0,1,.511-1.574l1.511-.22a.922.922,0,0,0,.7-.505Z" fill="none" stroke="#323232" stroke-linecap="round" stroke-linejoin="round" stroke-width="1.5"/><rect x="3" y="3" width="18" height="18" rx="5" stroke-width="1.5" stroke="#323232" stroke-linecap="round" stroke-linejoin="round" fill="none"/><rect width="24" height="24" fill="none"/></svg>