<svg id="Layer_3" data-name="Layer 3" xmlns="http://www.w3.org/2000/svg" viewBox="0 0 24 24"><title>star-favorite-cross-disabled</title><path d="M0,0H24V24H0Z" fill="none"/><path d="M7.458,20.86A1.2,1.2,0,0,1,5.708,19.6l.868-5.023L2.9,11.018a1.2,1.2,0,0,1,.668-2.043l5.082-.733,2.27-4.574a1.21,1.21,0,0,1,2.164,0l2.27,4.574,5.082.733a1.2,1.2,0,0,1,.668,2.043l-3.678,3.557.868,5.023a1.2,1.2,0,0,1-1.75,1.262L12,18.491Z" fill="none" stroke="#323232" stroke-linecap="round" stroke-linejoin="round" stroke-width="1.5"/><path d="M13.25,11.458l-2.5,2.5" fill="none" stroke="#323232" stroke-linecap="round" stroke-linejoin="round" stroke-width="1.5"/><path d="M10.75,11.458l2.5,2.5" fill="none" stroke="#323232" stroke-linecap="round" stroke-linejoin="round" stroke-width="1.5"/></svg>