<svg id="Layer_3" data-name="Layer 3" xmlns="http://www.w3.org/2000/svg" viewBox="0 0 24 24"><title>Artboard 167</title><rect width="24" height="24" fill="none"/><rect x="3" y="3" width="18" height="18" rx="5" stroke-width="1.5" stroke="#323232" stroke-linecap="round" stroke-linejoin="round" fill="none"/><path d="M16.833,13.333a1.5,1.5,0,0,1-1.5-1.5,1.5,1.5,0,0,1-1.5,1.5,1.5,1.5,0,0,1,1.5,1.5A1.5,1.5,0,0,1,16.833,13.333Z" fill="none" stroke="#323232" stroke-linecap="round" stroke-linejoin="round" stroke-width="1.5"/><path d="M12.833,8.667a1.5,1.5,0,0,1-1.5-1.5,1.5,1.5,0,0,1-1.5,1.5,1.5,1.5,0,0,1,1.5,1.5A1.5,1.5,0,0,1,12.833,8.667Z" fill="none" stroke="#323232" stroke-linecap="round" stroke-linejoin="round" stroke-width="1.5"/><path d="M10.167,15.333a1.5,1.5,0,0,1-1.5-1.5,1.5,1.5,0,0,1-1.5,1.5,1.5,1.5,0,0,1,1.5,1.5A1.5,1.5,0,0,1,10.167,15.333Z" fill="none" stroke="#323232" stroke-linecap="round" stroke-linejoin="round" stroke-width="1.5"/></svg>