<svg id="Layer_3" data-name="Layer 3" xmlns="http://www.w3.org/2000/svg" viewBox="0 0 24 24"><title>Artboard 87</title><path d="M0,0H24V24H0Z" fill="none"/><line x1="21" y1="18" x2="14.471" y2="18" fill="none" stroke="#323232" stroke-linecap="round" stroke-linejoin="round" stroke-width="1.5"/><line x1="21" y1="15" x2="14.471" y2="15" fill="none" stroke="#323232" stroke-linecap="round" stroke-linejoin="round" stroke-width="1.5"/><line x1="18.824" y1="21" x2="14.471" y2="21" fill="none" stroke="#323232" stroke-linecap="round" stroke-linejoin="round" stroke-width="1.5"/><path d="M10.835,17.073l-3.456,1.8a1.07,1.07,0,0,1-1.555-1.122L6.6,13.289,3.326,10.127A1.062,1.062,0,0,1,3.92,8.311L8.437,7.66l2.018-4.066a1.076,1.076,0,0,1,1.924,0L14.4,7.66l4.517.65a1.062,1.062,0,0,1,.594,1.815l-1.845,1.784" fill="none" stroke="#323232" stroke-linecap="round" stroke-linejoin="round" stroke-width="1.5"/></svg>