<svg id="Layer_3" data-name="Layer 3" xmlns="http://www.w3.org/2000/svg" viewBox="0 0 24 24"><title>Artboard 135</title><path d="M0,0H24V24H0Z" fill="none"/><path d="M0,0H24V24H0Z" fill="none"/><path d="M19.052,13.025l2.081-2.013" fill="none" stroke="#323232" stroke-linecap="round" stroke-linejoin="round" stroke-width="1.5"/><path d="M7.442,20.887l3.9-2.034" fill="none" stroke="#323232" stroke-linecap="round" stroke-linejoin="round" stroke-width="1.5"/><path d="M21.133,11.016a1.2,1.2,0,0,0-.67-2.043l-5.1-.731L13.083,3.668a1.215,1.215,0,0,0-2.17,0L8.636,8.242l-5.1.733a1.194,1.194,0,0,0-.67,2.043l3.689,3.557L5.686,19.6A1.208,1.208,0,0,0,7.442,20.86" fill="none" stroke="#323232" stroke-linecap="round" stroke-linejoin="round" stroke-width="1.5"/><line x1="16.012" y1="17.016" x2="19.022" y2="20.025" fill="none" stroke="#323232" stroke-linecap="round" stroke-linejoin="round" stroke-width="1.5"/><line x1="16.012" y1="20.025" x2="19.022" y2="17.016" fill="none" stroke="#323232" stroke-linecap="round" stroke-linejoin="round" stroke-width="1.5"/></svg>