<?xml version="1.0" encoding="utf-8"?>
<!-- Generator: Adobe Illustrator 24.0.2, SVG Export Plug-In . SVG Version: 6.00 Build 0)  -->
<svg version="1.1" id="Layer_1" xmlns="http://www.w3.org/2000/svg" xmlns:xlink="http://www.w3.org/1999/xlink" x="0px" y="0px"
	 width="24px" height="24px" viewBox="0 0 24 24" enable-background="new 0 0 24 24" xml:space="preserve">
<g>
	<g>
		<path fill="none" stroke="#323232" stroke-width="1.5" stroke-linecap="round" stroke-linejoin="round" d="M12.041,15.077
			l2.146,1.127c0.414,0.218,0.898-0.134,0.819-0.596l-0.41-2.39l1.731-1.686c0.337-0.328,0.151-0.9-0.314-0.968l-2.393-0.347
			l-1.072-2.174c-0.207-0.42-0.806-0.42-1.013,0l-1.072,2.174l-2.538,0.368c-0.407,0.059-0.569,0.559-0.275,0.845l1.836,1.788
			l-0.411,2.39c-0.079,0.461,0.405,0.813,0.819,0.596l2.146-1.127"/>
		<g>
			<path fill="none" stroke="#323232" stroke-width="1.5" stroke-linecap="round" stroke-linejoin="round" d="M17,21H7
				c-2.209,0-4-1.791-4-4V7c0-2.209,1.791-4,4-4h10c2.209,0,4,1.791,4,4v10C21,19.209,19.209,21,17,21z"/>
		</g>
	</g>
	<path fill="none" d="M0,0h24v24H0V0z"/>
</g>
</svg>
