<?xml version="1.0" encoding="utf-8"?>
<!-- Generator: Adobe Illustrator 24.0.2, SVG Export Plug-In . SVG Version: 6.00 Build 0)  -->
<svg version="1.1" id="Layer_1" xmlns="http://www.w3.org/2000/svg" xmlns:xlink="http://www.w3.org/1999/xlink" x="0px" y="0px"
	 width="24px" height="24px" viewBox="0 0 24 24" enable-background="new 0 0 24 24" xml:space="preserve">
<g>
	<g>
		<path fill="none" stroke="#323232" stroke-width="1.5" stroke-linecap="round" stroke-linejoin="round" d="M10.459,16.133
			l1.067-0.561c0.297-0.156,0.652-0.156,0.949,0l1.067,0.561c0.344,0.181,0.76,0.151,1.074-0.078l0.398-0.289
			c0.314-0.228,0.471-0.615,0.406-0.997l-0.204-1.188c-0.057-0.331,0.053-0.668,0.293-0.903l0.863-0.841
			c0.278-0.271,0.378-0.676,0.258-1.045l-0.152-0.468c-0.12-0.369-0.439-0.638-0.823-0.694l-1.193-0.173
			C14.13,9.409,13.843,9.2,13.694,8.899L13.16,7.818C12.989,7.47,12.634,7.25,12.246,7.25h-0.492c-0.388,0-0.743,0.22-0.914,0.568
			l-0.533,1.081C10.158,9.2,9.871,9.409,9.539,9.457L8.346,9.63c-0.384,0.056-0.703,0.325-0.823,0.694l-0.152,0.468
			c-0.12,0.369-0.02,0.774,0.258,1.045l0.863,0.841c0.24,0.234,0.35,0.572,0.293,0.903l-0.204,1.188
			c-0.066,0.383,0.092,0.769,0.406,0.997l0.398,0.289C9.699,16.283,10.115,16.313,10.459,16.133z"/>
		<g>
			<path fill="none" stroke="#323232" stroke-width="1.5" stroke-linecap="round" stroke-linejoin="round" d="M17,21H7
				c-2.209,0-4-1.791-4-4V7c0-2.209,1.791-4,4-4h10c2.209,0,4,1.791,4,4v10C21,19.209,19.209,21,17,21z"/>
		</g>
	</g>
	<path fill="none" d="M0,0h24v24H0V0z"/>
</g>
</svg>
