<svg id="Layer_3" data-name="Layer 3" xmlns="http://www.w3.org/2000/svg" viewBox="0 0 24 24"><title>star-light-sparkle-circle</title><circle cx="12" cy="12" r="9" fill="none" stroke="#323232" stroke-linecap="round" stroke-linejoin="round" stroke-width="1.5"/><path d="M11.119,8.522a1,1,0,0,1,1.762,0l.777,1.422a1,1,0,0,0,.4.4l1.422.777a1,1,0,0,1,0,1.762l-1.422.777a1,1,0,0,0-.4.4l-.777,1.422a1,1,0,0,1-1.762,0l-.777-1.422a1,1,0,0,0-.4-.4l-1.422-.777a1,1,0,0,1,0-1.762l1.422-.777a1,1,0,0,0,.4-.4Z" fill="none" stroke="#323232" stroke-miterlimit="10" stroke-width="1.5"/><rect width="24" height="24" fill="none"/></svg>