<svg id="Layer_3" data-name="Layer 3" xmlns="http://www.w3.org/2000/svg" viewBox="0 0 24 24"><title>star</title><path d="M21,12a9,9,0,1,1-9-9" fill="none" stroke="#323232" stroke-linecap="round" stroke-linejoin="round" stroke-width="1.5"/><line x1="20" y1="4" x2="17" y2="7" fill="none" stroke="#323232" stroke-linecap="round" stroke-linejoin="round" stroke-width="1.5"/><line x1="16" y1="3" x2="15" y2="4" fill="none" stroke="#323232" stroke-linecap="round" stroke-linejoin="round" stroke-width="1.5"/><line x1="21" y1="8" x2="20" y2="9" fill="none" stroke="#323232" stroke-linecap="round" stroke-linejoin="round" stroke-width="1.5"/><path d="M13.08648,7.42689l.8268,2.65983,2.65983.8268a.608.608,0,0,1,.17058,1.077l-2.27416,1.60827.0356,2.78514a.608.608,0,0,1-.97155.495l-2.23231-1.66587-2.63783.89452a.608.608,0,0,1-.771-.771l.89452-2.63783L7.12106,10.46642a.608.608,0,0,1,.495-.97155l2.78514.0356L12.0095,7.25631A.608.608,0,0,1,13.08648,7.42689Z" fill="none" stroke="#323232" stroke-linecap="round" stroke-linejoin="round" stroke-width="1.5"/><rect width="24" height="24" fill="none"/></svg>