<?xml version="1.0" encoding="utf-8"?>
<!-- Generator: Adobe Illustrator 24.0.2, SVG Export Plug-In . SVG Version: 6.00 Build 0)  -->
<svg version="1.1" id="Layer_3" xmlns="http://www.w3.org/2000/svg" xmlns:xlink="http://www.w3.org/1999/xlink" x="0px" y="0px"
	 width="24px" height="24px" viewBox="0 0 24 24" enable-background="new 0 0 24 24" xml:space="preserve">
<g>
	<g>
		<path fill="none" stroke="#323232" stroke-width="1.5" stroke-linecap="round" stroke-linejoin="round" d="M8.827,18.657H6.346
			c-0.554,0-1.003-0.449-1.003-1.003v-2.482c0-0.266-0.106-0.521-0.294-0.709l-1.755-1.755c-0.392-0.392-0.392-1.027,0-1.418
			l1.773-1.773c0.177-0.177,0.276-0.416,0.276-0.666V6.346c0-0.554,0.449-1.003,1.003-1.003h2.482c0.266,0,0.521-0.106,0.709-0.294
			l1.755-1.755c0.392-0.392,1.027-0.392,1.418,0l1.755,1.755c0.188,0.188,0.443,0.294,0.709,0.294h2.482
			c0.554,0,1.003,0.449,1.003,1.003v2.482c0,0.266,0.106,0.521,0.294,0.709l1.755,1.755c0.392,0.392,0.392,1.027,0,1.418
			l-1.755,1.755c-0.188,0.188-0.294,0.443-0.294,0.709v2.482c0,0.554-0.449,1.003-1.003,1.003h-2.482
			c-0.266,0-0.521,0.106-0.709,0.294l-1.755,1.755c-0.392,0.392-1.027,0.392-1.418,0l-1.755-1.755
			C9.348,18.762,9.093,18.657,8.827,18.657z"/>
		<g>
			<path fill="none" stroke="#323232" stroke-width="1.5" stroke-linecap="round" stroke-linejoin="round" d="M15,10.5l-3.75,3.75
				L9,12"/>
		</g>
	</g>
	<path fill="none" d="M0,0h24v24H0V0z"/>
</g>
</svg>
