<svg id="Layer_3" data-name="Layer 3" xmlns="http://www.w3.org/2000/svg" viewBox="0 0 24 24"><title>steering-wheel-square</title><path d="M16.243,7.757a6,6,0,1,1-8.486,0,6,6,0,0,1,8.486,0" fill="none" stroke="#323232" stroke-linecap="round" stroke-linejoin="round" stroke-width="1.5"/><path d="M9.429,11.143v1.436a1.711,1.711,0,0,0,.375,1.07l.223.279a1.714,1.714,0,0,0,1.339.643h1.268a1.714,1.714,0,0,0,1.339-.643l.223-.279a1.711,1.711,0,0,0,.375-1.07V11.143a1.714,1.714,0,0,0-1.714-1.714H11.143A1.714,1.714,0,0,0,9.429,11.143Z" fill="none" stroke="#323232" stroke-linecap="round" stroke-linejoin="round" stroke-width="1.5"/><path d="M10.714,14.434v3.42" fill="none" stroke="#323232" stroke-linecap="round" stroke-linejoin="round" stroke-width="1.5"/><path d="M13.286,14.434v3.42" fill="none" stroke="#323232" stroke-linecap="round" stroke-linejoin="round" stroke-width="1.5"/><path d="M6.257,10.286H9.669" fill="none" stroke="#323232" stroke-linecap="round" stroke-linejoin="round" stroke-width="1.5"/><path d="M14.331,10.286h3.412" fill="none" stroke="#323232" stroke-linecap="round" stroke-linejoin="round" stroke-width="1.5"/><path d="M6.069,12.857H9.454" fill="none" stroke="#323232" stroke-linecap="round" stroke-linejoin="round" stroke-width="1.5"/><path d="M14.546,12.857h3.385" fill="none" stroke="#323232" stroke-linecap="round" stroke-linejoin="round" stroke-width="1.5"/><rect x="3" y="3" width="18" height="18" rx="5" stroke-width="1.5" stroke="#323232" stroke-linecap="round" stroke-linejoin="round" fill="none"/><path d="M0,0H24V24H0Z" fill="none"/></svg>