<svg id="Layer_3" data-name="Layer 3" xmlns="http://www.w3.org/2000/svg" viewBox="0 0 24 24"><title>sticker-more-dots</title><path d="M18.172,19.828l1.95-1.95A3,3,0,0,0,21,15.758V8a5,5,0,0,0-5-5H8A5,5,0,0,0,3,8v8a5,5,0,0,0,5,5h7.343A4,4,0,0,0,18.172,19.828Z" fill="none" stroke="#323232" stroke-linecap="round" stroke-linejoin="round" stroke-width="1.5"/><path d="M15,21V17a2,2,0,0,1,2-2h4" fill="none" stroke="#323232" stroke-linecap="round" stroke-linejoin="round" stroke-width="1.5"/><path d="M12,11.931a.068.068,0,0,0-.068.069A.069.069,0,1,0,12,11.931" fill="none" stroke="#323232" stroke-linecap="round" stroke-linejoin="round" stroke-width="1.5"/><path d="M15.368,11.931a.069.069,0,1,0,.069.069.069.069,0,0,0-.069-.069" fill="none" stroke="#323232" stroke-linecap="round" stroke-linejoin="round" stroke-width="1.5"/><path d="M8.631,11.931A.068.068,0,0,0,8.563,12a.069.069,0,1,0,.068-.069" fill="none" stroke="#323232" stroke-linecap="round" stroke-linejoin="round" stroke-width="1.5"/><path d="M0,0H24V24H0Z" fill="none"/></svg>