<?xml version="1.0" encoding="utf-8"?>
<!-- Generator: Adobe Illustrator 24.0.2, SVG Export Plug-In . SVG Version: 6.00 Build 0)  -->
<svg version="1.1" id="Layer_1" xmlns="http://www.w3.org/2000/svg" xmlns:xlink="http://www.w3.org/1999/xlink" x="0px" y="0px"
	 width="24px" height="24px" viewBox="0 0 24 24" enable-background="new 0 0 24 24" xml:space="preserve">
<g>
	<path fill="none" stroke="#323232" stroke-width="1.5" stroke-linecap="round" stroke-linejoin="round" d="M21,13v-1
		c0-3.866-3.134-7-7-7h-1c-0.884,0-1.633-0.573-1.898-1.368C10.971,3.237,10.564,3,10.149,3L9.132,3C8.48,3,7.995,3.618,8.158,4.249
		c0.337,1.307,1.191,2.405,2.329,3.068C10.792,7.495,11,7.795,11,8.148c0,1.499,0,5.438,0,5.438C11,14.367,10.367,15,9.586,15
		c-0.375,0-0.735-0.149-1-0.414l-0.757-0.757c-0.815-0.815-2.077-1.081-3.211-0.56C3.598,13.737,3,14.82,3,15.942L3,19
		c0,0.828,0.672,1.5,1.5,1.5S6,19.828,6,19v-2l2.106,2.106C9.319,20.319,10.963,21,12.678,21h0C17.274,21,21,17.274,21,12.678"/>
	<path fill="none" d="M0,0h24v24H0V0z"/>
</g>
</svg>
