<svg id="Layer_3" data-name="Layer 3" xmlns="http://www.w3.org/2000/svg" viewBox="0 0 24 24"><title>store-checkmark-circle</title><path d="M0,24H24V0H0Z" fill="none"/><circle cx="18" cy="18" r="4" fill="none" stroke="#323232" stroke-linecap="round" stroke-linejoin="round" stroke-width="1.5"/><path d="M19.345,17.208l-1.68,1.679-1.01-1.007" fill="none" stroke="#323232" stroke-linecap="round" stroke-linejoin="round" stroke-width="1.5"/><path d="M14.319,19.581a8.556,8.556,0,1,1,5.258-5.253" fill="none" stroke="#323232" stroke-linecap="round" stroke-linejoin="round" stroke-width="1.5"/><line x1="11.472" y1="15.072" x2="11.472" y2="13.472" fill="none" stroke="#323232" stroke-linecap="round" stroke-linejoin="round" stroke-width="1.5"/><path d="M10.071,10.272h.045a1.335,1.335,0,0,0,1.357.985,1.335,1.335,0,0,0,1.357-.985h.045a1.326,1.326,0,0,0,1.359.986,1.183,1.183,0,0,0,1.114-1.69l-.527-1.039a1.2,1.2,0,0,0-1.071-.657H9.194a1.2,1.2,0,0,0-1.07.657L7.6,9.567a1.183,1.183,0,0,0,1.114,1.69A1.327,1.327,0,0,0,10.071,10.272Z" fill="none" stroke="#323232" stroke-linecap="round" stroke-linejoin="round" stroke-width="1.5"/><path d="M7.827,15.072h4.091" fill="none" stroke="#323232" stroke-linecap="round" stroke-linejoin="round" stroke-width="1.5"/><path d="M8.3,11.191v3.881" fill="none" stroke="#323232" stroke-linecap="round" stroke-linejoin="round" stroke-width="1.5"/><path d="M14.64,12.672V11.191" fill="none" stroke="#323232" stroke-linecap="round" stroke-linejoin="round" stroke-width="1.5"/></svg>