<svg id="Layer_3" data-name="Layer 3" xmlns="http://www.w3.org/2000/svg" viewBox="0 0 24 24"><path d="M15,8.625V9a3,3,0,0,1-3,3h0A3,3,0,0,1,9,9V8.625" fill="none" stroke="#323232" stroke-linecap="round" stroke-linejoin="round" stroke-width="1.5"/><path d="M15,8.625V9a3,3,0,0,0,3,3h.24822A2.75179,2.75179,0,0,0,21,9.24822h0a2.25,2.25,0,0,0-.32064-1.15761L18.28043,4.09238A2.25,2.25,0,0,0,16.35107,3H7.64893A2.25,2.25,0,0,0,5.71957,4.09238L3.32064,8.0906A2.25,2.25,0,0,0,3,9.24821H3A2.75179,2.75179,0,0,0,5.75178,12H6A3,3,0,0,0,9,9V8.625" fill="none" stroke="#323232" stroke-linecap="round" stroke-linejoin="round" stroke-width="1.5"/><path d="M19.875,11.46456V18.75A2.25,2.25,0,0,1,17.625,21H6.375a2.25,2.25,0,0,1-2.25-2.25V11.46436" fill="none" stroke="#323232" stroke-linecap="round" stroke-linejoin="round" stroke-width="1.5"/><line x1="13.6875" y1="16.84375" x2="10.3125" y2="16.84375" fill="none" stroke="#323232" stroke-linecap="round" stroke-linejoin="round" stroke-width="1.5"/><path d="M24,0H0V24H24Z" fill="none"/></svg>