<svg id="Layer_3" data-name="Layer 3" xmlns="http://www.w3.org/2000/svg" viewBox="0 0 24 24"><title>store-customers</title><path d="M8,21H4.714A1.715,1.715,0,0,1,3,19.286V16" fill="none" stroke="#323232" stroke-linecap="round" stroke-linejoin="round" stroke-width="1.5"/><path d="M16,4h3.286A1.715,1.715,0,0,1,21,5.714V9" fill="none" stroke="#323232" stroke-linecap="round" stroke-linejoin="round" stroke-width="1.5"/><path d="M13.5,20.5v-.406A2.1,2.1,0,0,1,15.594,18h3.312A2.1,2.1,0,0,1,21,20.094V20.5a.5.5,0,0,1-.5.5H14A.5.5,0,0,1,13.5,20.5Z" fill="none" stroke="#323232" stroke-linecap="round" stroke-linejoin="round" stroke-width="1.5"/><path d="M15.25,13.492a2,2,0,1,1,2,2.008A2,2,0,0,1,15.25,13.492Z" fill="none" stroke="#323232" stroke-linecap="round" stroke-linejoin="round" stroke-width="1.5"/><path d="M3.6,6.148V11" fill="none" stroke="#323232" stroke-linecap="round" stroke-linejoin="round" stroke-width="1.5"/><path d="M11.516,8V6.148" fill="none" stroke="#323232" stroke-linecap="round" stroke-linejoin="round" stroke-width="1.5"/><path d="M5.8,5h.057a1.669,1.669,0,0,0,1.7,1.231A1.669,1.669,0,0,0,9.253,5H9.31a1.657,1.657,0,0,0,1.7,1.232A1.48,1.48,0,0,0,12.4,4.119l-.659-1.3A1.5,1.5,0,0,0,10.4,2h-5.7a1.5,1.5,0,0,0-1.338.821l-.658,1.3A1.479,1.479,0,0,0,4.1,6.231,1.659,1.659,0,0,0,5.8,5Z" fill="none" stroke="#323232" stroke-linecap="round" stroke-linejoin="round" stroke-width="1.5"/><path d="M11.516,11V6.148" fill="none" stroke="#323232" stroke-linecap="round" stroke-linejoin="round" stroke-width="1.5"/><line x1="7.556" y1="11" x2="7.556" y2="9" fill="none" stroke="#323232" stroke-linecap="round" stroke-linejoin="round" stroke-width="1.5"/><path d="M3,11h9.112" fill="none" stroke="#323232" stroke-linecap="round" stroke-linejoin="round" stroke-width="1.5"/><path d="M24,24H0V0H24Z" fill="none"/></svg>