<?xml version="1.0" encoding="utf-8"?>
<!-- Generator: Adobe Illustrator 24.0.2, SVG Export Plug-In . SVG Version: 6.00 Build 0)  -->
<svg version="1.1" id="Layer_3" xmlns="http://www.w3.org/2000/svg" xmlns:xlink="http://www.w3.org/1999/xlink" x="0px" y="0px"
	 width="24px" height="24px" viewBox="0 0 24 24" enable-background="new 0 0 24 24" xml:space="preserve">
<g>
	<g>
		<path fill="none" d="M24,0L0,0l0,24h24V0z"/>
		<path fill="none" d="M0,24h24V0L0,0V24z"/>
	</g>
	<g>
		<path fill="none" stroke="#323232" stroke-width="1.5" stroke-linecap="round" stroke-linejoin="round" d="M10,20.91H3"/>
		<path fill="none" stroke="#323232" stroke-width="1.5" stroke-linecap="round" stroke-linejoin="round" d="M18.853,15.006
			c1.483,1.483,1.323,3.984-0.478,5.249c-1.146,0.804-2.747,0.804-3.893,0c-1.802-1.264-1.961-3.766-0.478-5.249
			C15.344,13.667,17.515,13.667,18.853,15.006"/>
		<path fill="none" stroke="#323232" stroke-width="1.5" stroke-linecap="round" stroke-linejoin="round" d="M21,22l-2.148-2.148"/>
		<path fill="none" stroke="#323232" stroke-width="1.5" stroke-linecap="round" stroke-linejoin="round" d="M4.22,10.78v10.13"/>
		<path fill="none" stroke="#323232" stroke-width="1.5" stroke-linecap="round" stroke-linejoin="round" d="M19.699,10.778
			c1.698-0.012,2.805-1.693,2.069-3.142l-1.716-3.377C19.662,3.489,18.84,3,17.938,3L6.062,3C5.16,3,4.338,3.489,3.947,4.259
			L2.231,7.636c-0.736,1.449,0.371,3.13,2.069,3.142c1.417,0,2.566-0.968,2.566-2.163V8.567c0,1.221,1.149,2.211,2.566,2.211
			c1.419,0,2.568-0.99,2.568-2.211c0,1.221,1.149,2.211,2.566,2.211s2.566-0.99,2.566-2.211v0.048
			C17.133,9.81,18.282,10.778,19.699,10.778z"/>
	</g>
</g>
</svg>
