<svg id="Layer_3" data-name="Layer 3" xmlns="http://www.w3.org/2000/svg" viewBox="0 0 24 24"><title>store-warning</title><path d="M0,0H24V24H0Z" fill="none"/><path d="M16,3h3.286A1.714,1.714,0,0,1,21,4.714V8" fill="none" stroke="#323232" stroke-linecap="round" stroke-linejoin="round" stroke-width="1.5"/><path d="M8,21H4.714A1.714,1.714,0,0,1,3,19.286V16" fill="none" stroke="#323232" stroke-linecap="round" stroke-linejoin="round" stroke-width="1.5"/><path d="M18.694,12.605l3.046,5.413A2,2,0,0,1,20,21H13.905a2,2,0,0,1-1.743-2.981l3.046-5.414A2,2,0,0,1,18.694,12.605Z" fill="none" stroke="#323232" stroke-linecap="round" stroke-linejoin="round" stroke-width="1.5"/><path d="M16.951,16.42V14.585" fill="none" stroke="#323232" stroke-linecap="round" stroke-linejoin="round" stroke-width="1.5"/><path d="M16.95,18.445a.09.09,0,0,0-.09.091.091.091,0,1,0,.09-.091" fill="none" stroke="#323232" stroke-linecap="round" stroke-linejoin="round" stroke-width="1.5"/><path d="M3.6,6.148V11" fill="none" stroke="#323232" stroke-linecap="round" stroke-linejoin="round" stroke-width="1.5"/><path d="M11.516,8V6.148" fill="none" stroke="#323232" stroke-linecap="round" stroke-linejoin="round" stroke-width="1.5"/><path d="M5.8,5h.057a1.669,1.669,0,0,0,1.7,1.231A1.669,1.669,0,0,0,9.253,5H9.31a1.657,1.657,0,0,0,1.7,1.232A1.48,1.48,0,0,0,12.4,4.119l-.659-1.3A1.5,1.5,0,0,0,10.4,2h-5.7a1.5,1.5,0,0,0-1.338.821l-.658,1.3A1.479,1.479,0,0,0,4.1,6.231,1.659,1.659,0,0,0,5.8,5Z" fill="none" stroke="#323232" stroke-linecap="round" stroke-linejoin="round" stroke-width="1.5"/><path d="M11.516,11V6.148" fill="none" stroke="#323232" stroke-linecap="round" stroke-linejoin="round" stroke-width="1.5"/><line x1="7.556" y1="11" x2="7.556" y2="9" fill="none" stroke="#323232" stroke-linecap="round" stroke-linejoin="round" stroke-width="1.5"/><path d="M3,11h9.112" fill="none" stroke="#323232" stroke-linecap="round" stroke-linejoin="round" stroke-width="1.5"/></svg>