<svg id="Layer_3" data-name="Layer 3" xmlns="http://www.w3.org/2000/svg" viewBox="0 0 24 24"><title>store-chart-Graph</title><path d="M8,21H4.714A1.715,1.715,0,0,1,3,19.286V16" fill="none" stroke="#323232" stroke-linecap="round" stroke-linejoin="round" stroke-width="1.5"/><path d="M16,4h3.286A1.715,1.715,0,0,1,21,5.714V9" fill="none" stroke="#323232" stroke-linecap="round" stroke-linejoin="round" stroke-width="1.5"/><rect x="12" y="17.25" width="3" height="3.75" stroke-width="1.5" stroke="#323232" stroke-linecap="round" stroke-linejoin="round" fill="none"/><rect x="15" y="13" width="3" height="8" stroke-width="1.5" stroke="#323232" stroke-linecap="round" stroke-linejoin="round" fill="none"/><path d="M3.1,7.178V12" fill="none" stroke="#323232" stroke-linecap="round" stroke-linejoin="round" stroke-width="1.5"/><path d="M11.1,12V7.108" fill="none" stroke="#323232" stroke-linecap="round" stroke-linejoin="round" stroke-width="1.5"/><line x1="7" y1="12" x2="7" y2="10" fill="none" stroke="#323232" stroke-linecap="round" stroke-linejoin="round" stroke-width="1.5"/><path d="M2.6,12h8.96" fill="none" stroke="#323232" stroke-linecap="round" stroke-linejoin="round" stroke-width="1.5"/><path d="M7,7.237A1.741,1.741,0,0,0,8.649,6.055a.1.1,0,0,1,.183,0,1.743,1.743,0,0,0,1.65,1.182" fill="none" stroke="#323232" stroke-linecap="round" stroke-linejoin="round" stroke-width="1.5"/><path d="M3.518,7.237a1.743,1.743,0,0,0,1.65-1.182.1.1,0,0,1,.183,0A1.741,1.741,0,0,0,7,7.237" fill="none" stroke="#323232" stroke-linecap="round" stroke-linejoin="round" stroke-width="1.5"/><path d="M10.482,7.237a1.517,1.517,0,0,0,1.352-2.2l-.659-1.3A1.349,1.349,0,0,0,9.972,3H4.028a1.349,1.349,0,0,0-1.2.738l-.658,1.3a1.516,1.516,0,0,0,1.351,2.2h0" fill="none" stroke="#323232" stroke-linecap="round" stroke-linejoin="round" stroke-width="1.5"/><rect x="18" y="15.25" width="3" height="5.75" stroke-width="1.5" stroke="#323232" stroke-linecap="round" stroke-linejoin="round" fill="none"/><path d="M0,24V0H24V24" fill="none"/></svg>