<svg id="Layer_3" data-name="Layer 3" xmlns="http://www.w3.org/2000/svg" viewBox="0 0 24 24"><path d="M0,0H24V24H0Z" fill="none"/><path d="M14,19.91h7" fill="none" stroke="#323232" stroke-linecap="round" stroke-linejoin="round" stroke-width="1.5"/><path d="M19.78,9.78V19.91" fill="none" stroke="#323232" stroke-linecap="round" stroke-linejoin="round" stroke-width="1.5"/><path d="M13,13h3v3H14" fill="none" stroke="#323232" stroke-linecap="round" stroke-linejoin="round" stroke-width="1.5"/><path d="M14.58248,9.78417a2.58272,2.58272,0,0,1-2.58272-2.58272,2.58322,2.58322,0,0,1-5.16644,0A2.58251,2.58251,0,0,1,4.2506,9.78017h0A2.25063,2.25063,0,0,1,2.244,6.51026l1.73549-3.416A2.00056,2.00056,0,0,1,5.763,2H18.23649A2.00057,2.00057,0,0,1,20.02,3.0943l1.73549,3.416a2.25064,2.25064,0,0,1-2.00656,3.26991h0v.004h0A2.58272,2.58272,0,0,1,17.1662,7.20145a2.58273,2.58273,0,0,1-2.58372,2.57872" fill="none" stroke="#323232" stroke-linecap="round" stroke-linejoin="round" stroke-width="1.5"/><circle cx="6.5" cy="17.5" r="4.5" fill="none" stroke="#323232" stroke-linecap="round" stroke-linejoin="round" stroke-width="1.5"/><polyline points="6.199 15.518 6.199 17.801 8.094 17.801" fill="none" stroke="#323232" stroke-linecap="round" stroke-linejoin="round" stroke-width="1.5"/></svg>