<svg id="Layer_3" data-name="Layer 3" xmlns="http://www.w3.org/2000/svg" viewBox="0 0 24 24"><path d="M8.5,3V4.8a.557.557,0,0,0,.5.6h4a.557.557,0,0,0,.5-.6V3" fill="none" stroke="#323232" stroke-linecap="round" stroke-linejoin="round" stroke-width="1.5"/><path d="M8,21H7a2,2,0,0,1-2-2V5A2,2,0,0,1,7,3h8a2,2,0,0,1,2,2V9" fill="none" stroke="#323232" stroke-linecap="round" stroke-linejoin="round" stroke-width="1.5"/><path d="M12,16.14909V21" fill="none" stroke="#323232" stroke-linecap="round" stroke-linejoin="round" stroke-width="1.5"/><path d="M20,21V16.14909" fill="none" stroke="#323232" stroke-linecap="round" stroke-linejoin="round" stroke-width="1.5"/><line x1="16" y1="21" x2="16" y2="19" fill="none" stroke="#323232" stroke-linecap="round" stroke-linejoin="round" stroke-width="1.5"/><path d="M11.52,21h8.96" fill="none" stroke="#323232" stroke-linecap="round" stroke-linejoin="round" stroke-width="1.5"/><path d="M12.516,16.24246h0a1.51759,1.51759,0,0,1-1.35242-2.20231l.65869-1.30137A1.35042,1.35042,0,0,1,13.02353,12h5.95026a1.3504,1.3504,0,0,1,1.20427.73778l.65869,1.30136a1.5176,1.5176,0,0,1-1.35242,2.20232,1.74384,1.74384,0,0,1-1.65174-1.18324.1001.1001,0,0,0-.18319,0,1.74309,1.74309,0,0,1-3.30148,0,.1001.1001,0,0,0-.18319,0A1.74484,1.74484,0,0,1,12.513,16.24146" fill="none" stroke="#323232" stroke-linecap="round" stroke-linejoin="round" stroke-width="1.5"/><path d="M0,0H24V24H0Z" fill="none"/></svg>