<svg id="Layer_3" data-name="Layer 3" xmlns="http://www.w3.org/2000/svg" viewBox="0 0 24 24"><title>stores-shop-more-dots</title><path d="M14,19.91h7" fill="none" stroke="#323232" stroke-linecap="round" stroke-linejoin="round" stroke-width="1.5"/><path d="M19.78,9.78V19.91" fill="none" stroke="#323232" stroke-linecap="round" stroke-linejoin="round" stroke-width="1.5"/><path d="M13,13h3v3H14" fill="none" stroke="#323232" stroke-linecap="round" stroke-linejoin="round" stroke-width="1.5"/><path d="M4.3,9.778A2.2,2.2,0,0,1,2.232,6.636L3.948,3.259A2.358,2.358,0,0,1,6.062,2H17.938a2.361,2.361,0,0,1,2.115,1.259l1.716,3.377A2.2,2.2,0,0,1,19.7,9.778a2.39,2.39,0,0,1-2.566-2.163V7.567a2.409,2.409,0,0,1-2.566,2.211A2.409,2.409,0,0,1,12,7.567,2.409,2.409,0,0,1,9.434,9.778,2.409,2.409,0,0,1,6.868,7.567v.048A2.392,2.392,0,0,1,4.3,9.778Z" fill="none" stroke="#323232" stroke-linecap="round" stroke-linejoin="round" stroke-width="1.5"/><path d="M0,0H24V24H0Z" fill="none"/><path d="M6.5,13A4.5,4.5,0,1,1,2,17.5,4.5,4.5,0,0,1,6.5,13" fill="none" stroke="#323232" stroke-linecap="round" stroke-linejoin="round" stroke-width="1.5"/><path d="M7.722,17.45a.05.05,0,1,0,.05.05.05.05,0,0,0-.05-.05" fill="none" stroke="#323232" stroke-linecap="round" stroke-linejoin="round" stroke-width="1.5"/><path d="M5.277,17.45a.049.049,0,0,0-.049.049h0a.05.05,0,1,0,.05-.05" fill="none" stroke="#323232" stroke-linecap="round" stroke-linejoin="round" stroke-width="1.5"/></svg>