<svg id="Layer_3" data-name="Layer 3" xmlns="http://www.w3.org/2000/svg" viewBox="0 0 24 24"><title>store-refresh-arrows</title><path d="M24,0H0V24H24Z" fill="none"/><path d="M0,24H24V0H0Z" fill="none"/><path d="M11,20.91H3" fill="none" stroke="#323232" stroke-linecap="round" stroke-linejoin="round" stroke-width="1.5"/><path d="M4.22,10.78V20.91" fill="none" stroke="#323232" stroke-linecap="round" stroke-linejoin="round" stroke-width="1.5"/><path d="M19.7,10.778a2.2,2.2,0,0,0,2.069-3.142L20.052,4.259A2.358,2.358,0,0,0,17.938,3H6.062A2.361,2.361,0,0,0,3.947,4.259L2.231,7.636A2.2,2.2,0,0,0,4.3,10.778,2.39,2.39,0,0,0,6.866,8.615V8.567a2.409,2.409,0,0,0,2.566,2.211A2.409,2.409,0,0,0,12,8.567a2.409,2.409,0,0,0,2.566,2.211,2.409,2.409,0,0,0,2.566-2.211v.048A2.392,2.392,0,0,0,19.7,10.778Z" fill="none" stroke="#323232" stroke-linecap="round" stroke-linejoin="round" stroke-width="1.5"/><line x1="20" y1="13" x2="20.016" y2="10.78" fill="none" stroke="#323232" stroke-linecap="round" stroke-linejoin="round" stroke-width="1.5"/><path d="M21,17.79l-1.07-1.07-1.07,1.07" fill="none" stroke="#323232" stroke-linecap="round" stroke-linejoin="round" stroke-width="1.5"/><path d="M19.93,16.72v2.853A1.431,1.431,0,0,1,18.5,21H16" fill="none" stroke="#323232" stroke-linecap="round" stroke-linejoin="round" stroke-width="1.5"/><path d="M13,18.21l1.07,1.07,1.07-1.07" fill="none" stroke="#323232" stroke-linecap="round" stroke-linejoin="round" stroke-width="1.5"/><path d="M14.07,19.28V16.427A1.426,1.426,0,0,1,15.5,15H18" fill="none" stroke="#323232" stroke-linecap="round" stroke-linejoin="round" stroke-width="1.5"/></svg>