<?xml version="1.0" encoding="utf-8"?>
<!-- Generator: Adobe Illustrator 24.0.2, SVG Export Plug-In . SVG Version: 6.00 Build 0)  -->
<svg version="1.1" id="Layer_1" xmlns="http://www.w3.org/2000/svg" xmlns:xlink="http://www.w3.org/1999/xlink" x="0px" y="0px"
	 width="24px" height="24px" viewBox="0 0 24 24" enable-background="new 0 0 24 24" xml:space="preserve">
<g>
	<g>
		<path fill="none" d="M0,0h24v24H0V0z"/>
	</g>
	<g>
		<path fill="none" stroke="#323232" stroke-width="1.5" stroke-linecap="round" stroke-linejoin="round" d="M8.04,11.648V16.5"/>
		<path fill="none" stroke="#323232" stroke-width="1.5" stroke-linecap="round" stroke-linejoin="round" d="M15.96,13.5v-1.852"/>
		<g>
			<path fill="none" stroke="#323232" stroke-width="1.5" stroke-linecap="round" stroke-linejoin="round" d="M10.248,10.5h0.057
				c0.141,0.699,0.844,1.231,1.696,1.231c0.852,0,1.555-0.532,1.696-1.231h0.057c0.128,0.697,0.837,1.232,1.699,1.232
				c1.142-0.008,1.887-1.139,1.392-2.113l-0.659-1.298C15.929,7.817,15.412,7.5,14.848,7.5H9.152c-0.565,0-1.082,0.317-1.338,0.821
				L7.156,9.618c-0.495,0.975,0.25,2.105,1.392,2.113C9.409,11.732,10.118,11.197,10.248,10.5z"/>
		</g>
		<path fill="none" stroke="#323232" stroke-width="1.5" stroke-linecap="round" stroke-linejoin="round" d="M15.96,16.5v-4.852"/>
		
			<line fill="none" stroke="#323232" stroke-width="1.5" stroke-linecap="round" stroke-linejoin="round" x1="12" y1="16.5" x2="12" y2="14.5"/>
		<path fill="none" stroke="#323232" stroke-width="1.5" stroke-linecap="round" stroke-linejoin="round" d="M7.444,16.5l9.112,0"/>
		<circle fill="none" stroke="#323232" stroke-width="1.5" stroke-linecap="round" stroke-linejoin="round" cx="12" cy="12" r="9"/>
	</g>
</g>
</svg>
