<?xml version="1.0" encoding="utf-8"?>
<!-- Generator: Adobe Illustrator 24.0.2, SVG Export Plug-In . SVG Version: 6.00 Build 0)  -->
<svg version="1.1" id="Layer_3" xmlns="http://www.w3.org/2000/svg" xmlns:xlink="http://www.w3.org/1999/xlink" x="0px" y="0px"
	 width="24px" height="24px" viewBox="0 0 24 24" enable-background="new 0 0 24 24" xml:space="preserve">
<g>
	<g>
		<path fill="none" d="M24,0L0,0l0,24h24V0z"/>
		<path fill="none" d="M0,24h24V0L0,0V24z"/>
	</g>
	<g>
		<path fill="none" stroke="#323232" stroke-width="1.5" stroke-linecap="round" stroke-linejoin="round" d="M12,20.91H3"/>
		<path fill="none" stroke="#323232" stroke-width="1.5" stroke-linecap="round" stroke-linejoin="round" d="M4.22,10.78v10.13"/>
		<path fill="none" stroke="#323232" stroke-width="1.5" stroke-linecap="round" stroke-linejoin="round" d="M19.699,10.778
			c1.698-0.012,2.805-1.693,2.069-3.142l-1.716-3.377C19.662,3.489,18.84,3,17.938,3L6.062,3C5.16,3,4.338,3.489,3.947,4.259
			L2.231,7.636c-0.736,1.449,0.371,3.13,2.069,3.142c1.417,0,2.566-0.968,2.566-2.163V8.567c0,1.221,1.149,2.211,2.566,2.211
			c1.419,0,2.568-0.99,2.568-2.211c0,1.221,1.149,2.211,2.566,2.211s2.566-0.99,2.566-2.211v0.048
			C17.133,9.81,18.282,10.778,19.699,10.778z"/>
		
			<line fill="none" stroke="#323232" stroke-width="1.5" stroke-linecap="round" stroke-linejoin="round" x1="20" y1="13" x2="20.016" y2="10.78"/>
		<path fill="none" stroke="#323232" stroke-width="1.5" stroke-linecap="round" stroke-linejoin="round" d="M16,21h1.5
			c1.381,0,2.5-1.119,2.5-2.5v0c0-1.381-1.119-2.5-2.5-2.5H13"/>
		<polyline fill="none" stroke="#323232" stroke-width="1.5" stroke-linecap="round" stroke-linejoin="round" points="15,18 13,16 
			15,14 		"/>
	</g>
</g>
</svg>
