<svg id="Layer_3" data-name="Layer 3" xmlns="http://www.w3.org/2000/svg" viewBox="0 0 24 24"><title>store-checkmark</title><path d="M0,0H24V24H0Z" fill="none"/><path d="M14,19.91h7" fill="none" stroke="#323232" stroke-linecap="round" stroke-linejoin="round" stroke-width="1.5"/><path d="M8,16.75,6.122,18.625,5,17.5" fill="none" stroke="#323232" stroke-linecap="round" stroke-linejoin="round" stroke-width="1.5"/><circle cx="6.5" cy="17.5" r="4.5" fill="none" stroke="#323232" stroke-linecap="round" stroke-linejoin="round" stroke-width="1.5"/><path d="M19.78,9.78V19.91" fill="none" stroke="#323232" stroke-linecap="round" stroke-linejoin="round" stroke-width="1.5"/><path d="M13,13h3v3H14" fill="none" stroke="#323232" stroke-linecap="round" stroke-linejoin="round" stroke-width="1.5"/><path d="M4.253,9.778h0A2.25,2.25,0,0,1,2.247,6.509L3.982,3.094A2,2,0,0,1,5.765,2h12.47a2,2,0,0,1,1.783,1.094l1.735,3.415a2.25,2.25,0,0,1-2.006,3.269h0" fill="none" stroke="#323232" stroke-linecap="round" stroke-linejoin="round" stroke-width="1.5"/><path d="M14.582,9.778A2.582,2.582,0,0,0,17.165,7.2a2.582,2.582,0,0,0,2.582,2.582" fill="none" stroke="#323232" stroke-linecap="round" stroke-linejoin="round" stroke-width="1.5"/><path d="M9.417,9.778A2.582,2.582,0,0,0,12,7.2a2.582,2.582,0,0,0,2.582,2.582" fill="none" stroke="#323232" stroke-linecap="round" stroke-linejoin="round" stroke-width="1.5"/><path d="M4.252,9.778A2.582,2.582,0,0,0,6.835,7.2,2.582,2.582,0,0,0,9.417,9.778" fill="none" stroke="#323232" stroke-linecap="round" stroke-linejoin="round" stroke-width="1.5"/></svg>