<svg id="Layer_3" data-name="Layer 3" xmlns="http://www.w3.org/2000/svg" viewBox="0 0 24 24"><path d="M24,24H0V0H24Z" fill="none"/><path d="M9.33331,6.58338,7.04286,8.87505l-1.37622-1.375" fill="none" stroke="#323232" stroke-linecap="round" stroke-linejoin="round" stroke-width="1.5"/><path d="M12.78827,6A5.49816,5.49816,0,1,0,6,12.78827" fill="none" stroke="#323232" stroke-linecap="round" stroke-linejoin="round" stroke-width="1.5"/><line x1="16" y1="21" x2="16" y2="18.68639" fill="none" stroke="#323232" stroke-linecap="round" stroke-linejoin="round" stroke-width="1.5"/><path d="M10,21H22" fill="none" stroke="#323232" stroke-linecap="round" stroke-linejoin="round" stroke-width="1.5"/><path d="M10.99965,14.79591v6.20018" fill="none" stroke="#323232" stroke-linecap="round" stroke-linejoin="round" stroke-width="1.5"/><path d="M20.99609,20.99609V14.797" fill="none" stroke="#323232" stroke-linecap="round" stroke-linejoin="round" stroke-width="1.5"/><path d="M11.84492,15h0a1.84207,1.84207,0,0,1-1.64819-2.66468l.6051-1.21239A2.029,2.029,0,0,1,12.61729,10h6.76778a2.029,2.029,0,0,1,1.81108,1.1142l.60647,1.20066A1.85071,1.85071,0,0,1,20.15069,15h0a2.07793,2.07793,0,0,1-1.98176-1.45764.09734.09734,0,0,0-.1894,0,2.076,2.076,0,0,1-3.96346,0,.09733.09733,0,0,0-.18939,0A2.07794,2.07794,0,0,1,11.84492,15Z" fill="none" stroke="#323232" stroke-linecap="round" stroke-linejoin="round" stroke-width="1.5"/></svg>