<svg id="Layer_3" data-name="Layer 3" xmlns="http://www.w3.org/2000/svg" viewBox="0 0 24 24"><title>store-favorite</title><path d="M3,21H6" fill="none" stroke="#323232" stroke-linecap="round" stroke-linejoin="round" stroke-width="1.5"/><path d="M18,21h3" fill="none" stroke="#323232" stroke-linecap="round" stroke-linejoin="round" stroke-width="1.5"/><path d="M20,21V10.76" fill="none" stroke="#323232" stroke-linecap="round" stroke-linejoin="round" stroke-width="1.5"/><path d="M4.253,10.778h0A2.25,2.25,0,0,1,2.247,7.509L3.982,4.094A2,2,0,0,1,5.765,3h12.47a2,2,0,0,1,1.783,1.094l1.735,3.415a2.25,2.25,0,0,1-2.006,3.269h0" fill="none" stroke="#323232" stroke-linecap="round" stroke-linejoin="round" stroke-width="1.5"/><path d="M14.582,10.778A2.582,2.582,0,0,0,17.165,8.2a2.582,2.582,0,0,0,2.582,2.582" fill="none" stroke="#323232" stroke-linecap="round" stroke-linejoin="round" stroke-width="1.5"/><path d="M9.417,10.778A2.582,2.582,0,0,0,12,8.2a2.582,2.582,0,0,0,2.582,2.582" fill="none" stroke="#323232" stroke-linecap="round" stroke-linejoin="round" stroke-width="1.5"/><path d="M4.252,10.778A2.582,2.582,0,0,0,6.835,8.2a2.582,2.582,0,0,0,2.582,2.582" fill="none" stroke="#323232" stroke-linecap="round" stroke-linejoin="round" stroke-width="1.5"/><path d="M4,21V10.76" fill="none" stroke="#323232" stroke-linecap="round" stroke-linejoin="round" stroke-width="1.5"/><path d="M11.329,14.429a.747.747,0,0,1,1.34,0l.546,1.107a.743.743,0,0,0,.562.408L15,16.126a.747.747,0,0,1,.413,1.274l-.884.862a.742.742,0,0,0-.214.661l.208,1.216a.746.746,0,0,1-1.083.787l-1.092-.574a.743.743,0,0,0-.7,0l-1.091.574a.746.746,0,0,1-1.083-.787l.208-1.216a.745.745,0,0,0-.214-.661L8.588,17.4A.747.747,0,0,1,9,16.126l1.222-.182a.743.743,0,0,0,.562-.408Z" fill="none" stroke="#323232" stroke-linecap="round" stroke-linejoin="round" stroke-width="1.5"/><path d="M0,0H24V24H0Z" fill="none"/></svg>