<svg id="Layer_3" data-name="Layer 3" xmlns="http://www.w3.org/2000/svg" viewBox="0 0 24 24"><rect width="24" height="24" fill="none"/><path d="M13,9h4" fill="none" stroke="#323232" stroke-linecap="round" stroke-linejoin="round" stroke-width="1.5"/><path d="M7,8.726l.919.828,1.85-1.666" fill="none" stroke="#323232" stroke-linecap="round" stroke-linejoin="round" stroke-width="1.5"/><path d="M10,20H8a5,5,0,0,1-5-5V7A5,5,0,0,1,8,2h8a5,5,0,0,1,5,5v3" fill="none" stroke="#323232" stroke-linecap="round" stroke-linejoin="round" stroke-width="1.5"/><path d="M7,13.726l.919.828,1.85-1.666" fill="none" stroke="#323232" stroke-linecap="round" stroke-linejoin="round" stroke-width="1.5"/><path d="M13,17.14909V22" fill="none" stroke="#323232" stroke-linecap="round" stroke-linejoin="round" stroke-width="1.5"/><path d="M21,22V17.14909" fill="none" stroke="#323232" stroke-linecap="round" stroke-linejoin="round" stroke-width="1.5"/><line x1="17" y1="22" x2="17" y2="20" fill="none" stroke="#323232" stroke-linecap="round" stroke-linejoin="round" stroke-width="1.5"/><path d="M12.52,22h8.96" fill="none" stroke="#323232" stroke-linecap="round" stroke-linejoin="round" stroke-width="1.5"/><path d="M13.516,17.24246h0a1.51759,1.51759,0,0,1-1.35242-2.20231l.65869-1.30137A1.35042,1.35042,0,0,1,14.02353,13h5.95026a1.3504,1.3504,0,0,1,1.20427.73778l.65869,1.30136a1.5176,1.5176,0,0,1-1.35242,2.20232,1.74384,1.74384,0,0,1-1.65174-1.18324.1001.1001,0,0,0-.18319,0,1.74309,1.74309,0,0,1-3.30148,0,.1001.1001,0,0,0-.18319,0A1.74484,1.74484,0,0,1,13.513,17.24146" fill="none" stroke="#323232" stroke-linecap="round" stroke-linejoin="round" stroke-width="1.5"/></svg>