<svg id="Layer_3" data-name="Layer 3" xmlns="http://www.w3.org/2000/svg" viewBox="0 0 24 24"><path d="M7.5,3.5,9,5,7.5,6.5" fill="none" stroke="#323232" stroke-linecap="round" stroke-linejoin="round" stroke-width="1.5"/><path d="M9,5H7A2.99981,2.99981,0,0,0,4,7.99962V8" fill="none" stroke="#323232" stroke-linecap="round" stroke-linejoin="round" stroke-width="1.5"/><path d="M17.5,20.49962l-1.5-1.5,1.5-1.5" fill="none" stroke="#323232" stroke-linecap="round" stroke-linejoin="round" stroke-width="1.5"/><path d="M16,18.99962h2A2.9998,2.9998,0,0,0,21,16v-.00038" fill="none" stroke="#323232" stroke-linecap="round" stroke-linejoin="round" stroke-width="1.5"/><path d="M4,16.14909V21" fill="none" stroke="#323232" stroke-linecap="round" stroke-linejoin="round" stroke-width="1.5"/><path d="M12,21V16.14909" fill="none" stroke="#323232" stroke-linecap="round" stroke-linejoin="round" stroke-width="1.5"/><line x1="8" y1="21" x2="8" y2="19" fill="none" stroke="#323232" stroke-linecap="round" stroke-linejoin="round" stroke-width="1.5"/><path d="M3.52,21h8.96" fill="none" stroke="#323232" stroke-linecap="round" stroke-linejoin="round" stroke-width="1.5"/><path d="M4.516,16.24246h0a1.51759,1.51759,0,0,1-1.35242-2.20231l.65869-1.30137A1.35042,1.35042,0,0,1,5.02353,12h5.95026a1.3504,1.3504,0,0,1,1.20427.73778l.65869,1.30136a1.5176,1.5176,0,0,1-1.35242,2.20232,1.74384,1.74384,0,0,1-1.65174-1.18324.1001.1001,0,0,0-.18319,0,1.74309,1.74309,0,0,1-3.30148,0,.1001.1001,0,0,0-.18319,0A1.74484,1.74484,0,0,1,4.513,16.24146" fill="none" stroke="#323232" stroke-linecap="round" stroke-linejoin="round" stroke-width="1.5"/><circle cx="17.5" cy="6.5" r="4.5" fill="none" stroke="#323232" stroke-linecap="round" stroke-linejoin="round" stroke-width="1.5"/><polyline points="17.199 4.518 17.199 6.801 19.094 6.801" fill="none" stroke="#323232" stroke-linecap="round" stroke-linejoin="round" stroke-width="1.5"/><rect width="24" height="24" fill="none"/></svg>