<svg id="Layer_3" data-name="Layer 3" xmlns="http://www.w3.org/2000/svg" viewBox="0 0 24 24"><title>store-square</title><path d="M8.039,11.648V16.5" fill="none" stroke="#323232" stroke-linecap="round" stroke-linejoin="round" stroke-width="1.5"/><path d="M15.959,13.5V11.648" fill="none" stroke="#323232" stroke-linecap="round" stroke-linejoin="round" stroke-width="1.5"/><path d="M10.247,10.5H10.3A1.669,1.669,0,0,0,12,11.731,1.669,1.669,0,0,0,13.7,10.5h.057a1.657,1.657,0,0,0,1.7,1.232,1.48,1.48,0,0,0,1.392-2.113l-.659-1.3A1.505,1.505,0,0,0,14.847,7.5h-5.7a1.5,1.5,0,0,0-1.338.821l-.658,1.3a1.479,1.479,0,0,0,1.392,2.113A1.659,1.659,0,0,0,10.247,10.5Z" fill="none" stroke="#323232" stroke-linecap="round" stroke-linejoin="round" stroke-width="1.5"/><path d="M15.959,16.5V11.648" fill="none" stroke="#323232" stroke-linecap="round" stroke-linejoin="round" stroke-width="1.5"/><line x1="11.999" y1="16.5" x2="11.999" y2="14.5" fill="none" stroke="#323232" stroke-linecap="round" stroke-linejoin="round" stroke-width="1.5"/><path d="M7.443,16.5h9.112" fill="none" stroke="#323232" stroke-linecap="round" stroke-linejoin="round" stroke-width="1.5"/><path d="M16,21H8a5,5,0,0,1-5-5V8A5,5,0,0,1,8,3h8a5,5,0,0,1,5,5v8A5,5,0,0,1,16,21Z" fill="none" stroke="#323232" stroke-linecap="round" stroke-linejoin="round" stroke-width="1.5"/><rect id="_Transparent_Rectangle_" data-name=" Transparent Rectangle " width="24" height="24" fill="none"/></svg>