<svg id="Layer_3" data-name="Layer 3" xmlns="http://www.w3.org/2000/svg" viewBox="0 0 24 24"><title>strawberry</title><path d="M15.414,19.586l.265-.265A11.341,11.341,0,0,0,19,11.3h0a4.3,4.3,0,0,0-.723-2.387h0A4.3,4.3,0,0,0,14.7,7H9.3a4.3,4.3,0,0,0-3.58,1.916h0A4.3,4.3,0,0,0,5,11.3H5a11.341,11.341,0,0,0,3.321,8.018l.265.265A4.828,4.828,0,0,0,12,21h0A4.828,4.828,0,0,0,15.414,19.586Z" fill="none" stroke="#323232" stroke-linecap="round" stroke-linejoin="round" stroke-width="1.5"/><ellipse cx="14" cy="5" rx="2.298" ry="1.649" transform="translate(0.565 11.364) rotate(-45)" stroke-width="1.5" stroke="#323232" stroke-linecap="round" stroke-linejoin="round" fill="none"/><ellipse cx="10" cy="5" rx="1.649" ry="2.298" transform="translate(-0.607 8.536) rotate(-45)" stroke-width="1.5" stroke="#323232" stroke-linecap="round" stroke-linejoin="round" fill="none"/><line x1="13.875" y1="13.821" x2="13.875" y2="14.679" fill="none" stroke="#323232" stroke-linecap="round" stroke-linejoin="round" stroke-width="1.5"/><line x1="15.75" y1="11.25" x2="15.75" y2="12.107" fill="none" stroke="#323232" stroke-linecap="round" stroke-linejoin="round" stroke-width="1.5"/><line x1="12" y1="11.25" x2="12" y2="12.107" fill="none" stroke="#323232" stroke-linecap="round" stroke-linejoin="round" stroke-width="1.5"/><line x1="8.25" y1="11.25" x2="8.25" y2="12.107" fill="none" stroke="#323232" stroke-linecap="round" stroke-linejoin="round" stroke-width="1.5"/><line x1="10.125" y1="13.821" x2="10.125" y2="14.679" fill="none" stroke="#323232" stroke-linecap="round" stroke-linejoin="round" stroke-width="1.5"/><line x1="12" y1="16.3" x2="12" y2="17.157" fill="none" stroke="#323232" stroke-linecap="round" stroke-linejoin="round" stroke-width="1.5"/><rect width="24" height="24" fill="none"/></svg>