<svg id="Layer_3" data-name="Layer 3" xmlns="http://www.w3.org/2000/svg" viewBox="0 0 24 24"><title>stretch-horizontal_1</title><path d="M6.577,15.921,3.244,12.589a.834.834,0,0,1,0-1.178L6.577,8.079A.834.834,0,0,1,8,8.668v6.664A.834.834,0,0,1,6.577,15.921Z" fill="none" stroke="#323232" stroke-linecap="round" stroke-linejoin="round" stroke-width="1.5"/><line x1="12" y1="4" x2="12" y2="20" fill="none" stroke="#323232" stroke-linecap="round" stroke-linejoin="round" stroke-width="1.5"/><path d="M17.423,8.079l3.333,3.332a.834.834,0,0,1,0,1.178l-3.333,3.332A.834.834,0,0,1,16,15.332V8.668A.834.834,0,0,1,17.423,8.079Z" fill="none" stroke="#323232" stroke-linecap="round" stroke-linejoin="round" stroke-width="1.5"/><rect width="24" height="24" fill="none"/></svg>