<svg id="Layer_3" data-name="Layer 3" xmlns="http://www.w3.org/2000/svg" viewBox="0 0 24 24"><path d="M18.92719,12.05312A.25774.25774,0,0,0,18.58,11.781L5.41811,15.9546a.54291.54291,0,0,0-.34722.492V20.7122a.25751.25751,0,0,0,.34722.27216L18.58,16.81111a.5436.5436,0,0,0,.34723-.49235Z" fill="none" stroke="#323232" stroke-linecap="round" stroke-linejoin="round" stroke-width="1.5" fill-rule="evenodd"/><path d="M5.07089,11.91724a.543.543,0,0,0,.34722.49235l13.16378,4.174a.25743.25743,0,0,0,.34722-.27178v-4.266a.54292.54292,0,0,0-.34722-.492L5.41811,7.37982a.25731.25731,0,0,0-.34722.27178Z" fill="none" stroke="#323232" stroke-linecap="round" stroke-linejoin="round" stroke-width="1.5" fill-rule="evenodd"/><path d="M18.92719,3.2878A.25761.25761,0,0,0,18.58,3.01564L5.41811,7.18889a.543.543,0,0,0-.34722.49235v4.26564a.25765.25765,0,0,0,.34722.27216L18.58,8.0454a.5435.5435,0,0,0,.34723-.492Z" fill="none" stroke="#323232" stroke-linecap="round" stroke-linejoin="round" stroke-width="1.5" fill-rule="evenodd"/><path d="M0,24V0H24V24Z" fill="none"/></svg>