<?xml version="1.0" encoding="utf-8"?>
<!-- Generator: Adobe Illustrator 24.0.2, SVG Export Plug-In . SVG Version: 6.00 Build 0)  -->
<svg version="1.1" id="Layer_1" xmlns="http://www.w3.org/2000/svg" xmlns:xlink="http://www.w3.org/1999/xlink" x="0px" y="0px"
	 width="24px" height="24px" viewBox="0 0 24 24" enable-background="new 0 0 24 24" xml:space="preserve">
<g>
	<g>
		<path fill="none" d="M0,0h24v24H0V0z"/>
	</g>
	<g>
		
			<line fill="none" stroke="#323232" stroke-width="1.5" stroke-linecap="round" stroke-linejoin="round" x1="17.5" y1="21" x2="15.43" y2="17.895"/>
		
			<line fill="none" stroke="#323232" stroke-width="1.5" stroke-linecap="round" stroke-linejoin="round" x1="8.57" y1="17.895" x2="6.5" y2="21"/>
		<path fill="none" stroke="#323232" stroke-width="1.5" stroke-linecap="round" stroke-linejoin="round" d="M14.571,18H9.429
			C7.535,18,6,16.465,6,14.571v-6C6,7.151,7.151,6,8.571,6h6.857C16.849,6,18,7.151,18,8.571v6C18,16.465,16.465,18,14.571,18z"/>
		
			<line fill="none" stroke="#323232" stroke-width="1.5" stroke-linecap="round" stroke-linejoin="round" x1="18" y1="12.071" x2="6.143" y2="12.071"/>
		
			<line fill="none" stroke="#323232" stroke-width="1.5" stroke-linecap="round" stroke-linejoin="round" x1="14" y1="21" x2="10" y2="21"/>
		<path fill="none" stroke="#323232" stroke-width="1.5" stroke-linecap="round" stroke-linejoin="round" d="M21,21V8
			c0-2.761-2.239-5-5-5H8C5.239,3,3,5.239,3,8v13"/>
		<path fill="none" stroke="#323232" stroke-width="1.5" stroke-linecap="round" stroke-linejoin="round" d="M14.8,14.5
			c-0.109,0-0.198,0.089-0.197,0.198c0,0.109,0.089,0.198,0.198,0.198S15,14.808,15,14.698C15,14.589,14.911,14.5,14.8,14.5"/>
		<path fill="none" stroke="#323232" stroke-width="1.5" stroke-linecap="round" stroke-linejoin="round" d="M9.197,14.5
			c-0.109,0-0.198,0.089-0.197,0.198c0,0.109,0.089,0.198,0.198,0.198s0.198-0.089,0.198-0.198C9.397,14.589,9.308,14.5,9.197,14.5"
			/>
	</g>
</g>
</svg>
