<svg id="Layer_3" data-name="Layer 3" xmlns="http://www.w3.org/2000/svg" viewBox="0 0 24 24"><path d="M24,0H0V24H24Z" fill="none"/><path d="M7,18H19.14232a2.85715,2.85715,0,0,0,2.82843-3.2612L21.376,10.57574A3,3,0,0,0,18.40618,8H7" fill="none" stroke="#323232" stroke-linecap="round" stroke-linejoin="round" stroke-width="1.5"/><line x1="2" y1="21" x2="22" y2="21" fill="none" stroke="#323232" stroke-linecap="round" stroke-linejoin="round" stroke-width="1.5"/><path d="M21.43663,11H16.5a.5.5,0,0,0-.5.5v2a.5.5,0,0,0,.5.5h5.36521" fill="none" stroke="#323232" stroke-linecap="round" stroke-linejoin="round" stroke-width="1.5"/><path d="M7,11h5.49994a.5.5,0,0,1,.5.5v2a.5.5,0,0,1-.5.5H7" fill="none" stroke="#323232" stroke-linecap="round" stroke-linejoin="round" stroke-width="1.5"/><path d="M11.00009,8v-.5a3.5,3.5,0,0,0-3.5-3.5h0a3.5,3.5,0,0,0-3.5,3.5V21" fill="none" stroke="#323232" stroke-linecap="round" stroke-linejoin="round" stroke-width="1.5"/><line x1="7.50007" y1="4" x2="2" y2="4" fill="none" stroke="#323232" stroke-linecap="round" stroke-linejoin="round" stroke-width="1.5"/></svg>