<?xml version="1.0" encoding="utf-8"?>
<!-- Generator: Adobe Illustrator 23.1.0, SVG Export Plug-In . SVG Version: 6.00 Build 0)  -->
<svg version="1.1" id="icons" xmlns="http://www.w3.org/2000/svg" xmlns:xlink="http://www.w3.org/1999/xlink" x="0px" y="0px"
	 width="24px" height="24px" viewBox="0 0 24 24" enable-background="new 0 0 24 24" xml:space="preserve">
<g>
	<path fill="none" d="M0,0h24v24H0V0z"/>
	<g>
		<path fill="none" stroke="#323232" stroke-width="1.5" stroke-linecap="round" stroke-linejoin="round" d="M12,11v-1"/>
		<path fill="none" stroke="#323232" stroke-width="1.5" stroke-linecap="round" stroke-linejoin="round" d="M12,17v1"/>
		<path fill="none" stroke="#323232" stroke-width="1.5" stroke-linecap="round" stroke-linejoin="round" d="M10.264,16.285
			c0.259,0.424,0.701,0.717,1.236,0.717H12h0.596c0.776,0,1.404-0.629,1.404-1.404c0-0.644-0.439-1.205-1.063-1.363l-1.875-0.471
			C10.439,13.608,10,13.047,10,12.403c0-0.776,0.629-1.404,1.404-1.404H12h0.5c0.533,0,0.975,0.292,1.233,0.715"/>
		<path fill="none" stroke="#323232" stroke-width="1.5" stroke-linecap="round" stroke-linejoin="round" d="M19,20.5H5
			c-1.105,0-2-0.895-2-2v-9c0-1.105,0.895-2,2-2h14c1.105,0,2,0.895,2,2v9C21,19.605,20.105,20.5,19,20.5z"/>
		<path fill="none" stroke="#323232" stroke-width="1.5" stroke-linecap="round" stroke-linejoin="round" d="M16.174,7.5v-2
			c0-1.105-0.895-2-2-2H9.826c-1.105,0-2,0.895-2,2v2"/>
	</g>
</g>
</svg>
