<svg id="Layer_3" data-name="Layer 3" xmlns="http://www.w3.org/2000/svg" viewBox="0 0 24 24"><path d="M0,0H24V24H0Z" fill="none"/><path d="M11,20H5a2,2,0,0,1-2-2V8.5a2,2,0,0,1,2-2H19a2,2,0,0,1,2,2V12" fill="none" stroke="#323232" stroke-linecap="round" stroke-linejoin="round" stroke-width="1.5"/><circle cx="18" cy="18" r="4" fill="none" stroke="#323232" stroke-linecap="round" stroke-linejoin="round" stroke-width="1.5"/><polyline points="17.732 16.239 17.732 18.268 19.417 18.268" fill="none" stroke="#323232" stroke-linecap="round" stroke-linejoin="round" stroke-width="1.5"/><path d="M15.6,6.5v-2A1.5,1.5,0,0,0,14.1,3H9.9A1.5,1.5,0,0,0,8.4,4.5v2" fill="none" stroke="#323232" stroke-linecap="round" stroke-linejoin="round" stroke-width="1.5"/><path d="M21,10l-4.47169,1.03945a19.99977,19.99977,0,0,1-9.05662,0L3,10" fill="none" stroke="#323232" stroke-linecap="round" stroke-linejoin="round" stroke-width="1.5"/></svg>