<svg id="Layer_3" data-name="Layer 3" xmlns="http://www.w3.org/2000/svg" viewBox="0 0 24 24"><title>sunscreen</title><path d="M17.7,11.194l-1.322,5.291A2,2,0,0,1,14.438,18H9.562a2,2,0,0,1-1.941-1.515L6.3,11.194A9.96,9.96,0,0,1,6,8.769V5A2,2,0,0,1,8,3h8a2,2,0,0,1,2,2V8.769A9.96,9.96,0,0,1,17.7,11.194Z" fill="none" stroke="#323232" stroke-linecap="round" stroke-linejoin="round" stroke-width="1.5"/><line x1="17.5" y1="12" x2="6.5" y2="12" fill="none" stroke="#323232" stroke-linecap="round" stroke-linejoin="round" stroke-width="1.5"/><line x1="18" y1="7" x2="6" y2="7" fill="none" stroke="#323232" stroke-linecap="round" stroke-linejoin="round" stroke-width="1.5"/><path d="M9.5,18h5a1,1,0,0,1,1,1v.5A1.5,1.5,0,0,1,14,21H10a1.5,1.5,0,0,1-1.5-1.5V19A1,1,0,0,1,9.5,18Z" fill="none" stroke="#323232" stroke-linecap="round" stroke-linejoin="round" stroke-width="1.5"/><path d="M0,0H24V24H0Z" fill="none"/></svg>