<svg id="Layer_3" data-name="Layer 3" xmlns="http://www.w3.org/2000/svg" viewBox="0 0 24 24"><title>sweatshot</title><path d="M17.9875,12l.00013,7.54307A1.97441,1.97441,0,0,1,16.534,21.4694a19.74349,19.74349,0,0,1-9.0929,0,1.97441,1.97441,0,0,1-1.45369-1.92633L5.9875,12" fill="none" stroke="#323232" stroke-linecap="round" stroke-linejoin="round" stroke-width="1.5"/><path d="M15.5,3.01987h0A2.98013,2.98013,0,0,1,12.51987,6H11.48013A2.98013,2.98013,0,0,1,8.5,3.01987h0" fill="none" stroke="#323232" stroke-linecap="round" stroke-linejoin="round" stroke-width="1.5"/><path d="M5.98738,19H3a1,1,0,0,1-1-1V12.51842a4,4,0,0,1,.13216-1.01971L3.36969,6.80464A4,4,0,0,1,5.53407,4.2052l1.75139-.82434A4,4,0,0,1,8.98893,3h6.11676a4,4,0,0,1,1.70347.38086l1.72337.81115a4,4,0,0,1,2.177,2.64857l1.17094,4.68149A4.00014,4.00014,0,0,1,22,12.49265V18a1,1,0,0,1-1,1H17.98762" fill="none" stroke="#323232" stroke-linecap="round" stroke-linejoin="round" stroke-width="1.5"/><rect width="24" height="24" fill="none"/></svg>