<svg id="Layer_3" data-name="Layer 3" xmlns="http://www.w3.org/2000/svg" viewBox="0 0 24 24"><title>swimming-pool</title><path d="M0,0H24V24H0Z" fill="none"/><path d="M15,11V3.35A1.351,1.351,0,0,1,16.35,2h.4" fill="none" stroke="#323232" stroke-linecap="round" stroke-linejoin="round" stroke-width="1.5"/><path d="M9,11V3.35A1.351,1.351,0,0,1,10.35,2h.4" fill="none" stroke="#323232" stroke-linecap="round" stroke-linejoin="round" stroke-width="1.5"/><path d="M9,9.5h6" fill="none" stroke="#323232" stroke-linecap="round" stroke-linejoin="round" stroke-width="1.5"/><path d="M9,6h6" fill="none" stroke="#323232" stroke-linecap="round" stroke-linejoin="round" stroke-width="1.5"/><path d="M6,6A3,3,0,0,0,3,9v9a3,3,0,0,0,3,3H18a3,3,0,0,0,3-3V9a3,3,0,0,0-3-3" fill="none" stroke="#323232" stroke-linecap="round" stroke-linejoin="round" stroke-width="1.5"/><path d="M6.6,13.868h0a4.434,4.434,0,0,0,3.6,0h0a4.434,4.434,0,0,1,3.6,0h0a4.434,4.434,0,0,0,3.6,0h0" fill="none" stroke="#323232" stroke-linecap="round" stroke-linejoin="round" stroke-width="1.5"/><path d="M6.6,17.382h0a4.434,4.434,0,0,0,3.6,0h0a4.434,4.434,0,0,1,3.6,0h0a4.434,4.434,0,0,0,3.6,0h0" fill="none" stroke="#323232" stroke-linecap="round" stroke-linejoin="round" stroke-width="1.5"/></svg>