<svg id="Layer_3" data-name="Layer 3" xmlns="http://www.w3.org/2000/svg" viewBox="0 0 24 24"><title>switcher-setting-square</title><path d="M7.85778,12A2.92923,2.92923,0,0,1,12,12h0a2.92923,2.92923,0,0,1,0,4.14222" fill="none" stroke="#323232" stroke-linecap="round" stroke-linejoin="round" stroke-width="1.5"/><path d="M16.14222,12,12,16.14222a2.92923,2.92923,0,0,1-4.14222,0h0a2.92923,2.92923,0,0,1,0-4.14222L12,7.85778a2.92923,2.92923,0,0,1,4.14222,0h0A2.92923,2.92923,0,0,1,16.14222,12Z" fill="none" stroke="#323232" stroke-linecap="round" stroke-linejoin="round" stroke-width="1.5"/><rect x="2.9" y="3.00138" width="18" height="18" rx="5" stroke-width="1.5" stroke="#323232" stroke-linecap="round" stroke-linejoin="round" fill="none"/><path d="M0,0H24V24H0Z" fill="none"/></svg>