<?xml version="1.0" encoding="utf-8"?>
<!-- Generator: Adobe Illustrator 24.0.2, SVG Export Plug-In . SVG Version: 6.00 Build 0)  -->
<svg version="1.1" id="Layer_3" xmlns="http://www.w3.org/2000/svg" xmlns:xlink="http://www.w3.org/1999/xlink" x="0px" y="0px"
	 width="24px" height="24px" viewBox="0 0 24 24" enable-background="new 0 0 24 24" xml:space="preserve">
<g>
	<path fill="none" d="M0-0.006h24v24H0V-0.006z"/>
	<g>
		<path fill="none" stroke="#323232" stroke-width="1.5" stroke-linecap="round" stroke-linejoin="round" d="M5.16,6.154
			c0.461-0.54,0.986-1.021,1.562-1.438"/>
		<path fill="none" stroke="#323232" stroke-width="1.5" stroke-linecap="round" stroke-linejoin="round" d="M17,19.476
			c-1.43,0.958-3.149,1.518-5,1.518c-0.912,0-1.791-0.138-2.62-0.39"/>
		<path fill="none" stroke="#323232" stroke-width="1.5" stroke-linecap="round" stroke-linejoin="round" d="M3.523,8.994
			C3.19,9.934,3,10.94,3,11.994"/>
		<path fill="none" stroke="#323232" stroke-width="1.5" stroke-linecap="round" stroke-linejoin="round" d="M9.38,3.384
			c0.829-0.252,1.708-0.39,2.62-0.39c4.971,0,9,4.029,9,9c0,1.855-0.573,3.569-1.537,5"/>
		<path fill="none" stroke="#323232" stroke-width="1.5" stroke-linecap="round" stroke-linejoin="round" d="M15.6,14.393H8.4
			l2.399,2.401"/>
		<path fill="none" stroke="#323232" stroke-width="1.5" stroke-linecap="round" stroke-linejoin="round" d="M13.201,7.193
			L15.6,9.595H8.4"/>
		<path fill="none" stroke="#323232" stroke-width="1.5" stroke-linecap="round" stroke-linejoin="round" d="M6.722,19.273
			c-1.46-1.06-2.582-2.549-3.197-4.279"/>
	</g>
</g>
</svg>
