<svg id="Layer_3" data-name="Layer 3" xmlns="http://www.w3.org/2000/svg" viewBox="0 0 24 24"><title>t-shirt</title><rect width="24" height="24" fill="none"/><path d="M17.9875,11l.00009,8.54307a1.97443,1.97443,0,0,1-1.4537,1.92635,19.74343,19.74343,0,0,1-9.09276,0,1.97444,1.97444,0,0,1-1.45372-1.92635L5.9875,11" fill="none" stroke="#323232" stroke-linecap="round" stroke-linejoin="round" stroke-width="1.5"/><path d="M18.00389,13l3.22509-.75969a1,1,0,0,0,.73224-1.24808l-1.213-4.24558a4,4,0,0,0-2.14263-2.52026l-1.79641-.84553A4,4,0,0,0,15.10569,3H8.89431a4,4,0,0,0-1.70347.38086l-1.79641.84553A4,4,0,0,0,3.2518,6.74665l-1.213,4.24558A1,1,0,0,0,2.771,12.24031L5.99611,13" fill="none" stroke="#323232" stroke-linecap="round" stroke-linejoin="round" stroke-width="1.5"/><path d="M15.5,3.01987h0A2.98013,2.98013,0,0,1,12.51987,6H11.48013A2.98013,2.98013,0,0,1,8.5,3.01987h0" fill="none" stroke="#323232" stroke-linecap="round" stroke-linejoin="round" stroke-width="1.5"/></svg>