<?xml version="1.0" encoding="UTF-8"?><svg version="1.1" viewBox="0 0 24 24" xmlns="http://www.w3.org/2000/svg" xmlns:xlink="http://www.w3.org/1999/xlink"><!--Generated by IJSVG (https://github.com/iconjar/IJSVG)--><g stroke-linecap="round" stroke-width="1.5" stroke="#323232" fill="none" stroke-linejoin="round"><path d="M5.5,10h3"></path><path d="M7,4v6"></path><path d="M10,5.358v-1.025c0,-0.184 -0.149,-0.333 -0.333,-0.333h-5.334c-0.184,0 -0.333,0.149 -0.333,0.333v1.025"></path><path d="M4,14v4c0,1.105 0.895,2 2,2h13c1.105,0 2,-0.895 2,-2v-12c0,-1.105 -0.895,-2 -2,-2h-5"></path><path d="M8,16h9"></path><path d="M12,12h5"></path><path d="M13,8h4"></path></g><path fill="none" d="M0,0h24v24h-24v-24Z"></path></svg>