<svg id="Layer_3" data-name="Layer 3" xmlns="http://www.w3.org/2000/svg" viewBox="0 0 24 24"><title>Artboard 157</title><path d="M18.226,20.713l3.487-3.487a.978.978,0,0,0,0-1.385l-1.554-1.554a.978.978,0,0,0-1.385,0l-3.487,3.487a.979.979,0,0,0-.287.693V21h2.533A.979.979,0,0,0,18.226,20.713Z" fill="none" stroke="#323232" stroke-linecap="round" stroke-linejoin="round" stroke-width="1.5"/><path d="M11,18H5a2,2,0,0,1-2-2V5A2,2,0,0,1,5,3H16a2,2,0,0,1,2,2v6" fill="none" stroke="#323232" stroke-linecap="round" stroke-linejoin="round" stroke-width="1.5"/><line x1="7.181" y1="12" x2="7.181" y2="11" fill="none" stroke="#323232" stroke-linecap="round" stroke-linejoin="round" stroke-width="1.5"/><line x1="13.819" y1="12" x2="13.819" y2="10" fill="none" stroke="#323232" stroke-linecap="round" stroke-linejoin="round" stroke-width="1.5"/><line x1="10.5" y1="12" x2="10.5" y2="9" fill="none" stroke="#323232" stroke-linecap="round" stroke-linejoin="round" stroke-width="1.5"/><path d="M0,0H24V24H0Z" fill="none"/></svg>