<svg id="Layer_3" data-name="Layer 3" xmlns="http://www.w3.org/2000/svg" viewBox="0 0 24 24"><title>Artboard 144</title><path d="M0,0H24V24H0Z" fill="none"/><path d="M9,18H4.875A1.874,1.874,0,0,1,3,16.125V4.875A1.874,1.874,0,0,1,4.875,3h11.25A1.874,1.874,0,0,1,18,4.875V9" fill="none" stroke="#323232" stroke-linecap="round" stroke-linejoin="round" stroke-width="1.5"/><path d="M10.5,6.7a.05.05,0,1,0,.05.05.05.05,0,0,0-.05-.05" fill="none" stroke="#323232" stroke-linecap="round" stroke-linejoin="round" stroke-width="1.5"/><path d="M10.5,14.2a.05.05,0,1,0,.05.05.05.05,0,0,0-.05-.05" fill="none" stroke="#323232" stroke-linecap="round" stroke-linejoin="round" stroke-width="1.5"/><path d="M10.5,10.45a.05.05,0,1,0,.05.05.05.05,0,0,0-.05-.05" fill="none" stroke="#323232" stroke-linecap="round" stroke-linejoin="round" stroke-width="1.5"/><path d="M14.3,10.5a.05.05,0,1,0-.05.05.05.05,0,0,0,.05-.05" fill="none" stroke="#323232" stroke-linecap="round" stroke-linejoin="round" stroke-width="1.5"/><path d="M6.8,10.5a.05.05,0,1,0-.05.05.05.05,0,0,0,.05-.05" fill="none" stroke="#323232" stroke-linecap="round" stroke-linejoin="round" stroke-width="1.5"/><path d="M14.472,21h.758a1.076,1.076,0,0,0,.76-.315l4.695-4.695a1.076,1.076,0,0,0,0-1.521L18.91,12.693a1.077,1.077,0,0,0-1.522,0l-5.073,5.073a1.077,1.077,0,0,0,0,1.522l1.4,1.4A1.076,1.076,0,0,0,14.472,21Z" fill="none" stroke="#323232" stroke-linecap="round" stroke-linejoin="round" stroke-width="1.5"/><path d="M14.775,15.3l3.3,3.3" fill="none" stroke="#323232" stroke-linecap="round" stroke-linejoin="round" stroke-width="1.5"/><line x1="20" y1="21" x2="15" y2="21" fill="none" stroke="#323232" stroke-linecap="round" stroke-linejoin="round" stroke-width="1.5"/><path d="M0,0H24V24H0Z" fill="none"/></svg>