<svg id="Layer_3" data-name="Layer 3" xmlns="http://www.w3.org/2000/svg" viewBox="0 0 24 24"><title>Artboard 141</title><path d="M11,18H4.875A1.874,1.874,0,0,1,3,16.125V4.875A1.874,1.874,0,0,1,4.875,3h11.25A1.874,1.874,0,0,1,18,4.875V11" fill="none" stroke="#323232" stroke-linecap="round" stroke-linejoin="round" stroke-width="1.5"/><path d="M18.293,20.707l3.414-3.414a1,1,0,0,0,0-1.414l-1.586-1.586a1,1,0,0,0-1.414,0l-3.414,3.414a1,1,0,0,0-.293.707V21h2.586A1,1,0,0,0,18.293,20.707Z" fill="none" stroke="#323232" stroke-linecap="round" stroke-linejoin="round" stroke-width="1.5"/><path d="M10.5,6.7a.05.05,0,1,0,.05.05.05.05,0,0,0-.05-.05" fill="none" stroke="#323232" stroke-linecap="round" stroke-linejoin="round" stroke-width="1.5"/><path d="M10.5,14.2a.05.05,0,1,0,.05.05.05.05,0,0,0-.05-.05" fill="none" stroke="#323232" stroke-linecap="round" stroke-linejoin="round" stroke-width="1.5"/><path d="M10.5,10.45a.05.05,0,1,0,.05.05.05.05,0,0,0-.05-.05" fill="none" stroke="#323232" stroke-linecap="round" stroke-linejoin="round" stroke-width="1.5"/><path d="M14.3,10.5a.05.05,0,1,0-.05.05.05.05,0,0,0,.05-.05" fill="none" stroke="#323232" stroke-linecap="round" stroke-linejoin="round" stroke-width="1.5"/><path d="M6.8,10.5a.05.05,0,1,0-.05.05.05.05,0,0,0,.05-.05" fill="none" stroke="#323232" stroke-linecap="round" stroke-linejoin="round" stroke-width="1.5"/><path d="M0,0H24V24H0Z" fill="none"/></svg>