<svg id="Layer_3" data-name="Layer 3" xmlns="http://www.w3.org/2000/svg" viewBox="0 0 24 24"><title>Artboard 159</title><path d="M0,0H24V24H0Z" fill="none"/><path d="M10.5,18H4.875A1.874,1.874,0,0,1,3,16.125V4.875A1.874,1.874,0,0,1,4.875,3h11.25A1.874,1.874,0,0,1,18,4.875V10.5" fill="none" stroke="#323232" stroke-linecap="round" stroke-linejoin="round" stroke-width="1.5"/><line x1="18" y1="10.5" x2="3" y2="10.5" fill="none" stroke="#323232" stroke-linecap="round" stroke-linejoin="round" stroke-width="1.5"/><path d="M19.771,21H16.083a1.229,1.229,0,0,1-1.229-1.229v-1.53a1.229,1.229,0,0,1,1.229-1.229h3.688A1.229,1.229,0,0,1,21,18.241v1.53A1.229,1.229,0,0,1,19.771,21Z" fill="none" stroke="#323232" stroke-linecap="round" stroke-linejoin="round" stroke-width="1.5"/><path d="M16.083,17.012V15.844A1.843,1.843,0,0,1,17.927,14h0a1.844,1.844,0,0,1,1.844,1.844v1.168" fill="none" stroke="#323232" stroke-linecap="round" stroke-linejoin="round" stroke-width="1.5"/><line x1="10.5" y1="3" x2="10.5" y2="18" fill="none" stroke="#323232" stroke-linecap="round" stroke-linejoin="round" stroke-width="1.5"/></svg>