<svg id="Layer_3" data-name="Layer 3" xmlns="http://www.w3.org/2000/svg" viewBox="0 0 24 24"><title>Artboard 142</title><path d="M0,0H24V24H0Z" fill="none"/><path d="M10.5,18H5a2,2,0,0,1-2-2V5A2,2,0,0,1,5,3H16a2,2,0,0,1,2,2v5.5" fill="none" stroke="#323232" stroke-linecap="round" stroke-linejoin="round" stroke-width="1.5"/><line x1="18" y1="10.5" x2="3" y2="10.5" fill="none" stroke="#323232" stroke-linecap="round" stroke-linejoin="round" stroke-width="1.5"/><line x1="10.5" y1="3" x2="10.5" y2="18" fill="none" stroke="#323232" stroke-linecap="round" stroke-linejoin="round" stroke-width="1.5"/><path d="M18.293,20.707l3.414-3.414a1,1,0,0,0,0-1.414l-1.586-1.586a1,1,0,0,0-1.414,0l-3.414,3.414a1,1,0,0,0-.293.707V21h2.586A1,1,0,0,0,18.293,20.707Z" fill="none" stroke="#323232" stroke-linecap="round" stroke-linejoin="round" stroke-width="1.5"/></svg>