<svg id="Layer_3" data-name="Layer 3" xmlns="http://www.w3.org/2000/svg" viewBox="0 0 24 24"><title>tape</title><circle cx="8.882" cy="9.471" r="2.5" fill="none" stroke="#323232" stroke-linecap="round" stroke-linejoin="round" stroke-width="1.5"/><path d="M16.553,14.894l1.171-2.341A1,1,0,0,1,18.618,12H20a1,1,0,0,1,1,1v6a2,2,0,0,1-2,2H5a2,2,0,0,1-2-2V14a2,2,0,0,1,2-2H8a2,2,0,0,1,1.6.8l1.8,2.4A2,2,0,0,0,13,16h1.764A2,2,0,0,0,16.553,14.894Z" fill="none" stroke="#323232" stroke-linecap="round" stroke-linejoin="round" stroke-width="1.5"/><path d="M0,0H24V24H0Z" fill="none"/><path d="M21,16V12.374a2,2,0,0,0-.778-1.583l-7.81-6.026" fill="none" stroke="#323232" stroke-linecap="round" stroke-linejoin="round" stroke-width="1.5"/><path d="M11.169,14.892A5.892,5.892,0,1,0,3.8,12.414" fill="none" stroke="#323232" stroke-linecap="round" stroke-linejoin="round" stroke-width="1.5"/></svg>