<?xml version="1.0" encoding="utf-8"?>
<!-- Generator: Adobe Illustrator 24.0.2, SVG Export Plug-In . SVG Version: 6.00 Build 0)  -->
<svg version="1.1" id="Layer_1" xmlns="http://www.w3.org/2000/svg" xmlns:xlink="http://www.w3.org/1999/xlink" x="0px" y="0px"
	 width="24px" height="24px" viewBox="0 0 24 24" enable-background="new 0 0 24 24" xml:space="preserve">
<g>
	<path fill="none" d="M0,0h24v24H0V0z"/>
	<g>
		<path fill="none" stroke="#323232" stroke-width="1.5" stroke-linecap="round" stroke-linejoin="round" d="M8,4l1.3-1.625
			C9.49,2.138,9.777,2,10.081,2h3.839c0.304,0,0.591,0.138,0.781,0.375L16,4l0,0v1c0,0.552-0.448,1-1,1H9C8.448,6,8,5.552,8,5V4L8,4
			z"/>
		<path fill="none" stroke="#323232" stroke-width="1.5" stroke-linecap="round" stroke-linejoin="round" d="M8,4H6
			C4.895,4,4,4.895,4,6v13c0,1.105,0.895,2,2,2h12c1.105,0,2-0.895,2-2V6c0-1.105-0.895-2-2-2h-2"/>
		<g>
			<path fill="none" stroke="#323232" stroke-width="1.5" stroke-linecap="round" stroke-linejoin="round" d="M14,12.5L11.5,15
				L10,13.5"/>
		</g>
	</g>
</g>
</svg>
