<svg id="Layer_3" data-name="Layer 3" xmlns="http://www.w3.org/2000/svg" viewBox="0 0 24 24"><path d="M13.5,17.5h5v3a1,1,0,0,1-1,1h-3a1,1,0,0,1-1-1Z" fill="none" stroke="#323232" stroke-linecap="round" stroke-linejoin="round" stroke-width="1.5"/><path d="M14,11.5h4a1,1,0,0,1,1,1v2H13v-2A1,1,0,0,1,14,11.5Z" fill="none" stroke="#323232" stroke-linecap="round" stroke-linejoin="round" stroke-width="1.5"/><path d="M13.432,19.5H12a1,1,0,0,1-1-1v-3a1,1,0,0,1,1-1h8a1,1,0,0,1,1,1v3a1,1,0,0,1-1,1H18.568" fill="none" stroke="#323232" stroke-linecap="round" stroke-linejoin="round" stroke-width="1.5"/><path d="M7,4H5A2,2,0,0,0,3,6V18a2,2,0,0,0,2,2H8" fill="none" stroke="#323232" stroke-linecap="round" stroke-linejoin="round" stroke-width="1.5"/><rect x="7" y="2" width="8" height="4" rx="1" stroke-width="1.5" stroke="#323232" stroke-linecap="round" stroke-linejoin="round" fill="none"/><path d="M15,4h2a2,2,0,0,1,2,2V8" fill="none" stroke="#323232" stroke-linecap="round" stroke-linejoin="round" stroke-width="1.5"/><rect width="24" height="24" fill="none"/></svg>