<svg id="Layer_3" data-name="Layer 3" xmlns="http://www.w3.org/2000/svg" viewBox="0 0 24 24"><path d="M4,8.66,3.55206,7.31622A1,1,0,0,1,4.50079,6H17V19a2,2,0,0,1-2,2H6a2,2,0,0,1-2-2Z" fill="none" stroke="#323232" stroke-linecap="round" stroke-linejoin="round" stroke-width="1.5"/><path d="M17,15.382V6h2a2,2,0,0,1,2,2v5.76393a2,2,0,0,1-1.10557,1.78886l-1.44722.7236A1,1,0,0,1,17,15.382Z" fill="none" stroke="#323232" stroke-linecap="round" stroke-linejoin="round" stroke-width="1.5"/><path d="M13.83772,3H8.16228A3,3,0,0,0,5.31623,5.05132L5,6H17l-.31623-.94868A3,3,0,0,0,13.83772,3Z" fill="none" stroke="#323232" stroke-linecap="round" stroke-linejoin="round" stroke-width="1.5"/><rect x="9" y="9" width="3" height="9" rx="1.5" stroke-width="1.5" stroke="#323232" stroke-linecap="round" stroke-linejoin="round" fill="none"/><line x1="12" y1="14" x2="9" y2="14" fill="none" stroke="#323232" stroke-linecap="round" stroke-linejoin="round" stroke-width="1.5"/><path d="M24,24H0V0H24Z" fill="none"/></svg>