<?xml version="1.0" encoding="utf-8"?>
<!-- Generator: Adobe Illustrator 24.0.2, SVG Export Plug-In . SVG Version: 6.00 Build 0)  -->
<svg version="1.1" id="Layer_1" xmlns="http://www.w3.org/2000/svg" xmlns:xlink="http://www.w3.org/1999/xlink" x="0px" y="0px"
	 width="24px" height="24px" viewBox="0 0 24 24" enable-background="new 0 0 24 24" xml:space="preserve">
<g>
	<g>
		<rect fill="none" width="24" height="24"/>
	</g>
	<g>
		<g>
			<path fill="none" stroke="#323232" stroke-width="1.5" stroke-linecap="round" stroke-linejoin="round" d="M13.67,7.271
				c-1.092,0.307-2.248,0.307-3.34,0"/>
		</g>
		<path fill="none" stroke="#323232" stroke-width="1.5" stroke-linecap="round" stroke-linejoin="round" d="M19.282,6.414
			L19.282,6.414c-1.153-1.922-3.45-2.835-5.608-2.228L12.72,4.454c-0.471,0.132-0.969,0.132-1.439,0l-0.954-0.268
			C8.168,3.579,5.872,4.492,4.718,6.414l0,0C4.253,7.189,4.007,8.076,4.006,8.981l0,0.093c-0.004,3.074,0.615,6.117,1.818,8.946
			l0.328,0.77C6.464,19.523,7.185,20,7.983,20h0c0.815,0,1.548-0.498,1.849-1.255l0.949-2.39c0.199-0.502,0.682-0.831,1.219-0.831h0
			c0.537,0,1.02,0.329,1.219,0.831l0.949,2.39C14.469,19.502,15.202,20,16.017,20h0c0.798,0,1.519-0.477,1.831-1.211l0.328-0.77
			c1.204-2.829,1.822-5.872,1.818-8.946l0-0.093C19.993,8.076,19.747,7.189,19.282,6.414z"/>
	</g>
</g>
</svg>
