<?xml version="1.0" encoding="utf-8"?>
<!-- Generator: Adobe Illustrator 24.0.2, SVG Export Plug-In . SVG Version: 6.00 Build 0)  -->
<svg version="1.1" id="Layer_1" xmlns="http://www.w3.org/2000/svg" xmlns:xlink="http://www.w3.org/1999/xlink" x="0px" y="0px"
	 width="24px" height="24px" viewBox="0 0 24 24" enable-background="new 0 0 24 24" xml:space="preserve">
<g>
	<g>
		<path fill="none" d="M0,0h24v24H0V0z"/>
	</g>
	<g>
		<path fill="none" stroke="#323232" stroke-width="1.5" stroke-linecap="round" stroke-linejoin="round" d="M17.5,11
			C15.015,11,13,8.985,13,6.5S15.015,2,17.5,2S22,4.015,22,6.5S19.985,11,17.5,11"/>
		<path fill="none" stroke="#323232" stroke-width="1.5" stroke-linecap="round" stroke-linejoin="round" d="M19.1,5.7l-2,2
			L15.9,6.5"/>
		<path fill="none" stroke="#323232" stroke-width="1.5" stroke-linecap="round" stroke-linejoin="round" d="M13.231,5.077
			c-0.188,0.029-0.376,0.056-0.563,0.109l-0.954,0.268c-0.471,0.132-0.969,0.132-1.439,0L9.321,5.186
			C7.163,4.579,4.866,5.492,3.713,7.414C3.247,8.189,3.001,9.076,3,9.98l0,0.093c-0.004,3.074,0.615,6.117,1.818,8.946l0.328,0.77
			C5.458,20.523,6.179,21,6.977,21h0c0.815,0,1.548-0.498,1.849-1.255l0.949-2.39c0.199-0.502,0.682-0.831,1.219-0.831
			s1.02,0.329,1.219,0.831l0.949,2.39C13.464,20.502,14.196,21,15.012,21h0c0.798,0,1.519-0.477,1.831-1.211l0.328-0.77
			c1.117-2.626,1.723-5.438,1.803-8.287"/>
	</g>
</g>
</svg>
