<?xml version="1.0" encoding="utf-8"?>
<!-- Generator: Adobe Illustrator 24.0.2, SVG Export Plug-In . SVG Version: 6.00 Build 0)  -->
<svg version="1.1" id="Layer_1" xmlns="http://www.w3.org/2000/svg" xmlns:xlink="http://www.w3.org/1999/xlink" x="0px" y="0px"
	 width="24px" height="24px" viewBox="0 0 24 24" enable-background="new 0 0 24 24" xml:space="preserve">
<g>
	<g>
		<path fill="none" stroke="#323232" stroke-width="1.5" stroke-linecap="round" stroke-linejoin="round" d="M12.691,14.449
			l0.567,1.417c0.153,0.382,0.523,0.633,0.935,0.633h0c0.503,0,0.957-0.3,1.156-0.762l0.14-0.326
			c0.689-1.608,1.045-3.34,1.045-5.089v0c0-0.512-0.139-1.013-0.402-1.452l0,0c-0.655-1.091-1.959-1.609-3.184-1.265l-0.538,0.151
			c-0.267,0.075-0.55,0.075-0.818,0l-0.538-0.151C9.828,7.261,8.524,7.779,7.869,8.87l0,0c-0.263,0.439-0.402,0.941-0.402,1.452v0
			c0,1.75,0.355,3.481,1.045,5.089l0.14,0.326C8.85,16.2,9.304,16.5,9.807,16.5h0c0.412,0,0.782-0.251,0.935-0.633l0.567-1.417
			c0.113-0.282,0.387-0.468,0.691-0.468h0C12.304,13.982,12.578,14.167,12.691,14.449z"/>
		<circle fill="none" stroke="#323232" stroke-width="1.5" stroke-linecap="round" stroke-linejoin="round" cx="12" cy="12" r="9"/>
		<path fill="none" stroke="#323232" stroke-width="1.5" stroke-linecap="round" stroke-linejoin="round" d="M12.947,10.304
			c-0.619,0.174-1.275,0.174-1.894,0"/>
	</g>
	<path fill="none" d="M0,0h24v24H0V0z"/>
</g>
</svg>
