<svg id="Layer_3" data-name="Layer 3" xmlns="http://www.w3.org/2000/svg" viewBox="0 0 24 24"><title>teeth-square</title><path d="M12.693,14.449l.567,1.417a1.007,1.007,0,0,0,.935.633h0a1.259,1.259,0,0,0,1.156-.762l.14-.326a12.924,12.924,0,0,0,1.045-5.089h0a2.823,2.823,0,0,0-.4-1.452h0A2.824,2.824,0,0,0,12.95,7.605l-.538.151a1.515,1.515,0,0,1-.818,0l-.538-.151A2.824,2.824,0,0,0,7.871,8.87h0a2.826,2.826,0,0,0-.4,1.452h0a12.9,12.9,0,0,0,1.045,5.089l.14.326a1.256,1.256,0,0,0,1.155.763h0a1.007,1.007,0,0,0,.935-.633l.567-1.417A.746.746,0,0,1,12,13.982h0A.745.745,0,0,1,12.693,14.449Z" fill="none" stroke="#323232" stroke-linecap="round" stroke-linejoin="round" stroke-width="1.5"/><path d="M12.949,10.3a3.5,3.5,0,0,1-1.894,0" fill="none" stroke="#323232" stroke-linecap="round" stroke-linejoin="round" stroke-width="1.5"/><rect x="3.002" y="3" width="18" height="18" rx="5" stroke-width="1.5" stroke="#323232" stroke-linecap="round" stroke-linejoin="round" fill="none"/><path d="M0,0H24V24H0Z" fill="none"/></svg>