<svg id="Layer_3" data-name="Layer 3" xmlns="http://www.w3.org/2000/svg" viewBox="0 0 24 24"><title>telescope-square</title><rect width="24" height="24" fill="none"/><path d="M13.21,11.93a1.05917,1.05917,0,0,1,.1.12,1.55144,1.55144,0,1,1-2.3-.12,1.56944,1.56944,0,0,1,2.2,0" fill="none" stroke="#323232" stroke-linecap="round" stroke-linejoin="round" stroke-width="1.5"/><rect x="14.70876" y="6.57313" width="2.80044" height="4.6674" rx="0.93348" transform="translate(-2.16356 6.68309) rotate(-22)" stroke-width="1.5" stroke="#323232" stroke-linecap="round" stroke-linejoin="round" fill="none"/><line x1="11.00787" y1="14.13525" x2="8.98962" y2="17" fill="none" stroke="#323232" stroke-linecap="round" stroke-linejoin="round" stroke-width="1.5"/><line x1="13.21161" y1="14.13525" x2="15.35022" y2="17" fill="none" stroke="#323232" stroke-linecap="round" stroke-linejoin="round" stroke-width="1.5"/><path d="M10.56,13.16l-.61.25a.99425.99425,0,0,1-1.3-.55l-.66-1.61a.999.999,0,0,1,.56-1.3l5.09649-2.06243a.5.5,0,0,1,.65106.27595l1.0249,2.53295a.5.5,0,0,1-.276.651L13.31,12.05" fill="none" stroke="#323232" stroke-linecap="round" stroke-linejoin="round" stroke-width="1.5"/><path d="M7.92236,10.95312,6.58008,11.5a.9323.9323,0,0,0-.51,1.21l.16992.44a.9473.9473,0,0,0,1.22.51l1.34009-.54" fill="none" stroke="#323232" stroke-linecap="round" stroke-linejoin="round" stroke-width="1.5"/><rect x="3" y="3" width="18" height="18" rx="5" stroke-width="1.5" stroke="#323232" stroke-linecap="round" stroke-linejoin="round" fill="none"/><rect x="3" y="3" width="18" height="18" rx="5" stroke-width="1.5" stroke="#323232" stroke-linecap="round" stroke-linejoin="round" fill="none"/></svg>