<?xml version="1.0" encoding="utf-8"?>
<!-- Generator: Adobe Illustrator 24.0.2, SVG Export Plug-In . SVG Version: 6.00 Build 0)  -->
<svg version="1.1" id="Layer_3" xmlns="http://www.w3.org/2000/svg" xmlns:xlink="http://www.w3.org/1999/xlink" x="0px" y="0px"
	 width="24px" height="24px" viewBox="0 0 24 24" enable-background="new 0 0 24 24" xml:space="preserve">
<g>
	<g>
		<path fill="none" d="M24,0v24H0V0H24z"/>
	</g>
	<g>
		
			<line fill="none" stroke="#323232" stroke-width="1.5" stroke-linecap="round" stroke-linejoin="round" x1="15.5" y1="8" x2="18.5" y2="8"/>
		
			<line fill="none" stroke="#323232" stroke-width="1.5" stroke-linecap="round" stroke-linejoin="round" x1="17" y1="9.5" x2="17" y2="6.5"/>
		<path fill="none" stroke="#323232" stroke-width="1.5" stroke-linecap="round" stroke-linejoin="round" d="M17,4
			c-2.209,0-4,1.791-4,4s1.791,4,4,4c2.21,0,4-1.791,4-4S19.21,4,17,4"/>
		<g>
			<path fill="none" stroke="#323232" stroke-width="1.5" stroke-linecap="round" stroke-linejoin="round" d="M4.63,13.682V5.444
				C4.63,4.094,5.724,3,7.074,3s2.444,1.094,2.444,2.444v8.238v0.002c0.984,0.744,1.63,1.912,1.63,3.24
				c0,2.252-1.824,4.076-4.074,4.076S3,19.176,3,16.926c0-1.328,0.646-2.498,1.63-3.24"/>
		</g>
		
			<circle fill="none" stroke="#323232" stroke-width="1.5" stroke-linecap="round" stroke-linejoin="round" cx="7" cy="17" r="1.5"/>
		
			<line fill="none" stroke="#323232" stroke-width="1.5" stroke-linecap="round" stroke-linejoin="round" x1="7" y1="15" x2="7" y2="9"/>
	</g>
</g>
</svg>
