<svg id="Layer_3" data-name="Layer 3" xmlns="http://www.w3.org/2000/svg" viewBox="0 0 24 24"><title>thumbs-up-circle</title><line x1="7.25" y1="11.434" x2="7.25" y2="15.434" fill="none" stroke="#323232" stroke-linecap="round" stroke-linejoin="round" stroke-width="1.5"/><path d="M15.75,10.432H13.7v-1.7a1.051,1.051,0,0,0-1.05-1.051h-.4a1,1,0,0,0-.858.486L9.785,10.846A2,2,0,0,0,9.5,11.875v2.809a1,1,0,0,0,1,1h4.179a1,1,0,0,0,.833-.445l1.07-1.606a1,1,0,0,0,.168-.555V11.432A1,1,0,0,0,15.75,10.432Z" fill="none" stroke="#323232" stroke-linecap="round" stroke-linejoin="round" stroke-width="1.5"/><circle cx="12" cy="12" r="9" fill="none" stroke="#323232" stroke-linecap="round" stroke-linejoin="round" stroke-width="1.5"/><path d="M0,0H24V24H0Z" fill="none"/></svg>