<svg id="Layer_3" data-name="Layer 3" xmlns="http://www.w3.org/2000/svg" viewBox="0 0 24 24"><title>thumbs-up-circle_1</title><path d="M12.616,8.313h-.4" fill="none" stroke="#323232" stroke-linecap="round" stroke-linejoin="round" stroke-width="1.5"/><path d="M0,0H24V24H0Z" fill="none"/><line x1="7.5" y1="11.473" x2="7.5" y2="14.842" fill="none" stroke="#323232" stroke-linecap="round" stroke-linejoin="round" stroke-width="1.5"/><path d="M12.616,8.313A.884.884,0,0,1,13.5,9.2v1.431h1.658a.842.842,0,0,1,.842.843v1.386a.843.843,0,0,1-.141.467l-.9,1.352a.838.838,0,0,1-.7.375H10.737A.842.842,0,0,1,9.9,14.21V11.845a1.685,1.685,0,0,1,.24-.867l1.353-2.256a.841.841,0,0,1,.723-.409" fill="none" stroke="#323232" stroke-linecap="round" stroke-linejoin="round" stroke-width="1.5"/><path d="M12,21a9,9,0,1,1,9-9,9,9,0,0,1-9,9" fill="none" stroke="#323232" stroke-linecap="round" stroke-linejoin="round" stroke-width="1.5"/></svg>