<svg id="Layer_3" data-name="Layer 3" xmlns="http://www.w3.org/2000/svg" viewBox="0 0 24 24"><rect width="24" height="24" fill="none"/><line x1="8.30127" y1="10.5" x2="8.30127" y2="20" fill="none" stroke="#323232" stroke-linecap="round" stroke-linejoin="round" stroke-width="1.5"/><path d="M8.30127,10.50009,10.637,4.63052a1,1,0,0,1,1.2818-.566l.63922.24091A3,3,0,0,1,14.5,7.11266V10.5h2.99877a2.5,2.5,0,0,1,2.42535,3.10634l-1.125,4.5A2.5,2.5,0,0,1,16.37377,20H5.5A1.5,1.5,0,0,1,4,18.5V12a1.5,1.5,0,0,1,1.5-1.5Z" fill="none" stroke="#323232" stroke-linecap="round" stroke-linejoin="round" stroke-width="1.5"/></svg>