<svg id="Layer_3" data-name="Layer 3" xmlns="http://www.w3.org/2000/svg" viewBox="0 0 24 24"><title>thumbs-up-store</title><path d="M21,15v4.286A1.715,1.715,0,0,1,19.286,21H15" fill="none" stroke="#323232" stroke-linecap="round" stroke-linejoin="round" stroke-width="1.5"/><path d="M3,9V4.714A1.715,1.715,0,0,1,4.714,3H9" fill="none" stroke="#323232" stroke-linecap="round" stroke-linejoin="round" stroke-width="1.5"/><path d="M3.941,19.984H2.559A.559.559,0,0,1,2,19.425V15.043a.559.559,0,0,1,.559-.559H3.941a.569.569,0,0,1,.559.6v4.382A.552.552,0,0,1,3.941,19.984Z" fill="none" stroke="#323232" stroke-linecap="round" stroke-linejoin="round" stroke-width="1.5"/><path d="M4.5,15.669l1.846-3.021a1.35,1.35,0,0,1,2.5.7v1.595h1.51a1.354,1.354,0,0,1,1.128.606,1.374,1.374,0,0,1,.177,1.139l-.732,2.562a1.008,1.008,0,0,1-.968.73H6.38a1.251,1.251,0,0,1-.8-.288L4.5,18.8" fill="none" stroke="#323232" stroke-linecap="round" stroke-linejoin="round" stroke-width="1.5"/><path d="M13.04,6.148V11" fill="none" stroke="#323232" stroke-linecap="round" stroke-linejoin="round" stroke-width="1.5"/><path d="M20.96,8V6.148" fill="none" stroke="#323232" stroke-linecap="round" stroke-linejoin="round" stroke-width="1.5"/><path d="M15.248,5h.057A1.784,1.784,0,0,0,18.7,5h.057a1.657,1.657,0,0,0,1.7,1.232,1.48,1.48,0,0,0,1.392-2.113l-.659-1.3A1.5,1.5,0,0,0,19.848,2h-5.7a1.5,1.5,0,0,0-1.338.821l-.658,1.3a1.479,1.479,0,0,0,1.392,2.113A1.659,1.659,0,0,0,15.248,5Z" fill="none" stroke="#323232" stroke-linecap="round" stroke-linejoin="round" stroke-width="1.5"/><path d="M20.96,11V6.148" fill="none" stroke="#323232" stroke-linecap="round" stroke-linejoin="round" stroke-width="1.5"/><line x1="17" y1="11" x2="17" y2="9" fill="none" stroke="#323232" stroke-linecap="round" stroke-linejoin="round" stroke-width="1.5"/><path d="M12.444,11h9.112" fill="none" stroke="#323232" stroke-linecap="round" stroke-linejoin="round" stroke-width="1.5"/><path d="M0,0H24V24H0Z" fill="none"/></svg>