<svg id="Layer_3" data-name="Layer 3" xmlns="http://www.w3.org/2000/svg" viewBox="0 0 24 24"><title>thumbs-up-like-square</title><path d="M0,0H24V24H0Z" fill="none"/><line x1="7.5" y1="11.921" x2="7.5" y2="15.289" fill="none" stroke="#323232" stroke-linecap="round" stroke-linejoin="round" stroke-width="1.5"/><path d="M15.158,11.077a.842.842,0,0,1,.842.842v1.386a.846.846,0,0,1-.141.468l-.9,1.352a.84.84,0,0,1-.7.375H10.737a.842.842,0,0,1-.842-.842V12.292a1.684,1.684,0,0,1,.24-.866L11.488,9.17a.841.841,0,0,1,.723-.409h.4a.884.884,0,0,1,.884.885v1.431Z" fill="none" stroke="#323232" stroke-linecap="round" stroke-linejoin="round" stroke-width="1.5"/><rect x="3" y="3" width="18" height="18" rx="5" stroke-width="1.5" stroke="#323232" stroke-linecap="round" stroke-linejoin="round" fill="none"/></svg>