<svg id="Layer_3" data-name="Layer 3" xmlns="http://www.w3.org/2000/svg" viewBox="0 0 24 24"><title>thumbs-up-documet-contract</title><path d="M6,10V5A2,2,0,0,1,8,3H19a2,2,0,0,1,2,2V19a2,2,0,0,1-2,2H15" fill="none" stroke="#323232" stroke-linecap="round" stroke-linejoin="round" stroke-width="1.5"/><line x1="10" y1="7" x2="17" y2="7" fill="none" stroke="#323232" stroke-linecap="round" stroke-linejoin="round" stroke-width="1.5"/><line x1="12" y1="11" x2="17" y2="11" fill="none" stroke="#323232" stroke-linecap="round" stroke-linejoin="round" stroke-width="1.5"/><line x1="17" y1="15" x2="15" y2="15" fill="none" stroke="#323232" stroke-linecap="round" stroke-linejoin="round" stroke-width="1.5"/><path d="M4.941,20.975H3.559A.559.559,0,0,1,3,20.416H3V16.034a.559.559,0,0,1,.559-.559H4.941a.569.569,0,0,1,.56.578v4.4A.552.552,0,0,1,4.941,20.975Z" fill="none" stroke="#323232" stroke-linecap="round" stroke-linejoin="round" stroke-width="1.5"/><path d="M5.5,16.66l1.848-3.017a1.35,1.35,0,0,1,2.5.7v1.6h1.51a1.354,1.354,0,0,1,1.128.606,1.374,1.374,0,0,1,.177,1.139l-.732,2.562a1.008,1.008,0,0,1-.968.73H7.382a1.256,1.256,0,0,1-.8-.288l-1.082-.9" fill="none" stroke="#323232" stroke-linecap="round" stroke-linejoin="round" stroke-width="1.5"/><path d="M0,0H24V24H0Z" fill="none"/></svg>