<svg id="Layer_3" data-name="Layer 3" xmlns="http://www.w3.org/2000/svg" viewBox="0 0 24 24"><path d="M0,0H24V24H0Z" fill="none"/><path d="M13.66679,10.33367v-1.522A1.90476,1.90476,0,0,0,12.61386,7.108l-.01451-.00725a.95237.95237,0,0,0-1.27031.41135l-1.4719,2.82157H8a1,1,0,0,0-1,1v3.71428a1,1,0,0,0,1,1h6.90191a1.5,1.5,0,0,0,1.46493-1.17752l.59749-2.71429a1.5,1.5,0,0,0-1.46494-1.82247Z" fill="none" stroke="#323232" stroke-linecap="round" stroke-linejoin="round" stroke-width="1.5"/><line x1="9.85" y1="10.33366" x2="9.85" y2="16.04794" fill="none" stroke="#323232" stroke-linecap="round" stroke-linejoin="round" stroke-width="1.5"/><circle cx="12" cy="12" r="9" fill="none" stroke="#323232" stroke-linecap="round" stroke-linejoin="round" stroke-width="1.5"/></svg>