<svg id="Layer_3" data-name="Layer 3" xmlns="http://www.w3.org/2000/svg" viewBox="0 0 24 24"><title>thumbs-up-like-square</title><path d="M0,0H24V24H0Z" fill="none"/><path d="M8,10.33366H9.85714a0,0,0,0,1,0,0V16a0,0,0,0,1,0,0H8a1,1,0,0,1-1-1V11.33366A1,1,0,0,1,8,10.33366Z" fill="none" stroke="#323232" stroke-linecap="round" stroke-linejoin="round" stroke-width="1.5"/><path d="M9.85714,10.33366,11.329,7.51209a.95237.95237,0,0,1,1.27031-.41135l.01451.00725a1.90476,1.90476,0,0,1,1.05292,1.70367v1.47407h1.90406A1.42858,1.42858,0,0,1,16.966,12.02141l-.62894,2.85713A1.42857,1.42857,0,0,1,14.94192,16H9.85714" fill="none" stroke="#323232" stroke-linecap="round" stroke-linejoin="round" stroke-width="1.5"/><rect x="3" y="3" width="18" height="18" rx="5" stroke-width="1.5" stroke="#323232" stroke-linecap="round" stroke-linejoin="round" fill="none"/></svg>