<svg id="Layer_3" data-name="Layer 3" xmlns="http://www.w3.org/2000/svg" viewBox="0 0 24 24"><title>thumbs-up-square</title><line x1="7.25" y1="11.75" x2="7.25" y2="15.75" fill="none" stroke="#323232" stroke-linecap="round" stroke-linejoin="round" stroke-width="1.5"/><path d="M15.75,10.747H13.7v-1.7A1.05,1.05,0,0,0,12.652,8h-.4a1,1,0,0,0-.858.486L9.785,11.161A2.007,2.007,0,0,0,9.5,12.19V15a1,1,0,0,0,1,1h4.179a1,1,0,0,0,.833-.445l1.07-1.606a1,1,0,0,0,.168-.555V11.747A1,1,0,0,0,15.75,10.747Z" fill="none" stroke="#323232" stroke-linecap="round" stroke-linejoin="round" stroke-width="1.5"/><rect x="3" y="3" width="18" height="18" rx="5" stroke-width="1.5" stroke="#323232" stroke-linecap="round" stroke-linejoin="round" fill="none"/><path d="M0,0H24V24H0Z" fill="none"/></svg>