<svg id="Layer_3" data-name="Layer 3" xmlns="http://www.w3.org/2000/svg" viewBox="0 0 24 24"><title>Artboard 174</title><path d="M0,0H24V24H0Z" fill="none"/><path d="M17.925,5.237a8.986,8.986,0,0,1,2.9,5.013" fill="none" stroke="#323232" stroke-linecap="round" stroke-linejoin="round" stroke-width="1.5"/><path d="M6.075,18.763a8.986,8.986,0,0,1-2.9-5.013" fill="none" stroke="#323232" stroke-linecap="round" stroke-linejoin="round" stroke-width="1.5"/><path d="M14.9,20.515a8.889,8.889,0,0,1-5.792,0" fill="none" stroke="#323232" stroke-linecap="round" stroke-linejoin="round" stroke-width="1.5"/><path d="M14.9,3.485a8.889,8.889,0,0,0-5.792,0" fill="none" stroke="#323232" stroke-linecap="round" stroke-linejoin="round" stroke-width="1.5"/><path d="M17.925,18.763a8.986,8.986,0,0,0,2.9-5.013" fill="none" stroke="#323232" stroke-linecap="round" stroke-linejoin="round" stroke-width="1.5"/><path d="M3.173,10.25a8.978,8.978,0,0,1,2.9-5.013" fill="none" stroke="#323232" stroke-linecap="round" stroke-linejoin="round" stroke-width="1.5"/><path d="M11.275,7.3,8.088,12.715a.621.621,0,0,0,.522.94h2.984v2.724a.607.607,0,0,0,1.131.319l3.187-5.413a.621.621,0,0,0-.522-.94H12.406V7.622A.607.607,0,0,0,11.275,7.3Z" fill="none" stroke="#323232" stroke-linecap="round" stroke-linejoin="round" stroke-width="1.5"/></svg>