<svg id="Layer_3" data-name="Layer 3" xmlns="http://www.w3.org/2000/svg" viewBox="0 0 24 24"><title>thunder-lightning-square</title><path id="a1080z" d="M11.688,7.217a.5.5,0,0,1,.9.28v3.251H15.5a.5.5,0,0,1,.41.775l-3.6,5.26a.5.5,0,0,1-.9-.28V13.252H8.5a.5.5,0,0,1-.409-.776Z" fill="none" stroke="#323232" stroke-linecap="round" stroke-linejoin="round" stroke-width="1.5"/><path d="M3,7A4,4,0,0,1,7,3H17a4,4,0,0,1,4,4V17a4,4,0,0,1-4,4H7a4,4,0,0,1-4-4Z" fill="none" stroke="#323232" stroke-linecap="round" stroke-linejoin="round" stroke-width="1.5"/><path d="M0,24V0H24V24Z" fill="none"/></svg>