<svg id="Layer_3" data-name="Layer 3" xmlns="http://www.w3.org/2000/svg" viewBox="0 0 24 24"><title>thunderbolt-cable</title><path d="M12.5,3h5a.5.5,0,0,1,.5.5V7a2,2,0,0,1-2,2H14a2,2,0,0,1-2-2V3.5A.5.5,0,0,1,12.5,3Z" transform="translate(21 -9) rotate(90)" fill="none" stroke="#323232" stroke-linecap="round" stroke-linejoin="round" stroke-width="1.5"/><path d="M18,4h2.5a.5.5,0,0,1,.5.5v3a.5.5,0,0,1-.5.5H18" fill="none" stroke="#323232" stroke-linecap="round" stroke-linejoin="round" stroke-width="1.5"/><path d="M6.5,15h5a.5.5,0,0,1,.5.5V19a2,2,0,0,1-2,2H8a2,2,0,0,1-2-2V15.5A.5.5,0,0,1,6.5,15Z" transform="translate(-9 27) rotate(-90)" fill="none" stroke="#323232" stroke-linecap="round" stroke-linejoin="round" stroke-width="1.5"/><path d="M6,20H3.5a.5.5,0,0,1-.5-.5v-3a.5.5,0,0,1,.5-.5H6" fill="none" stroke="#323232" stroke-linecap="round" stroke-linejoin="round" stroke-width="1.5"/><path d="M12,6H6A3,3,0,0,0,3,9H3a3,3,0,0,0,3,3H18a3,3,0,0,1,3,3h0a3,3,0,0,1-3,3H12" fill="none" stroke="#323232" stroke-linecap="round" stroke-linejoin="round" stroke-width="1.5"/><rect width="24" height="24" fill="none"/></svg>