<svg id="Layer_3" data-name="Layer 3" xmlns="http://www.w3.org/2000/svg" viewBox="0 0 24 24"><title>time-alarm-clock-more-dots</title><path d="M24,24H0V0H24Z" fill="none"/><path d="M7.63,14.866l3.656-2.229V7.986" fill="none" stroke="#323232" stroke-linecap="round" stroke-linejoin="round" stroke-width="1.5"/><path d="M11,21a9,9,0,1,1,8.941-10" fill="none" stroke="#323232" stroke-linecap="round" stroke-linejoin="round" stroke-width="1.5"/><path d="M18,14a4,4,0,1,1-4,4,4,4,0,0,1,4-4" fill="none" stroke="#323232" stroke-linecap="round" stroke-linejoin="round" stroke-width="1.5"/><path d="M19.333,17.956a.043.043,0,0,0-.044.044.044.044,0,0,0,.088,0,.044.044,0,0,0-.044-.044" fill="none" stroke="#323232" stroke-linecap="round" stroke-linejoin="round" stroke-width="1.5"/><path d="M16.667,17.956a.043.043,0,0,0-.044.044.044.044,0,1,0,.044-.044" fill="none" stroke="#323232" stroke-linecap="round" stroke-linejoin="round" stroke-width="1.5"/></svg>