<svg id="Layer_3" data-name="Layer 3" xmlns="http://www.w3.org/2000/svg" viewBox="0 0 24 24"><title>timer-clock-alarm-more-dots</title><path d="M0,0H24V24H0Z" fill="none"/><path d="M12,13.352a.069.069,0,1,0,.069.069A.069.069,0,0,0,12,13.352" fill="none" stroke="#323232" stroke-linecap="round" stroke-linejoin="round" stroke-width="1.5"/><line x1="12" y1="5.842" x2="12" y2="3" fill="none" stroke="#323232" stroke-linecap="round" stroke-linejoin="round" stroke-width="1.5"/><path d="M12,5.842a7.579,7.579,0,1,1-7.579,7.579A7.579,7.579,0,0,1,12,5.842" fill="none" stroke="#323232" stroke-linecap="round" stroke-linejoin="round" stroke-width="1.5"/><path d="M10.105,3H13.9" fill="none" stroke="#323232" stroke-linecap="round" stroke-linejoin="round" stroke-width="1.5"/><path d="M20.329,6.592l-1.5-1.5.75.75" fill="none" stroke="#323232" stroke-linecap="round" stroke-linejoin="round" stroke-width="1.5"/><path d="M3.671,6.592l1.5-1.5-.75.75" fill="none" stroke="#323232" stroke-linecap="round" stroke-linejoin="round" stroke-width="1.5"/><path d="M15.369,13.352a.069.069,0,1,0,.069.069.069.069,0,0,0-.069-.069" fill="none" stroke="#323232" stroke-linecap="round" stroke-linejoin="round" stroke-width="1.5"/><path d="M8.632,13.352a.069.069,0,1,0,.069.069.069.069,0,0,0-.069-.069" fill="none" stroke="#323232" stroke-linecap="round" stroke-linejoin="round" stroke-width="1.5"/></svg>