<?xml version="1.0" encoding="utf-8"?>
<!-- Generator: Adobe Illustrator 24.0.2, SVG Export Plug-In . SVG Version: 6.00 Build 0)  -->
<svg version="1.1" id="Layer_3" xmlns="http://www.w3.org/2000/svg" xmlns:xlink="http://www.w3.org/1999/xlink" x="0px" y="0px"
	 viewBox="0 0 24 24" style="enable-background:new 0 0 24 24;" xml:space="preserve">
<style type="text/css">
	.st0{fill:none;stroke:#323232;stroke-width:1.5;stroke-linecap:round;stroke-linejoin:round;}
	.st1{fill:none;}
</style>
<title>time-clock-edit</title>
<g>
	<g>
		<path class="st0" d="M12,21c-5,0-9-4.1-9-9s4.1-9,9-9c4.6,0,8.4,3.5,8.9,8"/>
		<path class="st0" d="M15.3,17.3l3.5-3.5c0.4-0.4,1-0.4,1.4,0c0,0,0,0,0,0l1.5,1.5c0.4,0.4,0.4,1,0,1.4c0,0,0,0,0,0l-3.5,3.5
			c-0.2,0.2-0.4,0.3-0.7,0.3H15V18C15,17.8,15.1,17.5,15.3,17.3z"/>
		<polyline class="st0" points="8.6,14.9 12.3,12.6 12.3,8 		"/>
	</g>
	<path class="st1" d="M24,24H0V0h24V24z"/>
</g>
</svg>
