<svg id="Layer_3" data-name="Layer 3" xmlns="http://www.w3.org/2000/svg" viewBox="0 0 24 24"><title>toilet-paper</title><path d="M5,7H5A1.5,1.5,0,0,1,6.5,8.5v4A.5.5,0,0,1,6,13H4a.5.5,0,0,1-.5-.5v-4A1.5,1.5,0,0,1,5,7Z" transform="translate(-5 15) rotate(-90)" fill="none" stroke="#323232" stroke-linecap="round" stroke-linejoin="round" stroke-width="1.5"/><path d="M12,10v9a2,2,0,0,0,2,2h5a2,2,0,0,0,2-2V10c0-3.314-1.791-6-4-6H8" fill="none" stroke="#323232" stroke-linecap="round" stroke-linejoin="round" stroke-width="1.5"/><path d="M4.13,8.5C4.57,5.92,6.14,4,8,4c2.21,0,4,2.69,4,6s-1.79,6-4,6c-1.86,0-3.43-1.92-3.87-4.5" fill="none" stroke="#323232" stroke-linecap="round" stroke-linejoin="round" stroke-width="1.5"/><path d="M0,0H24V24H0Z" fill="none"/></svg>