<svg id="Layer_3" data-name="Layer 3" xmlns="http://www.w3.org/2000/svg" viewBox="0 0 24 24"><title>toilet</title><path d="M17.91,14a5.832,5.832,0,0,1-1.67,3.24A5.991,5.991,0,0,1,6.09,14" fill="none" stroke="#323232" stroke-linecap="round" stroke-linejoin="round" stroke-width="1.5"/><rect x="10.75" y="5.5" width="2.5" height="14.5" rx="1.25" transform="translate(-0.75 24.75) rotate(-90)" stroke-width="1.5" stroke="#323232" stroke-linecap="round" stroke-linejoin="round" fill="none"/><path d="M9.5,3h5a3,3,0,0,1,3,3v5.5a0,0,0,0,1,0,0H6.5a0,0,0,0,1,0,0V6A3,3,0,0,1,9.5,3Z" fill="none" stroke="#323232" stroke-linecap="round" stroke-linejoin="round" stroke-width="1.5"/><line x1="14.53" y1="6" x2="13.53" y2="6" fill="none" stroke="#323232" stroke-linecap="round" stroke-linejoin="round" stroke-width="1.5"/><path d="M16.08,17.39l.68,3.41a1,1,0,0,1-.98,1.2H8.22a1,1,0,0,1-.98-1.2l.68-3.41" fill="none" stroke="#323232" stroke-linecap="round" stroke-linejoin="round" stroke-width="1.5"/><rect width="24" height="24" fill="none"/></svg>