<svg id="Layer_3" data-name="Layer 3" xmlns="http://www.w3.org/2000/svg" viewBox="0 0 24 24"><title>tomato</title><rect width="24" height="24" fill="none"/><path d="M8.431,7.012,8.21,6.79a1.57,1.57,0,0,1,0-2.22h0a1.57,1.57,0,0,1,2.22,0A1.57,1.57,0,0,1,12,3h0a1.57,1.57,0,0,1,1.57,1.57,1.57,1.57,0,0,1,2.22,0h0a1.57,1.57,0,0,1,0,2.22l-.22.22" fill="none" stroke="#323232" stroke-linecap="round" stroke-linejoin="round" stroke-width="1.5"/><path d="M8.8,7a23.381,23.381,0,0,1,3.2.512A23.381,23.381,0,0,1,15.2,7V7C18.4,7,20,9.51,20,13A8,8,0,0,1,4,13C4,9.51,5.6,7,8.8,7" fill="none" stroke="#323232" stroke-linecap="round" stroke-linejoin="round" stroke-width="1.5"/></svg>