<svg id="Layer_3" data-name="Layer 3" xmlns="http://www.w3.org/2000/svg" viewBox="0 0 24 24"><title>tools-vice-grip</title><path d="M24,0V24H0V0Z" fill="none"/><path d="M14.784,17.544l.86-.86a1.063,1.063,0,0,0,0-1.5L9.7,9.232a1.063,1.063,0,0,0-1.5,0L4.958,12.467a1.063,1.063,0,0,0,0,1.5l3.911,3.912a1.065,1.065,0,0,0,1.5,0l1.279-1.28,1.835,1.1A1.063,1.063,0,0,0,14.784,17.544Z" fill="none" stroke="#323232" stroke-linecap="round" stroke-linejoin="round" stroke-width="1.5"/><path d="M13.161,12.7l3.612-3.613,2.36,2.607a1.062,1.062,0,0,0,1.5,0l.616-.616a1.06,1.06,0,0,0,.2-1.226l-1.478-3.9-2.159-2.16a1.179,1.179,0,0,0-1.667,0L10.194,9.743" fill="none" stroke="#323232" stroke-linecap="round" stroke-linejoin="round" stroke-width="1.5"/><path d="M5.462,14.474l-2.679,2.68a1.178,1.178,0,0,0,0,1.667L4.062,20.1a1.178,1.178,0,0,0,1.667,0h.029l2.665-2.665" fill="none" stroke="#323232" stroke-linecap="round" stroke-linejoin="round" stroke-width="1.5"/><path d="M24,0V24H0V0Z" fill="none"/></svg>