<svg id="Layer_3" data-name="Layer 3" xmlns="http://www.w3.org/2000/svg" viewBox="0 0 24 24"><title>tools-hammer</title><path d="M18.67,6.7,16.054,4.084a3.7,3.7,0,0,0-5.233,0L9.648,5.257a.462.462,0,0,0,.327.789h.734a1.851,1.851,0,0,1,1.308.542l.766.766V8.663l1.963,1.962,1.01-.3.952.951v1.308l.562.562a1.056,1.056,0,0,0,1.493,0l2.431-2.432a1.054,1.054,0,0,0,0-1.493l-.561-.561H19.324l-.951-.952Z" fill="none" stroke="#323232" stroke-linecap="round" stroke-linejoin="round" stroke-width="1.5"/><path d="M3.192,20.305h0a2.374,2.374,0,0,0,3.491-.146l8.063-9.534L12.783,8.663,3.319,16.829A2.374,2.374,0,0,0,3.192,20.305Z" fill="none" stroke="#323232" stroke-linecap="round" stroke-linejoin="round" stroke-width="1.5"/><rect width="24" height="24" fill="none"/></svg>