<svg id="Layer_3" data-name="Layer 3" xmlns="http://www.w3.org/2000/svg" viewBox="0 0 24 24"><title>tools-wench</title><rect width="24" height="24" fill="none"/><path d="M14.3,7.576a4.766,4.766,0,0,1,2.134,2.138,4.995,4.995,0,0,1-8.38,5.361,5.051,5.051,0,0,1-.492-5.361A4.766,4.766,0,0,1,9.7,7.576a.5.5,0,0,1,.721.454V12h3.162V8.03A.5.5,0,0,1,14.3,7.576Z" fill="none" stroke="#323232" stroke-linecap="round" stroke-linejoin="round" stroke-width="1.5"/><circle cx="12" cy="12" r="9" fill="none" stroke="#323232" stroke-linecap="round" stroke-linejoin="round" stroke-width="1.5"/><line x1="9.5" y1="16.325" x2="9.5" y2="20.647" fill="none" stroke="#323232" stroke-linecap="round" stroke-linejoin="round" stroke-width="1.5"/><line x1="14.5" y1="16.326" x2="14.5" y2="20.647" fill="none" stroke="#323232" stroke-linecap="round" stroke-linejoin="round" stroke-width="1.5"/></svg>