<?xml version="1.0" encoding="utf-8"?>
<!-- Generator: Adobe Illustrator 24.0.2, SVG Export Plug-In . SVG Version: 6.00 Build 0)  -->
<svg version="1.1" id="Layer_1" xmlns="http://www.w3.org/2000/svg" xmlns:xlink="http://www.w3.org/1999/xlink" x="0px" y="0px"
	 width="24px" height="24px" viewBox="0 0 24 24" enable-background="new 0 0 24 24" xml:space="preserve">
<g>
	<path fill="none" d="M0,0h24v24H0V0z"/>
	<g>
		<g>
			<g>
				<path fill="none" stroke="#323232" stroke-width="1.5" stroke-linecap="round" stroke-linejoin="round" d="M4.512,20.489
					L4.512,20.489c-0.683-0.681-0.683-1.784,0-2.465L18.016,4.511c0.683-0.681,1.789-0.681,2.472,0l0,0
					c0.683,0.681,0.683,1.784,0,2.465L6.984,20.489C6.301,21.17,5.195,21.17,4.512,20.489z"/>
			</g>
			<path fill="none" stroke="#323232" stroke-width="1.5" stroke-linecap="round" stroke-linejoin="round" d="M13.183,9.347
				l-1.941-1.941c-0.322-0.322-0.322-0.845,0-1.167l3.997-3.997c0.322-0.322,0.845-0.322,1.167,0l1.973,1.973"/>
		</g>
		<path fill="none" stroke="#323232" stroke-width="1.5" stroke-linecap="round" stroke-linejoin="round" d="M6.5,6
			c0-0.828,0.672-1.5,1.5-1.5C7.172,4.5,6.5,3.828,6.5,3c0,0.828-0.672,1.5-1.5,1.5C5.828,4.5,6.5,5.172,6.5,6z"/>
		<path fill="none" stroke="#323232" stroke-width="1.5" stroke-linecap="round" stroke-linejoin="round" d="M3.5,13
			c0-0.828,0.672-1.5,1.5-1.5c-0.828,0-1.5-0.672-1.5-1.5c0,0.828-0.672,1.5-1.5,1.5C2.828,11.5,3.5,12.172,3.5,13z"/>
		<path fill="none" stroke="#323232" stroke-width="1.5" stroke-linecap="round" stroke-linejoin="round" d="M18,21
			c0-1.657,1.343-3,3-3c-1.657,0-3-1.343-3-3c0,1.657-1.343,3-3,3C16.657,18,18,19.343,18,21z"/>
	</g>
</g>
</svg>
