<svg id="Layer_3" data-name="Layer 3" xmlns="http://www.w3.org/2000/svg" viewBox="0 0 24 24"><title>toothpaste</title><path d="M0,0H24V24H0Z" fill="none"/><path d="M17.81,3.387h1.869a.934.934,0,0,1,.934.934v2.8a0,0,0,0,1,0,0H16.875a0,0,0,0,1,0,0v-2.8a.934.934,0,0,1,.934-.934Z" transform="translate(9.206 -11.715) rotate(45)" fill="none" stroke="#323232" stroke-linecap="round" stroke-linejoin="round" stroke-width="1.5"/><circle cx="12.09" cy="11.91" r="1.75" fill="none" stroke="#323232" stroke-linecap="round" stroke-linejoin="round" stroke-width="1.5"/><path d="M4.869,12.524,3.547,13.845a1.87,1.87,0,0,0,0,2.643l3.965,3.965a1.87,1.87,0,0,0,2.643,0l1.321-1.322L19.5,9.878a.935.935,0,0,0-.046-1.273L15.4,4.55A.935.935,0,0,0,14.122,4.5Z" fill="none" stroke="#323232" stroke-linecap="round" stroke-linejoin="round" stroke-width="1.5" fill-rule="evenodd"/><line x1="11.476" y1="19.131" x2="4.869" y2="12.524" fill="none" stroke="#323232" stroke-linecap="round" stroke-linejoin="round" stroke-width="1.5"/></svg>