<svg id="Layer_3" data-name="Layer 3" xmlns="http://www.w3.org/2000/svg" viewBox="0 0 24 24"><title>tooth-plus</title><path d="M0,0H24V24H0Z" fill="none"/><path d="M17.5,11A4.5,4.5,0,1,1,22,6.5,4.5,4.5,0,0,1,17.5,11" fill="none" stroke="#323232" stroke-linecap="round" stroke-linejoin="round" stroke-width="1.5"/><path d="M13.231,5.077a4.619,4.619,0,0,0-.563.109l-.954.268a2.664,2.664,0,0,1-1.439,0l-.954-.268A4.98,4.98,0,0,0,3,9.98v.093a22.786,22.786,0,0,0,1.818,8.946l.328.77A1.99,1.99,0,0,0,6.977,21h0a1.991,1.991,0,0,0,1.849-1.255l.949-2.39a1.31,1.31,0,0,1,2.438,0l.949,2.39A1.992,1.992,0,0,0,15.012,21h0a1.99,1.99,0,0,0,1.831-1.211l.328-.77a22.8,22.8,0,0,0,1.8-8.287" fill="none" stroke="#323232" stroke-linecap="round" stroke-linejoin="round" stroke-width="1.5"/><line x1="17.5" y1="5" x2="17.5" y2="8" fill="none" stroke="#323232" stroke-linecap="round" stroke-linejoin="round" stroke-width="1.5"/><line x1="19" y1="6.5" x2="16" y2="6.5" fill="none" stroke="#323232" stroke-linecap="round" stroke-linejoin="round" stroke-width="1.5"/></svg>