<?xml version="1.0" encoding="utf-8"?>
<!-- Generator: Adobe Illustrator 24.0.2, SVG Export Plug-In . SVG Version: 6.00 Build 0)  -->
<svg version="1.1" id="Layer_3" xmlns="http://www.w3.org/2000/svg" xmlns:xlink="http://www.w3.org/1999/xlink" x="0px" y="0px"
	 width="24px" height="24px" viewBox="0 0 24 24" enable-background="new 0 0 24 24" xml:space="preserve">
<g transform="matrix(4.49816e-11,1,-1,4.49816e-11,24,-2.16095e-09)">
	<path id="a_8_" fill="none" d="M24,0v24H0L0,0L24,0z"/>
</g>
<g transform="matrix(4.49816e-11,1,-1,4.49816e-11,24,-2.16095e-09)">
	<path id="a_7_" fill="none" d="M24,0v24H0L0,0L24,0z"/>
</g>
<g>
	<g>
		<path fill="none" stroke="#323232" stroke-width="1.5" stroke-linecap="round" stroke-linejoin="round" d="M18.364,3.879
			c3.515,1.172,3.515,3.071,0,4.243s-9.213,1.172-12.728,0c-3.515-1.172-3.515-3.071,0-4.243S14.849,2.707,18.364,3.879"/>
		<path fill="none" stroke="#323232" stroke-width="1.5" stroke-linecap="round" stroke-linejoin="round" d="M19.5,11.5
			C17.902,12.399,15.155,13,12,13s-5.902-0.601-7.5-1.5"/>
		<path fill="none" stroke="#323232" stroke-width="1.5" stroke-linecap="round" stroke-linejoin="round" d="M18,16
			c-1.278,0.599-3.476,1-6,1s-4.722-0.401-6-1"/>
		<path fill="none" stroke="#323232" stroke-width="1.5" stroke-linecap="round" stroke-linejoin="round" d="M16,20.5
			c-0.852,0.3-2.317,0.5-4,0.5s-3.148-0.2-4-0.5"/>
	</g>
	<path fill="none" d="M24,0v24H0V0H24z"/>
</g>
</svg>
