<svg id="Layer_3" data-name="Layer 3" xmlns="http://www.w3.org/2000/svg" viewBox="0 0 24 24"><title>toys-puzzle</title><path d="M12,3V5.773a.245.245,0,0,1-.367.216,1.74,1.74,0,1,0,0,3.022A.245.245,0,0,1,12,9.227V12h2.773a.245.245,0,0,0,.216-.367,1.74,1.74,0,1,1,3.022,0,.245.245,0,0,0,.216.367H21" fill="none" stroke="#323232" stroke-linecap="round" stroke-linejoin="round" stroke-width="1.5"/><path d="M12,21V18.227a.245.245,0,0,1,.367-.216,1.74,1.74,0,1,0,0-3.022A.245.245,0,0,1,12,14.773V12H9.227a.245.245,0,0,0-.216.367,1.74,1.74,0,1,1-3.022,0A.245.245,0,0,0,5.773,12H3" fill="none" stroke="#323232" stroke-linecap="round" stroke-linejoin="round" stroke-width="1.5"/><rect x="3" y="3" width="18" height="18" rx="4.034" stroke-width="1.5" stroke="#323232" stroke-linecap="round" stroke-linejoin="round" fill="none"/><rect width="24" height="24" fill="none"/></svg>