<svg id="Layer_3" data-name="Layer 3" xmlns="http://www.w3.org/2000/svg" viewBox="0 0 24 24"><path d="M0,0H24V24H0Z" fill="none"/><line x1="22" y1="21" x2="2" y2="21" fill="none" stroke="#323232" stroke-linecap="round" stroke-linejoin="round" stroke-width="1.5"/><line x1="21.98712" y1="14" x2="2.01288" y2="14" fill="none" stroke="#323232" stroke-linecap="round" stroke-linejoin="round" stroke-width="1.5"/><line x1="4" y1="8" x2="4" y2="14" fill="none" stroke="#323232" stroke-linecap="round" stroke-linejoin="round" stroke-width="1.5"/><path d="M2,18H19.0826a2,2,0,0,0,1.78886-1.10557l.70625-1.41249a4.00005,4.00005,0,0,0,.217-3.05377h0A6.47609,6.47609,0,0,0,15.651,8H2" fill="none" stroke="#323232" stroke-linecap="round" stroke-linejoin="round" stroke-width="1.5"/><line x1="14" y1="8" x2="14" y2="14" fill="none" stroke="#323232" stroke-linecap="round" stroke-linejoin="round" stroke-width="1.5"/><path d="M8.7194,8,7.21913,6.1247a1,1,0,0,1,0-1.2494l1.2-1.5A1.00005,1.00005,0,0,1,9.2,3h1.6a1,1,0,0,1,.78087.3753l1.2,1.5a1,1,0,0,1,0,1.2494L11.28062,8" fill="none" stroke="#323232" stroke-linecap="round" stroke-linejoin="round" stroke-width="1.5"/></svg>