<svg id="Layer_3" data-name="Layer 3" xmlns="http://www.w3.org/2000/svg" viewBox="0 0 24 24"><title>training-session-heart</title><line x1="10.125" y1="8.5" x2="17" y2="8.5" fill="none" stroke="#323232" stroke-linecap="round" stroke-linejoin="round" stroke-width="1.5"/><line x1="16" y1="12" x2="10.125" y2="12" fill="none" stroke="#323232" stroke-linecap="round" stroke-linejoin="round" stroke-width="1.5"/><line x1="10.125" y1="15.5" x2="11" y2="15.5" fill="none" stroke="#323232" stroke-linecap="round" stroke-linejoin="round" stroke-width="1.5"/><path d="M13,21H8a5,5,0,0,1-5-5V8A5,5,0,0,1,8,3h8a5,5,0,0,1,5,5v4" fill="none" stroke="#323232" stroke-linecap="round" stroke-linejoin="round" stroke-width="1.5"/><path d="M19.434,20.516a1.654,1.654,0,0,1-1.17.484h0a1.656,1.656,0,0,1-1.17-.484l-1.988-1.984a2.082,2.082,0,0,1,2.944-2.944l.21.209.21-.209a2.082,2.082,0,0,1,2.944,2.944Z" fill="none" stroke="#323232" stroke-linecap="round" stroke-linejoin="round" stroke-width="1.5"/><path d="M7.311,11.75a.25.25,0,1,0,.251.25.249.249,0,0,0-.251-.25" fill="none" stroke="#323232" stroke-linecap="round" stroke-linejoin="round" stroke-width="1.5"/><path d="M7.311,8.25a.25.25,0,1,0,.251.25.249.249,0,0,0-.251-.25" fill="none" stroke="#323232" stroke-linecap="round" stroke-linejoin="round" stroke-width="1.5"/><path d="M7.311,15.25a.25.25,0,1,0,.251.25.249.249,0,0,0-.251-.25" fill="none" stroke="#323232" stroke-linecap="round" stroke-linejoin="round" stroke-width="1.5"/><rect width="24" height="24" fill="none"/></svg>