<svg id="Layer_3" data-name="Layer 3" xmlns="http://www.w3.org/2000/svg" viewBox="0 0 24 24"><line x1="21.98712" y1="14" x2="2.01288" y2="14" fill="none" stroke="#323232" stroke-linecap="round" stroke-linejoin="round" stroke-width="1.5"/><line x1="17" y1="8" x2="17" y2="14" fill="none" stroke="#323232" stroke-linecap="round" stroke-linejoin="round" stroke-width="1.5"/><line x1="7" y1="8" x2="7" y2="14" fill="none" stroke="#323232" stroke-linecap="round" stroke-linejoin="round" stroke-width="1.5"/><path d="M5.12285,8A2,2,0,0,0,3.22548,9.36754L2.20527,12.42817a4.00005,4.00005,0,0,0,.217,3.05377l.70625,1.41249A2,2,0,0,0,4.9174,18H19.0826a2,2,0,0,0,1.78886-1.10557l.70625-1.41249a4.00005,4.00005,0,0,0,.217-3.05377L20.77452,9.36754A2,2,0,0,0,18.87715,8Z" fill="none" stroke="#323232" stroke-linecap="round" stroke-linejoin="round" stroke-width="1.5"/><line x1="12" y1="8" x2="12" y2="14" fill="none" stroke="#323232" stroke-linecap="round" stroke-linejoin="round" stroke-width="1.5"/><line x1="22" y1="21" x2="2" y2="21" fill="none" stroke="#323232" stroke-linecap="round" stroke-linejoin="round" stroke-width="1.5"/><path d="M10.48062,8,8.98038,6.1247a1,1,0,0,1,0-1.2494l1.2-1.5A1,1,0,0,1,10.96125,3H12.8a1,1,0,0,1,.78087.3753l1.2,1.5a1,1,0,0,1,0,1.2494L13.28062,8" fill="none" stroke="#323232" stroke-linecap="round" stroke-linejoin="round" stroke-width="1.5"/><path d="M0,0H24V24H0Z" fill="none"/></svg>