<?xml version="1.0" encoding="utf-8"?>
<!-- Generator: Adobe Illustrator 23.1.0, SVG Export Plug-In . SVG Version: 6.00 Build 0)  -->
<svg version="1.1" id="icons" xmlns="http://www.w3.org/2000/svg" xmlns:xlink="http://www.w3.org/1999/xlink" x="0px" y="0px"
	 width="24px" height="24px" viewBox="0 0 24 24" enable-background="new 0 0 24 24" xml:space="preserve">
<g>
	<g>
		<path fill="none" stroke="#323232" stroke-width="1.5" stroke-linecap="round" stroke-linejoin="round" d="M6,2.5L7.5,4L6,5.5"/>
		<path fill="none" stroke="#323232" stroke-width="1.5" stroke-linecap="round" stroke-linejoin="round" d="M7.5,4h-2
			c-1.657,0-3,1.343-3,3"/>
		<path fill="none" stroke="#323232" stroke-width="1.5" stroke-linecap="round" stroke-linejoin="round" d="M18,21.5L16.5,20
			l1.5-1.5"/>
		<path fill="none" stroke="#323232" stroke-width="1.5" stroke-linecap="round" stroke-linejoin="round" d="M16.5,20h2
			c1.657,0,3-1.343,3-3"/>
		<path fill="none" stroke="#323232" stroke-width="1.5" stroke-linecap="round" stroke-linejoin="round" d="M12.667,18H6
			c-1.105,0-2-0.895-2-2v-4c0-1.105,0.895-2,2-2h6.667c1.105,0,2,0.895,2,2v4C14.667,17.105,13.771,18,12.667,18z"/>
		<path fill="none" stroke="#323232" stroke-width="1.5" stroke-linecap="round" stroke-linejoin="round" d="M14.667,14H18
			c1.105,0,2-0.895,2-2V8c0-1.105-0.895-2-2-2h-6.667c-1.105,0-2,0.895-2,2v2"/>
	</g>
	<rect y="0" fill="none" width="24" height="24"/>
</g>
</svg>
