<?xml version="1.0" encoding="utf-8"?>
<!-- Generator: Adobe Illustrator 24.0.2, SVG Export Plug-In . SVG Version: 6.00 Build 0)  -->
<svg version="1.1" id="Layer_3" xmlns="http://www.w3.org/2000/svg" xmlns:xlink="http://www.w3.org/1999/xlink" x="0px" y="0px"
	 width="24px" height="24px" viewBox="0 0 24 24" enable-background="new 0 0 24 24" xml:space="preserve">
<g>
	<path fill="none" d="M0,0h24v24H0V0z"/>
	<g>
		<g>
			<g>
				<g>
					<path fill="none" stroke="#323232" stroke-width="1.5" stroke-linecap="round" stroke-linejoin="round" d="M6.828,19.828
						l-2.657-2.657C3.421,16.421,3,15.404,3,14.343V9.657c0-1.061,0.421-2.078,1.172-2.828l2.657-2.657C7.579,3.421,8.596,3,9.657,3
						h4.685c1.061,0,2.078,0.421,2.828,1.172l2.658,2.658C20.579,7.58,21,8.597,21,9.658v4.684c0,1.061-0.421,2.078-1.171,2.828
						l-2.657,2.658C16.422,20.578,15.404,21,14.343,21H9.657C8.596,21,7.579,20.579,6.828,19.828z"/>
				</g>
			</g>
		</g>
		<path fill="none" stroke="#323232" stroke-width="1.5" stroke-linecap="round" stroke-linejoin="round" d="M8,9.934h8"/>
		<path fill="none" stroke="#323232" stroke-width="1.5" stroke-linecap="round" stroke-linejoin="round" d="M10.25,9.934v-1.5
			c0-0.552,0.392-1,0.875-1h1.75c0.483,0,0.875,0.448,0.875,1v1.5"/>
		<path fill="none" stroke="#323232" stroke-width="1.5" stroke-linecap="round" stroke-linejoin="round" d="M8.875,9.934v5.75
			c0,0.552,0.448,1,1,1h4.25c0.552,0,1-0.448,1-1v-5.75"/>
	</g>
</g>
</svg>
