<?xml version="1.0" encoding="utf-8"?>
<!-- Generator: Adobe Illustrator 23.1.0, SVG Export Plug-In . SVG Version: 6.00 Build 0)  -->
<svg version="1.1" id="icons" xmlns="http://www.w3.org/2000/svg" xmlns:xlink="http://www.w3.org/1999/xlink" x="0px" y="0px"
	 width="24px" height="24px" viewBox="0 0 24 24" enable-background="new 0 0 24 24" xml:space="preserve">
<g>
	<g>
		<path fill="none" stroke="#323232" stroke-width="1.5" stroke-linecap="round" stroke-linejoin="round" d="M15.019,12.724
			l0.874,1.514c0.349,0.604-0.087,1.36-0.785,1.36H13.36"/>
		<path fill="none" stroke="#323232" stroke-width="1.5" stroke-linecap="round" stroke-linejoin="round" d="M8.981,12.724
			l-0.874,1.514c-0.349,0.604,0.087,1.36,0.785,1.36h1.748"/>
		<path fill="none" stroke="#323232" stroke-width="1.5" stroke-linecap="round" stroke-linejoin="round" d="M10.341,10.369
			l0.874-1.514c0.349-0.604,1.221-0.604,1.57,0l0.874,1.514"/>
		<path fill="none" stroke="#323232" stroke-width="1.5" stroke-linecap="round" stroke-linejoin="round" d="M17.21,21H6.79
			c-1.019,0-2.11-0.766-2.222-1.779l-1.556-14C2.881,4.036,3.808,3,5,3h14c1.192,0,2.119,1.036,1.988,2.221l-1.556,14
			C19.319,20.234,18.229,21,17.21,21z"/>
	</g>
	<rect fill="none" width="24" height="24"/>
</g>
</svg>
