<svg id="Layer_3" data-name="Layer 3" xmlns="http://www.w3.org/2000/svg" viewBox="0 0 24 24"><title>trash-delete-bin-refresh</title><path d="M0,0H24V24H0Z" fill="none"/><path d="M12,3A9,9,0,1,0,16.3,4.1" fill="none" stroke="#323232" stroke-linecap="round" stroke-linejoin="round" stroke-width="1.5"/><path d="M8,9.934h8" fill="none" stroke="#323232" stroke-linecap="round" stroke-linejoin="round" stroke-width="1.5"/><path d="M10.25,9.934v-1.5a.944.944,0,0,1,.875-1h1.75a.944.944,0,0,1,.875,1v1.5" fill="none" stroke="#323232" stroke-linecap="round" stroke-linejoin="round" stroke-width="1.5"/><path d="M8.875,9.934v5.75a1,1,0,0,0,1,1h4.25a1,1,0,0,0,1-1V9.934" fill="none" stroke="#323232" stroke-linecap="round" stroke-linejoin="round" stroke-width="1.5"/><polyline points="19.197 3.576 16.304 3.576 16.304 6.469" fill="none" stroke="#323232" stroke-linecap="round" stroke-linejoin="round" stroke-width="1.5"/></svg>