<?xml version="1.0" encoding="utf-8"?>
<!-- Generator: Adobe Illustrator 24.0.2, SVG Export Plug-In . SVG Version: 6.00 Build 0)  -->
<svg version="1.1" id="Layer_1" xmlns="http://www.w3.org/2000/svg" xmlns:xlink="http://www.w3.org/1999/xlink" x="0px" y="0px"
	 width="24px" height="24px" viewBox="0 0 24 24" style="enable-background:new 0 0 24 24;" xml:space="preserve">
<style type="text/css">
	.st0{fill:none;stroke:#323232;stroke-width:1.5;stroke-linecap:round;stroke-linejoin:round;}
	.st1{fill:none;}
</style>
<g>
	<path class="st0" d="M20.2,6.6l-3.3,3.3l1.8,8.9c0.1,0.3,0,0.7-0.3,0.9l-0.7,0.7c-0.5,0.5-1.4,0.3-1.6-0.3l-2.6-6.7l-3.4,3.4
		l0.2,2.2c0,0.3-0.1,0.6-0.3,0.8l-1.1,1.1l-2.1-3.5l-3.5-2.1L4.3,14c0.2-0.2,0.5-0.3,0.8-0.3l2.2,0.2l3.4-3.4L3.9,7.9
		C3.3,7.6,3.1,6.8,3.6,6.3l0.7-0.7c0.2-0.2,0.6-0.3,0.9-0.3c0,0,8.9,1.8,8.9,1.8l3.3-3.3c0.8-0.8,2-0.8,2.8,0l0,0
		C21,4.6,21,5.8,20.2,6.6z"/>
	<path class="st0" d="M13.5,13.3"/>
	<path class="st1" d="M0,0h24v24H0V0z"/>
</g>
</svg>
