<?xml version="1.0" encoding="utf-8"?>
<!-- Generator: Adobe Illustrator 24.0.2, SVG Export Plug-In . SVG Version: 6.00 Build 0)  -->
<svg version="1.1" id="Layer_1" xmlns="http://www.w3.org/2000/svg" xmlns:xlink="http://www.w3.org/1999/xlink" x="0px" y="0px"
	 width="24px" height="24px" viewBox="0 0 24 24" style="enable-background:new 0 0 24 24;" xml:space="preserve">
<style type="text/css">
	.st0{fill:none;stroke:#323232;stroke-width:1.5;stroke-linecap:round;stroke-linejoin:round;}
	.st1{fill:none;}
</style>
<g>
	<path class="st0" d="M12,5V3"/>
	<path class="st0" d="M2,13h2"/>
	<path class="st0" d="M4.9,5.9L6,7"/>
	<path class="st0" d="M19.1,5.9L18,7"/>
	<path class="st0" d="M22,12.9h-2"/>
	<path class="st0" d="M3,17.4L3,17.4c1.1-0.5,2.5-0.5,3.6,0l0,0c1.1,0.5,2.5,0.5,3.6,0l0,0c1.1-0.5,2.5-0.5,3.6,0l0,0
		c1.1,0.5,2.5,0.5,3.6,0l0,0c1.1-0.5,2.5-0.5,3.6,0l0,0"/>
	<path class="st0" d="M6.6,20.6L6.6,20.6c1.1,0.5,2.5,0.5,3.6,0l0,0c1.1-0.5,2.5-0.5,3.6,0l0,0c1.1,0.5,2.5,0.5,3.6,0l0,0"/>
	<path class="st0" d="M7,13c0-2.8,2.2-5,5-5s5,2.2,5,5"/>
</g>
<path class="st1" d="M0,0h24v24H0V0z"/>
</svg>
