<?xml version="1.0" encoding="utf-8"?>
<!-- Generator: Adobe Illustrator 24.0.2, SVG Export Plug-In . SVG Version: 6.00 Build 0)  -->
<svg version="1.1" id="Layer_1" xmlns="http://www.w3.org/2000/svg" xmlns:xlink="http://www.w3.org/1999/xlink" x="0px" y="0px"
	 width="24px" height="24px" viewBox="0 0 24 24" style="enable-background:new 0 0 24 24;" xml:space="preserve">
<style type="text/css">
	.st0{fill:none;stroke:#323232;stroke-width:1.5;stroke-linecap:round;stroke-linejoin:round;}
	.st1{fill:none;}
</style>
<g>
	<path class="st0" d="M12,15V9"/>
	<path class="st0" d="M9,9c0-3.3,1.3-6,3-6s3,2.7,3,6"/>
	<path class="st0" d="M7.1,18L6,21"/>
	<path class="st0" d="M15.9,18l1.1,3"/>
	<path class="st0" d="M4.5,18h11.1c1.1,0,2.1-0.4,3-1l1.8-1.4c0.5-0.4,0.7-1.1,0.5-1.7l0,0c-0.3-1-1.5-1.3-2.3-0.7l-1.8,1.4
		C16.5,14.9,16,15,15.6,15H4.5C3.7,15,3,15.7,3,16.5l0,0C3,17.3,3.7,18,4.5,18z"/>
	<path class="st0" d="M4,9h16c0-3-4-6-8-6S4,6,4,9z"/>
</g>
<path class="st1" d="M0,0h24v24H0V0z"/>
</svg>
