<?xml version="1.0" encoding="utf-8"?>
<!-- Generator: Adobe Illustrator 24.0.2, SVG Export Plug-In . SVG Version: 6.00 Build 0)  -->
<svg version="1.1" id="Layer_1" xmlns="http://www.w3.org/2000/svg" xmlns:xlink="http://www.w3.org/1999/xlink" x="0px" y="0px"
	 width="24px" height="24px" viewBox="0 0 24 24" style="enable-background:new 0 0 24 24;" xml:space="preserve">
<style type="text/css">
	.st0{fill:none;stroke:#323232;stroke-width:1.5;stroke-linecap:round;stroke-linejoin:round;}
	.st1{fill:none;}
</style>
<g>
	<g>
		<path class="st0" d="M12,21l-4,1v-1.8c0-0.1,0.1-0.3,0.2-0.4l1.8-1.6v-4.8l-7.3,3.2C2.4,16.8,2,16.6,2,16.2v-1.7
			c0-0.3,0.2-0.6,0.4-0.8l7.6-5V4c0-1.1,0.9-2,2-2s2,0.9,2,2v4.7l7.6,5c0.3,0.2,0.4,0.5,0.4,0.8v1.7c0,0.4-0.4,0.6-0.7,0.5L14,13.5
			v4.8l1.8,1.6c0.1,0.1,0.2,0.2,0.2,0.4V22C16,22,12,21,12,21z"/>
	</g>
	<path class="st1" d="M0,0h24v24H0V0z"/>
</g>
</svg>
