<svg id="Layer_3" data-name="Layer 3" xmlns="http://www.w3.org/2000/svg" viewBox="0 0 24 24"><title>triangle-warning-square</title><path d="M13.332,9.179l2.329,4.14A1.53,1.53,0,0,1,14.328,15.6H9.671a1.531,1.531,0,0,1-1.334-2.281l2.329-4.14A1.53,1.53,0,0,1,13.332,9.179Z" fill="none" stroke="#323232" stroke-linecap="round" stroke-linejoin="round" stroke-width="1.5"/><path d="M16,21H8a5,5,0,0,1-5-5V8A5,5,0,0,1,8,3h8a5,5,0,0,1,5,5v8A5,5,0,0,1,16,21Z" fill="none" stroke="#323232" stroke-linecap="round" stroke-linejoin="round" stroke-width="1.5"/><rect width="24" height="24" fill="none"/></svg>