<?xml version="1.0" encoding="utf-8"?>
<!-- Generator: Adobe Illustrator 24.0.2, SVG Export Plug-In . SVG Version: 6.00 Build 0)  -->
<svg version="1.1" id="Layer_3" xmlns="http://www.w3.org/2000/svg" xmlns:xlink="http://www.w3.org/1999/xlink" x="0px" y="0px"
	 width="24px" height="24px" viewBox="0 0 24 24" enable-background="new 0 0 24 24" xml:space="preserve">
<g>
	<g>
		<path fill="none" stroke="#323232" stroke-width="1.5" stroke-linecap="round" stroke-linejoin="round" d="M15.331,20.986H8.669
			C5.538,20.986,3,18.448,3,15.317V8.655c0-3.131,2.538-5.669,5.669-5.669h6.661c3.132,0,5.67,2.538,5.67,5.669v6.661
			C21,18.448,18.462,20.986,15.331,20.986z"/>
		<path fill="none" stroke="#323232" stroke-width="1.5" stroke-linecap="round" stroke-linejoin="round" d="M15.607,12.664
			l1.044,1.809c0.417,0.722-0.104,1.625-0.938,1.625h-2.089"/>
		<path fill="none" stroke="#323232" stroke-width="1.5" stroke-linecap="round" stroke-linejoin="round" d="M8.393,12.664
			l-1.044,1.809c-0.417,0.722,0.104,1.625,0.938,1.625h2.089"/>
		<path fill="none" stroke="#323232" stroke-width="1.5" stroke-linecap="round" stroke-linejoin="round" d="M10.018,9.851
			l1.044-1.809c0.417-0.722,1.459-0.722,1.876,0l1.044,1.809"/>
	</g>
	<path fill="none" d="M0,0h24v24H0V0z"/>
</g>
</svg>
