<?xml version="1.0" encoding="utf-8"?>
<!-- Generator: Adobe Illustrator 24.0.2, SVG Export Plug-In . SVG Version: 6.00 Build 0)  -->
<svg version="1.1" id="Layer_3" xmlns="http://www.w3.org/2000/svg" xmlns:xlink="http://www.w3.org/1999/xlink" x="0px" y="0px"
	 width="24px" height="24px" viewBox="0 0 24 24" enable-background="new 0 0 24 24" xml:space="preserve">
<g>
	<path fill="none" d="M0,0h24v24H0V0z"/>
	<g>
		<g>
			<path fill="none" stroke="#323232" stroke-width="1.5" stroke-linecap="round" stroke-linejoin="round" d="M19.596,12.411
				l-5.688,1.524c-1.01,0.271-2.048-0.329-2.319-1.339l-1.524-5.688c-0.271-1.01,0.329-2.048,1.339-2.319l5.688-1.524
				c1.01-0.271,2.048,0.329,2.319,1.339l1.524,5.688C21.206,11.102,20.606,12.14,19.596,12.411z"/>
		</g>
		
			<circle fill="none" stroke="#323232" stroke-width="1.5" stroke-linecap="round" stroke-linejoin="round" cx="9.75" cy="18.25" r="2.75"/>
		<path fill="none" stroke="#323232" stroke-width="1.5" stroke-linecap="round" stroke-linejoin="round" d="M2,3.633l1.666-0.446
			C4.733,2.901,5.83,3.534,6.116,4.601"/>
		<path fill="none" stroke="#323232" stroke-width="1.5" stroke-linecap="round" stroke-linejoin="round" d="M6.116,4.601
			l2.944,10.986"/>
		
			<line fill="none" stroke="#323232" stroke-width="1.5" stroke-linecap="round" stroke-linejoin="round" x1="21.547" y1="15.106" x2="12.409" y2="17.554"/>
	</g>
</g>
</svg>
