<svg id="Layer_3" data-name="Layer 3" xmlns="http://www.w3.org/2000/svg" viewBox="0 0 24 24"><title>trolley</title><path d="M13.513,10.408V2.762a7.646,7.646,0,1,1-7.567,7.646V7.381A1.433,1.433,0,0,0,4.513,5.948h0A1.433,1.433,0,0,0,3.079,7.381v.478" fill="none" stroke="#323232" stroke-linecap="round" stroke-linejoin="round" stroke-width="1.5"/><line x1="6.743" y1="10.408" x2="21.079" y2="10.408" fill="none" stroke="#323232" stroke-linecap="round" stroke-linejoin="round" stroke-width="1.5"/><path d="M18.051,20.576a.25.25,0,1,0,.252.25.251.251,0,0,0-.252-.25" fill="none" stroke="#323232" stroke-linecap="round" stroke-linejoin="round" stroke-width="1.5"/><path d="M8.972,20.578a.25.25,0,1,0,.251.25.249.249,0,0,0-.251-.25" fill="none" stroke="#323232" stroke-linecap="round" stroke-linejoin="round" stroke-width="1.5"/><rect width="24" height="24" fill="none"/></svg>