<svg id="Layer_3" data-name="Layer 3" xmlns="http://www.w3.org/2000/svg" viewBox="0 0 24 24"><title>trowel-brush</title><path d="M0,0H24V24H0Z" fill="none"/><rect x="19" y="2" width="3" height="19" rx="1.5" stroke-width="1.5" stroke="#323232" stroke-linecap="round" stroke-linejoin="round" fill="none"/><path d="M6.21,10.27H6.2L6.06,5a1.94,1.94,0,1,1,3.88-.06V5L9.8,10.27H9.79" fill="none" stroke="#323232" stroke-linecap="round" stroke-linejoin="round" stroke-width="1.5"/><path d="M8,10H8a6,6,0,0,0-6,6v4a1,1,0,0,0,1,1H13a1,1,0,0,0,1-1V16A6,6,0,0,0,8,10Z" fill="none" stroke="#323232" stroke-linecap="round" stroke-linejoin="round" stroke-width="1.5"/><line x1="14" y1="18" x2="2" y2="18" fill="none" stroke="#323232" stroke-linecap="round" stroke-linejoin="round" stroke-width="1.5"/><path d="M19.079,3.017,16.24,2.31A1,1,0,0,0,15,3.28v7.44a1,1,0,0,0,1.24.97L19,11" fill="none" stroke="#323232" stroke-linecap="round" stroke-linejoin="round" stroke-width="1.5"/></svg>