<svg id="Layer_3" data-name="Layer 3" xmlns="http://www.w3.org/2000/svg" viewBox="0 0 24 24"><path d="M0,0H24V24H0Z" fill="none"/><path d="M16,18.5H8.17" fill="none" stroke="#323232" stroke-linecap="round" stroke-linejoin="round" stroke-width="1.5"/><path d="M18.996,18.5H21a1,1,0,0,0,1-1V11.38537a1.99856,1.99856,0,0,0-.143-.74237L20.50229,7.25706A2,2,0,0,0,18.6454,6H15" fill="none" stroke="#323232" stroke-linecap="round" stroke-linejoin="round" stroke-width="1.5"/><path d="M22,13H18.5a.5.5,0,0,1-.5-.5V9h3.2" fill="none" stroke="#323232" stroke-linecap="round" stroke-linejoin="round" stroke-width="1.5"/><path d="M18.55661,17.4434a1.5,1.5,0,1,1-2.12132.00011l.00011-.00011a1.49991,1.49991,0,0,1,2.12121,0h0" fill="none" stroke="#323232" stroke-linecap="round" stroke-linejoin="round" stroke-width="1.5"/><path d="M7.55661,17.4434a1.5,1.5,0,1,1-2.12132.00011l.0003-.00031a1.49965,1.49965,0,0,1,2.121.0002h0" fill="none" stroke="#323232" stroke-linecap="round" stroke-linejoin="round" stroke-width="1.5"/><path d="M5,18.5H3a1,1,0,0,1-1-1V5A1,1,0,0,1,3,4H14a1,1,0,0,1,1,1v9" fill="none" stroke="#323232" stroke-linecap="round" stroke-linejoin="round" stroke-width="1.5"/><path d="M15,14H2" fill="none" stroke="#323232" stroke-linecap="round" stroke-linejoin="round" stroke-width="1.5"/></svg>