<svg id="Layer_3" data-name="Layer 3" xmlns="http://www.w3.org/2000/svg" viewBox="0 0 24 24"><rect width="24" height="24" fill="none"/><line x1="6.97826" y1="18.5" x2="15.5" y2="18.5" fill="none" stroke="#323232" stroke-linecap="round" stroke-linejoin="round" stroke-width="1.5"/><circle cx="17" cy="18.5" r="1.5" fill="none" stroke="#323232" stroke-linecap="round" stroke-linejoin="round" stroke-width="1.5"/><circle cx="5.47826" cy="18.5" r="1.5" fill="none" stroke="#323232" stroke-linecap="round" stroke-linejoin="round" stroke-width="1.5"/><path d="M2,13.86092H14.5a.5.5,0,0,0,.5-.5V7a2,2,0,0,0-2-2H4A2,2,0,0,0,2,7V17.5a1,1,0,0,0,1,1h.97826" fill="none" stroke="#323232" stroke-linecap="round" stroke-linejoin="round" stroke-width="1.5"/><path d="M15,7h3.24657a2.5,2.5,0,0,1,2.35057,1.64862l1.28331,3.54306A1.99986,1.99986,0,0,1,22,12.87278V17a1.5,1.5,0,0,1-1.5,1.5h-2" fill="none" stroke="#323232" stroke-linecap="round" stroke-linejoin="round" stroke-width="1.5"/><path d="M22,13H19l-.70711-.70711A1,1,0,0,0,17.58579,12H15" fill="none" stroke="#323232" stroke-linecap="round" stroke-linejoin="round" stroke-width="1.5"/></svg>