<svg id="Layer_3" data-name="Layer 3" xmlns="http://www.w3.org/2000/svg" viewBox="0 0 24 24"><path d="M0,0H24V24H0Z" fill="none"/><path d="M16,18.42H8.342" fill="none" stroke="#323232" stroke-linecap="round" stroke-linejoin="round" stroke-width="1.5"/><path d="M22,13H18.5a.5.5,0,0,1-.5-.5V9h3.49983" fill="none" stroke="#323232" stroke-linecap="round" stroke-linejoin="round" stroke-width="1.5"/><path d="M18.55661,17.43929a1.5,1.5,0,1,1-2.12132.0001l.00011-.00011a1.49993,1.49993,0,0,1,2.12121,0h0" fill="none" stroke="#323232" stroke-linecap="round" stroke-linejoin="round" stroke-width="1.5"/><path d="M2,4h8" fill="none" stroke="#323232" stroke-linecap="round" stroke-linejoin="round" stroke-width="1.5"/><path d="M10,4a1,1,0,0,1,1,1" fill="none" stroke="#323232" stroke-linecap="round" stroke-linejoin="round" stroke-width="1.5"/><path d="M11,5v6" fill="none" stroke="#323232" stroke-linecap="round" stroke-linejoin="round" stroke-width="1.5"/><path d="M4.56061,17.43929a1.5,1.5,0,1,1-2.12132.0001l.0003-.0003a1.49966,1.49966,0,0,1,2.121.00019h0" fill="none" stroke="#323232" stroke-linecap="round" stroke-linejoin="round" stroke-width="1.5"/><path d="M7.7346,17.43929a1.5,1.5,0,1,1-2.12132.0001l.0003-.0003a1.49966,1.49966,0,0,1,2.121.00019h0" fill="none" stroke="#323232" stroke-linecap="round" stroke-linejoin="round" stroke-width="1.5"/><path d="M18.99511,18.5H21a1,1,0,0,0,1-1V10.47228a1.99992,1.99992,0,0,0-.21127-.89467L20.55219,7.10534A2,2,0,0,0,18.76345,6H14" fill="none" stroke="#323232" stroke-linecap="round" stroke-linejoin="round" stroke-width="1.5"/><path d="M2,14H14V4" fill="none" stroke="#323232" stroke-linecap="round" stroke-linejoin="round" stroke-width="1.5"/></svg>