<?xml version="1.0" encoding="utf-8"?>
<!-- Generator: Adobe Illustrator 24.0.2, SVG Export Plug-In . SVG Version: 6.00 Build 0)  -->
<svg version="1.1" id="Layer_1" xmlns="http://www.w3.org/2000/svg" xmlns:xlink="http://www.w3.org/1999/xlink" x="0px" y="0px"
	 width="24px" height="24px" viewBox="0 0 24 24" enable-background="new 0 0 24 24" xml:space="preserve">
<g>
	<path fill="none" d="M0,0h24v24H0V0z"/>
	<g>
		<g>
			
				<path fill="none" stroke="#323232" stroke-width="1.5" stroke-linecap="round" stroke-linejoin="round" stroke-miterlimit="10" d="
				M6.5,6h11c1.105,0,2,0.895,2,2v1c0,1.105-0.895,2-2,2h-11c-1.105,0-2-0.895-2-2V8C4.5,6.895,5.395,6,6.5,6z"/>
		</g>
		<g>
			
				<path fill="none" stroke="#323232" stroke-width="1.5" stroke-linecap="round" stroke-linejoin="round" stroke-miterlimit="10" d="
				M4.5,17c0,1.105,0.895,2,2,2h11c1.105,0,2-0.895,2-2V4c0-1.105-0.895-2-2-2h-11c-1.105,0-2,0.895-2,2V17z"/>
		</g>
		<g>
			<g>
				<g>
					<g>
						
							<line fill="none" stroke="#323232" stroke-width="1.5" stroke-linecap="round" stroke-linejoin="round" x1="16.884" y1="15" x2="16" y2="15"/>
					</g>
					<g>
						
							<line fill="none" stroke="#323232" stroke-width="1.5" stroke-linecap="round" stroke-linejoin="round" x1="8" y1="15" x2="6.798" y2="15"/>
					</g>
				</g>
			</g>
		</g>
		
			<line fill="none" stroke="#323232" stroke-width="1.5" stroke-linecap="round" stroke-linejoin="round" stroke-miterlimit="10" x1="13.5" y1="16.327" x2="10.5" y2="16.327"/>
		
			<line fill="none" stroke="#323232" stroke-width="1.5" stroke-linecap="round" stroke-linejoin="round" stroke-miterlimit="10" x1="13.5" y1="14.077" x2="10.5" y2="14.077"/>
		<path fill="none" stroke="#323232" stroke-width="1.5" stroke-linecap="round" stroke-linejoin="round" d="M19.264,17.934V20.5
			c0,0.552-0.448,1-1,1h-2c-0.552,0-1-0.448-1-1V19"/>
		<path fill="none" stroke="#323232" stroke-width="1.5" stroke-linecap="round" stroke-linejoin="round" d="M8.736,19v1.5
			c0,0.552-0.448,1-1,1h-2c-0.552,0-1-0.448-1-1v-2.566"/>
		<path fill="none" stroke="#323232" stroke-width="1.5" stroke-linecap="round" stroke-linejoin="round" d="M4.5,7H3
			C2.448,7,2,7.448,2,8v3.062"/>
		<path fill="none" stroke="#323232" stroke-width="1.5" stroke-linecap="round" stroke-linejoin="round" d="M19.5,7H21
			c0.552,0,1,0.448,1,1v3.062"/>
	</g>
</g>
<path fill="none" d="M0,0h24v24H0V0z"/>
</svg>
