<svg id="Layer_3" data-name="Layer 3" xmlns="http://www.w3.org/2000/svg" viewBox="0 0 24 24"><title>turkey</title><rect width="24" height="24" fill="none"/><line x1="2" y1="18" x2="22" y2="18" fill="none" stroke="#323232" stroke-linecap="round" stroke-linejoin="round" stroke-width="1.5"/><path d="M3,18l.54415,1.63246A2,2,0,0,0,5.44152,21h13.117a2,2,0,0,0,1.89737-1.36754L21,18" fill="none" stroke="#323232" stroke-linecap="round" stroke-linejoin="round" stroke-width="1.5"/><path d="M11.6049,13.24488a3.22394,3.22394,0,0,1,.56488-4.27932c1.93667-1.75687,4.44018-2.168,5.48639-1.12173,1.0943,1.0943.59428,3.78293-1.37242,5.74963A3.09671,3.09671,0,0,1,11.6049,13.24488Z" fill="none" stroke="#323232" stroke-linecap="round" stroke-linejoin="round" stroke-width="1.5"/><path d="M20.62,5.12a1.375,1.375,0,1,1,0,2.75h-.9a.99926.99926,0,0,0-.71.3l-.82.81a2.02447,2.02447,0,0,0-.53-1.14,2.02447,2.02447,0,0,0-1.14-.53l.81-.82a.99926.99926,0,0,0,.3-.71v-.9a1.375,1.375,0,1,1,2.75,0v.24Z" fill="none" stroke="#323232" stroke-linecap="round" stroke-linejoin="round" stroke-width="1.5"/><path d="M18.04,10.7A6.30076,6.30076,0,0,1,20,15.06v.44A2.50091,2.50091,0,0,1,17.5,18H6.5A2.50091,2.50091,0,0,1,4,15.5v-.44C4,11.16,8.39,8,12,8a6.51242,6.51242,0,0,1,1.3.13" fill="none" stroke="#323232" stroke-linecap="round" stroke-linejoin="round" stroke-width="1.5"/></svg>