<svg id="Layer_3" data-name="Layer 3" xmlns="http://www.w3.org/2000/svg" viewBox="0 0 24 24"><rect width="24" height="24" fill="none"/><ellipse cx="16.40505" cy="5.26544" rx="2.15923" ry="2.08139" fill="none" stroke="#323232" stroke-linecap="round" stroke-linejoin="round" stroke-width="1.5"/><ellipse cx="4.30672" cy="12.0006" rx="2.15923" ry="2.08139" fill="none" stroke="#323232" stroke-linecap="round" stroke-linejoin="round" stroke-width="1.5"/><ellipse cx="16.41118" cy="18.73145" rx="2.15923" ry="2.08139" fill="none" stroke="#323232" stroke-linecap="round" stroke-linejoin="round" stroke-width="1.5"/><path d="M14.41394,4.48407a8.35628,8.35628,0,0,0-4.058-.01086" fill="none" stroke="#323232" stroke-linecap="round" stroke-linejoin="round" stroke-width="1.5"/><path d="M18.1026,6.53693a7.71425,7.71425,0,0,1,2.03882,3.38226" fill="none" stroke="#323232" stroke-linecap="round" stroke-linejoin="round" stroke-width="1.5"/><path d="M4.60028,14.05341a7.71181,7.71181,0,0,0,2.01923,3.39312" fill="none" stroke="#323232" stroke-linecap="round" stroke-linejoin="round" stroke-width="1.5"/><path d="M4.60028,9.94775A7.71168,7.71168,0,0,1,6.61951,6.55457" fill="none" stroke="#323232" stroke-linecap="round" stroke-linejoin="round" stroke-width="1.5"/><path d="M18.10876,17.4599a7.71522,7.71522,0,0,0,2.0387-3.3822" fill="none" stroke="#323232" stroke-linecap="round" stroke-linejoin="round" stroke-width="1.5"/><path d="M14.4201,19.51282a8.35677,8.35677,0,0,1-4.0581.01086" fill="none" stroke="#323232" stroke-linecap="round" stroke-linejoin="round" stroke-width="1.5"/></svg>