<svg id="Layer_3" data-name="Layer 3" xmlns="http://www.w3.org/2000/svg" viewBox="0 0 24 24"><title>underwear-boxers</title><rect width="24" height="24" fill="none"/><line x1="20.23699" y1="7" x2="3.76301" y2="7" fill="none" stroke="#323232" stroke-linecap="round" stroke-linejoin="round" stroke-width="1.5"/><path d="M14.677,21a1,1,0,0,1-.92847-.62861L12,16l-1.74856,4.37137A1,1,0,0,1,9.323,21" fill="none" stroke="#323232" stroke-linecap="round" stroke-linejoin="round" stroke-width="1.5"/><path d="M19.11761,4a1,1,0,0,1,.99828.94128l.88235,15A1,1,0,0,1,20,21H14.677" fill="none" stroke="#323232" stroke-linecap="round" stroke-linejoin="round" stroke-width="1.5"/><path d="M9.323,21H4a1,1,0,0,1-.99828-1.05872l.88235-15A1,1,0,0,1,4.88239,4" fill="none" stroke="#323232" stroke-linecap="round" stroke-linejoin="round" stroke-width="1.5"/><line x1="4.88239" y1="4" x2="19.11761" y2="4" fill="none" stroke="#323232" stroke-linecap="round" stroke-linejoin="round" stroke-width="1.5"/><path d="M15,7v6a3,3,0,0,1-3,3h0a3,3,0,0,1-3-3V7" fill="none" stroke="#323232" stroke-linecap="round" stroke-linejoin="round" stroke-width="1.5"/></svg>