<?xml version="1.0" encoding="utf-8"?>
<!-- Generator: Adobe Illustrator 23.1.0, SVG Export Plug-In . SVG Version: 6.00 Build 0)  -->
<svg version="1.1" id="icons" xmlns="http://www.w3.org/2000/svg" xmlns:xlink="http://www.w3.org/1999/xlink" x="0px" y="0px"
	 width="24px" height="24px" viewBox="0 0 24 24" enable-background="new 0 0 24 24" xml:space="preserve">
<g>
	<g>
		<circle fill="none" stroke="#323232" stroke-width="1.5" stroke-linecap="round" stroke-linejoin="round" cx="12" cy="12" r="9"/>
		<path fill="none" stroke="#323232" stroke-width="1.5" stroke-linecap="round" stroke-linejoin="round" d="M7.607,13.464
			L7.607,13.464c-0.809-0.809-0.809-2.12,0-2.929l0,0c0.809-0.809,2.12-0.809,2.929,0L12,12l-1.464,1.464
			C9.727,14.273,8.415,14.273,7.607,13.464z"/>
		<path fill="none" stroke="#323232" stroke-width="1.5" stroke-linecap="round" stroke-linejoin="round" d="M16.393,10.536
			L16.393,10.536c0.809,0.809,0.809,2.12,0,2.929l0,0c-0.809,0.809-2.12,0.809-2.929,0L12,12l1.464-1.464
			C14.273,9.727,15.585,9.727,16.393,10.536z"/>
	</g>
	<rect y="0" fill="none" width="24" height="24"/>
</g>
</svg>
