<?xml version="1.0" encoding="utf-8"?>
<!-- Generator: Adobe Illustrator 24.0.2, SVG Export Plug-In . SVG Version: 6.00 Build 0)  -->
<svg version="1.1" id="Layer_1" xmlns="http://www.w3.org/2000/svg" xmlns:xlink="http://www.w3.org/1999/xlink" x="0px" y="0px"
	 width="24px" height="24px" viewBox="0 0 24 24" enable-background="new 0 0 24 24" xml:space="preserve">
<g>
	<path fill="none" d="M0,0h24v24H0V0z"/>
	<g>
		<path fill="none" stroke="#323232" stroke-width="1.5" stroke-linecap="round" stroke-linejoin="round" d="M16,11.565H8V7
			c0-0.552,0.448-1,1-1h6c0.552,0,1,0.448,1,1V11.565z"/>
		<path fill="none" stroke="#323232" stroke-width="1.5" stroke-linecap="round" stroke-linejoin="round" d="M7,18h10
			c0.552,0,1-0.448,1-1v-3.435c0-1.105-0.895-2-2-2H8c-1.105,0-2,0.895-2,2V17C6,17.552,6.448,18,7,18z"/>
		
			<line fill="none" stroke="#323232" stroke-width="1.5" stroke-linecap="round" stroke-linejoin="round" x1="13.25" y1="8.5" x2="13.25" y2="9"/>
		
			<line fill="none" stroke="#323232" stroke-width="1.5" stroke-linecap="round" stroke-linejoin="round" x1="10.75" y1="8.5" x2="10.75" y2="9"/>
		<g>
			<path fill="none" stroke="#323232" stroke-width="1.5" stroke-linecap="round" stroke-linejoin="round" d="M17,21H7
				c-2.209,0-4-1.791-4-4V7c0-2.209,1.791-4,4-4h10c2.209,0,4,1.791,4,4v10C21,19.209,19.209,21,17,21z"/>
		</g>
	</g>
</g>
</svg>
