<svg id="Layer_3" data-name="Layer 3" xmlns="http://www.w3.org/2000/svg" viewBox="0 0 24 24"><path d="M16,15h4a1,1,0,0,1,1,1v3a2,2,0,0,1-2,2H17a2,2,0,0,1-2-2V16A1,1,0,0,1,16,15Z" transform="translate(36 36) rotate(180)" fill="none" stroke="#323232" stroke-linecap="round" stroke-linejoin="round" stroke-width="1.5"/><path d="M3.5,6h5a.5.5,0,0,1,.5.5V10a2,2,0,0,1-2,2H5a2,2,0,0,1-2-2V6.5A.5.5,0,0,1,3.5,6Z" fill="none" stroke="#323232" stroke-linecap="round" stroke-linejoin="round" stroke-width="1.5"/><path d="M4,6V3.5A.5.5,0,0,1,4.5,3h3a.5.5,0,0,1,.5.5V6" fill="none" stroke="#323232" stroke-linecap="round" stroke-linejoin="round" stroke-width="1.5"/><path d="M18,15V6a3,3,0,0,0-3-3h0a3,3,0,0,0-3,3V18a3,3,0,0,1-3,3H9a3,3,0,0,1-3-3V12" fill="none" stroke="#323232" stroke-linecap="round" stroke-linejoin="round" stroke-width="1.5"/><rect width="24" height="24" transform="translate(24) rotate(90)" fill="none"/></svg>