<svg id="Layer_3" data-name="Layer 3" xmlns="http://www.w3.org/2000/svg" viewBox="0 0 24 24"><path d="M16,20.051A8.99742,8.99742,0,1,0,3,12a9.348,9.348,0,0,0,2.744,6.624h0a6.983,6.983,0,0,0,4.928,2.036h0A1.329,1.329,0,0,0,12,19.332V16" fill="none" stroke="#323232" stroke-linecap="round" stroke-linejoin="round" stroke-width="1.5"/><rect width="24" height="24" fill="none"/><path d="M15.5,11.5a1,1,0,0,0-1-1h-5a1,1,0,0,0-1,1V14a2,2,0,0,0,2,2h3a2,2,0,0,0,2-2Z" fill="none" stroke="#323232" stroke-linecap="round" stroke-linejoin="round" stroke-width="1.5"/><path d="M10,10.5V8a.5.5,0,0,1,.5-.5h3A.5.5,0,0,1,14,8v2.5" fill="none" stroke="#323232" stroke-linecap="round" stroke-linejoin="round" stroke-width="1.5"/></svg>