<svg id="Layer_3" data-name="Layer 3" xmlns="http://www.w3.org/2000/svg" viewBox="0 0 24 24"><title>usb-cable</title><line x1="10" y1="19" x2="10" y2="22" fill="none" stroke="#323232" stroke-linecap="round" stroke-linejoin="round" stroke-width="1.5"/><path d="M7.5,9h9A1.5,1.5,0,0,1,18,10.5V16a3,3,0,0,1-3,3H9a3,3,0,0,1-3-3V10.5A1.5,1.5,0,0,1,7.5,9Z" fill="none" stroke="#323232" stroke-linecap="round" stroke-linejoin="round" stroke-width="1.5"/><path d="M8,9V4A1,1,0,0,1,9,3h6a1,1,0,0,1,1,1V9" fill="none" stroke="#323232" stroke-linecap="round" stroke-linejoin="round" stroke-width="1.5"/><line x1="10.44444" y1="6.4" x2="10.88889" y2="6.4" fill="none" stroke="#323232" stroke-linecap="round" stroke-linejoin="round" stroke-width="1.5"/><line x1="13.11111" y1="6.4" x2="13.55556" y2="6.4" fill="none" stroke="#323232" stroke-linecap="round" stroke-linejoin="round" stroke-width="1.5"/><line x1="14" y1="19" x2="14" y2="22" fill="none" stroke="#323232" stroke-linecap="round" stroke-linejoin="round" stroke-width="1.5"/><path d="M0,0H24V24H0Z" fill="none"/></svg>