<?xml version="1.0" encoding="utf-8"?>
<!-- Generator: Adobe Illustrator 24.0.2, SVG Export Plug-In . SVG Version: 6.00 Build 0)  -->
<svg version="1.1" id="Layer_1" xmlns="http://www.w3.org/2000/svg" xmlns:xlink="http://www.w3.org/1999/xlink" x="0px" y="0px"
	 width="24px" height="24px" viewBox="0 0 24 24" enable-background="new 0 0 24 24" xml:space="preserve">
<g>
	<g>
		<g>
			<path fill="none" stroke="#323232" stroke-width="1.5" stroke-linecap="round" stroke-linejoin="round" d="M11.165,7.118
				l4.029-4.029c0.395-0.395,1.035-0.395,1.429,0l4.288,4.288c0.395,0.395,0.395,1.035,0,1.429l-4.037,4.037"/>
		</g>
		
			<line fill="none" stroke="#323232" stroke-width="1.5" stroke-linecap="round" stroke-linejoin="round" x1="15.917" y1="6.296" x2="15.131" y2="7.082"/>
		<path fill="none" stroke="#323232" stroke-width="1.5" stroke-linecap="round" stroke-linejoin="round" d="M13.88,17.874
			l2.718-2.718c0.744-0.744,0.744-1.951,0-2.695l-5.059-5.059c-0.744-0.744-1.951-0.744-2.695,0l-3.01,3.01
			c-1.427,1.427-1.427,3.742,0,5.169l2.585,2.585C9.845,19.594,12.452,19.301,13.88,17.874z"/>
		
			<line fill="none" stroke="#323232" stroke-width="1.5" stroke-linecap="round" stroke-linejoin="round" x1="17.704" y1="8.083" x2="16.918" y2="8.869"/>
		<path fill="none" stroke="#323232" stroke-width="1.5" stroke-linecap="round" stroke-linejoin="round" d="M8.786,18.477
			L6.77,20.493c-0.4,0.4-1.048,0.4-1.448,0l-1.816-1.816c-0.4-0.4-0.4-1.048,0-1.448l2-2"/>
	</g>
	<rect fill="none" width="24" height="24"/>
</g>
</svg>
