<svg id="Layer_3" data-name="Layer 3" xmlns="http://www.w3.org/2000/svg" viewBox="0 0 24 24"><title>users</title><path d="M15.21429,10.42857a3.33558,3.33558,0,0,0,3.21428-3.312A3.16692,3.16692,0,0,0,15.21429,4" fill="none" stroke="#323232" stroke-linecap="round" stroke-linejoin="round" stroke-width="1.5"/><path d="M9.42857,10.42857a3.33558,3.33558,0,0,0,3.21429-3.312A3.16693,3.16693,0,0,0,9.42857,4,3.16692,3.16692,0,0,0,6.21429,7.11657,3.33471,3.33471,0,0,0,9.42857,10.42857Z" fill="none" stroke="#323232" stroke-linecap="round" stroke-linejoin="round" stroke-width="1.5"/><path d="M16,20V18a4,4,0,0,0-4-4H7a4,4,0,0,0-4,4v2" fill="none" stroke="#323232" stroke-linecap="round" stroke-linejoin="round" stroke-width="1.5"/><path d="M21,20V17a3,3,0,0,0-3-3" fill="none" stroke="#323232" stroke-linecap="round" stroke-linejoin="round" stroke-width="1.5"/><path d="M0,0H24V24H0Z" fill="none"/></svg>