<svg id="Layer_3" data-name="Layer 3" xmlns="http://www.w3.org/2000/svg" viewBox="0 0 24 24"><title>user-notification-circle</title><path d="M0,0H24V24H0Z" fill="none"/><path d="M12,6.75h0a3,3,0,0,1,3,3v.5a3,3,0,0,1-3,3h0a3,3,0,0,1-3-3v-.5A3,3,0,0,1,12,6.75Z" fill="none" stroke="#323232" stroke-linecap="round" stroke-linejoin="round" stroke-width="1.5"/><circle cx="18.5" cy="18.5" r="3.5" fill="none" stroke="#323232" stroke-linecap="round" stroke-linejoin="round" stroke-width="1.5"/><path d="M15.5,20.29A8.89767,8.89767,0,0,1,12,21a9,9,0,1,1,9-9,8.89767,8.89767,0,0,1-.71,3.5" fill="none" stroke="#323232" stroke-linecap="round" stroke-linejoin="round" stroke-width="1.5"/><path d="M15.56464,16.60419A8.051,8.051,0,0,0,12.556,16H11.343a8.071,8.071,0,0,0-5.707,2.364" fill="none" stroke="#323232" stroke-linecap="round" stroke-linejoin="round" stroke-width="1.5"/></svg>