<?xml version="1.0" encoding="utf-8"?>
<!-- Generator: Adobe Illustrator 24.0.2, SVG Export Plug-In . SVG Version: 6.00 Build 0)  -->
<svg version="1.1" id="Layer_1" xmlns="http://www.w3.org/2000/svg" xmlns:xlink="http://www.w3.org/1999/xlink" x="0px" y="0px"
	 width="24px" height="24px" viewBox="0 0 24 24" enable-background="new 0 0 24 24" xml:space="preserve">
<g>
	<rect fill="none" width="24" height="24"/>
	<g>
		<path fill="none" stroke="#323232" stroke-width="1.5" stroke-linecap="round" stroke-linejoin="round" d="M16.333,21H4.667
			C3.746,21,3,20.254,3,19.333V7.667C3,6.746,3.746,6,4.667,6h11.667C17.254,6,18,6.746,18,7.667v11.667
			C18,20.254,17.254,21,16.333,21z"/>
		<path fill="none" stroke="#323232" stroke-width="1.5" stroke-linecap="round" stroke-linejoin="round" d="M12.268,10.166
			c0.976,0.976,0.976,2.559,0,3.536c-0.976,0.976-2.559,0.976-3.536,0s-0.976-2.559,0-3.536S11.291,9.19,12.268,10.166"/>
		<path fill="none" stroke="#323232" stroke-width="1.5" stroke-linecap="round" stroke-linejoin="round" d="M15,18.434
			c-0.131-0.329-0.334-0.625-0.594-0.866l0,0c-0.439-0.408-1.014-0.634-1.614-0.634c-1,0-3.584,0-4.584,0
			c-0.6,0-1.174,0.227-1.614,0.634l0,0C6.334,17.809,6.131,18.105,6,18.434"/>
		<path fill="none" stroke="#323232" stroke-width="1.5" stroke-linecap="round" stroke-linejoin="round" d="M6,6V4.667
			C6,3.746,6.746,3,7.667,3h11.667C20.254,3,21,3.746,21,4.667v11.667C21,17.254,20.254,18,19.333,18H18"/>
	</g>
</g>
</svg>
