<svg id="Layer_3" data-name="Layer 3" xmlns="http://www.w3.org/2000/svg" viewBox="0 0 24 24"><title>Artboard 77</title><path d="M0,0H24V24H0Z" fill="none"/><circle cx="12" cy="12" r="9" fill="none" stroke="#323232" stroke-linecap="round" stroke-linejoin="round" stroke-width="1.5"/><path d="M12,8a2.222,2.222,0,1,1-2.222,2.222A2.222,2.222,0,0,1,12,8" fill="none" stroke="#323232" stroke-linecap="round" stroke-linejoin="round" stroke-width="1.5"/><path d="M16,16.473a5.657,5.657,0,0,1-8,0,2.126,2.126,0,0,1,.528-.769h0a2.111,2.111,0,0,1,1.435-.564h4.075a2.108,2.108,0,0,1,1.434.564h0A2.105,2.105,0,0,1,16,16.473Z" fill="none" stroke="#323232" stroke-linecap="round" stroke-linejoin="round" stroke-width="1.5"/><path d="M0,0H24V24H0Z" fill="none"/></svg>