<?xml version="1.0" encoding="utf-8"?>
<!-- Generator: Adobe Illustrator 24.0.2, SVG Export Plug-In . SVG Version: 6.00 Build 0)  -->
<svg version="1.1" id="Layer_1" xmlns="http://www.w3.org/2000/svg" xmlns:xlink="http://www.w3.org/1999/xlink" x="0px" y="0px"
	 width="24px" height="24px" viewBox="0 0 24 24" enable-background="new 0 0 24 24" xml:space="preserve">
<g>
	<rect fill="none" width="24" height="24"/>
	<g>
		
			<circle fill="none" stroke="#323232" stroke-width="1.5" stroke-linecap="round" stroke-linejoin="round" cx="12" cy="8.25" r="4.25"/>
		<path fill="none" stroke="#323232" stroke-width="1.5" stroke-linecap="round" stroke-linejoin="round" d="M4,20L4,20
			c0-2.485,2.015-4.5,4.5-4.5h2.583"/>
		<path fill="none" stroke="#323232" stroke-width="1.5" stroke-linecap="round" stroke-linejoin="round" d="M19.583,16.269h1.414
			v-1.415"/>
		<path fill="none" stroke="#323232" stroke-width="1.5" stroke-linecap="round" stroke-linejoin="round" d="M16.42,19.33h-1.414
			v1.415"/>
		<g>
			<path fill="none" stroke="#323232" stroke-width="1.5" stroke-linecap="round" stroke-linejoin="round" d="M21,18.866
				c-0.15,0.436-0.386,0.848-0.735,1.196c-1.25,1.25-3.277,1.25-4.527,0c-0.222-0.222-0.403-0.47-0.546-0.733"/>
			<path fill="none" stroke="#323232" stroke-width="1.5" stroke-linecap="round" stroke-linejoin="round" d="M20.812,16.268
				c-0.143-0.263-0.324-0.51-0.546-0.733c-1.25-1.25-3.277-1.25-4.527,0c-0.349,0.349-0.588,0.76-0.738,1.196"/>
		</g>
	</g>
</g>
</svg>
