<?xml version="1.0" encoding="utf-8"?>
<!-- Generator: Adobe Illustrator 24.0.2, SVG Export Plug-In . SVG Version: 6.00 Build 0)  -->
<svg version="1.1" id="Layer_1" xmlns="http://www.w3.org/2000/svg" xmlns:xlink="http://www.w3.org/1999/xlink" x="0px" y="0px"
	 width="24px" height="24px" viewBox="0 0 24 24" style="enable-background:new 0 0 24 24;" xml:space="preserve">
<style type="text/css">
	.st0{fill:none;stroke:#323232;stroke-width:1.5;stroke-linecap:round;stroke-linejoin:round;}
	.st1{fill:none;}
</style>
<g>
	<path class="st0" d="M8.9,7.6c0.8,0.8,0.8,2,0,2.8c-0.8,0.8-2,0.8-2.8,0c-0.8-0.8-0.8-2,0-2.8C6.9,6.8,8.1,6.8,8.9,7.6"/>
	<path class="st0" d="M17.8,6.7c1,1,1,2.6,0,3.5s-2.6,1-3.5,0s-1-2.6,0-3.5C15.2,5.8,16.8,5.8,17.8,6.7"/>
	<path class="st0" d="M20.5,18v-1c0-1.7-1.3-3-3-3h-3c-1.7,0-3,1.3-3,3v1"/>
	<path class="st0" d="M8.5,14h-2c-1.7,0-3,1.3-3,3v1"/>
</g>
<path class="st1" d="M0,0h24v24H0V0z"/>
</svg>
