<svg id="Layer_3" data-name="Layer 3" xmlns="http://www.w3.org/2000/svg" viewBox="0 0 24 24"><title>Artboard 61</title><path d="M.125,0h23.75A.125.125,0,0,1,24,.125v23.75a.125.125,0,0,1-.125.125H.125A.125.125,0,0,1,0,23.875V.125A.125.125,0,0,1,.125,0Z" fill="none"/><circle cx="12" cy="12" r="9" fill="none" stroke="#323232" stroke-linecap="round" stroke-linejoin="round" stroke-width="1.5"/><path d="M15.611,16.5H8.389a.557.557,0,0,1-.556-.556v-.451a2.333,2.333,0,0,1,2.327-2.326h3.68a2.333,2.333,0,0,1,2.327,2.326v.451A.557.557,0,0,1,15.611,16.5Z" fill="none" stroke="#323232" stroke-linecap="round" stroke-linejoin="round" stroke-width="1.5"/><path d="M12,11a2.25,2.25,0,1,1,2.25-2.259A2.252,2.252,0,0,1,12,11Z" fill="none" stroke="#323232" stroke-linecap="round" stroke-linejoin="round" stroke-width="1.5"/></svg>