<?xml version="1.0" encoding="utf-8"?>
<!-- Generator: Adobe Illustrator 24.0.2, SVG Export Plug-In . SVG Version: 6.00 Build 0)  -->
<svg version="1.1" id="Layer_1" xmlns="http://www.w3.org/2000/svg" xmlns:xlink="http://www.w3.org/1999/xlink" x="0px" y="0px"
	 width="24px" height="24px" viewBox="0 0 24 24" enable-background="new 0 0 24 24" xml:space="preserve">
<g>
	<path fill="none" d="M0,0h24v24H0V0z"/>
	<g>
		<path fill="none" stroke="#323232" stroke-width="1.5" stroke-linecap="round" stroke-linejoin="round" d="M12,7
			c1.227,0,2.222,0.995,2.222,2.222c0,1.227-0.995,2.222-2.222,2.222S9.778,10.45,9.778,9.222S10.773,7,12,7"/>
		<g>
			<g>
				<path fill="none" stroke="#323232" stroke-width="1.5" stroke-linecap="round" stroke-linejoin="round" d="M20,11.242
					c0,4.368-3.157,8.462-7.48,9.686c-0.338,0.096-0.702,0.096-1.04,0C7.157,19.705,4,15.61,4,11.242V7.214
					C4,6.402,4.491,5.67,5.243,5.363l4.864-1.99c1.214-0.497,2.574-0.497,3.787,0l4.864,1.99C19.509,5.67,20,6.402,20,7.214V11.242z
					"/>
			</g>
		</g>
		<path fill="none" stroke="#323232" stroke-width="1.5" stroke-linecap="round" stroke-linejoin="round" d="M16,15
			c-0.116-0.293-0.297-0.555-0.528-0.769l0,0c-0.391-0.362-0.901-0.564-1.434-0.564c-0.889,0-3.186,0-4.075,0
			c-0.533,0-1.044,0.202-1.435,0.564l0,0C8.297,14.445,8.117,14.707,8,15"/>
	</g>
</g>
</svg>
