<svg id="Layer_3" data-name="Layer 3" xmlns="http://www.w3.org/2000/svg" viewBox="0 0 24 24"><title>user-court-legal-law</title><path d="M24,23.969H0v-24H24Z" fill="none"/><path d="M12,3h7a2,2,0,0,1,2,2v5" fill="none" stroke="#323232" stroke-linecap="round" stroke-linejoin="round" stroke-width="1.5"/><path d="M9,21H5a2,2,0,0,1-2-2V16" fill="none" stroke="#323232" stroke-linecap="round" stroke-linejoin="round" stroke-width="1.5"/><path d="M3,12.031v-.406A2.1,2.1,0,0,1,5.094,9.531H8.406A2.1,2.1,0,0,1,10.5,11.625v.406a.5.5,0,0,1-.5.5H3.5A.5.5,0,0,1,3,12.031Z" fill="none" stroke="#323232" stroke-linecap="round" stroke-linejoin="round" stroke-width="1.5"/><path d="M4.75,5.023a2,2,0,1,1,2,2.008A2,2,0,0,1,4.75,5.023Z" fill="none" stroke="#323232" stroke-linecap="round" stroke-linejoin="round" stroke-width="1.5"/><path d="M13,21h8" fill="none" stroke="#323232" stroke-linecap="round" stroke-linejoin="round" stroke-width="1.5"/><path d="M14,21V16.42" fill="none" stroke="#323232" stroke-linecap="round" stroke-linejoin="round" stroke-width="1.5"/><path d="M17,21V16.42" fill="none" stroke="#323232" stroke-linecap="round" stroke-linejoin="round" stroke-width="1.5"/><path d="M20,21V16.42" fill="none" stroke="#323232" stroke-linecap="round" stroke-linejoin="round" stroke-width="1.5"/><path d="M13,16.42h8V14.637L17,13l-4,1.637Z" fill="none" stroke="#323232" stroke-linecap="round" stroke-linejoin="round" stroke-width="1.5"/></svg>