<?xml version="1.0" encoding="utf-8"?>
<!-- Generator: Adobe Illustrator 24.0.2, SVG Export Plug-In . SVG Version: 6.00 Build 0)  -->
<svg version="1.1" id="Layer_3" xmlns="http://www.w3.org/2000/svg" xmlns:xlink="http://www.w3.org/1999/xlink" x="0px" y="0px"
	 width="24px" height="24px" viewBox="0 0 24 24" enable-background="new 0 0 24 24" xml:space="preserve">
<g>
	<path fill="none" stroke="#323232" stroke-width="1.5" stroke-linecap="round" stroke-linejoin="round" d="M12,12
		c-2.467,0-4.483-2.015-4.483-4.483S9.533,3,12,3s4.483,2.015,4.483,4.483S14.467,12,12,12z M19,21H5c-0.55,0-1-0.45-1-1v-1
		c0-2.2,1.8-4,4-4h8c2.2,0,4,1.8,4,4v1C20,20.55,19.55,21,19,21z"/>
	<g>
		<path fill="none" d="M0,0h24v24H0V0z"/>
	</g>
</g>
</svg>
