<?xml version="1.0" encoding="utf-8"?>
<!-- Generator: Adobe Illustrator 24.0.2, SVG Export Plug-In . SVG Version: 6.00 Build 0)  -->
<svg version="1.1" id="Layer_1" xmlns="http://www.w3.org/2000/svg" xmlns:xlink="http://www.w3.org/1999/xlink" x="0px" y="0px"
	 width="24px" height="24px" viewBox="0 0 24 24" style="enable-background:new 0 0 24 24;" xml:space="preserve">
<style type="text/css">
	.st0{fill:none;}
	.st1{fill:none;stroke:#323232;stroke-width:1.5;stroke-linecap:round;stroke-linejoin:round;}
</style>
<g>
	<path class="st0" d="M0,0h24v24H0V0z"/>
	<path class="st1" d="M4,20L4,20c0-2.5,2-4.5,4.5-4.5h2.6"/>
	<path class="st1" d="M16.8,15.3c0.4-0.2,0.9-0.2,1.4,0l1.8,0.7l0,2.1c0,1.8-2.5,3-2.5,3c0,0-2.5-1.2-2.5-3l0-2.1L16.8,15.3z"/>
	<path class="st1" d="M15,5.2c1.7,1.7,1.7,4.4,0,6s-4.4,1.7-6,0s-1.7-4.4,0-6S13.3,3.6,15,5.2"/>
</g>
</svg>
