<svg id="Layer_3" data-name="Layer 3" xmlns="http://www.w3.org/2000/svg" viewBox="0 0 24 24"><title>Artboard 66</title><path d="M19.905,7.7A9,9,0,0,0,3,12" fill="none" stroke="#323232" stroke-linecap="round" stroke-linejoin="round" stroke-width="1.5"/><path d="M9,20.477A9,9,0,0,1,3,12" fill="none" stroke="#323232" stroke-linecap="round" stroke-linejoin="round" stroke-width="1.5"/><path d="M20.5,21H14a.5.5,0,0,1-.5-.5v-.406A2.1,2.1,0,0,1,15.594,18h3.312A2.1,2.1,0,0,1,21,20.094V20.5A.5.5,0,0,1,20.5,21Z" fill="none" stroke="#323232" stroke-linecap="round" stroke-linejoin="round" stroke-width="1.5"/><path d="M17.25,15.5a2,2,0,1,1,2-2.008A2,2,0,0,1,17.25,15.5Z" fill="none" stroke="#323232" stroke-linecap="round" stroke-linejoin="round" stroke-width="1.5"/><polyline points="17.531 7.696 20.424 7.696 20.424 4.803" fill="none" stroke="#323232" stroke-linecap="round" stroke-linejoin="round" stroke-width="1.5"/><path d="M0,0H24V24H0Z" fill="none"/></svg>