<?xml version="1.0" encoding="utf-8"?>
<!-- Generator: Adobe Illustrator 24.0.2, SVG Export Plug-In . SVG Version: 6.00 Build 0)  -->
<svg version="1.1" id="Layer_1" xmlns="http://www.w3.org/2000/svg" xmlns:xlink="http://www.w3.org/1999/xlink" x="0px" y="0px"
	 width="24px" height="24px" viewBox="0 0 24 24" enable-background="new 0 0 24 24" xml:space="preserve">
<g>
	<path fill="none" d="M0,0h24v24H0V0z"/>
	<g>
		
			<line fill="none" stroke="#323232" stroke-width="1.5" stroke-linecap="round" stroke-linejoin="round" x1="18" y1="5" x2="20" y2="5"/>
		<path fill="none" stroke="#323232" stroke-width="1.5" stroke-linecap="round" stroke-linejoin="round" d="M19,9
			c-2.209,0-4-1.791-4-4s1.791-4,4-4s4,1.791,4,4S21.209,9,19,9"/>
		<path fill="none" stroke="#323232" stroke-width="1.5" stroke-linecap="round" stroke-linejoin="round" d="M11.5,9.025
			c1.227,0,2.222,0.995,2.222,2.222s-0.995,2.222-2.222,2.222s-2.222-0.995-2.222-2.222S10.273,9.025,11.5,9.025"/>
		<path fill="none" stroke="#323232" stroke-width="1.5" stroke-linecap="round" stroke-linejoin="round" d="M15.5,17.025
			c-0.116-0.293-0.297-0.555-0.528-0.769l0,0c-0.391-0.362-0.901-0.564-1.434-0.564c-0.889,0-3.186,0-4.075,0
			c-0.533,0-1.044,0.202-1.435,0.564l0,0c-0.231,0.214-0.411,0.477-0.528,0.769"/>
		<g>
			<path fill="none" stroke="#323232" stroke-width="1.5" stroke-linecap="round" stroke-linejoin="round" d="M15.006,4.765
				C13.936,4.279,12.752,4,11.5,4C6.806,4,3,7.806,3,12.5S6.806,21,11.5,21c4.694,0,8.5-3.806,8.5-8.5
				c0-1.252-0.279-2.436-0.765-3.506"/>
		</g>
	</g>
</g>
</svg>
