<?xml version="1.0" encoding="utf-8"?>
<!-- Generator: Adobe Illustrator 24.0.2, SVG Export Plug-In . SVG Version: 6.00 Build 0)  -->
<svg version="1.1" id="Layer_1" xmlns="http://www.w3.org/2000/svg" xmlns:xlink="http://www.w3.org/1999/xlink" x="0px" y="0px"
	 width="24px" height="24px" viewBox="0 0 24 24" style="enable-background:new 0 0 24 24;" xml:space="preserve">
<style type="text/css">
	.st0{fill:none;stroke:#323232;stroke-width:1.5;stroke-linecap:round;stroke-linejoin:round;}
	.st1{fill:none;}
</style>
<g>
	<path class="st0" d="M8.9,5.8c1.1,1.1,1.1,2.8,0,3.9s-2.8,1.1-3.9,0S4,6.9,5.1,5.8S7.9,4.7,8.9,5.8"/>
	<path class="st0" d="M18.9,5.8c1.1,1.1,1.1,2.8,0,3.9s-2.8,1.1-3.9,0s-1.1-2.8,0-3.9S17.9,4.7,18.9,5.8"/>
	<path class="st0" d="M22,19c0-2.8-2.2-5-5-5s-5,2.2-5,5c0-2.8-2.2-5-5-5s-5,2.2-5,5"/>
</g>
<path class="st1" d="M0,0h24v24H0V0z"/>
</svg>
