<?xml version="1.0" encoding="utf-8"?>
<!-- Generator: Adobe Illustrator 24.0.2, SVG Export Plug-In . SVG Version: 6.00 Build 0)  -->
<svg version="1.1" id="Layer_1" xmlns="http://www.w3.org/2000/svg" xmlns:xlink="http://www.w3.org/1999/xlink" x="0px" y="0px"
	 width="24px" height="24px" viewBox="0 0 24 24" enable-background="new 0 0 24 24" xml:space="preserve">
<g>
	<g>
		
			<circle fill="none" stroke="#323232" stroke-width="1.5" stroke-linecap="round" stroke-linejoin="round" cx="7" cy="5.25" r="2.25"/>
		<path fill="none" stroke="#323232" stroke-width="1.5" stroke-linecap="round" stroke-linejoin="round" d="M5,16v4
			c0,0.552,0.448,1,1,1h2c0.552,0,1-0.448,1-1v-4l1.055-0.703c0.278-0.185,0.445-0.498,0.445-0.832V11c0-0.552-0.448-1-1-1h-5
			c-0.552,0-1,0.448-1,1v3.465c0,0.334,0.167,0.647,0.445,0.832L5,16z"/>
		
			<line fill="none" stroke="#323232" stroke-width="1.5" stroke-linecap="round" stroke-linejoin="round" x1="14.5" y1="5" x2="20.5" y2="5"/>
		
			<line fill="none" stroke="#323232" stroke-width="1.5" stroke-linecap="round" stroke-linejoin="round" x1="14.5" y1="8" x2="20.5" y2="8"/>
		
			<line fill="none" stroke="#323232" stroke-width="1.5" stroke-linecap="round" stroke-linejoin="round" x1="14.5" y1="11" x2="18.5" y2="11"/>
	</g>
	<g>
		<path fill="none" d="M0,0h24v24H0V0z"/>
	</g>
</g>
</svg>
