<svg id="Layer_3" data-name="Layer 3" xmlns="http://www.w3.org/2000/svg" viewBox="0 0 24 24"><title>Artboard 68</title><path d="M24,24H0V0H24Z" fill="none"/><path d="M19,21a2,2,0,0,0,2-2" fill="none" stroke="#323232" stroke-linecap="round" stroke-linejoin="round" stroke-width="1.5"/><path d="M21,19V15" fill="none" stroke="#323232" stroke-linecap="round" stroke-linejoin="round" stroke-width="1.5"/><path d="M19,21H14" fill="none" stroke="#323232" stroke-linecap="round" stroke-linejoin="round" stroke-width="1.5"/><path d="M10,3H5A2,2,0,0,0,3,5V8" fill="none" stroke="#323232" stroke-linecap="round" stroke-linejoin="round" stroke-width="1.5"/><path d="M19,11H15a2,2,0,0,1-2-2V5a2,2,0,0,1,2-2h4a2,2,0,0,1,2,2V9A2,2,0,0,1,19,11Z" fill="none" stroke="#323232" stroke-linecap="round" stroke-linejoin="round" stroke-width="1.5"/><path d="M18.361,6.149l-1.7,1.7L15.639,6.83" fill="none" stroke="#323232" stroke-linecap="round" stroke-linejoin="round" stroke-width="1.5"/><path d="M10,21H3.5a.5.5,0,0,1-.5-.5v-.406A2.1,2.1,0,0,1,5.094,18H8.406A2.1,2.1,0,0,1,10.5,20.094V20.5A.5.5,0,0,1,10,21Z" fill="none" stroke="#323232" stroke-linecap="round" stroke-linejoin="round" stroke-width="1.5"/><path d="M6.75,15.5a2,2,0,1,1,2-2.008A2,2,0,0,1,6.75,15.5Z" fill="none" stroke="#323232" stroke-linecap="round" stroke-linejoin="round" stroke-width="1.5"/></svg>