<?xml version="1.0" encoding="utf-8"?>
<!-- Generator: Adobe Illustrator 24.0.2, SVG Export Plug-In . SVG Version: 6.00 Build 0)  -->
<svg version="1.1" id="Layer_1" xmlns="http://www.w3.org/2000/svg" xmlns:xlink="http://www.w3.org/1999/xlink" x="0px" y="0px"
	 width="24px" height="24px" viewBox="0 0 24 24" style="enable-background:new 0 0 24 24;" xml:space="preserve">
<style type="text/css">
	.st0{fill:none;stroke:#323232;stroke-width:1.5;stroke-linecap:round;stroke-linejoin:round;}
	.st1{fill:none;}
</style>
<g>
	<path class="st0" d="M5.9,20c1.6-1.5,3.7-2.5,6.1-2.5c2.3,0,4.5,0.9,6.1,2.5"/>
	<path class="st0" d="M14.1,9.4c1.2,1.2,1.2,3.1,0,4.2s-3.1,1.2-4.2,0s-1.2-3.1,0-4.2S12.9,8.2,14.1,9.4"/>
	<path class="st0" d="M4,17c-0.6-1.2-1-2.6-1-4c0-5,4-9,9-9s9,4,9,9c0,1.4-0.4,2.8-1,4"/>
</g>
<path class="st1" d="M0,0h24v24H0V0z"/>
</svg>
