<svg id="Layer_3" data-name="Layer 3" xmlns="http://www.w3.org/2000/svg" viewBox="0 0 24 24"><title>vacuum</title><path d="M13.114,16.5V12a2,2,0,0,1,2-2h1a5,5,0,0,1,5,5v4a2,2,0,0,1-2,2h-4.5" fill="none" stroke="#323232" stroke-linecap="round" stroke-linejoin="round" stroke-width="1.5"/><path d="M4.659,18H7.568a1.546,1.546,0,0,1,1.546,1.546V20a1,1,0,0,1-1,1h-4a1,1,0,0,1-1-1v-.454A1.546,1.546,0,0,1,4.659,18Z" fill="none" stroke="#323232" stroke-linecap="round" stroke-linejoin="round" stroke-width="1.5"/><circle cx="14.614" cy="18.5" r="2.5" fill="none" stroke="#323232" stroke-linecap="round" stroke-linejoin="round" stroke-width="1.5"/><path d="M6.114,18V7.5a4.5,4.5,0,0,1,4.5-4.5h0a4.5,4.5,0,0,1,4.5,4.5V10" fill="none" stroke="#323232" stroke-linecap="round" stroke-linejoin="round" stroke-width="1.5"/><rect width="24" height="24" fill="none"/></svg>