<svg id="Layer_3" data-name="Layer 3" xmlns="http://www.w3.org/2000/svg" viewBox="0 0 24 24"><title>vegetables-broccoli</title><path d="M10.754,21h2.492a1.056,1.056,0,0,0,1.035-.849l.564-2.821a2,2,0,0,1,1.961-1.608h.44a3.53,3.53,0,0,0,3.541-2.937,3.414,3.414,0,0,0-1.826-3.527,2.44,2.44,0,0,0-3.085-3.78,3.9,3.9,0,0,0-7.752,0,2.44,2.44,0,0,0-3.085,3.78,3.418,3.418,0,0,0-1.753,3.9,3.522,3.522,0,0,0,3.468,2.562h.44A2,2,0,0,1,9.155,17.33l.564,2.821A1.056,1.056,0,0,0,10.754,21Z" fill="none" stroke="#323232" stroke-linecap="round" stroke-linejoin="round" stroke-width="1.5"/><rect width="24" height="24" fill="none"/></svg>