<svg id="Layer_3" data-name="Layer 3" xmlns="http://www.w3.org/2000/svg" viewBox="0 0 24 24"><title>vegetables-corn</title><path d="M7.568,19.258l-1.3,1.3a1.5,1.5,0,0,1-2.121,0l-.7-.7a1.5,1.5,0,0,1,0-2.121l1.3-1.3" fill="none" stroke="#323232" stroke-linecap="round" stroke-linejoin="round" stroke-width="1.5"/><path d="M8.332,15.668a5.508,5.508,0,0,0,.444-7.293,1,1,0,0,0-1.518-.109L5.91,9.614a6,6,0,0,0,.436,8.872,6.168,6.168,0,0,0,8.222-.578l2.57-2.571a.992.992,0,0,0-.113-1.515,6,6,0,0,0-7.583.736Z" fill="none" stroke="#323232" stroke-linecap="round" stroke-linejoin="round" stroke-width="1.5"/><rect width="24" height="24" fill="none"/><path d="M17.281,14.082l3.165-5.246a3.847,3.847,0,0,0-.573-4.709h0a3.847,3.847,0,0,0-4.865-.474L8.42,8.073" fill="none" stroke="#323232" stroke-linecap="round" stroke-linejoin="round" stroke-width="1.5"/></svg>