<svg id="Layer_3" data-name="Layer 3" xmlns="http://www.w3.org/2000/svg" viewBox="0 0 24 24"><title>vegetables-carrot</title><path d="M3.205,20.8h0a2.408,2.408,0,0,1-.3-3.044l6.68-9.967a4.777,4.777,0,0,1,7.346-.718h0a4.777,4.777,0,0,1-.718,7.346l-9.967,6.68A2.408,2.408,0,0,1,3.205,20.8Z" fill="none" stroke="#323232" stroke-linecap="round" stroke-linejoin="round" stroke-width="1.5"/><path d="M15.175,5.947V3.933A1.433,1.433,0,0,1,16.608,2.5h0a1.434,1.434,0,0,1,1.433,1.433,1.432,1.432,0,0,1,2.026,0h0a1.432,1.432,0,0,1,0,2.026A1.434,1.434,0,0,1,21.5,7.392h0a1.433,1.433,0,0,1-1.433,1.433H18.053" fill="none" stroke="#323232" stroke-linecap="round" stroke-linejoin="round" stroke-width="1.5"/><line x1="16.182" y1="14.445" x2="14.268" y2="12.531" fill="none" stroke="#323232" stroke-linecap="round" stroke-linejoin="round" stroke-width="1.5"/><line x1="9.37" y1="13.231" x2="7.315" y2="11.176" fill="none" stroke="#323232" stroke-linecap="round" stroke-linejoin="round" stroke-width="1.5"/><line x1="9.473" y1="18.931" x2="7.271" y2="16.729" fill="none" stroke="#323232" stroke-linecap="round" stroke-linejoin="round" stroke-width="1.5"/><rect width="24" height="24" fill="none"/></svg>