<svg id="Layer_3" data-name="Layer 3" xmlns="http://www.w3.org/2000/svg" viewBox="0 0 24 24"><title>vegetables-salad</title><path d="M9,7a3,3,0,0,1,6,0,2.12132,2.12132,0,0,1,3,0" fill="none" stroke="#323232" stroke-linecap="round" stroke-linejoin="round" stroke-width="1.5"/><path d="M9,13a3,3,0,0,1,6,0" fill="none" stroke="#323232" stroke-linecap="round" stroke-linejoin="round" stroke-width="1.5"/><path d="M12,10a3.0004,3.0004,0,0,0-5.91675-.70479.47509.47509,0,0,1-.66459.31875,1.75766,1.75766,0,0,0-1.90394,2.87132l.68067.68067" fill="none" stroke="#323232" stroke-linecap="round" stroke-linejoin="round" stroke-width="1.5"/><path d="M18,7a2.10592,2.10592,0,0,1,.39,2.46" fill="none" stroke="#323232" stroke-linecap="round" stroke-linejoin="round" stroke-width="1.5"/><path d="M19.8,18.6h0A6,6,0,0,1,15,21H9a6,6,0,0,1-4.8-2.4h0A6,6,0,0,1,3,15H3a2,2,0,0,1,2-2H19a2,2,0,0,1,2,2h0A6,6,0,0,1,19.8,18.6Z" fill="none" stroke="#323232" stroke-linecap="round" stroke-linejoin="round" stroke-width="1.5"/><path d="M19.98291,13.26813a4.76228,4.76228,0,0,0,.91565-2.8v-.6a.6.6,0,0,0-.6-.6h-.60009A4.7952,4.7952,0,0,0,15.02734,13" fill="none" stroke="#323232" stroke-linecap="round" stroke-linejoin="round" stroke-width="1.5"/><path d="M0,0H24V24H0Z" fill="none"/></svg>