<?xml version="1.0" encoding="utf-8"?>
<!-- Generator: Adobe Illustrator 23.1.0, SVG Export Plug-In . SVG Version: 6.00 Build 0)  -->
<svg version="1.1" id="icons" xmlns="http://www.w3.org/2000/svg" xmlns:xlink="http://www.w3.org/1999/xlink" x="0px" y="0px"
	 width="24px" height="24px" viewBox="0 0 24 24" enable-background="new 0 0 24 24" xml:space="preserve">
<g>
	<path fill="none" d="M0,0h24v24H0V0z"/>
	<g>
		<path fill="none" stroke="#323232" stroke-width="1.5" stroke-linecap="round" stroke-linejoin="round" d="M15.493,18.25
			c-0.966,0-1.75,0.784-1.743,1.75c0,0.966,0.784,1.75,1.75,1.75s1.75-0.784,1.75-1.75S16.466,18.25,15.493,18.25"/>
		<path fill="none" stroke="#323232" stroke-width="1.5" stroke-linecap="round" stroke-linejoin="round" d="M19,15H5
			c-1.105,0-2-0.895-2-2V5c0-1.105,0.895-2,2-2h14c1.105,0,2,0.895,2,2v8C21,14.105,20.105,15,19,15z"/>
		
			<line fill="none" stroke="#323232" stroke-width="1.5" stroke-linecap="round" stroke-linejoin="round" x1="3" y1="20" x2="13.75" y2="20"/>
		
			<line fill="none" stroke="#323232" stroke-width="1.5" stroke-linecap="round" stroke-linejoin="round" x1="17.25" y1="20" x2="21" y2="20"/>
	</g>
</g>
</svg>
