<svg id="Layer_3" data-name="Layer 3" xmlns="http://www.w3.org/2000/svg" viewBox="0 0 24 24"><title>virgo2</title><line x1="5" y1="6" x2="5" y2="8" fill="none" stroke="#323232" stroke-linecap="round" stroke-linejoin="round" stroke-width="1.5"/><path d="M10,20V7.5A2.5,2.5,0,0,0,7.5,5h0A2.5,2.5,0,0,0,5,7.5V20" fill="none" stroke="#323232" stroke-linecap="round" stroke-linejoin="round" stroke-width="1.5"/><path d="M15,20V7.5A2.5,2.5,0,0,0,12.5,5h0A2.5,2.5,0,0,0,10,7.5" fill="none" stroke="#323232" stroke-linecap="round" stroke-linejoin="round" stroke-width="1.5"/><path d="M13,14h4.5A2.5,2.5,0,0,0,20,11.5v-4A2.5,2.5,0,0,0,17.5,5h0A2.5,2.5,0,0,0,15,7.5" fill="none" stroke="#323232" stroke-linecap="round" stroke-linejoin="round" stroke-width="1.5"/><path d="M5,6A2,2,0,0,0,3,4" fill="none" stroke="#323232" stroke-linecap="round" stroke-linejoin="round" stroke-width="1.5"/><rect width="24" height="24" transform="translate(0 24) rotate(-90)" fill="none"/></svg>