<svg id="Layer_3" data-name="Layer 3" xmlns="http://www.w3.org/2000/svg" viewBox="0 0 24 24"><title>virgo</title><path d="M17.5,20h0A2.5,2.5,0,0,1,15,17.5V7.75a2.5,2.5,0,0,0-2.5-2.5h0A2.5,2.5,0,0,0,10,7.75V19" fill="none" stroke="#323232" stroke-linecap="round" stroke-linejoin="round" stroke-width="1.5"/><path d="M13,21l5.832-8.748A2.092,2.092,0,0,0,17.092,9h0A2.091,2.091,0,0,0,15,11.092" fill="none" stroke="#323232" stroke-linecap="round" stroke-linejoin="round" stroke-width="1.5"/><path d="M20,17.5h0A2.5,2.5,0,0,1,17.5,20" fill="none" stroke="#323232" stroke-linecap="round" stroke-linejoin="round" stroke-width="1.5"/><path d="M10,15.744V7.75a2.5,2.5,0,0,0-2.5-2.5h0A2.5,2.5,0,0,0,5,7.75V19" fill="none" stroke="#323232" stroke-linecap="round" stroke-linejoin="round" stroke-width="1.5"/><path d="M5,7.75V6A2,2,0,0,0,3,4" fill="none" stroke="#323232" stroke-linecap="round" stroke-linejoin="round" stroke-width="1.5"/><path d="M24,24H0V0H24Z" fill="none"/></svg>