<?xml version="1.0" encoding="utf-8"?>
<!-- Generator: Adobe Illustrator 24.0.2, SVG Export Plug-In . SVG Version: 6.00 Build 0)  -->
<svg version="1.1" id="Layer_1" xmlns="http://www.w3.org/2000/svg" xmlns:xlink="http://www.w3.org/1999/xlink" x="0px" y="0px"
	 width="24px" height="24px" viewBox="0 0 24 24" enable-background="new 0 0 24 24" xml:space="preserve">
<g>
	<g>
		
			<line fill="none" stroke="#323232" stroke-width="1.5" stroke-linecap="round" stroke-linejoin="round" x1="12" y1="6" x2="12" y2="3"/>
		
			<line fill="none" stroke="#323232" stroke-width="1.5" stroke-linecap="round" stroke-linejoin="round" x1="10.5" y1="3" x2="13.5" y2="3"/>
		
			<line fill="none" stroke="#323232" stroke-width="1.5" stroke-linecap="round" stroke-linejoin="round" x1="12" y1="18" x2="12" y2="21"/>
		
			<line fill="none" stroke="#323232" stroke-width="1.5" stroke-linecap="round" stroke-linejoin="round" x1="13.5" y1="21" x2="10.5" y2="21"/>
		
			<line fill="none" stroke="#323232" stroke-width="1.5" stroke-linecap="round" stroke-linejoin="round" x1="16.243" y1="7.757" x2="18.364" y2="5.636"/>
		
			<line fill="none" stroke="#323232" stroke-width="1.5" stroke-linecap="round" stroke-linejoin="round" x1="17.303" y1="4.575" x2="19.425" y2="6.697"/>
		
			<line fill="none" stroke="#323232" stroke-width="1.5" stroke-linecap="round" stroke-linejoin="round" x1="7.757" y1="16.243" x2="5.636" y2="18.364"/>
		
			<line fill="none" stroke="#323232" stroke-width="1.5" stroke-linecap="round" stroke-linejoin="round" x1="6.697" y1="19.425" x2="4.575" y2="17.303"/>
		
			<line fill="none" stroke="#323232" stroke-width="1.5" stroke-linecap="round" stroke-linejoin="round" x1="18" y1="12" x2="21" y2="12"/>
		<circle fill="none" stroke="#323232" stroke-width="1.5" stroke-linecap="round" stroke-linejoin="round" cx="12" cy="12" r="6"/>
		
			<line fill="none" stroke="#323232" stroke-width="1.5" stroke-linecap="round" stroke-linejoin="round" x1="21" y1="10.5" x2="21" y2="13.5"/>
		
			<line fill="none" stroke="#323232" stroke-width="1.5" stroke-linecap="round" stroke-linejoin="round" x1="6" y1="12" x2="3" y2="12"/>
		
			<line fill="none" stroke="#323232" stroke-width="1.5" stroke-linecap="round" stroke-linejoin="round" x1="3" y1="13.5" x2="3" y2="10.5"/>
		
			<line fill="none" stroke="#323232" stroke-width="1.5" stroke-linecap="round" stroke-linejoin="round" x1="16.243" y1="16.243" x2="18.364" y2="18.364"/>
		
			<line fill="none" stroke="#323232" stroke-width="1.5" stroke-linecap="round" stroke-linejoin="round" x1="19.425" y1="17.303" x2="17.303" y2="19.425"/>
		
			<line fill="none" stroke="#323232" stroke-width="1.5" stroke-linecap="round" stroke-linejoin="round" x1="7.757" y1="7.757" x2="5.636" y2="5.636"/>
		
			<line fill="none" stroke="#323232" stroke-width="1.5" stroke-linecap="round" stroke-linejoin="round" x1="4.575" y1="6.697" x2="6.697" y2="4.575"/>
		<path fill="none" stroke="#323232" stroke-width="1.5" stroke-linecap="round" stroke-linejoin="round" d="M10.5,14.45
			c-0.028,0-0.05,0.022-0.05,0.05c0,0.028,0.022,0.05,0.05,0.05s0.05-0.022,0.05-0.05C10.55,14.472,10.528,14.45,10.5,14.45"/>
		<path fill="none" stroke="#323232" stroke-width="1.5" stroke-linecap="round" stroke-linejoin="round" d="M9,11.95
			c-0.028,0-0.05,0.022-0.05,0.05c0,0.028,0.022,0.05,0.05,0.05S9.05,12.028,9.05,12C9.05,11.972,9.028,11.95,9,11.95"/>
		<path fill="none" stroke="#323232" stroke-width="1.5" stroke-linecap="round" stroke-linejoin="round" d="M10.5,9.45
			c-0.028,0-0.05,0.022-0.05,0.05c0,0.028,0.022,0.05,0.05,0.05s0.05-0.022,0.05-0.05C10.55,9.472,10.528,9.45,10.5,9.45"/>
		<path fill="none" stroke="#323232" stroke-width="1.5" stroke-linecap="round" stroke-linejoin="round" d="M13.5,9.45
			c-0.028,0-0.05,0.022-0.05,0.05c0,0.028,0.022,0.05,0.05,0.05s0.05-0.022,0.05-0.05C13.55,9.472,13.528,9.45,13.5,9.45"/>
		<path fill="none" stroke="#323232" stroke-width="1.5" stroke-linecap="round" stroke-linejoin="round" d="M15,11.95
			c-0.028,0-0.05,0.022-0.05,0.05c0,0.028,0.022,0.05,0.05,0.05s0.05-0.022,0.05-0.05C15.05,11.972,15.028,11.95,15,11.95"/>
		<path fill="none" stroke="#323232" stroke-width="1.5" stroke-linecap="round" stroke-linejoin="round" d="M13.5,14.45
			c-0.028,0-0.05,0.022-0.05,0.05c0,0.028,0.022,0.05,0.05,0.05s0.05-0.022,0.05-0.05C13.55,14.472,13.528,14.45,13.5,14.45"/>
		<path fill="none" stroke="#323232" stroke-width="1.5" stroke-linecap="round" stroke-linejoin="round" d="M12,11.95
			c-0.028,0-0.05,0.022-0.05,0.05c0,0.028,0.022,0.05,0.05,0.05s0.05-0.022,0.05-0.05C12.05,11.972,12.028,11.95,12,11.95"/>
	</g>
	<path fill="none" d="M0,0h24v24H0V0z"/>
</g>
</svg>
