<?xml version="1.0" encoding="utf-8"?>
<!-- Generator: Adobe Illustrator 24.0.2, SVG Export Plug-In . SVG Version: 6.00 Build 0)  -->
<svg version="1.1" id="Layer_1" xmlns="http://www.w3.org/2000/svg" xmlns:xlink="http://www.w3.org/1999/xlink" x="0px" y="0px"
	 width="24px" height="24px" viewBox="0 0 24 24" enable-background="new 0 0 24 24" xml:space="preserve">
<g>
	<path fill="none" d="M0,24V0h24v24"/>
	<g>
		<path fill="none" stroke="#323232" stroke-width="1.5" stroke-linecap="round" stroke-linejoin="round" d="M19.891,15.247
			c1.478-1.894,1.478-4.601,0-6.495"/>
		<path fill="none" stroke="#323232" stroke-width="1.5" stroke-linecap="round" stroke-linejoin="round" d="M17.354,10.107
			c0.861,1.104,0.861,2.683,0,3.788"/>
		<path fill="none" stroke="#323232" stroke-width="1.5" stroke-linecap="round" stroke-linejoin="round" d="M20,18L20,18
			c0,1.657-1.343,3-3,3H6c-1.657,0-3-1.343-3-3V6c0-1.657,1.343-3,3-3h11c1.657,0,3,1.343,3,3v0"/>
		<path fill="none" stroke="#323232" stroke-width="1.5" stroke-linecap="round" stroke-linejoin="round" d="M11.25,14.012l2.5,2
			V7.988l-2.5,2.025h-1.5c-0.552,0-1,0.448-1,1v2c0,0.552,0.448,1,1,1h1.5V14.012z"/>
	</g>
</g>
</svg>
