<?xml version="1.0" encoding="utf-8"?>
<!-- Generator: Adobe Illustrator 24.0.2, SVG Export Plug-In . SVG Version: 6.00 Build 0)  -->
<svg version="1.1" id="Layer_1" xmlns="http://www.w3.org/2000/svg" xmlns:xlink="http://www.w3.org/1999/xlink" x="0px" y="0px"
	 width="24px" height="24px" viewBox="0 0 24 24" enable-background="new 0 0 24 24" xml:space="preserve">
<g>
	<g>
		<path fill="none" stroke="#323232" stroke-width="1.5" stroke-linecap="round" stroke-linejoin="round" d="M11.25,14.012l2.5,2
			V7.988l-2.5,2.025h-1.5c-0.552,0-1,0.448-1,1v2c0,0.552,0.448,1,1,1h1.5V14.012z"/>
		<path fill="none" stroke="#323232" stroke-width="1.5" stroke-linecap="round" stroke-linejoin="round" d="M17.16,21.16H6.84
			c-2.209,0-4-1.791-4-4V6.84c0-2.209,1.791-4,4-4h10.32c2.209,0,4,1.791,4,4v10.32C21.16,19.369,19.369,21.16,17.16,21.16z"/>
	</g>
	<path fill="none" d="M0,0h24v24H0V0z"/>
</g>
</svg>
