<?xml version="1.0" encoding="utf-8"?>
<!-- Generator: Adobe Illustrator 24.0.2, SVG Export Plug-In . SVG Version: 6.00 Build 0)  -->
<svg version="1.1" id="Layer_1" xmlns="http://www.w3.org/2000/svg" xmlns:xlink="http://www.w3.org/1999/xlink" x="0px" y="0px"
	 width="24px" height="24px" viewBox="0 0 24 24" enable-background="new 0 0 24 24" xml:space="preserve">
<g>
	<path fill="none" d="M24,24H0V0h24V24z"/>
	<g>
		<g>
			<path fill="none" stroke="#323232" stroke-width="1.5" stroke-linecap="round" stroke-linejoin="round" d="M14,21h5
				c1.105,0,2-0.895,2-2v-4"/>
		</g>
		<path fill="none" stroke="#323232" stroke-width="1.5" stroke-linecap="round" stroke-linejoin="round" d="M14.711,9.525
			c0.62,0.62,0.62,1.626,0,2.246c-0.62,0.62-1.626,0.62-2.246,0c-0.62-0.62-0.62-1.626,0-2.246
			C13.085,8.905,14.091,8.905,14.711,9.525"/>
		<path fill="none" stroke="#323232" stroke-width="1.5" stroke-linecap="round" stroke-linejoin="round" d="M20.535,8.467
			c0.62,0.62,0.62,1.626,0,2.246c-0.62,0.62-1.626,0.62-2.246,0c-0.62-0.62-0.62-1.626,0-2.246
			C18.909,7.846,19.915,7.846,20.535,8.467"/>
		<path fill="none" stroke="#323232" stroke-width="1.5" stroke-linecap="round" stroke-linejoin="round" d="M15.176,10.648V5.542
			c0-0.433,0.264-0.823,0.666-0.983l3.706-1.482C20.244,2.798,21,3.311,21,4.059v5.53"/>
		<path fill="none" stroke="#323232" stroke-width="1.5" stroke-linecap="round" stroke-linejoin="round" d="M12,3H5
			C3.895,3,3,3.895,3,5v5"/>
		<g>
			
				<path fill="none" stroke="#323232" stroke-width="1.5" stroke-linecap="round" stroke-linejoin="round" stroke-miterlimit="10" d="
				M3.262,20.475c0.145,0,0.263,0.119,0.263,0.263C3.524,20.882,3.406,21,3.262,21C3.118,21,3,20.882,3.001,20.737
				C3,20.593,3.117,20.475,3.262,20.475"/>
			
				<path fill="none" stroke="#323232" stroke-width="1.5" stroke-linecap="round" stroke-linejoin="round" stroke-miterlimit="10" d="
				M3,17.5c2.049,0.045,3.455,1.451,3.5,3.5"/>
			
				<path fill="none" stroke="#323232" stroke-width="1.5" stroke-linecap="round" stroke-linejoin="round" stroke-miterlimit="10" d="
				M10,21c-0.01-0.886-0.16-1.715-0.428-2.475c-0.686-1.942-2.155-3.411-4.098-4.099C4.715,14.16,3.886,14.01,3,14"/>
		</g>
	</g>
</g>
</svg>
