<svg id="Layer_3" data-name="Layer 3" xmlns="http://www.w3.org/2000/svg" viewBox="0 0 24 24"><path d="M11.61765,11H5.11257a1.5,1.5,0,0,1-1.5-1.5V8a1,1,0,0,1,1-1h7.00508" fill="none" stroke="#323232" stroke-linecap="round" stroke-linejoin="round" stroke-width="1.5"/><circle cx="13.11257" cy="9" r="2.5" fill="none" stroke="#323232" stroke-linecap="round" stroke-linejoin="round" stroke-width="1.5"/><rect width="24" height="24" fill="none"/><path d="M9.83665,17.32777l-.78533,2.356A1,1,0,0,0,10,21h7.22515a1,1,0,0,0,.94868-1.31623l-.26608-.79824a8.905,8.905,0,0,1,.812-7.39757h0a6.26468,6.26468,0,0,0,.89277-3.22318h0A6.26475,6.26475,0,0,0,13.34782,2H12.61A6.48912,6.48912,0,0,0,6.29,7" fill="none" stroke="#323232" stroke-linecap="round" stroke-linejoin="round" stroke-width="1.5"/><path d="M4.88566,10.98128l-.71745,1.07615A1,1,0,0,0,4.553,13.50659L5.5,13.98v2.01843a2,2,0,0,0,2.63246,1.89736l2-.66666A2,2,0,0,0,11.5,15.3318v-.55848" fill="none" stroke="#323232" stroke-linecap="round" stroke-linejoin="round" stroke-width="1.5"/></svg>