<svg id="Layer_3" data-name="Layer 3" xmlns="http://www.w3.org/2000/svg" viewBox="0 0 24 24"><rect width="24" height="24" fill="none"/><line x1="9.15" y1="17.37" x2="9.89" y2="14.44" fill="none" stroke="#323232" stroke-linecap="round" stroke-linejoin="round" stroke-width="1.5"/><line x1="14.11" y1="14.44" x2="14.84" y2="17.38" fill="none" stroke="#323232" stroke-linecap="round" stroke-linejoin="round" stroke-width="1.5"/><path d="M7.54,5.03A4.33463,4.33463,0,0,1,11.66,2h.68a4.33463,4.33463,0,0,1,4.12,3.03" fill="none" stroke="#323232" stroke-linecap="round" stroke-linejoin="round" stroke-width="1.5"/><path d="M16.31,10.98v.03a4.32283,4.32283,0,0,1-8.62,0v-.03" fill="none" stroke="#323232" stroke-linecap="round" stroke-linejoin="round" stroke-width="1.5"/><path d="M16.13793,11H7.86207A1.8481,1.8481,0,0,1,6,9.2V6.8A1.8481,1.8481,0,0,1,7.86207,5h8.33229A1.836,1.836,0,0,1,18,6.8V9.25455A1.83955,1.83955,0,0,1,16.13793,11Z" fill="none" stroke="#323232" stroke-linecap="round" stroke-linejoin="round" stroke-width="1.5"/><line x1="10" y1="7.5" x2="14" y2="7.5" fill="none" stroke="#323232" stroke-linecap="round" stroke-linejoin="round" stroke-width="1.5"/><path d="M3,21v-.384a3,3,0,0,1,2.412-2.942l3.213-.643.312.208a5.52,5.52,0,0,0,6.126,0l.312-.208,3.213.643A3,3,0,0,1,21,20.616V21" fill="none" stroke="#323232" stroke-linecap="round" stroke-linejoin="round" stroke-width="1.5"/></svg>