<?xml version="1.0" encoding="utf-8"?>
<!-- Generator: Adobe Illustrator 24.0.2, SVG Export Plug-In . SVG Version: 6.00 Build 0)  -->
<svg version="1.1" id="Layer_3" xmlns="http://www.w3.org/2000/svg" xmlns:xlink="http://www.w3.org/1999/xlink" x="0px" y="0px"
	 width="24px" height="24px" viewBox="0 0 24 24" enable-background="new 0 0 24 24" xml:space="preserve">
<g>
	<g>
		<path fill="none" d="M0,0h24v24H0V0z"/>
	</g>
	<g>
		<path fill="none" stroke="#323232" stroke-width="1.5" stroke-linecap="round" stroke-linejoin="round" d="M13.499,13.48
			c-0.138,0.001-0.249,0.113-0.249,0.251c0,0.138,0.112,0.25,0.25,0.249c0.138,0,0.25-0.112,0.25-0.25
			C13.75,13.592,13.638,13.48,13.499,13.48"/>
		<path fill="none" stroke="#323232" stroke-width="1.5" stroke-linecap="round" stroke-linejoin="round" d="M3,6.283V6
			c0-1.657,1.343-3,3-3h12c1.657,0,3,1.343,3,3v9c0,1.657-1.343,3-3,3h-1"/>
		
			<line fill="none" stroke="#323232" stroke-width="1.5" stroke-linecap="round" stroke-linejoin="round" x1="21" y1="9" x2="17" y2="9"/>
		<g>
			<path fill="none" stroke="#323232" stroke-width="1.5" stroke-linecap="round" stroke-linejoin="round" d="M13.325,20.922
				C15.205,21.356,17,19.928,17,17.999V9.387c0-1.397-0.964-2.609-2.325-2.923L5.45,4.335C4.196,4.045,3,4.997,3,6.283v9.869
				c0,1.397,0.964,2.609,2.325,2.923L13.325,20.922z"/>
		</g>
	</g>
</g>
</svg>
