<?xml version="1.0" encoding="utf-8"?>
<!-- Generator: Adobe Illustrator 24.0.2, SVG Export Plug-In . SVG Version: 6.00 Build 0)  -->
<svg version="1.1" id="Layer_3" xmlns="http://www.w3.org/2000/svg" xmlns:xlink="http://www.w3.org/1999/xlink" x="0px" y="0px"
	 width="24px" height="24px" viewBox="0 0 24 24" enable-background="new 0 0 24 24" xml:space="preserve">
<g>
	<g>
		
			<path fill-rule="evenodd" clip-rule="evenodd" fill="none" stroke="#323232" stroke-width="1.5" stroke-linecap="round" stroke-linejoin="round" d="
			M18,20H6c-1.657,0-3-1.343-3-3V6c0-1.105,0.895-2,2-2h14c1.105,0,2,0.895,2,2v11C21,18.657,19.657,20,18,20z"/>
		<path fill="none" stroke="#323232" stroke-width="1.5" stroke-linecap="round" stroke-linejoin="round" d="M21,11.5h-3.5
			c-0.53,0-1.039,0.211-1.414,0.586l-0.828,0.828c-0.375,0.375-0.884,0.586-1.414,0.586h-3.101c-0.53,0-1.039-0.211-1.414-0.586
			L8.5,12.086C8.125,11.711,7.616,11.5,7.086,11.5H3"/>
		
			<line fill="none" stroke="#323232" stroke-width="1.5" stroke-linecap="round" stroke-linejoin="round" x1="21" y1="8" x2="3" y2="8"/>
	</g>
	<g>
		<path fill="none" d="M0,0h24v24H0V0z"/>
	</g>
</g>
</svg>
