<?xml version="1.0" encoding="utf-8"?>
<!-- Generator: Adobe Illustrator 24.0.2, SVG Export Plug-In . SVG Version: 6.00 Build 0)  -->
<svg version="1.1" id="Layer_3" xmlns="http://www.w3.org/2000/svg" xmlns:xlink="http://www.w3.org/1999/xlink" x="0px" y="0px"
	 width="24px" height="24px" viewBox="0 0 24 24" enable-background="new 0 0 24 24" xml:space="preserve">
<g>
	<g>
		<g>
			<path fill="none" d="M0,0h24v24H0V0z"/>
		</g>
	</g>
	<g>
		<g>
			<path fill="none" stroke="#323232" stroke-width="1.5" stroke-linecap="round" stroke-linejoin="round" d="M4,11.906V8.091
				c0-1.248,0.773-2.366,1.94-2.807l8.353-3.154C15.602,1.637,17,2.603,17,4.002v3.35"/>
		</g>
		<path fill="none" stroke="#323232" stroke-width="1.5" stroke-linecap="round" stroke-linejoin="round" d="M17.249,14.101
			C17.111,14.102,17,14.214,17,14.352c0,0.138,0.112,0.25,0.25,0.249c0.138,0,0.25-0.112,0.25-0.25
			C17.5,14.213,17.388,14.101,17.249,14.101"/>
		<path fill="none" stroke="#323232" stroke-width="1.5" stroke-linecap="round" stroke-linejoin="round" d="M10.662,21H18
			c1.65,0,3-1.35,3-3v-7.649c0-1.657-1.343-3-3-3H6c-1.105,0-2,0.895-2,2v2.906"/>
		<path fill="none" stroke="#323232" stroke-width="1.5" stroke-linecap="round" stroke-linejoin="round" d="M7.5,22
			C4.463,22,2,19.537,2,16.5S4.463,11,7.5,11c3.038,0,5.5,2.463,5.5,5.5S10.538,22,7.5,22"/>
		<path fill="none" stroke="#323232" stroke-width="1.5" stroke-linecap="round" stroke-linejoin="round" d="M7.5,14.307v4.387"/>
		<path fill="none" stroke="#323232" stroke-width="1.5" stroke-linecap="round" stroke-linejoin="round" d="M9.693,16.5H5.307"/>
	</g>
</g>
</svg>
