<svg id="Layer_3" data-name="Layer 3" xmlns="http://www.w3.org/2000/svg" viewBox="0 0 24 24"><title>Warehouse-package-box</title><path d="M0,0H24V24H0Z" fill="none"/><path d="M10,8h4" fill="none" stroke="#323232" stroke-linecap="round" stroke-linejoin="round" stroke-width="1.5"/><path d="M6,21H3V7.889A2,2,0,0,1,4.028,6.141l7-3.889a2,2,0,0,1,1.943,0l7,3.889A2,2,0,0,1,21,7.889V21H18V12H6Z" fill="none" stroke="#323232" stroke-linecap="round" stroke-linejoin="round" stroke-width="1.5"/><path d="M12,15v2.762" fill="none" stroke="#323232" stroke-linecap="round" stroke-linejoin="round" stroke-width="1.5"/><path d="M9.857,21h4.286A.857.857,0,0,0,15,20.143V17.087a2.56,2.56,0,0,0-.207-1.01l-.238-.557a.857.857,0,0,0-.788-.52H10.232a.858.858,0,0,0-.788.52l-.237.556A2.56,2.56,0,0,0,9,17.086v3.057A.857.857,0,0,0,9.857,21Z" fill="none" stroke="#323232" stroke-linecap="round" stroke-linejoin="round" stroke-width="1.5"/><path d="M15,18.429a.666.666,0,0,0-.667-.667H9.667A.666.666,0,0,0,9,18.429" fill="none" stroke="#323232" stroke-linecap="round" stroke-linejoin="round" stroke-width="1.5"/></svg>