<?xml version="1.0" encoding="utf-8"?>
<!-- Generator: Adobe Illustrator 24.0.2, SVG Export Plug-In . SVG Version: 6.00 Build 0)  -->
<svg version="1.1" id="Layer_3" xmlns="http://www.w3.org/2000/svg" xmlns:xlink="http://www.w3.org/1999/xlink" x="0px" y="0px"
	 width="24px" height="24px" viewBox="0 0 24 24" enable-background="new 0 0 24 24" xml:space="preserve">
<g>
	<g>
		<path fill="none" d="M0,0h24v24H0V0z"/>
	</g>
	<g>
		
			<line fill="none" stroke="#323232" stroke-width="1.5" stroke-linecap="round" stroke-linejoin="round" x1="21" y1="21" x2="18" y2="21"/>
		
			<line fill="none" stroke="#323232" stroke-width="1.5" stroke-linecap="round" stroke-linejoin="round" x1="3" y1="21" x2="6" y2="21"/>
		<path fill="none" stroke="#323232" stroke-width="1.5" stroke-linecap="round" stroke-linejoin="round" d="M18,21v-9H6v9"/>
		<path fill="none" stroke="#323232" stroke-width="1.5" stroke-linecap="round" stroke-linejoin="round" d="M10,8h4"/>
		<path fill="none" stroke="#323232" stroke-width="1.5" stroke-linecap="round" stroke-linejoin="round" d="M21,21V8
			c0-0.726-0.394-1.396-1.029-1.748l-7-3.889c-0.604-0.336-1.339-0.336-1.943,0l-7,3.889C3.394,6.604,3,7.274,3,8v13"/>
		<path fill="none" stroke="#323232" stroke-width="1.5" stroke-linecap="round" stroke-linejoin="round" d="M14.333,21h-1.667
			C12.298,21,12,20.702,12,20.333v-1.667C12,18.298,12.298,18,12.667,18h1.667C14.702,18,15,18.298,15,18.667v1.667
			C15,20.702,14.702,21,14.333,21z"/>
		<path fill="none" stroke="#323232" stroke-width="1.5" stroke-linecap="round" stroke-linejoin="round" d="M11.333,21H9.667
			C9.298,21,9,20.702,9,20.333v-1.667C9,18.298,9.298,18,9.667,18h1.667C11.702,18,12,18.298,12,18.667v1.667
			C12,20.702,11.702,21,11.333,21z"/>
		<path fill="none" stroke="#323232" stroke-width="1.5" stroke-linecap="round" stroke-linejoin="round" d="M12.833,18h-1.667
			c-0.368,0-0.667-0.298-0.667-0.667v-1.667c0-0.368,0.298-0.667,0.667-0.667h1.667c0.368,0,0.667,0.298,0.667,0.667v1.667
			C13.5,17.702,13.202,18,12.833,18z"/>
	</g>
</g>
</svg>
