<svg id="Layer_3" data-name="Layer 3" xmlns="http://www.w3.org/2000/svg" viewBox="0 0 24 24"><title>warehouse-delivery-package-box</title><path d="M12,14v3" fill="none" stroke="#323232" stroke-linecap="round" stroke-linejoin="round" stroke-width="1.5"/><path d="M15.5,17.778A.778.778,0,0,0,14.722,17H9.278a.778.778,0,0,0-.778.778" fill="none" stroke="#323232" stroke-linecap="round" stroke-linejoin="round" stroke-width="1.5"/><path d="M9.5,21h5a1,1,0,0,0,1-1V16.435a3.007,3.007,0,0,0-.241-1.179l-.278-.649A1,1,0,0,0,14.062,14H9.938a1,1,0,0,0-.92.607l-.277.648A3.007,3.007,0,0,0,8.5,16.434V20A1,1,0,0,0,9.5,21Z" fill="none" stroke="#323232" stroke-linecap="round" stroke-linejoin="round" stroke-width="1.5"/><path d="M6,21H4a1,1,0,0,1-1-1V8.888A2,2,0,0,1,4.028,7.141l7-3.889a2,2,0,0,1,1.943,0l7,3.889A2,2,0,0,1,21,8.889V20a1,1,0,0,1-1,1H18" fill="none" stroke="#323232" stroke-linecap="round" stroke-linejoin="round" stroke-width="1.5"/><path d="M10.624,9h2.752" fill="none" stroke="#323232" stroke-linecap="round" stroke-linejoin="round" stroke-width="1.5"/><path d="M0,0H24V24H0Z" fill="none"/></svg>