<svg id="Layer_3" data-name="Layer 3" xmlns="http://www.w3.org/2000/svg" viewBox="0 0 24 24"><title>Artboard 353</title><path d="M0,0H24V24H0Z" fill="none"/><path d="M18.5,16.632l2.5,2.5" fill="none" stroke="#323232" stroke-linecap="round" stroke-linejoin="round" stroke-width="1.5"/><path d="M21,16.632l-2.5,2.5" fill="none" stroke="#323232" stroke-linecap="round" stroke-linejoin="round" stroke-width="1.5"/><path d="M12.5,12.067V9" fill="none" stroke="#323232" stroke-linecap="round" stroke-linejoin="round" stroke-width="1.5"/><path d="M12.5,15.676a.16.16,0,0,0-.16.162A.163.163,0,0,0,12.5,16a.162.162,0,0,0,0-.324" fill="none" stroke="#323232" stroke-linecap="round" stroke-linejoin="round" stroke-width="1.5"/><path d="M20.546,13.518,15.819,5.4a3.845,3.845,0,0,0-6.638,0l-5.7,9.778A3.542,3.542,0,0,0,6.563,20.5h8.973" fill="none" stroke="#323232" stroke-linecap="round" stroke-linejoin="round" stroke-width="1.5"/></svg>