<?xml version="1.0" encoding="utf-8"?>
<!-- Generator: Adobe Illustrator 23.1.0, SVG Export Plug-In . SVG Version: 6.00 Build 0)  -->
<svg version="1.1" id="icons" xmlns="http://www.w3.org/2000/svg" xmlns:xlink="http://www.w3.org/1999/xlink" x="0px" y="0px"
	 width="24px" height="24px" viewBox="0 0 24 24" enable-background="new 0 0 24 24" xml:space="preserve">
<g>
	<g>
		<path fill="none" stroke="#323232" stroke-width="1.5" stroke-linecap="round" stroke-linejoin="round" d="M12,5.229L12,5.229
			c3.74,0,6.771,3.031,6.771,6.771l0,0c0,3.74-3.031,6.771-6.771,6.771l0,0c-3.74,0-6.771-3.031-6.771-6.771l0,0
			C5.229,8.26,8.26,5.229,12,5.229z"/>
		<path fill="none" stroke="#323232" stroke-width="1.5" stroke-linecap="round" stroke-linejoin="round" d="M12,12.376V8.615"/>
		<path fill="none" stroke="#323232" stroke-width="1.5" stroke-linecap="round" stroke-linejoin="round" d="M11.999,15.047
			c-0.083,0-0.15,0.067-0.149,0.15c0,0.083,0.067,0.15,0.15,0.15c0.083,0,0.15-0.067,0.15-0.15
			C12.15,15.115,12.083,15.047,11.999,15.047"/>
		<path fill="none" stroke="#323232" stroke-width="1.5" stroke-linecap="round" stroke-linejoin="round" d="M20.326,5.757
			c2.778,3.692,2.778,8.793,0,12.485"/>
		<path fill="none" stroke="#323232" stroke-width="1.5" stroke-linecap="round" stroke-linejoin="round" d="M3.667,18.243
			c-2.778-3.692-2.778-8.793,0-12.485"/>
	</g>
	<path fill="none" d="M0,0h24v24H0V0z"/>
</g>
</svg>
