<svg id="Layer_3" data-name="Layer 3" xmlns="http://www.w3.org/2000/svg" viewBox="0 0 24 24"><title>warning-dashboard</title><path id="a" d="M13.743,7.662l3.046,5.414a2,2,0,0,1-1.743,2.981H8.955a2,2,0,0,1-1.743-2.981l3.046-5.414A2,2,0,0,1,13.743,7.662Z" fill="none" stroke="#323232" stroke-linecap="round" stroke-linejoin="round" stroke-width="1.5"/><path id="a-2" data-name="a" d="M13.743,7.662l3.046,5.414a2,2,0,0,1-1.743,2.981H8.955a2,2,0,0,1-1.743-2.981l3.046-5.414A2,2,0,0,1,13.743,7.662Z" fill="none" stroke="#323232" stroke-linecap="round" stroke-linejoin="round" stroke-width="1.5"/><path d="M12,11.477V9.642" fill="none" stroke="#323232" stroke-linecap="round" stroke-linejoin="round" stroke-width="1.5"/><path d="M12,21h0a9,9,0,0,1-9-9H3a9,9,0,0,1,9-9h0a9,9,0,0,1,9,9h0A9,9,0,0,1,12,21Z" fill="none" stroke="#323232" stroke-linecap="round" stroke-linejoin="round" stroke-width="1.5"/><path d="M12,13.5a.091.091,0,0,0,0,.182.091.091,0,1,0,0-.182" fill="none" stroke="#323232" stroke-linecap="round" stroke-linejoin="round" stroke-width="1.5"/><path d="M0,0H24V24H0Z" fill="none"/></svg>