<?xml version="1.0" encoding="utf-8"?>
<!-- Generator: Adobe Illustrator 24.0.2, SVG Export Plug-In . SVG Version: 6.00 Build 0)  -->
<svg version="1.1" id="Layer_3" xmlns="http://www.w3.org/2000/svg" xmlns:xlink="http://www.w3.org/1999/xlink" x="0px" y="0px"
	 width="24px" height="24px" viewBox="0 0 24 24" enable-background="new 0 0 24 24" xml:space="preserve">
<g>
	<g>
		<g>
			<g>
				<path fill="none" stroke="#333232" stroke-width="1.5" stroke-linecap="round" stroke-linejoin="round" d="M8.894,18.574
					l-5.43-9.652c-1.337-2.376,0.38-5.314,3.107-5.314h10.858c2.728,0,4.444,2.936,3.107,5.314l-5.43,9.652
					C13.746,20.998,10.257,20.998,8.894,18.574z"/>
			</g>
		</g>
		<path fill="none" stroke="#333232" stroke-width="1.5" stroke-linecap="round" stroke-linejoin="round" d="M11.999,11.021V7.75"/>
		<path fill="none" stroke="#333232" stroke-width="1.5" stroke-linecap="round" stroke-linejoin="round" d="M11.997,14.63
			c-0.089,0-0.162,0.073-0.16,0.162c0,0.089,0.073,0.162,0.162,0.162s0.16-0.073,0.16-0.162S12.088,14.63,11.997,14.63"/>
	</g>
	<path fill="none" d="M0,0h24v24H0V0z"/>
</g>
</svg>
