<?xml version="1.0" encoding="utf-8"?>
<!-- Generator: Adobe Illustrator 24.0.2, SVG Export Plug-In . SVG Version: 6.00 Build 0)  -->
<svg version="1.1" id="Layer_1" xmlns="http://www.w3.org/2000/svg" xmlns:xlink="http://www.w3.org/1999/xlink" x="0px" y="0px"
	 width="24px" height="24px" viewBox="0 0 24 24" style="enable-background:new 0 0 24 24;" xml:space="preserve">
<style type="text/css">
	.st0{fill:none;}
	.st1{fill:none;stroke:#323232;stroke-width:1.5;stroke-linecap:round;stroke-linejoin:round;}
</style>
<g>
	<path class="st0" d="M24,0v24H0V0H24z"/>
	<g>
		<path class="st1" d="M5.3,14l-1.5,1.5C2.3,12.2,3,8.3,5.6,5.6C8.9,2.4,14,2.1,17.5,4.9"/>
		<path class="st1" d="M6.5,19.1c3.5,2.7,8.6,2.5,11.9-0.7c2.7-2.7,3.3-6.6,1.9-9.9L18.7,10"/>
		<path class="st1" d="M10.4,12l-1.2,1.7C9,13.9,9,14.1,9,14.3v1.2C9,15.8,9.2,16,9.5,16h5.1c0.3,0,0.5-0.2,0.5-0.5v-1.2
			c0-0.2-0.1-0.4-0.2-0.6L13.5,12c0,0,1.3-1.7,1.3-1.7C15,10.1,15,9.9,15,9.7V8.5C15,8.2,14.8,8,14.5,8H9.5C9.2,8,9,8.2,9,8.5v1.2
			c0,0.2,0.1,0.4,0.2,0.6L10.4,12z"/>
	</g>
</g>
</svg>
