<?xml version="1.0" encoding="utf-8"?>
<!-- Generator: Adobe Illustrator 24.0.2, SVG Export Plug-In . SVG Version: 6.00 Build 0)  -->
<svg version="1.1" id="Layer_1" xmlns="http://www.w3.org/2000/svg" xmlns:xlink="http://www.w3.org/1999/xlink" x="0px" y="0px"
	 width="24px" height="24px" viewBox="0 0 24 24" style="enable-background:new 0 0 24 24;" xml:space="preserve">
<style type="text/css">
	.st0{fill:none;stroke:#323232;stroke-width:1.5;stroke-linecap:round;stroke-linejoin:round;}
	.st1{fill:none;}
</style>
<g>
	<g>
		<path class="st0" d="M20.3,7.7c0.1,0.1,0.1,0.4,0,0.5c-0.1,0.1-0.4,0.1-0.5,0c-0.1-0.1-0.1-0.4,0-0.5S20.1,7.6,20.3,7.7"/>
		<path class="st0" d="M17,4.5c-1.5-1-3.3-1.5-5-1.5v0c-5,0-9,4-9,9"/>
		<path class="st0" d="M4.3,15.7c0.1,0.1,0.1,0.4,0,0.5c-0.1,0.1-0.4,0.1-0.5,0s-0.1-0.4,0-0.5S4.1,15.6,4.3,15.7"/>
		<path class="st0" d="M7,19.5c1.5,1,3.3,1.5,5,1.5v0c5,0,9-4,9-9"/>
		<path class="st0" d="M10.4,12l-1.2,1.7C9,13.9,9,14.1,9,14.3v1.2C9,15.8,9.2,16,9.5,16h5.1c0.3,0,0.5-0.2,0.5-0.5v-1.2
			c0-0.2-0.1-0.4-0.2-0.6L13.5,12l1.3-1.7C15,10.1,15,9.9,15,9.7V8.5C15,8.2,14.8,8,14.5,8H9.5C9.2,8,9,8.2,9,8.5v1.2
			c0,0.2,0.1,0.4,0.2,0.6L10.4,12z"/>
	</g>
	<path class="st1" d="M0,0h24v24H0V0z"/>
</g>
</svg>
