<?xml version="1.0" encoding="UTF-8"?><svg version="1.1" viewBox="0 0 24 24" xmlns="http://www.w3.org/2000/svg" xmlns:xlink="http://www.w3.org/1999/xlink"><!--Generated by IJSVG (https://github.com/iconjar/IJSVG)--><g stroke-linecap="round" stroke-width="1.5" stroke="#323232" fill="none" stroke-linejoin="round"><path d="M5.16,6.16c0.461,-0.54 0.986,-1.021 1.562,-1.438"></path><path d="M17,19.482c-1.43,0.958 -3.149,1.518 -5,1.518c-0.912,0 -1.791,-0.138 -2.62,-0.39"></path><path d="M3.523,9c-0.333,0.94 -0.523,1.946 -0.523,3"></path><path d="M13.521,12l1.306,1.684c0.136,0.175 0.21,0.391 0.21,0.613v1.203c0,0.276 -0.224,0.5 -0.5,0.5h-5.074c-0.276,0 -0.5,-0.224 -0.5,-0.5v-1.221c0,-0.21 0.066,-0.416 0.19,-0.586l1.225,-1.693l-1.225,-1.692c-0.123,-0.171 -0.19,-0.376 -0.19,-0.586v-1.222c0,-0.276 0.224,-0.5 0.5,-0.5h5.074c0.276,0 0.5,0.224 0.5,0.5v1.203c0,0.222 -0.074,0.438 -0.21,0.613l-1.306,1.684Z"></path><path d="M9.38,3.39c0.829,-0.252 1.708,-0.39 2.62,-0.39c4.971,0 9,4.029 9,9c0,1.855 -0.573,3.569 -1.537,5"></path><path d="M6.722,19.279c-1.46,-1.06 -2.582,-2.549 -3.197,-4.279"></path></g><path fill="none" d="M0,0h24v24h-24v-24Z"></path></svg>