<svg id="Layer_3" data-name="Layer 3" xmlns="http://www.w3.org/2000/svg" viewBox="0 0 24 24"><title>water-bottle-shaker</title><path d="M3.6,16.061l4.34,4.34a2.045,2.045,0,0,0,2.893,0l1.916-1.916a1.025,1.025,0,0,0,.294-.611l.051-.457a1.022,1.022,0,0,1,.9-.9h0a1.023,1.023,0,0,0,.9-.9h0a1.023,1.023,0,0,1,.9-.9l.457-.051a1.024,1.024,0,0,0,.61-.293l.47-.47a2.045,2.045,0,0,0,0-2.893L13,6.658a2.045,2.045,0,0,0-2.893,0l-.47.47a1.024,1.024,0,0,0-.293.61L9.3,8.2a1.023,1.023,0,0,1-.9.9h0a1.023,1.023,0,0,0-.9.9h0a1.022,1.022,0,0,1-.9.9l-.457.051a1.025,1.025,0,0,0-.611.294L3.6,13.168A2.045,2.045,0,0,0,3.6,16.061Z" fill="none" stroke="#323232" stroke-linecap="round" stroke-linejoin="round" stroke-width="1.5"/><path d="M17.616,3.169h2.046a1.023,1.023,0,0,1,1.023,1.023V5.508a1.023,1.023,0,0,1-1.023,1.023H17.616a0,0,0,0,1,0,0V3.169A0,0,0,0,1,17.616,3.169Z" transform="translate(2.18 14.962) rotate(-45)" fill="none" stroke="#323232" stroke-linecap="round" stroke-linejoin="round" stroke-width="1.5"/><path d="M15.6,5.336h2.046A3.069,3.069,0,0,1,20.71,8.4v.023a1,1,0,0,1-1,1H13.527a1,1,0,0,1-1-1V8.4A3.069,3.069,0,0,1,15.6,5.336Z" transform="translate(10.087 -9.589) rotate(45)" fill="none" stroke="#323232" stroke-linecap="round" stroke-linejoin="round" stroke-width="1.5"/><rect width="24" height="24" fill="none"/></svg>