<svg id="Layer_3" data-name="Layer 3" xmlns="http://www.w3.org/2000/svg" viewBox="0 0 24 24"><title>watermelon</title><line x1="12.776" y1="12.776" x2="13.563" y2="13.563" fill="none" stroke="#323232" stroke-linecap="round" stroke-linejoin="round" stroke-width="1.5"/><line x1="10.207" y1="14.429" x2="10.207" y2="15.543" fill="none" stroke="#323232" stroke-linecap="round" stroke-linejoin="round" stroke-width="1.5"/><path d="M3.255,16.921a1.04,1.04,0,0,1,1.385-.089A8.67,8.67,0,0,0,16.832,4.64a1.04,1.04,0,0,1,.089-1.385l.447-.447a1.069,1.069,0,0,1,1.585.093A11.412,11.412,0,0,1,2.9,18.953a1.069,1.069,0,0,1-.093-1.585Z" fill="none" stroke="#323232" stroke-linecap="round" stroke-linejoin="round" stroke-width="1.5"/><line x1="16.921" y1="3.255" x2="3.255" y2="16.921" fill="none" stroke="#323232" stroke-linecap="round" stroke-linejoin="round" stroke-width="1.5"/><line x1="14.429" y1="10.207" x2="15.543" y2="10.207" fill="none" stroke="#323232" stroke-linecap="round" stroke-linejoin="round" stroke-width="1.5"/><rect width="24" height="24" fill="none"/></svg>