<?xml version="1.0" encoding="utf-8"?>
<!-- Generator: Adobe Illustrator 24.0.2, SVG Export Plug-In . SVG Version: 6.00 Build 0)  -->
<svg version="1.1" id="Layer_1" xmlns="http://www.w3.org/2000/svg" xmlns:xlink="http://www.w3.org/1999/xlink" x="0px" y="0px"
	 width="24px" height="24px" viewBox="0 0 24 24" enable-background="new 0 0 24 24" xml:space="preserve">
<g>
	<g>
		
			<line fill="none" stroke="#323232" stroke-width="1.5" stroke-linecap="round" stroke-linejoin="round" stroke-miterlimit="10" x1="14" y1="17" x2="14.5" y2="21"/>
		<path fill="none" stroke="#323232" stroke-width="1.5" stroke-linecap="round" stroke-linejoin="round" d="M16,17H8
			c-2.761,0-5-2.239-5-5v0c0-2.761,2.239-5,5-5h8c2.761,0,5,2.239,5,5v0C21,14.761,18.761,17,16,17z"/>
		
			<line fill="none" stroke="#323232" stroke-width="1.5" stroke-linecap="round" stroke-linejoin="round" x1="12" y1="2" x2="12" y2="4"/>
		
			<line fill="none" stroke="#323232" stroke-width="1.5" stroke-linecap="round" stroke-linejoin="round" x1="16" y1="3" x2="15" y2="4"/>
		
			<line fill="none" stroke="#323232" stroke-width="1.5" stroke-linecap="round" stroke-linejoin="round" x1="8" y1="3" x2="9" y2="4"/>
		<circle fill="none" stroke="#323232" stroke-width="1.5" stroke-linecap="round" stroke-linejoin="round" cx="12" cy="12" r="2"/>
		
			<line fill="none" stroke="#323232" stroke-width="1.5" stroke-linecap="round" stroke-linejoin="round" stroke-miterlimit="10" x1="10" y1="17" x2="9.5" y2="21"/>
		
			<line fill="none" stroke="#323232" stroke-width="1.5" stroke-linecap="round" stroke-linejoin="round" stroke-miterlimit="10" x1="8.143" y1="21" x2="15.857" y2="21"/>
	</g>
	<rect y="0" fill="none" width="24" height="24"/>
</g>
</svg>
