<svg id="Layer_3" data-name="Layer 3" xmlns="http://www.w3.org/2000/svg" viewBox="0 0 24 24"><title>weight-diet</title><path d="M0,0H24V24H0Z" fill="none"/><path d="M3,8v8a5,5,0,0,0,5,5h8a5,5,0,0,0,5-5V8a5,5,0,0,0-5-5H8A5,5,0,0,0,3,8Z" fill="none" stroke="#323232" stroke-linecap="round" stroke-linejoin="round" stroke-width="1.5"/><path d="M14.36,12H9.64a2,2,0,0,1-1.962-1.608l-.2-1A2,2,0,0,1,9.44,7h5.12a2,2,0,0,1,1.962,2.392l-.2,1A2,2,0,0,1,14.36,12Z" fill="none" stroke="#323232" stroke-linecap="round" stroke-linejoin="round" stroke-width="1.5"/><path d="M11,12l1-2" fill="none" stroke="#323232" stroke-linecap="round" stroke-linejoin="round" stroke-width="1.5"/></svg>