<svg id="Layer_3" data-name="Layer 3" xmlns="http://www.w3.org/2000/svg" viewBox="0 0 24 24"><path d="M19,21H5a2,2,0,0,1-2-2V5A2,2,0,0,1,5,3H19a2,2,0,0,1,2,2V19A2,2,0,0,1,19,21Z" fill="none" stroke="#323232" stroke-linecap="round" stroke-linejoin="round" stroke-width="1.5"/><rect x="5.57143" y="12" width="12.85714" height="6.42857" rx="1" stroke-width="1.5" stroke="#323232" stroke-linecap="round" stroke-linejoin="round" fill="none"/><line x1="21" y1="9" x2="3" y2="9" fill="none" stroke="#323232" stroke-linecap="round" stroke-linejoin="round" stroke-width="1.5"/><path d="M14.55006,6.00006A.05.05,0,1,1,14.5,5.95a.05.05,0,0,1,.05006.05006" fill="none" stroke="#323232" stroke-linecap="round" stroke-linejoin="round" stroke-width="1.5"/><path d="M17.55006,6.00006A.05.05,0,1,1,17.5,5.95a.05.05,0,0,1,.05006.05006" fill="none" stroke="#323232" stroke-linecap="round" stroke-linejoin="round" stroke-width="1.5"/><path d="M9.55006,6.00006A.05.05,0,1,1,9.5,5.95a.05.05,0,0,1,.05006.05006" fill="none" stroke="#323232" stroke-linecap="round" stroke-linejoin="round" stroke-width="1.5"/><path d="M6.55006,6.00006A.05.05,0,1,1,6.5,5.95a.05.05,0,0,1,.05006.05006" fill="none" stroke="#323232" stroke-linecap="round" stroke-linejoin="round" stroke-width="1.5"/><rect width="24" height="24" fill="none"/></svg>