<?xml version="1.0" encoding="utf-8"?>
<!-- Generator: Adobe Illustrator 23.1.0, SVG Export Plug-In . SVG Version: 6.00 Build 0)  -->
<svg version="1.1" id="icons" xmlns="http://www.w3.org/2000/svg" xmlns:xlink="http://www.w3.org/1999/xlink" x="0px" y="0px"
	 width="24px" height="24px" viewBox="0 0 24 24" enable-background="new 0 0 24 24" xml:space="preserve">
<g>
	<rect fill="none" width="24" height="24"/>
	<g>
		<path fill="none" stroke="#323232" stroke-width="1.5" stroke-linecap="round" stroke-linejoin="round" d="M10.802,15.555
			L5.858,20.5c-0.651,0.651-1.707,0.651-2.358,0l0,0c-0.651-0.651-0.651-1.707,0-2.358l4.991-4.991"/>
		<path fill="none" stroke="#323232" stroke-width="1.5" stroke-linecap="round" stroke-linejoin="round" d="M18.994,12.525
			c2.367-2.361,2.597-5.96,0.514-8.037S13.818,2.639,11.451,5c-3.255,3.246-4.204,7.563-2.121,9.641S15.74,15.771,18.994,12.525z"/>
		<path fill="none" stroke="#323232" stroke-width="1.5" stroke-linecap="round" stroke-linejoin="round" d="M16.88,10.334
			c2.096-2.09,3.071-4.507,2.178-5.397s-3.315,0.082-5.411,2.173c-2.882,2.874-4.494,5.926-3.601,6.817
			C10.938,14.817,13.998,13.208,16.88,10.334z"/>
	</g>
</g>
</svg>
