<svg id="Layer_3" data-name="Layer 3" xmlns="http://www.w3.org/2000/svg" viewBox="0 0 24 24"><path d="M0,24H24V0H0Z" fill="none"/><path d="M24,24H0V0H24Z" fill="none"/><path d="M0,0H24V24H0Z" fill="none"/><path d="M6.48639,10.34829a7.37673,7.37673,0,0,1,5-1.852,7.37673,7.37673,0,0,1,5,1.852" fill="none" stroke="#323232" stroke-linecap="round" stroke-linejoin="round" stroke-width="1.5"/><path d="M8.15339,12.38529a5.24583,5.24583,0,0,1,3.333-1.111,5.24583,5.24583,0,0,1,3.333,1.111" fill="none" stroke="#323232" stroke-linecap="round" stroke-linejoin="round" stroke-width="1.5"/><path d="M9.81939,14.49629a2.777,2.777,0,0,1,3.334,0" fill="none" stroke="#323232" stroke-linecap="round" stroke-linejoin="round" stroke-width="1.5"/><path d="M19.48639,17l-2.5,2.5-1.5-1.5" fill="none" stroke="#323232" stroke-linecap="round" stroke-linejoin="round" stroke-width="1.5"/><path d="M12.48639,20.938a8.15936,8.15936,0,0,1-1,.062,9,9,0,1,1,9-9h0a8.16134,8.16134,0,0,1-.062,1" fill="none" stroke="#323232" stroke-linecap="round" stroke-linejoin="round" stroke-width="1.5"/></svg>