<?xml version="1.0" encoding="utf-8"?>
<!-- Generator: Adobe Illustrator 23.1.0, SVG Export Plug-In . SVG Version: 6.00 Build 0)  -->
<svg version="1.1" id="icons" xmlns="http://www.w3.org/2000/svg" xmlns:xlink="http://www.w3.org/1999/xlink" x="0px" y="0px"
	 width="24px" height="24px" viewBox="0 0 24 24" enable-background="new 0 0 24 24" xml:space="preserve">
<g>
	<g>
		<path fill="none" stroke="#323232" stroke-width="1.5" stroke-linecap="round" stroke-linejoin="round" d="M1.594,7.804
			c5.747-5.072,15.065-5.072,20.812,0"/>
		<g>
			<g>
				<path fill="none" stroke="#323232" stroke-width="1.5" stroke-linecap="round" stroke-linejoin="round" d="M14.4,11.9
					c0-1.325-1.075-2.4-2.4-2.4s-2.4,1.075-2.4,2.4"/>
			</g>
			<path fill="none" stroke="#323232" stroke-width="1.5" stroke-linecap="round" stroke-linejoin="round" d="M14.4,11.9
				c0,0.96-0.594,1.48-1.187,1.88"/>
			<path fill="none" stroke="#323232" stroke-width="1.5" stroke-linecap="round" stroke-linejoin="round" d="M12,15.7
				c0-0.98,0.606-1.511,1.213-1.92"/>
			
				<line fill="none" stroke="#323232" stroke-width="1.5" stroke-linecap="round" stroke-linejoin="round" x1="12" y1="15.7" x2="12" y2="16"/>
		</g>
		<path fill="none" stroke="#323232" stroke-width="1.5" stroke-linecap="round" stroke-linejoin="round" d="M19.409,12
			c-0.729-0.668-1.546-1.197-2.409-1.621"/>
		<path fill="none" stroke="#323232" stroke-width="1.5" stroke-linecap="round" stroke-linejoin="round" d="M7,10.379
			C6.137,10.803,5.32,11.332,4.591,12"/>
		<path fill="none" stroke="#323232" stroke-width="1.5" stroke-linecap="round" stroke-linejoin="round" d="M16,15.463
			c0.142,0.116,0.288,0.225,0.42,0.358"/>
		<path fill="none" stroke="#323232" stroke-width="1.5" stroke-linecap="round" stroke-linejoin="round" d="M8,15.463
			c-0.142,0.116-0.288,0.225-0.421,0.358"/>
		<g>
			<g>
				
					<path id="Shape_3077_7_" fill="none" stroke="#323232" stroke-width="1.5" stroke-linecap="round" stroke-linejoin="round" stroke-miterlimit="10" d="
					M11.999,19.25c-0.138,0-0.25,0.112-0.249,0.25c0,0.138,0.112,0.25,0.25,0.25s0.25-0.112,0.25-0.25S12.138,19.25,11.999,19.25"/>
			</g>
		</g>
	</g>
	<rect y="0" fill="none" width="24" height="24"/>
</g>
</svg>
