<svg id="Layer_3" data-name="Layer 3" xmlns="http://www.w3.org/2000/svg" viewBox="0 0 24 24"><title>wifi-delete-cross-circle</title><path d="M0,0H24V24H0Z" fill="none"/><path d="M12,15.7a.294.294,0,1,1-.3.294A.3.3,0,0,1,12,15.7" fill="none" stroke="#323232" stroke-linecap="round" stroke-linejoin="round" stroke-width="1.5"/><path d="M16.875,10.373a7.972,7.972,0,0,0-9.75,0" fill="none" stroke="#323232" stroke-linecap="round" stroke-linejoin="round" stroke-width="1.5"/><path d="M9.157,13.212a4.654,4.654,0,0,1,5.687,0" fill="none" stroke="#323232" stroke-linecap="round" stroke-linejoin="round" stroke-width="1.5"/><path d="M13,20.938A8.16,8.16,0,0,1,12,21a9,9,0,1,1,9-9,8.16,8.16,0,0,1-.062,1" fill="none" stroke="#323232" stroke-linecap="round" stroke-linejoin="round" stroke-width="1.5"/><path d="M19.487,17.012l-2.475,2.475" fill="none" stroke="#323232" stroke-linecap="round" stroke-linejoin="round" stroke-width="1.5"/><path d="M17.013,17.012l2.475,2.475" fill="none" stroke="#323232" stroke-linecap="round" stroke-linejoin="round" stroke-width="1.5"/></svg>