<?xml version="1.0" encoding="utf-8"?>
<!-- Generator: Adobe Illustrator 23.1.0, SVG Export Plug-In . SVG Version: 6.00 Build 0)  -->
<svg version="1.1" id="icons" xmlns="http://www.w3.org/2000/svg" xmlns:xlink="http://www.w3.org/1999/xlink" x="0px" y="0px"
	 width="24px" height="24px" viewBox="0 0 24 24" enable-background="new 0 0 24 24" xml:space="preserve">
<g>
	<g>
		<path fill="none" stroke="#323232" stroke-width="1.5" stroke-linecap="round" stroke-linejoin="round" d="M5.398,5.898
			C3.914,7.503,3,9.642,3,12s0.914,4.497,2.398,6.102"/>
		<path fill="none" stroke="#323232" stroke-width="1.5" stroke-linecap="round" stroke-linejoin="round" d="M7.519,8.019
			C6.577,9.079,6,10.47,6,12s0.577,2.921,1.519,3.981"/>
		<path fill="none" stroke="#323232" stroke-width="1.5" stroke-linecap="round" stroke-linejoin="round" d="M12.406,9.041
			c1.329,0.182,2.372,1.224,2.553,2.553"/>
		<path fill="none" stroke="#323232" stroke-width="1.5" stroke-linecap="round" stroke-linejoin="round" d="M7.549,4.184
			C8.863,3.434,10.379,3,12,3c4.971,0,9,4.029,9,9c0,1.621-0.434,3.137-1.184,4.451"/>
		<path fill="none" stroke="#323232" stroke-width="1.5" stroke-linecap="round" stroke-linejoin="round" d="M17.575,14.21
			C17.846,13.525,18,12.781,18,12c0-3.314-2.686-6-6-6c-0.781,0-1.525,0.154-2.21,0.425"/>
		<path fill="none" stroke="#323232" stroke-width="1.5" stroke-linecap="round" stroke-linejoin="round" d="M9.654,10.154
			c-0.927,1.177-0.861,2.882,0.225,3.967s2.79,1.152,3.967,0.225"/>
		
			<line fill="none" stroke="#323232" stroke-width="1.5" stroke-linecap="round" stroke-linejoin="round" x1="20" y1="20.5" x2="3" y2="3.5"/>
	</g>
	<rect fill="none" width="24" height="24"/>
</g>
</svg>
