<?xml version="1.0" encoding="utf-8"?>
<!-- Generator: Adobe Illustrator 23.1.0, SVG Export Plug-In . SVG Version: 6.00 Build 0)  -->
<svg version="1.1" id="icons" xmlns="http://www.w3.org/2000/svg" xmlns:xlink="http://www.w3.org/1999/xlink" x="0px" y="0px"
	 width="24px" height="24px" viewBox="0 0 24 24" enable-background="new 0 0 24 24" xml:space="preserve">
<g>
	<g>
		<path fill="none" stroke="#323232" stroke-width="1.5" stroke-linecap="round" stroke-linejoin="round" d="M4.393,12.496
			c1.834-2.293,4.561-3.753,7.611-3.753s5.777,1.459,7.611,3.753"/>
		<path fill="none" stroke="#323232" stroke-width="1.5" stroke-linecap="round" stroke-linejoin="round" d="M7.538,15.845
			c1.019-1.453,2.632-2.407,4.466-2.407s3.447,0.954,4.466,2.407"/>
		<path fill="none" stroke="#323232" stroke-width="1.5" stroke-linecap="round" stroke-linejoin="round" d="M13.475,19.035
			l7.988-8.507c0.77-0.82,0.709-2.111-0.125-2.866C18.821,5.382,15.567,4,12.004,4C8.441,4,5.187,5.382,2.67,7.662
			c-0.834,0.755-0.895,2.046-0.125,2.866l7.988,8.508C11.342,19.896,12.666,19.896,13.475,19.035z"/>
	</g>
	<g>
		<path fill="none" d="M0,0h24v24H0V0z"/>
	</g>
</g>
</svg>
