<?xml version="1.0" encoding="utf-8"?>
<!-- Generator: Adobe Illustrator 24.0.2, SVG Export Plug-In . SVG Version: 6.00 Build 0)  -->
<svg version="1.1" id="Layer_3" xmlns="http://www.w3.org/2000/svg" xmlns:xlink="http://www.w3.org/1999/xlink" x="0px" y="0px"
	 width="24px" height="24px" viewBox="0 0 24 24" enable-background="new 0 0 24 24" xml:space="preserve">
<g transform="matrix(4.50198e-11,1,-1,4.50198e-11,24,-1.08048e-09)">
	<path id="a_16_" fill="none" d="M24,0v24H0L0,0L24,0z"/>
</g>
<g>
	<g transform="matrix(4.50198e-11,1,-1,4.50198e-11,24,-1.08048e-09)">
		<path id="a_15_" fill="none" d="M24,0v24H0L0,0L24,0z"/>
	</g>
	<g>
		<path fill="none" stroke="#323232" stroke-width="1.5" stroke-linecap="round" stroke-linejoin="round" d="M14,17H7"/>
		<path fill="none" stroke="#323232" stroke-width="1.5" stroke-linecap="round" stroke-linejoin="round" d="M7,13h10
			c2.209,0,4,1.791,4,4v0c0,2.209-1.791,4-4,4H7c-2.209,0-4-1.791-4-4v0C3,14.791,4.791,13,7,13z"/>
		<path fill="none" stroke="#323232" stroke-width="1.5" stroke-linecap="round" stroke-linejoin="round" d="M17,13V9"/>
		<path fill="none" stroke="#323232" stroke-width="1.5" stroke-linecap="round" stroke-linejoin="round" d="M16.965,17.035
			c-0.02-0.02-0.02-0.051,0-0.071c0.02-0.02,0.051-0.02,0.071,0c0.02,0.02,0.02,0.051,0,0.071
			C17.016,17.055,16.984,17.055,16.965,17.035"/>
		<g>
			<g>
				
					<path fill="none" stroke="#323232" stroke-width="1.5" stroke-linecap="round" stroke-linejoin="round" stroke-miterlimit="10" d="
					M17,3c-0.759,0.009-1.47,0.137-2.121,0.367c-1.665,0.588-2.924,1.847-3.513,3.513C11.137,7.53,11.009,8.241,11,9"/>
			</g>
		</g>
		
			<path fill="none" stroke="#323232" stroke-width="1.5" stroke-linecap="round" stroke-linejoin="round" stroke-miterlimit="10" d="
			M14,9c0.039-1.756,1.244-2.961,3-3"/>
	</g>
</g>
</svg>
