<svg id="Layer_3" data-name="Layer 3" xmlns="http://www.w3.org/2000/svg" viewBox="0 0 24 24"><path d="M7.818,12.54833a5.27666,5.27666,0,0,1,8.37208,0" fill="none" stroke="#323232" stroke-linecap="round" stroke-linejoin="round" stroke-width="1.5"/><path d="M9.54771,14.39027a2.94065,2.94065,0,0,1,4.91258,0" fill="none" stroke="#323232" stroke-linecap="round" stroke-linejoin="round" stroke-width="1.5"/><path d="M12.81305,16.14477l4.39339-4.67884a1.1054,1.1054,0,0,0-.06875-1.5763,7.54965,7.54965,0,0,0-10.26738,0,1.1054,1.1054,0,0,0-.06875,1.5763L11.195,16.14532A1.09951,1.09951,0,0,0,12.81305,16.14477Z" fill="none" stroke="#323232" stroke-linecap="round" stroke-linejoin="round" stroke-width="1.5"/><rect x="3" y="3" width="18" height="18" rx="5" stroke-width="1.5" stroke="#323232" stroke-linecap="round" stroke-linejoin="round" fill="none"/><path d="M0,0H24V24H0Z" fill="none"/></svg>