<svg id="Layer_3" data-name="Layer 3" xmlns="http://www.w3.org/2000/svg" viewBox="0 0 24 24"><title>WiFI-checkmark</title><path d="M0,0H24V24H0Z" fill="none"/><path d="M12,19.25a.375.375,0,1,0,.376.375A.372.372,0,0,0,12,19.25" fill="none" stroke="#323232" stroke-linecap="round" stroke-linejoin="round" stroke-width="1.5"/><path d="M1.594,7.8a16.135,16.135,0,0,1,20.812,0" fill="none" stroke="#323232" stroke-linecap="round" stroke-linejoin="round" stroke-width="1.5"/><path d="M7.579,15.821a6.276,6.276,0,0,1,8.841,0" fill="none" stroke="#323232" stroke-linecap="round" stroke-linejoin="round" stroke-width="1.5"/><path d="M19.408,12A10.319,10.319,0,0,0,17,10.361" fill="none" stroke="#323232" stroke-linecap="round" stroke-linejoin="round" stroke-width="1.5"/><path d="M7,10.361A10.324,10.324,0,0,0,4.591,12" fill="none" stroke="#323232" stroke-linecap="round" stroke-linejoin="round" stroke-width="1.5"/><path d="M14.25,8l-2.5,2.5L10.25,9" fill="none" stroke="#323232" stroke-linecap="round" stroke-linejoin="round" stroke-width="1.5"/></svg>