<svg id="Layer_3" data-name="Layer 3" xmlns="http://www.w3.org/2000/svg" viewBox="0 0 24 24"><title>window-item-more-info</title><rect width="24" height="24" fill="none"/><line x1="6.75" y1="17.5" x2="10" y2="17.5" fill="none" stroke="#323232" stroke-linecap="round" stroke-linejoin="round" stroke-width="1.5"/><line x1="6.75" y1="14.5" x2="11" y2="14.5" fill="none" stroke="#323232" stroke-linecap="round" stroke-linejoin="round" stroke-width="1.5"/><line x1="6.75" y1="11.5" x2="13" y2="11.5" fill="none" stroke="#323232" stroke-linecap="round" stroke-linejoin="round" stroke-width="1.5"/><path d="M14.672,21H6a3,3,0,0,1-3-3V6A3,3,0,0,1,6,3H18a3,3,0,0,1,3,3v8.673" fill="none" stroke="#323232" stroke-linecap="round" stroke-linejoin="round" stroke-width="1.5"/><line x1="21" y1="8" x2="3" y2="8" fill="none" stroke="#323232" stroke-linecap="round" stroke-linejoin="round" stroke-width="1.5"/><line x1="17.5" y1="17.875" x2="17.5" y2="19.443" fill="none" stroke="#323232" stroke-linecap="round" stroke-linejoin="round" stroke-width="1.5"/><circle cx="17.5" cy="17.5" r="4.5" fill="none" stroke="#323232" stroke-linecap="round" stroke-linejoin="round" stroke-width="1.5"/><path d="M17.485,15.51a.037.037,0,0,0-.037.037.037.037,0,1,0,.037-.037" fill="none" stroke="#323232" stroke-linecap="round" stroke-linejoin="round" stroke-width="1.5"/></svg>