<svg id="Layer_3" data-name="Layer 3" xmlns="http://www.w3.org/2000/svg" viewBox="0 0 24 24"><title>window-item-more-dots</title><path d="M15.169,21H6a3,3,0,0,1-3-3V6A3,3,0,0,1,6,3H18a3,3,0,0,1,3,3v8.153" fill="none" stroke="#323232" stroke-linecap="round" stroke-linejoin="round" stroke-width="1.5"/><line x1="21" y1="8" x2="3" y2="8" fill="none" stroke="#323232" stroke-linecap="round" stroke-linejoin="round" stroke-width="1.5"/><line x1="6.75" y1="17.5" x2="10" y2="17.5" fill="none" stroke="#323232" stroke-linecap="round" stroke-linejoin="round" stroke-width="1.5"/><line x1="6.75" y1="14.5" x2="11" y2="14.5" fill="none" stroke="#323232" stroke-linecap="round" stroke-linejoin="round" stroke-width="1.5"/><line x1="6.75" y1="11.5" x2="13" y2="11.5" fill="none" stroke="#323232" stroke-linecap="round" stroke-linejoin="round" stroke-width="1.5"/><path d="M18,13a4.5,4.5,0,1,1-4.5,4.5A4.5,4.5,0,0,1,18,13" fill="none" stroke="#323232" stroke-linecap="round" stroke-linejoin="round" stroke-width="1.5"/><path d="M19.222,17.45a.05.05,0,0,0,0,.1.05.05,0,0,0,0-.1" fill="none" stroke="#323232" stroke-linecap="round" stroke-linejoin="round" stroke-width="1.5"/><path d="M16.777,17.45a.049.049,0,0,0-.049.05.05.05,0,0,0,.05.05.05.05,0,1,0,0-.1" fill="none" stroke="#323232" stroke-linecap="round" stroke-linejoin="round" stroke-width="1.5"/><rect width="24" height="24" fill="none"/></svg>