<svg id="Layer_3" data-name="Layer 3" xmlns="http://www.w3.org/2000/svg" viewBox="0 0 24 24"><title>Artboard 24</title><path d="M11.928,3a9,9,0,0,1,0,18" fill="none" stroke="#323232" stroke-linecap="round" stroke-linejoin="round" stroke-width="1.5"/><path d="M8.853,20.449a9,9,0,0,1-2.708-1.557" fill="none" stroke="#323232" stroke-linecap="round" stroke-linejoin="round" stroke-width="1.5"/><path d="M6.145,5.108A8.959,8.959,0,0,1,8.853,3.551" fill="none" stroke="#323232" stroke-linecap="round" stroke-linejoin="round" stroke-width="1.5"/><path d="M3.072,10.438A8.956,8.956,0,0,1,4.139,7.5" fill="none" stroke="#323232" stroke-linecap="round" stroke-linejoin="round" stroke-width="1.5"/><path d="M3.072,13.561A8.956,8.956,0,0,0,4.139,16.5" fill="none" stroke="#323232" stroke-linecap="round" stroke-linejoin="round" stroke-width="1.5"/><path d="M16,8.082a3,3,0,0,0-2.759-.455l-2.482.827A3,3,0,0,1,8,8" fill="none" stroke="#323232" stroke-linecap="round" stroke-linejoin="round" stroke-width="1.5"/><path d="M17,12.051a3.75,3.75,0,0,0-3.449-.568l-3.1,1.034A3.749,3.749,0,0,1,7,11.949" fill="none" stroke="#323232" stroke-linecap="round" stroke-linejoin="round" stroke-width="1.5"/><path d="M16,16a3,3,0,0,0-2.759-.455l-2.482.827A3,3,0,0,1,8,15.918" fill="none" stroke="#323232" stroke-linecap="round" stroke-linejoin="round" stroke-width="1.5"/><path d="M24,24H0V0H24Z" fill="none"/></svg>