<svg id="Layer_3" data-name="Layer 3" xmlns="http://www.w3.org/2000/svg" viewBox="0 0 24 24"><title>window-scale-transform</title><path d="M17.49,3a2,2,0,0,1,1.883,1.327l1.549,4.337A1,1,0,0,1,19.98,10H4.02a1,1,0,0,1-.942-1.336L4.627,4.327A2,2,0,0,1,6.51,3Z" fill="none" stroke="#323232" stroke-linecap="round" stroke-linejoin="round" stroke-width="1.5" style="isolation:isolate"/><path d="M20.045,14a.955.955,0,0,1,.9,1.276l-1.592,4.457A1.909,1.909,0,0,1,17.554,21H6.446a1.909,1.909,0,0,1-1.8-1.267L3.056,15.276A.955.955,0,0,1,3.955,14Z" fill="none" stroke="#323232" stroke-linecap="round" stroke-linejoin="round" stroke-width="1.5"/><rect width="24" height="24" fill="none"/></svg>