<svg id="Layer_3" data-name="Layer 3" xmlns="http://www.w3.org/2000/svg" viewBox="0 0 24 24"><title>window-cleaning-brush</title><path d="M18.076,14.564h0a1.505,1.505,0,0,1,1.505,1.505v5.519a0,0,0,0,1,0,0h-3.01a0,0,0,0,1,0,0V16.069a1.505,1.505,0,0,1,1.505-1.505Z" transform="translate(43.639 18.076) rotate(135)" fill="none" stroke="#323232" stroke-linecap="round" stroke-linejoin="round" stroke-width="1.5"/><path d="M14,21H8a5,5,0,0,1-5-5V8A5,5,0,0,1,8,3h8a5,5,0,0,1,5,5v6" fill="none" stroke="#323232" stroke-linecap="round" stroke-linejoin="round" stroke-width="1.5"/><line x1="15.156" y1="10.354" x2="16.657" y2="14.528" fill="none" stroke="#323232" stroke-linecap="round" stroke-linejoin="round" stroke-width="1.5"/><line x1="10.354" y1="15.156" x2="14.528" y2="16.657" fill="none" stroke="#323232" stroke-linecap="round" stroke-linejoin="round" stroke-width="1.5"/><rect x="4.774" y="9.884" width="13.584" height="3.363" rx="1.028" transform="translate(-4.791 11.566) rotate(-45)" stroke-width="1.5" stroke="#323232" stroke-linecap="round" stroke-linejoin="round" fill="none"/><rect width="24" height="24" fill="none"/></svg>