<?xml version="1.0" encoding="utf-8"?>
<!-- Generator: Adobe Illustrator 24.0.2, SVG Export Plug-In . SVG Version: 6.00 Build 0)  -->
<svg version="1.1" id="Layer_3" xmlns="http://www.w3.org/2000/svg" xmlns:xlink="http://www.w3.org/1999/xlink" x="0px" y="0px"
	 width="24px" height="24px" viewBox="0 0 24 24" enable-background="new 0 0 24 24" xml:space="preserve">
<g>
	<rect id="_Transparent_Rectangle__49_" y="0" fill="none" width="24" height="24"/>
	<g>
		<path fill="none" stroke="#323232" stroke-width="1.5" stroke-linecap="round" stroke-linejoin="round" d="M20,12.5V18
			c0,1.657-1.343,3-3,3H6c-1.657,0-3-1.343-3-3V7c0-1.657,1.343-3,3-3h5.5"/>
		
			<line fill="none" stroke="#323232" stroke-width="1.5" stroke-linecap="round" stroke-linejoin="round" x1="20" y1="12.5" x2="3" y2="12.5"/>
		
			<line fill="none" stroke="#323232" stroke-width="1.5" stroke-linecap="round" stroke-linejoin="round" x1="11.5" y1="4" x2="11.5" y2="21"/>
		<g>
			<g>
				
					<path fill="none" stroke="#323232" stroke-width="1.5" stroke-linecap="round" stroke-linejoin="round" stroke-miterlimit="10" d="
					M20.775,3.45c-0.124,0-0.225-0.102-0.225-0.225C20.551,3.101,20.652,3,20.775,3S21,3.101,20.999,3.225
					C21,3.349,20.9,3.45,20.775,3.45"/>
				
					<path fill="none" stroke="#323232" stroke-width="1.5" stroke-linecap="round" stroke-linejoin="round" stroke-miterlimit="10" d="
					M21,6c-1.756-0.039-2.961-1.244-3-3"/>
				
					<path fill="none" stroke="#323232" stroke-width="1.5" stroke-linecap="round" stroke-linejoin="round" stroke-miterlimit="10" d="
					M15,3c0.009,0.759,0.137,1.47,0.367,2.121c0.588,1.665,1.847,2.924,3.513,3.513C19.53,8.863,20.241,8.991,21,9"/>
			</g>
		</g>
	</g>
</g>
</svg>
