<?xml version="1.0" encoding="utf-8"?>
<!-- Generator: Adobe Illustrator 23.1.0, SVG Export Plug-In . SVG Version: 6.00 Build 0)  -->
<svg version="1.1" id="icons" xmlns="http://www.w3.org/2000/svg" xmlns:xlink="http://www.w3.org/1999/xlink" x="0px" y="0px"
	 width="24px" height="24px" viewBox="0 0 24 24" enable-background="new 0 0 24 24" xml:space="preserve">
<g>
	<path fill="none" stroke="#323232" stroke-width="1.5" stroke-linecap="round" stroke-linejoin="round" d="M17.325,13.128
		l-6.509-6.515c-0.818-0.819-0.818-2.145,0-2.964l0,0c0.816-0.817,2.14-0.817,2.956,0l6.646,6.653c0.78,0.781,0.78,2.046,0,2.827
		l0,0C19.564,13.982,18.179,13.982,17.325,13.128z"/>
	<path fill="none" stroke="#323232" stroke-width="1.5" stroke-linecap="round" stroke-linejoin="round" d="M14.095,9.894
		l-1.815,1.817c-0.18,0.18-0.434,0.26-0.671,0.213L9.88,11.576c-0.445-0.09-0.769,0.412-0.506,0.781l2.131,2.984
		c0.288,0.404-0.124,0.936-0.587,0.757l-4.307-1.663c-0.467-0.18-0.88,0.362-0.582,0.764l2.61,3.518
		c0.273,0.368-0.051,0.878-0.5,0.788l-2.653-0.534c-0.238-0.048-0.491,0.033-0.671,0.213L3,21"/>
</g>
<g>
	<rect fill="none" width="24" height="24"/>
</g>
</svg>
