<?xml version="1.0" encoding="utf-8"?>
<!-- Generator: Adobe Illustrator 23.1.0, SVG Export Plug-In . SVG Version: 6.00 Build 0)  -->
<svg version="1.1" id="icons" xmlns="http://www.w3.org/2000/svg" xmlns:xlink="http://www.w3.org/1999/xlink" x="0px" y="0px"
	 width="24px" height="24px" viewBox="0 0 24 24" enable-background="new 0 0 24 24" xml:space="preserve">
<g>
	<g>
		<g transform="matrix(-1,-4.48305e-11,4.48305e-11,-1,24,24)">
			<path id="a_1_" fill="none" d="M0,0l24,0v24H0L0,0z"/>
		</g>
		<g transform="matrix(-1,-4.48305e-11,4.48305e-11,-1,24,24)">
			<path fill="none" d="M0,0l24,0v24H0L0,0z"/>
		</g>
		<g>
			<path fill="none" d="M24,24H0L0,0l24,0V24z"/>
		</g>
	</g>
	<g>
		<path fill="none" stroke="#323232" stroke-width="1.5" stroke-linecap="round" stroke-linejoin="round" d="M17,7
			c1.105,0,2,0.895,2,2"/>
		<path fill="none" stroke="#323232" stroke-width="1.5" stroke-linecap="round" stroke-linejoin="round" d="M13,12v-1
			c0-0.552,0.448-1,1-1h1c0.552,0,1,0.448,1,1v1c0,0.552-0.448,1-1,1h-1C13.448,13,13,12.552,13,12z"/>
		<path fill="none" stroke="#323232" stroke-width="1.5" stroke-linecap="round" stroke-linejoin="round" d="M18,4
			c2.21,0,4,1.79,4,4"/>
		<path fill="none" stroke="#323232" stroke-width="1.5" stroke-linecap="round" stroke-linejoin="round" d="M19,12v3
			c0,1.105-0.895,2-2,2H7c-1.105,0-2-0.895-2-2V9c0-1.105,0.895-2,2-2h7"/>
		<path fill="none" stroke="#323232" stroke-width="1.5" stroke-linecap="round" stroke-linejoin="round" d="M16,17v1
			c0,1.105-0.895,2-2,2H4c-1.105,0-2-0.895-2-2v-6c0-1.105,0.895-2,2-2h1"/>
	</g>
</g>
</svg>
