<?xml version="1.0" encoding="utf-8"?>
<!-- Generator: Adobe Illustrator 24.0.2, SVG Export Plug-In . SVG Version: 6.00 Build 0)  -->
<svg version="1.1" id="Layer_1" xmlns="http://www.w3.org/2000/svg" xmlns:xlink="http://www.w3.org/1999/xlink" x="0px" y="0px"
	 width="24px" height="24px" viewBox="0 0 24 24" enable-background="new 0 0 24 24" xml:space="preserve">
<g>
	<g>
		<path fill="none" d="M24,0v24H0V0H24z"/>
	</g>
	<g>
		<path fill="none" stroke="#323232" stroke-width="1.5" stroke-linecap="round" stroke-linejoin="round" d="M16.757,9
			c1.657,1.657,1.657,4.343,0,6"/>
		<path fill="none" stroke="#323232" stroke-width="1.5" stroke-linecap="round" stroke-linejoin="round" d="M14.379,10.5
			c0.828,0.828,0.828,2.172,0,3"/>
		<path fill="none" stroke="#323232" stroke-width="1.5" stroke-linecap="round" stroke-linejoin="round" d="M6,5
			c0-1.105,0.895-2,2-2h12c1.105,0,2,0.895,2,2v14c0,1.105-0.895,2-2,2H8c-1.105,0-2-0.895-2-2"/>
		<path fill="none" stroke="#323232" stroke-width="1.5" stroke-linecap="round" stroke-linejoin="round" d="M2,10.2v3.6
			c0,0.994,0.806,1.8,1.8,1.8h5.4c0.995,0,1.8-0.806,1.8-1.8v-3.6c0-0.995-0.806-1.8-1.8-1.8H3.8C2.806,8.4,2,9.205,2,10.2z"/>
		<path fill="none" stroke="#323232" stroke-width="1.5" stroke-linecap="round" stroke-linejoin="round" d="M11,11.1H2"/>
	</g>
</g>
</svg>
