<?xml version="1.0" encoding="utf-8"?>
<!-- Generator: Adobe Illustrator 24.0.2, SVG Export Plug-In . SVG Version: 6.00 Build 0)  -->
<svg version="1.1" id="Layer_3" xmlns="http://www.w3.org/2000/svg" xmlns:xlink="http://www.w3.org/1999/xlink" x="0px" y="0px"
	 width="24px" height="24px" viewBox="0 0 24 24" enable-background="new 0 0 24 24" xml:space="preserve">
<g>
	<g>
		
			<path fill-rule="evenodd" clip-rule="evenodd" fill="none" stroke="#323232" stroke-width="1.5" stroke-linecap="round" stroke-linejoin="round" stroke-miterlimit="10" d="
			M11,20c-4.971,0-9-4.029-9-9s4.029-9,9-9s9,4.029,9,9"/>
		<path fill="none" stroke="#323232" stroke-width="1.5" stroke-linecap="round" stroke-linejoin="round" d="M22,14h-1.258
			l-1.006,5.031h-5.031L14,15.509h6.44"/>
		<path fill="none" stroke="#323232" stroke-width="1.5" stroke-linecap="round" stroke-linejoin="round" d="M15.172,21.512
			c0.02-0.02,0.052-0.02,0.071,0s0.02,0.052,0,0.071s-0.052,0.02-0.071,0C15.152,21.563,15.152,21.531,15.172,21.512"/>
		<path fill="none" stroke="#323232" stroke-width="1.5" stroke-linecap="round" stroke-linejoin="round" d="M19.197,21.512
			c0.02-0.02,0.052-0.02,0.071,0s0.02,0.052,0,0.071s-0.052,0.02-0.071,0C19.177,21.563,19.177,21.531,19.197,21.512"/>
		
			<path fill="none" stroke="#323232" stroke-width="1.5" stroke-linecap="round" stroke-linejoin="round" stroke-miterlimit="10" d="
			M15,11c0-2.764-0.723-5.528-2.167-7.94c-0.847-1.413-2.819-1.413-3.665,0c-2.89,4.825-2.89,11.056,0,15.881
			C9.591,19.647,10.295,20,11,20"/>
		
			<line fill="none" stroke="#323232" stroke-width="1.5" stroke-linecap="round" stroke-linejoin="round" stroke-miterlimit="10" x1="2.513" y1="8" x2="19" y2="8"/>
		
			<line fill="none" stroke="#323232" stroke-width="1.5" stroke-linecap="round" stroke-linejoin="round" stroke-miterlimit="10" x1="2.514" y1="14" x2="11" y2="14"/>
	</g>
	<rect id="_Transparent_Rectangle__33_" y="0" fill="none" width="24" height="24"/>
</g>
</svg>
