<?xml version="1.0" encoding="utf-8"?>
<!-- Generator: Adobe Illustrator 24.0.2, SVG Export Plug-In . SVG Version: 6.00 Build 0)  -->
<svg version="1.1" id="Layer_3" xmlns="http://www.w3.org/2000/svg" xmlns:xlink="http://www.w3.org/1999/xlink" x="0px" y="0px"
	 width="24px" height="24px" viewBox="0 0 24 24" enable-background="new 0 0 24 24" xml:space="preserve">
<g>
	<g>
		<g>
			
				<path fill-rule="evenodd" clip-rule="evenodd" fill="none" stroke="#323232" stroke-width="1.5" stroke-linecap="round" stroke-linejoin="round" stroke-miterlimit="10" d="
				M11.5,20C6.806,20,3,16.194,3,11.5S6.806,3,11.5,3S20,6.806,20,11.5"/>
			
				<line fill="none" stroke="#323232" stroke-width="1.5" stroke-linecap="round" stroke-linejoin="round" stroke-miterlimit="10" x1="3.485" y1="8.667" x2="19.515" y2="8.667"/>
			
				<line fill="none" stroke="#323232" stroke-width="1.5" stroke-linecap="round" stroke-linejoin="round" stroke-miterlimit="10" x1="3.485" y1="14.333" x2="11.5" y2="14.333"/>
		</g>
		
			<path fill="none" stroke="#323232" stroke-width="1.5" stroke-linecap="round" stroke-linejoin="round" stroke-miterlimit="10" d="
			M15.278,11.5c0-2.61-0.682-5.221-2.047-7.499c-0.8-1.335-2.662-1.335-3.461,0C7.04,8.558,7.04,14.443,9.769,19
			C10.169,19.667,10.834,20,11.5,20"/>
		<path fill="none" stroke="#323232" stroke-width="1.5" stroke-linecap="round" stroke-linejoin="round" d="M19.723,17v-1.277
			C19.723,14.819,18.952,14,18,14s-1.723,0.771-1.723,1.723V17"/>
		<path fill="none" stroke="#323232" stroke-width="1.5" stroke-linecap="round" stroke-linejoin="round" d="M20.026,21h-4.052
			C15.436,21,15,20.564,15,20.026v-2.052C15,17.436,15.436,17,15.974,17h4.052C20.564,17,21,17.436,21,17.974v2.052
			C21,20.564,20.564,21,20.026,21z"/>
	</g>
	<rect id="_Transparent_Rectangle__38_" fill="none" width="24" height="24"/>
</g>
</svg>
