<?xml version="1.0" encoding="utf-8"?>
<!-- Generator: Adobe Illustrator 24.0.2, SVG Export Plug-In . SVG Version: 6.00 Build 0)  -->
<svg version="1.1" id="Layer_3" xmlns="http://www.w3.org/2000/svg" xmlns:xlink="http://www.w3.org/1999/xlink" x="0px" y="0px"
	 width="24px" height="24px" viewBox="0 0 24 24" enable-background="new 0 0 24 24" xml:space="preserve">
<g>
	<g>
		<g>
			<g>
				
					<path fill="none" stroke="#323232" stroke-width="1.5" stroke-linecap="round" stroke-linejoin="round" stroke-miterlimit="10" d="
					M11,21c-4.971,0-9-4.029-9-9s4.029-9,9-9s9,4.029,9,9"/>
				
					<line fill="none" stroke="#323232" stroke-width="1.5" stroke-linecap="round" stroke-linejoin="round" stroke-miterlimit="10" x1="2.513" y1="9" x2="19.487" y2="9"/>
				
					<line fill="none" stroke="#323232" stroke-width="1.5" stroke-linecap="round" stroke-linejoin="round" stroke-miterlimit="10" x1="2.514" y1="15" x2="12" y2="15"/>
			</g>
			
				<path fill="none" stroke="#323232" stroke-width="1.5" stroke-linecap="round" stroke-linejoin="round" stroke-miterlimit="10" d="
				M15,12c0-2.764-0.723-5.528-2.167-7.94c-0.847-1.413-2.819-1.413-3.665,0c-2.89,4.825-2.89,11.056,0,15.881
				c0.423,0.706,1.128,1.06,1.833,1.06"/>
		</g>
		<path fill="none" stroke="#323232" stroke-width="1.5" stroke-linecap="round" stroke-linejoin="round" d="M20.686,17.721
			l-2.267-1.587c-0.252-0.176-0.589-0.176-0.841,0l-2.266,1.586C15.116,17.857,15,18.082,15,18.32v2.946
			C15,21.672,15.328,22,15.733,22h4.533C20.672,22,21,21.672,21,21.267V18.32C20.998,18.082,20.882,17.858,20.686,17.721z"/>
	</g>
	<g transform="matrix(4.50198e-11,1,-1,4.50198e-11,24,-1.08048e-09)">
		<path id="b_4_" fill="none" d="M24,0v24H0L0,0L24,0z"/>
	</g>
</g>
</svg>
