<?xml version="1.0" encoding="utf-8"?>
<!-- Generator: Adobe Illustrator 24.0.2, SVG Export Plug-In . SVG Version: 6.00 Build 0)  -->
<svg version="1.1" id="Layer_1" xmlns="http://www.w3.org/2000/svg" xmlns:xlink="http://www.w3.org/1999/xlink" x="0px" y="0px"
	 width="24px" height="24px" viewBox="0 0 24 24" enable-background="new 0 0 24 24" xml:space="preserve">
<g>
	<g>
		<g>
			<path fill="none" d="M0,0h24v24H0V0z"/>
		</g>
	</g>
	<g>
		<g>
			<path fill="none" stroke="#323232" stroke-width="1.5" stroke-linecap="round" stroke-linejoin="round" d="M6,3h12
				c1.657,0,3,1.343,3,3v12c0,1.657-1.343,3-3,3H6c-1.657,0-3-1.343-3-3V6C3,4.343,4.343,3,6,3z"/>
		</g>
		<path fill="none" stroke="#323232" stroke-width="1.5" stroke-linecap="round" stroke-linejoin="round" d="M14,3v2.176
			c0,0.265,0.105,0.52,0.293,0.707l1.102,1.102c0.804,0.804,0.804,2.108,0,2.912l0,0c-0.804,0.804-2.108,0.804-2.912,0l-0.486-0.486
			l-0.486,0.486c-0.804,0.804-2.108,0.804-2.912,0l0,0c-0.804-0.804-0.804-2.108,0-2.912l1.102-1.102
			C9.89,5.695,9.995,5.441,9.995,5.176V3"/>
		<g>
			<g>
				<path fill="none" stroke="#323232" stroke-width="1.5" stroke-linecap="round" stroke-linejoin="round" d="M18,21H6
					c-1.657,0-3-1.343-3-3V6c0-1.657,1.343-3,3-3h12c1.657,0,3,1.343,3,3v12C21,19.657,19.657,21,18,21z"/>
			</g>
			<path fill="none" stroke="#323232" stroke-width="1.5" stroke-linecap="round" stroke-linejoin="round" d="M10,21v-2.176
				c0-0.265-0.105-0.52-0.293-0.707l-1.102-1.102c-0.804-0.804-0.804-2.108,0-2.912l0,0c0.804-0.804,2.108-0.804,2.912,0
				l0.486,0.486l0.486-0.486c0.804-0.804,2.108-0.804,2.912,0l0,0c0.804,0.804,0.804,2.108,0,2.912l-1.102,1.102
				c-0.188,0.188-0.293,0.442-0.293,0.707V21"/>
		</g>
	</g>
</g>
</svg>
