<?xml version="1.0" encoding="utf-8"?>
<!-- Generator: Adobe Illustrator 23.1.0, SVG Export Plug-In . SVG Version: 6.00 Build 0)  -->
<svg version="1.1" id="icons" xmlns="http://www.w3.org/2000/svg" xmlns:xlink="http://www.w3.org/1999/xlink" x="0px" y="0px"
	 width="24px" height="24px" viewBox="0 0 24 24" enable-background="new 0 0 24 24" xml:space="preserve">
<g>
	<rect fill="none" width="24" height="24"/>
	<g>
		
			<circle fill="none" stroke="#323232" stroke-width="1.5" stroke-linecap="round" stroke-linejoin="round" stroke-miterlimit="10" cx="12" cy="12" r="10"/>
		<path fill="none" stroke="#323232" stroke-width="1.5" stroke-linecap="round" stroke-linejoin="round" d="M17.75,8.624
			c-0.137-0.602-0.544-1.078-1.061-1.241C15.753,7.091,12,7.091,12,7.091s-3.751,0-4.688,0.292C6.796,7.544,6.389,8.019,6.25,8.624
			C6,9.717,6,12,6,12s0,2.283,0.25,3.376c0.137,0.602,0.544,1.078,1.061,1.241C8.249,16.909,12,16.909,12,16.909
			s3.753,0,4.688-0.292c0.515-0.161,0.922-0.636,1.061-1.241C18,14.283,18,12,18,12S18,9.717,17.75,8.624z"/>
		<path fill="none" stroke="#323232" stroke-width="1.5" stroke-linecap="round" stroke-linejoin="round" d="M10.577,14.273
			L14.514,12l-3.936-2.273V14.273z"/>
	</g>
</g>
</svg>
