<svg id="Layer_3" data-name="Layer 3" xmlns="http://www.w3.org/2000/svg" viewBox="0 0 24 24"><title>zoom-square</title><path d="M0,24V0H24V24Z" fill="none"/><path d="M7,8.5h4.75A2.25,2.25,0,0,1,14,10.75V15.5a0,0,0,0,1,0,0H9.25A2.25,2.25,0,0,1,7,13.25V8.5A0,0,0,0,1,7,8.5Z" fill="none" stroke="#323232" stroke-linecap="round" stroke-linejoin="round" stroke-width="1.5"/><path d="M16.2,14.9,14,13.249v-2.5L16.2,9.1a.5.5,0,0,1,.8.4v5A.5.5,0,0,1,16.2,14.9Z" fill="none" stroke="#323232" stroke-linecap="round" stroke-linejoin="round" stroke-width="1.5"/><path d="M17,21H7a4,4,0,0,1-4-4V7A4,4,0,0,1,7,3H17a4,4,0,0,1,4,4V17A4,4,0,0,1,17,21Z" fill="none" stroke="#323232" stroke-linecap="round" stroke-linejoin="round" stroke-width="1.5"/></svg>