<svg width="10" height="20" viewBox="0 0 10 20" fill="none" xmlns="http://www.w3.org/2000/svg">
<path d="M9.84723 10.3425L9.84677 10.343L7.12531 12.8591C6.92143 13.0476 6.59166 13.0469 6.38872 12.8575C6.1858 12.668 6.18658 12.3617 6.39046 12.1732L8.21765 10.4839H0.520833C0.233177 10.4839 0 10.2672 0 10C0 9.73276 0.233177 9.51613 0.520833 9.51613H8.21763L6.39049 7.82684C6.18661 7.63832 6.18583 7.33196 6.38875 7.14255C6.59169 6.95309 6.92148 6.95243 7.12533 7.1409L9.84679 9.65703L9.84726 9.65749C10.0512 9.84664 10.0506 10.154 9.84723 10.3425Z" fill="#BDBDBD"/>
</svg>
