<svg width="24" height="24" viewBox="0 0 24 24" fill="none" xmlns="http://www.w3.org/2000/svg">
<circle cx="12" cy="12" r="12" fill="#CAD2DE"/>
<path d="M17.1245 7.98234C16.5326 7.34886 15.7115 7 14.8125 7C13.5481 7 12.7476 7.71231 12.2987 8.30989C12.1823 8.46495 12.0832 8.62044 12 8.76675C11.9168 8.62044 11.8178 8.46495 11.7013 8.30989C11.2524 7.71231 10.4519 7 9.1875 7C8.28848 7 7.4674 7.34888 6.87551 7.98236C6.31095 8.58666 6 9.39598 6 10.2612C6 11.2031 6.38984 12.0791 7.22684 13.0181C7.97489 13.8573 9.05107 14.7223 10.2973 15.724C10.7616 16.0973 11.2418 16.4833 11.7531 16.9052L11.7684 16.9179C11.8347 16.9727 11.9174 17 12 17C12.0826 17 12.1653 16.9726 12.2316 16.9179L12.2469 16.9052C12.7582 16.4833 13.2384 16.0973 13.7028 15.724C14.9489 14.7224 16.0251 13.8573 16.7732 13.0181C17.6102 12.0791 18 11.2031 18 10.2612C18 9.39598 17.6891 8.58666 17.1245 7.98234ZM13.2467 15.2192C12.8464 15.541 12.4344 15.8721 12 16.2283C11.5656 15.8722 11.1536 15.541 10.7532 15.2192C8.31434 13.2588 6.70312 11.9637 6.70312 10.2612C6.70312 9.55755 6.95168 8.90395 7.40302 8.42087C7.85953 7.93231 8.49326 7.66324 9.1875 7.66324C10.1515 7.66324 10.7746 8.2234 11.1276 8.69333C11.4442 9.11479 11.6094 9.53966 11.6657 9.70275C11.7129 9.83927 11.8478 9.93166 12 9.93166C12.1522 9.93166 12.2871 9.83927 12.3343 9.70275C12.3906 9.53966 12.5558 9.11479 12.8724 8.69331C13.2254 8.2234 13.8485 7.66324 14.8125 7.66324C15.5067 7.66324 16.1405 7.93231 16.597 8.42087C17.0483 8.90395 17.2969 9.55755 17.2969 10.2612C17.2969 11.9637 15.6857 13.2588 13.2467 15.2192Z" fill="white" stroke="white" stroke-width="0.5"/>
</svg>
