<svg width="36" height="36" viewBox="0 0 36 36" fill="none" xmlns="http://www.w3.org/2000/svg">
<path d="M4.49998 0H23.6171L33.7499 10.0935V33.75C33.7499 34.9931 32.742 36 31.4999 36H4.49998C3.25794 36 2.25 34.9931 2.25 33.75V2.24998C2.25 1.0069 3.25806 0 4.49998 0Z" fill="#828282"/>
<path d="M33.7176 10.125H25.8752C24.6332 10.125 23.6252 9.11701 23.6252 7.87498V0.0224609L33.7176 10.125Z" fill="#4F4F4F"/>
<path d="M25.3102 17.0584C25.6871 17.0584 25.8716 16.7299 25.8716 16.4115C25.8716 16.0819 25.6792 15.7635 25.3102 15.7635H23.1637C22.7441 15.7635 22.5101 16.1111 22.5101 16.4947V21.7698C22.5101 22.2401 22.7778 22.5011 23.1401 22.5011C23.5001 22.5011 23.769 22.2401 23.769 21.7698V20.322H25.0673C25.47 20.322 25.6714 19.9923 25.6714 19.665C25.6714 19.3444 25.47 19.026 25.0673 19.026H23.769V17.0584H25.3102ZM18.0551 15.7635H16.4846C16.0582 15.7635 15.7555 16.056 15.7555 16.4902V21.7744C15.7555 22.3132 16.1909 22.482 16.5025 22.482H18.1507C20.1014 22.482 21.3895 21.1984 21.3895 19.2172C21.3884 17.1225 20.1757 15.7635 18.0551 15.7635ZM18.1305 21.1793H17.1731V17.0663H18.036C19.3422 17.0663 19.9102 17.9427 19.9102 19.152C19.9102 20.2838 19.3522 21.1793 18.1305 21.1793ZM12.3772 15.7635H10.8214C10.3815 15.7635 10.1362 16.0537 10.1362 16.4947V21.7698C10.1362 22.2401 10.4175 22.5011 10.7954 22.5011C11.1734 22.5011 11.4546 22.2401 11.4546 21.7698V20.2297H12.43C13.6337 20.2297 14.6271 19.3769 14.6271 18.0056C14.6272 16.6635 13.6688 15.7635 12.3772 15.7635ZM12.3514 18.9923H11.4547V17.0021H12.3514C12.9049 17.0021 13.257 17.4341 13.257 17.9978C13.2559 18.5603 12.9049 18.9923 12.3514 18.9923Z" fill="white"/>
</svg>
