<svg width="116" height="24" viewBox="0 0 116 24" fill="none" xmlns="http://www.w3.org/2000/svg">
<path d="M9.18113 14.0484L0 20.0951L4.66119 24.2589L13.4892 17.3795L16.2435 19.4795V11.9846H6.53272L9.18113 14.0484Z" fill="black"/>
<path d="M7.16782 0L2.33008 2.89658L9.46311 7.82077L6.53221 9.77597H16.243V3.29486L13.8418 4.88798L7.16782 0Z" fill="black"/>
<path d="M34.7826 20.0951L25.6015 14.0484L28.2499 11.9846H18.5391V19.4795L21.2934 17.3795L30.1567 24.2589L34.7826 20.0951Z" fill="black"/>
<path d="M25.319 7.82077L32.452 2.89658L27.6143 0L20.9403 4.88798L18.5391 3.29486V9.77597H28.2499L25.319 7.82077Z" fill="black"/>
<path d="M112.01 11.1517V7.0603H111.975H109.256V11.1517H105.23V13.9759H109.221V14.0121H109.256V18.1035H111.975V13.9759H116.001V11.1517H112.01Z" fill="black"/>
<path d="M41.491 2.67923V9.26896H43.4684C44.1394 5.21374 46.8231 2.42578 50.6721 2.42578C55.298 2.42578 57.8404 6.29996 57.8404 10.9707C57.8404 16.5104 54.8036 19.8415 50.4249 19.8415C46.364 19.8415 43.7509 16.7639 43.3625 12.4914H41.491V19.5518H37.7832V2.67923H41.491ZM54.062 11.0793C54.062 8.03791 52.8261 5.43099 50.5662 5.43099C48.2356 5.43099 46.9996 8.03791 46.9996 11.1517C46.9996 14.338 48.3062 16.8363 50.5308 16.8363C52.7908 16.8001 54.062 14.338 54.062 11.0793Z" fill="black"/>
<path d="M72.3184 19.0811C71.6475 19.4432 70.0938 19.8053 68.081 19.8053C62.3957 19.8053 59.4648 16.1846 59.4648 11.369C59.4648 5.61202 63.4551 2.42578 68.4341 2.42578C70.3762 2.42578 71.824 2.82406 72.495 3.18613L71.7534 6.22755C71.0119 5.90168 69.9525 5.61202 68.646 5.61202C65.6798 5.61202 63.4198 7.42239 63.4198 11.1879C63.4198 14.5552 65.3619 16.6915 68.6813 16.6915C69.8113 16.6915 71.0472 16.438 71.7887 16.1483L72.3184 19.0811Z" fill="black"/>
<path d="M78.8151 15.2069L77.6498 19.5518H73.8008L78.8151 2.6792H83.6881L88.8084 19.5518H84.8181L83.5116 15.2069H78.8151ZM82.9819 12.3465L81.9579 8.76202C81.6754 7.74822 81.3575 6.51717 81.1457 5.50337H81.1104C80.8632 6.51717 80.616 7.78443 80.3688 8.76202L79.3801 12.3465H82.9819Z" fill="black"/>
<path d="M90.998 2.89674C92.128 2.6795 93.7524 2.53467 96.0123 2.53467C98.3076 2.53467 99.932 2.96916 101.027 3.87434C102.086 4.70711 102.792 6.11919 102.792 7.78472C102.792 9.45026 102.263 10.8261 101.274 11.8037C100.003 13.0348 98.1311 13.5779 95.9417 13.5779C95.4474 13.5779 95.0236 13.5417 94.6705 13.5055V19.5521H90.998V2.89674ZM94.6705 10.5727C94.9883 10.6451 95.3767 10.6813 95.9064 10.6813C97.8839 10.6813 99.0845 9.6675 99.0845 7.92955C99.0845 6.37264 98.0251 5.46746 96.1889 5.46746C95.4474 5.46746 94.9177 5.53987 94.6352 5.61229V10.5727H94.6705Z" fill="black"/>
</svg>
