<svg width="36" height="36" viewBox="0 0 36 36" fill="none" xmlns="http://www.w3.org/2000/svg">
<path d="M4.49998 0H23.6171L33.7499 10.0935V33.75C33.7499 34.9931 32.742 36 31.4999 36H4.49998C3.25794 36 2.25 34.9931 2.25 33.75V2.24998C2.25 1.0069 3.25806 0 4.49998 0Z" fill="#2BA8DD"/>
<path d="M33.7176 10.125H25.8752C24.6332 10.125 23.6252 9.11701 23.6252 7.87498V0.0224609L33.7176 10.125Z" fill="#1C81AC"/>
<path d="M25.3102 17.0586C25.6871 17.0586 25.8716 16.7301 25.8716 16.4117C25.8716 16.082 25.6792 15.7637 25.3102 15.7637H23.1637C22.7441 15.7637 22.5101 16.1113 22.5101 16.4949V21.77C22.5101 22.2403 22.7778 22.5013 23.1401 22.5013C23.5001 22.5013 23.769 22.2403 23.769 21.77V20.3222H25.0673C25.47 20.3222 25.6714 19.9925 25.6714 19.6652C25.6714 19.3446 25.47 19.0261 25.0673 19.0261H23.769V17.0586H25.3102ZM18.0551 15.7637H16.4846C16.0582 15.7637 15.7555 16.0562 15.7555 16.4904V21.7746C15.7555 22.3134 16.1909 22.4822 16.5025 22.4822H18.1507C20.1014 22.4822 21.3895 21.1986 21.3895 19.2174C21.3884 17.1227 20.1757 15.7637 18.0551 15.7637ZM18.1305 21.1795H17.1731V17.0665H18.036C19.3422 17.0665 19.9102 17.9429 19.9102 19.1522C19.9102 20.284 19.3522 21.1795 18.1305 21.1795ZM12.3772 15.7637H10.8214C10.3815 15.7637 10.1362 16.0539 10.1362 16.4949V21.77C10.1362 22.2403 10.4175 22.5013 10.7954 22.5013C11.1734 22.5013 11.4546 22.2403 11.4546 21.77V20.2299H12.43C13.6337 20.2299 14.6271 19.3771 14.6271 18.0057C14.6272 16.6637 13.6688 15.7637 12.3772 15.7637ZM12.3514 18.9925H11.4547V17.0023H12.3514C12.9049 17.0023 13.257 17.4343 13.257 17.9979C13.2559 18.5605 12.9049 18.9925 12.3514 18.9925Z" fill="white"/>
</svg>
