<svg width="175" height="36" viewBox="0 0 175 36" fill="none" xmlns="http://www.w3.org/2000/svg">
<g clip-path="url(#clip0)">
<path d="M13.8508 21.0723L0 30.1422L7.03196 36.388L20.3501 26.0689L24.5053 29.2189V17.9766H9.8554L13.8508 21.0723Z" fill="white"/>
<path d="M10.8139 0L3.51562 4.34487L14.2767 11.7312L9.85504 14.6639H24.505V4.94229L20.8824 7.33197L10.8139 0Z" fill="white"/>
<path d="M52.4741 30.1422L38.6232 21.0723L42.6187 17.9766H27.9688V29.2189L32.124 26.0689L45.4954 36.388L52.4741 30.1422Z" fill="white"/>
<path d="M38.1971 11.7312L48.9581 4.34487L41.6598 0L31.5913 7.33197L27.9688 4.94229V14.6639H42.6187L38.1971 11.7312Z" fill="white"/>
<path d="M168.98 16.728V10.5908H168.927H164.825V16.728H158.752V20.9642H164.772V21.0185H164.825V27.1557H168.927V20.9642H175V16.728H168.98Z" fill="white"/>
<path d="M62.5936 4.01885V13.9034H65.5769C66.589 7.82062 70.6378 3.63867 76.4444 3.63867C83.4231 3.63867 87.2588 9.44994 87.2588 16.4561C87.2588 24.7656 82.6773 29.7622 76.0715 29.7622C69.9452 29.7622 66.003 25.1458 65.4171 18.7371H62.5936V29.3277H57V4.01885H62.5936ZM81.5586 16.619C81.5586 12.0569 79.6941 8.14648 76.2846 8.14648C72.7686 8.14648 70.9041 12.0569 70.9041 16.7276C70.9041 21.507 72.8752 25.2544 76.2314 25.2544C79.6408 25.2001 81.5586 21.507 81.5586 16.619Z" fill="white"/>
<path d="M109.1 28.6217C108.088 29.1648 105.744 29.7079 102.707 29.7079C94.1306 29.7079 89.709 24.2768 89.709 17.0535C89.709 8.41804 95.7288 3.63867 103.24 3.63867C106.17 3.63867 108.354 4.23609 109.366 4.7792L108.248 9.34132C107.129 8.85252 105.531 8.41803 103.56 8.41803C99.0849 8.41803 95.6755 11.1336 95.6755 16.7819C95.6755 21.8328 98.6055 25.0372 103.613 25.0372C105.318 25.0372 107.182 24.657 108.301 24.2225L109.1 28.6217Z" fill="white"/>
<path d="M118.903 22.8106L117.145 29.3279H111.338L118.903 4.01904H126.254L133.979 29.3279H127.959L125.988 22.8106H118.903ZM125.189 18.5201L123.644 13.1433C123.218 11.6226 122.738 9.776 122.419 8.2553H122.365C121.992 9.776 121.619 11.6769 121.247 13.1433L119.755 18.5201H125.189Z" fill="white"/>
<path d="M137.281 4.34487C138.986 4.019 141.436 3.80176 144.846 3.80176C148.309 3.80176 150.759 4.45349 152.411 5.81126C154.009 7.06041 155.074 9.17854 155.074 11.6768C155.074 14.1751 154.275 16.239 152.784 17.7054C150.866 19.5519 148.042 20.3666 144.739 20.3666C143.994 20.3666 143.354 20.3123 142.822 20.258V29.3279H137.281V4.34487ZM142.822 15.8588C143.301 15.9674 143.887 16.0217 144.686 16.0217C147.669 16.0217 149.481 14.501 149.481 11.8941C149.481 9.55872 147.882 8.20094 145.112 8.20094C143.994 8.20094 143.194 8.30957 142.768 8.41819V15.8588H142.822Z" fill="white"/>
</g>
<defs>
<clipPath id="clip0">
<rect width="175" height="36" fill="white"/>
</clipPath>
</defs>
</svg>
