<svg width="24" height="24" viewBox="0 0 24 24" fill="none" xmlns="http://www.w3.org/2000/svg">
<path d="M23.725 12.4761C23.7248 12.4764 23.7245 12.4767 23.7242 12.477L18.8256 17.352C18.4586 17.7172 17.865 17.7158 17.4997 17.3488C17.1345 16.9818 17.1359 16.3883 17.5028 16.023L20.7918 12.75H0.9375C0.419719 12.75 0 12.3303 0 11.8125C0 11.2947 0.419719 10.875 0.9375 10.875H20.7917L17.5029 7.60201C17.1359 7.23676 17.1345 6.64319 17.4998 6.2762C17.865 5.90912 18.4587 5.90786 18.8256 6.27301L23.7242 11.148C23.7245 11.1483 23.7248 11.1486 23.7251 11.1489C24.0923 11.5154 24.0911 12.1109 23.725 12.4761Z" fill="#2BA8DD"/>
</svg>
