<svg width="24" height="24" viewBox="0 0 24 24" fill="none" xmlns="http://www.w3.org/2000/svg">
<g clip-path="url(#clip0)">
<path d="M23.725 12.6636C23.7248 12.6639 23.7245 12.6642 23.7242 12.6645L18.8256 17.5395C18.4586 17.9047 17.865 17.9033 17.4997 17.5363C17.1345 17.1693 17.1359 16.5758 17.5028 16.2105L20.7918 12.9375H0.9375C0.419719 12.9375 0 12.5178 0 12C0 11.4822 0.419719 11.0625 0.9375 11.0625H20.7917L17.5029 7.78951C17.1359 7.42426 17.1345 6.83069 17.4998 6.4637C17.865 6.09662 18.4587 6.09536 18.8256 6.46052L23.7242 11.3355C23.7245 11.3358 23.7248 11.3361 23.7251 11.3364C24.0923 11.7029 24.0911 12.2984 23.725 12.6636Z" fill="#4F4F4F"/>
</g>
<defs>
<clipPath id="clip0">
<rect width="24" height="24" fill="white" transform="matrix(1 0 0 -1 0 24)"/>
</clipPath>
</defs>
</svg>
