<svg width="24" height="24" viewBox="0 0 24 24" fill="none" xmlns="http://www.w3.org/2000/svg">
<path d="M12 10.5999C11.228 10.5999 10.6 11.228 10.6 11.9999C10.6 12.7719 11.228 13.3999 12 13.3999C12.772 13.3999 13.4 12.7719 13.4 11.9999C13.4 11.228 12.772 10.5999 12 10.5999Z" fill="white"/>
<path d="M11.9648 3C7.02152 3 3 7.02152 3 11.9648C3 16.9082 7.02152 21 11.9648 21C16.9082 21 21 16.9082 21 11.9648C21 7.02152 16.9082 3 11.9648 3ZM15.7266 14.6016C15.0138 14.6016 14.3853 14.2443 14.0033 13.7017C13.5198 14.249 12.821 14.6016 12.0352 14.6016C10.5813 14.6016 9.39844 13.4187 9.39844 11.9648C9.39844 10.511 10.5813 9.32812 12.0352 9.32812C12.631 9.32812 13.1751 9.53432 13.6172 9.86893V9.85547C13.6172 9.56399 13.8531 9.32812 14.1445 9.32812C14.436 9.32812 14.6719 9.56399 14.6719 9.85547C14.6719 11.0283 14.6719 11.3188 14.6719 12.4922C14.6719 13.0736 15.1451 13.5469 15.7266 13.5469C16.308 13.5469 16.7812 13.0736 16.7812 12.4922C16.7812 8.96282 14.4458 7.21875 12.0352 7.21875C9.41802 7.21875 7.28906 9.34771 7.28906 11.9648C7.28906 14.582 9.41802 16.7109 12.0352 16.7109C13.0898 16.7109 14.0874 16.3731 14.9201 15.7335C15.4764 15.3089 16.1133 16.1471 15.5628 16.5698C14.5437 17.3521 13.3242 17.7656 12.0352 17.7656C8.83661 17.7656 6.23438 15.1634 6.23438 11.9648C6.23438 8.76629 8.83661 6.16406 12.0352 6.16406C14.9495 6.16406 17.8359 8.31334 17.8359 12.4922C17.8359 13.6555 16.8899 14.6016 15.7266 14.6016Z" fill="white"/>
</svg>
