<svg width="24" height="24" viewBox="0 0 24 24" fill="none" xmlns="http://www.w3.org/2000/svg">
<path d="M16 12C16 14.2092 14.2092 16 12 16C9.79082 16 8 14.2092 8 12C8 9.79082 9.79082 8 12 8C14.2092 8 16 9.79082 16 12Z" fill="white"/>
<path d="M20.558 5.52542C20.3821 5.04875 20.1015 4.6173 19.7369 4.26315C19.3827 3.8985 18.9515 3.61786 18.4746 3.44196C18.0878 3.29172 17.5067 3.1129 16.4363 3.06418C15.2785 3.01138 14.9313 3 12.0001 3C9.06865 3 8.7215 3.01109 7.56396 3.06389C6.49364 3.1129 5.91224 3.29172 5.52571 3.44196C5.04875 3.61786 4.6173 3.8985 4.26344 4.26315C3.89879 4.6173 3.61815 5.04846 3.44196 5.52542C3.29172 5.91224 3.1129 6.49364 3.06418 7.56396C3.01138 8.7215 3 9.06865 3 12.0001C3 14.9313 3.01138 15.2785 3.06418 16.4363C3.1129 17.5067 3.29172 18.0878 3.44196 18.4746C3.61815 18.9515 3.8985 19.3827 4.26315 19.7369C4.6173 20.1015 5.04846 20.3821 5.52542 20.558C5.91224 20.7086 6.49364 20.8874 7.56396 20.9361C8.7215 20.9889 9.06836 21 11.9999 21C14.9316 21 15.2788 20.9889 16.436 20.9361C17.5064 20.8874 18.0878 20.7086 18.4746 20.558C19.432 20.1887 20.1887 19.432 20.558 18.4746C20.7083 18.0878 20.8871 17.5067 20.9361 16.4363C20.9889 15.2785 21 14.9313 21 12.0001C21 9.06865 20.9889 8.7215 20.9361 7.56396C20.8874 6.49364 20.7086 5.91224 20.558 5.52542ZM12.0001 17.6371C8.88662 17.6371 6.36266 15.1134 6.36266 11.9999C6.36266 8.88633 8.88662 6.36266 12.0001 6.36266C15.1134 6.36266 17.6373 8.88633 17.6373 11.9999C17.6373 15.1134 15.1134 17.6371 12.0001 17.6371ZM17.8602 7.45719C17.1327 7.45719 16.5428 6.86733 16.5428 6.13978C16.5428 5.41223 17.1327 4.82237 17.8602 4.82237C18.5878 4.82237 19.1776 5.41223 19.1776 6.13978C19.1773 6.86733 18.5878 7.45719 17.8602 7.45719Z" fill="white"/>
</svg>
