<svg width="24" height="24" viewBox="0 0 24 24" fill="none" xmlns="http://www.w3.org/2000/svg">
<path d="M21 6.65738C20.3678 6.93846 19.6942 7.12477 18.9919 7.21523C19.7144 6.778 20.2658 6.09092 20.5251 5.26277C19.8514 5.66985 19.1077 5.95738 18.3151 6.11785C17.6754 5.42754 16.7638 5 15.7693 5C13.8398 5 12.2864 6.58738 12.2864 8.53339C12.2864 8.81339 12.3098 9.08262 12.3672 9.33892C9.46975 9.19569 6.90594 7.78815 5.18362 5.644C4.88294 6.17277 4.70656 6.778 4.70656 7.42954C4.70656 8.65292 5.32812 9.73738 6.25463 10.3652C5.69469 10.3545 5.14538 10.1897 4.68 9.93015C4.68 9.94092 4.68 9.95492 4.68 9.96892C4.68 11.6855 5.88806 13.1114 7.47225 13.4398C7.18856 13.5185 6.87937 13.5562 6.5585 13.5562C6.33538 13.5562 6.11012 13.5432 5.89869 13.4958C6.35025 14.8948 7.63163 15.9232 9.15525 15.9566C7.9695 16.8968 6.46394 17.4632 4.83406 17.4632C4.54825 17.4632 4.27412 17.4503 4 17.4148C5.54381 18.4238 7.37344 19 9.3465 19C15.7597 19 19.266 13.6154 19.266 8.948C19.266 8.79185 19.2607 8.64108 19.2533 8.49138C19.9449 7.99385 20.5261 7.37246 21 6.65738Z" fill="white"/>
</svg>
