<svg width="24" height="24" viewBox="0 0 24 24" fill="none" xmlns="http://www.w3.org/2000/svg">
<path d="M20.9794 7.31355C20.7633 6.51029 20.13 5.87709 19.3268 5.6608C17.8596 5.25934 11.9905 5.25934 11.9905 5.25934C11.9905 5.25934 6.12162 5.25934 4.65437 5.64558C3.86668 5.86164 3.21791 6.51041 3.00185 7.31355C2.61572 8.78068 2.61572 11.8233 2.61572 11.8233C2.61572 11.8233 2.61572 14.8813 3.00185 16.3331C3.21814 17.1362 3.85123 17.7694 4.65449 17.9857C6.13707 18.3873 11.9907 18.3873 11.9907 18.3873C11.9907 18.3873 17.8596 18.3873 19.3268 18.0011C20.1301 17.7849 20.7633 17.1517 20.9796 16.3485C21.3656 14.8813 21.3656 11.8388 21.3656 11.8388C21.3656 11.8388 21.3811 8.78068 20.9794 7.31355ZM10.1219 14.6342V9.01243L15.0023 11.8233L10.1219 14.6342Z" fill="white"/>
</svg>
