<svg width="24" height="24" viewBox="0 0 24 24" fill="none" xmlns="http://www.w3.org/2000/svg">
<path d="M18.3636 5.63518C14.8482 2.12086 9.14951 2.12171 5.63518 5.63712C2.12086 9.15253 2.12171 14.8512 5.63712 18.3656C9.15253 21.8799 14.8512 21.879 18.3656 18.3636C20.0533 16.6753 21.0012 14.3857 21.0007 11.9984C21.0002 9.61158 20.0516 7.32268 18.3636 5.63518ZM16.6307 15.5374C16.6303 15.5378 16.63 15.5382 16.6295 15.5386V15.5356L16.1735 15.9886C15.5837 16.5858 14.7248 16.8316 13.9084 16.6366C13.0859 16.4165 12.304 16.066 11.5923 15.5986C10.9312 15.1761 10.3184 14.6821 9.76526 14.1255C9.25628 13.6203 8.79902 13.0655 8.40019 12.4695C7.96395 11.8281 7.61867 11.1295 7.37415 10.3934C7.09384 9.52865 7.32612 8.57978 7.97419 7.9423L8.50819 7.40829C8.65667 7.25915 8.89792 7.25862 9.04702 7.40709C9.04741 7.40748 9.04783 7.40787 9.04822 7.40829L10.7343 9.09434C10.8834 9.24282 10.8839 9.48407 10.7355 9.63317C10.7351 9.63356 10.7347 9.63394 10.7343 9.63437L9.74423 10.6244C9.46016 10.9054 9.42444 11.3519 9.66024 11.6745C10.0183 12.1659 10.4146 12.6283 10.8453 13.0575C11.3255 13.5398 11.8476 13.9785 12.4053 14.3686C12.7276 14.5934 13.1646 14.5555 13.4434 14.2786L14.4004 13.3065C14.5489 13.1574 14.7901 13.1569 14.9392 13.3054C14.9396 13.3057 14.94 13.3061 14.9404 13.3065L16.6295 14.9986C16.7787 15.147 16.7792 15.3883 16.6307 15.5374Z" fill="white"/>
</svg>
