<svg width="128" height="123" viewBox="0 0 128 123" fill="none" xmlns="http://www.w3.org/2000/svg">
<path d="M58.2937 4.5623C60.0898 -0.965565 67.9102 -0.965561 69.7063 4.5623L80.614 38.1327C81.4173 40.6049 83.721 42.2786 86.3204 42.2786H121.618C127.431 42.2786 129.847 49.7163 125.145 53.1327L96.5884 73.8804C94.4855 75.4083 93.6055 78.1165 94.4088 80.5886L105.316 114.159C107.113 119.687 100.786 124.284 96.0834 120.867L67.5267 100.12C65.4238 98.5917 62.5762 98.5917 60.4733 100.12L31.9166 120.867C27.2143 124.284 20.8874 119.687 22.6835 114.159L33.5912 80.5886C34.3945 78.1165 33.5145 75.4083 31.4116 73.8804L2.85486 53.1327C-1.84742 49.7163 0.569239 42.2786 6.38158 42.2786H41.6796C44.279 42.2786 46.5827 40.6049 47.386 38.1327L58.2937 4.5623Z" fill="#E0E0E0"/>
</svg>
