<svg width="100" height="100" viewBox="0 0 100 100" fill="none" xmlns="http://www.w3.org/2000/svg">
<path d="M82.237 81.024C81.428 81.024 80.7721 81.6799 80.7721 82.4889V96.2611C80.7721 96.707 80.4092 97.0699 79.9633 97.0699H72.0889V68.2228C72.0889 67.4139 71.4331 66.758 70.6241 66.758C69.8151 66.758 69.1592 67.4139 69.1592 68.2228V97.0701H53.3028L57.901 92.0115C58.4034 91.4588 58.6403 90.6715 58.5346 89.9047C58.5327 89.8898 58.5303 89.875 58.5278 89.8602L54.1483 63.9877L55.3282 62.2115C55.9805 62.6748 56.4831 63.1209 57.4254 63.1209C58.384 63.1209 59.2803 62.5844 59.7213 61.7012V61.701L64.3405 52.4432L74.8631 56.5184C75.2438 56.6816 80.7717 59.1711 80.7717 65.7445V75.6527C80.7715 76.4615 81.4274 77.1176 82.2366 77.1176C83.0455 77.1176 83.7014 76.4617 83.7014 75.6527V65.7445C83.7014 57.0836 76.2856 53.9354 75.97 53.8055C75.9608 53.8016 75.9514 53.7979 75.942 53.7943L58.4288 47.0119V42.9045C61.2104 40.7412 63.1391 37.5344 63.6233 33.8758C65.0102 33.7781 66.2971 33.2602 67.3481 32.3564C68.7206 31.1762 69.508 29.4584 69.508 27.6443C69.508 26.1389 68.9649 24.7014 67.9969 23.5812V18.1549C67.9967 8.14434 59.8526 0 49.842 0C39.8315 0 31.6874 8.14434 31.6874 18.1549V23.7234C30.709 24.8322 30.177 26.1971 30.177 27.6441C30.177 29.4588 30.9641 31.1764 32.337 32.3568C33.3872 33.2602 34.6733 33.7775 36.0598 33.8754C36.5479 37.6025 38.5329 40.9289 41.5514 43.1213V47.0119L24.0571 53.7941C24.0479 53.7977 24.0387 53.8014 24.0295 53.8051C23.7137 53.935 16.2981 57.0832 16.2981 65.7441V96.2607C16.2981 98.3223 17.9752 99.9994 20.0368 99.9994H33.9932C34.8022 99.9994 35.4581 99.3436 35.4581 98.5346C35.4581 97.7256 34.8022 97.0697 33.9932 97.0697H30.8415V68.2228C30.8415 67.4139 30.1856 66.758 29.3766 66.758C28.5676 66.758 27.9118 67.4139 27.9118 68.2228V97.0701H20.037C19.5911 97.0701 19.2282 96.7072 19.2282 96.2613V65.7443C19.2282 59.1488 24.7932 56.665 25.135 56.5189L35.6495 52.4428L40.269 61.701C40.711 62.5863 41.6084 63.1209 42.5651 63.1209C43.5028 63.1209 44.0004 62.6816 44.6623 62.2115L45.8422 63.9877L41.4631 89.8604C41.4606 89.875 41.4584 89.8896 41.4563 89.9045C41.3504 90.6709 41.5874 91.4586 42.0899 92.0117L46.6881 97.0703H40.8297C40.0207 97.0703 39.3649 97.7262 39.3649 98.5352C39.3649 99.3441 40.0207 100 40.8297 100H79.9635C82.025 100 83.7022 98.3227 83.7022 96.2613V82.4891C83.7018 81.6799 83.0459 81.024 82.237 81.024ZM61.5965 51.3807L57.2901 60.0115C57.183 59.9355 54.9008 58.3141 52.111 56.333C53.3215 54.8387 51.9053 56.5867 57.4303 49.7672L61.5965 51.3807ZM52.9379 60.5143L51.8211 62.1953H48.1682L47.0514 60.5143L49.9948 58.4238L52.9379 60.5143ZM44.4809 47.4846V44.7432C46.2606 45.4605 48.1625 45.7932 50.02 45.7932C51.9405 45.7932 53.8239 45.3838 55.4989 44.6514V47.4965L49.9948 54.2904L44.4809 47.4846ZM66.5782 27.6443C66.578 28.6039 66.1623 29.5119 65.4377 30.1352C64.9586 30.5473 64.3799 30.8107 63.7461 30.9139V24.3754C65.4297 24.6488 66.5782 26.0453 66.5782 27.6443ZM35.9387 30.9139C34.236 30.6375 33.1067 29.2297 33.1067 27.6441C33.1067 26.0781 34.4049 24.8035 35.9387 24.449V30.9139ZM36.0174 21.4641C35.5508 21.5176 35.0161 21.6439 34.6174 21.7795V18.1549C34.6174 9.75977 41.4471 2.92988 49.8422 2.92988C58.2373 2.92988 65.067 9.75977 65.067 18.1549V21.6789C64.6413 21.5494 64.1996 21.4639 63.7463 21.4236C63.7463 20.0102 63.7586 20.2828 59.1346 15.3115C58.2842 14.3979 56.8776 14.2064 55.8071 14.9059C50.7036 18.2396 44.478 19.9145 38.7338 19.502C37.4739 19.4076 36.3262 20.2375 36.0174 21.4641ZM38.8686 32.0672V22.9281V22.4467C45.1918 22.817 51.8213 20.9385 57.177 17.5086C59.2977 19.7855 60.4461 20.9799 60.8165 21.4342C60.8165 22.5834 60.8165 30.7516 60.8165 32.067C60.8165 38.0137 55.9676 42.8631 50.0202 42.8631C43.3416 42.8633 38.8686 37.6824 38.8686 32.0672ZM42.6997 60.0115L38.3932 51.3807L42.552 49.7699L47.8725 56.3373C45.1668 58.2586 42.9452 59.8371 42.6997 60.0115ZM44.3803 90.1762L48.6204 65.1248H51.3686L55.6086 90.1762L49.9946 96.3525L44.3803 90.1762Z" fill="#333333"/>
</svg>
