<svg version="1.1" xmlns="http://www.w3.org/2000/svg" width="24" height="24" viewBox="0 0 24 24"><line x1="9.25" y1="14.30506" x2="5.75" y2="14.30506" fill="none" stroke="#323232" stroke-linecap="round" stroke-linejoin="round" stroke-width="1.5"></line><path d="M8.97914,17.03208A3.25932,3.25932,0,0,1,7.5,14.30506" fill="none" stroke="#323232" stroke-linecap="round" stroke-linejoin="round" stroke-width="1.5"></path><path d="M7.5,14.30506a3.25932,3.25932,0,0,1-1.47914,2.727" fill="none" stroke="#323232" stroke-linecap="round" stroke-linejoin="round" stroke-width="1.5"></path><line x1="7.5" y1="14.30506" x2="7.5" y2="13.03208" fill="none" stroke="#323232" stroke-linecap="round" stroke-linejoin="round" stroke-width="1.5"></line><polyline points="18 8.478 16.56 4.478 15.44 4.478 14 8.478" fill="none" stroke="#323232" stroke-linecap="round" stroke-linejoin="round" stroke-width="1.5"></polyline><path d="M14.28222,7.67836h3.42445" fill="none" stroke="#323232" stroke-linecap="round" stroke-linejoin="round" stroke-width="1.5"></path><path d="M13,14v4.06419a1.5,1.5,0,0,1-1.5,1.5H7.63837L5.35,21.85255a.5.5,0,0,1-.85354-.35355V19.56419H3.5a1.5,1.5,0,0,1-1.5-1.5V12a1.5,1.5,0,0,1,1.5-1.5H7" fill="none" stroke="#323232" stroke-linecap="round" stroke-linejoin="round" stroke-width="1.5"></path><path d="M10,3.5A1.5,1.5,0,0,1,11.5,2h9A1.5,1.5,0,0,1,22,3.5v6A1.5,1.5,0,0,1,20.5,11h-.96478v1.999a.5.5,0,0,1-.85355.35355L16.32916,11H11.5A1.5,1.5,0,0,1,10,9.5Z" fill="none" stroke="#323232" stroke-linecap="round" stroke-linejoin="round" stroke-width="1.5"></path><path d="M0,24H24V0H0Z" fill="none"></path></svg>