<svg width="230" height="155" viewBox="0 0 230 155" fill="none" xmlns="http://www.w3.org/2000/svg">
<path d="M66.0492 98.4442C93.2333 98.4442 115.27 76.4067 115.27 49.2221C115.27 22.0375 93.2333 0 66.0492 0C38.8652 0 16.8281 22.0375 16.8281 49.2221C16.8281 76.4067 38.8652 98.4442 66.0492 98.4442Z" fill="url(#paint0_linear)"/>
<path d="M160.328 135.18H188.387C198.081 135.18 205.94 143.039 205.94 152.733H177.881C168.187 152.733 160.328 144.874 160.328 135.18Z" fill="url(#paint1_linear)"/>
<path d="M206.12 152.647C206.12 137.231 206.12 117.74 206.12 107.672C193.623 107.672 183.492 117.74 183.492 130.16C183.492 142.579 193.623 152.647 206.12 152.647Z" fill="url(#paint2_linear)"/>
<path fill-rule="evenodd" clip-rule="evenodd" d="M120.231 128.088C120.672 128.088 121.029 127.731 121.029 127.29C121.029 126.849 120.672 126.492 120.231 126.492C119.791 126.492 119.434 126.849 119.434 127.29C119.434 127.731 119.791 128.088 120.231 128.088ZM121.029 130.481C121.029 130.922 120.672 131.279 120.231 131.279C119.791 131.279 119.434 130.922 119.434 130.481C119.434 130.041 119.791 129.683 120.231 129.683C120.672 129.683 121.029 130.041 121.029 130.481ZM120.231 134.47C120.672 134.47 121.029 134.113 121.029 133.672C121.029 133.232 120.672 132.874 120.231 132.874C119.791 132.874 119.434 133.232 119.434 133.672C119.434 134.113 119.791 134.47 120.231 134.47ZM121.029 136.863C121.029 137.304 120.672 137.661 120.231 137.661C119.791 137.661 119.434 137.304 119.434 136.863C119.434 136.423 119.791 136.066 120.231 136.066C120.672 136.066 121.029 136.423 121.029 136.863ZM120.231 140.853C120.672 140.853 121.029 140.496 121.029 140.056C121.029 139.615 120.672 139.258 120.231 139.258C119.791 139.258 119.434 139.615 119.434 140.056C119.434 140.496 119.791 140.853 120.231 140.853ZM120.231 144.045C120.672 144.045 121.029 143.688 121.029 143.247C121.029 142.806 120.672 142.449 120.231 142.449C119.791 142.449 119.434 142.806 119.434 143.247C119.434 143.688 119.791 144.045 120.231 144.045ZM124.221 143.247C124.221 143.688 123.863 144.045 123.423 144.045C122.982 144.045 122.625 143.688 122.625 143.247C122.625 142.806 122.982 142.449 123.423 142.449C123.863 142.449 124.221 142.806 124.221 143.247ZM123.423 140.853C123.863 140.853 124.221 140.496 124.221 140.056C124.221 139.615 123.863 139.258 123.423 139.258C122.982 139.258 122.625 139.615 122.625 140.056C122.625 140.496 122.982 140.853 123.423 140.853ZM124.22 136.863C124.22 137.304 123.863 137.661 123.423 137.661C122.982 137.661 122.625 137.304 122.625 136.863C122.625 136.423 122.982 136.066 123.423 136.066C123.863 136.066 124.22 136.423 124.22 136.863ZM123.423 134.47C123.863 134.47 124.22 134.113 124.22 133.672C124.22 133.232 123.863 132.874 123.423 132.874C122.982 132.874 122.625 133.232 122.625 133.672C122.625 134.113 122.982 134.47 123.423 134.47ZM124.22 130.481C124.22 130.922 123.863 131.279 123.423 131.279C122.982 131.279 122.625 130.922 122.625 130.481C122.625 130.041 122.982 129.683 123.423 129.683C123.863 129.683 124.22 130.041 124.22 130.481ZM123.423 128.088C123.863 128.088 124.22 127.731 124.22 127.29C124.22 126.849 123.863 126.492 123.423 126.492C122.982 126.492 122.625 126.849 122.625 127.29C122.625 127.731 122.982 128.088 123.423 128.088ZM127.412 143.247C127.412 143.688 127.055 144.045 126.614 144.045C126.174 144.045 125.816 143.688 125.816 143.247C125.816 142.806 126.174 142.449 126.614 142.449C127.055 142.449 127.412 142.806 127.412 143.247ZM126.614 140.853C127.055 140.853 127.412 140.496 127.412 140.056C127.412 139.615 127.055 139.258 126.614 139.258C126.174 139.258 125.816 139.615 125.816 140.056C125.816 140.496 126.174 140.853 126.614 140.853ZM127.412 136.863C127.412 137.304 127.055 137.661 126.614 137.661C126.173 137.661 125.816 137.304 125.816 136.863C125.816 136.423 126.173 136.066 126.614 136.066C127.055 136.066 127.412 136.423 127.412 136.863ZM126.614 134.47C127.055 134.47 127.412 134.113 127.412 133.672C127.412 133.232 127.055 132.874 126.614 132.874C126.173 132.874 125.816 133.232 125.816 133.672C125.816 134.113 126.173 134.47 126.614 134.47ZM127.412 130.481C127.412 130.922 127.055 131.279 126.614 131.279C126.173 131.279 125.816 130.922 125.816 130.481C125.816 130.041 126.173 129.683 126.614 129.683C127.055 129.683 127.412 130.041 127.412 130.481ZM126.614 128.088C127.055 128.088 127.412 127.731 127.412 127.29C127.412 126.849 127.055 126.492 126.614 126.492C126.173 126.492 125.816 126.849 125.816 127.29C125.816 127.731 126.173 128.088 126.614 128.088ZM130.603 143.247C130.603 143.688 130.246 144.045 129.806 144.045C129.365 144.045 129.008 143.688 129.008 143.247C129.008 142.806 129.365 142.449 129.806 142.449C130.246 142.449 130.603 142.806 130.603 143.247ZM129.806 140.853C130.246 140.853 130.603 140.496 130.603 140.056C130.603 139.615 130.246 139.258 129.806 139.258C129.365 139.258 129.008 139.615 129.008 140.056C129.008 140.496 129.365 140.853 129.806 140.853ZM130.603 136.863C130.603 137.304 130.246 137.661 129.805 137.661C129.365 137.661 129.007 137.304 129.007 136.863C129.007 136.423 129.365 136.066 129.805 136.066C130.246 136.066 130.603 136.423 130.603 136.863ZM129.805 134.47C130.246 134.47 130.603 134.113 130.603 133.672C130.603 133.232 130.246 132.874 129.805 132.874C129.365 132.874 129.007 133.232 129.007 133.672C129.007 134.113 129.365 134.47 129.805 134.47ZM130.603 130.481C130.603 130.922 130.246 131.279 129.805 131.279C129.365 131.279 129.007 130.922 129.007 130.481C129.007 130.041 129.365 129.683 129.805 129.683C130.246 129.683 130.603 130.041 130.603 130.481ZM129.805 128.088C130.246 128.088 130.603 127.731 130.603 127.29C130.603 126.849 130.246 126.492 129.805 126.492C129.365 126.492 129.007 126.849 129.007 127.29C129.007 127.731 129.365 128.088 129.805 128.088ZM133.795 143.247C133.795 143.688 133.438 144.045 132.997 144.045C132.556 144.045 132.199 143.688 132.199 143.247C132.199 142.806 132.556 142.449 132.997 142.449C133.438 142.449 133.795 142.806 133.795 143.247ZM132.997 140.853C133.438 140.853 133.795 140.496 133.795 140.056C133.795 139.615 133.438 139.258 132.997 139.258C132.556 139.258 132.199 139.615 132.199 140.056C132.199 140.496 132.556 140.853 132.997 140.853ZM133.794 136.863C133.794 137.304 133.437 137.661 132.996 137.661C132.556 137.661 132.199 137.304 132.199 136.863C132.199 136.423 132.556 136.066 132.996 136.066C133.437 136.066 133.794 136.423 133.794 136.863ZM132.996 134.47C133.437 134.47 133.794 134.113 133.794 133.672C133.794 133.232 133.437 132.874 132.996 132.874C132.556 132.874 132.199 133.232 132.199 133.672C132.199 134.113 132.556 134.47 132.996 134.47ZM133.794 130.481C133.794 130.922 133.437 131.279 132.996 131.279C132.556 131.279 132.199 130.922 132.199 130.481C132.199 130.041 132.556 129.683 132.996 129.683C133.437 129.683 133.794 130.041 133.794 130.481ZM132.996 128.088C133.437 128.088 133.794 127.731 133.794 127.29C133.794 126.849 133.437 126.492 132.996 126.492C132.556 126.492 132.199 126.849 132.199 127.29C132.199 127.731 132.556 128.088 132.996 128.088ZM136.986 143.247C136.986 143.688 136.629 144.045 136.188 144.045C135.748 144.045 135.391 143.688 135.391 143.247C135.391 142.806 135.748 142.449 136.188 142.449C136.629 142.449 136.986 142.806 136.986 143.247ZM136.188 140.853C136.629 140.853 136.986 140.496 136.986 140.056C136.986 139.615 136.629 139.258 136.188 139.258C135.748 139.258 135.391 139.615 135.391 140.056C135.391 140.496 135.748 140.853 136.188 140.853ZM136.986 136.863C136.986 137.304 136.628 137.661 136.188 137.661C135.747 137.661 135.39 137.304 135.39 136.863C135.39 136.423 135.747 136.066 136.188 136.066C136.628 136.066 136.986 136.423 136.986 136.863ZM136.188 134.47C136.628 134.47 136.986 134.113 136.986 133.672C136.986 133.232 136.628 132.874 136.188 132.874C135.747 132.874 135.39 133.232 135.39 133.672C135.39 134.113 135.747 134.47 136.188 134.47ZM136.986 130.481C136.986 130.922 136.628 131.279 136.188 131.279C135.747 131.279 135.39 130.922 135.39 130.481C135.39 130.041 135.747 129.683 136.188 129.683C136.628 129.683 136.986 130.041 136.986 130.481ZM136.188 128.088C136.628 128.088 136.986 127.731 136.986 127.29C136.986 126.849 136.628 126.492 136.188 126.492C135.747 126.492 135.39 126.849 135.39 127.29C135.39 127.731 135.747 128.088 136.188 128.088Z" fill="url(#paint3_linear)"/>
<path d="M36.011 76.3955C25.8264 80.9954 17.684 80.9372 11.5838 76.2208C5.48367 71.5044 1.62239 64.7884 0 56.0728C19.0681 50.3466 31.0718 57.1208 36.011 76.3955Z" fill="url(#paint4_linear)"/>
<path d="M20.972 68.1239C18.7738 66.8769 16.3296 65.495 13.6393 63.9783L7.39881 65.4726C7.2881 65.4991 7.17694 65.4305 7.15053 65.3194C7.12411 65.2083 7.19244 65.0968 7.30315 65.0703L13.1098 63.6798C9.7522 61.7874 6.0203 59.69 1.91419 57.3874C1.81483 57.3317 1.77929 57.2057 1.83481 57.106C1.89032 57.0063 2.01587 56.9706 2.11523 57.0263C9.61252 61.2305 15.8623 64.751 20.8648 67.588L20.2193 61.2393C20.1914 60.9649 20.6014 60.923 20.6293 61.1973L21.3044 67.8374C27.9741 71.6218 32.36 74.1547 34.4632 75.4366C34.5605 75.4959 34.5914 75.6231 34.5324 75.7207C34.4733 75.8183 34.3465 75.8494 34.2492 75.7901C32.9908 75.0231 30.9117 73.8063 28.0122 72.1398C28.0045 72.1438 27.9966 72.1473 27.9883 72.1503L22.2853 74.2405C22.1784 74.2797 22.0601 74.2245 22.021 74.1172C21.982 74.0099 22.037 73.8912 22.1439 73.852L27.546 71.8721C25.6926 70.8084 23.5233 69.5714 21.0379 68.1614C21.0139 68.1533 20.9914 68.1409 20.972 68.1239Z" fill="white"/>
<path d="M33.7292 82.1557C23.26 78.1894 17.5279 72.3853 16.5328 64.7434C15.5377 57.1016 17.5419 49.635 22.5454 42.3438C40.1085 51.8039 43.8365 65.0745 33.7292 82.1557Z" fill="url(#paint5_linear)"/>
<path d="M29.4171 65.7448C31.462 73.1525 32.7757 78.0552 33.3582 80.4537C33.3852 80.5647 33.3176 80.6766 33.2073 80.7037C33.097 80.7308 32.9857 80.6628 32.9588 80.5519C32.6102 79.1167 31.9988 76.7813 31.1247 73.5458C31.1166 73.5432 31.1085 73.54 31.1005 73.5363L25.6083 70.9676C25.5053 70.9195 25.4607 70.7965 25.5085 70.6929C25.5564 70.5894 25.6787 70.5445 25.7816 70.5926L30.9841 73.0258C30.4244 70.9587 29.7634 68.5451 29.0014 65.7847C28.9901 65.762 28.9829 65.7373 28.9811 65.7115C28.307 63.2702 27.5541 60.559 26.7224 57.5779L21.2698 54.2066C21.1731 54.1468 21.1429 54.0194 21.2024 53.9221C21.2618 53.8249 21.3884 53.7945 21.4852 53.8543L26.5587 56.9912C25.5203 53.2711 24.362 49.1403 23.0839 44.5991C23.0529 44.4892 23.1164 44.3749 23.2257 44.3438C23.3349 44.3127 23.4486 44.3766 23.4795 44.4865C25.8132 52.7782 27.7474 59.7014 29.2822 65.2566L33.2894 60.3102C33.4625 60.0964 33.7813 60.3577 33.6081 60.5714L29.4171 65.7448Z" fill="white"/>
<path d="M44.1523 89.3169C35.5067 96.4103 27.6326 98.4712 20.53 95.4996C13.4274 92.5281 7.97076 87.0421 4.16016 79.0415C21.0901 68.5498 34.4208 71.975 44.1523 89.3169Z" fill="url(#paint6_linear)"/>
<path d="M27.7172 84.7104C35.1303 86.6278 40.0166 87.9314 42.377 88.6214C42.4862 88.6533 42.5488 88.7678 42.517 88.8771C42.4851 88.9865 42.3708 89.0492 42.2616 89.0173C40.8492 88.6045 38.5288 87.971 35.3006 87.117C35.2942 87.1227 35.2875 87.1282 35.2803 87.1332L30.3141 90.6236C30.221 90.689 30.0926 90.6664 30.0272 90.5732C29.9619 90.48 29.9844 90.3514 30.0775 90.2859L34.7816 86.9798C32.7185 86.4353 30.3058 85.8059 27.5434 85.0915C27.5182 85.0899 27.4933 85.0838 27.4701 85.0725C25.027 84.4407 22.3116 83.7428 19.324 82.9788L13.6854 86.0344C13.5854 86.0886 13.4604 86.0513 13.4063 85.9512C13.3522 85.851 13.3894 85.7259 13.4894 85.6716L18.736 82.8284C15.0073 81.8755 10.8646 80.8219 6.30783 79.6677C6.19757 79.6397 6.13079 79.5276 6.15868 79.4172C6.18657 79.3067 6.29856 79.2399 6.40883 79.2678C14.729 81.3752 21.6688 83.1473 27.2286 84.5841L24.9694 78.6365C24.8718 78.3795 25.2567 78.2328 25.3544 78.4898L27.7172 84.7104Z" fill="white"/>
<path d="M11.2028 88.5273H115.453C116.653 88.5273 117.625 89.4996 117.625 90.6989V151.533C117.625 152.732 116.653 153.705 115.453 153.705H11.2028C10.0035 153.705 9.03125 152.732 9.03125 151.533V90.6989C9.03125 89.4996 10.0035 88.5273 11.2028 88.5273Z" fill="url(#paint7_linear)"/>
<path d="M9.03125 99.3906H117.625V112.426H9.03125V99.3906Z" fill="#211D41"/>
<path fill-rule="evenodd" clip-rule="evenodd" d="M35.0937 130.895H17.7188V135.24H35.0937V130.895ZM30.75 140.671H17.7188V145.016H30.75V140.671ZM39.4375 130.895H61.1562V135.24H39.4375V130.895ZM50.2968 140.671H35.0937V145.016H50.2968V140.671Z" fill="white"/>
<path d="M91.7789 145.668C95.8572 145.668 99.1632 142.361 99.1632 138.281C99.1632 134.202 95.8572 130.895 91.7789 130.895C87.7006 130.895 84.3945 134.202 84.3945 138.281C84.3945 142.361 87.7006 145.668 91.7789 145.668Z" fill="#52D7FD"/>
<path d="M99.1656 145.668C103.244 145.668 106.55 142.361 106.55 138.281C106.55 134.202 103.244 130.895 99.1656 130.895C95.0873 130.895 91.7812 134.202 91.7812 138.281C91.7812 142.361 95.0873 145.668 99.1656 145.668Z" fill="white"/>
<path d="M69.67 15.9258H207.199C209.198 15.9258 210.819 17.5462 210.819 19.5451V120.885C210.819 122.884 209.198 124.504 207.199 124.504H69.67C67.6712 124.504 66.0508 122.884 66.0508 120.885V19.5451C66.0508 17.5462 67.6712 15.9258 69.67 15.9258Z" fill="white"/>
<path fill-rule="evenodd" clip-rule="evenodd" d="M134.092 88.3125H73.2891V117.267H134.092V88.3125ZM209.912 88.3125H141.328V117.267H209.912V88.3125Z" fill="#BDDEFF"/>
<path fill-rule="evenodd" clip-rule="evenodd" d="M76.9102 102.243C76.9102 107.241 80.9611 111.292 85.9581 111.292C90.9552 111.292 95.0061 107.241 95.0061 102.243C95.0061 97.2463 90.9552 93.1953 85.9581 93.1953C80.9611 93.1953 76.9102 97.2463 76.9102 102.243ZM112.378 93.1953H99.1682V96.8146H112.378V93.1953ZM99.1682 107.672H130.474V111.292H99.1682V107.672ZM130.474 100.434H99.1682V104.053H130.474V100.434Z" fill="white"/>
<path d="M159.97 111.835C164.967 111.835 169.018 107.784 169.018 102.786C169.018 97.7893 164.967 93.7383 159.97 93.7383C154.973 93.7383 150.922 97.7893 150.922 102.786C150.922 107.784 154.973 111.835 159.97 111.835Z" fill="white"/>
<path d="M159.97 93.7383C154.973 93.7383 150.922 97.7893 150.922 102.786H159.97C159.97 99.0017 159.97 95.9856 159.97 93.7383Z" fill="url(#paint8_linear)"/>
<path d="M185.302 111.835C190.299 111.835 194.35 107.784 194.35 102.786C194.35 97.7893 190.299 93.7383 185.302 93.7383C180.305 93.7383 176.254 97.7893 176.254 102.786C176.254 107.784 180.305 111.835 185.302 111.835Z" fill="white"/>
<path d="M185.305 102.551C185.305 102.71 185.305 105.806 185.305 111.838C190.302 111.838 194.353 107.787 194.353 102.79C194.353 102.79 191.337 102.71 185.305 102.551Z" fill="url(#paint9_linear)"/>
<path fill-rule="evenodd" clip-rule="evenodd" d="M188.922 38.0039H174.445V81.6161H188.922V38.0039ZM152.731 45.2424H167.208V81.6161H152.731V45.2424ZM145.492 56.6445H131.016V81.6175H145.492V56.6445ZM123.778 68.0439H109.301V81.6161H123.778V68.0439Z" fill="url(#paint10_linear)"/>
<path fill-rule="evenodd" clip-rule="evenodd" d="M95.0042 38.1836H73.2891V40.898H95.0042V38.1836ZM73.2891 46.3281H95.0042V49.0426H73.2891V46.3281ZM95.0042 54.4688H73.2891V57.1832H95.0042V54.4688ZM73.2891 62.6137H95.0042V65.3281H73.2891V62.6137ZM95.0042 70.757H73.2891V73.4715H95.0042V70.757ZM95.0042 78.9023H73.2891V81.6168H95.0042V78.9023Z" fill="#BDDEFF"/>
<path d="M69.67 15.9258H207.199C209.198 15.9258 210.819 17.5462 210.819 19.5451V30.4029H66.0508V19.5451C66.0508 17.5462 67.6712 15.9258 69.67 15.9258Z" fill="#3B97FC"/>
<path d="M206.683 151.141C207.481 150.669 208.225 150.307 208.918 150.055C209.956 149.677 210.023 150.066 210.023 150.512C210.023 150.958 210.023 151.959 210.023 152.767C210.023 153.576 209.773 153.665 208.349 153.568C206.925 153.471 206.751 153.339 205.257 153.568C203.763 153.797 200.748 153.753 200.091 152.703C199.434 151.653 201.554 151.222 203.408 150.971C204.644 150.803 205.736 150.86 206.683 151.141Z" fill="#021038"/>
<path d="M210.018 146.391V150.72L209.079 151.087C207.374 151.754 205.469 151.694 203.809 150.921L206.104 150.426V146.391H210.018Z" fill="#FE9F9F"/>
<path d="M226.147 148.695C226.735 147.979 227.311 147.384 227.875 146.91C228.722 146.2 228.918 146.542 229.07 146.961C229.223 147.38 229.565 148.321 229.842 149.081C230.118 149.841 229.913 150.01 228.542 150.406C227.171 150.802 226.962 150.738 225.637 151.464C224.312 152.19 221.464 153.18 220.487 152.418C219.51 151.656 221.355 150.525 223.011 149.655C224.115 149.075 225.16 148.755 226.147 148.695Z" fill="#021038"/>
<path d="M199.212 64.4062L204.509 76.6766L195.851 83.0566L189.82 70.2966L199.212 64.4062Z" fill="white"/>
<path d="M227.657 143.094L229.137 147.162L228.381 147.828C227.006 149.038 225.196 149.633 223.371 149.475L225.359 148.224L223.979 144.432L227.657 143.094Z" fill="#FE9F9F"/>
<path d="M215.981 85.7734L218.285 93.3185L223.119 126.964L229.167 145.489L224.332 146.946L214.551 128.414L208.809 100.255L215.981 85.7734Z" fill="#021038"/>
<path d="M195.334 80.362C194.879 79.7533 194.721 78.9987 194.858 78.0982C194.995 77.1978 194.871 76.4927 194.485 75.9831L193.327 77.6783L191.712 74.1953C191.19 76.3768 191.19 77.908 191.712 78.7888C192.235 79.6697 193.16 80.8505 194.485 82.3313L195.334 80.362Z" fill="#FE9F9F"/>
<path d="M205.46 149.091C202.841 109.778 201.531 88.8719 201.531 86.3716C201.531 82.621 217.833 75.8417 217.833 86.3716C217.833 88.8132 217.929 91.2222 218.121 93.5986C218.388 96.901 217.897 100.221 216.683 103.304L213.411 111.616L211.091 149.091H205.46Z" fill="#312C74"/>
<path d="M218.638 94.9597C210.987 95.86 208.359 96.1419 202.001 95.8674C201.742 91.4415 201.531 87.1584 201.531 86.3722C201.531 84.3077 201.162 79.1002 200.423 70.7496C200.409 70.5958 200.402 70.4414 200.402 70.287C200.402 67.3886 202.752 65.0391 205.65 65.0391L215.03 65.0391C215.074 65.0391 215.117 65.0399 215.161 65.0415C217.079 65.1139 218.574 66.7271 218.502 68.6446L217.833 86.3722C218.146 89.7468 218.414 92.6093 218.638 94.9597Z" fill="url(#paint11_linear)"/>
<path d="M206.997 71.5117V80.6911C206.997 82.6871 206.324 84.6248 205.086 86.1906C203.955 87.6211 202.824 89.0515 201.693 90.482C201.616 88.9679 201.532 86.7997 201.532 86.3704C201.532 85.6142 201.482 84.4361 201.383 82.8363C202.865 82.8363 204.736 79.0614 206.997 71.5117Z" fill="#211D41"/>
<path d="M197.261 46.0686C196.858 44.9244 196.406 44.2403 195.905 44.0163C195.153 43.6802 194.281 42.6605 195.353 41.5749L196.092 40.9195L194.352 38.6167C194.483 38.4509 195.001 38.5804 195.905 39.0052C197.261 39.6423 198.177 40.5227 198.661 41.9786C199.144 43.4346 198.904 43.9826 200.529 46.3518L197.809 47.108L197.261 46.0686Z" fill="#FE9F9F"/>
<path d="M203.532 62.4624L196.891 45.7382L200.185 44.5195L207.756 55.2668L203.532 62.4624Z" fill="url(#paint12_linear)"/>
<path d="M203.612 66.5768C204.198 66.5909 204.958 66.8184 205.892 67.2593C206.826 67.7002 207.275 68.5861 207.24 69.917L206.361 79.9548C206.25 81.2248 205.791 82.4397 205.036 83.4666L201.899 87.7305C201.741 87.9455 201.551 88.1349 201.335 88.2921C200.172 89.1398 198.542 88.8842 197.694 87.7211L192.98 81.2537L195.269 79.51L198.714 82.3355L200.222 80.6829C200.362 78.1408 200.432 75.0493 200.432 71.4085C200.432 67.7677 201.492 66.1571 203.612 66.5768Z" fill="url(#paint13_linear)"/>
<path d="M216.278 79.5353C211.995 78.6525 209.678 76.5878 209.326 73.3411C208.797 68.4711 208.318 67.6694 206.684 67.3221C205.05 66.9747 202.961 64.8951 202.961 59.8934V53.3453C202.961 50.227 205.489 47.6992 208.607 47.6992H209.741C212.859 47.6992 215.387 50.227 215.387 53.3453V59.8934C215.54 62.4471 216.19 64.3236 217.337 65.523C219.057 67.3221 221.302 69.4496 219.948 74.1374C219.046 77.2627 217.823 79.062 216.278 79.5353Z" fill="url(#paint14_linear)"/>
<path fill-rule="evenodd" clip-rule="evenodd" d="M208.082 101.153H208.444V99.8867H208.082V101.153ZM208.444 104.232H208.082V102.965H208.444V104.232ZM208.082 107.306H208.444V106.039H208.082V107.306ZM208.444 110.384H208.082V109.117H208.444V110.384ZM208.082 113.459H208.444V112.192H208.082V113.459ZM208.444 116.535H208.082V115.269H208.444V116.535ZM208.082 119.61H208.444V118.344H208.082V119.61ZM208.444 122.688H208.082V121.421H208.444V122.688ZM208.082 125.763H208.444V124.496H208.082V125.763ZM208.444 128.841H208.082V127.574H208.444V128.841ZM208.082 131.919H208.444V130.652H208.082V131.919ZM208.444 134.994H208.082V133.727H208.444V134.994ZM208.082 138.071H208.444V136.805H208.082V138.071ZM208.444 141.146H208.082V139.88H208.444V141.146ZM208.082 144.223H208.444V142.956H208.082V144.223ZM208.082 147.298H208.444V146.031H208.082V147.298Z" fill="#A587FF"/>
<path d="M66.0326 37.3922L45.1887 52.4548L39.4375 46.3256L66.0501 33.0977L66.0326 37.3922Z" fill="#221E41"/>
<path d="M37.5817 74.2695L48.9192 81.5889L55.3613 88.5347H35.9961V78.3552L37.5817 74.2695Z" fill="#211D41"/>
<path d="M77.3311 106.593L75.7305 104.105L79.2994 102.164L80.6296 105.23L77.3311 106.593Z" fill="#FE9F9F"/>
<path d="M76.7891 106.56L80.3844 104.567L83.0834 104.065C84.4563 103.835 85.5149 103.465 86.2207 104.739C86.402 105.066 86.3323 105.451 86.0649 105.599L79.3215 109.337C78.902 109.57 78.3733 109.418 78.1407 108.999L76.7891 106.56Z" fill="#211D41"/>
<path d="M47.076 47.0418L41.7158 46.2885L42.0041 44.2374C41.0389 42.1827 41.0509 39.5195 42.04 36.2476C43.0292 32.9757 45.7986 32.454 50.3483 34.6823C50.2071 36.6309 50.5417 37.921 51.3522 38.5527C52.5678 39.5002 52.0958 40.1589 51.6013 40.3155C51.1068 40.4721 50.753 40.8068 50.7345 41.9455C50.7161 43.0843 50.0022 43.21 48.8763 43.5027C48.1258 43.6978 47.5257 44.8775 47.076 47.0418Z" fill="#E9A17C"/>
<path d="M41.9414 44.1835C41.4666 44.0045 41.1935 43.7075 41.1222 43.2924C41.0152 42.6699 41.3774 42.3811 40.1534 41.1007C38.9294 39.8203 37.9473 38.1283 38.728 35.1841C39.5086 32.24 41.2756 32.0007 43.0379 31.8511C44.8001 31.7015 45.5153 31.9073 47.9376 31.1162C50.3598 30.3252 51.5777 31.9016 51.0469 34.307C50.5161 36.7124 46.8757 36.6197 46.2363 36.5298C45.5969 36.4399 45.9122 37.401 45.9751 38.3886C46.038 39.3763 45.4061 39.5889 45.1754 39.4489C44.9447 39.3088 44.4544 39.145 44.007 39.6882C43.5596 40.2314 43.9938 41.0986 44.345 41.148C44.6962 41.1974 45.164 41.0966 45.1794 41.4967C45.1949 41.8968 44.9798 43.1274 44.5672 43.7766C44.2921 44.2094 43.4168 44.345 41.9414 44.1835Z" fill="url(#paint15_linear)"/>
<path d="M38.4238 75.75L53.4011 77.8161L69.1482 83.128C71.0967 83.7853 72.6851 85.2218 73.5342 87.0948L80.7311 102.97L75.3472 104.652L64.7773 90.1216L48.3839 89.7496C41.8211 89.9788 36.3151 84.8442 36.0859 78.2813L38.4238 75.75Z" fill="url(#paint16_linear)"/>
<path d="M58.2695 47.7442H69.2303L84.5989 40.0232L86.0537 38.1836V39.8623H89.7258C89.3712 41.7698 88.6706 42.9595 87.6238 43.4316C86.5771 43.9037 85.0652 43.9037 83.0882 43.4316L69.4463 53.5419L58.2695 55.1337V47.7442Z" fill="#E9A17C"/>
<path d="M60.0981 46.965L59.3248 55.5541L52.8341 55.7351L53.6492 77.7481L35.9965 78.3646L35.1258 53.4309C34.9793 49.2358 38.2613 45.7163 42.4563 45.5698L44.8378 45.4866C46.474 45.4295 54.9416 46.4815 60.0981 46.965Z" fill="url(#paint17_linear)"/>
<path fill-rule="evenodd" clip-rule="evenodd" d="M44.2644 79.4727L44.1328 79.5969C44.4335 79.9154 44.7261 80.2206 45.0104 80.5122L45.1399 80.3859C44.8563 80.0949 44.5645 79.7905 44.2644 79.4727ZM46.4186 81.6602L46.293 81.7904C46.6143 82.1005 46.923 82.3898 47.2191 82.6584L47.3407 82.5244C47.0461 82.2571 46.7387 81.969 46.4186 81.6602ZM48.6016 83.8377L48.7133 83.6953C49.0815 83.9843 49.4223 84.2287 49.7355 84.4286L49.6381 84.5811C49.3197 84.3779 48.9742 84.1301 48.6016 83.8377ZM51.3566 85.0977L51.3359 85.2774L52.5944 85.4218L52.615 85.242L51.3566 85.0977ZM54.3945 85.629L54.4151 85.4492L55.6736 85.5935L55.653 85.7733L54.3945 85.629ZM57.4698 85.8008L57.4492 85.9806L58.7077 86.1249L58.7283 85.9451L57.4698 85.8008ZM60.5078 86.3282L60.5284 86.1484L61.7869 86.2928L61.7663 86.4725L60.5078 86.3282ZM63.5828 86.5004L63.5622 86.6802L64.8207 86.8245L64.8413 86.6447L63.5828 86.5004ZM66.5788 87.1563L66.6354 86.9845C67.0435 87.1189 67.4368 87.2939 67.8094 87.5065L67.7197 87.6637C67.3576 87.457 66.9754 87.287 66.5788 87.1563ZM69.2554 88.6328L69.125 88.7583C69.4138 89.0583 69.6724 89.387 69.8966 89.74L70.0494 89.643C69.8186 89.2797 69.5526 88.9415 69.2554 88.6328ZM70.7803 91.3173L70.9387 91.2299L71.5508 92.3389L71.3924 92.4264L70.7803 91.3173ZM72.4241 93.9219L72.2656 94.0093L72.8777 95.1184L73.0362 95.0309L72.4241 93.9219ZM73.7533 96.7041L73.9118 96.6167L74.5239 97.7257L74.3654 97.8131L73.7533 96.7041ZM75.3967 99.3086L75.2383 99.396L75.8504 100.505L76.0088 100.418L75.3967 99.3086Z" fill="white"/>
<path d="M86.6809 19.543H115.092C115.491 19.543 115.815 19.867 115.815 20.2668V48.6781C115.815 49.0779 115.491 49.402 115.092 49.402H86.6809C86.2811 49.402 85.957 49.0779 85.957 48.6781V20.2668C85.957 19.867 86.2811 19.543 86.6809 19.543Z" fill="#52D7FD"/>
<path fill-rule="evenodd" clip-rule="evenodd" d="M93.918 30.612H101.313V32.9348L108.033 28.1393L101.313 23.3438V25.6941H93.918V30.612ZM100.638 45.6023V43.2795H108.033V38.3615H100.638V36.0112L93.918 40.8067L100.638 45.6023Z" fill="#2EB3DA"/>
<defs>
<linearGradient id="paint0_linear" x1="-4.72747" y1="7.15137" x2="-4.72747" y2="148.708" gradientUnits="userSpaceOnUse">
<stop stop-color="#D0F6FF"/>
<stop offset="1" stop-color="#8BE2F7"/>
</linearGradient>
<linearGradient id="paint1_linear" x1="155.745" y1="141.715" x2="162.782" y2="155.703" gradientUnits="userSpaceOnUse">
<stop stop-color="#CFE49F"/>
<stop offset="1" stop-color="#A9D386"/>
</linearGradient>
<linearGradient id="paint2_linear" x1="184.314" y1="110.939" x2="184.314" y2="152.647" gradientUnits="userSpaceOnUse">
<stop stop-color="#55D0FF"/>
<stop offset="1" stop-color="#32A2FE"/>
</linearGradient>
<linearGradient id="paint3_linear" x1="119.434" y1="126.492" x2="119.434" y2="144.045" gradientUnits="userSpaceOnUse">
<stop stop-color="#FF9485"/>
<stop offset="1" stop-color="#FF676E"/>
</linearGradient>
<linearGradient id="paint4_linear" x1="-3.61882" y1="63.673" x2="9.18033" y2="77.3935" gradientUnits="userSpaceOnUse">
<stop stop-color="#CFE49F"/>
<stop offset="1" stop-color="#A9D386"/>
</linearGradient>
<linearGradient id="paint5_linear" x1="18.0304" y1="50.0039" x2="32.1302" y2="64.0584" gradientUnits="userSpaceOnUse">
<stop stop-color="#77D791"/>
<stop offset="1" stop-color="#4FA67E"/>
</linearGradient>
<linearGradient id="paint6_linear" x1="-5.10235" y1="90.2206" x2="20.7633" y2="115.813" gradientUnits="userSpaceOnUse">
<stop stop-color="#6EAE7C"/>
<stop offset="1" stop-color="#0F575D"/>
</linearGradient>
<linearGradient id="paint7_linear" x1="9.03125" y1="88.5273" x2="9.03125" y2="153.705" gradientUnits="userSpaceOnUse">
<stop stop-color="#4DBCFA"/>
<stop offset="1" stop-color="#1486DB"/>
</linearGradient>
<linearGradient id="paint8_linear" x1="147.553" y1="88.9471" x2="147.553" y2="110.628" gradientUnits="userSpaceOnUse">
<stop stop-color="#1533B6"/>
<stop offset="1" stop-color="#356BE9"/>
</linearGradient>
<linearGradient id="paint9_linear" x1="181.936" y1="97.633" x2="181.936" y2="119.887" gradientUnits="userSpaceOnUse">
<stop stop-color="#1533B6"/>
<stop offset="1" stop-color="#356BE9"/>
</linearGradient>
<linearGradient id="paint10_linear" x1="109.301" y1="38.0039" x2="109.301" y2="81.6175" gradientUnits="userSpaceOnUse">
<stop stop-color="#FF9485"/>
<stop offset="1" stop-color="#FF676E"/>
</linearGradient>
<linearGradient id="paint11_linear" x1="197.907" y1="56.5756" x2="197.907" y2="95.9681" gradientUnits="userSpaceOnUse">
<stop stop-color="#C0E4FD"/>
<stop offset="1" stop-color="#72B9FE"/>
</linearGradient>
<linearGradient id="paint12_linear" x1="195.404" y1="39.6096" x2="195.404" y2="62.4624" gradientUnits="userSpaceOnUse">
<stop stop-color="#C0E4FD"/>
<stop offset="1" stop-color="#72B9FE"/>
</linearGradient>
<linearGradient id="paint13_linear" x1="191.029" y1="60.4148" x2="191.029" y2="88.7923" gradientUnits="userSpaceOnUse">
<stop stop-color="#C0E4FD"/>
<stop offset="1" stop-color="#72B9FE"/>
</linearGradient>
<linearGradient id="paint14_linear" x1="202.961" y1="47.6992" x2="202.961" y2="79.5353" gradientUnits="userSpaceOnUse">
<stop stop-color="#1D2A78"/>
<stop offset="1" stop-color="#12033B"/>
</linearGradient>
<linearGradient id="paint15_linear" x1="38.4492" y1="30.9102" x2="38.4492" y2="44.2494" gradientUnits="userSpaceOnUse">
<stop stop-color="#1D2A78"/>
<stop offset="1" stop-color="#12033B"/>
</linearGradient>
<linearGradient id="paint16_linear" x1="19.4639" y1="60.4459" x2="19.4639" y2="129.7" gradientUnits="userSpaceOnUse">
<stop stop-color="#1533B6"/>
<stop offset="1" stop-color="#356BE9"/>
</linearGradient>
<linearGradient id="paint17_linear" x1="35.1211" y1="45.4844" x2="35.1211" y2="78.3646" gradientUnits="userSpaceOnUse">
<stop stop-color="#FF9485"/>
<stop offset="1" stop-color="#FF676E"/>
</linearGradient>
</defs>
</svg>
