<svg width="230" height="155" viewBox="0 0 230 155" fill="none" xmlns="http://www.w3.org/2000/svg">
<path fill-rule="evenodd" clip-rule="evenodd" d="M205.759 94.7023C206.204 94.7023 206.565 94.3414 206.565 93.8961C206.565 93.4508 206.204 93.0898 205.759 93.0898C205.314 93.0898 204.953 93.4508 204.953 93.8961C204.953 94.3414 205.314 94.7023 205.759 94.7023ZM206.565 97.1227C206.565 97.5679 206.204 97.9289 205.759 97.9289C205.314 97.9289 204.953 97.5679 204.953 97.1227C204.953 96.6774 205.314 96.3164 205.759 96.3164C206.204 96.3164 206.565 96.6774 206.565 97.1227ZM205.759 101.152C206.204 101.152 206.565 100.791 206.565 100.346C206.565 99.9008 206.204 99.5399 205.759 99.5399C205.314 99.5399 204.953 99.9008 204.953 100.346C204.953 100.791 205.314 101.152 205.759 101.152ZM206.565 103.571C206.565 104.016 206.204 104.377 205.759 104.377C205.314 104.377 204.953 104.016 204.953 103.571C204.953 103.126 205.314 102.765 205.759 102.765C206.204 102.765 206.565 103.126 206.565 103.571ZM205.759 107.601C206.204 107.601 206.565 107.24 206.565 106.795C206.565 106.349 206.204 105.988 205.759 105.988C205.314 105.988 204.953 106.349 204.953 106.795C204.953 107.24 205.314 107.601 205.759 107.601ZM205.759 110.827C206.204 110.827 206.565 110.466 206.565 110.021C206.565 109.576 206.204 109.215 205.759 109.215C205.314 109.215 204.953 109.576 204.953 110.021C204.953 110.466 205.314 110.827 205.759 110.827ZM209.788 110.021C209.788 110.466 209.427 110.827 208.982 110.827C208.537 110.827 208.176 110.466 208.176 110.021C208.176 109.576 208.537 109.215 208.982 109.215C209.427 109.215 209.788 109.576 209.788 110.021ZM208.982 107.601C209.427 107.601 209.788 107.24 209.788 106.795C209.788 106.349 209.427 105.988 208.982 105.988C208.537 105.988 208.176 106.349 208.176 106.795C208.176 107.24 208.537 107.601 208.982 107.601ZM209.788 103.572C209.788 104.017 209.427 104.378 208.982 104.378C208.537 104.378 208.176 104.017 208.176 103.572C208.176 103.127 208.537 102.766 208.982 102.766C209.427 102.766 209.788 103.127 209.788 103.572ZM208.982 101.152C209.427 101.152 209.788 100.791 209.788 100.345C209.788 99.9 209.427 99.5391 208.982 99.5391C208.537 99.5391 208.176 99.9 208.176 100.345C208.176 100.791 208.537 101.152 208.982 101.152ZM209.788 97.1227C209.788 97.5679 209.427 97.9289 208.982 97.9289C208.537 97.9289 208.176 97.5679 208.176 97.1227C208.176 96.6774 208.537 96.3164 208.982 96.3164C209.427 96.3164 209.788 96.6774 209.788 97.1227ZM208.982 94.7023C209.427 94.7023 209.788 94.3414 209.788 93.8961C209.788 93.4508 209.427 93.0898 208.982 93.0898C208.537 93.0898 208.176 93.4508 208.176 93.8961C208.176 94.3414 208.537 94.7023 208.982 94.7023ZM213.014 110.021C213.014 110.466 212.653 110.827 212.208 110.827C211.763 110.827 211.402 110.466 211.402 110.021C211.402 109.576 211.763 109.215 212.208 109.215C212.653 109.215 213.014 109.576 213.014 110.021ZM212.208 107.601C212.654 107.601 213.014 107.24 213.014 106.795C213.014 106.349 212.654 105.988 212.208 105.988C211.763 105.988 211.402 106.349 211.402 106.795C211.402 107.24 211.763 107.601 212.208 107.601ZM213.014 103.571C213.014 104.016 212.653 104.377 212.208 104.377C211.763 104.377 211.402 104.016 211.402 103.571C211.402 103.126 211.763 102.765 212.208 102.765C212.653 102.765 213.014 103.126 213.014 103.571ZM212.208 101.152C212.653 101.152 213.014 100.791 213.014 100.346C213.014 99.9008 212.653 99.5399 212.208 99.5399C211.763 99.5399 211.402 99.9008 211.402 100.346C211.402 100.791 211.763 101.152 212.208 101.152ZM213.014 97.1227C213.014 97.5679 212.654 97.9289 212.208 97.9289C211.763 97.9289 211.402 97.5679 211.402 97.1227C211.402 96.6774 211.763 96.3164 212.208 96.3164C212.654 96.3164 213.014 96.6774 213.014 97.1227ZM212.208 94.7023C212.653 94.7023 213.014 94.3414 213.014 93.8961C213.014 93.4508 212.653 93.0898 212.208 93.0898C211.763 93.0898 211.402 93.4508 211.402 93.8961C211.402 94.3414 211.763 94.7023 212.208 94.7023ZM216.238 110.021C216.238 110.466 215.877 110.827 215.432 110.827C214.987 110.827 214.626 110.466 214.626 110.021C214.626 109.576 214.987 109.215 215.432 109.215C215.877 109.215 216.238 109.576 216.238 110.021ZM215.431 107.601C215.876 107.601 216.237 107.24 216.237 106.795C216.237 106.349 215.876 105.988 215.431 105.988C214.986 105.988 214.625 106.349 214.625 106.795C214.625 107.24 214.986 107.601 215.431 107.601ZM216.238 103.571C216.238 104.016 215.877 104.377 215.432 104.377C214.987 104.377 214.626 104.016 214.626 103.571C214.626 103.126 214.987 102.765 215.432 102.765C215.877 102.765 216.238 103.126 216.238 103.571ZM215.432 101.152C215.877 101.152 216.238 100.791 216.238 100.346C216.238 99.9008 215.877 99.5399 215.432 99.5399C214.987 99.5399 214.626 99.9008 214.626 100.346C214.626 100.791 214.987 101.152 215.432 101.152ZM216.237 97.1227C216.237 97.5679 215.876 97.9289 215.431 97.9289C214.986 97.9289 214.625 97.5679 214.625 97.1227C214.625 96.6774 214.986 96.3164 215.431 96.3164C215.876 96.3164 216.237 96.6774 216.237 97.1227ZM215.432 94.7023C215.877 94.7023 216.238 94.3414 216.238 93.8961C216.238 93.4508 215.877 93.0898 215.432 93.0898C214.987 93.0898 214.626 93.4508 214.626 93.8961C214.626 94.3414 214.987 94.7023 215.432 94.7023ZM219.464 110.021C219.464 110.466 219.103 110.827 218.658 110.827C218.212 110.827 217.852 110.466 217.852 110.021C217.852 109.576 218.212 109.215 218.658 109.215C219.103 109.215 219.464 109.576 219.464 110.021ZM218.658 107.601C219.103 107.601 219.464 107.24 219.464 106.795C219.464 106.349 219.103 105.988 218.658 105.988C218.212 105.988 217.852 106.349 217.852 106.795C217.852 107.24 218.212 107.601 218.658 107.601ZM219.464 103.572C219.464 104.017 219.103 104.378 218.658 104.378C218.212 104.378 217.852 104.017 217.852 103.572C217.852 103.127 218.212 102.766 218.658 102.766C219.103 102.766 219.464 103.127 219.464 103.572ZM218.658 101.152C219.103 101.152 219.464 100.791 219.464 100.345C219.464 99.9 219.103 99.5391 218.658 99.5391C218.212 99.5391 217.852 99.9 217.852 100.345C217.852 100.791 218.212 101.152 218.658 101.152ZM219.464 97.1227C219.464 97.5679 219.103 97.9289 218.658 97.9289C218.212 97.9289 217.852 97.5679 217.852 97.1227C217.852 96.6774 218.212 96.3164 218.658 96.3164C219.103 96.3164 219.464 96.6774 219.464 97.1227ZM218.658 94.7023C219.103 94.7023 219.464 94.3414 219.464 93.8961C219.464 93.4508 219.103 93.0898 218.658 93.0898C218.212 93.0898 217.852 93.4508 217.852 93.8961C217.852 94.3414 218.212 94.7023 218.658 94.7023ZM222.686 110.021C222.686 110.466 222.326 110.827 221.88 110.827C221.435 110.827 221.074 110.466 221.074 110.021C221.074 109.576 221.435 109.215 221.88 109.215C222.326 109.215 222.686 109.576 222.686 110.021ZM221.88 107.601C222.325 107.601 222.686 107.24 222.686 106.795C222.686 106.349 222.325 105.988 221.88 105.988C221.435 105.988 221.074 106.349 221.074 106.795C221.074 107.24 221.435 107.601 221.88 107.601ZM222.686 103.571C222.686 104.016 222.326 104.377 221.88 104.377C221.435 104.377 221.074 104.016 221.074 103.571C221.074 103.126 221.435 102.765 221.88 102.765C222.326 102.765 222.686 103.126 222.686 103.571ZM221.88 101.152C222.326 101.152 222.686 100.791 222.686 100.346C222.686 99.9008 222.326 99.5399 221.88 99.5399C221.435 99.5399 221.074 99.9008 221.074 100.346C221.074 100.791 221.435 101.152 221.88 101.152ZM222.686 97.1227C222.686 97.5679 222.325 97.9289 221.88 97.9289C221.435 97.9289 221.074 97.5679 221.074 97.1227C221.074 96.6774 221.435 96.3164 221.88 96.3164C222.325 96.3164 222.686 96.6774 222.686 97.1227ZM221.88 94.7023C222.326 94.7023 222.686 94.3414 222.686 93.8961C222.686 93.4508 222.326 93.0898 221.88 93.0898C221.435 93.0898 221.074 93.4508 221.074 93.8961C221.074 94.3414 221.435 94.7023 221.88 94.7023Z" fill="#CDCBDF"/>
<path fill-rule="evenodd" clip-rule="evenodd" d="M20.293 30.992C20.293 48.1079 34.1606 61.9841 51.2683 61.9841C68.3761 61.9841 82.2437 48.1079 82.2437 30.992C82.2437 13.8761 68.3761 0 51.2683 0C34.1606 0 20.293 13.8761 20.293 30.992ZM67.6159 30.9902C67.6159 40.0268 60.2957 47.3515 51.2669 47.3515C42.2382 47.3515 34.918 40.0268 34.918 30.9902C34.918 21.9536 42.2382 14.6289 51.2669 14.6289C60.2957 14.6289 67.6159 21.9536 67.6159 30.9902Z" fill="url(#paint0_linear)"/>
<path d="M36.3831 132.441C26.0933 137.089 17.8668 137.03 11.7036 132.264C5.54033 127.498 1.63915 120.71 0 111.902C19.2652 106.115 31.3929 112.961 36.3831 132.441Z" fill="url(#paint1_linear)"/>
<path d="M21.1895 124.082C18.9687 122.822 16.4992 121.425 13.7811 119.892L7.47611 121.402C7.36426 121.429 7.25195 121.36 7.22526 121.248C7.19857 121.135 7.26761 121.023 7.37946 120.996L13.2462 119.591C9.85382 117.678 6.08335 115.558 1.93481 113.231C1.83443 113.175 1.79852 113.048 1.85461 112.947C1.9107 112.846 2.03755 112.81 2.13793 112.866C9.71269 117.115 16.027 120.673 21.0812 123.54L20.4291 117.124C20.4009 116.847 20.8152 116.804 20.8433 117.082L21.5254 123.792C28.264 127.617 32.6953 130.177 34.8202 131.472C34.9185 131.532 34.9497 131.661 34.8901 131.759C34.8304 131.858 34.7023 131.889 34.604 131.829C33.3326 131.054 31.232 129.824 28.3025 128.14C28.2948 128.144 28.2867 128.148 28.2784 128.151L22.5164 130.263C22.4084 130.303 22.2889 130.247 22.2494 130.139C22.21 130.03 22.2656 129.91 22.3736 129.871L27.8315 127.87C25.959 126.795 23.7672 125.545 21.2562 124.12C21.2319 124.112 21.2092 124.099 21.1895 124.082Z" fill="white"/>
<path d="M34.0774 138.262C23.5001 134.253 17.7087 128.388 16.7033 120.665C15.6979 112.942 17.7228 105.396 22.7781 98.0273C40.5227 107.588 44.2891 120.999 34.0774 138.262Z" fill="url(#paint2_linear)"/>
<path d="M29.721 121.675C31.7871 129.161 33.1143 134.116 33.7029 136.54C33.7301 136.652 33.6619 136.765 33.5504 136.793C33.439 136.82 33.3266 136.751 33.2993 136.639C32.9471 135.189 32.3295 132.829 31.4463 129.559C31.4381 129.556 31.4299 129.553 31.4219 129.549L25.8729 126.953C25.7688 126.905 25.7237 126.78 25.7721 126.676C25.8205 126.571 25.944 126.526 26.048 126.574L31.3042 129.033C30.7387 126.944 30.071 124.505 29.301 121.715C29.2896 121.693 29.2824 121.668 29.2806 121.641C28.5995 119.174 27.8388 116.434 26.9986 113.422L21.4896 110.014C21.3919 109.954 21.3613 109.825 21.4214 109.727C21.4815 109.629 21.6094 109.598 21.7072 109.658L26.8331 112.829C25.784 109.069 24.6137 104.894 23.3224 100.305C23.2911 100.194 23.3553 100.078 23.4657 100.047C23.576 100.016 23.6909 100.08 23.7221 100.191C26.0799 108.571 28.0341 115.568 29.5848 121.182L33.6333 116.183C33.8083 115.967 34.1303 116.231 33.9554 116.447L29.721 121.675Z" fill="white"/>
<path d="M44.6124 145.497C35.8775 152.665 27.9221 154.748 20.746 151.745C13.57 148.742 8.05702 143.198 4.20703 135.112C21.3119 124.509 34.7804 127.971 44.6124 145.497Z" fill="url(#paint3_linear)"/>
<path d="M28.0026 140.844C35.4922 142.782 40.429 144.099 42.8138 144.797C42.9241 144.829 42.9875 144.945 42.9553 145.055C42.9231 145.166 42.8075 145.229 42.6972 145.197C41.2703 144.78 38.9259 144.139 35.6643 143.276C35.6579 143.282 35.651 143.288 35.6438 143.293L30.6263 146.82C30.5322 146.886 30.4025 146.863 30.3365 146.769C30.2704 146.675 30.2932 146.545 30.3872 146.479L35.1399 143.138C33.0555 142.587 30.6179 141.951 27.827 141.229C27.8015 141.228 27.7763 141.222 27.7529 141.21C25.2846 140.572 22.5411 139.866 19.5226 139.094L13.8258 142.182C13.7247 142.237 13.5985 142.199 13.5438 142.098C13.4891 141.997 13.5267 141.87 13.6277 141.816L18.9285 138.942C15.1613 137.979 10.9758 136.914 6.37194 135.748C6.26054 135.72 6.19307 135.606 6.22125 135.495C6.24942 135.383 6.36257 135.316 6.47398 135.344C14.8801 137.474 21.8916 139.265 27.5089 140.717L25.2263 134.706C25.1277 134.446 25.5167 134.298 25.6153 134.558L28.0026 140.844Z" fill="white"/>
<path d="M18.4648 30.9922H36.7478C36.7478 39.0189 43.2496 45.5247 51.2685 45.5247V63.8131C33.1509 63.8131 18.4648 49.118 18.4648 30.9922Z" fill="url(#paint4_linear)"/>
<path d="M12.9805 141.551H216.104C223.779 141.551 230 147.774 230 155.45H26.8755C19.2015 155.45 12.9805 149.227 12.9805 141.551Z" fill="url(#paint5_linear)"/>
<path d="M6.21735 155.458C20.648 155.458 38.8922 155.458 48.3164 155.458C48.3164 143.838 38.8922 134.418 27.2669 134.418C15.6415 134.418 6.21735 143.838 6.21735 155.458Z" fill="url(#paint6_linear)"/>
<path fill-rule="evenodd" clip-rule="evenodd" d="M117.513 111.902L97.4546 141.234L97.3922 141.234L97.3919 141.325L87.7461 155.431L87.7722 155.449H92.1641L99.381 144.895L137.742 144.97L144.907 155.449H149.338L139.913 141.667L139.914 141.317L139.673 141.316L119.617 111.987L118.627 112.665L117.513 111.902ZM135.237 141.309L101.879 141.244L118.536 116.887L135.237 141.309Z" fill="#1E1539"/>
<path d="M48.5153 20.6641H188.614C190.165 20.6641 191.422 21.9217 191.422 23.4732V129.597C191.422 131.148 190.165 132.406 188.614 132.406H48.5153C46.9643 132.406 45.707 131.148 45.707 129.597V23.4732C45.707 21.9217 46.9643 20.6641 48.5153 20.6641Z" fill="url(#paint7_linear)"/>
<path d="M56.4922 42.793H180.268V78.8211H56.4922V42.793Z" fill="url(#paint8_linear)"/>
<path d="M48.5153 20.6641H188.614C190.165 20.6641 191.422 21.9217 191.422 23.4732V35.563H45.707V23.4732C45.707 21.9217 46.9643 20.6641 48.5153 20.6641Z" fill="url(#paint9_linear)"/>
<path d="M56.8867 123.079C61.3805 114.3 67.2075 109.515 74.3679 108.722C85.1085 107.534 88.1252 111.681 92.1701 107.534C96.2151 103.386 102.294 99.482 109.699 104.242C117.104 109.002 120.912 100.95 127.459 99.3297C134.005 97.7095 138.296 104.309 144.802 107.534C151.309 110.759 153.03 98.5501 162.903 99.3297C172.775 100.109 169.667 91.0742 180.233 91.0742V123.267L56.8867 123.079Z" fill="#78BCFE"/>
<path d="M74.8667 74.0647C81.3796 74.0647 86.6593 68.7834 86.6593 62.2687C86.6593 55.7539 81.3796 50.4727 74.8667 50.4727C68.3539 50.4727 63.0742 55.7539 63.0742 62.2687C63.0742 68.7834 68.3539 74.0647 74.8667 74.0647Z" fill="#00ADFF"/>
<path d="M74.7753 74.0679C74.7753 71.6598 74.7753 67.729 74.7753 62.2756C69.0194 56.9695 66.1414 54.3164 66.1414 54.3164C64.2365 56.414 63.0742 59.208 63.0742 62.2756C63.0742 68.7883 68.313 74.0679 74.7753 74.0679Z" fill="#52D7FD"/>
<path d="M74.7773 62.1797C74.7773 62.1797 74.7773 66.1422 74.7773 74.0671C81.3407 74.0671 86.6613 68.756 86.6613 62.2045C86.6613 62.2045 82.7 62.1962 74.7773 62.1797Z" fill="#1056BF"/>
<path d="M93.7539 50.6562H172.956V54.826H93.7539V50.6562Z" fill="white"/>
<path d="M93.7539 50.6562H125.42V54.826H93.7539V50.6562Z" fill="#52D7FD"/>
<path d="M93.793 68.3984H172.995V72.7511H93.793V68.3984Z" fill="white"/>
<path d="M93.793 68.3984H133.422V72.7511H93.793V68.3984Z" fill="#1056BF"/>
<path d="M93.793 59.8008H172.995V64.1534H93.793V59.8008Z" fill="white"/>
<path d="M93.793 59.8008H142.526V64.1534H93.793V59.8008Z" fill="#00ADFF"/>
<path d="M56.8867 123.079C59.6619 116.319 65.4889 113.288 74.3679 113.984C87.6864 115.027 89.3226 111.959 92.1701 107.534C95.0177 103.108 102.294 99.4818 109.699 104.242C117.104 109.002 123.1 113.243 127.459 110.862C131.817 108.481 138.296 104.309 144.802 107.534C151.309 110.759 157.966 108.151 162.903 104.927C167.839 101.702 174.71 100.994 180.05 106.338V123.267L56.8867 123.079Z" fill="#BDDEFF"/>
<path fill-rule="evenodd" clip-rule="evenodd" d="M56.8578 86.5039H56.4922V123.264H56.8578V86.5039ZM74.4095 86.5039H74.0439V123.264H74.4095V86.5039ZM91.9612 86.5039H92.3268V123.264H91.9612V86.5039ZM109.877 86.5039H109.512V123.264H109.877V86.5039ZM127.246 86.5039H127.612V123.264H127.246V86.5039ZM145.166 86.5039H144.801V123.264H145.166V86.5039ZM162.535 86.5039H162.901V123.264H162.535V86.5039ZM180.451 86.5039H180.085V123.264H180.451V86.5039Z" fill="white"/>
<path d="M166.192 5.48828H209.888C210.898 5.48828 211.716 6.30708 211.716 7.31712V39.5047C211.716 40.5147 210.898 41.3335 209.888 41.3335H166.192C165.182 41.3335 164.363 40.5147 164.363 39.5047V7.31712C164.363 6.30708 165.182 5.48828 166.192 5.48828Z" fill="url(#paint10_linear)"/>
<path d="M178.809 14.2656L197.274 23.5013L178.809 32.7369V14.2656Z" fill="white"/>
<path d="M210.684 151.494C211.097 150.759 211.52 150.136 211.951 149.622C212.597 148.853 212.826 149.128 213.028 149.479C213.231 149.83 213.686 150.618 214.053 151.254C214.421 151.891 214.264 152.075 213.098 152.646C211.932 153.217 211.735 153.193 210.663 154.053C209.59 154.912 207.196 156.249 206.201 155.722C205.206 155.194 206.681 153.89 208.027 152.849C208.924 152.155 209.81 151.703 210.684 151.494Z" fill="#221E41"/>
<path d="M211.535 145.723L213.166 149.715L212.594 150.431C211.554 151.732 210.026 152.551 208.367 152.698L209.95 151.264L208.117 148.088L211.535 145.723Z" fill="#F4B696"/>
<path d="M208.194 150.004L198.719 129.397L202.792 101.352L207.072 128.953L213.018 147.619L208.194 150.004Z" fill="#211D41"/>
<path d="M176.466 60.9961L174.874 59.2196C175.143 57.9067 174.844 56.9386 173.979 56.3152L173.513 57.2503C172.665 56.6269 171.946 55.9288 171.355 55.1561C170.47 53.9969 168.695 56.5765 169.209 58.4607C169.723 60.3449 171.662 60.8077 172.76 61.8723C172.936 62.0425 173.561 62.5959 174.637 63.5324L176.466 60.9961Z" fill="#F4B696"/>
<path d="M192.955 153.102C193.68 152.673 194.357 152.344 194.987 152.115C195.931 151.772 195.992 152.125 195.992 152.53C195.992 152.936 195.992 153.845 195.992 154.58C195.992 155.315 195.764 155.397 194.469 155.308C193.174 155.22 193.016 155.1 191.657 155.308C190.299 155.516 187.557 155.476 186.959 154.522C186.361 153.568 188.29 153.176 189.976 152.947C191.1 152.795 192.093 152.847 192.955 153.102Z" fill="#221E41"/>
<path d="M195.995 148.867V152.802L195.141 153.135C193.59 153.742 191.858 153.687 190.348 152.984L192.435 152.534V148.867H195.995Z" fill="#F4B696"/>
<path d="M199.045 73.8048L183.867 72.7527C183.033 72.6949 182.253 72.3221 181.684 71.71L172.797 62.1469L175.955 59.8047L183.615 66.284C195.101 65.8198 200.964 65.5878 201.202 65.5878C201.44 65.5878 201.44 66.0881 201.202 67.0887L199.045 73.8048Z" fill="#211D41"/>
<path d="M178.624 89.8427L179.755 92.7583C178.384 93.1506 177.579 93.3741 177.34 93.4287C175.85 93.7703 174.406 95.1448 172.546 94.5498C170.686 93.9549 169.49 91.0609 170.944 90.9492C171.914 90.8747 172.891 90.6516 173.875 90.2799L173.345 89.3798C174.339 88.9933 175.313 89.2702 176.268 90.2105L178.624 89.8427Z" fill="#F4B696"/>
<path d="M196.483 67.3658L195.809 63.2795C193.784 63.5849 192.671 62.9799 192.47 61.4643C192.268 59.9488 192.157 59.0393 192.136 58.736L191.004 58.5245L192.47 56.4988L193.246 52.882C195.101 52.1982 197.131 52.9 199.336 54.9873C202.645 58.1183 200.992 65.2054 200.553 66.9035C200.26 68.0355 198.904 68.1896 196.483 67.3658Z" fill="#F4B696"/>
<path d="M196.906 151.182H191.082L186.852 97.7034L202.916 97.625C203.294 100.56 203.232 103.534 202.732 106.45L199.033 128.035L196.906 151.182Z" fill="#312C74"/>
<path d="M186.852 97.7019L189.721 77.5748C188.537 74.7459 188.579 72.15 189.848 69.7872C190.44 68.6845 192.139 67.8147 193.614 67.0627C196.838 65.4187 200.555 64.7734 201.532 64.7734C203.355 65.439 204.106 67.9193 203.786 72.2145C203.466 76.5097 203.185 85.0223 202.942 97.7522L186.852 97.7019Z" fill="url(#paint11_linear)"/>
<path d="M197.492 75.3945L199.654 77.0952L192.182 90.9859C191.808 91.6804 191.154 92.1805 190.386 92.3585L187.434 93.0425L187.949 89.5415L197.492 75.3945Z" fill="#211D41"/>
<path d="M191.593 52.7044C190.527 54.3956 191.762 55.6922 195.296 56.5944C200.598 57.9477 195.81 59.5507 197.988 62.6053C200.166 65.6599 195.125 70.397 199.034 74.7485C201.64 77.6495 203.08 79.3866 203.354 79.9598C205.554 78.5931 206.654 76.6019 206.654 73.9862C206.654 70.0625 202.663 65.4634 203.267 61.5455C203.87 57.6276 204.003 53.6979 199.31 51.3195C196.181 49.7339 193.609 50.1955 191.593 52.7044Z" fill="url(#paint12_linear)"/>
<path d="M200.276 76.4178L191.758 89.0675C191.302 89.7445 190.611 90.2279 189.819 90.424L177.57 93.4557L177.121 89.5487L186.05 86.0246C191.391 75.8419 194.121 70.6473 194.24 70.441C194.36 70.2347 194.793 70.4849 195.54 71.1915L200.276 76.4178Z" fill="url(#paint13_linear)"/>
<path fill-rule="evenodd" clip-rule="evenodd" d="M195.023 102.53L195.206 102.535L195.243 101.255L195.06 101.25L195.023 102.53ZM195.116 105.644L194.934 105.639L194.97 104.359L195.153 104.365L195.116 105.644ZM194.848 108.745L195.03 108.75L195.067 107.47L194.884 107.465L194.848 108.745ZM194.941 111.859L194.758 111.854L194.795 110.574L194.977 110.579L194.941 111.859ZM194.668 114.959L194.851 114.965L194.888 113.685L194.705 113.68L194.668 114.959ZM194.76 118.074L194.578 118.068L194.615 116.789L194.797 116.794L194.76 118.074ZM194.488 121.174L194.671 121.179L194.708 119.9L194.525 119.895L194.488 121.174ZM194.582 124.289L194.399 124.284L194.436 123.004L194.618 123.009L194.582 124.289ZM194.309 127.393L194.491 127.398L194.528 126.119L194.345 126.113L194.309 127.393ZM194.402 130.504L194.219 130.498L194.256 129.219L194.438 129.224L194.402 130.504ZM194.129 133.608L194.312 133.613L194.348 132.333L194.166 132.328L194.129 133.608ZM194.226 136.719L194.043 136.713L194.08 135.434L194.263 135.439L194.226 136.719ZM193.953 139.823L194.136 139.828L194.173 138.548L193.99 138.543L193.953 139.823ZM194.046 142.937L193.863 142.932L193.9 141.652L194.083 141.658L194.046 142.937ZM193.773 146.038L193.956 146.043L193.993 144.764L193.81 144.758L193.773 146.038ZM193.684 149.147L193.866 149.152L193.903 147.872L193.72 147.867L193.684 149.147Z" fill="#A587FF"/>
<path d="M30.7785 77.9375L34.7404 81.7784L33.1562 85.732L36.7571 90.7492L34.7404 93.5266L29.718 88.1568C28.1637 86.495 27.7963 84.0458 28.7947 82.0008L30.7785 77.9375Z" fill="#F4B696"/>
<path d="M40.3718 65.6328L35.6335 67.75L29.7773 77.8858L33.6536 82.8062L40.3718 75.4988V65.6328Z" fill="#221E41"/>
<path d="M36.6484 148.207H40.6027V152.16H36.6484V148.207Z" fill="#F4B696"/>
<path d="M48.2891 148.207H52.2433V152.16H48.2891V148.207Z" fill="#F4B696"/>
<path d="M41.316 150.609H36.1732L33.8789 97.7227L46.8327 98.0432L41.316 150.609Z" fill="#211D41"/>
<path d="M53.0523 150.548H47.6129L46.054 122.448L33.8633 97.7891L51.3932 98.078L55.0705 116.211C55.4848 118.255 55.606 120.346 55.4304 122.424L53.0523 150.548Z" fill="url(#paint14_linear)"/>
<path d="M48.0703 151.719H52.2236L54.8545 152.597C56.1803 153.067 57.2968 153.259 57.2968 154.73C57.2968 155.108 57.0465 155.414 56.7377 155.414H48.9479C48.4632 155.414 48.0703 155.021 48.0703 154.536V151.719Z" fill="#211D41"/>
<path d="M54.8477 66.4199H65.9217L81.4491 58.617L82.9189 56.7578V58.617H86.629C86.2708 60.588 85.5629 61.8121 84.5053 62.2892C83.4477 62.7663 81.9202 62.7663 79.9228 62.2892L66.1399 72.2791L54.8477 73.8878V66.4199Z" fill="#F4B696"/>
<path d="M36.4297 151.719H40.583L43.2139 152.597C44.5396 153.067 45.6562 153.259 45.6562 154.73C45.6562 155.108 45.4059 155.414 45.097 155.414H37.3073C36.8226 155.414 36.4297 155.021 36.4297 154.536V151.719Z" fill="#211D41"/>
<path d="M46.128 65.9194C46.2736 63.6902 46.7081 62.4252 47.4316 62.1243C48.5168 61.673 49.2134 61.4469 49.0718 60.3046C48.9301 59.1623 49.2371 58.7777 49.7098 58.5514C50.1825 58.3251 50.5622 57.5995 49.2126 56.8222C48.313 56.304 47.7968 55.06 47.6641 53.0901C42.7988 51.4999 40.1014 52.4116 39.5717 55.8251C39.0421 59.2387 39.4046 61.9057 40.6592 63.8262V65.9194H46.128Z" fill="#F4B696"/>
<path d="M57.7698 65.2148V74.1579H51.4085V98.1096H33.5625V72.896C33.5625 68.6538 37.0004 65.2148 41.2414 65.2148C42.0439 65.2148 42.8465 65.2148 43.649 65.2148C45.3031 65.2148 50.0101 65.2148 57.7698 65.2148Z" fill="url(#paint15_linear)"/>
<path d="M40.5855 63.7825C42.0844 63.7366 42.941 63.4778 43.1554 63.0059C43.4769 62.2982 43.5191 61.0364 43.4474 60.6381C43.3757 60.2399 42.9218 60.4066 42.5635 60.4066C42.2051 60.4066 41.6488 59.5998 42.0201 58.9932C42.3913 58.3866 42.9049 58.4816 43.1554 58.5893C43.4059 58.697 44.0082 58.3953 43.8064 57.4158C43.6046 56.4362 43.1541 55.5188 43.8064 55.5188C44.4587 55.5188 48.114 55.0995 48.3068 52.6176C48.4996 50.1356 47.0595 48.7293 44.7473 49.8617C42.4351 50.994 41.6906 50.8887 39.9485 51.2863C38.2064 51.6839 36.4721 52.1719 36.1051 55.2281C35.738 58.2843 36.9585 59.8396 38.3632 60.9488C39.7678 62.058 39.446 62.398 39.6406 63.0059C39.7703 63.4113 40.0853 63.6701 40.5855 63.7825Z" fill="url(#paint16_linear)"/>
<path fill-rule="evenodd" clip-rule="evenodd" d="M43.6406 99.263L43.812 99.1992L44.2582 100.399L44.0868 100.463L43.6406 99.263ZM44.7227 102.177L44.894 102.113L45.3402 103.313L45.1688 103.377L44.7227 102.177ZM45.9792 105.027L45.8078 105.091L46.254 106.291L46.4254 106.227L45.9792 105.027ZM46.8914 108.005L47.0628 107.941L47.509 109.141L47.3376 109.205L46.8914 108.005ZM48.1479 110.855L47.9766 110.919L48.4228 112.119L48.5941 112.055L48.1479 110.855ZM49.0586 113.833L49.23 113.769L49.6762 114.969L49.5048 115.033L49.0586 113.833ZM50.313 116.684L50.141 116.746C50.2848 117.146 50.4145 117.551 50.53 117.959L50.7059 117.91C50.5893 117.497 50.4583 117.088 50.313 116.684ZM50.9375 119.735L51.1175 119.703C51.1923 120.126 51.2522 120.55 51.2972 120.977L51.1154 120.996C51.0708 120.574 51.0115 120.153 50.9375 119.735ZM51.3998 122.816L51.217 122.817C51.218 123.014 51.2158 123.21 51.2104 123.406L51.1914 124.097L51.3742 124.102L51.3932 123.411C51.3986 123.213 51.4008 123.015 51.3998 122.816ZM51.1407 125.926L51.3234 125.931L51.2882 127.211L51.1055 127.205L51.1407 125.926ZM51.2375 129.036L51.0547 129.031L51.0195 130.311L51.2023 130.316L51.2375 129.036ZM50.9684 132.14L51.1512 132.145L51.1159 133.425L50.9332 133.42L50.9684 132.14ZM51.0656 135.255L50.8829 135.25L50.8477 136.53L51.0304 136.535L51.0656 135.255ZM50.7974 138.356L50.9802 138.361L50.945 139.641L50.7622 139.636L50.7974 138.356ZM50.8947 141.469L50.7119 141.464L50.6767 142.744L50.8595 142.749L50.8947 141.469ZM50.625 144.57L50.8078 144.575L50.7726 145.855L50.5898 145.85L50.625 144.57ZM50.7219 147.685L50.5391 147.68L50.5039 148.959L50.6867 148.964L50.7219 147.685Z" fill="#A587FF"/>
<defs>
<linearGradient id="paint0_linear" x1="14.0674" y1="23.0781" x2="43.9324" y2="45.9111" gradientUnits="userSpaceOnUse">
<stop stop-color="#CFE49F"/>
<stop offset="1" stop-color="#A9D386"/>
</linearGradient>
<linearGradient id="paint1_linear" x1="-8.42664" y1="128.659" x2="19.3722" y2="151.501" gradientUnits="userSpaceOnUse">
<stop stop-color="#6EAE7C"/>
<stop offset="1" stop-color="#0F575D"/>
</linearGradient>
<linearGradient id="paint2_linear" x1="14.1198" y1="113.008" x2="28.9634" y2="119.56" gradientUnits="userSpaceOnUse">
<stop stop-color="#CFE49F"/>
<stop offset="1" stop-color="#A9D386"/>
</linearGradient>
<linearGradient id="paint3_linear" x1="7.27536" y1="133.727" x2="12.4879" y2="148.907" gradientUnits="userSpaceOnUse">
<stop stop-color="#77D791"/>
<stop offset="1" stop-color="#4FA67E"/>
</linearGradient>
<linearGradient id="paint4_linear" x1="10.8672" y1="54.6824" x2="42.1157" y2="73" gradientUnits="userSpaceOnUse">
<stop stop-color="#6EAE7C"/>
<stop offset="1" stop-color="#0F575D"/>
</linearGradient>
<linearGradient id="paint5_linear" x1="-34.5396" y1="142.56" x2="-34.5396" y2="162.547" gradientUnits="userSpaceOnUse">
<stop stop-color="#D0F6FF"/>
<stop offset="1" stop-color="#8BE2F7"/>
</linearGradient>
<linearGradient id="paint6_linear" x1="48.3164" y1="134.418" x2="6.21735" y2="134.418" gradientUnits="userSpaceOnUse">
<stop stop-color="#FF9485"/>
<stop offset="1" stop-color="#FF676E"/>
</linearGradient>
<linearGradient id="paint7_linear" x1="195.838" y1="139.179" x2="195.838" y2="20.6641" gradientUnits="userSpaceOnUse">
<stop stop-color="#CAF6FD"/>
<stop offset="1" stop-color="white"/>
</linearGradient>
<linearGradient id="paint8_linear" x1="29.3893" y1="45.4102" x2="29.3893" y2="97.2163" gradientUnits="userSpaceOnUse">
<stop stop-color="#D0F6FF"/>
<stop offset="1" stop-color="#8BE2F7"/>
</linearGradient>
<linearGradient id="paint9_linear" x1="182.762" y1="37.7208" x2="182.776" y2="24.5914" gradientUnits="userSpaceOnUse">
<stop stop-color="#2B3389"/>
<stop offset="1" stop-color="#444FB7"/>
</linearGradient>
<linearGradient id="paint10_linear" x1="164.363" y1="5.48828" x2="164.363" y2="41.3335" gradientUnits="userSpaceOnUse">
<stop stop-color="#FF9485"/>
<stop offset="1" stop-color="#FF676E"/>
</linearGradient>
<linearGradient id="paint11_linear" x1="184.525" y1="55.7491" x2="184.525" y2="97.7522" gradientUnits="userSpaceOnUse">
<stop stop-color="#C0E4FD"/>
<stop offset="1" stop-color="#72B9FE"/>
</linearGradient>
<linearGradient id="paint12_linear" x1="191.223" y1="50.3984" x2="191.223" y2="79.9598" gradientUnits="userSpaceOnUse">
<stop stop-color="#1D2A78"/>
<stop offset="1" stop-color="#12033B"/>
</linearGradient>
<linearGradient id="paint13_linear" x1="173.953" y1="64.0542" x2="173.953" y2="93.4557" gradientUnits="userSpaceOnUse">
<stop stop-color="#C0E4FD"/>
<stop offset="1" stop-color="#72B9FE"/>
</linearGradient>
<linearGradient id="paint14_linear" x1="25.8045" y1="69.8524" x2="25.8045" y2="196.272" gradientUnits="userSpaceOnUse">
<stop stop-color="#1533B6"/>
<stop offset="1" stop-color="#356BE9"/>
</linearGradient>
<linearGradient id="paint15_linear" x1="33.5625" y1="65.2148" x2="33.5625" y2="98.1096" gradientUnits="userSpaceOnUse">
<stop stop-color="#FF9485"/>
<stop offset="1" stop-color="#FF676E"/>
</linearGradient>
<linearGradient id="paint16_linear" x1="36.0391" y1="49.4648" x2="36.0391" y2="63.7825" gradientUnits="userSpaceOnUse">
<stop stop-color="#1D2A78"/>
<stop offset="1" stop-color="#12033B"/>
</linearGradient>
</defs>
</svg>
