<svg width="230" height="155" viewBox="0 0 230 155" fill="none" xmlns="http://www.w3.org/2000/svg">
<path fill-rule="evenodd" clip-rule="evenodd" d="M198.151 20.192C198.571 20.192 198.912 19.8509 198.912 19.43C198.912 19.0091 198.571 18.668 198.151 18.668C197.731 18.668 197.391 19.0091 197.391 19.43C197.391 19.8509 197.731 20.192 198.151 20.192ZM198.912 22.4769C198.912 22.8977 198.571 23.2389 198.151 23.2389C197.731 23.2389 197.391 22.8977 197.391 22.4769C197.391 22.056 197.731 21.7148 198.151 21.7148C198.571 21.7148 198.912 22.056 198.912 22.4769ZM198.151 26.2897C198.571 26.2897 198.912 25.9485 198.912 25.5277C198.912 25.1068 198.571 24.7656 198.151 24.7656C197.731 24.7656 197.391 25.1068 197.391 25.5277C197.391 25.9485 197.731 26.2897 198.151 26.2897ZM198.912 28.5745C198.912 28.9954 198.571 29.3365 198.151 29.3365C197.731 29.3365 197.391 28.9954 197.391 28.5745C197.391 28.1536 197.731 27.8124 198.151 27.8124C198.571 27.8124 198.912 28.1536 198.912 28.5745ZM198.151 32.3835C198.571 32.3835 198.912 32.0423 198.912 31.6214C198.912 31.2006 198.571 30.8594 198.151 30.8594C197.731 30.8594 197.391 31.2006 197.391 31.6214C197.391 32.0423 197.731 32.3835 198.151 32.3835ZM198.151 35.4342C198.571 35.4342 198.912 35.0931 198.912 34.6722C198.912 34.2513 198.571 33.9102 198.151 33.9102C197.731 33.9102 197.391 34.2513 197.391 34.6722C197.391 35.0931 197.731 35.4342 198.151 35.4342ZM201.955 34.6722C201.955 35.0931 201.614 35.4342 201.194 35.4342C200.774 35.4342 200.434 35.0931 200.434 34.6722C200.434 34.2513 200.774 33.9102 201.194 33.9102C201.614 33.9102 201.955 34.2513 201.955 34.6722ZM201.194 32.3835C201.614 32.3835 201.955 32.0423 201.955 31.6214C201.955 31.2006 201.614 30.8594 201.194 30.8594C200.774 30.8594 200.434 31.2006 200.434 31.6214C200.434 32.0423 200.774 32.3835 201.194 32.3835ZM201.955 28.5745C201.955 28.9954 201.614 29.3366 201.194 29.3366C200.774 29.3366 200.434 28.9954 200.434 28.5745C200.434 28.1537 200.774 27.8125 201.194 27.8125C201.614 27.8125 201.955 28.1537 201.955 28.5745ZM201.194 26.2897C201.614 26.2897 201.955 25.9485 201.955 25.5277C201.955 25.1068 201.614 24.7656 201.194 24.7656C200.774 24.7656 200.434 25.1068 200.434 25.5277C200.434 25.9485 200.774 26.2897 201.194 26.2897ZM201.955 22.4769C201.955 22.8977 201.614 23.2389 201.194 23.2389C200.774 23.2389 200.434 22.8977 200.434 22.4769C200.434 22.056 200.774 21.7148 201.194 21.7148C201.614 21.7148 201.955 22.056 201.955 22.4769ZM201.194 20.192C201.614 20.192 201.955 19.8509 201.955 19.43C201.955 19.0091 201.614 18.668 201.194 18.668C200.774 18.668 200.434 19.0091 200.434 19.43C200.434 19.8509 200.774 20.192 201.194 20.192ZM204.998 34.6722C204.998 35.0931 204.657 35.4342 204.237 35.4342C203.817 35.4342 203.477 35.0931 203.477 34.6722C203.477 34.2513 203.817 33.9102 204.237 33.9102C204.657 33.9102 204.998 34.2513 204.998 34.6722ZM204.237 32.3835C204.657 32.3835 204.998 32.0423 204.998 31.6214C204.998 31.2006 204.657 30.8594 204.237 30.8594C203.817 30.8594 203.477 31.2006 203.477 31.6214C203.477 32.0423 203.817 32.3835 204.237 32.3835ZM204.998 28.5745C204.998 28.9954 204.657 29.3366 204.237 29.3366C203.817 29.3366 203.477 28.9954 203.477 28.5745C203.477 28.1537 203.817 27.8125 204.237 27.8125C204.657 27.8125 204.998 28.1537 204.998 28.5745ZM204.237 26.2897C204.657 26.2897 204.998 25.9485 204.998 25.5277C204.998 25.1068 204.657 24.7656 204.237 24.7656C203.817 24.7656 203.477 25.1068 203.477 25.5277C203.477 25.9485 203.817 26.2897 204.237 26.2897ZM204.998 22.4769C204.998 22.8977 204.657 23.2389 204.237 23.2389C203.817 23.2389 203.477 22.8977 203.477 22.4769C203.477 22.056 203.817 21.7148 204.237 21.7148C204.657 21.7148 204.998 22.056 204.998 22.4769ZM204.237 20.192C204.657 20.192 204.998 19.8509 204.998 19.43C204.998 19.0091 204.657 18.668 204.237 18.668C203.817 18.668 203.477 19.0091 203.477 19.43C203.477 19.8509 203.817 20.192 204.237 20.192ZM208.041 34.6722C208.041 35.0931 207.7 35.4342 207.28 35.4342C206.86 35.4342 206.52 35.0931 206.52 34.6722C206.52 34.2513 206.86 33.9102 207.28 33.9102C207.7 33.9102 208.041 34.2513 208.041 34.6722ZM207.28 32.3835C207.7 32.3835 208.041 32.0423 208.041 31.6214C208.041 31.2006 207.7 30.8594 207.28 30.8594C206.86 30.8594 206.52 31.2006 206.52 31.6214C206.52 32.0423 206.86 32.3835 207.28 32.3835ZM208.041 28.5745C208.041 28.9954 207.7 29.3366 207.28 29.3366C206.86 29.3366 206.52 28.9954 206.52 28.5745C206.52 28.1537 206.86 27.8125 207.28 27.8125C207.7 27.8125 208.041 28.1537 208.041 28.5745ZM207.28 26.2897C207.7 26.2897 208.041 25.9485 208.041 25.5277C208.041 25.1068 207.7 24.7656 207.28 24.7656C206.86 24.7656 206.52 25.1068 206.52 25.5277C206.52 25.9485 206.86 26.2897 207.28 26.2897ZM208.041 22.4769C208.041 22.8977 207.7 23.2389 207.28 23.2389C206.86 23.2389 206.52 22.8977 206.52 22.4769C206.52 22.056 206.86 21.7148 207.28 21.7148C207.7 21.7148 208.041 22.056 208.041 22.4769ZM207.28 20.192C207.7 20.192 208.041 19.8509 208.041 19.43C208.041 19.0091 207.7 18.668 207.28 18.668C206.86 18.668 206.52 19.0091 206.52 19.43C206.52 19.8509 206.86 20.192 207.28 20.192ZM211.084 34.6722C211.084 35.0931 210.743 35.4342 210.323 35.4342C209.903 35.4342 209.562 35.0931 209.562 34.6722C209.562 34.2513 209.903 33.9102 210.323 33.9102C210.743 33.9102 211.084 34.2513 211.084 34.6722ZM210.323 32.3835C210.743 32.3835 211.084 32.0423 211.084 31.6214C211.084 31.2006 210.743 30.8594 210.323 30.8594C209.903 30.8594 209.562 31.2006 209.562 31.6214C209.562 32.0423 209.903 32.3835 210.323 32.3835ZM211.084 28.5745C211.084 28.9954 210.743 29.3366 210.323 29.3366C209.903 29.3366 209.562 28.9954 209.562 28.5745C209.562 28.1537 209.903 27.8125 210.323 27.8125C210.743 27.8125 211.084 28.1537 211.084 28.5745ZM210.323 26.2897C210.743 26.2897 211.084 25.9485 211.084 25.5277C211.084 25.1068 210.743 24.7656 210.323 24.7656C209.903 24.7656 209.562 25.1068 209.562 25.5277C209.562 25.9485 209.903 26.2897 210.323 26.2897ZM211.084 22.4769C211.084 22.8977 210.743 23.2389 210.323 23.2389C209.903 23.2389 209.562 22.8977 209.562 22.4769C209.562 22.056 209.903 21.7148 210.323 21.7148C210.743 21.7148 211.084 22.056 211.084 22.4769ZM210.323 20.192C210.743 20.192 211.084 19.8509 211.084 19.43C211.084 19.0091 210.743 18.668 210.323 18.668C209.903 18.668 209.562 19.0091 209.562 19.43C209.562 19.8509 209.903 20.192 210.323 20.192ZM214.127 34.6722C214.127 35.0931 213.786 35.4342 213.366 35.4342C212.946 35.4342 212.605 35.0931 212.605 34.6722C212.605 34.2513 212.946 33.9102 213.366 33.9102C213.786 33.9102 214.127 34.2513 214.127 34.6722ZM213.366 32.3835C213.786 32.3835 214.127 32.0423 214.127 31.6214C214.127 31.2006 213.786 30.8594 213.366 30.8594C212.946 30.8594 212.605 31.2006 212.605 31.6214C212.605 32.0423 212.946 32.3835 213.366 32.3835ZM214.127 28.5745C214.127 28.9954 213.786 29.3366 213.366 29.3366C212.946 29.3366 212.605 28.9954 212.605 28.5745C212.605 28.1537 212.946 27.8125 213.366 27.8125C213.786 27.8125 214.127 28.1537 214.127 28.5745ZM213.366 26.2897C213.786 26.2897 214.127 25.9485 214.127 25.5277C214.127 25.1068 213.786 24.7656 213.366 24.7656C212.946 24.7656 212.605 25.1068 212.605 25.5277C212.605 25.9485 212.946 26.2897 213.366 26.2897ZM214.127 22.4769C214.127 22.8977 213.786 23.2389 213.366 23.2389C212.946 23.2389 212.605 22.8977 212.605 22.4769C212.605 22.056 212.946 21.7148 213.366 21.7148C213.786 21.7148 214.127 22.056 214.127 22.4769ZM213.366 20.192C213.786 20.192 214.127 19.8509 214.127 19.43C214.127 19.0091 213.786 18.668 213.366 18.668C212.946 18.668 212.605 19.0091 212.605 19.43C212.605 19.8509 212.946 20.192 213.366 20.192Z" fill="url(#paint0_linear)"/>
<path d="M196.87 60.325C206.209 60.325 213.779 52.7407 213.779 43.3851C213.779 34.0295 206.209 26.4453 196.87 26.4453C187.531 26.4453 179.961 34.0295 179.961 43.3851C179.961 52.7407 187.531 60.325 196.87 60.325Z" fill="url(#paint1_linear)"/>
<path d="M118.192 3.10938C127.721 3.10938 135.446 10.8484 135.446 20.3949V28.5191H95.0707C85.5414 28.5191 77.8164 20.7801 77.8164 11.2336V3.10938H118.192Z" fill="url(#paint2_linear)"/>
<path d="M134.238 134.827C134.238 114.397 150.714 97.8359 171.038 97.8359C191.362 97.8359 207.837 114.397 207.837 134.827H134.238Z" fill="url(#paint3_linear)"/>
<path d="M34.3361 112.385C24.6252 116.779 16.8615 116.723 11.0451 112.218C5.22861 107.713 1.54693 101.298 0 92.9729C18.1812 87.5033 29.6266 93.974 34.3361 112.385Z" fill="url(#paint4_linear)"/>
<path d="M19.9986 104.485C17.9027 103.294 15.5722 101.974 13.007 100.525L7.05677 101.952C6.95121 101.978 6.84522 101.912 6.82003 101.806C6.79485 101.7 6.86 101.593 6.96556 101.568L12.5022 100.24C9.3007 98.4323 5.74237 96.4288 1.82725 94.2294C1.73251 94.1762 1.69862 94.0559 1.75156 93.9606C1.80449 93.8654 1.9242 93.8313 2.01894 93.8845C9.16751 97.9003 15.1266 101.263 19.8964 103.973L19.281 97.9087C19.2544 97.6467 19.6453 97.6066 19.6719 97.8686L20.3156 104.211C26.675 107.826 30.857 110.245 32.8623 111.47C32.9551 111.527 32.9846 111.648 32.9283 111.741C32.872 111.835 32.7511 111.864 32.6583 111.808C31.4584 111.075 29.4761 109.913 26.7114 108.321C26.7041 108.325 26.6965 108.328 26.6886 108.331L21.2509 110.327C21.1489 110.365 21.0361 110.312 20.9989 110.21C20.9617 110.107 21.0141 109.994 21.116 109.956L26.2668 108.065C24.4997 107.049 22.4312 105.868 20.0615 104.521C20.0386 104.513 20.0172 104.501 19.9986 104.485Z" fill="white"/>
<path d="M32.16 117.888C22.1778 114.099 16.7123 108.555 15.7635 101.255C14.8146 93.956 16.7256 86.824 21.4964 79.8594C38.2427 88.8956 41.7972 101.572 32.16 117.888Z" fill="url(#paint5_linear)"/>
<path d="M28.0492 102.211C29.999 109.287 31.2516 113.97 31.807 116.261C31.8327 116.367 31.7683 116.474 31.6631 116.5C31.558 116.526 31.4519 116.461 31.4262 116.355C31.0938 114.984 30.5109 112.753 29.6774 109.663C29.6697 109.66 29.662 109.657 29.6544 109.654L24.4175 107.2C24.3194 107.154 24.2768 107.037 24.3224 106.938C24.3681 106.839 24.4847 106.796 24.5829 106.842L29.5433 109.166C29.0096 107.192 28.3795 104.886 27.6528 102.249C27.6421 102.228 27.6353 102.204 27.6335 102.18C26.9908 99.8477 26.2729 97.2579 25.4799 94.4104L20.2809 91.1901C20.1887 91.133 20.1599 91.0113 20.2166 90.9184C20.2733 90.8255 20.394 90.7964 20.4862 90.8536L25.3238 93.85C24.3337 90.2965 23.2292 86.3508 22.0106 82.0131C21.9811 81.9081 22.0416 81.799 22.1458 81.7692C22.25 81.7395 22.3583 81.8005 22.3878 81.9055C24.613 89.8257 26.4572 96.4388 27.9206 101.745L31.7414 97.0202C31.9065 96.8161 32.2104 97.0656 32.0453 97.2698L28.0492 102.211Z" fill="white"/>
<path d="M42.1008 124.727C33.8573 131.503 26.3495 133.472 19.5772 130.633C12.8049 127.795 7.60212 122.555 3.96875 114.912C20.1112 104.891 32.8219 108.163 42.1008 124.727Z" fill="url(#paint6_linear)"/>
<path d="M26.429 120.328C33.4973 122.16 38.1563 123.405 40.407 124.064C40.5111 124.094 40.5708 124.204 40.5404 124.308C40.5101 124.412 40.401 124.472 40.2969 124.442C38.9502 124.048 36.7378 123.443 33.6597 122.627C33.6536 122.632 33.6472 122.637 33.6403 122.642L28.9051 125.976C28.8164 126.039 28.6939 126.017 28.6316 125.928C28.5693 125.839 28.5908 125.716 28.6795 125.654L33.1648 122.496C31.1977 121.976 28.8972 121.374 26.2633 120.692C26.2393 120.691 26.2155 120.685 26.1935 120.674C23.864 120.07 21.2749 119.404 18.4262 118.674L13.0499 121.593C12.9545 121.644 12.8354 121.609 12.7838 121.513C12.7322 121.417 12.7676 121.298 12.863 121.246L17.8655 118.53C14.3103 117.62 10.3603 116.614 6.01544 115.511C5.91031 115.485 5.84664 115.377 5.87323 115.272C5.89982 115.166 6.00661 115.103 6.11174 115.129C14.0449 117.142 20.6619 118.835 25.9631 120.207L23.809 114.526C23.7159 114.281 24.083 114.141 24.1761 114.386L26.429 120.328Z" fill="white"/>
<path d="M32.9548 35.7812H131.304C133.21 35.7812 134.755 37.329 134.755 39.2384V131.441C134.755 133.35 133.21 134.898 131.304 134.898H32.9548C31.0489 134.898 29.5039 133.35 29.5039 131.441V39.2384C29.5039 37.329 31.0489 35.7812 32.9548 35.7812Z" fill="url(#paint7_linear)"/>
<path fill-rule="evenodd" clip-rule="evenodd" d="M36.4062 58.4258H53.6606V75.7113H36.4062V58.4258ZM36.4062 84.3555H53.6606V101.641H36.4062V84.3555ZM53.6606 110.281H36.4062V127.567H53.6606V110.281ZM85.582 58.4258H102.836V75.7113H85.582V58.4258ZM102.836 84.3555H85.582V101.641H102.836V84.3555ZM85.582 110.281H102.836V127.567H85.582V110.281ZM78.3324 58.4258H61.0781V75.7113H78.3324V58.4258ZM61.0781 110.281H78.3324V127.567H61.0781V110.281ZM127.508 58.4258H110.254V75.7113H127.508V58.4258ZM110.254 84.3555H127.508V101.641H110.254V84.3555ZM127.508 110.281H110.254V127.567H127.508V110.281Z" fill="#77D0E6"/>
<path d="M61.0781 84.3555H78.3324V101.641H61.0781V84.3555Z" fill="url(#paint8_linear)"/>
<path d="M32.9548 35.7812H131.304C133.21 35.7812 134.755 37.329 134.755 39.2384V51.6839H29.5039V39.2384C29.5039 37.329 31.0489 35.7812 32.9548 35.7812Z" fill="url(#paint9_linear)"/>
<path d="M74.4945 88.7617L75.7262 89.9723L67.9932 97.8688L63.7539 93.6933L64.9636 92.4607L67.9711 95.4231L74.4945 88.7617Z" fill="white"/>
<path d="M41.5811 63.6107C58.1621 63.6107 71.6036 50.1448 71.6036 33.5339C71.6036 16.9229 58.1621 3.45703 41.5811 3.45703C25.0001 3.45703 11.5586 16.9229 11.5586 33.5339C11.5586 50.1448 25.0001 63.6107 41.5811 63.6107Z" fill="url(#paint10_linear)"/>
<path d="M41.6688 58.0782C55.1527 58.0782 66.0836 47.1275 66.0836 33.6192C66.0836 20.1108 55.1527 9.16016 41.6688 9.16016C28.1848 9.16016 17.2539 20.1108 17.2539 33.6192C17.2539 47.1275 28.1848 58.0782 41.6688 58.0782Z" fill="url(#paint11_linear)"/>
<path d="M20.207 34.1672C20.207 20.874 30.9639 10.0977 44.2331 10.0977C46.7385 10.0977 49.1543 10.4818 51.4251 11.1946C60.0522 14.967 66.0821 23.589 66.0821 33.6219C66.0821 47.1303 55.1512 58.081 41.6672 58.081C41.6042 58.081 41.5411 58.0807 41.4782 58.0803C29.5064 56.7111 20.207 46.5271 20.207 34.1672Z" fill="url(#paint12_linear)"/>
<path d="M52.5771 23.3573C53.2318 22.6637 54.3239 22.6331 55.0162 23.2891C55.7086 23.945 55.7391 25.039 55.0844 25.7326L40.4739 41.2104C39.9415 41.7745 39.0989 41.9137 38.4138 41.5508L28.6966 36.4039C27.8542 35.9577 27.5324 34.9118 27.9778 34.0679C28.4232 33.2239 29.4672 32.9015 30.3096 33.3477L38.8676 37.8806L52.5771 23.3573Z" fill="url(#paint13_linear)"/>
<path d="M116.922 67.877L208.92 43.1814C211.129 42.5885 213.4 43.9018 213.992 46.1149L229.711 104.887C230.303 107.1 228.992 109.375 226.783 109.968L134.785 134.663C132.576 135.256 130.305 133.943 129.713 131.73L113.994 72.9578C113.402 70.7448 114.713 68.47 116.922 67.877Z" fill="url(#paint14_linear)"/>
<path d="M171.138 86.25L226.784 109.967L134.785 134.662L171.138 86.25Z" fill="url(#paint15_linear)"/>
<path d="M116.922 67.8752L208.92 43.1797L173.736 95.9624L116.922 67.8752Z" fill="#52D7FD"/>
<path d="M154.014 57.9228L151.129 47.1355L151.726 42.9922L163.829 47.3683L169.525 53.7591L154.014 57.9228Z" fill="#121958"/>
<path d="M143.67 29.4062L148.219 31.9434L147.741 35.9405L152.248 39.6398L151.088 42.669L145.199 38.9956C143.376 37.8587 142.443 35.7126 142.854 33.6013L143.67 29.4062Z" fill="#E9A17C"/>
<path d="M149.408 15.8281L151.817 24.8353L147.477 33.1507L142.742 29.6071L145.606 18.9205L149.408 15.8281Z" fill="#D64F53"/>
<path d="M178.613 69.638L178.675 66.8125L182.531 67.1819L181.948 70.3201L178.613 69.638Z" fill="#E9A17C"/>
<path d="M162.797 13.0012L190.442 5.58042L191.327 3.52344L191.781 5.22076L195.163 4.31292C195.318 6.20007 194.972 7.49082 194.124 8.18517C193.277 8.87952 191.884 9.2533 189.947 9.30651L164.62 19.8191L162.797 13.0012Z" fill="#E9A17C"/>
<path d="M154.707 15.6086L149.566 16.0593L149.394 14.0883C148.056 12.3835 147.496 9.90216 147.713 6.64443C147.931 3.3867 150.392 2.30602 155.097 3.40238C155.383 5.24625 155.971 6.37507 156.859 6.78882C158.192 7.40946 157.895 8.12399 157.469 8.376C157.043 8.62801 156.786 9.01549 157.013 10.0793C157.24 11.1432 156.604 11.4135 155.621 11.9279C154.965 12.2708 154.661 13.4977 154.707 15.6086Z" fill="#E9A17C"/>
<path d="M152.824 44.1853L167.612 42.6367L183.519 43.8886C183.84 43.9139 184.159 43.9703 184.469 44.0569C187.132 44.7995 188.689 47.5636 187.947 50.2306L183.01 67.9962L178.051 67.6007L179.289 51.2608L165.081 55.0747C159.033 56.6982 152.816 53.1025 151.195 47.0435L152.824 44.1853Z" fill="url(#paint16_linear)"/>
<path d="M178.204 69.3242L182.108 69.6665L184.51 70.7104C185.717 71.2619 186.751 71.5344 186.63 72.9197C186.599 73.2756 186.339 73.5435 186.048 73.518L178.725 72.8761C178.269 72.8362 177.932 72.4337 177.972 71.9773L178.204 69.3242Z" fill="#211D41"/>
<path d="M149.319 14.0535C148.839 13.9889 148.522 13.7711 148.367 13.4002C148.134 12.8438 148.408 12.4972 146.997 11.5685C145.585 10.6398 144.31 9.27604 144.403 6.36817C144.497 3.4603 146.087 2.85788 147.693 2.34C149.298 1.82211 150.006 1.8599 152.087 0.603184C154.168 -0.653528 155.637 0.551934 155.66 2.90472C155.683 5.25751 152.281 5.95348 151.668 6.00724C151.054 6.06099 151.553 6.88772 151.824 7.7934C152.094 8.69909 151.552 9.03278 151.308 8.952C151.064 8.87123 150.573 8.82409 150.274 9.42582C149.975 10.0276 150.564 10.7414 150.901 10.7118C151.238 10.6823 151.651 10.488 151.751 10.857C151.851 11.2261 151.915 12.4177 151.671 13.1106C151.508 13.5725 150.724 13.8868 149.319 14.0535Z" fill="url(#paint17_linear)"/>
<path d="M165.167 11.1914L167.35 19.3561L161.551 20.9127L167.4 42.7796L151.132 47.1465L144.975 24.1275C143.939 20.2545 146.234 16.2737 150.1 15.2359C150.831 15.0395 151.563 14.8431 152.294 14.6468C153.802 14.242 158.093 13.0902 165.167 11.1914Z" fill="url(#paint18_linear)"/>
<path fill-rule="evenodd" clip-rule="evenodd" d="M159.223 46.3057L159.341 46.1797L160.221 47.0077L160.103 47.1337L159.223 46.3057ZM161.363 48.3175L161.481 48.1914L161.816 48.5059C161.996 48.6752 162.186 48.8331 162.384 48.9789L162.282 49.1183C162.078 48.9684 161.883 48.806 161.698 48.632L161.363 48.3175ZM163.88 49.7852L163.82 49.9473C164.204 50.0895 164.601 50.1941 165.005 50.2594L165.032 50.0888C164.639 50.0253 164.253 49.9236 163.88 49.7852ZM166.751 50.2951L166.73 50.1235L166.769 50.1187L167.929 49.9727L167.95 50.1442L166.791 50.2902L166.751 50.2951ZM169.641 49.7564L169.662 49.9279L170.861 49.777L170.839 49.6055L169.641 49.7564ZM172.572 49.5607L172.551 49.3892L173.749 49.2383L173.771 49.4098L172.572 49.5607ZM175.461 49.026L175.482 49.1975L176.681 49.0465L176.659 48.875L175.461 49.026ZM178.393 48.8303L178.371 48.6588L179.569 48.5078L179.591 48.6793L178.393 48.8303ZM181.315 48.457L181.273 48.6248C181.659 48.721 182.01 48.9131 182.297 49.1817L182.414 49.0554C182.106 48.7669 181.73 48.5604 181.315 48.457ZM183.026 50.6431L183.198 50.625C183.22 50.8296 183.216 51.0372 183.186 51.2447L183.097 51.8584L182.926 51.8334L183.016 51.2199C183.043 51.0268 183.047 50.8335 183.026 50.6431ZM182.846 53.568L182.675 53.543L182.5 54.7402L182.671 54.7652L182.846 53.568ZM182.249 56.4492L182.42 56.4743L182.245 57.6715L182.074 57.6464L182.249 56.4492ZM181.994 59.3844L181.824 59.3594L181.648 60.5566L181.819 60.5816L181.994 59.3844ZM181.398 62.2656L181.569 62.2907L181.393 63.4879L181.223 63.4628L181.398 62.2656ZM181.147 65.1969L180.976 65.1719L180.801 66.3691L180.972 66.3941L181.147 65.1969Z" fill="white"/>
<defs>
<linearGradient id="paint0_linear" x1="197.391" y1="18.668" x2="197.391" y2="35.4342" gradientUnits="userSpaceOnUse">
<stop stop-color="#FF9485"/>
<stop offset="1" stop-color="#FF676E"/>
</linearGradient>
<linearGradient id="paint1_linear" x1="172.556" y1="28.9065" x2="172.556" y2="77.6232" gradientUnits="userSpaceOnUse">
<stop stop-color="#D0F6FF"/>
<stop offset="1" stop-color="#8BE2F7"/>
</linearGradient>
<linearGradient id="paint2_linear" x1="72.0251" y1="12.57" x2="83.0031" y2="31.6158" gradientUnits="userSpaceOnUse">
<stop stop-color="#CFE49F"/>
<stop offset="1" stop-color="#A9D386"/>
</linearGradient>
<linearGradient id="paint3_linear" x1="118.141" y1="97.8359" x2="118.141" y2="151.008" gradientUnits="userSpaceOnUse">
<stop stop-color="#FFC8C0"/>
<stop offset="1" stop-color="#FF676E"/>
</linearGradient>
<linearGradient id="paint4_linear" x1="-3.4505" y1="100.233" x2="8.77667" y2="113.317" gradientUnits="userSpaceOnUse">
<stop stop-color="#CFE49F"/>
<stop offset="1" stop-color="#A9D386"/>
</linearGradient>
<linearGradient id="paint5_linear" x1="17.1914" y1="87.1763" x2="30.6593" y2="100.577" gradientUnits="userSpaceOnUse">
<stop stop-color="#77D791"/>
<stop offset="1" stop-color="#4FA67E"/>
</linearGradient>
<linearGradient id="paint6_linear" x1="-4.86295" y1="125.591" x2="19.8433" y2="149.992" gradientUnits="userSpaceOnUse">
<stop stop-color="#6EAE7C"/>
<stop offset="1" stop-color="#0F575D"/>
</linearGradient>
<linearGradient id="paint7_linear" x1="6.45733" y1="42.9815" x2="6.45733" y2="185.504" gradientUnits="userSpaceOnUse">
<stop stop-color="#D0F6FF"/>
<stop offset="1" stop-color="#8BE2F7"/>
</linearGradient>
<linearGradient id="paint8_linear" x1="61.0781" y1="84.3555" x2="61.0781" y2="101.641" gradientUnits="userSpaceOnUse">
<stop stop-color="#FF9485"/>
<stop offset="1" stop-color="#FF676E"/>
</linearGradient>
<linearGradient id="paint9_linear" x1="35.0991" y1="39.7569" x2="36.6654" y2="58.2851" gradientUnits="userSpaceOnUse">
<stop stop-color="#0F1752"/>
<stop offset="1" stop-color="#272884"/>
</linearGradient>
<linearGradient id="paint10_linear" x1="11.5586" y1="3.45703" x2="11.5586" y2="63.6107" gradientUnits="userSpaceOnUse">
<stop stop-color="#FF9485"/>
<stop offset="1" stop-color="#FF676E"/>
</linearGradient>
<linearGradient id="paint11_linear" x1="6.5618" y1="12.7138" x2="6.5618" y2="83.0547" gradientUnits="userSpaceOnUse">
<stop stop-color="#D0F6FF"/>
<stop offset="1" stop-color="#8BE2F7"/>
</linearGradient>
<linearGradient id="paint12_linear" x1="22.0768" y1="10.0977" x2="22.0768" y2="54.1695" gradientUnits="userSpaceOnUse">
<stop stop-color="#EAFCFF"/>
<stop offset="1" stop-color="white"/>
</linearGradient>
<linearGradient id="paint13_linear" x1="27.7773" y1="22.8164" x2="27.7773" y2="41.7513" gradientUnits="userSpaceOnUse">
<stop stop-color="#FF9485"/>
<stop offset="1" stop-color="#FF676E"/>
</linearGradient>
<linearGradient id="paint14_linear" x1="113.852" y1="43.0391" x2="113.852" y2="134.806" gradientUnits="userSpaceOnUse">
<stop stop-color="#4DBCFA"/>
<stop offset="1" stop-color="#1486DB"/>
</linearGradient>
<linearGradient id="paint15_linear" x1="148.76" y1="86.25" x2="148.76" y2="119.955" gradientUnits="userSpaceOnUse">
<stop stop-color="#4DBCFA"/>
<stop offset="1" stop-color="#1486DB"/>
</linearGradient>
<linearGradient id="paint16_linear" x1="137.443" y1="29.2085" x2="137.443" y2="89.974" gradientUnits="userSpaceOnUse">
<stop stop-color="#1533B6"/>
<stop offset="1" stop-color="#356BE9"/>
</linearGradient>
<linearGradient id="paint17_linear" x1="144.398" y1="0.0976562" x2="144.398" y2="14.0535" gradientUnits="userSpaceOnUse">
<stop stop-color="#1D2A78"/>
<stop offset="1" stop-color="#12033B"/>
</linearGradient>
<linearGradient id="paint18_linear" x1="144.727" y1="11.1914" x2="144.727" y2="47.1465" gradientUnits="userSpaceOnUse">
<stop stop-color="#FF9485"/>
<stop offset="1" stop-color="#FF676E"/>
</linearGradient>
</defs>
</svg>
