<svg width="230" height="155" viewBox="0 0 230 155" fill="none" xmlns="http://www.w3.org/2000/svg">
<path fill-rule="evenodd" clip-rule="evenodd" d="M0 29.5254C0 45.8313 13.2274 59.0508 29.5453 59.0508C45.8631 59.0508 59.0905 45.8313 59.0905 29.5254C59.0905 13.2195 45.8631 0 29.5453 0C13.2274 0 0 13.2195 0 29.5254ZM45.0981 29.5254C45.0981 38.1116 38.1344 45.0712 29.5453 45.0712C20.9561 45.0712 13.9924 38.1116 13.9924 29.5254C13.9924 20.9392 20.9561 13.9796 29.5453 13.9796C38.1344 13.9796 45.0981 20.9392 45.0981 29.5254Z" fill="url(#paint0_linear)"/>
<path d="M122.084 11.0078H163.012V19.2208C163.012 28.8717 155.181 36.6953 145.522 36.6953H104.594V28.4823C104.594 18.8314 112.425 11.0078 122.084 11.0078Z" fill="url(#paint1_linear)"/>
<path d="M172.719 34.4007C176.909 18.1311 187.093 12.4131 203.271 17.2465C201.894 24.6033 198.618 30.2722 193.443 34.2532C188.267 38.2342 181.359 38.2834 172.719 34.4007Z" fill="url(#paint2_linear)"/>
<path d="M185.205 27.1447L185.778 21.5346C185.802 21.3028 186.15 21.3382 186.126 21.57L185.578 26.934C189.824 24.537 195.128 21.5626 201.492 18.0105C201.576 17.9634 201.682 17.9936 201.73 18.0778C201.777 18.1621 201.746 18.2685 201.662 18.3156C198.177 20.261 195.01 22.0332 192.16 23.632L197.088 24.8068C197.182 24.8292 197.24 24.9235 197.218 25.0173C197.196 25.1112 197.101 25.1691 197.007 25.1467L191.711 23.8842C189.428 25.1657 187.353 26.3332 185.487 27.3868C185.471 27.4012 185.452 27.4117 185.432 27.4185C183.322 28.6098 181.481 29.6549 179.908 30.5536L184.493 32.2264C184.584 32.2595 184.63 32.3599 184.597 32.4505C184.564 32.5412 184.464 32.5878 184.373 32.5547L179.533 30.7887C179.526 30.7861 179.519 30.7832 179.512 30.7799C177.051 32.1878 175.287 33.2159 174.219 33.864C174.136 33.9141 174.029 33.8878 173.979 33.8053C173.928 33.7228 173.955 33.6153 174.037 33.5652C175.822 32.4822 179.545 30.3421 185.205 27.1447Z" fill="white"/>
<path d="M174.604 39.3073C166.052 24.8426 169.206 13.6048 184.066 5.59375C188.3 11.7682 189.995 18.091 189.153 24.5622C188.311 31.0335 183.461 35.9485 174.604 39.3073Z" fill="url(#paint3_linear)"/>
<path d="M178.299 25.3533L174.734 20.9815C174.587 20.8009 174.858 20.5802 175.005 20.7608L178.414 24.9407C179.72 20.2464 181.365 14.3959 183.351 7.38891C183.377 7.29605 183.474 7.24208 183.567 7.26837C183.66 7.29466 183.714 7.39125 183.687 7.48411C182.6 11.3217 181.615 14.8124 180.731 17.9561L185.047 15.3052C185.13 15.2547 185.237 15.2803 185.288 15.3626C185.339 15.4448 185.313 15.5524 185.231 15.6029L180.592 18.4519C179.884 20.9711 179.244 23.2622 178.67 25.3252C178.669 25.347 178.663 25.3679 178.653 25.3871C178.005 27.7197 177.442 29.7594 176.966 31.5061L181.392 29.45C181.48 29.4093 181.584 29.4472 181.625 29.5347C181.665 29.6222 181.627 29.7262 181.54 29.7669L176.867 31.9375C176.86 31.9407 176.854 31.9434 176.847 31.9456C176.103 34.6797 175.583 36.6532 175.286 37.866C175.263 37.9598 175.169 38.0172 175.075 37.9943C174.981 37.9714 174.924 37.8769 174.947 37.7831C175.442 35.7562 176.56 31.6132 178.299 25.3533Z" fill="white"/>
<path d="M165.809 45.319C174.071 30.6874 185.389 27.7976 199.763 36.6495C196.528 43.3997 191.895 48.0283 185.865 50.5354C179.834 53.0426 173.149 51.3038 165.809 45.319Z" fill="url(#paint4_linear)"/>
<path d="M179.753 41.537L181.759 36.2662C181.842 36.0484 182.169 36.1727 182.086 36.3904L180.168 41.43C184.89 40.2126 190.784 38.7111 197.85 36.9254C197.944 36.9017 198.039 36.9584 198.062 37.0519C198.086 37.1455 198.029 37.2405 197.936 37.2642C194.066 38.2422 190.547 39.1349 187.38 39.9424L191.836 42.3515C191.921 42.3975 191.953 42.5035 191.907 42.5884C191.861 42.6733 191.755 42.7048 191.67 42.6589L186.881 40.0698C184.344 40.7172 182.037 41.3086 179.962 41.8439C179.943 41.8534 179.922 41.8586 179.9 41.8599C177.554 42.4653 175.505 42.9986 173.753 43.46L177.748 46.2613C177.827 46.3168 177.846 46.4258 177.791 46.5048C177.735 46.5838 177.626 46.6029 177.547 46.5474L173.329 43.59C173.323 43.5857 173.317 43.5811 173.312 43.5762C170.57 44.2998 168.599 44.8366 167.4 45.1864C167.307 45.2135 167.21 45.1603 167.183 45.0676C167.156 44.975 167.209 44.878 167.302 44.8509C169.306 44.2663 173.456 43.1617 179.753 41.537Z" fill="white"/>
<path d="M153.567 136.833C171.449 136.833 194.056 136.833 205.734 136.833C205.734 122.352 194.056 110.613 179.65 110.613C165.245 110.613 153.567 122.352 153.567 136.833Z" fill="#4BC4FC"/>
<path fill-rule="evenodd" clip-rule="evenodd" d="M178.65 85.9431C179.076 85.9431 179.421 85.5982 179.421 85.1727C179.421 84.7473 179.076 84.4023 178.65 84.4023C178.224 84.4023 177.879 84.7473 177.879 85.1727C177.879 85.5982 178.224 85.9431 178.65 85.9431ZM179.421 88.2542C179.421 88.6797 179.076 89.0246 178.65 89.0246C178.224 89.0246 177.879 88.6797 177.879 88.2542C177.879 87.8287 178.224 87.4838 178.65 87.4838C179.076 87.4838 179.421 87.8287 179.421 88.2542ZM178.65 92.1071C179.076 92.1071 179.421 91.7622 179.421 91.3368C179.421 90.9113 179.076 90.5664 178.65 90.5664C178.224 90.5664 177.879 90.9113 177.879 91.3368C177.879 91.7622 178.224 92.1071 178.65 92.1071ZM179.421 94.4188C179.421 94.8443 179.076 95.1892 178.65 95.1892C178.224 95.1892 177.879 94.8443 177.879 94.4188C177.879 93.9933 178.224 93.6484 178.65 93.6484C179.076 93.6484 179.421 93.9933 179.421 94.4188ZM178.65 98.2673C179.076 98.2673 179.421 97.9224 179.421 97.4969C179.421 97.0715 179.076 96.7266 178.65 96.7266C178.224 96.7266 177.879 97.0715 177.879 97.4969C177.879 97.9224 178.224 98.2673 178.65 98.2673ZM178.65 101.349C179.076 101.349 179.421 101.004 179.421 100.579C179.421 100.154 179.076 99.8086 178.65 99.8086C178.224 99.8086 177.879 100.154 177.879 100.579C177.879 101.004 178.224 101.349 178.65 101.349ZM182.507 100.579C182.507 101.004 182.162 101.349 181.736 101.349C181.31 101.349 180.965 101.004 180.965 100.579C180.965 100.154 181.31 99.8086 181.736 99.8086C182.162 99.8086 182.507 100.154 182.507 100.579ZM181.736 98.2673C182.162 98.2673 182.507 97.9224 182.507 97.4969C182.507 97.0715 182.162 96.7266 181.736 96.7266C181.31 96.7266 180.965 97.0715 180.965 97.4969C180.965 97.9224 181.31 98.2673 181.736 98.2673ZM182.507 94.4188C182.507 94.8443 182.162 95.1892 181.736 95.1892C181.31 95.1892 180.965 94.8443 180.965 94.4188C180.965 93.9933 181.31 93.6484 181.736 93.6484C182.162 93.6484 182.507 93.9933 182.507 94.4188ZM181.736 92.1071C182.162 92.1071 182.507 91.7622 182.507 91.3368C182.507 90.9113 182.162 90.5664 181.736 90.5664C181.31 90.5664 180.965 90.9113 180.965 91.3368C180.965 91.7622 181.31 92.1071 181.736 92.1071ZM182.507 88.2547C182.507 88.6802 182.162 89.0251 181.736 89.0251C181.31 89.0251 180.965 88.6802 180.965 88.2547C180.965 87.8293 181.31 87.4844 181.736 87.4844C182.162 87.4844 182.507 87.8293 182.507 88.2547ZM181.736 85.9431C182.162 85.9431 182.507 85.5982 182.507 85.1727C182.507 84.7473 182.162 84.4023 181.736 84.4023C181.31 84.4023 180.965 84.7473 180.965 85.1727C180.965 85.5982 181.31 85.9431 181.736 85.9431ZM185.589 100.579C185.589 101.004 185.244 101.349 184.818 101.349C184.392 101.349 184.047 101.004 184.047 100.579C184.047 100.154 184.392 99.8086 184.818 99.8086C185.244 99.8086 185.589 100.154 185.589 100.579ZM184.818 98.2673C185.244 98.2673 185.589 97.9224 185.589 97.4969C185.589 97.0715 185.244 96.7266 184.818 96.7266C184.392 96.7266 184.047 97.0715 184.047 97.4969C184.047 97.9224 184.392 98.2673 184.818 98.2673ZM185.589 94.4188C185.589 94.8443 185.244 95.1892 184.818 95.1892C184.392 95.1892 184.047 94.8443 184.047 94.4188C184.047 93.9933 184.392 93.6484 184.818 93.6484C185.244 93.6484 185.589 93.9933 185.589 94.4188ZM184.818 92.1071C185.244 92.1071 185.589 91.7622 185.589 91.3368C185.589 90.9113 185.244 90.5664 184.818 90.5664C184.392 90.5664 184.047 90.9113 184.047 91.3368C184.047 91.7622 184.392 92.1071 184.818 92.1071ZM185.589 88.2547C185.589 88.6802 185.244 89.0251 184.818 89.0251C184.392 89.0251 184.047 88.6802 184.047 88.2547C184.047 87.8293 184.392 87.4844 184.818 87.4844C185.244 87.4844 185.589 87.8293 185.589 88.2547ZM184.818 85.9431C185.244 85.9431 185.589 85.5982 185.589 85.1727C185.589 84.7473 185.244 84.4023 184.818 84.4023C184.392 84.4023 184.047 84.7473 184.047 85.1727C184.047 85.5982 184.392 85.9431 184.818 85.9431ZM188.675 100.579C188.675 101.004 188.33 101.349 187.904 101.349C187.478 101.349 187.133 101.004 187.133 100.579C187.133 100.154 187.478 99.8086 187.904 99.8086C188.33 99.8086 188.675 100.154 188.675 100.579ZM187.904 98.2673C188.33 98.2673 188.675 97.9224 188.675 97.4969C188.675 97.0715 188.33 96.7266 187.904 96.7266C187.478 96.7266 187.133 97.0715 187.133 97.4969C187.133 97.9224 187.478 98.2673 187.904 98.2673ZM188.675 94.4188C188.675 94.8443 188.33 95.1892 187.904 95.1892C187.478 95.1892 187.133 94.8443 187.133 94.4188C187.133 93.9933 187.478 93.6484 187.904 93.6484C188.33 93.6484 188.675 93.9933 188.675 94.4188ZM187.904 92.1071C188.33 92.1071 188.675 91.7622 188.675 91.3368C188.675 90.9113 188.33 90.5664 187.904 90.5664C187.478 90.5664 187.133 90.9113 187.133 91.3368C187.133 91.7622 187.478 92.1071 187.904 92.1071ZM188.675 88.2542C188.675 88.6797 188.329 89.0246 187.903 89.0246C187.478 89.0246 187.132 88.6797 187.132 88.2542C187.132 87.8287 187.478 87.4838 187.903 87.4838C188.329 87.4838 188.675 87.8287 188.675 88.2542ZM187.903 85.9431C188.329 85.9431 188.675 85.5982 188.675 85.1727C188.675 84.7473 188.329 84.4023 187.903 84.4023C187.478 84.4023 187.132 84.7473 187.132 85.1727C187.132 85.5982 187.478 85.9431 187.903 85.9431ZM191.761 100.579C191.761 101.004 191.416 101.349 190.99 101.349C190.564 101.349 190.219 101.004 190.219 100.579C190.219 100.154 190.564 99.8086 190.99 99.8086C191.416 99.8086 191.761 100.154 191.761 100.579ZM190.99 98.2673C191.416 98.2673 191.761 97.9224 191.761 97.4969C191.761 97.0715 191.416 96.7266 190.99 96.7266C190.564 96.7266 190.219 97.0715 190.219 97.4969C190.219 97.9224 190.564 98.2673 190.99 98.2673ZM191.761 94.4188C191.761 94.8443 191.416 95.1892 190.99 95.1892C190.564 95.1892 190.219 94.8443 190.219 94.4188C190.219 93.9933 190.564 93.6484 190.99 93.6484C191.416 93.6484 191.761 93.9933 191.761 94.4188ZM190.99 92.1071C191.416 92.1071 191.761 91.7622 191.761 91.3368C191.761 90.9113 191.416 90.5664 190.99 90.5664C190.564 90.5664 190.219 90.9113 190.219 91.3368C190.219 91.7622 190.564 92.1071 190.99 92.1071ZM191.761 88.2547C191.761 88.6802 191.416 89.0251 190.99 89.0251C190.564 89.0251 190.219 88.6802 190.219 88.2547C190.219 87.8293 190.564 87.4844 190.99 87.4844C191.416 87.4844 191.761 87.8293 191.761 88.2547ZM190.99 85.9431C191.416 85.9431 191.761 85.5982 191.761 85.1727C191.761 84.7473 191.416 84.4023 190.99 84.4023C190.564 84.4023 190.219 84.7473 190.219 85.1727C190.219 85.5982 190.564 85.9431 190.99 85.9431ZM194.843 100.579C194.843 101.004 194.498 101.349 194.072 101.349C193.646 101.349 193.301 101.004 193.301 100.579C193.301 100.154 193.646 99.8086 194.072 99.8086C194.498 99.8086 194.843 100.154 194.843 100.579ZM194.072 98.2673C194.498 98.2673 194.843 97.9224 194.843 97.4969C194.843 97.0715 194.498 96.7266 194.072 96.7266C193.646 96.7266 193.301 97.0715 193.301 97.4969C193.301 97.9224 193.646 98.2673 194.072 98.2673ZM194.843 94.4188C194.843 94.8443 194.498 95.1892 194.072 95.1892C193.646 95.1892 193.301 94.8443 193.301 94.4188C193.301 93.9933 193.646 93.6484 194.072 93.6484C194.498 93.6484 194.843 93.9933 194.843 94.4188ZM194.072 92.1071C194.498 92.1071 194.843 91.7622 194.843 91.3368C194.843 90.9113 194.498 90.5664 194.072 90.5664C193.646 90.5664 193.301 90.9113 193.301 91.3368C193.301 91.7622 193.646 92.1071 194.072 92.1071ZM194.844 88.2542C194.844 88.6797 194.498 89.0246 194.072 89.0246C193.647 89.0246 193.301 88.6797 193.301 88.2542C193.301 87.8287 193.647 87.4838 194.072 87.4838C194.498 87.4838 194.844 87.8287 194.844 88.2542ZM194.072 85.9431C194.498 85.9431 194.844 85.5982 194.844 85.1727C194.844 84.7473 194.498 84.4023 194.072 84.4023C193.647 84.4023 193.301 84.7473 193.301 85.1727C193.301 85.5982 193.647 85.9431 194.072 85.9431Z" fill="#CDCBDF"/>
<path d="M10.3203 130.887H185.225C185.225 134.168 182.563 136.828 179.278 136.828H16.2671C12.9828 136.828 10.3203 134.168 10.3203 130.887Z" fill="#1056BF"/>
<path d="M22.5645 23.2422H172.983C174.915 23.2422 176.481 24.8069 176.481 26.7371V128.089H19.0664V26.7371C19.0664 24.8069 20.6326 23.2422 22.5645 23.2422Z" fill="url(#paint5_linear)"/>
<path d="M26.4106 30.2188H168.783C169.17 30.2188 169.483 30.5317 169.483 30.9177V40.2872C169.483 40.6732 169.17 40.9861 168.783 40.9861H26.4106C26.0242 40.9861 25.7109 40.6732 25.7109 40.2872V30.9177C25.7109 30.5317 26.0242 30.2188 26.4106 30.2188Z" fill="#FEF3F4"/>
<path fill-rule="evenodd" clip-rule="evenodd" d="M31.8345 38.2697C30.3856 38.2697 29.2109 37.0962 29.2109 35.6485C29.2109 34.2009 30.3856 33.0273 31.8345 33.0273C33.2835 33.0273 34.4581 34.2009 34.4581 35.6485C34.4581 37.0962 33.2835 38.2697 31.8345 38.2697ZM42.3306 38.2697C40.8816 38.2697 39.707 37.0962 39.707 35.6485C39.707 34.2009 40.8816 33.0273 42.3306 33.0273C43.7796 33.0273 44.9542 34.2009 44.9542 35.6485C44.9542 37.0962 43.7796 38.2697 42.3306 38.2697ZM50.1995 35.6485C50.1995 37.0962 51.3741 38.2697 52.8231 38.2697C54.2721 38.2697 55.4467 37.0962 55.4467 35.6485C55.4467 34.2009 54.2721 33.0273 52.8231 33.0273C51.3741 33.0273 50.1995 34.2009 50.1995 35.6485Z" fill="#00ADFF"/>
<path d="M26.4106 44.1992H168.783C169.17 44.1992 169.483 44.5122 169.483 44.8982V125.47C169.483 125.856 169.17 126.169 168.783 126.169H26.4106C26.0242 126.169 25.7109 125.856 25.7109 125.47V44.8982C25.7109 44.5122 26.0242 44.1992 26.4106 44.1992Z" fill="white"/>
<path fill-rule="evenodd" clip-rule="evenodd" d="M97.4219 51.2031H32.707V77.5896H97.4219V51.2031ZM104.418 51.2031H162.312V77.5896H104.418V51.2031ZM104.418 88.3675H162.312V115.859H104.418V88.3675Z" fill="url(#paint6_linear)"/>
<path fill-rule="evenodd" clip-rule="evenodd" d="M109.492 64.4838C109.492 68.5372 112.781 71.8231 116.838 71.8231C120.895 71.8231 124.184 68.5372 124.184 64.4838C124.184 60.4304 120.895 57.1445 116.838 57.1445C112.781 57.1445 109.492 60.4304 109.492 64.4838ZM147.621 57.1445H131.18V60.2899H147.621V57.1445ZM131.18 68.6758H147.621V71.8212H131.18V68.6758ZM147.621 62.9111H131.18V66.0565H147.621V62.9111Z" fill="white"/>
<path fill-rule="evenodd" clip-rule="evenodd" d="M147.621 94.1328H131.18V97.2782H147.621V94.1328ZM147.621 105.664H131.18V108.809H147.621V105.664ZM131.18 99.8994H147.621V103.045H131.18V99.8994ZM109.492 101.527C109.492 105.58 112.781 108.866 116.838 108.866C120.895 108.866 124.184 105.58 124.184 101.527C124.184 97.4734 120.895 94.1875 116.838 94.1875C112.781 94.1875 109.492 97.4734 109.492 101.527Z" fill="white"/>
<path d="M118.152 62.7821C118.415 62.4992 118.857 62.4826 119.14 62.7452C119.424 63.0078 119.44 63.45 119.177 63.733L117.068 66.0047C116.826 66.2648 116.428 66.3028 116.141 66.0932L114.677 65.0216C114.365 64.7935 114.298 64.3561 114.526 64.0447C114.754 63.7333 115.192 63.6657 115.504 63.8938L116.466 64.5976L118.152 62.7821Z" fill="#00ADFF"/>
<path d="M115.035 130.886C114.451 132.613 112.816 133.856 110.891 133.856H84.8298C82.9042 133.856 81.2694 132.613 80.6859 130.886H10.3203V128.09H185.225V130.886H115.035Z" fill="#1E1539"/>
<path d="M95.4971 63.4336V99.2563H52.8203V63.4336H95.4971Z" fill="url(#paint7_linear)"/>
<path d="M78.1816 63.4336V99.2563H45.8242V63.4336H78.1816Z" fill="#00ADFF"/>
<path d="M64.7124 63.4336V74.9668H58.7656V63.4336H64.7124Z" fill="white"/>
<path d="M83.4269 89.4688V128.087H33.7539V89.4688H83.4269Z" fill="#D64F53"/>
<path d="M64.7135 89.4688V128.087H26.2344V89.4688H64.7135Z" fill="url(#paint8_linear)"/>
<path d="M46.6989 89.4688V101.876H40.4023V89.4688H46.6989Z" fill="white"/>
<path d="M207.09 54.3438V83.1767H172.629V54.3438H207.09Z" fill="url(#paint9_linear)"/>
<path d="M193.107 54.3438V83.1767H167.035V54.3438H193.107Z" fill="#00ADFF"/>
<path d="M182.273 54.3438V63.5815H177.52V54.3438H182.273Z" fill="white"/>
<path d="M207.086 65.9491L211.208 54.7297L212.384 52.7969L211.208 69.6922L207.086 72.9836V65.9491Z" fill="#211D41"/>
<path d="M217.693 129.484V133.261H213.91V129.484H217.693Z" fill="#F4B696"/>
<path d="M217.838 132.98V133.765C217.838 134.401 217.838 135.037 217.838 135.673C217.838 136.136 217.462 136.512 216.999 136.512H209.547C209.251 136.512 209.012 136.219 209.012 135.858C209.012 134.452 210.08 134.269 211.348 133.82L213.865 132.98H217.838Z" fill="#021038"/>
<path d="M229.267 129.484V133.261H225.484V129.484H229.267Z" fill="#F4B696"/>
<path d="M213.24 131.786L211.461 81.5601L223.853 81.2539L218.16 131.786H213.24Z" fill="#211D41"/>
<path d="M229.413 132.98V133.765C229.413 134.401 229.413 135.037 229.413 135.673C229.413 136.136 229.037 136.512 228.573 136.512H221.121C220.825 136.512 220.586 136.219 220.586 135.858C220.586 134.452 221.654 134.269 222.922 133.82L225.439 132.98H229.413Z" fill="#021038"/>
<path d="M224.816 131.786L215.66 81.5601L228.052 81.2539L229.736 131.786H224.816Z" fill="url(#paint10_linear)"/>
<path d="M216.127 50.5079L218.396 50.3096C222.437 49.9563 226 52.9434 226.354 56.9813C226.355 56.9899 226.356 56.9984 226.356 57.0069L228.435 81.7416L211.427 83.2282L210.188 64.8855C210.188 64.8855 208.834 62.0798 209.205 59.3598C209.485 57.3141 211.787 50.8873 216.127 50.5079Z" fill="url(#paint11_linear)"/>
<path d="M213.668 51.9565C213.017 49.9234 212.321 48.8511 211.58 48.7394C210.468 48.572 209.769 48.5234 209.636 47.4316C209.503 46.3398 209.129 46.0542 208.638 45.9537C208.147 45.8532 207.627 45.2683 208.7 44.2356C209.415 43.5472 209.606 42.2745 209.274 40.4174C213.422 37.8182 216.137 38.0397 217.418 41.082C218.699 44.1243 218.532 46.6689 217.812 48.7394L218.296 50.6801C217.974 51.8127 217.218 52.6388 216.03 53.1587C214.843 53.6785 214.055 53.2778 213.668 51.9565Z" fill="#F4B696"/>
<path d="M210.391 69.1217L210.747 66.6349L215.22 59.8555L223.072 60.945L211.434 83.2318L210.391 69.1217Z" fill="#221E41"/>
<path d="M214.583 60.8867L220.364 64.395L217.177 69.3258C216.339 70.6221 214.857 71.3541 213.317 71.2315C207.742 70.7877 202.128 70.4847 196.475 70.3226C196.048 70.5975 195.338 70.7771 194.343 70.8614C191.862 70.8022 190.484 70.2266 190.21 69.1346C189.936 68.0426 191.001 67.434 193.403 67.3089L193.319 66.8236C193.315 66.7988 193.312 66.7738 193.31 66.7487C193.282 66.3395 193.59 65.9847 194 65.9561L194.525 67.1158C195.187 67.4264 195.959 67.551 196.84 67.4895C200.442 67.2912 205.701 66.7454 212.616 65.8519L214.583 60.8867Z" fill="#F4B696"/>
<path d="M215.409 58.1523L223.241 60.7994L217.196 69.4595C216.343 70.6816 214.904 71.3598 213.418 71.241C207.81 70.7928 202.163 70.4872 196.477 70.3242L196.841 67.491C200.443 67.2927 205.702 66.7469 212.618 65.8534L215.409 58.1523Z" fill="url(#paint12_linear)"/>
<path fill-rule="evenodd" clip-rule="evenodd" d="M222.627 83.3906L222.705 84.1525L222.531 84.1702L222.453 83.4083L222.627 83.3906ZM222.753 86.3635L222.754 86.3634L222.832 87.1256L223.006 87.1079L222.882 85.891L222.881 85.8911L222.803 85.1289L222.629 85.1466L222.753 86.3635ZM222.881 85.8911L222.927 86.3458L222.754 86.3634L222.708 85.9087L222.881 85.8911ZM223.054 89.3205L223.054 89.3206L222.93 88.1036L223.104 88.0859L223.181 88.8477L223.008 88.8653L223.054 89.3205ZM223.054 89.3205L223.228 89.3029L223.181 88.8477L223.182 88.8477L223.306 90.0646L223.132 90.0823L223.054 89.3205ZM223.354 92.2737L223.355 92.2736L223.433 93.0354L223.607 93.0177L223.483 91.8008L223.482 91.8008L223.404 91.0391L223.23 91.0567L223.354 92.2737ZM223.482 91.8008L223.528 92.256L223.355 92.2736L223.309 91.8185L223.482 91.8008ZM223.656 95.2307L223.655 95.2307L223.531 94.0138L223.705 93.9961L223.783 94.7579L223.609 94.7755L223.656 95.2307ZM223.656 95.2307L223.829 95.213L223.783 94.7579L223.783 94.7578L223.907 95.9747L223.733 95.9924L223.656 95.2307ZM223.956 98.1838L223.957 98.1838L224.034 98.9456L224.208 98.9279L224.084 97.7109L224.084 97.711L224.006 96.9492L223.832 96.9669L223.956 98.1838ZM224.084 97.711L224.13 98.1662L223.957 98.1838L223.91 97.7286L224.084 97.711ZM224.257 101.141L224.257 101.141L224.133 99.9239L224.307 99.9062L224.384 100.668L224.211 100.686L224.257 101.141ZM224.257 101.141L224.431 101.123L224.384 100.668L224.385 100.668L224.509 101.885L224.335 101.903L224.257 101.141ZM224.561 104.098L224.732 104.081L224.81 104.842L224.636 104.86L224.512 103.643L224.515 103.642L224.561 104.098ZM224.686 103.625L224.515 103.642L224.438 102.881L224.612 102.863L224.735 104.08L224.732 104.081L224.686 103.625ZM225.033 107.034L224.862 107.051L224.816 106.595L224.987 106.578L225.033 107.034ZM225.033 107.034L225.036 107.033L224.912 105.816L224.738 105.834L224.816 106.595L224.812 106.596L224.936 107.813L225.11 107.795L225.033 107.034ZM225.163 110.008L225.334 109.991L225.411 110.752L225.237 110.77L225.113 109.553L225.117 109.553L225.163 110.008ZM225.287 109.535L225.117 109.553L225.039 108.791L225.213 108.773L225.337 109.99L225.334 109.991L225.287 109.535ZM225.634 112.944L225.464 112.961L225.417 112.506L225.588 112.488L225.634 112.944ZM225.634 112.944L225.638 112.943L225.514 111.727L225.34 111.744L225.417 112.506L225.414 112.506L225.538 113.723L225.712 113.705L225.634 112.944ZM225.765 115.918L225.765 115.918L225.843 116.68L226.017 116.662L225.893 115.445L225.892 115.445L225.815 114.684L225.641 114.701L225.765 115.918ZM225.892 115.445L225.939 115.901L225.765 115.918L225.719 115.463L225.892 115.445ZM226.065 118.871L226.065 118.871L225.941 117.654L226.115 117.637L226.193 118.402L226.02 118.42L226.065 118.871ZM226.065 118.871L226.239 118.854L226.193 118.402L226.194 118.402L226.317 119.619L226.143 119.637L226.065 118.871ZM226.365 121.829L226.367 121.828L226.444 122.59L226.618 122.572L226.494 121.355L226.493 121.356L226.415 120.594L226.241 120.612L226.365 121.829ZM226.493 121.356L226.539 121.811L226.367 121.828L226.32 121.373L226.493 121.356ZM226.667 124.785L226.667 124.785L226.543 123.568L226.717 123.551L226.795 124.313L226.621 124.33L226.667 124.785ZM226.667 124.785L226.841 124.768L226.795 124.313L226.795 124.312L226.919 125.529L226.745 125.547L226.667 124.785ZM226.967 127.739L226.968 127.739L227.046 128.5L227.22 128.483L227.096 127.266L227.095 127.266L227.017 126.505L226.843 126.523L226.967 127.739ZM227.095 127.266L227.141 127.722L226.968 127.739L226.922 127.283L227.095 127.266ZM227.269 130.695L227.442 130.677L227.396 130.223L227.397 130.223L227.443 130.678L227.269 130.695L227.269 130.695ZM227.269 130.695L227.268 130.695L227.144 129.478L227.318 129.46L227.396 130.223L227.223 130.24L227.269 130.695Z" fill="#A587FF"/>
<path d="M209.13 37.7212C208.064 40.0346 208.842 41.3653 211.462 41.7131C215.394 42.2349 213.032 47.1511 215.831 48.3823C218.631 49.6135 215.228 52.9217 220.379 52.9217C223.814 52.9217 225.854 54.7508 226.501 58.409C226.392 53.4873 225.17 50.1451 222.833 48.3823C219.327 45.7381 221.077 39.4323 218.685 37.7212C216.293 36.0101 213.734 36.0313 211.984 36.0313C210.817 36.0313 209.866 36.5946 209.13 37.7212Z" fill="url(#paint13_linear)"/>
<path d="M152.934 129.664H156.716V133.441H152.934V129.664Z" fill="#F4B696"/>
<path d="M152.785 133.156H156.758L159.275 133.996C160.544 134.444 161.612 134.628 161.612 136.033C161.612 136.395 161.372 136.687 161.077 136.687H153.625C153.161 136.687 152.785 136.312 152.785 135.849V133.156Z" fill="#021038"/>
<path d="M141.359 129.664H145.142V133.441H141.359V129.664Z" fill="#F4B696"/>
<path d="M157.386 131.966H152.466L146.773 81.4336L159.166 81.7398L157.386 131.966Z" fill="#211D41"/>
<path d="M167.036 63.0346V67.544C165.453 67.6891 163.899 67.8555 162.375 68.0431C160.899 68.2249 159.437 67.6124 158.531 66.433L154.328 60.958L160.737 55.0469L162.886 62.5191C164.342 62.7072 165.725 62.8791 167.036 63.0346Z" fill="#211D41"/>
<path d="M141.211 133.156H145.184L147.701 133.996C148.969 134.444 150.038 134.628 150.038 136.033C150.038 136.395 149.798 136.687 149.503 136.687H142.05C141.587 136.687 141.211 136.312 141.211 135.849V133.156Z" fill="#021038"/>
<path d="M145.81 131.966H140.891L142.574 81.4336L154.966 81.7398L145.81 131.966Z" fill="url(#paint14_linear)"/>
<path d="M154.495 50.6876C159.425 51.1185 161.642 54.1715 161.145 59.8466L159.195 83.4079L142.188 81.9213L144.266 57.1866C144.267 57.1781 144.268 57.1695 144.268 57.161C144.622 53.1231 148.185 50.136 152.227 50.4893C152.983 50.5554 153.739 50.6215 154.495 50.6876Z" fill="url(#paint15_linear)"/>
<path d="M174.285 74.4941C173.389 74.5569 172.235 74.0174 171.633 73.9704C169.621 73.8132 165.512 73.5356 159.309 73.1377C158.278 73.0575 156.847 72.5943 156.06 71.9765L150.672 67.7482L154.995 62.5508L159.71 67.9353C164.868 69.618 169.33 69.987 172.136 70.5489C172.836 70.1835 173.394 69.9198 173.81 69.7579C174.434 69.5151 175.176 69.8384 175.526 70.0091C176.141 70.3087 175.739 70.4904 174.321 70.5541C175.218 70.5872 175.836 70.6109 176.174 70.625C176.681 70.6462 177.232 71.4255 176.898 72.7921C176.675 73.7032 175.804 74.2706 174.285 74.4941Z" fill="#F4B696"/>
<path d="M156.954 52.1362C156.567 53.4575 155.779 53.8582 154.592 53.3384C153.404 52.8185 152.648 51.9923 152.326 50.8598L152.81 48.9191C152.09 46.8486 151.923 44.304 153.204 41.2617C154.485 38.2194 157.2 37.9979 161.348 40.5971C161.016 42.4541 161.207 43.7269 161.922 44.4153C162.995 45.4479 162.475 46.0329 161.984 46.1334C161.493 46.2339 161.119 46.5195 160.986 47.6113C160.853 48.7031 160.154 48.7517 159.042 48.9191C158.301 49.0308 157.605 50.1031 156.954 52.1362Z" fill="#F4B696"/>
<path d="M152.307 48.8712C151.868 48.6514 151.636 48.3386 151.609 47.9328C151.569 47.3241 151.947 47.0834 150.9 45.7302C149.852 44.377 149.079 42.6529 150.127 39.9043C151.175 37.1558 152.898 37.1043 154.607 37.1385C156.316 37.1728 156.982 37.4425 159.391 36.9273C161.799 36.4122 162.81 38.049 162.057 40.3054C161.304 42.5618 157.814 42.1054 157.208 41.9545C156.603 41.8037 156.809 42.7585 156.77 43.7133C156.73 44.6681 156.101 44.8085 155.894 44.6507C155.686 44.493 155.231 44.2861 154.746 44.7627C154.262 45.2392 154.591 46.1158 154.924 46.1987C155.257 46.2816 155.716 46.232 155.691 46.6177C155.665 47.0035 155.334 48.1636 154.872 48.7455C154.564 49.1334 153.709 49.1753 152.307 48.8712Z" fill="url(#paint16_linear)"/>
<path d="M156.832 64.0774L150.808 69.4435C146.391 64.8277 145.035 61.5574 146.739 59.6327C149.295 56.7457 151.489 58.1318 153.085 59.8031C154.148 60.9173 155.397 62.3421 156.832 64.0774Z" fill="url(#paint17_linear)"/>
<path fill-rule="evenodd" clip-rule="evenodd" d="M148.535 85.8161L148.467 86.4266L148.293 86.4073L148.361 85.7969L148.535 85.8161ZM147.966 89.3599L148.14 89.3791L148.274 88.1634L148.273 88.1632L148.274 88.1599L148.1 88.1406L147.965 89.3564L147.966 89.3565L147.966 89.3599ZM148.139 89.3756L147.966 89.3565L148.101 88.1441L148.273 88.1632L148.139 89.3756ZM147.811 92.3327L147.637 92.3134L147.638 92.3057L147.811 92.3249L147.945 91.1168L147.945 91.1169L147.811 92.3327ZM147.945 91.1091L147.945 91.1168L147.772 91.0977L147.638 92.3057L147.637 92.3056L147.772 91.0898L147.945 91.1091ZM147.309 95.2665L147.482 95.2858L147.483 95.2777L147.486 95.278L147.621 94.0622L147.447 94.043L147.447 94.0511L147.444 94.0508L147.309 95.2665ZM147.447 94.0511L147.617 94.07L147.483 95.2777L147.312 95.2587L147.447 94.0511ZM147.158 98.235L146.984 98.2158L146.985 98.2127L147.157 98.2318L147.292 97.0191L147.293 97.0193L147.158 98.235ZM147.292 97.016L147.292 97.0191L147.119 97L146.985 98.2127L146.983 98.2125L147.118 96.9967L147.292 97.016ZM146.656 101.169L146.83 101.188L146.965 99.9724L146.964 99.9723L146.965 99.9686L146.791 99.9493L146.656 101.165L146.657 101.165L146.656 101.169ZM146.83 101.184L146.657 101.165L146.791 99.9531L146.964 99.9723L146.83 101.184ZM146.501 104.142L146.328 104.123L146.328 104.118L146.502 104.137L146.501 104.142ZM146.637 102.921L146.636 102.926L146.462 102.907L146.463 102.902L146.637 102.921ZM146 107.075L146.174 107.095L146.174 107.089L146.001 107.07L146 107.075ZM146.309 105.879L146.309 105.874L146.135 105.854L146.135 105.86L146.309 105.879ZM145.846 110.047L145.672 110.028L145.673 110.024L145.846 110.044L145.98 108.831L145.981 108.831L145.846 110.047ZM145.981 108.828L145.98 108.831L145.807 108.812L145.673 110.024L145.672 110.024L145.807 108.809L145.981 108.828ZM145.345 112.98L145.519 113L145.653 111.784L145.652 111.784L145.652 111.777L145.479 111.758L145.344 112.974L145.345 112.974L145.345 112.98ZM145.518 112.993L145.345 112.974L145.48 111.765L145.652 111.784L145.518 112.993ZM145.189 115.954L145.016 115.935L145.151 114.719L145.154 114.719L145.02 115.927L145.19 115.946L145.189 115.954ZM145.19 115.946L145.324 114.738L145.154 114.719L145.154 114.711L145.328 114.73L145.193 115.946L145.19 115.946ZM144.688 118.884L144.861 118.903L144.862 118.899L144.865 118.899L145 117.683L144.826 117.664L144.826 117.668L144.822 117.668L144.688 118.884ZM144.826 117.668L144.996 117.687L144.862 118.899L144.691 118.88L144.826 117.668ZM144.537 121.856L144.363 121.837L144.364 121.833L144.536 121.852L144.671 120.64L144.672 120.64L144.537 121.856ZM144.671 120.637L144.671 120.64L144.498 120.621L144.364 121.833L144.362 121.833L144.497 120.617L144.671 120.637ZM144.034 124.791L144.208 124.81L144.209 124.805L144.035 124.786L144.034 124.791ZM144.343 123.594L144.343 123.589L144.17 123.57L144.169 123.575L144.343 123.594ZM143.88 127.763L143.707 127.743L143.707 127.738L143.881 127.758L143.88 127.763ZM144.016 126.542L144.015 126.547L143.841 126.528L143.842 126.522L144.016 126.542ZM143.553 130.715L143.379 130.696L143.379 130.692L143.553 130.712L143.687 129.499L143.688 129.499L143.553 130.715ZM143.514 129.48L143.687 129.499L143.688 129.496L143.514 129.477L143.379 130.692L143.379 130.692L143.514 129.48Z" fill="#A587FF"/>
<path d="M123.484 99.2539V128.087H89.0234V99.2539H123.484Z" fill="url(#paint18_linear)"/>
<path d="M109.501 99.2539V128.087H83.4297V99.2539H109.501Z" fill="#0737A3"/>
<path d="M98.6678 99.2539V108.492H93.9141V99.2539H98.6678Z" fill="white"/>
<defs>
<linearGradient id="paint0_linear" x1="-5.93812" y1="21.986" x2="22.5226" y2="43.7717" gradientUnits="userSpaceOnUse">
<stop stop-color="#CFE49F"/>
<stop offset="1" stop-color="#A9D386"/>
</linearGradient>
<linearGradient id="paint1_linear" x1="91.8021" y1="12.8739" x2="91.8021" y2="49.8108" gradientUnits="userSpaceOnUse">
<stop stop-color="#D0F6FF"/>
<stop offset="1" stop-color="#8BE2F7"/>
</linearGradient>
<linearGradient id="paint2_linear" x1="165.643" y1="31.2421" x2="188.885" y2="50.4428" gradientUnits="userSpaceOnUse">
<stop stop-color="#6EAE7C"/>
<stop offset="1" stop-color="#0F575D"/>
</linearGradient>
<linearGradient id="paint3_linear" x1="167.964" y1="18.1461" x2="180.397" y2="23.6316" gradientUnits="userSpaceOnUse">
<stop stop-color="#CFE49F"/>
<stop offset="1" stop-color="#A9D386"/>
</linearGradient>
<linearGradient id="paint4_linear" x1="168.387" y1="35.4929" x2="172.716" y2="48.1834" gradientUnits="userSpaceOnUse">
<stop stop-color="#77D791"/>
<stop offset="1" stop-color="#4FA67E"/>
</linearGradient>
<linearGradient id="paint5_linear" x1="167.125" y1="143.274" x2="167.778" y2="50.884" gradientUnits="userSpaceOnUse">
<stop stop-color="#2B3389"/>
<stop offset="1" stop-color="#444FB7"/>
</linearGradient>
<linearGradient id="paint6_linear" x1="4.32789" y1="55.9" x2="4.32789" y2="148.87" gradientUnits="userSpaceOnUse">
<stop stop-color="#D0F6FF"/>
<stop offset="1" stop-color="#8BE2F7"/>
</linearGradient>
<linearGradient id="paint7_linear" x1="52.8203" y1="63.4336" x2="52.8203" y2="99.2563" gradientUnits="userSpaceOnUse">
<stop stop-color="#4DBCFA"/>
<stop offset="1" stop-color="#1486DB"/>
</linearGradient>
<linearGradient id="paint8_linear" x1="26.2344" y1="89.4688" x2="26.2344" y2="128.087" gradientUnits="userSpaceOnUse">
<stop stop-color="#FF9485"/>
<stop offset="1" stop-color="#FF676E"/>
</linearGradient>
<linearGradient id="paint9_linear" x1="172.629" y1="54.3438" x2="172.629" y2="83.1767" gradientUnits="userSpaceOnUse">
<stop stop-color="#4DBCFA"/>
<stop offset="1" stop-color="#1486DB"/>
</linearGradient>
<linearGradient id="paint10_linear" x1="210.42" y1="54.4964" x2="210.42" y2="175.58" gradientUnits="userSpaceOnUse">
<stop stop-color="#1533B6"/>
<stop offset="1" stop-color="#356BE9"/>
</linearGradient>
<linearGradient id="paint11_linear" x1="206.501" y1="41.2656" x2="206.501" y2="83.2282" gradientUnits="userSpaceOnUse">
<stop stop-color="#C0E4FD"/>
<stop offset="1" stop-color="#72B9FE"/>
</linearGradient>
<linearGradient id="paint12_linear" x1="192.815" y1="54.5671" x2="192.815" y2="71.2544" gradientUnits="userSpaceOnUse">
<stop stop-color="#C0E4FD"/>
<stop offset="1" stop-color="#72B9FE"/>
</linearGradient>
<linearGradient id="paint13_linear" x1="208.668" y1="36.0312" x2="208.668" y2="58.409" gradientUnits="userSpaceOnUse">
<stop stop-color="#1D2A78"/>
<stop offset="1" stop-color="#12033B"/>
</linearGradient>
<linearGradient id="paint14_linear" x1="135.65" y1="54.6761" x2="135.65" y2="175.76" gradientUnits="userSpaceOnUse">
<stop stop-color="#1533B6"/>
<stop offset="1" stop-color="#356BE9"/>
</linearGradient>
<linearGradient id="paint15_linear" x1="142.188" y1="50.4609" x2="142.188" y2="83.4079" gradientUnits="userSpaceOnUse">
<stop stop-color="#FF9485"/>
<stop offset="1" stop-color="#FF676E"/>
</linearGradient>
<linearGradient id="paint16_linear" x1="149.629" y1="36.832" x2="149.629" y2="49.0716" gradientUnits="userSpaceOnUse">
<stop stop-color="#1D2A78"/>
<stop offset="1" stop-color="#12033B"/>
</linearGradient>
<linearGradient id="paint17_linear" x1="146.027" y1="57.9609" x2="146.027" y2="69.4435" gradientUnits="userSpaceOnUse">
<stop stop-color="#FF9485"/>
<stop offset="1" stop-color="#FF676E"/>
</linearGradient>
<linearGradient id="paint18_linear" x1="76.1933" y1="83.9865" x2="76.1933" y2="153.075" gradientUnits="userSpaceOnUse">
<stop stop-color="#1533B6"/>
<stop offset="1" stop-color="#356BE9"/>
</linearGradient>
</defs>
</svg>
