<svg width="100" height="100" viewBox="0 0 100 100" fill="none" xmlns="http://www.w3.org/2000/svg">
<path d="M94.6319 17.388C94.4057 14.8518 92.3149 12.9392 89.7686 12.9392H77.1362V11.0775H77.3821C79.1859 11.0775 80.6535 9.60999 80.6535 7.80635V3.27117C80.6535 1.46752 79.1859 0 77.3821 0H40.2018C39.3929 0 38.7371 0.65564 38.7371 1.46479C38.7371 2.27394 39.3929 2.92958 40.2018 2.92958H77.3821C77.5706 2.92958 77.7239 3.0827 77.7239 3.27117V7.80635C77.7239 7.99482 77.5706 8.14794 77.3821 8.14794H22.6173C22.4289 8.14794 22.2756 7.99482 22.2756 7.80635V3.27117C22.2756 3.0827 22.4289 2.92958 22.6173 2.92958H33.3339C34.1429 2.92958 34.7987 2.27394 34.7987 1.46479C34.7987 0.65564 34.1429 0 33.3339 0H22.6173C20.8135 0 19.346 1.46752 19.346 3.27117V7.80635C19.346 9.60999 20.8135 11.0775 22.6173 11.0775H22.8632V12.9392H10.2309C7.6845 12.9392 5.59376 14.8518 5.3676 17.388C5.33791 17.7197 4.67973 25.6145 7.91262 34.3583C10.8705 42.3584 17.6566 52.5732 33.2048 56.5821C35.7079 58.5597 38.566 60.1073 41.6668 61.1102L42.4041 62.3272C43.7976 64.6277 44.5341 67.3473 44.5341 70.1919C44.5341 71.9296 44.2572 73.6271 43.7111 75.237L42.6873 78.2541H39.281C35.7854 78.2541 32.9414 81.0982 32.9414 84.5939V87.6624H27.6103C26.1059 87.6624 24.8819 88.8865 24.8819 90.391V97.2716C24.8819 98.776 26.1059 100 27.6103 100H72.3893C73.8938 100 75.1177 98.776 75.1177 97.2716V90.391C75.1177 88.8865 73.8938 87.6624 72.3893 87.6624H67.0583V84.5939C67.0583 81.0982 64.2142 78.2541 60.7187 78.2541H57.3123L56.2886 75.237C55.7423 73.6273 55.4653 71.9297 55.4653 70.1919C55.4653 67.3475 56.2018 64.6279 57.5953 62.3272L58.3326 61.1102C61.4335 60.1073 64.2914 58.5599 66.7946 56.5821C82.3429 52.5732 89.1289 42.3584 92.0868 34.3583C95.3197 25.6145 94.6615 17.7198 94.6319 17.388ZM23.4056 40.6926C20.6744 38.1357 18.5821 34.9637 17.1511 31.1832C16.1568 28.5564 15.5061 25.7043 15.2164 22.7044H22.8632V35.2844C22.8632 37.1359 23.0505 38.9445 23.4056 40.6926ZM10.6606 33.3425C7.65384 25.2104 8.2585 17.9532 8.28565 17.6484C8.37608 16.634 9.21237 15.8689 10.2309 15.8689H22.8632V19.775H15.0952C14.3038 19.775 13.5444 20.1104 13.0116 20.6951C12.4783 21.2807 12.2146 22.0689 12.2882 22.8579C12.5966 26.1631 13.3109 29.3132 14.4112 32.2205C16.5844 37.9621 20.102 42.4453 24.9171 45.637C25.8645 47.9236 27.1158 50.0536 28.6208 51.9764C18.0083 47.5775 13.0103 39.6974 10.6606 33.3425ZM72.1882 90.5919V97.0704H27.8113V90.5919H72.1882ZM60.7187 81.1837C62.5989 81.1837 64.1287 82.7135 64.1287 84.5939V87.6624H35.871V84.5939C35.871 82.7135 37.4008 81.1837 39.281 81.1837H60.7187ZM53.5144 76.1784L54.2187 78.2541H45.7805L46.485 76.1782C47.1342 74.2644 47.4635 72.2504 47.4635 70.1919C47.4635 67.3106 46.8196 64.5289 45.595 62.0616C47.0291 62.2967 48.5 62.4209 49.9997 62.4209C51.4993 62.4209 52.9703 62.2967 54.4043 62.0616C53.1797 64.5289 52.5358 67.3106 52.5358 70.1919C52.536 72.2506 52.8651 74.2646 53.5144 76.1784ZM49.9997 59.4911C36.652 59.4911 25.7928 48.632 25.7928 35.2844V11.0775H74.2066V35.2844C74.2066 48.6322 63.3475 59.4911 49.9997 59.4911ZM89.3391 33.3425C86.9894 39.6975 81.9911 47.5785 71.378 51.9774C72.8858 50.0511 74.1391 47.917 75.0873 45.6256C79.2217 42.8802 82.4057 39.1827 84.5982 34.5528C84.9445 33.8218 84.6324 32.9482 83.9014 32.6021C83.1706 32.256 82.2972 32.5677 81.9507 33.299C80.5933 36.1655 78.8032 38.6351 76.5927 40.7016C76.9489 38.9507 77.1366 37.1392 77.1366 35.2846V22.7046H84.7834C84.6377 24.2118 84.3955 25.7065 84.0633 27.1494C83.8819 27.9378 84.3738 28.7241 85.1623 28.9054C85.95 29.0878 86.7368 28.595 86.9183 27.8066C87.2882 26.1994 87.555 24.5344 87.7116 22.8579C87.7852 22.0689 87.5216 21.2807 86.9882 20.6951C86.4554 20.1104 85.6961 19.775 84.9047 19.775H77.1366V15.8689H89.769C90.7875 15.8689 91.6238 16.634 91.7142 17.6486C91.741 17.9532 92.3456 25.2104 89.3391 33.3425Z" fill="#333333"/>
<path d="M59.6316 28.4487L55.4314 27.8384C55.2484 27.8116 55.0904 27.6968 55.0085 27.5312L53.1301 23.7251C52.5377 22.5247 51.3382 21.7791 49.9995 21.7791C48.6609 21.7791 47.4614 22.5247 46.869 23.7251L44.9905 27.5312C44.9087 27.697 44.7507 27.8118 44.5677 27.8384L40.3675 28.4487C39.0427 28.6411 37.9629 29.5514 37.5492 30.8246C37.1356 32.0978 37.474 33.4691 38.4326 34.4036L41.4719 37.366C41.6043 37.4951 41.6647 37.6808 41.6334 37.8632L40.9159 42.0467C40.6895 43.366 41.2217 44.6741 42.3047 45.461C43.3875 46.2475 44.7964 46.3496 45.9815 45.7268L49.7382 43.7517C49.9019 43.6655 50.0972 43.6655 50.2609 43.7517L54.0178 45.7268C54.5332 45.9977 55.0908 46.1315 55.6454 46.1315C56.3663 46.1315 57.0825 45.9055 57.6944 45.4608C58.7773 44.6739 59.3095 43.3656 59.0832 42.0465L58.3656 37.863C58.3344 37.6806 58.3947 37.4949 58.5272 37.366L61.5667 34.4032C62.5253 33.4689 62.8637 32.0974 62.4501 30.8244C62.0364 29.5514 60.9562 28.6411 59.6316 28.4487ZM59.5217 32.3056L56.4821 35.2684C55.6593 36.0705 55.2839 37.2256 55.4781 38.3583L56.1956 42.5418C56.247 42.8412 56.0776 43.0144 55.9722 43.0912C55.8669 43.1679 55.6497 43.2757 55.3808 43.1339L51.6239 41.1588C51.1153 40.8914 50.5573 40.7576 49.9993 40.7576C49.4414 40.7576 48.8834 40.8914 48.3748 41.1588L44.6181 43.1339C44.3494 43.2755 44.1322 43.1677 44.0265 43.0912C43.9211 43.0144 43.7519 42.8414 43.8031 42.5418L44.5206 38.3583C44.715 37.2256 44.3396 36.0705 43.5166 35.2682L40.4772 32.3058C40.2597 32.0937 40.2946 31.8541 40.335 31.7301C40.3753 31.606 40.4878 31.3916 40.7884 31.3478L44.9886 30.7375C46.126 30.5721 47.1086 29.8582 47.6172 28.8278L49.4956 25.0217C49.63 24.7493 49.8689 24.7086 49.9991 24.7086C50.1294 24.7086 50.3683 24.7493 50.5026 25.0217L52.3811 28.8278C52.8897 29.8582 53.8722 30.5723 55.0097 30.7375L59.2101 31.3478C59.5107 31.3916 59.6232 31.606 59.6634 31.7301C59.7041 31.8541 59.739 32.0937 59.5217 32.3056Z" fill="#333333"/>
</svg>
